<?xml version="1.0" standalone="no"?>
<!DOCTYPE svg PUBLIC "-//W3C//DTD SVG 1.1//EN" "http://www.w3.org/Graphics/SVG/1.1/DTD/svg11.dtd" >
<svg xmlns="http://www.w3.org/2000/svg" xmlns:xlink="http://www.w3.org/1999/xlink" version="1.1">
<metadata>
Created by FontForge 20170731 at Sun Mar 20 11:31:37 2022
 By Aleksey,,,
https://www.baianat.com/
</metadata>
<defs>
<font id="Somar-Medium" horiz-adv-x="0" >
  <font-face 
    font-family="Somar Medium"
    font-weight="500"
    font-stretch="normal"
    units-per-em="2048"
    panose-1="0 0 6 0 0 0 0 0 0 0"
    ascent="1638"
    descent="-410"
    x-height="1030"
    cap-height="1399"
    bbox="-995 -895 2802 2359"
    underline-thickness="102"
    underline-position="-307"
    unicode-range="U+0020-FEFC"
  />
<missing-glyph horiz-adv-x="921" 
 />
    <glyph glyph-name="uniFDF2" unicode="&#x627;&#xfedf;&#xfee0;&#xfeea;" horiz-adv-x="2897" arabic-form="isolated" 
d="M1536 2036v-232l-80 -22v231zM1409 1438q-57 0 -94 36.5t-37 100.5v47l80 20v-67q0 -57 51 -57q47 0 47 67v90l80 23v-101q0 -47 49 -47q60 0 60 70v106l77 23v-129q0 -71 -34.5 -112.5t-92.5 -41.5q-56 0 -88 43q-13 -34 -39.5 -52.5t-58.5 -18.5zM2068 295v1130h199
v-1198q0 -95 -66 -161t-161 -66h-279q-135 0 -235 115q-90 -115 -258 -115h-107q-91 0 -167 40t-124 110q-119 -142 -327 -142q-173 0 -296.5 127t-123.5 305v168q0 185 123 308.5t309 123.5h453v-688q0 -68 43 -110.5t110 -42.5h109q81 0 119.5 45.5t40.5 120.5l-3 923h199
v-919q0 -76 39.5 -123t122.5 -47h190q37 0 63.5 24.5t26.5 71.5zM2542 1425h198v-1425h-198v1425zM811 332v512h-256q-103 0 -168 -66t-65 -170v-168q0 -97 65 -166t156 -69q82 0 153 33.5t115 93.5z" />
    <glyph glyph-name="uniFEF5" unicode="&#xfedf;&#xfe82;" horiz-adv-x="1349" arabic-form="isolated" 
d="M340 1571l-111 -92l-45 69l172 146q25 -53 82.5 -80t122.5 -27q53 0 119.5 22t95.5 46l12 -94q-35 -32 -103.5 -54t-123.5 -22q-122 0 -221 86zM1012 1425h198v-1198q0 -95 -66 -161t-161 -66h-897v199h274v1071h199v-1071h363q37 0 63.5 24.5t26.5 71.5v1130z" />
    <glyph glyph-name="uniFEF6" unicode="&#xfee0;&#xfe82;" horiz-adv-x="1525" arabic-form="final" 
d="M287 1464l-45 70l170 145q25 -53 82.5 -79.5t123.5 -26.5q54 0 120.5 21.5t95.5 45.5l12 -94q-37 -33 -105 -54.5t-123 -21.5q-125 0 -221 86zM1425 199h99v-199h-127q-69 0 -129 32t-101 87q-91 -119 -262 -119h-766v199h285v1071h199v-1071h284q83 0 121.5 47t38.5 123
l-2 1056h199v-1056q0 -77 38.5 -123.5t122.5 -46.5z" />
    <glyph glyph-name="uniFEF7" unicode="&#xfedf;&#xfe84;" horiz-adv-x="1349" arabic-form="isolated" 
d="M659 1497v-113h-411v113h76q-54 54 -54 133q0 85 48.5 135t134.5 50q85 0 136 -51t60 -150h-102q-15 88 -92 88q-76 0 -76 -82t78 -123h202zM1012 1425h198v-1198q0 -95 -66 -161t-161 -66h-897v199h274v1071h199v-1071h363q37 0 63.5 24.5t26.5 71.5v1130z" />
    <glyph glyph-name="uniFEF8" unicode="&#xfee0;&#xfe84;" horiz-adv-x="1513" arabic-form="final" 
d="M705 1497v-113h-412v113h76q-54 54 -54 133q0 85 48.5 135t134.5 50q85 0 136 -51t60 -150h-102q-15 88 -92 88q-76 0 -76 -82t78 -123h203zM1425 199h99v-199h-127q-69 0 -129 32t-101 87q-91 -119 -262 -119h-766v199h285v1071h199v-1071h284q83 0 121.5 47t38.5 123
l-2 1056h199v-1056q0 -77 38.5 -123.5t122.5 -46.5z" />
    <glyph glyph-name="uniFEF9" unicode="&#xfedf;&#xfe88;" horiz-adv-x="1349" arabic-form="isolated" 
d="M1012 1425h198v-1198q0 -95 -66 -161t-161 -66h-897v199h274v1071h199v-1071h363q37 0 63.5 24.5t26.5 71.5v1130zM365 -373q0 -77 73 -121h209v-112h-414v112h78q-53 53 -53 134q0 84 48.5 134t133.5 50q84 0 136 -51t61 -150h-105q-15 88 -90 88q-77 0 -77 -84z" />
    <glyph glyph-name="uniFEFA" unicode="&#xfee0;&#xfe88;" horiz-adv-x="1513" arabic-form="final" 
d="M1425 199h99v-199h-127q-69 0 -129 32t-101 87q-91 -119 -262 -119h-766v199h285v1071h199v-1071h284q83 0 121.5 47t38.5 123l-2 1056h199v-1056q0 -77 38.5 -123.5t122.5 -46.5zM428 -330q0 -82 78 -123h203v-112h-412v112h76q-54 54 -54 134q0 85 48.5 134.5
t134.5 49.5q85 0 136 -51t60 -150h-102q-15 88 -92 88q-76 0 -76 -82z" />
    <glyph glyph-name="uniFEFB" unicode="&#xfedf;&#xfe8e;" horiz-adv-x="1349" arabic-form="isolated" 
d="M1012 1425h198v-1198q0 -95 -66 -161t-161 -66h-897v199h274v1071h199v-1071h363q37 0 63.5 24.5t26.5 71.5v1130z" />
    <glyph glyph-name="uniFEFC" unicode="&#xfee0;&#xfe8e;" horiz-adv-x="1513" arabic-form="final" 
d="M1425 199h99v-199h-127q-69 0 -129 32t-101 87q-91 -119 -262 -119h-766v199h285v1071h199v-1071h284q83 0 121.5 47t38.5 123l-2 1056h199v-1056q0 -77 38.5 -123.5t122.5 -46.5z" />
    <glyph glyph-name="uni066E.init" unicode="&#x66e;" horiz-adv-x="583" 
d="M264 971h197v-682q0 -123 -82 -206t-205 -83h-176l-86 33v133l86 31v2h104q83 0 122.5 47t39.5 123v602z" />
    <glyph glyph-name="uni066E.medi" unicode="&#x66e;" horiz-adv-x="659" 
d="M596 199h70v-199h-97q-133 0 -233 115q-93 -115 -260 -115h-78l-86 33v133l86 33h80q84 0 122 46.5t38 123.5v600h198v-529q0 -33 -2 -51v-20q0 -76 39.5 -123t122.5 -47z" />
    <glyph glyph-name="uni066E.fina" unicode="&#x66e;" horiz-adv-x="1845" 
d="M1774 199h88v-199h-113q-136 0 -236 115q-93 -115 -260 -115h-743q-183 0 -305.5 122t-122.5 306v328h199v-328q0 -101 64 -165t165 -64h743q84 0 123 46.5t39 123.5v600h199v-529q0 -33 -2 -51v-20q0 -76 39.5 -123t122.5 -47z" />
    <glyph glyph-name="uni066F.fina" unicode="&#x66f;" horiz-adv-x="1644" 
d="M1530 199h125v-199h-135q-42 -260 -235.5 -423t-467.5 -163h-4q-151 0 -283.5 54t-226.5 148t-148.5 227t-54.5 284v229h201v-229q0 -224 144 -368t368 -144h4q203 0 335.5 104t168.5 281h-246q-180 0 -301 121t-121 301v192q0 180 121 300t301 120h33q180 0 301 -120
t121 -300v-415zM852 422q0 -98 62.5 -160.5t160.5 -62.5h256v415q0 98 -62.5 161t-160.5 63h-33q-98 0 -160.5 -63t-62.5 -161v-192z" />
    <glyph glyph-name="uni06A1.init" unicode="&#x6a1;" horiz-adv-x="1130" 
d="M575 1038q182 0 307.5 -124.5t125.5 -307.5v-200q0 -167 -118.5 -285.5t-285.5 -118.5h-606l-86 31v135l86 31h227q-102 95 -102 237v170q0 183 124.5 307.5t307.5 124.5h20zM811 424v182q0 101 -68 168.5t-168 67.5h-20q-101 0 -168.5 -67.5t-67.5 -168.5v-170
q0 -98 66.5 -167.5t157.5 -69.5h43q93 0 159 66t66 159z" />
    <glyph glyph-name="uni06A1.medi" unicode="&#x6a1;" horiz-adv-x="1175" 
d="M936 199h250v-199h-1192l-84 33v133l84 31v2h262q-47 42 -74.5 104t-27.5 131v170q0 189 120.5 311.5t321.5 122.5q202 0 322 -120.5t120 -313.5v-170q0 -69 -27.5 -131t-74.5 -104zM842 434v170q0 106 -64.5 171t-177.5 65q-121 0 -185.5 -62.5t-64.5 -173.5v-170
q0 -96 72.5 -165.5t169.5 -69.5q116 0 183 67t67 168z" />
    <glyph glyph-name="uni06A1.fina" unicode="&#x6a1;" horiz-adv-x="1894" 
d="M1577 199h328v-199h-1401q-182 3 -302 125t-120 303v264h199v-264q0 -101 64 -165t165 -64h387q-47 42 -74.5 104t-27.5 131v170q0 189 121.5 311.5t320.5 122.5q202 0 322 -121t120 -313v-170q0 -69 -27.5 -131t-74.5 -104zM1483 434v170q0 106 -64.5 171t-177.5 65
q-121 0 -185.5 -62.5t-64.5 -173.5v-170q0 -96 72.5 -165.5t169.5 -69.5q117 0 183.5 67t66.5 168z" />
    <glyph glyph-name="uni06C2.fina" unicode="&#x6c2;" horiz-adv-x="1110" 
d="M766 1333v-112h-412v112h76q-53 53 -53 133q0 84 48.5 134.5t133.5 50.5t136.5 -51t60.5 -150h-103q-15 88 -92 88q-76 0 -76 -84q0 -77 74 -121h207zM567 1042q175 0 298.5 -123t123.5 -298v-220q0 -165 -117 -282t-282 -117h-55q-178 0 -300 122.5t-122 299.5v197
q0 175 123.5 298t298.5 123h32zM791 395v226q0 95 -64.5 159t-159.5 64h-32q-96 0 -161 -64t-65 -159v-197q0 -92 66 -157.5t160 -65.5h63q80 0 136.5 56.5t56.5 137.5z" />
    <glyph glyph-name="uni06C3.fina" unicode="&#x6c3;" horiz-adv-x="1208" 
d="M449 1221q-51 0 -87 35.5t-36 86.5q0 50 36 85.5t87 35.5q49 0 84.5 -35.5t35.5 -85.5q0 -51 -35 -86.5t-85 -35.5zM815 1221q-50 0 -86.5 35.5t-36.5 86.5q0 49 36.5 85t86.5 36q51 0 87 -35.5t36 -85.5q0 -51 -36 -86.5t-87 -35.5zM1161 199h58v-199h-58
q-149 0 -248 98t-102 246v496h-256q-103 0 -168 -66t-65 -170v-368h-199v368q0 186 123 310t309 124h453v-686q0 -68 43 -110.5t110 -42.5z" />
    <glyph glyph-name="uniFB57" unicode="&#x67e;" horiz-adv-x="1845" arabic-form="final" 
d="M1774 199h88v-199h-113q-136 0 -236 115q-93 -115 -260 -115h-743q-183 0 -305.5 122t-122.5 306v328h199v-328q0 -101 64 -165t165 -64h743q84 0 123 46.5t39 123.5v600h199v-529q0 -33 -2 -51v-20q0 -76 39.5 -123t122.5 -47zM819 -334q0 -51 -35.5 -87t-85.5 -36
q-51 0 -87 36t-36 87q0 50 36 85.5t87 35.5q50 0 85.5 -35.5t35.5 -85.5zM1049 -213q49 0 84.5 -35.5t35.5 -85.5q0 -51 -35 -87t-85 -36q-51 0 -87 36t-36 87q0 50 36 85.5t87 35.5zM868 -485q51 0 87 -35.5t36 -85.5q0 -51 -36 -87t-87 -36q-50 0 -86.5 36t-36.5 87
q0 49 36.5 85t86.5 36z" />
    <glyph glyph-name="uniFB58" unicode="&#x67e;" horiz-adv-x="759" arabic-form="initial" 
d="M-35 0v199h404q37 0 64.5 25t27.5 71v676h196v-744q0 -97 -65 -162t-162 -65h-465zM182 -463q-51 0 -87 36t-36 87q0 50 36 86.5t87 36.5q49 0 85 -36.5t36 -86.5q0 -51 -35.5 -87t-85.5 -36zM532 -463q-51 0 -86.5 36t-35.5 87q0 50 35.5 86.5t86.5 36.5q49 0 85 -36.5
t36 -86.5q0 -51 -35.5 -87t-85.5 -36zM352 -735q-50 0 -86.5 36t-36.5 87q0 50 36.5 86.5t86.5 36.5q51 0 87 -36.5t36 -86.5q0 -51 -36 -87t-87 -36z" />
    <glyph glyph-name="uniFB59" unicode="&#x67e;" horiz-adv-x="794" arabic-form="medial" 
d="M674 199h166v-199h-193q-133 0 -233 115q-93 -115 -260 -115h-160l-86 33v133l86 33h162q84 0 121.5 46.5t37.5 123.5v600h199v-529q0 -33 -2 -51v-20q0 -76 39.5 -123t122.5 -47zM373 -334q0 -51 -36 -87t-87 -36q-50 0 -86.5 36t-36.5 87q0 50 36.5 86.5t86.5 36.5
q51 0 87 -36.5t36 -86.5zM600 -211q51 0 87 -36.5t36 -86.5q0 -51 -36 -87t-87 -36q-50 0 -86.5 36t-36.5 87q0 50 36.5 86.5t86.5 36.5zM422 -483q49 0 85 -36.5t36 -86.5q0 -51 -35.5 -87t-85.5 -36q-51 0 -87 36t-36 87q0 50 36 86.5t87 36.5z" />
    <glyph glyph-name="uniFB67" unicode="&#x679;" horiz-adv-x="1845" arabic-form="final" 
d="M592 1012v90h72v328h88v-193q65 68 133 68q145 0 145 -172v-121h-438zM877 1217q-61 0 -125 -76v-39h190v31q0 84 -65 84zM1774 199h88v-199h-113q-136 0 -236 115q-93 -115 -260 -115h-743q-183 0 -305.5 122t-122.5 306v328h199v-328q0 -101 64 -165t165 -64h743
q84 0 123 46.5t39 123.5v600h199v-529q0 -33 -2 -51v-20q0 -76 39.5 -123t122.5 -47z" />
    <glyph glyph-name="uniFB68" unicode="&#x679;" horiz-adv-x="583" arabic-form="initial" 
d="M432 1460q143 0 143 -170v-121h-438v88h72v330h88v-194q67 67 135 67zM489 1257v33q0 82 -67 82q-58 0 -125 -76v-39h192zM264 369v602h197v-682q0 -123 -82 -206t-205 -83h-176l-86 33v133l86 33h104q83 0 122.5 47t39.5 123z" />
    <glyph glyph-name="uniFB69" unicode="&#x679;" horiz-adv-x="659" arabic-form="medial" 
d="M104 1186v90h72v328h88v-193q68 68 135 68q144 0 144 -172v-121h-439zM389 1391q-58 0 -125 -76v-39h193v31q0 84 -68 84zM596 199h70v-199h-97q-133 0 -233 115q-93 -115 -260 -115h-78l-86 33v133l86 33h80q84 0 122 46.5t38 123.5v600h198v-529q0 -33 -2 -51v-20
q0 -76 39.5 -123t122.5 -47z" />
    <glyph glyph-name="uniFB6B" unicode="&#x6a4;" horiz-adv-x="1894" arabic-form="final" 
d="M1251 1516q-51 0 -87 35.5t-36 86.5q0 50 36 86.5t87 36.5q49 0 85 -36.5t36 -86.5q0 -51 -35.5 -86.5t-85.5 -35.5zM1069 1237q-50 0 -86.5 36t-36.5 87q0 50 37 86.5t86 36.5q51 0 87 -36.5t36 -86.5q0 -51 -36 -87t-87 -36zM1305 1360q0 50 36.5 86.5t85.5 36.5
q51 0 87 -36.5t36 -86.5q0 -51 -36 -87t-87 -36q-50 0 -86 36t-36 87zM1577 199h328v-199h-1401q-182 3 -302 125t-120 303v264h199v-264q0 -101 64 -165t165 -64h387q-47 42 -74.5 104t-27.5 131v170q0 189 121.5 311.5t320.5 122.5q202 0 322 -121t120 -313v-170
q0 -69 -27.5 -131t-74.5 -104zM1483 434v170q0 106 -64.5 171t-177.5 65q-121 0 -185.5 -62.5t-64.5 -173.5v-170q0 -96 72.5 -165.5t169.5 -69.5q117 0 183.5 67t66.5 168z" />
    <glyph glyph-name="uniFB6C" unicode="&#x6a4;" horiz-adv-x="1130" arabic-form="initial" 
d="M580 1511q-50 0 -86.5 36t-36.5 87q0 49 36.5 85t86.5 36q51 0 86.5 -35.5t35.5 -85.5q0 -51 -35.5 -87t-86.5 -36zM399 1233q-51 0 -87 36t-36 87q0 50 36 85.5t87 35.5q49 0 85 -35.5t36 -85.5q0 -51 -35.5 -87t-85.5 -36zM758 1233q-51 0 -87 36t-36 87q0 50 36 85.5
t87 35.5q50 0 85.5 -35.5t35.5 -85.5q0 -51 -35.5 -87t-85.5 -36zM575 1038q182 0 307.5 -124.5t125.5 -307.5v-200q0 -167 -118.5 -285.5t-285.5 -118.5h-606l-86 31v135l86 31h227q-102 95 -102 237v170q0 183 124.5 307.5t307.5 124.5h20zM811 424v182q0 101 -68 168.5
t-168 67.5h-20q-101 0 -168.5 -67.5t-67.5 -168.5v-170q0 -98 66.5 -167.5t157.5 -69.5h43q93 0 159 66t66 159z" />
    <glyph glyph-name="uniFB6D" unicode="&#x6a4;" horiz-adv-x="1175" arabic-form="medial" 
d="M612 1511q-50 0 -86.5 36t-36.5 87q0 49 36.5 85t86.5 36q51 0 87 -35.5t36 -85.5q0 -51 -36 -87t-87 -36zM432 1233q-51 0 -87 36t-36 87q0 50 36 85.5t87 35.5q50 0 85.5 -35.5t35.5 -85.5q0 -51 -35.5 -87t-85.5 -36zM668 1356q0 50 36 85.5t87 35.5q49 0 84.5 -35.5
t35.5 -85.5q0 -51 -35 -87t-85 -36q-51 0 -87 36t-36 87zM936 199h250v-199h-1192l-84 33v133l84 31v2h262q-47 42 -74.5 104t-27.5 131v170q0 189 120.5 311.5t321.5 122.5q202 0 322 -120.5t120 -313.5v-170q0 -69 -27.5 -131t-74.5 -104zM842 434v170q0 106 -64.5 171
t-177.5 65q-121 0 -185.5 -62.5t-64.5 -173.5v-170q0 -96 72.5 -165.5t169.5 -69.5q116 0 183 67t67 168z" />
    <glyph glyph-name="uniFB7B" unicode="&#x686;" horiz-adv-x="1470" arabic-form="final" 
d="M1374 199h113v-199h-885q-135 0 -219 -74t-84 -205q0 -80 41.5 -145t114.5 -104t164 -55.5t198.5 -1.5t210.5 61v-185q-110 -52 -224.5 -70.5t-216 -6t-191.5 54t-155 105.5t-103 153.5t-38 193.5q0 214 141.5 346t358.5 132h481q-11 9 -23 28.5t-27 49.5t-27.5 58
t-32 72.5t-33.5 73.5q-121 246 -291 327t-379 -7v180q132 53 260 47t241 -63t212.5 -174t173.5 -285q30 -72 54.5 -124t45.5 -84.5t34.5 -51.5t31 -28.5t26 -12t27.5 -6.5zM696 -219q0 -27 -19 -45.5t-46 -18.5q-28 0 -47 19t-19 45t19 44.5t47 18.5t46.5 -18.5t18.5 -44.5z
M885 -219q0 -26 -20 -45t-46 -19q-28 0 -47.5 19t-19.5 45t19.5 44.5t47.5 18.5q27 0 46.5 -18.5t19.5 -44.5zM725 -442q-28 0 -48 19.5t-20 45.5t20 45t48 19t47 -19t19 -45q0 -27 -19.5 -46t-46.5 -19z" />
    <glyph glyph-name="uniFB7C" unicode="&#x686;" horiz-adv-x="1316" arabic-form="initial" 
d="M995 506q36 -86 66 -144.5t49.5 -89t41 -47t32.5 -20t33 -6.5v-199h-1240v199h947q-11 9 -23 28.5t-27 50t-27.5 57.5t-33 72.5t-33.5 73.5q-62 125 -130.5 205.5t-150.5 122t-178 39.5t-210 -47v180q268 103 501 -18t383 -457zM399 -438q-50 0 -86.5 36t-36.5 87
q0 49 36.5 85.5t86.5 36.5q51 0 87 -36t36 -86q0 -51 -36 -87t-87 -36zM750 -438q-50 0 -86.5 36t-36.5 87q0 49 36.5 85.5t86.5 36.5q51 0 86.5 -36t35.5 -86q0 -51 -35.5 -87t-86.5 -36zM571 -711q-51 0 -86.5 36t-35.5 87q0 50 35.5 86.5t86.5 36.5q49 0 85 -36.5
t36 -86.5q0 -51 -35.5 -87t-85.5 -36z" />
    <glyph glyph-name="uniFB7D" unicode="&#x686;" horiz-adv-x="1347" arabic-form="medial" 
d="M1210 199h144v-199h-1350l-88 33v133l88 33h916q-11 9 -23 28t-28 51t-28 57t-33.5 73t-33.5 73q-61 125 -129.5 205.5t-150.5 122t-178.5 39.5t-211.5 -47v180q270 103 503.5 -18t383.5 -457q36 -86 66 -144.5t49 -89t40.5 -47t32 -20t31.5 -6.5zM516 -315
q0 -51 -35.5 -87t-85.5 -36q-51 0 -87 36t-36 87q0 50 36 86t87 36q49 0 85 -36t36 -86zM745 -193q49 0 85 -36t36 -86q0 -51 -35.5 -87t-85.5 -36q-51 0 -86.5 36t-35.5 87q0 50 35.5 86t86.5 36zM565 -465q51 0 87 -36.5t36 -86.5q0 -51 -36 -87t-87 -36q-50 0 -86.5 36
t-36.5 87q0 50 37 86.5t86 36.5z" />
    <glyph glyph-name="uniFB89" unicode="&#x688;" horiz-adv-x="1134" arabic-form="final" 
d="M279 1305v88h71v329h88v-192q65 65 133 65q71 0 108.5 -43t37.5 -127v-120h-438zM563 1507q-62 0 -125 -75v-39h191v32q0 82 -66 82zM926 199h223v-199h-1051v199h629v391q0 110 -69.5 180t-178.5 70h-203v196h203q191 0 319 -127t128 -319v-391z" />
    <glyph glyph-name="uniFB8B" unicode="&#x698;" horiz-adv-x="829" arabic-form="final" 
d="M444 1464q-51 0 -86.5 36t-35.5 87q0 50 35.5 85.5t86.5 35.5q50 0 85.5 -36t35.5 -85q0 -51 -35.5 -87t-85.5 -36zM262 1186q-50 0 -86.5 36t-36.5 87q0 49 36.5 85t86.5 36q51 0 87 -35.5t36 -85.5q0 -51 -36 -87t-87 -36zM498 1309q0 49 36.5 85t86.5 36
q51 0 86.5 -35.5t35.5 -85.5q0 -51 -35.5 -87t-86.5 -36q-50 0 -86.5 36t-36.5 87zM846 199v-199h-271v-35q0 -183 -122.5 -305.5t-305.5 -122.5h-102v199h102q101 0 165.5 64t64.5 165v1018h198v-784h271z" />
    <glyph glyph-name="uniFB8D" unicode="&#x691;" horiz-adv-x="694" arabic-form="final" 
d="M197 1225v88h71v329h88v-194q68 68 136 68q143 0 143 -170v-121h-438zM481 1427q-59 0 -125 -75v-39h193v33q0 81 -68 81zM711 199v-199h-197v-35q0 -183 -121.5 -305.5t-304.5 -122.5h-104v199h104q100 0 164.5 64t64.5 165v1018h197v-784h197z" />
    <glyph glyph-name="uniFB8F" unicode="&#x6a9;" horiz-adv-x="1988" arabic-form="final" 
d="M1686 199h309v-199h-1487q-181 1 -302.5 123.5t-121.5 304.5v326h199v-326q0 -101 64 -165t165 -64h977v186q0 109 -70 178.5t-180 69.5h-649l-23 37l385 755h199l-303 -594h391q192 0 319.5 -127.5t127.5 -318.5v-186z" />
    <glyph glyph-name="uniFB90" unicode="&#x6a9;" horiz-adv-x="1368" arabic-form="initial" 
d="M795 831q189 0 318.5 -129t129.5 -317q0 -160 -112.5 -272.5t-272.5 -112.5h-854l-86 33v133l86 33h842q87 0 142.5 61t55.5 150q0 103 -69.5 163t-179.5 60h-650l-20 84l391 708l156 -63l-264 -531h387z" />
    <glyph glyph-name="uniFB91" unicode="&#x6a9;" horiz-adv-x="1447" arabic-form="medial" 
d="M1233 199h225v-199h-1464l-86 33v133l86 33h1040v186q0 109 -70 178.5t-180 69.5h-649l-22 37l393 755h199l-308 -594h387q192 0 320.5 -127.5t128.5 -318.5v-186z" />
    <glyph glyph-name="uniFB93" unicode="&#x6af;" horiz-adv-x="1937" arabic-form="final" 
d="M901 1427l-391 -759h-92l391 759h92zM1724 199h213v-199h-1431q-120 1 -217.5 57t-152 154t-54.5 217v326h197v-326q0 -101 65 -165t166 -64h1016v186q0 109 -70 178.5t-180 69.5h-647l-25 37l387 755h199l-303 -594h389q192 0 320 -127.5t128 -318.5v-186z" />
    <glyph glyph-name="uniFB94" unicode="&#x6af;" horiz-adv-x="1476" arabic-form="initial" 
d="M430 1427h92l-401 -757h-90zM903 831q189 0 319 -129t130 -317q0 -160 -112.5 -272.5t-272.5 -112.5h-983l-86 33v133l86 33h970q87 0 143 61t56 150q0 103 -70 163t-180 60h-649l-21 84l392 708l155 -63l-264 -531h387z" />
    <glyph glyph-name="uniFB95" unicode="&#x6af;" horiz-adv-x="1626" arabic-form="medial" 
d="M588 1427l-391 -759h-93l394 759h90zM1413 199h227v-199h-1642l-86 33v133l86 31v2h1216v186q0 109 -69 178.5t-178 69.5h-650l-24 37l387 755h199l-304 -594h392q192 0 319 -127.5t127 -318.5v-186z" />
    <glyph glyph-name="uniFB9F" unicode="&#x6ba;" horiz-adv-x="1503" arabic-form="final" 
d="M1513 199v-199h-229q-8 -245 -174.5 -405t-413.5 -160h-10q-166 0 -300 75.5t-210 209.5t-76 300v412h197v-412q0 -172 108.5 -280.5t280.5 -108.5h10q171 0 280 109t109 280v959h199v-780h229z" />
    <glyph glyph-name="uniFBA7" unicode="&#x6c1;" horiz-adv-x="1255" arabic-form="final" 
d="M1161 199h58v-199h-58q-149 0 -248 98t-102 246v496h-256q-103 0 -168 -66t-65 -170v-368h-199v368q0 186 123 310t309 124h453v-686q0 -68 43 -110.5t110 -42.5z" />
    <glyph glyph-name="uniFBA8" unicode="&#x6c1;" horiz-adv-x="614" arabic-form="initial" 
d="M264 971h197v-682q0 -123 -82 -206t-205 -83h-176l-86 33v133l86 33h104q83 0 122.5 47t39.5 123v602zM221 -199l6 76h156l-8 -74q-21 -190 -111 -450h-127q3 17 24 106.5t37 175.5t23 166z" />
    <glyph glyph-name="uniFBA9" unicode="&#x6c1;" horiz-adv-x="1513" arabic-form="medial" 
d="M1524 164v-199h-310v-229q0 -186 -123.5 -309t-308.5 -123h-454v661h-324l-86 33v133l86 31v2h324v473h198v-1137h256q103 0 168.5 66t65.5 170v428h508z" />
    <glyph glyph-name="uniFBAB" unicode="&#x6be;" horiz-adv-x="1513" arabic-form="final" 
d="M1214 199h310v-199h-248v-63q0 -220 -111 -349t-327 -129q-207 0 -324 139t-117 359v2l-334 -33v197l334 33v385q0 216 129.5 356.5t327.5 140.5q210 0 335.5 -146t125.5 -394q0 -171 -101 -299zM580 522v-348l237 25q144 13 231 89.5t87 209.5q0 172 -74.5 265
t-204.5 93q-120 0 -198 -94.5t-78 -239.5zM838 -358q121 0 188.5 86.5t67.5 228.5v133q-119 -75 -277 -90l-237 -23v-20q0 -144 67 -229.5t191 -85.5z" />
    <glyph glyph-name="uniFBAC" unicode="&#x6be;" horiz-adv-x="1638" arabic-form="initial" 
d="M461 991q306 76 538.5 44t371 -149t142.5 -282v-182q0 -175 -123 -298.5t-298 -123.5h-1119l-86 33v133l86 33h318q-42 36 -67 91.5t-25 117.5v137q4 127 74.5 219.5t187.5 124.5v102zM1083 199q95 0 163.5 68t68.5 163v172q-3 89 -87 154t-225 89.5t-303 0.5
q125 -14 201 -97t76 -219v-331h106zM809 199v336q0 97 -57 153.5t-160 56.5q-109 0 -166 -55t-57 -155v-123q0 -85 61.5 -146t149.5 -67h229z" />
    <glyph glyph-name="uniFBAD" unicode="&#x6be;" horiz-adv-x="1734" arabic-form="medial" 
d="M1518 199h239v-199h-1771l-86 33v133l86 33h309q-41 36 -65.5 91.5t-24.5 117.5v151q0 122 59.5 214.5t165.5 133.5v94q228 62 426.5 51.5t345.5 -70t231.5 -163t84.5 -227.5v-393zM1321 199v393q0 118 -143.5 203t-366.5 88q83 -47 127.5 -131.5t44.5 -192.5v-360h338z
M692 199h121v364q0 97 -57 154t-158 57q-109 0 -166 -55.5t-57 -155.5v-151q0 -85 61.5 -146t149.5 -67h106z" />
    <glyph glyph-name="uniFBAF" unicode="&#x6d2;" horiz-adv-x="1468" arabic-form="final" 
d="M1415 -303v-199h-1231v324q0 161 108 269t269 108h918v-199h-918q-79 0 -128.5 -49t-49.5 -129v-125h1032z" />
    <glyph glyph-name="uniFBB1" unicode="&#x6d3;" horiz-adv-x="1468" arabic-form="final" 
d="M1004 551v-113h-412v113h76q-54 54 -54 133q0 85 48.5 134.5t134.5 49.5q85 0 136 -50.5t60 -149.5h-102q-15 88 -92 88q-76 0 -76 -82t78 -123h203zM561 0q-79 0 -128.5 -49t-49.5 -129v-125h1032v-199h-1231v324q0 161 108 269t269 108h918v-199h-918z" />
    <glyph glyph-name="uniFBFD" unicode="&#x6cc;" horiz-adv-x="2072" arabic-form="final" 
d="M1855 199h228v-199h-426v836h-150q-98 0 -160.5 -63t-62.5 -161v-567q0 -253 -168 -420.5t-420 -167.5h-10q-252 0 -419 167.5t-167 420.5v410h197v-410q0 -173 108.5 -281t280.5 -108h10q172 0 281.5 108t109.5 281v567q0 180 120 301t300 121h348v-835z" />
    <glyph glyph-name="uniFBFE" unicode="&#x6cc;" horiz-adv-x="751" arabic-form="initial" 
d="M539 289q0 -123 -83 -206t-206 -83h-256l-86 33v133l86 33h186q83 0 122.5 47t39.5 123v602h197v-682zM147 -197q50 0 85.5 -35.5t35.5 -84.5q0 -51 -35.5 -87t-85.5 -36q-51 0 -86.5 36t-35.5 87q0 50 35.5 85t86.5 35zM514 -197q50 0 85.5 -35.5t35.5 -84.5
q0 -51 -35.5 -87t-85.5 -36q-51 0 -87 36t-36 87q0 50 36 85t87 35z" />
    <glyph glyph-name="uniFBFF" unicode="&#x6cc;" horiz-adv-x="837" arabic-form="medial" 
d="M696 199h162v-199h-188q-134 0 -234 115q-93 -115 -260 -115h-182l-86 33v133l86 33h184q84 0 122 46.5t38 123.5v600h199v-529q0 -33 -2 -51v-20q0 -76 39 -123t122 -47zM221 -190q51 0 87 -35.5t36 -85.5q0 -51 -36 -87t-87 -36q-50 0 -86.5 36t-36.5 87q0 49 36.5 85
t86.5 36zM588 -190q51 0 87 -35.5t36 -85.5q0 -51 -36 -87t-87 -36q-50 0 -86.5 36t-36.5 87q0 49 36.5 85t86.5 36z" />
    <glyph glyph-name="uniFE82" unicode="&#x622;" horiz-adv-x="534" arabic-form="final" 
d="M-45 1634l-45 70l172 145q24 -53 81.5 -78.5t123.5 -25.5q54 0 120 21.5t95 45.5l12 -96q-35 -31 -103.5 -52.5t-123.5 -21.5q-125 0 -221 87zM139 1425h199v-1130q0 -47 27 -71.5t65 -24.5h121v-199h-182q-97 0 -163.5 65.5t-66.5 161.5v1198z" />
    <glyph glyph-name="uniFE84" unicode="&#x623;" horiz-adv-x="540" arabic-form="final" 
d="M440 1686v-113h-413v113h77q-53 50 -53 133q0 85 48 134.5t134 49.5q84 0 136 -51t61 -150h-104q-15 88 -90 88q-78 0 -78 -82q0 -81 78 -122h204zM430 199h121v-199h-182q-97 0 -163.5 65.5t-66.5 161.5v1198h199v-1130q0 -47 27 -71.5t65 -24.5z" />
    <glyph glyph-name="uniFE86" unicode="&#x624;" horiz-adv-x="1122" arabic-form="final" 
d="M760 1386v-112h-414v112h78q-53 50 -53 134q0 85 48 134.5t134 49.5q84 0 136 -51t61 -150h-105q-15 88 -90 88q-78 0 -78 -82t78 -123h205zM1139 199v-199h-152v-92q0 -222 -189 -318t-538 -26v184q150 -21 251.5 -19.5t163.5 30.5t89 76t27 118v49h-271
q-173 2 -295.5 129t-122.5 305v170q0 186 123.5 310t309.5 124h22q184 0 307 -124t123 -310v-407h152zM522 201h269v405q0 104 -65.5 170t-168.5 66h-22q-103 0 -168.5 -66t-65.5 -170v-170q0 -96 65.5 -165.5t155.5 -69.5z" />
    <glyph glyph-name="uniFE88" unicode="&#x625;" horiz-adv-x="540" arabic-form="final" 
d="M430 199h121v-199h-182q-97 0 -163.5 65.5t-66.5 161.5v1198h199v-1130q0 -47 27 -71.5t65 -24.5zM211 -305q0 -77 74 -121h209v-113h-414v113h78q-54 54 -54 133q0 84 49 134t134 50q84 0 135.5 -50.5t60.5 -149.5h-104q-15 88 -90 88q-78 0 -78 -84z" />
    <glyph glyph-name="uniFE8A" unicode="&#x626;" horiz-adv-x="2072" arabic-form="final" 
d="M424 756v-113h-412v113h76q-53 53 -53 133q0 85 48 134.5t134 49.5q85 0 136.5 -51t60.5 -150h-103q-15 89 -92 89q-76 0 -76 -82t78 -123h203zM1855 199h228v-199h-426v836h-150q-98 0 -160.5 -63t-62.5 -161v-567q0 -253 -168 -420.5t-420 -167.5h-10
q-252 0 -419 167.5t-167 420.5v410h197v-410q0 -173 108.5 -281t280.5 -108h10q172 0 281.5 108t109.5 281v567q0 180 120 301t300 121h348v-835z" />
    <glyph glyph-name="uniFE8B" unicode="&#x626;" horiz-adv-x="583" arabic-form="initial" 
d="M350 1255h209v-112h-414v112h78q-53 53 -53 134q0 84 48.5 134t133.5 50q84 0 136 -51t61 -150h-105q-15 88 -90 88q-78 0 -78 -84q0 -77 74 -121zM264 369v602h197v-682q0 -123 -82 -206t-205 -83h-176l-86 33v133l86 33h104q83 0 122.5 47t39.5 123z" />
    <glyph glyph-name="uniFE8C" unicode="&#x626;" horiz-adv-x="655" arabic-form="medial" 
d="M526 1272v-113h-413v113h77q-53 50 -53 133q0 85 48 134.5t134 49.5q84 0 136 -50.5t61 -149.5h-104q-15 88 -90 88q-78 0 -78 -82t78 -123h204zM596 199h70v-199h-97q-133 0 -233 115q-93 -115 -260 -115h-78l-86 33v133l86 33h80q84 0 122 46.5t38 123.5v600h198v-529
q0 -33 -2 -51v-20q0 -76 39.5 -123t122.5 -47z" />
    <glyph glyph-name="uniFE8E" unicode="&#x627;" horiz-adv-x="534" arabic-form="final" 
d="M139 1425h199v-1130q0 -47 27 -71.5t65 -24.5h121v-199h-182q-97 0 -163.5 65.5t-66.5 161.5v1198z" />
    <glyph glyph-name="uniFE90" unicode="&#x628;" horiz-adv-x="1845" arabic-form="final" 
d="M1774 199h88v-199h-113q-136 0 -236 115q-93 -115 -260 -115h-743q-183 0 -305.5 122t-122.5 306v328h199v-328q0 -101 64 -165t165 -64h743q84 0 123 46.5t39 123.5v600h199v-529q0 -33 -2 -51v-20q0 -76 39.5 -123t122.5 -47zM866 -231q50 0 85.5 -35.5t35.5 -85.5
q0 -51 -35.5 -87t-85.5 -36q-51 0 -87 36t-36 87q0 50 36 85.5t87 35.5z" />
    <glyph glyph-name="uniFE91" unicode="&#x628;" horiz-adv-x="583" arabic-form="initial" 
d="M-31 0v199h203q37 0 64.5 25t27.5 71v676h197v-744q0 -97 -65.5 -162t-162.5 -65h-264zM266 -473q-51 0 -87 36t-36 87q0 50 36 85.5t87 35.5q50 0 85.5 -35.5t35.5 -85.5q0 -51 -35.5 -87t-85.5 -36z" />
    <glyph glyph-name="uniFE92" unicode="&#x628;" horiz-adv-x="698" arabic-form="medial" 
d="M629 199h106v-199h-133q-135 0 -235 115q-90 -115 -258 -115h-115l-86 33v133l86 33h117q81 0 119 45.5t40 120.5l-2 604h199v-600q0 -76 39.5 -123t122.5 -47zM365 -223q51 0 86.5 -35.5t35.5 -85.5q0 -51 -35.5 -87t-86.5 -36q-50 0 -86.5 36t-36.5 87q0 49 36.5 85
t86.5 36z" />
    <glyph glyph-name="uniFE94" unicode="&#x629;" horiz-adv-x="1208" arabic-form="final" 
d="M408 1221q-51 0 -87 35.5t-36 86.5q0 50 36 85.5t87 35.5q49 0 84.5 -35.5t35.5 -85.5q0 -51 -35 -86.5t-85 -35.5zM774 1221q-50 0 -86.5 35.5t-36.5 86.5q0 49 36.5 85t86.5 36q51 0 87 -35.5t36 -85.5q0 -51 -36 -86.5t-87 -35.5zM1161 199h58v-199h-58q-91 0 -167 40
t-124 110q-119 -142 -327 -142q-173 0 -296.5 127t-123.5 305v168q0 185 123 308.5t309 123.5h453v-688q0 -68 43 -110.5t110 -42.5zM811 332v512h-256q-103 0 -168 -66t-65 -170v-168q0 -97 65 -166t156 -69q82 0 153 33.5t115 93.5z" />
    <glyph glyph-name="uniFE96" unicode="&#x62a;" horiz-adv-x="1845" arabic-form="final" 
d="M647 975q-51 0 -87 36t-36 87q0 50 36 86.5t87 36.5q49 0 85 -36.5t36 -86.5q0 -51 -35.5 -87t-85.5 -36zM1014 975q-50 0 -86.5 36t-36.5 87q0 50 36.5 86.5t86.5 36.5q51 0 87 -36.5t36 -86.5q0 -51 -36 -87t-87 -36zM1774 199h88v-199h-113q-136 0 -236 115
q-93 -115 -260 -115h-743q-183 0 -305.5 122t-122.5 306v328h199v-328q0 -101 64 -165t165 -64h743q84 0 123 46.5t39 123.5v600h199v-529q0 -33 -2 -51v-20q0 -76 39.5 -123t122.5 -47z" />
    <glyph glyph-name="uniFE97" unicode="&#x62a;" horiz-adv-x="753" arabic-form="initial" 
d="M207 1116q-51 0 -87 36t-36 87q0 50 36 85.5t87 35.5q49 0 85 -36t36 -85q0 -51 -35.5 -87t-85.5 -36zM573 1116q-50 0 -86 36t-36 87q0 49 36 85t86 36q51 0 87 -35.5t36 -85.5q0 -51 -36 -87t-87 -36zM-18 0v199h278q37 0 64.5 25t27.5 71v676h197v-744q0 -97 -65 -162
t-162 -65h-340z" />
    <glyph glyph-name="uniFE98" unicode="&#x62a;" horiz-adv-x="890" arabic-form="medial" 
d="M254 1135q-51 0 -87 35.5t-36 86.5q0 50 36 86.5t87 36.5q49 0 85 -36.5t36 -86.5q0 -51 -35.5 -86.5t-85.5 -35.5zM621 1135q-50 0 -86.5 35.5t-36.5 86.5q0 49 37 86t86 37q51 0 86.5 -36.5t35.5 -86.5q0 -51 -35.5 -86.5t-86.5 -35.5zM690 199h215v-199h-241
q-136 0 -236 115q-90 -115 -258 -115h-176l-86 33v133l86 33h178q81 0 119.5 45.5t40.5 120.5l-2 604h198v-600q0 -76 39.5 -123t122.5 -47z" />
    <glyph glyph-name="uniFE9A" unicode="&#x62b;" horiz-adv-x="1845" arabic-form="final" 
d="M831 1268q-50 0 -86 36t-36 87q0 49 36 84.5t86 35.5q51 0 87 -35t36 -85q0 -51 -36 -87t-87 -36zM651 989q-51 0 -87 36t-36 87q0 50 36 85.5t87 35.5q49 0 85 -35.5t36 -85.5q0 -51 -35.5 -87t-85.5 -36zM887 1112q0 50 36 85.5t87 35.5q49 0 84.5 -35.5t35.5 -85.5
q0 -51 -35 -87t-85 -36q-51 0 -87 36t-36 87zM1774 199h88v-199h-113q-136 0 -236 115q-93 -115 -260 -115h-743q-183 0 -305.5 122t-122.5 306v328h199v-328q0 -101 64 -165t165 -64h743q84 0 123 46.5t39 123.5v600h199v-529q0 -33 -2 -51v-20q0 -76 39.5 -123t122.5 -47z
" />
    <glyph glyph-name="uniFE9B" unicode="&#x62b;" horiz-adv-x="786" arabic-form="initial" 
d="M430 1407q-50 0 -86.5 36t-36.5 87q0 49 36.5 85t86.5 36q51 0 87 -35.5t36 -85.5q0 -51 -36 -87t-87 -36zM250 1128q-51 0 -87 36t-36 87q0 50 36 85.5t87 35.5q50 0 85.5 -36t35.5 -85q0 -51 -35.5 -87t-85.5 -36zM608 1128q-51 0 -87 36t-36 87q0 50 36 85.5t87 35.5
q50 0 85.5 -36t35.5 -85q0 -51 -35.5 -87t-85.5 -36zM-16 0v199h252q37 0 64.5 25t27.5 71v676h196v-744q0 -97 -65 -162t-162 -65h-313z" />
    <glyph glyph-name="uniFE9C" unicode="&#x62b;" horiz-adv-x="923" arabic-form="medial" 
d="M444 1425q-50 0 -86 36t-36 87q0 50 36.5 86.5t85.5 36.5q51 0 87 -36.5t36 -86.5q0 -51 -36 -87t-87 -36zM264 1147q-51 0 -87 36t-36 87q0 50 36 86.5t87 36.5q49 0 85 -36.5t36 -86.5q0 -51 -35.5 -87t-85.5 -36zM500 1270q0 50 36 86.5t87 36.5q49 0 84.5 -36.5
t35.5 -86.5q0 -51 -35 -87t-85 -36q-51 0 -87 36t-36 87zM813 199h125v-199h-215q-134 0 -234 115q-93 -115 -260 -115h-235l-86 33v133l86 33h237q84 0 122 46.5t38 123.5v600h199v-529q0 -33 -2 -51v-20q0 -70 68 -120t157 -50z" />
    <glyph glyph-name="uniFE9E" unicode="&#x62c;" horiz-adv-x="1464" arabic-form="final" 
d="M1374 199h113v-199h-885q-135 0 -219 -74t-84 -205q0 -80 41.5 -145t114.5 -104t164 -55.5t198.5 -1.5t210.5 61v-185q-110 -52 -224.5 -70.5t-216 -6t-191.5 54t-155 105.5t-103 153.5t-38 193.5q0 214 141.5 346t358.5 132h481q-11 9 -23 28.5t-27 49.5t-27.5 58
t-32 72.5t-33.5 73.5q-121 246 -291 327t-379 -7v180q132 53 260 47t241 -63t212.5 -174t173.5 -285q30 -72 54.5 -124t45.5 -84.5t34.5 -51.5t31 -28.5t26 -12t27.5 -6.5zM584 -272q0 49 36.5 84.5t86.5 35.5q51 0 86.5 -35t35.5 -85q0 -51 -35.5 -87t-86.5 -36
q-50 0 -86.5 36t-36.5 87z" />
    <glyph glyph-name="uniFE9F" unicode="&#x62c;" horiz-adv-x="1306" arabic-form="initial" 
d="M985 506q36 -86 66 -144.5t49.5 -89t40.5 -47t32 -20t33 -6.5v-199h-1208l-86 33v133l86 33h915q-11 9 -23 28.5t-27 49.5t-27.5 58t-32 72.5t-33.5 73.5q-62 125 -130.5 205.5t-150.5 122t-178.5 39.5t-210.5 -47v180q268 103 501.5 -18t383.5 -457zM559 -172
q51 0 87 -36.5t36 -86.5q0 -51 -36 -87t-87 -36q-50 0 -86.5 36t-36.5 87q0 49 37 86t86 37z" />
    <glyph glyph-name="uniFEA0" unicode="&#x62c;" horiz-adv-x="1343" arabic-form="medial" 
d="M1206 199h142v-199h-1350l-86 33v133l86 33h915q-11 9 -23 28.5t-27 49.5t-27.5 58t-32 72.5t-33.5 73.5q-62 125 -130.5 205.5t-150.5 122t-178.5 39.5t-210.5 -47v180q268 103 501.5 -18t383.5 -457q36 -86 66 -144.5t49.5 -89t40.5 -47t32 -20t33 -6.5zM584 -172
q49 0 85 -36.5t36 -86.5q0 -51 -35.5 -87t-85.5 -36q-51 0 -87 36t-36 87q0 50 36 86.5t87 36.5z" />
    <glyph glyph-name="uniFEA2" unicode="&#x62d;" horiz-adv-x="1515" arabic-form="final" 
d="M1419 199h113v-199h-930q-135 0 -219 -74t-84 -205q0 -80 41.5 -145t114.5 -104t164 -55.5t198.5 -1.5t210.5 61v-185q-110 -52 -224.5 -70.5t-216 -6t-191.5 54t-155 105.5t-103 153.5t-38 193.5q0 214 141.5 346t358.5 132h553q-17 6 -36.5 30t-45.5 72.5t-41.5 81
t-46.5 98.5q-121 246 -291 327t-379 -7v180q132 53 260 47t241 -63t212.5 -174t173.5 -285q32 -77 53 -124.5t41 -83.5t31 -52.5t28.5 -27.5t29 -13.5t36.5 -5.5z" />
    <glyph glyph-name="uniFEA3" unicode="&#x62d;" horiz-adv-x="1306" arabic-form="initial" 
d="M985 506q36 -86 66 -144.5t49.5 -89t40.5 -47t32 -20t33 -6.5v-199h-1208l-86 33v133l86 33h915q-11 9 -23 28.5t-27 49.5t-27.5 58t-32 72.5t-33.5 73.5q-62 125 -130.5 205.5t-150.5 122t-178.5 39.5t-210.5 -47v180q268 103 501.5 -18t383.5 -457z" />
    <glyph glyph-name="uniFEA4" unicode="&#x62d;" horiz-adv-x="1347" arabic-form="medial" 
d="M1210 199h144v-199h-1350l-88 33v133l88 33h916q-11 9 -23 28t-28 51t-28 57t-33.5 73t-33.5 73q-61 125 -129.5 205.5t-150.5 122t-178.5 39.5t-211.5 -47v180q270 103 503.5 -18t383.5 -457q36 -86 66 -144.5t49 -89t40.5 -47t32 -20t31.5 -6.5z" />
    <glyph glyph-name="uniFEA6" unicode="&#x62e;" horiz-adv-x="1470" arabic-form="final" 
d="M573 1237q-50 0 -86 36t-36 87q0 49 36 85t86 36q51 0 87 -35.5t36 -85.5q0 -51 -36 -87t-87 -36zM1419 199h113v-199h-930q-135 0 -219 -74t-84 -205q0 -80 41.5 -145t114.5 -104t164 -55.5t198.5 -1.5t210.5 61v-185q-110 -52 -224.5 -70.5t-216 -6t-191.5 54
t-155 105.5t-103 153.5t-38 193.5q0 214 141.5 346t358.5 132h553q-17 6 -36.5 30t-45.5 72.5t-41.5 81t-46.5 98.5q-121 246 -291 327t-379 -7v180q132 53 260 47t241 -63t212.5 -174t173.5 -285q32 -77 53 -124.5t41 -83.5t31 -52.5t28.5 -27.5t29 -13.5t36.5 -5.5z" />
    <glyph glyph-name="uniFEA7" unicode="&#x62e;" horiz-adv-x="1306" arabic-form="initial" 
d="M371 1180q-51 0 -87 36t-36 87q0 50 36 86t87 36q49 0 85 -36t36 -86q0 -51 -35.5 -87t-85.5 -36zM985 506q36 -86 66 -144.5t49.5 -89t40.5 -47t32 -20t33 -6.5v-199h-1208l-86 33v133l86 33h915q-11 9 -23 28.5t-27 49.5t-27.5 58t-32 72.5t-33.5 73.5
q-62 125 -130.5 205.5t-150.5 122t-178.5 39.5t-210.5 -47v180q268 103 501.5 -18t383.5 -457z" />
    <glyph glyph-name="uniFEA8" unicode="&#x62e;" horiz-adv-x="1347" arabic-form="medial" 
d="M375 1180q-50 0 -86.5 36t-36.5 87q0 49 36.5 85.5t86.5 36.5q51 0 87 -36t36 -86q0 -51 -36 -87t-87 -36zM1210 199h144v-199h-1350l-88 33v133l88 33h916q-11 9 -23 28t-28 51t-28 57t-33.5 73t-33.5 73q-61 125 -129.5 205.5t-150.5 122t-178.5 39.5t-211.5 -47v180
q270 103 503.5 -18t383.5 -457q36 -86 66 -144.5t49 -89t40.5 -47t32 -20t31.5 -6.5z" />
    <glyph glyph-name="uniFEAA" unicode="&#x62f;" horiz-adv-x="1134" arabic-form="final" 
d="M926 199h223v-199h-1051v199h629v391q0 110 -69.5 180t-178.5 70h-221v196h221q191 0 319 -127t128 -319v-391z" />
    <glyph glyph-name="uniFEAC" unicode="&#x630;" horiz-adv-x="1134" arabic-form="final" 
d="M492 1251q-51 0 -87 36t-36 87q0 50 36 85.5t87 35.5q49 0 84.5 -35.5t35.5 -85.5q0 -51 -35 -87t-85 -36zM926 199h223v-199h-1051v199h629v391q0 110 -69.5 180t-178.5 70h-203v196h203q191 0 319 -127t128 -319v-391z" />
    <glyph glyph-name="uniFEAE" unicode="&#x631;" horiz-adv-x="690" arabic-form="final" 
d="M711 199v-199h-197v-35q0 -183 -121.5 -305.5t-304.5 -122.5h-104v199h104q100 0 164.5 64t64.5 165v1018h197v-784h197z" />
    <glyph glyph-name="uniFEB0" unicode="&#x632;" horiz-adv-x="694" arabic-form="final" 
d="M412 1171q-50 0 -86.5 36t-36.5 87q0 49 36.5 85t86.5 36q51 0 87 -35.5t36 -85.5q0 -51 -36 -87t-87 -36zM711 199v-199h-197v-35q0 -183 -121.5 -305.5t-304.5 -122.5h-104v199h104q100 0 164.5 64t64.5 165v1018h197v-784h197z" />
    <glyph glyph-name="uniFEB2" unicode="&#x633;" horiz-adv-x="2660" arabic-form="final" 
d="M2535 199h140v-199h-140q-63 -1 -116 27t-84 79q-40 -54 -92.5 -80t-133.5 -26h-141q-65 0 -116.5 30.5t-79.5 73.5q-68 -104 -218 -104q-80 0 -157 25q-68 15 -109 65v-43q0 -166 -77 -301t-212 -211t-301 -76h-8q-252 0 -419 167.5t-167 420.5v410h197v-410
q0 -173 108.5 -281t280.5 -108h8q172 0 282 108t110 281v772h198v-524q10 -47 44 -71.5t81 -24.5h100q60 0 97 38t37 97v485h192l-2 -485q0 -59 38.5 -97t100.5 -38h105q58 0 90.5 37.5t32.5 97.5v663h192v-663q0 -60 38 -97.5t101 -37.5z" />
    <glyph glyph-name="uniFEB3" unicode="&#x633;" horiz-adv-x="1699" arabic-form="initial" 
d="M1339 1024h197v-662q0 -150 -106 -256t-256 -106q-187 0 -283 111q-48 -55 -123 -84t-156 -29q-168 0 -264 113q-45 -52 -110.5 -81.5t-139.5 -29.5h-100v199h106q63 0 104.5 40.5t41.5 102.5v477h196v-477q0 -68 43 -107t125 -40q80 -2 129.5 39t49.5 108v477h198v-477
q0 -67 48 -105t135 -38q69 0 117 47.5t48 115.5v662zM-4 0l-86 33v133l86 33v-199z" />
    <glyph glyph-name="uniFEB4" unicode="&#x633;" horiz-adv-x="1824" arabic-form="medial" 
d="M1690 199h139v-199h-139q-63 -2 -116.5 26.5t-84.5 79.5q-39 -54 -91 -80t-134 -26h-162q-65 0 -117 30.5t-80 73.5q-65 -104 -225 -104h-150q-68 0 -121.5 32t-78.5 79q-34 -54 -94 -82.5t-170 -28.5h-64l-86 33v133l86 31v2h45q79 0 116.5 36.5t37.5 98.5v485h194
l2 -485q0 -66 36.5 -100.5t92.5 -34.5h121q59 0 96 38t37 97v485h193l-2 -485q0 -59 38.5 -97t100.5 -38h125q58 0 90.5 37.5t32.5 97.5v672h192v-672q0 -59 38 -97t102 -38z" />
    <glyph glyph-name="uniFEB6" unicode="&#x634;" horiz-adv-x="2660" arabic-form="final" 
d="M1686 1333q-51 0 -87 36t-36 87q0 50 36 86.5t87 36.5q49 0 84.5 -36.5t35.5 -86.5q0 -51 -35 -87t-85 -36zM1503 1055q-50 0 -86.5 36t-36.5 87q0 49 36.5 85.5t86.5 36.5q51 0 87 -36t36 -86q0 -51 -36 -87t-87 -36zM1739 1178q0 49 36.5 85.5t86.5 36.5q51 0 87 -36
t36 -86q0 -51 -36 -87t-87 -36q-50 0 -86.5 36t-36.5 87zM2535 199h140v-199h-140q-63 -1 -116 27t-84 79q-40 -54 -92.5 -80t-133.5 -26h-141q-65 0 -116.5 30.5t-79.5 73.5q-68 -104 -218 -104q-80 0 -157 25q-68 15 -109 65v-43q0 -166 -77 -301t-212 -211t-301 -76h-8
q-252 0 -419 167.5t-167 420.5v410h197v-410q0 -173 108.5 -281t280.5 -108h8q172 0 282 108t110 281v772h198v-524q10 -47 44 -71.5t81 -24.5h100q60 0 97 38t37 97v485h192l-2 -485q0 -59 38.5 -97t100.5 -38h105q58 0 90.5 37.5t32.5 97.5v663h192v-663q0 -60 38 -97.5
t101 -37.5z" />
    <glyph glyph-name="uniFEB7" unicode="&#x634;" horiz-adv-x="1699" arabic-form="initial" 
d="M868 1364q-50 0 -86.5 36t-36.5 87q0 49 36.5 86t86.5 37q51 0 87 -36.5t36 -86.5q0 -51 -36 -87t-87 -36zM688 1085q-51 0 -87 36t-36 87q0 50 36 86.5t87 36.5q49 0 85 -36.5t36 -86.5q0 -51 -35.5 -87t-85.5 -36zM1047 1085q-51 0 -87 36t-36 87q0 50 36 86.5t87 36.5
q49 0 84.5 -36.5t35.5 -86.5q0 -51 -35 -87t-85 -36zM1339 1024h197v-662q0 -150 -106 -256t-256 -106q-187 0 -283 111q-48 -55 -123 -84t-156 -29q-168 0 -264 113q-45 -52 -110.5 -81.5t-139.5 -29.5h-100v199h106q63 0 104.5 40.5t41.5 102.5v477h196v-477
q0 -68 43 -107t125 -40q80 -2 129.5 39t49.5 108v477h198v-477q0 -67 48 -105t135 -38q69 0 117 47.5t48 115.5v662zM-4 0l-86 33v133l86 33v-199z" />
    <glyph glyph-name="uniFEB8" unicode="&#x634;" horiz-adv-x="1824" arabic-form="medial" 
d="M879 1364q-50 0 -86.5 36t-36.5 87q0 49 37 86t86 37q51 0 86.5 -36.5t35.5 -86.5q0 -51 -35.5 -87t-86.5 -36zM698 1085q-51 0 -87 36t-36 87q0 50 36 86.5t87 36.5q49 0 85 -36.5t36 -86.5q0 -51 -35.5 -87t-85.5 -36zM934 1208q0 50 36 86.5t87 36.5q49 0 85 -36.5
t36 -86.5q0 -51 -35.5 -87t-85.5 -36q-51 0 -87 36t-36 87zM1690 199h139v-199h-139q-63 -2 -116.5 26.5t-84.5 79.5q-39 -54 -91 -80t-134 -26h-162q-65 0 -117 30.5t-80 73.5q-65 -104 -225 -104h-150q-68 0 -121.5 32t-78.5 79q-34 -54 -94 -82.5t-170 -28.5h-64l-86 33
v133l86 33h45q79 0 116.5 36.5t37.5 98.5v485h194l2 -485q0 -66 36.5 -100.5t92.5 -34.5h121q59 0 96 38t37 97v485h193l-2 -485q0 -59 38.5 -97t100.5 -38h125q58 0 90.5 37.5t32.5 97.5v672h192v-672q0 -59 38 -97t102 -38z" />
    <glyph glyph-name="uniFEBA" unicode="&#x635;" horiz-adv-x="2531" arabic-form="final" 
d="M2355 199h193v-199h-1266q-15 -235 -180 -388t-406 -153h-10q-166 0 -300 76t-210 210t-76 300v412h197v-412q0 -172 108.5 -279.5t280.5 -107.5h10q171 0 281 108t110 279v870h197v-219q294 324 567 324q253 0 378.5 -142.5t125.5 -447.5v-231zM2163 199v231
q0 395 -332 395q-266 0 -547 -317v-311z" />
    <glyph glyph-name="uniFEBB" unicode="&#x635;" horiz-adv-x="1662" arabic-form="initial" 
d="M1004 1018q250 0 376.5 -139t126.5 -410q0 -127 -62.5 -235t-170.5 -171t-236 -63l-1054 2v197h233v716h197v-237q313 340 590 340zM1028 199q119 0 203 83t84 203q0 340 -330 340q-278 0 -571 -346v-280h614z" />
    <glyph glyph-name="uniFEBC" unicode="&#x635;" horiz-adv-x="1579" arabic-form="medial" 
d="M1454 199h135v-199h-1591v2l-84 31v133l84 29v4h166v716h196v-247q309 350 592 350q253 0 377.5 -142.5t124.5 -447.5v-229zM1264 199v229q0 395 -332 395q-281 0 -572 -346v-278h904z" />
    <glyph glyph-name="uniFEBE" unicode="&#x636;" horiz-adv-x="2531" arabic-form="final" 
d="M1825 1190q-51 0 -87 36t-36 87q0 50 36 86.5t87 36.5q49 0 85 -36.5t36 -86.5q0 -51 -35.5 -87t-85.5 -36zM2355 199h193v-199h-1266q-15 -235 -180 -388t-406 -153h-10q-166 0 -300 76t-210 210t-76 300v412h197v-412q0 -172 108.5 -279.5t280.5 -107.5h10
q171 0 281 108t110 279v870h197v-219q294 324 567 324q253 0 378.5 -142.5t125.5 -447.5v-231zM2163 199v231q0 395 -332 395q-266 0 -547 -317v-311z" />
    <glyph glyph-name="uniFEBF" unicode="&#x636;" horiz-adv-x="1662" arabic-form="initial" 
d="M1010 1171q-50 0 -86.5 36t-36.5 87q0 50 36.5 86.5t86.5 36.5q51 0 87 -36.5t36 -86.5q0 -51 -36 -87t-87 -36zM1004 1018q250 0 376.5 -139t126.5 -410q0 -127 -62.5 -235t-170.5 -171t-236 -63l-1054 2v197h233v716h197v-237q313 340 590 340zM1028 199q119 0 203 83
t84 203q0 340 -330 340q-278 0 -571 -346v-280h614z" />
    <glyph glyph-name="uniFEC0" unicode="&#x636;" horiz-adv-x="1579" arabic-form="medial" 
d="M944 1163q-51 0 -87 36t-36 87q0 50 36 85.5t87 35.5q50 0 85.5 -35.5t35.5 -85.5q0 -51 -35.5 -87t-85.5 -36zM1454 199h135v-199h-1591v2l-84 31v133l84 31v2h166v716h196v-247q309 350 592 350q253 0 377.5 -142.5t124.5 -447.5v-229zM1264 199v229q0 395 -332 395
q-281 0 -572 -346v-278h904z" />
    <glyph glyph-name="uniFEC2" unicode="&#x637;" horiz-adv-x="1775" arabic-form="final" 
d="M1616 199h176v-199h-1692v199h226v1226h196v-757q305 350 590 350q254 0 379 -142.5t125 -447.5v-229zM1423 199v229q0 395 -329 395q-281 0 -572 -346v-278h901z" />
    <glyph glyph-name="uniFEC3" unicode="&#x637;" horiz-adv-x="1654" arabic-form="initial" 
d="M1004 1018q245 0 374 -142t129 -387q0 -202 -143 -345.5t-344 -143.5h-1028v199h225v1226h197v-747q313 340 590 340zM1042 199q114 0 193.5 80t79.5 194q0 170 -89 260t-241 90q-279 0 -571 -344v-280h628z" />
    <glyph glyph-name="uniFEC4" unicode="&#x637;" horiz-adv-x="1736" arabic-form="medial" 
d="M1513 199h234v-199h-1749v2l-84 31v133l84 29v4h225v1226h197v-755q306 348 590 348q253 0 378 -142.5t125 -447.5v-229zM1321 199v229q0 395 -332 395q-274 0 -569 -344v-280h901z" />
    <glyph glyph-name="uniFEC6" unicode="&#x638;" horiz-adv-x="1781" arabic-form="final" 
d="M1106 1190q-51 0 -87 36t-36 87q0 50 36 86.5t87 36.5q49 0 85 -36.5t36 -86.5q0 -51 -35.5 -87t-85.5 -36zM1616 199h176v-199h-1692v199h226v1226h196v-757q305 350 590 350q254 0 379 -142.5t125 -447.5v-229zM1423 199v229q0 395 -329 395q-281 0 -572 -346v-278h901
z" />
    <glyph glyph-name="uniFEC7" unicode="&#x638;" horiz-adv-x="1654" arabic-form="initial" 
d="M1004 1018q245 0 374 -142t129 -387q0 -202 -143 -345.5t-344 -143.5h-1028v199h225v1226h197v-747q313 340 590 340zM1004 1182q-50 0 -86.5 36t-36.5 87q0 49 36.5 84.5t86.5 35.5q51 0 86.5 -35t35.5 -85q0 -51 -35.5 -87t-86.5 -36zM1042 199q114 0 193.5 80
t79.5 194q0 170 -89 260t-241 90q-279 0 -571 -344v-280h628z" />
    <glyph glyph-name="uniFEC8" unicode="&#x638;" horiz-adv-x="1736" arabic-form="medial" 
d="M1513 199h234v-199h-1749v2l-84 31v133l84 31v2h225v1226h197v-755q306 348 590 348q253 0 378 -142.5t125 -447.5v-229zM1001 1182q-50 0 -86 36t-36 87q0 49 36 84.5t86 35.5q51 0 87 -35t36 -85q0 -51 -36 -87t-87 -36zM1321 199v229q0 395 -332 395q-274 0 -569 -344
v-280h901z" />
    <glyph glyph-name="uniFECA" unicode="&#x639;" horiz-adv-x="1275" arabic-form="final" 
d="M111 -266q0 98 29 180t85 146.5t124.5 114.5t160.5 97l-373 521v129q255 110 512 110q227 0 351.5 -96.5t97.5 -261.5q-21 -127 -87.5 -225.5t-189.5 -198.5q63 -51 152 -51h313v-199h-356q-98 0 -161.5 32.5t-121.5 96.5q-24 -15 -70 -40t-77.5 -42.5t-71 -49.5
t-63.5 -65t-41 -84.5t-17 -113.5q0 -99 69.5 -167t177.5 -93t244.5 -9.5t266.5 72.5v-182q-110 -52 -226 -75t-221 -16.5t-198.5 41.5t-161.5 93.5t-107.5 145t-39.5 190.5zM348 786v-10l309 -434q222 196 222 375q0 50 -37 85.5t-96.5 49.5t-129 13t-141.5 -22t-127 -57z
" />
    <glyph glyph-name="uniFECB" unicode="&#x639;" horiz-adv-x="1024" arabic-form="initial" 
d="M666 199h319v-199h-989l-84 33v133l84 31v2h235q-120 117 -120 327q0 148 48 259.5t127.5 173t181.5 89t212 18t217 -49.5v-180q-110 43 -211.5 46.5t-181.5 -31t-128 -119t-48 -210.5q0 -93 25.5 -158t73.5 -100t106 -50t133 -15z" />
    <glyph glyph-name="uniFECC" unicode="&#x639;" horiz-adv-x="1267" arabic-form="medial" 
d="M1010 199h268v-199h-389q-162 0 -258 119q-125 -119 -277 -119h-358v2l-82 31v133l82 29v4h311q41 0 117.5 16t105.5 39l-366 518v152q134 56 247 82t234 26q208 0 332.5 -79.5t124.5 -217.5q0 -51 -23 -125q-20 -58 -46 -106.5t-66 -96.5t-66.5 -75t-83.5 -82
q82 -51 193 -51zM653 344q57 59 84 90t63.5 88.5t57.5 118.5q16 44 16 78q0 129 -235 129q-150 0 -295 -60v-12z" />
    <glyph glyph-name="uniFECE" unicode="&#x63a;" horiz-adv-x="1275" arabic-form="final" 
d="M594 1233q-50 0 -86.5 36t-36.5 87q0 49 36.5 85t86.5 36q51 0 87 -35.5t36 -85.5q0 -51 -36 -87t-87 -36zM111 -266q0 98 29 180t85 146.5t124.5 114.5t160.5 97l-373 521v129q255 110 512 110q227 0 351.5 -96.5t97.5 -261.5q-21 -127 -87.5 -225.5t-189.5 -198.5
q63 -51 152 -51h313v-199h-356q-98 0 -161.5 32.5t-121.5 96.5q-24 -15 -70 -40t-77.5 -42.5t-71 -49.5t-63.5 -65t-41 -84.5t-17 -113.5q0 -99 69.5 -167t177.5 -93t244.5 -9.5t266.5 72.5v-182q-110 -52 -226 -75t-221 -16.5t-198.5 41.5t-161.5 93.5t-107.5 145
t-39.5 190.5zM348 786v-10l309 -434q222 196 222 375q0 50 -37 85.5t-96.5 49.5t-129 13t-141.5 -22t-127 -57z" />
    <glyph glyph-name="uniFECF" unicode="&#x63a;" horiz-adv-x="1024" arabic-form="initial" 
d="M557 1239q-50 0 -86.5 36t-36.5 87q0 50 37 86.5t86 36.5q51 0 87 -36.5t36 -86.5q0 -51 -36 -87t-87 -36zM666 199h319v-199h-989l-84 33v133l84 33h235q-120 117 -120 327q0 148 48 259.5t127.5 173t181.5 89t212 18t217 -49.5v-180q-110 43 -211.5 46.5t-181.5 -31
t-128 -119t-48 -210.5q0 -93 25.5 -158t73.5 -100t106 -50t133 -15z" />
    <glyph glyph-name="uniFED0" unicode="&#x63a;" horiz-adv-x="1267" arabic-form="medial" 
d="M592 1233q-50 0 -86.5 36t-36.5 87q0 49 36.5 85t86.5 36q51 0 87 -35.5t36 -85.5q0 -51 -36 -87t-87 -36zM1010 199h268v-199h-389q-162 0 -258 119q-125 -119 -277 -119h-358v2l-82 31v133l82 31v2h311q41 0 117.5 16t105.5 39l-366 518v152q134 56 247 82t234 26
q208 0 332.5 -79.5t124.5 -217.5q0 -51 -23 -125q-20 -58 -46 -106.5t-66 -96.5t-66.5 -75t-83.5 -82q82 -51 193 -51zM653 344q57 59 84 90t63.5 88.5t57.5 118.5q16 44 16 78q0 129 -235 129q-150 0 -295 -60v-12z" />
    <glyph glyph-name="uniFED2" unicode="&#x641;" horiz-adv-x="1894" arabic-form="final" 
d="M1235 1227q-50 0 -86.5 36t-36.5 87q0 50 37 86.5t86 36.5q51 0 87 -36.5t36 -86.5q0 -51 -36 -87t-87 -36zM1577 199h328v-199h-1401q-182 3 -302 125t-120 303v264h199v-264q0 -101 64 -165t165 -64h387q-47 42 -74.5 104t-27.5 131v170q0 189 121.5 311.5t320.5 122.5
q202 0 322 -121t120 -313v-170q0 -69 -27.5 -131t-74.5 -104zM1483 434v170q0 106 -64.5 171t-177.5 65q-121 0 -185.5 -62.5t-64.5 -173.5v-170q0 -96 72.5 -165.5t169.5 -69.5q117 0 183.5 67t66.5 168z" />
    <glyph glyph-name="uniFED3" unicode="&#x641;" horiz-adv-x="1130" arabic-form="initial" 
d="M567 1219q-48 2 -82.5 35.5t-35.5 82.5q-3 51 33 88t87 39q51 0 87 -35.5t36 -85.5q0 -52 -36 -88t-89 -36zM575 1038q182 0 307.5 -124.5t125.5 -307.5v-200q0 -167 -118.5 -285.5t-285.5 -118.5h-606l-86 31v135l86 31h227q-102 95 -102 237v170q0 183 124.5 307.5
t307.5 124.5h20zM811 424v182q0 101 -68 168.5t-168 67.5h-20q-101 0 -168.5 -67.5t-67.5 -168.5v-170q0 -98 66.5 -167.5t157.5 -69.5h43q93 0 159 66t66 159z" />
    <glyph glyph-name="uniFED4" unicode="&#x641;" horiz-adv-x="1175" arabic-form="medial" 
d="M584 1208q-50 0 -86.5 36t-36.5 87q0 49 36.5 86t86.5 37q51 0 87 -36.5t36 -86.5q0 -51 -36 -87t-87 -36zM936 199h266v-199h-1233l-86 33v133l86 31v2h287q-47 42 -74.5 104t-27.5 131v170q0 189 120.5 311.5t321.5 122.5q202 0 322 -120.5t120 -313.5v-170
q0 -69 -27.5 -131t-74.5 -104zM842 434v170q0 106 -64.5 171t-177.5 65q-121 0 -185.5 -62.5t-64.5 -173.5v-170q0 -96 72.5 -165.5t169.5 -69.5q116 0 183 67t67 168z" />
    <glyph glyph-name="uniFED6" unicode="&#x642;" horiz-adv-x="1644" arabic-form="final" 
d="M905 1167q-51 0 -87 36t-36 87q0 50 36 86.5t87 36.5q49 0 85 -36.5t36 -86.5q0 -51 -35.5 -87t-85.5 -36zM1272 1167q-50 0 -86.5 36t-36.5 87q0 50 36.5 86.5t86.5 36.5q51 0 87 -36.5t36 -86.5q0 -51 -36 -87t-87 -36zM1530 199h125v-199h-135q-42 -260 -235.5 -423
t-467.5 -163h-4q-151 0 -283.5 54t-226.5 148t-148.5 227t-54.5 284v229h201v-229q0 -224 144 -368t368 -144h4q203 0 335.5 104t168.5 281h-246q-180 0 -301 121t-121 301v192q0 180 121 300t301 120h33q180 0 301 -120t121 -300v-415zM852 422q0 -98 62.5 -160.5
t160.5 -62.5h256v415q0 98 -62.5 161t-160.5 63h-33q-98 0 -160.5 -63t-62.5 -161v-192z" />
    <glyph glyph-name="uniFED7" unicode="&#x642;" horiz-adv-x="1130" arabic-form="initial" 
d="M377 1221q-50 0 -86.5 35.5t-36.5 86.5q0 49 36.5 85t86.5 36q51 0 87 -35.5t36 -85.5q0 -51 -36 -86.5t-87 -35.5zM745 1221q-51 0 -86.5 35.5t-35.5 86.5q0 50 35.5 85.5t86.5 35.5q49 0 85 -36t36 -85q0 -51 -35.5 -86.5t-85.5 -35.5zM575 1038q182 0 307.5 -124.5
t125.5 -307.5v-200q0 -167 -118.5 -285.5t-285.5 -118.5h-606l-86 31v135l86 31h227q-102 95 -102 237v170q0 183 124.5 307.5t307.5 124.5h20zM811 424v182q0 101 -68 168.5t-168 67.5h-20q-101 0 -168.5 -67.5t-67.5 -168.5v-170q0 -98 66.5 -167.5t157.5 -69.5h43
q93 0 159 66t66 159z" />
    <glyph glyph-name="uniFED8" unicode="&#x642;" horiz-adv-x="1175" arabic-form="medial" 
d="M389 1206q-51 0 -87 36t-36 87q0 50 36 85.5t87 35.5q49 0 85 -36t36 -85q0 -51 -35.5 -87t-85.5 -36zM756 1206q-50 0 -86.5 36t-36.5 87q0 49 36.5 85t86.5 36q51 0 87 -35.5t36 -85.5q0 -51 -36 -87t-87 -36zM936 199h250v-199h-1192l-84 33v133l84 33h262
q-47 42 -74.5 104t-27.5 131v170q0 189 120.5 311.5t321.5 122.5q202 0 322 -120.5t120 -313.5v-170q0 -69 -27.5 -131t-74.5 -104zM842 434v170q0 106 -64.5 171t-177.5 65q-121 0 -185.5 -62.5t-64.5 -173.5v-170q0 -96 72.5 -165.5t169.5 -69.5q116 0 183 67t67 168z" />
    <glyph glyph-name="uniFEDA" unicode="&#x643;" horiz-adv-x="1869" arabic-form="final" 
d="M1774 199h106v-199h-131q-136 0 -236 115q-93 -115 -260 -115h-743q-183 0 -305.5 122.5t-122.5 305.5v328h199v-328q0 -101 64 -165t165 -64h743q84 0 123 46.5t39 123.5v1056h199v-985q0 -33 -2 -51v-20q0 -76 39.5 -123t122.5 -47zM1024 850v-105h-389v105h74
q-52 52 -52 127q0 80 45.5 127t126.5 47q79 0 128.5 -47t58.5 -141h-96q-15 84 -89 84q-73 0 -73 -80t71 -117h195z" />
    <glyph glyph-name="uniFEDB" unicode="&#x643;" horiz-adv-x="1368" arabic-form="initial" 
d="M795 831q189 0 318.5 -129t129.5 -317q0 -160 -112.5 -272.5t-272.5 -112.5h-854l-86 33v133l86 33h842q87 0 142.5 61t55.5 150q0 103 -69.5 163t-179.5 60h-650l-20 84l391 708l156 -63l-264 -531h387z" />
    <glyph glyph-name="uniFEDC" unicode="&#x643;" horiz-adv-x="1447" arabic-form="medial" 
d="M1233 199h240v-199h-1493l-86 33v133l86 33h1054v186q0 109 -70 178.5t-180 69.5h-649l-22 37l393 755h199l-308 -594h387q192 0 320.5 -127.5t128.5 -318.5v-186z" />
    <glyph glyph-name="uniFEDE" unicode="&#x644;" horiz-adv-x="1515" arabic-form="final" 
d="M1520 199v-199h-238q-17 -235 -182 -388t-404 -153h-10q-252 0 -419 167.5t-167 420.5v410h197v-410q0 -173 108.5 -281t280.5 -108h10q171 0 280 108t109 281v1378h199v-1226h236z" />
    <glyph glyph-name="uniFEDF" unicode="&#x644;" horiz-adv-x="548" arabic-form="initial" 
d="M211 1425h199v-1198q0 -96 -66 -161.5t-162 -65.5h-184l-86 33v133l86 31v2h123q37 0 63.5 24.5t26.5 71.5v1130z" />
    <glyph glyph-name="uniFEE0" unicode="&#x644;" horiz-adv-x="643" arabic-form="medial" 
d="M584 199h69v-199h-96q-137 0 -233 115q-93 -115 -261 -115h-67v2l-84 31v133l84 29v4h70q83 0 121 46.5t38 123.5v1056h199v-985q0 -33 -2 -51v-20q0 -76 39.5 -123t122.5 -47z" />
    <glyph glyph-name="uniFEE2" unicode="&#x645;" horiz-adv-x="1464" arabic-form="final" 
d="M1411 199h59v-199h-59q-82 0 -149 35.5t-107 97.5q-53 -77 -140.5 -121.5t-191.5 -44.5q-242 0 -379 146q-78 -6 -123 -55.5t-45 -125.5v-460h-196v460q0 142 84.5 244t218.5 125l2 305q0 188 124.5 313t313.5 125t314 -124.5t125 -313.5v-256q0 -67 41.5 -109t107.5 -42
zM823 166q107 0 174.5 67.5t67.5 174.5v198q0 106 -67.5 174t-174.5 68t-174 -68t-67 -174v-350q41 -49 96 -69.5t145 -20.5z" />
    <glyph glyph-name="uniFEE3" unicode="&#x645;" horiz-adv-x="1249" arabic-form="initial" 
d="M694 1040q184 0 308 -124t124 -308v-168q0 -178 -124 -305t-297 -127q-100 0 -191 34.5t-158 98.5q-42 -66 -112 -103.5t-156 -37.5h-90l-86 33v133l86 33h90q67 0 109.5 42.5t42.5 110.5v256q0 184 124 308t308 124h22zM928 440v168q0 104 -65.5 170t-168.5 66h-22
q-103 0 -168.5 -66t-65.5 -170v-276q44 -60 114.5 -93.5t152.5 -33.5q91 0 157 69.5t66 165.5z" />
    <glyph glyph-name="uniFEE4" unicode="&#x645;" horiz-adv-x="1316" arabic-form="medial" 
d="M1270 199h67v-199h-67q-91 0 -164.5 42.5t-110.5 113.5q-54 -68 -132.5 -108t-168.5 -40q-100 0 -190.5 34.5t-157.5 98.5q-42 -66 -113 -103.5t-157 -37.5h-80l-84 33v133l84 33h80q69 0 111 42.5t42 110.5v256q0 184 124 308t309 124h22q184 0 308 -124t124 -308v-256
q0 -68 42.5 -110.5t111.5 -42.5zM694 205q91 0 157.5 69.5t66.5 165.5v168q0 104 -65.5 170t-168.5 66h-22q-103 0 -168.5 -66t-65.5 -170v-276q44 -60 114 -93.5t152 -33.5z" />
    <glyph glyph-name="uniFEE6" unicode="&#x646;" horiz-adv-x="1503" arabic-form="final" 
d="M631 920q-51 0 -87 35.5t-36 86.5q0 50 36 86.5t87 36.5q49 0 85 -36.5t36 -86.5q0 -51 -35.5 -86.5t-85.5 -35.5zM1513 199v-199h-229q-8 -245 -174.5 -405t-413.5 -160h-10q-166 0 -300 75.5t-210 209.5t-76 300v412h197v-412q0 -172 108.5 -280.5t280.5 -108.5h10
q171 0 280 109t109 280v959h199v-780h229z" />
    <glyph glyph-name="uniFEE7" unicode="&#x646;" horiz-adv-x="583" arabic-form="initial" 
d="M344 1114q-50 0 -86.5 36t-36.5 87q0 49 36.5 85t86.5 36q51 0 87 -35.5t36 -85.5q0 -51 -36 -87t-87 -36zM-31 0v199h203q37 0 64.5 25t27.5 71v676h197v-744q0 -97 -65.5 -162t-162.5 -65h-264z" />
    <glyph glyph-name="uniFEE8" unicode="&#x646;" horiz-adv-x="638" arabic-form="medial" 
d="M313 1133q-51 0 -87 35.5t-36 86.5q0 50 36 86.5t87 36.5q49 0 85 -36.5t36 -86.5q0 -51 -35.5 -86.5t-85.5 -35.5zM592 199h67v-199h-94q-135 0 -235 115q-90 -115 -258 -115h-78l-86 33v133l86 33h80q81 0 119 45.5t40 120.5l-2 604h199v-600q0 -76 39.5 -123
t122.5 -47z" />
    <glyph glyph-name="uniFEEA" unicode="&#x647;" horiz-adv-x="1214" arabic-form="final" 
d="M1161 199h58v-199h-58q-91 0 -167 40t-124 110q-119 -142 -327 -142q-173 0 -296.5 127t-123.5 305v168q0 185 123 308.5t309 123.5h453v-688q0 -68 43 -110.5t110 -42.5zM811 332v512h-256q-103 0 -168 -66t-65 -170v-168q0 -97 65 -166t156 -69q82 0 153 33.5t115 93.5
z" />
    <glyph glyph-name="uniFEEB" unicode="&#x647;" horiz-adv-x="1638" arabic-form="initial" 
d="M461 991q306 76 538.5 44t371 -149t142.5 -282v-182q0 -175 -123 -298.5t-298 -123.5h-1119l-86 33v133l86 33h318q-42 36 -67 91.5t-25 117.5v137q4 127 74.5 219.5t187.5 124.5v102zM1083 199q95 0 163.5 68t68.5 163v172q-3 89 -87 154t-225 89.5t-303 0.5
q125 -14 201 -97t76 -219v-331h106zM809 199v336q0 97 -57 153.5t-160 56.5q-109 0 -166 -55t-57 -155v-123q0 -85 61.5 -146t149.5 -67h229z" />
    <glyph glyph-name="uniFEEC" unicode="&#x647;" horiz-adv-x="1292" arabic-form="medial" 
d="M1057 199h301v-199h-244v-72q0 -214 -111.5 -341.5t-328.5 -127.5q-137 0 -238 65.5t-152 177t-51 255.5v43h-272l-86 33v133l86 33h272v342q0 217 129.5 357t329.5 140q210 0 334.5 -146t124.5 -394q0 -168 -94 -299zM418 522v-323h235q140 0 230 81.5t90 217.5
q0 172 -74.5 265t-204.5 93q-120 0 -198 -94.5t-78 -239.5zM674 -358q121 0 189.5 86.5t68.5 228.5v123q-122 -80 -279 -80h-235v-43q0 -144 66 -229.5t190 -85.5z" />
    <glyph glyph-name="uniFEEE" unicode="&#x648;" horiz-adv-x="1093" arabic-form="final" 
d="M1104 199v-199h-117v-92q0 -222 -189 -318t-538 -26v184q150 -21 251.5 -19.5t163.5 30.5t89 76t27 118v49h-271q-173 2 -295.5 129t-122.5 305v170q0 186 123.5 310t309.5 124h22q184 0 307 -124t123 -310v-407h117zM522 201h269v405q0 104 -65.5 170t-168.5 66h-22
q-103 0 -168.5 -66t-65.5 -170v-170q0 -96 65.5 -165.5t155.5 -69.5z" />
    <glyph glyph-name="uniFEF0" unicode="&#x649;" horiz-adv-x="2072" arabic-form="final" 
d="M1855 199h228v-199h-426v836h-150q-98 0 -160.5 -63t-62.5 -161v-567q0 -253 -168 -420.5t-420 -167.5h-10q-252 0 -419 167.5t-167 420.5v410h197v-410q0 -173 108.5 -281t280.5 -108h10q172 0 281.5 108t109.5 281v567q0 180 120 301t300 121h348v-835z" />
    <glyph glyph-name="uniFEF2" unicode="&#x64a;" horiz-adv-x="2072" arabic-form="final" 
d="M1855 199h228v-199h-426v836h-150q-98 0 -160.5 -63t-62.5 -161v-567q0 -253 -168 -420.5t-420 -167.5h-10q-252 0 -419 167.5t-167 420.5v410h197v-410q0 -173 108.5 -281t280.5 -108h10q172 0 281.5 108t109.5 281v567q0 180 120 301t300 121h348v-835zM487 -651
q51 0 87 -35.5t36 -85.5q0 -51 -36 -87t-87 -36q-50 0 -86 36t-36 87q0 49 36 85t86 36zM854 -651q51 0 87 -35.5t36 -85.5q0 -51 -36 -87t-87 -36q-50 0 -86.5 36t-36.5 87q0 49 36.5 85t86.5 36z" />
    <glyph glyph-name="uniFEF3" unicode="&#x64a;" horiz-adv-x="770" arabic-form="initial" 
d="M-25 0v199h349q37 0 64.5 25t27.5 71v676h196v-744q0 -97 -65 -162t-162 -65h-410zM166 -440q-51 0 -87 36t-36 87q0 50 36 85t87 35q50 0 85.5 -35.5t35.5 -84.5q0 -51 -35.5 -87t-85.5 -36zM532 -440q-51 0 -86.5 36t-35.5 87q0 50 35.5 85t86.5 35q50 0 85.5 -35.5
t35.5 -84.5q0 -51 -35.5 -87t-85.5 -36z" />
    <glyph glyph-name="uniFEF4" unicode="&#x64a;" horiz-adv-x="837" arabic-form="medial" 
d="M696 199h162v-199h-188q-134 0 -234 115q-93 -115 -260 -115h-182l-86 33v133l86 33h184q84 0 122 46.5t38 123.5v600h199v-529q0 -33 -2 -51v-20q0 -76 39 -123t122 -47zM221 -190q51 0 87 -35.5t36 -85.5q0 -51 -36 -87t-87 -36q-50 0 -86.5 36t-36.5 87q0 49 36.5 85
t86.5 36zM588 -190q51 0 87 -35.5t36 -85.5q0 -51 -36 -87t-87 -36q-50 0 -86.5 36t-36.5 87q0 49 36.5 85t86.5 36z" />
    <glyph glyph-name=".notdef" horiz-adv-x="921" 
 />
    <glyph glyph-name=".null" 
 />
    <glyph glyph-name="nonmarkingreturn" horiz-adv-x="682" 
 />
    <glyph glyph-name="space" unicode=" " horiz-adv-x="382" 
 />
    <glyph glyph-name="exclam" unicode="!" horiz-adv-x="600" 
d="M385 416h-168l-16 954h200zM301 -16q-47 0 -81 33.5t-34 80.5t34 81t81 34q46 0 80.5 -34t34.5 -81t-34.5 -80.5t-80.5 -33.5z" />
    <glyph glyph-name="quotedbl" unicode="&#x22;" horiz-adv-x="712" 
d="M274 911h-137v488h137v-488zM575 911h-137v488h137v-488z" />
    <glyph glyph-name="numbersign" unicode="#" horiz-adv-x="1280" 
d="M756 373h-334l-62 -373h-147l59 373h-213l25 149h213l53 328h-215l27 149h215l59 371h152l-62 -371h332l62 371h149l-61 -371h215l-25 -149h-215l-55 -328h217l-27 -149h-213l-61 -373h-150zM780 522l54 328h-334l-51 -328h331z" />
    <glyph glyph-name="dollar" unicode="$" horiz-adv-x="1255" 
d="M571 -195v162q-215 14 -340 128.5t-131 310.5h209q6 -105 76.5 -172.5t189.5 -77.5l3 477l-68 18q-185 51 -279.5 142.5t-95.5 234.5q0 170 125 284.5t324 129.5l2 160h121v-162q192 -17 308 -131.5t122 -290.5h-209q-8 95 -68 158t-158 75l-2 -454l52 -15
q209 -50 307 -150t96 -251q0 -180 -124 -291t-337 -123l-2 -162h-121zM580 829l2 426q-98 -12 -158.5 -70t-61.5 -143q0 -78 52 -127.5t166 -85.5zM696 156q109 10 173.5 71.5t64.5 153.5q0 79 -54.5 128t-181.5 89z" />
    <glyph glyph-name="percent" unicode="%" horiz-adv-x="2101" 
d="M528 537q-171 0 -261.5 126.5t-90.5 344.5q0 215 90.5 341t261.5 126t262 -126t91 -341q0 -217 -91 -344t-262 -127zM1124 1352h181l-404 -1579h-178zM528 674q100 0 147.5 92.5t47.5 241.5q0 150 -47.5 239.5t-147.5 89.5q-101 0 -147.5 -89t-46.5 -240
q0 -150 46.5 -242t147.5 -92zM1585 -229q-171 0 -261.5 127.5t-90.5 345.5q0 215 90.5 341t261.5 126t261.5 -126t90.5 -341q0 -218 -90.5 -345.5t-261.5 -127.5zM1585 -92q68 0 113 47t63.5 119.5t18.5 169.5q0 150 -47.5 239.5t-147.5 89.5q-101 0 -147.5 -89t-46.5 -240
q0 -97 18 -169.5t62.5 -119.5t113.5 -47z" />
    <glyph glyph-name="ampersand" unicode="&#x26;" horiz-adv-x="1263" 
d="M543 -20q-198 0 -323.5 113.5t-125.5 279.5q-6 112 57.5 202t223.5 187l-6 8q-82 101 -121 178.5t-39 161.5q0 144 104.5 247t259.5 103q148 0 242 -95t94 -235q0 -184 -196 -329l-88 -64l301 -364q71 111 86 264l174 -2q-13 -245 -131 -406l194 -227h-221l-102 123
q-2 -3 -6 -6.5t-5 -5.5q-70 -66 -169 -99.5t-203 -33.5zM608 913q66 48 101 113.5t32 122t-46.5 96t-121.5 39.5t-131 -52t-53 -126q0 -49 27 -97t110 -153zM483 637q-106 -82 -144 -132t-38 -118q0 -100 73 -165.5t183 -65.5q149 3 246 100z" />
    <glyph glyph-name="quotesingle" unicode="'" horiz-adv-x="497" 
d="M375 1462q-22 -198 -111 -450h-127q3 13 24.5 104.5t37 176.5t22.5 165l6 76h156z" />
    <glyph glyph-name="parenleft" unicode="(" horiz-adv-x="737" 
d="M209 528q0 473 237 850h195q-105 -172 -165 -398.5t-60 -451.5t60.5 -451.5t164.5 -398.5h-195q-237 377 -237 850z" />
    <glyph glyph-name="parenright" unicode=")" horiz-adv-x="737" 
d="M528 528q0 -475 -237 -850h-195q105 173 165.5 399.5t60.5 450.5q0 223 -61 449.5t-165 400.5h195q237 -377 237 -850z" />
    <glyph glyph-name="asterisk" unicode="*" horiz-adv-x="1087" 
d="M492 913l-252 -157l-62 110l260 138l-260 137l62 110l252 -157l-11 295h125l-10 -295l252 157l63 -110l-262 -137l262 -138l-63 -110l-252 157l10 -295h-125z" />
    <glyph glyph-name="plus" unicode="+" horiz-adv-x="1173" 
d="M1012 625v-156h-346v-354h-154v354h-350v156h350v342l156 -2v-340h344z" />
    <glyph glyph-name="comma" unicode="," horiz-adv-x="557" 
d="M375 106q-21 -192 -111 -452h-127q3 17 24 106.5t37 175.5t23 166l6 76h156z" />
    <glyph glyph-name="hyphen" unicode="-" horiz-adv-x="894" 
d="M735 469h-573v156h573v-156z" />
    <glyph glyph-name="period" unicode="." horiz-adv-x="550" 
d="M276 -8q-41 0 -69.5 29t-30.5 71q0 40 29.5 69t70.5 29q40 0 70 -29.5t29 -68.5q0 -41 -29.5 -70.5t-69.5 -29.5z" />
    <glyph glyph-name="slash" unicode="/" horiz-adv-x="747" 
d="M262 -227h-180l401 1579h181z" />
    <glyph glyph-name="zero" unicode="0" horiz-adv-x="1306" 
d="M653 -27q-261 0 -400.5 197t-139.5 532q0 216 60 376t183 250.5t297 90.5t297.5 -90.5t183.5 -250.5t60 -376q0 -335 -140 -532t-401 -197zM653 162q85 0 147.5 42t99 118t54 170.5t17.5 209.5t-17.5 208t-54 166.5t-99 114t-147.5 40.5t-147 -40.5t-98 -114t-53 -166.5
t-17 -208q0 -91 10 -169.5t34 -147.5t59.5 -118t89.5 -77t122 -28z" />
    <glyph glyph-name="one" unicode="1" horiz-adv-x="696" 
d="M350 -6l4 1196l-233 -164l-62 201l359 176h47h108v-1409h-223z" />
    <glyph glyph-name="two" unicode="2" horiz-adv-x="1101" 
d="M82 166q266 220 407.5 357.5t206 245t64.5 210.5q0 72 -25 125t-66.5 81.5t-87.5 42t-96 13.5q-172 0 -362 -86l-43 158q224 106 450 106q211 0 333 -111.5t122 -295.5q0 -73 -12.5 -134t-53.5 -129t-76.5 -116.5t-126 -134.5t-154.5 -142.5t-206 -179.5l654 -4v-178
h-928v172z" />
    <glyph glyph-name="three" unicode="3" horiz-adv-x="1155" 
d="M680 731q176 -24 269 -123t93 -237q0 -192 -134.5 -295t-377.5 -103q-133 0 -251 28t-203 75v170q210 -92 428 -92q77 0 134.5 16t89 40t51 57t25 60.5t5.5 57.5q0 113 -84 170t-242 57h-178v168h168q137 0 219 69.5t82 168.5q0 30 -6 58t-24 59.5t-47 55t-80 39
t-117 15.5q-185 0 -363 -88l-53 162q211 100 457 100q208 0 332 -94.5t124 -275.5q0 -137 -88.5 -220.5t-228.5 -97.5z" />
    <glyph glyph-name="four" unicode="4" horiz-adv-x="1191" 
d="M952 516h170v-182h-170v-340h-225v340h-657v178l612 887h270v-883zM295 516h432l4 641z" />
    <glyph glyph-name="five" unicode="5" horiz-adv-x="1134" 
d="M350 895q336 -9 514 -125t178 -358q0 -195 -139 -317t-373 -122q-248 0 -444 107v172q187 -98 436 -98q140 0 217.5 69.5t77.5 184.5q0 162 -159 235.5t-508 79.5l26 676h785l-66 -178h-524z" />
    <glyph glyph-name="six" unicode="6" horiz-adv-x="1222" 
d="M666 938q202 0 323 -125t121 -352q0 -219 -135.5 -353.5t-349.5 -134.5q-111 0 -199.5 36t-146.5 97t-96 145.5t-54 177t-16 196.5q0 167 30.5 300.5t85 225t132.5 152.5t170.5 88.5t201.5 27.5q66 0 131 -11t101 -21.5t104 -32.5l-6 -166q-108 34 -178.5 45.5
t-147.5 11.5q-86 0 -156 -33t-113.5 -83t-75 -117t-45.5 -126.5t-19 -119.5q63 82 151.5 127t186.5 45zM627 154q119 0 193.5 82t74.5 215q0 44 -7 84.5t-26.5 83.5t-49.5 74t-81 51t-117 20q-76 0 -150 -43.5t-126 -116.5q0 -78 6 -138.5t24.5 -121.5t49.5 -101t84 -64.5
t125 -24.5z" />
    <glyph glyph-name="seven" unicode="7" horiz-adv-x="985" 
d="M59 1399h867v-142l-527 -1263h-219l529 1231l-650 -4v178z" />
    <glyph glyph-name="eight" unicode="8" horiz-adv-x="1259" 
d="M831 733q157 -68 239.5 -153.5t82.5 -210.5q0 -99 -41 -176t-113.5 -124.5t-167 -71.5t-206.5 -24q-109 0 -201.5 22t-164.5 66.5t-112.5 117t-40.5 167.5q0 242 322 365q-126 49 -205.5 135t-79.5 207q0 118 69 202.5t178 124t245 39.5q128 0 234.5 -39.5t174.5 -122
t68 -194.5q0 -116 -70 -191t-211 -139zM629 1249q-42 0 -83.5 -11t-79.5 -33t-61.5 -62t-23.5 -92q0 -163 274 -232q108 38 171 91.5t63 133.5q0 70 -40.5 118t-97 67.5t-122.5 19.5zM627 143q141 0 214.5 57.5t73.5 157.5q0 43 -20 80.5t-47 62.5t-75 50.5t-82 39.5t-91 34
q-116 -39 -191 -103t-75 -153q0 -104 73.5 -165t219.5 -61z" />
    <glyph glyph-name="nine" unicode="9" horiz-adv-x="1222" 
d="M598 1419q112 0 200.5 -36t146 -96.5t95.5 -145.5t54 -177t16 -196q0 -207 -46 -362.5t-130 -248.5t-194.5 -138.5t-247.5 -45.5q-170 0 -336 58v164q196 -48 331 -48q85 0 154.5 32.5t113 82t75 116t46 126.5t19.5 121q-65 -80 -153.5 -124t-184.5 -44
q-201 0 -322.5 125t-121.5 352q0 218 135.5 351.5t349.5 133.5zM608 629q77 0 152 43.5t127 115.5q0 78 -6 139t-25 122.5t-50 101.5t-84.5 65t-125.5 25q-119 0 -193.5 -82.5t-74.5 -216.5q0 -44 7 -84.5t26 -83.5t49 -74t81 -51t117 -20z" />
    <glyph glyph-name="colon" unicode=":" horiz-adv-x="550" 
d="M276 702q-47 0 -80.5 34t-33.5 81q0 46 33.5 79.5t80.5 33.5q46 0 80.5 -33.5t34.5 -79.5q0 -47 -34.5 -81t-80.5 -34zM276 8q-47 0 -80.5 33t-33.5 80t33.5 81t80.5 34q46 0 80.5 -34t34.5 -81t-34.5 -80t-80.5 -33z" />
    <glyph glyph-name="semicolon" unicode=";" horiz-adv-x="557" 
d="M317 754q-52 0 -88 36t-36 87t36 87.5t88 36.5q50 0 86.5 -36.5t36.5 -87.5t-36.5 -87t-86.5 -36zM389 287q-8 -71 -26.5 -150.5t-44 -171t-35.5 -131.5h-131q5 26 29 134.5t38 184.5t19 138l8 67h151z" />
    <glyph glyph-name="less" unicode="&#x3c;" horiz-adv-x="1302" 
d="M199 840l907 460v-204l-686 -346v-11l686 -344v-205l-907 459v191z" />
    <glyph glyph-name="equal" unicode="=" horiz-adv-x="1173" 
d="M1012 469h-850v156h850v-156zM1012 90h-850v154h850v-154z" />
    <glyph glyph-name="greater" unicode="&#x3e;" horiz-adv-x="1304" 
d="M199 190v205l686 344v11l-686 346v204l907 -460v-191z" />
    <glyph glyph-name="question" unicode="?" horiz-adv-x="1060" 
d="M403 471q0 122 37.5 190t130.5 130q89 62 127.5 111t38.5 112q0 90 -62.5 148.5t-154.5 58.5q-97 0 -163 -66t-66 -164h-187q1 120 57.5 209.5t149.5 133.5t209 44q184 0 302 -96t118 -258q0 -99 -50 -171t-159 -144q-87 -59 -121.5 -109.5t-34.5 -128.5v-65h-172v65z
M492 -27q-47 0 -80 33.5t-35 81.5q0 47 34 81t81 34q46 0 81 -34t35 -81q-1 -47 -35.5 -81t-80.5 -34z" />
    <glyph glyph-name="at" unicode="@" horiz-adv-x="1998" 
d="M1018 -279q-266 0 -472.5 115.5t-318.5 320.5t-112 466q0 198 66 369.5t184 295t290 194t375 70.5q192 0 356.5 -64.5t281 -179.5t182.5 -281t67 -363q0 -240 -110.5 -379.5t-301.5 -151.5q-89 -4 -137 44.5t-51 135.5h-6q-38 -85 -141 -137t-220 -47q-81 2 -155.5 36.5
t-133.5 96t-94 156.5t-35 209q1 115 36 210.5t92.5 157t128 97.5t145.5 41q117 12 219.5 -37.5t138.5 -128.5h8v151h156v-698q0 -72 17 -97.5t59 -25.5q91 0 151 103t60 276q0 144 -41 263.5t-109.5 201t-161 138t-193.5 82t-208 25.5q-167 0 -307.5 -60t-234 -162.5
t-145 -239.5t-50.5 -291q0 -331 204 -537.5t531 -206.5q240 0 422 105l59 -146q-87 -58 -216 -92.5t-275 -34.5zM1008 295q130 0 204 93t74 245q-2 142 -74 236t-208 94q-129 0 -212 -92t-83 -238q0 -142 81.5 -240t217.5 -98z" />
    <glyph glyph-name="A" unicode="A" horiz-adv-x="1308" 
d="M760 1409l512 -1415h-230l-120 358h-533l-121 -358h-221l528 1415h185zM430 520h451l-224 651z" />
    <glyph glyph-name="B" unicode="B" horiz-adv-x="1267" 
d="M913 717q124 -32 198.5 -119.5t74.5 -220.5q0 -180 -115.5 -281.5t-322.5 -101.5h-615v1405h574q203 0 316.5 -96t113.5 -267q0 -119 -59.5 -201t-164.5 -118zM358 1210v-405h334q228 0 228 203q0 99 -59.5 150.5t-168.5 51.5h-334zM723 182q114 0 176 53.5t62 163.5
q0 108 -68.5 163.5t-192.5 55.5h-342v-436h365z" />
    <glyph glyph-name="C" unicode="C" horiz-adv-x="1300" 
d="M1200 78q-239 -105 -471 -105q-312 0 -464 191t-152 532t152 532t464 191q228 0 471 -102v-174q-281 88 -446 88q-205 0 -310.5 -135t-105.5 -400t105.5 -399.5t310.5 -134.5q156 0 446 88v-172z" />
    <glyph glyph-name="D" unicode="D" horiz-adv-x="1349" 
d="M133 -6v1405h510q303 0 452.5 -182.5t149.5 -514.5q0 -338 -149.5 -523t-452.5 -185h-510zM643 182q379 0 379 520q0 508 -379 508h-287v-1028h287z" />
    <glyph glyph-name="E" unicode="E" horiz-adv-x="1134" 
d="M1042 1210h-684v-393h592v-188h-592v-447h695v-188h-920v1405h909v-189z" />
    <glyph glyph-name="F" unicode="F" horiz-adv-x="1073" 
d="M1014 1210h-656v-434h562v-188h-562v-594h-225v1405h881v-189z" />
    <glyph glyph-name="G" unicode="G" horiz-adv-x="1331" 
d="M975 688h223v-610q-239 -105 -469 -105q-312 0 -464 191t-152 532t152 532t464 191q218 0 461 -102v-182q-238 96 -436 96q-205 0 -310.5 -135t-105.5 -400q0 -261 104.5 -397.5t292.5 -136.5q110 0 240 41v485z" />
    <glyph glyph-name="H" unicode="H" horiz-adv-x="1339" 
d="M133 -6v1405h225v-582h623v582h225v-1405h-225v635h-623v-635h-225z" />
    <glyph glyph-name="I" unicode="I" horiz-adv-x="491" 
d="M133 -6v1405h225v-1405h-225z" />
    <glyph glyph-name="J" unicode="J" horiz-adv-x="659" 
d="M526 319q0 -176 -75 -261t-228 -85q-96 0 -196 21l22 180q67 -12 115 -12q139 0 139 168v1069h223v-1080z" />
    <glyph glyph-name="K" unicode="K" horiz-adv-x="1300" 
d="M1247 -6h-289l-600 706v-706h-225v1405h225v-694l598 694h277l-612 -686z" />
    <glyph glyph-name="L" unicode="L" horiz-adv-x="1073" 
d="M358 1399v-1217h666v-188h-891v1405h225z" />
    <glyph glyph-name="M" unicode="M" horiz-adv-x="1667" 
d="M1253 1399h281v-1405h-225l4 1067l-412 -838h-156l-411 838l6 -1067h-207v1405h277l245 -506l181 -379l178 379z" />
    <glyph glyph-name="N" unicode="N" horiz-adv-x="1368" 
d="M1030 1403h205v-1403h-217l-684 1014l6 -1014h-207v1403h205l696 -1034z" />
    <glyph glyph-name="O" unicode="O" horiz-adv-x="1429" 
d="M715 -27q-299 0 -450.5 193.5t-151.5 535.5q0 336 151.5 526.5t450.5 190.5q300 0 451 -190.5t151 -526.5q0 -225 -63.5 -386t-200 -252t-338.5 -91zM715 162q104 0 179.5 42t118 118.5t62 170t19.5 209.5q0 261 -96 395t-283 134t-282 -133.5t-95 -395.5
q0 -92 11.5 -170t39 -147.5t70 -118t108 -76.5t148.5 -28z" />
    <glyph glyph-name="P" unicode="P" horiz-adv-x="1249" 
d="M358 543v-549h-225v1405h584q203 0 327.5 -117t124.5 -311q0 -199 -122 -313.5t-330 -114.5h-359zM358 729h338q118 0 183 60t65 182q0 118 -67.5 178.5t-180.5 60.5h-338v-481z" />
    <glyph glyph-name="Q" unicode="Q" horiz-adv-x="1429" 
d="M1053 -350l-340 323q-201 1 -337 92.5t-199.5 252t-63.5 384.5q0 336 151.5 526.5t450.5 190.5q300 0 451 -190.5t151 -526.5q0 -275 -96 -446.5t-287 -226.5l258 -252zM715 162q104 0 179.5 42t118 118.5t62 170t19.5 209.5q0 261 -96 395t-283 134t-282 -133.5
t-95 -395.5q0 -92 11.5 -170t39 -147.5t70 -118t108 -76.5t148.5 -28z" />
    <glyph glyph-name="R" unicode="R" horiz-adv-x="1265" 
d="M879 567l340 -573h-254l-312 545h-295v-545h-225v1405h584q202 0 327 -117.5t125 -312.5q0 -157 -77 -261.5t-213 -140.5zM358 725h338q112 0 180 63t68 181q0 113 -69.5 177t-176.5 64h-340v-485z" />
    <glyph glyph-name="S" unicode="S" horiz-adv-x="1183" 
d="M592 -27q-272 0 -512 70v182q301 -67 504 -67q143 0 219 63t76 154q0 24 -6.5 45.5t-15 38t-28 33.5t-32.5 28t-43.5 25t-46 21t-54 20.5t-54 18t-58.5 18.5q-53 16 -90 29t-87 34t-83.5 43t-70 54t-58.5 68.5t-36 86t-14 106.5q0 126 63.5 211.5t171.5 124.5t255 39
q238 0 483 -73v-187q-283 76 -479 76q-270 0 -270 -191q0 -40 16 -71.5t45 -54t67.5 -40.5t85 -33.5t94.5 -30.5q17 -4 25 -7q54 -16 91 -28t88 -33t85 -42.5t71 -53.5t59 -68.5t36.5 -85.5t14.5 -107q0 -200 -141 -308t-371 -108z" />
    <glyph glyph-name="T" unicode="T" horiz-adv-x="1132" 
d="M1071 1210h-393v-1216h-223v1216h-394v189h1010v-189z" />
    <glyph glyph-name="U" unicode="U" horiz-adv-x="1347" 
d="M358 502q0 -340 316 -340q82 0 142.5 23t93 56.5t52 82.5t24.5 89t5 89v897h223v-897q0 -264 -141 -396.5t-399 -132.5t-399.5 132.5t-141.5 396.5v897h225v-897z" />
    <glyph glyph-name="V" unicode="V" horiz-adv-x="1318" 
d="M1051 1399h221l-484 -1415h-266l-475 1415h232l272 -842l111 -332l110 332z" />
    <glyph glyph-name="W" unicode="W" horiz-adv-x="1921" 
d="M1653 1399h221l-373 -1415h-262l-278 1046l-279 -1046h-260l-375 1415h232l188 -715l96 -395l94 395l189 715h239l193 -715l96 -395l92 395z" />
    <glyph glyph-name="X" unicode="X" horiz-adv-x="1339" 
d="M805 729l479 -735h-258l-227 342l-150 233l-143 -235l-215 -340h-236l467 735l-428 670h254l174 -269l150 -241l149 241l170 269h246z" />
    <glyph glyph-name="Y" unicode="Y" horiz-adv-x="1253" 
d="M633 680l166 356l180 363h229l-469 -936v-469h-225v469l-469 936h238l182 -363z" />
    <glyph glyph-name="Z" unicode="Z" horiz-adv-x="1179" 
d="M369 182h731v-188h-1018v151l706 1065h-665v189h950v-152z" />
    <glyph glyph-name="bracketleft" unicode="[" horiz-adv-x="739" 
d="M229 1368h418v-149h-223v-1399h223v-152h-418v1700z" />
    <glyph glyph-name="backslash" unicode="\" horiz-adv-x="747" 
d="M262 1352l402 -1579h-179l-403 1579h180z" />
    <glyph glyph-name="bracketright" unicode="]" horiz-adv-x="737" 
d="M510 -332h-418v152h223v1399h-223v149h418v-1700z" />
    <glyph glyph-name="underscore" unicode="_" horiz-adv-x="1472" 
d="M1370 20h-1229v154h1229v-154z" />
    <glyph glyph-name="grave" unicode="`" horiz-adv-x="233" 
d="M0 2021h152l12 -84q3 -53 14 -112t30 -134.5t25 -105.5h-133q-7 28 -29 97t-37 129t-20 116z" />
    <glyph glyph-name="a" unicode="a" horiz-adv-x="1038" 
d="M719 700q0 79 -30.5 129t-80.5 69.5t-120 18t-142 -18.5t-153 -48l-35 139q74 31 149 51.5t151 28.5t144.5 2.5t128 -30.5t102.5 -67t68 -110t25 -157v-707h-207v135q-148 -151 -344 -151q-129 0 -205 77.5t-76 198.5q0 115 74 204t218 137t333 38v61zM719 516
q-197 21 -314.5 -55t-117.5 -176q0 -67 48 -103.5t124 -36.5q144 0 260 113v258z" />
    <glyph glyph-name="b" unicode="b" horiz-adv-x="1103" 
d="M600 1061q197 0 304.5 -148t107.5 -391q0 -245 -103 -391.5t-299 -146.5q-80 0 -156.5 31.5t-134.5 88.5l-2 -104h-204v1409h206v-463q118 115 281 115zM539 154q123 0 190.5 95.5t67.5 272.5t-67.5 273t-190.5 96q-125 0 -220 -80v-575q97 -82 220 -82z" />
    <glyph glyph-name="c" unicode="c" horiz-adv-x="958" 
d="M891 43q-149 -59 -293 -59q-238 0 -375 148t-137 407q0 257 137 404t375 147q140 0 281 -50l-56 -151q-118 35 -202 35q-153 0 -238.5 -101.5t-85.5 -283.5q0 -184 85.5 -284.5t238.5 -100.5q103 0 223 49z" />
    <glyph glyph-name="d" unicode="d" horiz-adv-x="1103" 
d="M786 1409h205v-1409h-203l-2 106q-58 -58 -134 -90t-158 -32q-196 0 -299 146.5t-103 391.5q0 159 46 279.5t140.5 190t227.5 69.5q163 0 280 -117v465zM567 154q122 0 219 82v575q-95 80 -219 80q-125 0 -192.5 -96t-67.5 -273t67.5 -272.5t192.5 -95.5z" />
    <glyph glyph-name="e" unicode="e" horiz-adv-x="1126" 
d="M317 504q6 -173 91 -261.5t264 -88.5q160 0 276 45l51 -146q-106 -43 -186 -55t-178 -12q-264 0 -398.5 146t-134.5 407q0 255 129 406t353 151q219 0 327.5 -165t75.5 -427h-670zM809 631q0 141 -61 229t-168 88q-116 0 -185 -84.5t-78 -232.5h492z" />
    <glyph glyph-name="f" unicode="f" horiz-adv-x="649" 
d="M412 1010h262l-29 -158h-233v-858h-205v858h-170l39 158h131v127q0 206 133 282t348 -16l-18 -135q-68 30 -119 32.5t-81 -20t-44 -61t-14 -93.5v-116z" />
    <glyph glyph-name="g" unicode="g" horiz-adv-x="1103" 
d="M786 1047h205v-1067q0 -137 -71.5 -232.5t-187 -134.5t-263 -30t-297.5 69l33 149q143 -57 275.5 -58.5t219 61t86.5 180.5v125q-117 -117 -280 -117q-132 0 -226.5 69.5t-141 189.5t-46.5 279q0 245 103 391t299 146q165 0 288 -123h4v103zM567 162q124 0 219 80v555
q-97 82 -219 82q-123 0 -191.5 -93t-68.5 -256q0 -177 67.5 -272.5t192.5 -95.5z" />
    <glyph glyph-name="h" unicode="h" horiz-adv-x="1095" 
d="M653 1057q152 2 241 -86t89 -254v-717h-207v649q0 195 -176 201q-127 2 -281 -113v-737h-206v1399h206v-469q161 124 334 127z" />
    <glyph glyph-name="i" unicode="i" horiz-adv-x="487" 
d="M213 1135q-45 0 -78 32.5t-33 77.5q0 46 32.5 78.5t78.5 32.5t78.5 -32.5t32.5 -78.5q0 -45 -33 -77.5t-78 -32.5zM319 1010v-1010h-206v1010h206z" />
    <glyph glyph-name="j" unicode="j" horiz-adv-x="432" 
d="M213 1135q-45 0 -78 32.5t-33 77.5q0 46 32.5 78.5t78.5 32.5t78.5 -32.5t32.5 -78.5q0 -45 -33 -77.5t-78 -32.5zM113 1010h206v-1063q0 -342 -278 -342q-83 0 -152 16l21 152q50 -13 86 -13q61 0 89 45.5t28 141.5v1063z" />
    <glyph glyph-name="k" unicode="k" horiz-adv-x="1050" 
d="M1020 0h-248l-453 625v-625h-206v1399h206v-697l453 326h246l-514 -344z" />
    <glyph glyph-name="l" unicode="l" horiz-adv-x="524" 
d="M365 0h-205v1399h205v-1399z" />
    <glyph glyph-name="m" unicode="m" horiz-adv-x="1736" 
d="M1313 1051q154 0 232.5 -85.5t78.5 -248.5v-717h-207v649q0 201 -188 201q-123 0 -262 -117q4 -27 4 -84v-649h-205v649q0 201 -191 201q-39 0 -77 -10.5t-73.5 -31t-56 -34.5t-49.5 -37v-737h-206v1030h206v-139q79 77 160.5 118.5t182.5 41.5q216 0 280 -174
q93 90 182 132t189 42z" />
    <glyph glyph-name="n" unicode="n" horiz-adv-x="1095" 
d="M319 0h-206v1030h206v-106q96 67 177 97t176 30q154 0 232.5 -85.5t78.5 -248.5v-717h-207v649q0 201 -188 201q-124 0 -269 -113v-737z" />
    <glyph glyph-name="o" unicode="o" horiz-adv-x="1126" 
d="M563 -16q-154 0 -262 71t-158.5 190t-50.5 277q0 117 29.5 214.5t86.5 170.5t148 113.5t207 40.5t207 -40.5t148 -113.5t86.5 -170.5t29.5 -214.5q0 -158 -50.5 -277t-158.5 -190t-262 -71zM563 909q-57 0 -103 -20t-78.5 -55t-54.5 -84t-32 -106t-10 -122t10 -122
t32 -106t54.5 -84t78.5 -55t103 -20q94 0 158 53.5t91.5 138t27.5 195.5t-27.5 195.5t-91.5 138t-158 53.5z" />
    <glyph glyph-name="p" unicode="p" horiz-adv-x="1103" 
d="M610 1063q196 0 299 -146t103 -391q0 -243 -107.5 -390.5t-304.5 -147.5q-164 0 -281 114v-462h-206v1402h204l2 -98q58 57 134.5 88t156.5 31zM539 158q123 0 190.5 95.5t67.5 272.5q0 162 -68 255t-190 93q-124 0 -220 -81v-555q95 -80 220 -80z" />
    <glyph glyph-name="q" unicode="q" horiz-adv-x="1103" 
d="M788 1042h203v-1402h-205v464q-116 -116 -280 -116q-132 0 -226.5 69.5t-141 189.5t-46.5 279q0 245 103 391t299 146q171 0 292 -121zM567 158q124 0 219 80v555q-96 81 -219 81q-124 0 -192 -92.5t-68 -255.5q0 -177 67.5 -272.5t192.5 -95.5z" />
    <glyph glyph-name="r" unicode="r" horiz-adv-x="700" 
d="M319 0h-206v1030h206v-190q66 100 162.5 148t202.5 46v-162q-105 9 -218.5 -54.5t-146.5 -135.5v-682z" />
    <glyph glyph-name="s" unicode="s" horiz-adv-x="983" 
d="M479 -33q-200 0 -397 82v156q89 -38 187 -58t169 -20q64 0 111.5 15t70.5 38.5t33.5 46t10.5 45.5q0 28 -12.5 50.5t-33 39.5t-50 31t-61.5 26t-69 24q-7 2 -10 3q-41 14 -66 23t-63.5 26.5t-62.5 33.5t-52 40.5t-44 51t-27 63t-11 78.5q0 151 114 237t319 86
q171 0 344 -75v-154q-154 74 -291 74q-127 0 -189.5 -46.5t-62.5 -105.5q0 -44 38 -79t76 -51t121 -44q11 -4 17 -6q56 -20 91.5 -34.5t82 -41.5t73.5 -56t46.5 -73.5t19.5 -97.5q0 -152 -116.5 -240t-305.5 -88z" />
    <glyph glyph-name="t" unicode="t" horiz-adv-x="610" 
d="M362 854v-604q0 -119 113 -119q75 0 98 10v-151q-80 -17 -178 -17q-129 0 -184 64.5t-55 193.5v623h-138l31 156h107v254l206 53v-307h222l-31 -156h-191z" />
    <glyph glyph-name="u" unicode="u" horiz-adv-x="1095" 
d="M776 1030h207v-1036h-207v112q-91 -69 -174 -101t-178 -32q-154 0 -232.5 86t-78.5 250v721h206v-655q0 -201 189 -201q123 0 268 113v743z" />
    <glyph glyph-name="v" unicode="v" horiz-adv-x="1079" 
d="M416 0l-379 1044h231l187 -524l90 -315l90 315l188 524h221l-382 -1044h-246z" />
    <glyph glyph-name="w" unicode="w" horiz-adv-x="1660" 
d="M1403 1044h221l-328 -1044h-254l-217 748l-217 -748h-243l-328 1044h223l238 -854l227 854h213l227 -854z" />
    <glyph glyph-name="x" unicode="x" horiz-adv-x="1093" 
d="M47 1030h248l168 -237l96 -160l100 164l166 233h217l-356 -508l365 -528h-248l-170 237l-98 162l-101 -166l-160 -233h-231l365 528z" />
    <glyph glyph-name="y" unicode="y" horiz-adv-x="1079" 
d="M823 1030h221l-512 -1405h-196l113 314l-412 1091h231l275 -837l2 -5z" />
    <glyph glyph-name="z" unicode="z" horiz-adv-x="962" 
d="M319 156h588v-162h-852v149l580 727h-549v160h803v-147z" />
    <glyph glyph-name="braceleft" unicode="{" horiz-adv-x="745" 
d="M696 -332q-72 0 -125 7t-105 28.5t-84.5 58t-52 97.5t-18.5 145v234q-2 107 -45.5 149.5t-159.5 42.5v176q116 0 159.5 43.5t45.5 153.5v231q0 60 9.5 108t27 82.5t45.5 60.5t59 41.5t72 25t81.5 13t90.5 3.5v-149q-109 0 -150.5 -48t-41.5 -159v-254q0 -89 -39.5 -145.5
t-140.5 -84.5v-18q101 -27 140.5 -84.5t39.5 -144.5v-254q0 -111 41.5 -159t150.5 -48v-152z" />
    <glyph glyph-name="bar" unicode="|" horiz-adv-x="327" 
d="M25 2142h278v-2142h-278v2142z" />
    <glyph glyph-name="braceright" unicode="}" horiz-adv-x="743" 
d="M49 -332v152q109 0 151 48t42 159v254q0 89 39.5 145t140.5 84v18q-101 28 -140.5 84.5t-39.5 145.5v254q0 111 -42 159t-151 48v149q71 0 124.5 -7t105 -28.5t84 -57.5t52 -97t19.5 -144v-231q0 -110 44.5 -153.5t160.5 -43.5v-176q-116 0 -160.5 -42.5t-44.5 -149.5
v-234q0 -84 -19.5 -145t-52 -97.5t-84 -58t-104.5 -28.5t-125 -7z" />
    <glyph glyph-name="asciitilde" unicode="~" horiz-adv-x="1781" 
d="M274 592l-96 149l381 322q54 -114 185.5 -174t277.5 -60q118 0 268 49t215 105l31 -201q-82 -72 -237 -122t-277 -50q-284 0 -496 193z" />
    <glyph glyph-name="exclamdown" unicode="&#xa1;" horiz-adv-x="600" 
d="M301 1370q46 0 80.5 -34t34.5 -81t-34.5 -80.5t-80.5 -33.5q-47 0 -81 33.5t-34 80.5t34 81t81 34zM385 938l16 -954h-200l16 954h168z" />
    <glyph glyph-name="cent" unicode="&#xa2;" horiz-adv-x="958" 
d="M891 43q-134 -53 -258 -59v-183h-94v185q-213 19 -333 165t-120 388q0 241 120 385t333 163v179h94v-176q118 -5 246 -50l-56 -151q-113 33 -190 35v-770q97 3 211 49zM297 539q0 -157 63 -254t179 -123v753q-116 -26 -179 -123t-63 -253z" />
    <glyph glyph-name="sterling" unicode="&#xa3;" horiz-adv-x="1843" 
 />
    <glyph glyph-name="currency" unicode="&#xa4;" horiz-adv-x="1210" 
d="M1096 737q0 -289 -162 -432l139 -248l-127 -32l-123 217q-90 -41 -198 -41q-131 0 -232 55l-121 -231l-127 32l146 277q-137 143 -137 403q0 230 106 369l-174 313l127 33l143 -254q122 78 269 78q126 0 231 -51l119 227l127 -33l-146 -278q140 -140 140 -404zM625 350
q93 0 156.5 53.5t91.5 138.5t28 195q0 111 -27.5 195.5t-91 138t-157.5 53.5t-158.5 -54.5t-92.5 -139t-28 -193.5q0 -172 72.5 -279.5t206.5 -107.5z" />
    <glyph glyph-name="yen" unicode="&#xa5;" horiz-adv-x="1253" 
d="M741 463l-2 -84h273v-72h-273v-88h273v-72h-273v-153h-225v153h-272v72h272v88h-272v72h272v84l-469 936h238l182 -363l170 -354l164 354l180 363h229z" />
    <glyph glyph-name="brokenbar" unicode="&#xa6;" horiz-adv-x="327" 
d="M25 2142h278v-917h-278v917zM25 891h278v-891h-278v891z" />
    <glyph glyph-name="dieresis" unicode="&#xa8;" horiz-adv-x="454" 
d="M92 1581q-38 0 -65 27.5t-27 64.5t27 64.5t65 27.5q37 0 63.5 -27.5t26.5 -64.5t-26.5 -64.5t-63.5 -27.5zM362 1581q-37 0 -63.5 27.5t-26.5 64.5t26.5 64.5t63.5 27.5q38 0 65.5 -27.5t27.5 -64.5t-27.5 -64.5t-65.5 -27.5z" />
    <glyph glyph-name="copyright" unicode="&#xa9;" horiz-adv-x="1921" 
d="M1569 1157q121 -123 185.5 -280t64.5 -328q0 -172 -64.5 -329.5t-185.5 -280.5q-124 -121 -280.5 -185.5t-327.5 -64.5q-172 0 -329.5 65t-279.5 185q-121 123 -185.5 280.5t-64.5 329.5q0 171 64.5 328t185.5 280q122 120 279.5 185t329.5 65q171 0 327.5 -64.5
t280.5 -185.5zM1507 2q108 111 167 252t59 295q0 153 -59 294.5t-167 252.5q-111 108 -252 166.5t-294 58.5q-154 0 -294.5 -58.5t-250.5 -166.5q-109 -111 -168.5 -252.5t-59.5 -294.5q0 -154 59 -295t169 -252q110 -108 250.5 -167.5t294.5 -59.5q152 0 293.5 59.5
t252.5 167.5zM1270 43q-149 -59 -295 -59q-238 0 -375 148t-137 407q0 257 137 404t375 147q141 0 282 -50l-55 -151q-120 35 -205 35q-151 0 -237 -101.5t-86 -283.5q0 -183 85.5 -284t237.5 -101q103 0 226 49z" />
    <glyph glyph-name="guillemotleft" unicode="&#xab;" horiz-adv-x="915" 
d="M358 133l-270 395l270 390h119l-262 -390l262 -395h-119zM709 133l-271 395l271 390h118l-260 -390l260 -395h-118z" />
    <glyph glyph-name="uni00AD" unicode="&#xad;" horiz-adv-x="743" 
d="M735 469h-573v156h573v-156z" />
    <glyph glyph-name="macron" unicode="&#xaf;" horiz-adv-x="997" 
d="M2 1196h995v-162h-995v162z" />
    <glyph glyph-name="degree" unicode="&#xb0;" horiz-adv-x="598" 
d="M299 1669q-103 0 -176.5 74t-73.5 178q0 103 73.5 176.5t176.5 73.5t175.5 -73.5t72.5 -176.5q0 -104 -72.5 -178t-175.5 -74zM299 1802q51 0 85 36t34 91q0 52 -34 85.5t-85 33.5q-53 0 -86 -33t-33 -86q0 -56 33.5 -91.5t85.5 -35.5z" />
    <glyph glyph-name="plusminus" unicode="&#xb1;" horiz-adv-x="1173" 
d="M668 1081h344v-153h-346v-357l-154 2v355h-350v153h350v342h156v-342zM162 266v154h850v-154h-850z" />
    <glyph glyph-name="acute" unicode="&#xb4;" horiz-adv-x="233" 
d="M233 2050l-14 -94q-5 -55 -20 -115t-36.5 -128.5t-29.5 -98.5h-133q7 34 25.5 107.5t30 133t14.5 111.5l12 84h151z" />
    <glyph glyph-name="paragraph" unicode="&#xb6;" horiz-adv-x="1558" 
d="M920 543h-361q-207 0 -328.5 114.5t-121.5 313.5q0 194 123.5 311t326.5 117h584v-1405h-223v549zM1233 -6v1405h223v-1405h-223z" />
    <glyph glyph-name="periodcentered" unicode="&#xb7;" horiz-adv-x="550" 
d="M276 330q-41 0 -69.5 29t-30.5 71q0 40 29.5 69t70.5 29q40 0 70 -29.5t29 -68.5q0 -41 -29.5 -70.5t-69.5 -29.5z" />
    <glyph glyph-name="cedilla" unicode="&#xb8;" horiz-adv-x="479" 
d="M147 -248l160 -2q67 -11 119.5 -58t52.5 -106q0 -69 -48.5 -118.5t-117.5 -49.5h-313v115h313q22 0 38 15t16 38q0 22 -16 38t-38 16h-313q1 2 10 30t11 33.5t9 30.5t9.5 39t8 39.5t9 52.5t6.5 59l9 76h116l-8 -74q-17 -118 -33 -174z" />
    <glyph glyph-name="guillemotright" unicode="&#xbb;" horiz-adv-x="927" 
d="M258 133h-119l260 395l-260 390h119l270 -390zM608 133h-119l263 395l-263 390h119l271 -390z" />
    <glyph glyph-name="questiondown" unicode="&#xbf;" horiz-adv-x="1060" 
d="M553 1378q48 0 81.5 -32.5t33.5 -81.5q1 -47 -33 -80t-82 -33q-47 0 -81.5 33.5t-33.5 79.5q0 49 34 81.5t81 32.5zM643 881q0 -121 -37.5 -188.5t-130.5 -131.5q-89 -62 -127.5 -110.5t-38.5 -110.5q0 -90 61.5 -148.5t153.5 -58.5q99 0 165.5 65t66.5 164h184
q0 -180 -118 -284.5t-298 -104.5q-182 0 -301 97.5t-119 259.5q0 98 50 169t159 146q88 59 122 109t34 127v65h174v-65z" />
    <glyph glyph-name="Agrave" unicode="&#xc0;" horiz-adv-x="1308" 
d="M594 1579q-5 17 -29 94t-38 134.5t-19 113.5l-14 94h149l12 -84q4 -53 15 -112t30 -134t25 -106h-131zM760 1409l512 -1415h-230l-120 358h-533l-121 -358h-221l528 1415h185zM430 520h451l-224 651z" />
    <glyph glyph-name="Aacute" unicode="&#xc1;" horiz-adv-x="1308" 
d="M760 1907q-5 -56 -19 -113.5t-38 -134.5t-29 -94h-131q6 29 24.5 105.5t29.5 135t15 111.5l13 84h149zM760 1409l512 -1415h-230l-120 358h-533l-121 -358h-221l528 1415h185zM430 520h451l-224 651z" />
    <glyph glyph-name="Acircumflex" unicode="&#xc2;" horiz-adv-x="1308" 
d="M940 1542l-283 266l-297 -254l7 119l292 264l285 -276zM760 1409l512 -1415h-230l-120 358h-533l-121 -358h-221l528 1415h185zM430 520h451l-224 651z" />
    <glyph glyph-name="Atilde" unicode="&#xc3;" horiz-adv-x="1308" 
d="M489 1780l-104 -82l-25 98l138 105q11 -29 65 -55.5t109 -26.5q38 0 98 21.5t90 45.5l25 -96q-32 -29 -100 -53.5t-113 -24.5q-99 0 -183 68zM760 1409l512 -1415h-230l-120 358h-533l-121 -358h-221l528 1415h185zM430 520h451l-224 651z" />
    <glyph glyph-name="Adieresis" unicode="&#xc4;" horiz-adv-x="1308" 
d="M508 1548q-38 0 -65 27.5t-27 64.5t27 65t65 28q36 0 63 -28t27 -65t-26.5 -64.5t-63.5 -27.5zM778 1548q-37 0 -63.5 27.5t-26.5 64.5t27 65t63 28q38 0 65 -28t27 -65t-27 -64.5t-65 -27.5zM760 1409l512 -1415h-230l-120 358h-533l-121 -358h-221l528 1415h185z
M430 520h451l-224 651z" />
    <glyph glyph-name="Aring" unicode="&#xc5;" horiz-adv-x="1308" 
d="M645 1606q-60 0 -102.5 43t-42.5 104q0 60 42.5 102.5t102.5 42.5t103 -42.5t43 -102.5q0 -61 -43 -104t-103 -43zM645 1827q-29 0 -48 -19.5t-19 -48.5q0 -32 19 -52.5t48 -20.5t48.5 20.5t19.5 52.5q0 29 -19.5 48.5t-48.5 19.5zM760 1409l512 -1415h-230l-120 358
h-533l-121 -358h-221l528 1415h185zM430 520h451l-224 651z" />
    <glyph glyph-name="AE" unicode="&#xc6;" horiz-adv-x="1892" 
d="M1153 182h692v-188h-919v358h-537l-121 -358h-221l528 1415h1260v-192h-684v-400h592v-188h-592zM924 520v654h-265l-229 -654h494z" />
    <glyph glyph-name="Ccedilla" unicode="&#xc7;" horiz-adv-x="1300" 
d="M754 1231q-205 0 -310.5 -135t-105.5 -400t105.5 -399.5t310.5 -134.5q156 0 446 88v-172q-225 -97 -432 -105l-6 -47q-12 -95 -31 -174l160 -2q67 -11 119.5 -58t52.5 -106q0 -69 -49.5 -118.5t-118.5 -49.5h-311v115h311q23 0 38 15t15 38q0 22 -15 38t-38 16h-311
q3 12 13 42.5t15 47.5t12.5 48t12.5 66.5t10 79.5l4 53q-273 24 -405.5 211.5t-132.5 507.5q0 341 152 532t464 191q228 0 471 -102v-174q-281 88 -446 88z" />
    <glyph glyph-name="Egrave" unicode="&#xc8;" horiz-adv-x="1134" 
d="M424 2015h151l13 -84q3 -53 14 -112t30 -134.5t25 -105.5h-133q-7 28 -29 97t-37 129t-20 116zM1042 1210h-684v-393h592v-188h-592v-447h695v-188h-920v1405h909v-189z" />
    <glyph glyph-name="Eacute" unicode="&#xc9;" horiz-adv-x="1134" 
d="M707 2001l-15 -94q-5 -56 -20 -116t-37 -129t-29 -97h-133q7 31 25.5 105.5t30 134t14.5 112.5l12 84h152zM1042 1210h-684v-393h592v-188h-592v-447h695v-188h-920v1405h909v-189z" />
    <glyph glyph-name="Ecircumflex" unicode="&#xca;" horiz-adv-x="1134" 
d="M297 1673l295 264l282 -276l-4 -119l-282 266l-295 -254zM1042 1210h-684v-393h592v-188h-592v-447h695v-188h-920v1405h909v-189z" />
    <glyph glyph-name="Edieresis" unicode="&#xcb;" horiz-adv-x="1134" 
d="M438 1548q-37 0 -63.5 27.5t-26.5 64.5t27 65t63 28q38 0 65 -28t27 -65t-27 -64.5t-65 -27.5zM711 1548q-38 0 -65.5 27.5t-27.5 64.5t27.5 65t65.5 28q36 0 63 -28t27 -65t-26.5 -64.5t-63.5 -27.5zM1042 1210h-684v-393h592v-188h-592v-447h695v-188h-920v1405h909
v-189z" />
    <glyph glyph-name="Igrave" unicode="&#xcc;" horiz-adv-x="491" 
d="M92 2015h150l12 -84q4 -53 15 -112t30 -134t25 -106h-131q-6 20 -29.5 95t-38 133t-19.5 114zM133 -6v1405h225v-1405h-225z" />
    <glyph glyph-name="Iacute" unicode="&#xcd;" horiz-adv-x="491" 
d="M414 2001l-15 -94q-5 -56 -19 -113.5t-38 -134.5t-29 -94h-131q6 31 25 106t30 134t15 112l12 84h150zM133 -6v1405h225v-1405h-225z" />
    <glyph glyph-name="Icircumflex" unicode="&#xce;" horiz-adv-x="491" 
d="M-37 1673l295 264l285 -249l-4 -119l-283 239l-297 -254zM133 -6v1405h225v-1405h-225z" />
    <glyph glyph-name="Idieresis" unicode="&#xcf;" horiz-adv-x="491" 
d="M106 1548q-38 0 -65 27.5t-27 64.5t27 65t65 28q37 0 64 -28t27 -65t-27 -64.5t-64 -27.5zM377 1548q-37 0 -63.5 27.5t-26.5 64.5t27 65t63 28q38 0 65 -28t27 -65t-27 -64.5t-65 -27.5zM133 -6v1405h225v-1405h-225z" />
    <glyph glyph-name="Eth" unicode="&#xd0;" horiz-adv-x="1349" 
d="M643 1399q303 0 452.5 -182.5t149.5 -514.5q0 -338 -149.5 -523t-452.5 -185h-510v571h-174v217h174v617h510zM643 182q379 0 379 520q0 508 -379 508h-287v-428h248v-217h-248v-383h287z" />
    <glyph glyph-name="Ntilde" unicode="&#xd1;" horiz-adv-x="1368" 
d="M522 1780l-104 -82l-25 98l137 105q11 -29 65.5 -55.5t109.5 -26.5q38 0 98 21.5t90 45.5l25 -96q-32 -29 -100 -53.5t-113 -24.5q-99 0 -183 68zM1030 1399h205v-1405h-217l-684 1016l6 -1016h-207v1405h205l696 -1034z" />
    <glyph glyph-name="Ograve" unicode="&#xd2;" horiz-adv-x="1429" 
d="M563 2015h152l12 -84q3 -53 14.5 -112.5t30 -134t25.5 -105.5h-133q-7 28 -29 97t-37 129t-20 116zM715 -27q-299 0 -450.5 193.5t-151.5 535.5q0 336 151.5 526.5t450.5 190.5q300 0 451 -190.5t151 -526.5q0 -225 -63.5 -386t-200 -252t-338.5 -91zM715 162
q104 0 179.5 42t118 118.5t62 170t19.5 209.5q0 261 -96 395t-283 134t-282 -133.5t-95 -395.5q0 -92 11.5 -170t39 -147.5t70 -118t108 -76.5t148.5 -28z" />
    <glyph glyph-name="Oacute" unicode="&#xd3;" horiz-adv-x="1429" 
d="M846 2001l-15 -94q-5 -56 -20 -116t-37 -129t-29 -97h-133q7 31 25.5 105.5t30 134t14.5 112.5l12 84h152zM715 -27q-299 0 -450.5 193.5t-151.5 535.5q0 336 151.5 526.5t450.5 190.5q300 0 451 -190.5t151 -526.5q0 -225 -63.5 -386t-200 -252t-338.5 -91zM715 162
q104 0 179.5 42t118 118.5t62 170t19.5 209.5q0 261 -96 395t-283 134t-282 -133.5t-95 -395.5q0 -92 11.5 -170t39 -147.5t70 -118t108 -76.5t148.5 -28z" />
    <glyph glyph-name="Ocircumflex" unicode="&#xd4;" horiz-adv-x="1429" 
d="M436 1673l295 264l283 -276l-4 -119l-283 266l-295 -254zM715 -27q-299 0 -450.5 193.5t-151.5 535.5q0 336 151.5 526.5t450.5 190.5q300 0 451 -190.5t151 -526.5q0 -225 -63.5 -386t-200 -252t-338.5 -91zM715 162q104 0 179.5 42t118 118.5t62 170t19.5 209.5
q0 261 -96 395t-283 134t-282 -133.5t-95 -395.5q0 -92 11.5 -170t39 -147.5t70 -118t108 -76.5t148.5 -28z" />
    <glyph glyph-name="Otilde" unicode="&#xd5;" horiz-adv-x="1429" 
d="M455 1698l-25 98l137 105q11 -29 65 -55.5t109 -26.5q38 0 98.5 21.5t90.5 45.5l24 -96q-32 -29 -100 -53.5t-113 -24.5q-98 0 -182 68zM715 -27q-299 0 -450.5 193.5t-151.5 535.5q0 336 151.5 526.5t450.5 190.5q300 0 451 -190.5t151 -526.5q0 -225 -63.5 -386
t-200 -252t-338.5 -91zM715 162q104 0 179.5 42t118 118.5t62 170t19.5 209.5q0 261 -96 395t-283 134t-282 -133.5t-95 -395.5q0 -92 11.5 -170t39 -147.5t70 -118t108 -76.5t148.5 -28z" />
    <glyph glyph-name="Odieresis" unicode="&#xd6;" horiz-adv-x="1429" 
d="M578 1548q-37 0 -64 27.5t-27 64.5t27 65t64 28q38 0 65 -28t27 -65t-27 -64.5t-65 -27.5zM850 1548q-38 0 -65 27.5t-27 64.5t27 65t65 28q36 0 63 -28t27 -65t-26.5 -64.5t-63.5 -27.5zM715 -27q-299 0 -450.5 193.5t-151.5 535.5q0 336 151.5 526.5t450.5 190.5
q300 0 451 -190.5t151 -526.5q0 -225 -63.5 -386t-200 -252t-338.5 -91zM715 162q104 0 179.5 42t118 118.5t62 170t19.5 209.5q0 261 -96 395t-283 134t-282 -133.5t-95 -395.5q0 -92 11.5 -170t39 -147.5t70 -118t108 -76.5t148.5 -28z" />
    <glyph glyph-name="multiply" unicode="&#xd7;" horiz-adv-x="1136" 
d="M920 281l-105 -113l-258 244l-240 -256l-114 104l241 258l-247 234l104 112l248 -233l235 250l115 -105l-237 -252z" />
    <glyph glyph-name="Oslash" unicode="&#xd8;" horiz-adv-x="1429" 
d="M1317 702q0 -263 -89.5 -440t-269.5 -248l52 -198h-119l-43 168q-75 -11 -133 -11q-299 0 -450.5 193.5t-151.5 535.5q0 264 93.5 440.5t280.5 241.5l-57 226h121l51 -199q47 8 113 8q300 0 451 -190.5t151 -526.5zM907 213q187 117 187 489q0 261 -96 395t-283 134
q-26 0 -66 -4zM715 162q50 0 86 8l-262 1020q-201 -106 -201 -488q0 -92 11.5 -170t39 -147.5t70 -118t108 -76.5t148.5 -28z" />
    <glyph glyph-name="Ugrave" unicode="&#xd9;" horiz-adv-x="1347" 
d="M498 2015h149l12 -84q4 -53 15 -112t30 -134t25 -106h-131q-5 17 -29 94t-38 134.5t-19 113.5zM358 502q0 -340 316 -340q82 0 142.5 23t93 56.5t52 82.5t24.5 89t5 89v897h223v-897q0 -264 -141 -396.5t-399 -132.5t-399.5 132.5t-141.5 396.5v897h225v-897z" />
    <glyph glyph-name="Uacute" unicode="&#xda;" horiz-adv-x="1347" 
d="M834 2001l-15 -94q-5 -56 -20 -116t-37 -129t-29 -97h-133q7 31 25.5 105.5t30 134t14.5 112.5l12 84h152zM358 502q0 -340 316 -340q82 0 142.5 23t93 56.5t52 82.5t24.5 89t5 89v897h223v-897q0 -264 -141 -396.5t-399 -132.5t-399.5 132.5t-141.5 396.5v897h225v-897z
" />
    <glyph glyph-name="Ucircumflex" unicode="&#xdb;" horiz-adv-x="1347" 
d="M371 1673l293 264l284 -276l-4 -119l-282 266l-297 -254zM358 502q0 -340 316 -340q82 0 142.5 23t93 56.5t52 82.5t24.5 89t5 89v897h223v-897q0 -264 -141 -396.5t-399 -132.5t-399.5 132.5t-141.5 396.5v897h225v-897z" />
    <glyph glyph-name="Udieresis" unicode="&#xdc;" horiz-adv-x="1347" 
d="M512 1548q-38 0 -65 27.5t-27 64.5t27 65t65 28q36 0 63 -28t27 -65t-26.5 -64.5t-63.5 -27.5zM782 1548q-37 0 -63.5 27.5t-26.5 64.5t27 65t63 28q38 0 65 -28t27 -65t-27 -64.5t-65 -27.5zM358 502q0 -340 316 -340q82 0 142.5 23t93 56.5t52 82.5t24.5 89t5 89v897
h223v-897q0 -264 -141 -396.5t-399 -132.5t-399.5 132.5t-141.5 396.5v897h225v-897z" />
    <glyph glyph-name="Yacute" unicode="&#xdd;" horiz-adv-x="1253" 
d="M743 2001l-14 -94q-5 -56 -19 -113.5t-38 -134.5t-29 -94h-131q6 31 25 106t30 134t15 112l12 84h149zM633 680l166 356l180 363h229l-469 -936v-469h-225v469l-469 936h238l182 -363z" />
    <glyph glyph-name="Thorn" unicode="&#xde;" horiz-adv-x="1103" 
d="M610 1063q196 0 299 -146t103 -391q0 -243 -107.5 -390.5t-304.5 -147.5q-164 0 -281 114v-462h-206v1714h204l2 -410q58 57 134.5 88t156.5 31zM539 158q123 0 190.5 95.5t67.5 272.5q0 162 -68 255t-190 93q-124 0 -220 -81v-555q95 -80 220 -80z" />
    <glyph glyph-name="germandbls" unicode="&#xdf;" horiz-adv-x="1267" 
d="M362 0h-229v1399h574q203 0 316.5 -96t113.5 -267q0 -116 -57.5 -198.5t-157.5 -118.5q127 -40 195.5 -128.5t68.5 -213.5q0 -173 -121.5 -275t-323.5 -108h-116l-2 188h110q109 2 168.5 56t59.5 161q0 104 -62.5 159t-177.5 60h-37v187h29q207 9 207 203
q0 99 -59.5 150.5t-168.5 51.5h-334z" />
    <glyph glyph-name="agrave" unicode="&#xe0;" horiz-adv-x="1038" 
d="M369 1827h151l12 -84q3 -53 14.5 -112.5t30 -134t25.5 -105.5h-133q-7 28 -29 97t-37 129t-20 116zM719 700q0 79 -30.5 129t-80.5 69.5t-120 18t-142 -18.5t-153 -48l-35 139q74 31 149 51.5t151 28.5t144.5 2.5t128 -30.5t102.5 -67t68 -110t25 -157v-707h-207v135
q-148 -151 -344 -151q-129 0 -205 77.5t-76 198.5q0 115 74 204t218 137t333 38v61zM719 516q-197 21 -314.5 -55t-117.5 -176q0 -67 48 -103.5t124 -36.5q144 0 260 113v258z" />
    <glyph glyph-name="aacute" unicode="&#xe1;" horiz-adv-x="1038" 
d="M651 1812l-14 -94q-5 -56 -20 -116t-37 -129t-29 -97h-133q6 29 25 105.5t30 135.5t14 112l13 83h151zM719 700q0 79 -30.5 129t-80.5 69.5t-120 18t-142 -18.5t-153 -48l-35 139q74 31 149 51.5t151 28.5t144.5 2.5t128 -30.5t102.5 -67t68 -110t25 -157v-707h-207v135
q-148 -151 -344 -151q-129 0 -205 77.5t-76 198.5q0 115 74 204t218 137t333 38v61zM719 516q-197 21 -314.5 -55t-117.5 -176q0 -67 48 -103.5t124 -36.5q144 0 260 113v258z" />
    <glyph glyph-name="acircumflex" unicode="&#xe2;" horiz-adv-x="1038" 
d="M242 1485l295 264l282 -276l-4 -119l-283 266l-294 -254zM719 700q0 79 -30.5 129t-80.5 69.5t-120 18t-142 -18.5t-153 -48l-35 139q74 31 149 51.5t151 28.5t144.5 2.5t128 -30.5t102.5 -67t68 -110t25 -157v-707h-207v135q-148 -151 -344 -151q-129 0 -205 77.5
t-76 198.5q0 115 74 204t218 137t333 38v61zM719 516q-197 21 -314.5 -55t-117.5 -176q0 -67 48 -103.5t124 -36.5q144 0 260 113v258z" />
    <glyph glyph-name="atilde" unicode="&#xe3;" horiz-adv-x="1038" 
d="M260 1509l-24 99l137 104q11 -29 65 -55.5t109 -26.5q38 0 98 22t90 46l25 -96q-32 -29 -100 -53.5t-113 -24.5q-100 0 -182 67zM719 700q0 79 -30.5 129t-80.5 69.5t-120 18t-142 -18.5t-153 -48l-35 139q74 31 149 51.5t151 28.5t144.5 2.5t128 -30.5t102.5 -67
t68 -110t25 -157v-707h-207v135q-148 -151 -344 -151q-129 0 -205 77.5t-76 198.5q0 115 74 204t218 137t333 38v61zM719 516q-197 21 -314.5 -55t-117.5 -176q0 -67 48 -103.5t124 -36.5q144 0 260 113v258z" />
    <glyph glyph-name="adieresis" unicode="&#xe4;" horiz-adv-x="1038" 
d="M383 1360q-37 0 -63.5 27.5t-26.5 64.5t26.5 64.5t63.5 27.5q38 0 65 -27.5t27 -64.5t-27 -64.5t-65 -27.5zM655 1360q-38 0 -65 27.5t-27 64.5t27 64.5t65 27.5q37 0 63.5 -27.5t26.5 -64.5t-26.5 -64.5t-63.5 -27.5zM719 700q0 79 -30.5 129t-80.5 69.5t-120 18
t-142 -18.5t-153 -48l-35 139q74 31 149 51.5t151 28.5t144.5 2.5t128 -30.5t102.5 -67t68 -110t25 -157v-707h-207v135q-148 -151 -344 -151q-129 0 -205 77.5t-76 198.5q0 115 74 204t218 137t333 38v61zM719 516q-197 21 -314.5 -55t-117.5 -176q0 -67 48 -103.5
t124 -36.5q144 0 260 113v258z" />
    <glyph glyph-name="aring" unicode="&#xe5;" horiz-adv-x="1038" 
d="M522 1417q-60 0 -102.5 43.5t-42.5 104.5q0 60 42.5 102.5t102.5 42.5t103 -42.5t43 -102.5q0 -61 -43 -104.5t-103 -43.5zM522 1497q29 0 48.5 21t19.5 53q0 29 -19.5 48t-48.5 19t-48 -19t-19 -48q0 -32 19 -53t48 -21zM719 700q0 79 -30.5 129t-80.5 69.5t-120 18
t-142 -18.5t-153 -48l-35 139q74 31 149 51.5t151 28.5t144.5 2.5t128 -30.5t102.5 -67t68 -110t25 -157v-707h-207v135q-148 -151 -344 -151q-129 0 -205 77.5t-76 198.5q0 115 74 204t218 137t333 38v61zM719 516q-197 21 -314.5 -55t-117.5 -176q0 -67 48 -103.5
t124 -36.5q144 0 260 113v258z" />
    <glyph glyph-name="ae" unicode="&#xe6;" horiz-adv-x="1716" 
d="M1565 199l51 -146q-106 -43 -186 -55t-181 -12q-310 0 -442 202q-76 -99 -191 -151.5t-241 -52.5q-129 0 -205 77.5t-76 198.5q0 115 74 204t218 137t333 38v61q0 79 -30.5 129t-80.5 69.5t-120 18t-142 -18.5t-153 -48l-35 139q132 55 261 76t248.5 -5.5t184.5 -107.5
q128 144 346 144q146 0 246 -76.5t140.5 -210t19.5 -305.5h-670q5 -172 89.5 -261t262.5 -89q161 0 279 45zM1194 948q-116 0 -184 -84.5t-76 -232.5h489q0 141 -61 229t-168 88zM719 266v250q-197 21 -314.5 -55t-117.5 -176q0 -67 48 -103.5t124 -36.5q78 0 139 31.5
t121 89.5z" />
    <glyph glyph-name="ccedilla" unicode="&#xe7;" horiz-adv-x="958" 
d="M776 -250q67 -11 119.5 -58t52.5 -106q0 -69 -48.5 -118.5t-117.5 -49.5h-313v115h313q22 0 38 15t16 38q0 22 -16 38t-38 16h-313q1 2 10 30t11 33.5t9 30.5t9.5 39t8 39.5t9 52.5t6.5 59l7 62q-213 19 -333 165t-120 388q0 257 137 404t375 147q140 0 281 -50l-56 -151
q-118 35 -202 35q-153 0 -238.5 -101.5t-85.5 -283.5q0 -184 85.5 -284.5t238.5 -100.5q103 0 223 49l47 -160q-130 -51 -236 -57l-6 -60q-17 -118 -33 -174z" />
    <glyph glyph-name="egrave" unicode="&#xe8;" horiz-adv-x="1116" 
d="M393 1827h152l12 -84q3 -53 14.5 -112.5t30 -134t25.5 -105.5h-133q-7 28 -29 97t-37 129t-20 116zM307 504q6 -173 91 -261.5t264 -88.5q160 0 276 45l51 -146q-106 -43 -186 -55t-178 -12q-264 0 -398.5 146t-134.5 407q0 255 128.5 406t352.5 151q219 0 328 -165
t76 -427h-670zM799 631q0 141 -61.5 229t-168.5 88q-116 0 -184.5 -84.5t-77.5 -232.5h492z" />
    <glyph glyph-name="eacute" unicode="&#xe9;" horiz-adv-x="1116" 
d="M676 1812l-14 -94q-5 -56 -20.5 -116.5t-37.5 -128.5t-29 -97h-133q7 31 25.5 106t30 134.5t14.5 112.5l12 83h152zM307 504q6 -173 91 -261.5t264 -88.5q160 0 276 45l51 -146q-106 -43 -186 -55t-178 -12q-264 0 -398.5 146t-134.5 407q0 255 128.5 406t352.5 151
q219 0 328 -165t76 -427h-670zM799 631q0 141 -61.5 229t-168.5 88q-116 0 -184.5 -84.5t-77.5 -232.5h492z" />
    <glyph glyph-name="ecircumflex" unicode="&#xea;" horiz-adv-x="1116" 
d="M289 1468l272 281l283 -276l-4 -140l-283 269l-274 -271zM307 504q6 -173 91 -261.5t264 -88.5q160 0 276 45l51 -146q-106 -43 -186 -55t-178 -12q-264 0 -398.5 146t-134.5 407q0 255 128.5 406t352.5 151q219 0 328 -165t76 -427h-670zM799 631q0 141 -61.5 229
t-168.5 88q-116 0 -184.5 -84.5t-77.5 -232.5h492z" />
    <glyph glyph-name="edieresis" unicode="&#xeb;" horiz-adv-x="1116" 
d="M408 1360q-37 0 -64 27.5t-27 64.5t27 64.5t64 27.5q38 0 65 -27.5t27 -64.5t-27 -64.5t-65 -27.5zM680 1360q-38 0 -65 27.5t-27 64.5t27 64.5t65 27.5q37 0 63.5 -27.5t26.5 -64.5t-26.5 -64.5t-63.5 -27.5zM307 504q6 -173 91 -261.5t264 -88.5q160 0 276 45l51 -146
q-106 -43 -186 -55t-178 -12q-264 0 -398.5 146t-134.5 407q0 255 128.5 406t352.5 151q219 0 328 -165t76 -427h-670zM799 631q0 141 -61.5 229t-168.5 88q-116 0 -184.5 -84.5t-77.5 -232.5h492z" />
    <glyph glyph-name="igrave" unicode="&#xec;" horiz-adv-x="411" 
d="M51 1585h152l12 -84q3 -53 14.5 -112.5t30 -134t25.5 -105.5h-133q-7 28 -29 97t-37 129t-20 116zM319 1010v-1010h-206v1010h206z" />
    <glyph glyph-name="iacute" unicode="&#xed;" horiz-adv-x="411" 
d="M369 1714l-15 -94q-5 -56 -19 -113.5t-38 -134.5t-29 -94h-131q6 31 25 106t30 134t15 112l12 84h150zM309 983v-983h-207v983h207z" />
    <glyph glyph-name="icircumflex" unicode="&#xee;" horiz-adv-x="411" 
d="M-109 1239l297 264l283 -276l-4 -119l-283 268l-297 -256zM297 983l12 -983h-207l-10 983h205z" />
    <glyph glyph-name="idieresis" unicode="&#xef;" horiz-adv-x="411" 
d="M63 1276q-38 0 -65 27.5t-27 64.5t27 64.5t65 27.5q37 0 64 -27.5t27 -64.5t-27 -64.5t-64 -27.5zM334 1276q-37 0 -63.5 27.5t-26.5 64.5t26.5 64.5t63.5 27.5q38 0 65 -27.5t27 -64.5t-27 -64.5t-65 -27.5zM319 1010v-1010h-206v1010h206z" />
    <glyph glyph-name="eth" unicode="&#xf0;" horiz-adv-x="1222" 
d="M766 1364q164 -77 254 -259.5t90 -479.5q0 -104 -16 -196.5t-54 -177t-95.5 -145.5t-146 -97t-200.5 -36q-214 0 -349.5 134.5t-135.5 353.5q0 227 121.5 352t322.5 125q97 0 185.5 -44.5t152.5 -125.5q-6 58 -20 115t-39.5 119t-69 115t-100.5 85l-74 -121h-129l94 158
q-35 6 -70 6q-77 0 -147 -11.5t-178 -45.5l-6 166q69 23 103.5 33t100 21t132.5 11q83 0 163 -18l62 104l137 2zM598 154q72 0 124.5 24.5t83.5 64.5t50 100.5t25 121.5t6 139q-52 73 -127 116.5t-152 43.5q-66 0 -117 -20t-81 -51t-49 -74t-26 -83.5t-7 -84.5
q0 -133 75 -215t195 -82z" />
    <glyph glyph-name="ntilde" unicode="&#xf1;" horiz-adv-x="1095" 
d="M285 1509l-25 99l137 104q11 -29 65 -55.5t109 -26.5q38 0 98.5 22t90.5 46l24 -96q-32 -29 -100 -53.5t-113 -24.5q-100 0 -182 67zM319 0h-206v1030h206v-106q96 67 177 97t176 30q154 0 232.5 -85.5t78.5 -248.5v-717h-207v649q0 201 -188 201q-124 0 -269 -113v-737z
" />
    <glyph glyph-name="ograve" unicode="&#xf2;" horiz-adv-x="1126" 
d="M410 1827h151l12 -84q3 -53 14.5 -112.5t30 -134t25.5 -105.5h-133q-7 28 -29 97t-37 129t-20 116zM563 -16q-154 0 -262 71t-158.5 190t-50.5 277q0 117 29.5 214.5t86.5 170.5t148 113.5t207 40.5t207 -40.5t148 -113.5t86.5 -170.5t29.5 -214.5q0 -158 -50.5 -277
t-158.5 -190t-262 -71zM563 909q-57 0 -103 -20t-78.5 -55t-54.5 -84t-32 -106t-10 -122t10 -122t32 -106t54.5 -84t78.5 -55t103 -20q94 0 158 53.5t91.5 138t27.5 195.5t-27.5 195.5t-91.5 138t-158 53.5z" />
    <glyph glyph-name="oacute" unicode="&#xf3;" horiz-adv-x="1126" 
d="M692 1812l-14 -94q-5 -56 -20 -116t-37 -129t-29 -97h-133q6 29 25 105.5t30 135.5t14 112l13 83h151zM563 -16q-154 0 -262 71t-158.5 190t-50.5 277q0 117 29.5 214.5t86.5 170.5t148 113.5t207 40.5t207 -40.5t148 -113.5t86.5 -170.5t29.5 -214.5q0 -158 -50.5 -277
t-158.5 -190t-262 -71zM563 909q-57 0 -103 -20t-78.5 -55t-54.5 -84t-32 -106t-10 -122t10 -122t32 -106t54.5 -84t78.5 -55t103 -20q94 0 158 53.5t91.5 138t27.5 195.5t-27.5 195.5t-91.5 138t-158 53.5z" />
    <glyph glyph-name="ocircumflex" unicode="&#xf4;" horiz-adv-x="1126" 
d="M299 1468l272 281l285 -276l-4 -140l-283 269l-274 -271zM563 -16q-154 0 -262 71t-158.5 190t-50.5 277q0 117 29.5 214.5t86.5 170.5t148 113.5t207 40.5t207 -40.5t148 -113.5t86.5 -170.5t29.5 -214.5q0 -158 -50.5 -277t-158.5 -190t-262 -71zM563 909
q-57 0 -103 -20t-78.5 -55t-54.5 -84t-32 -106t-10 -122t10 -122t32 -106t54.5 -84t78.5 -55t103 -20q94 0 158 53.5t91.5 138t27.5 195.5t-27.5 195.5t-91.5 138t-158 53.5z" />
    <glyph glyph-name="otilde" unicode="&#xf5;" horiz-adv-x="1126" 
d="M301 1509l-25 99l138 104q11 -29 65 -55.5t109 -26.5q38 0 98 22t90 46l25 -96q-32 -29 -100 -53.5t-113 -24.5q-100 0 -182 67zM563 -16q-154 0 -262 71t-158.5 190t-50.5 277q0 117 29.5 214.5t86.5 170.5t148 113.5t207 40.5t207 -40.5t148 -113.5t86.5 -170.5
t29.5 -214.5q0 -158 -50.5 -277t-158.5 -190t-262 -71zM563 909q-57 0 -103 -20t-78.5 -55t-54.5 -84t-32 -106t-10 -122t10 -122t32 -106t54.5 -84t78.5 -55t103 -20q94 0 158 53.5t91.5 138t27.5 195.5t-27.5 195.5t-91.5 138t-158 53.5z" />
    <glyph glyph-name="odieresis" unicode="&#xf6;" horiz-adv-x="1126" 
d="M424 1360q-37 0 -63.5 27.5t-26.5 64.5t26.5 64.5t63.5 27.5q38 0 65 -27.5t27 -64.5t-27 -64.5t-65 -27.5zM696 1360q-38 0 -65 27.5t-27 64.5t27 64.5t65 27.5q37 0 63.5 -27.5t26.5 -64.5t-26.5 -64.5t-63.5 -27.5zM563 -16q-154 0 -262 71t-158.5 190t-50.5 277
q0 117 29.5 214.5t86.5 170.5t148 113.5t207 40.5t207 -40.5t148 -113.5t86.5 -170.5t29.5 -214.5q0 -158 -50.5 -277t-158.5 -190t-262 -71zM563 909q-57 0 -103 -20t-78.5 -55t-54.5 -84t-32 -106t-10 -122t10 -122t32 -106t54.5 -84t78.5 -55t103 -20q94 0 158 53.5
t91.5 138t27.5 195.5t-27.5 195.5t-91.5 138t-158 53.5z" />
    <glyph glyph-name="divide" unicode="&#xf7;" horiz-adv-x="1173" 
d="M586 860q-51 0 -86 35t-35 86q0 50 35 84.5t86 34.5q50 0 84.5 -35t34.5 -84q0 -51 -34.5 -86t-84.5 -35zM1012 469h-850v156h850v-156zM586 43q-51 0 -86 35t-35 86t35 86t86 35q50 0 84.5 -35t34.5 -86t-34.5 -86t-84.5 -35z" />
    <glyph glyph-name="oslash" unicode="&#xf8;" horiz-adv-x="1126" 
d="M1034 522q0 -275 -152 -422t-413 -108l-45 -180h-90l51 202q-144 53 -218.5 187t-74.5 321q0 271 150.5 420t406.5 113l53 205h91l-58 -226q147 -51 223 -186t76 -326zM430 182l180 725q-154 18 -237.5 -86t-83.5 -299q0 -117 34.5 -207.5t106.5 -132.5zM510 141
q156 -24 245 81t89 300q0 121 -38 213t-116 131z" />
    <glyph glyph-name="ugrave" unicode="&#xf9;" horiz-adv-x="1095" 
d="M469 1391q-7 28 -29 97t-37 129t-20 116l-14 94h151l12 -84q3 -53 14.5 -112.5t30 -134t25.5 -105.5h-133zM776 1030h207v-1036h-207v112q-91 -69 -174 -101t-178 -32q-154 0 -232.5 86t-78.5 250v721h206v-655q0 -201 189 -201q123 0 268 113v743z" />
    <glyph glyph-name="uacute" unicode="&#xfa;" horiz-adv-x="1095" 
d="M637 1718q-5 -56 -20 -116t-37 -129t-29 -97h-133q6 29 25 105.5t30 135.5t14 112l13 83h151zM776 1030h207v-1036h-207v112q-91 -69 -174 -101t-178 -32q-154 0 -232.5 86t-78.5 250v721h206v-655q0 -201 189 -201q123 0 268 113v743z" />
    <glyph glyph-name="ucircumflex" unicode="&#xfb;" horiz-adv-x="1095" 
d="M834 1348l-283 268l-275 -270l7 137l272 280l283 -276zM776 1030h207v-1036h-207v112q-91 -69 -174 -101t-178 -32q-154 0 -232.5 86t-78.5 250v721h206v-655q0 -201 189 -201q123 0 268 113v743z" />
    <glyph glyph-name="udieresis" unicode="&#xfc;" horiz-adv-x="1095" 
d="M383 1360q-37 0 -63.5 27.5t-26.5 64.5t26.5 64.5t63.5 27.5q38 0 65 -27.5t27 -64.5t-27 -64.5t-65 -27.5zM655 1360q-38 0 -65 27.5t-27 64.5t27 64.5t65 27.5q37 0 63.5 -27.5t26.5 -64.5t-26.5 -64.5t-63.5 -27.5zM776 1030h207v-1036h-207v112q-91 -69 -174 -101
t-178 -32q-154 0 -232.5 86t-78.5 250v721h206v-655q0 -201 189 -201q123 0 268 113v743z" />
    <glyph glyph-name="yacute" unicode="&#xfd;" horiz-adv-x="1079" 
d="M668 1733q-5 -56 -19 -113.5t-38 -134.5t-29 -94h-131q6 29 24.5 105.5t29.5 135t15 111.5l12 84h150zM823 1030h221l-512 -1405h-196l113 314l-412 1091h231l275 -837l2 -5z" />
    <glyph glyph-name="thorn" unicode="&#xfe;" horiz-adv-x="1103" 
d="M610 1063q196 0 299 -146t103 -391q0 -243 -107.5 -390.5t-304.5 -147.5q-164 0 -281 114v-462h-206v1714h204l2 -410q58 57 134.5 88t156.5 31zM539 158q123 0 190.5 95.5t67.5 272.5q0 162 -68 255t-190 93q-124 0 -220 -81v-555q95 -80 220 -80z" />
    <glyph glyph-name="ydieresis" unicode="&#xff;" horiz-adv-x="1079" 
d="M416 1374q-38 0 -65 27.5t-27 64.5t27 65t65 28q36 0 63 -28t27 -65t-26.5 -64.5t-63.5 -27.5zM686 1374q-37 0 -63.5 27.5t-26.5 64.5t27 65t63 28q38 0 65 -28t27 -65t-27 -64.5t-65 -27.5zM823 1030h221l-512 -1405h-196l113 314l-412 1091h231l275 -837l2 -5z" />
    <glyph glyph-name="Amacron" unicode="&#x100;" horiz-adv-x="1308" 
d="M1032 1847v-161h-639v161h639zM760 1409l512 -1415h-230l-120 358h-533l-121 -358h-221l528 1415h185zM430 520h451l-224 651z" />
    <glyph glyph-name="amacron" unicode="&#x101;" horiz-adv-x="1038" 
d="M211 1577h639v-162h-639v162zM719 700q0 79 -30.5 129t-80.5 69.5t-120 18t-142 -18.5t-153 -48l-35 139q74 31 149 51.5t151 28.5t144.5 2.5t128 -30.5t102.5 -67t68 -110t25 -157v-707h-207v135q-148 -151 -344 -151q-129 0 -205 77.5t-76 198.5q0 115 74 204t218 137
t333 38v61zM719 516q-197 21 -314.5 -55t-117.5 -176q0 -67 48 -103.5t124 -36.5q144 0 260 113v258z" />
    <glyph glyph-name="Abreve" unicode="&#x102;" horiz-adv-x="1308" 
d="M911 1651q-113 -67 -249 -64q-137 0 -244 76v113q46 -32 112.5 -52.5t133.5 -21.5q140 0 247 63v-114zM760 1409l512 -1415h-230l-120 358h-533l-121 -358h-221l528 1415h185zM430 520h451l-224 651z" />
    <glyph glyph-name="abreve" unicode="&#x103;" horiz-adv-x="1038" 
d="M537 1399q-139 0 -246 76v112q47 -32 113.5 -52.5t132.5 -21.5q144 0 247 64v-115q-109 -66 -247 -63zM719 700q0 79 -30.5 129t-80.5 69.5t-120 18t-142 -18.5t-153 -48l-35 139q74 31 149 51.5t151 28.5t144.5 2.5t128 -30.5t102.5 -67t68 -110t25 -157v-707h-207v135
q-148 -151 -344 -151q-129 0 -205 77.5t-76 198.5q0 115 74 204t218 137t333 38v61zM719 516q-197 21 -314.5 -55t-117.5 -176q0 -67 48 -103.5t124 -36.5q144 0 260 113v258z" />
    <glyph glyph-name="Aogonek" unicode="&#x104;" horiz-adv-x="1308" 
d="M1053 -174q-22 0 -37 -14t-15 -37q0 -21 15 -35t37 -14h198v-113h-198q-72 0 -117 45.5t-45 116.5q0 56 46.5 100t119.5 57l49 5l-8 57h-56l-120 358h-533l-121 -358h-221l528 1415h185l512 -1415h-55l34 -168h-198zM430 520h451l-224 651z" />
    <glyph glyph-name="aogonek" unicode="&#x105;" horiz-adv-x="1038" 
d="M926 707v-707h-54l33 -170h-200q-23 0 -38.5 -15t-15.5 -38q0 -25 15.5 -40.5t38.5 -15.5h204v-112h-204q-74 0 -121 46.5t-47 121.5q0 57 48.5 103t123.5 59l53 4l-6 57h-37v135q-148 -151 -344 -151q-129 0 -205 77.5t-76 198.5q0 115 74 204t218 137t333 38v61
q0 79 -30.5 129t-80.5 69.5t-120 18t-142 -18.5t-153 -48l-35 139q74 31 149 51.5t151 28.5t144.5 2.5t128 -30.5t102.5 -67t68 -110t25 -157zM719 258v258q-197 21 -314.5 -55t-117.5 -176q0 -67 48 -103.5t124 -36.5q144 0 260 113z" />
    <glyph glyph-name="Cacute" unicode="&#x106;" horiz-adv-x="1300" 
d="M844 2001l-15 -94q-5 -56 -19 -113.5t-38 -134.5t-29 -94h-131q6 31 25 106t30 134t15 112l12 84h150zM1200 78q-239 -105 -471 -105q-312 0 -464 191t-152 532t152 532t464 191q228 0 471 -102v-174q-281 88 -446 88q-205 0 -310.5 -135t-105.5 -400t105.5 -399.5
t310.5 -134.5q156 0 446 88v-172z" />
    <glyph glyph-name="cacute" unicode="&#x107;" horiz-adv-x="958" 
d="M651 1812l-14 -94q-5 -56 -20 -116t-37 -129t-29 -97h-133q6 29 25 105.5t30 135.5t14 112l13 83h151zM891 43q-149 -59 -293 -59q-238 0 -375 148t-137 407q0 257 137 404t375 147q140 0 281 -50l-56 -151q-118 35 -202 35q-153 0 -238.5 -101.5t-85.5 -283.5
q0 -184 85.5 -284.5t238.5 -100.5q103 0 223 49z" />
    <glyph glyph-name="Cdotaccent" unicode="&#x10a;" horiz-adv-x="1300" 
d="M723 1597q-38 0 -65 27.5t-27 63.5q0 38 27 65t65 27q36 0 63 -27t27 -65q0 -35 -27.5 -63t-62.5 -28zM1200 78q-239 -105 -471 -105q-312 0 -464 191t-152 532t152 532t464 191q228 0 471 -102v-174q-281 88 -446 88q-205 0 -310.5 -135t-105.5 -400t105.5 -399.5
t310.5 -134.5q156 0 446 88v-172z" />
    <glyph glyph-name="cdotaccent" unicode="&#x10b;" horiz-adv-x="958" 
d="M528 1409q-36 0 -63 27t-27 63q0 38 26.5 65t63.5 27t63.5 -27t26.5 -65q0 -36 -27 -63t-63 -27zM891 43q-149 -59 -293 -59q-238 0 -375 148t-137 407q0 257 137 404t375 147q140 0 281 -50l-56 -151q-118 35 -202 35q-153 0 -238.5 -101.5t-85.5 -283.5
q0 -184 85.5 -284.5t238.5 -100.5q103 0 223 49z" />
    <glyph glyph-name="Ccaron" unicode="&#x10c;" horiz-adv-x="1300" 
d="M424 1878l-6 119l297 -256l282 268l4 -119l-284 -276zM1200 78q-239 -105 -471 -105q-312 0 -464 191t-152 532t152 532t464 191q228 0 471 -102v-174q-281 88 -446 88q-205 0 -310.5 -135t-105.5 -400t105.5 -399.5t310.5 -134.5q156 0 446 88v-172z" />
    <glyph glyph-name="ccaron" unicode="&#x10d;" horiz-adv-x="958" 
d="M229 1690l-4 118l295 -256l283 269l4 -119l-283 -277zM891 43q-149 -59 -293 -59q-238 0 -375 148t-137 407q0 257 137 404t375 147q140 0 281 -50l-56 -151q-118 35 -202 35q-153 0 -238.5 -101.5t-85.5 -283.5q0 -184 85.5 -284.5t238.5 -100.5q103 0 223 49z" />
    <glyph glyph-name="Dcaron" unicode="&#x10e;" horiz-adv-x="1349" 
d="M225 1878l-4 119l295 -256l283 268l4 -119l-283 -276zM133 -6v1405h510q303 0 452.5 -182.5t149.5 -514.5q0 -338 -149.5 -523t-452.5 -185h-510zM643 182q379 0 379 520q0 508 -379 508h-287v-1028h287z" />
    <glyph glyph-name="dcaron" unicode="&#x10f;" horiz-adv-x="1103" 
d="M469 1425l-295 265l-4 118l295 -256l283 269l4 -119zM786 1409h205v-1409h-203l-2 106q-58 -58 -134 -90t-158 -32q-196 0 -299 146.5t-103 391.5q0 159 46 279.5t140.5 190t227.5 69.5q163 0 280 -117v465zM567 154q122 0 219 82v575q-95 80 -219 80q-125 0 -192.5 -96
t-67.5 -273t67.5 -272.5t192.5 -95.5z" />
    <glyph glyph-name="Dcroat" unicode="&#x110;" horiz-adv-x="1349" 
d="M643 1399q303 0 452.5 -182.5t149.5 -514.5q0 -338 -149.5 -523t-452.5 -185h-510v571h-174v217h174v617h510zM643 182q379 0 379 520q0 508 -379 508h-287v-428h248v-217h-248v-383h287z" />
    <glyph glyph-name="dcroat" unicode="&#x111;" horiz-adv-x="1103" 
d="M1198 1257v-118h-207v-1139h-203l-2 106q-58 -58 -134 -90t-158 -32q-196 0 -299 146.5t-103 391.5q0 159 46 279.5t140.5 190t227.5 69.5q163 0 280 -117v195h-227v118h227v152h205v-152h207zM567 154q122 0 219 82v575q-95 80 -219 80q-125 0 -192.5 -96t-67.5 -273
t67.5 -272.5t192.5 -95.5z" />
    <glyph glyph-name="Emacron" unicode="&#x112;" horiz-adv-x="1134" 
d="M258 1825h639v-162h-639v162zM1042 1210h-684v-393h592v-188h-592v-447h695v-188h-920v1405h909v-189z" />
    <glyph glyph-name="emacron" unicode="&#x113;" horiz-adv-x="1116" 
d="M301 1518h608v-164h-608v164zM307 504q6 -173 91 -261.5t264 -88.5q160 0 276 45l51 -146q-106 -43 -186 -55t-178 -12q-264 0 -398.5 146t-134.5 407q0 255 128.5 406t352.5 151q219 0 328 -165t76 -427h-670zM799 631q0 141 -61.5 229t-168.5 88q-116 0 -184.5 -84.5
t-77.5 -232.5h492z" />
    <glyph glyph-name="Edotaccent" unicode="&#x116;" horiz-adv-x="1134" 
d="M584 1597q-36 0 -63 27.5t-27 63.5q0 38 26.5 65t63.5 27t63.5 -27t26.5 -65q0 -36 -27 -63.5t-63 -27.5zM1042 1210h-684v-393h592v-188h-592v-447h695v-188h-920v1405h909v-189z" />
    <glyph glyph-name="edotaccent" unicode="&#x117;" horiz-adv-x="1116" 
d="M553 1409q-36 0 -63 27t-27 63q0 38 26.5 65t63.5 27t63.5 -27t26.5 -65q0 -36 -27 -63t-63 -27zM307 504q6 -173 91 -261.5t264 -88.5q160 0 276 45l51 -146q-106 -43 -186 -55t-178 -12q-264 0 -398.5 146t-134.5 407q0 255 128.5 406t352.5 151q219 0 328 -165
t76 -427h-670zM799 631q0 141 -61.5 229t-168.5 88q-116 0 -184.5 -84.5t-77.5 -232.5h492z" />
    <glyph glyph-name="Eogonek" unicode="&#x118;" horiz-adv-x="1134" 
d="M358 182h695v-348h-205q-23 0 -38 -15t-15 -38q0 -25 15 -40t38 -15h205v-113h-205q-74 0 -121 46.5t-47 121.5q0 57 48.5 103t123.5 59l53 4v47h-772v1405h909v-189h-684v-393h592v-188h-592v-447z" />
    <glyph glyph-name="eogonek" unicode="&#x119;" horiz-adv-x="1116" 
d="M516 -203q-23 0 -38 -15t-15 -38t15 -38t38 -15h207v-115h-207q-73 0 -119.5 47t-46.5 121q0 59 48 105t124 59l53 2l-12 78q-233 17 -352 161.5t-119 389.5q0 255 128.5 406t352.5 151q219 0 328 -165t76 -427h-670q6 -173 91 -261.5t264 -88.5q160 0 276 45l51 -146
q-149 -60 -303 -67l37 -189h-207zM569 948q-116 0 -184.5 -84.5t-77.5 -232.5h492q0 141 -61.5 229t-168.5 88z" />
    <glyph glyph-name="Ecaron" unicode="&#x11a;" horiz-adv-x="1134" 
d="M285 1878l-4 119l294 -256l283 268l4 -119l-282 -276zM1042 1210h-684v-393h592v-188h-592v-447h695v-188h-920v1405h909v-189z" />
    <glyph glyph-name="ecaron" unicode="&#x11b;" horiz-adv-x="1116" 
d="M276 1704l-6 139l275 -270l282 266l4 -137l-282 -277zM307 504q6 -173 91 -261.5t264 -88.5q160 0 276 45l51 -146q-106 -43 -186 -55t-178 -12q-264 0 -398.5 146t-134.5 407q0 255 128.5 406t352.5 151q219 0 328 -165t76 -427h-670zM799 631q0 141 -61.5 229
t-168.5 88q-116 0 -184.5 -84.5t-77.5 -232.5h492z" />
    <glyph glyph-name="Gbreve" unicode="&#x11e;" horiz-adv-x="1331" 
d="M725 1587q-137 0 -244 76v125q46 -31 112.5 -51t133.5 -21q138 -3 248 62v-127q-113 -67 -250 -64zM975 688h223v-610q-239 -105 -469 -105q-312 0 -464 191t-152 532t152 532t464 191q218 0 461 -102v-182q-238 96 -436 96q-205 0 -310.5 -135t-105.5 -400
q0 -261 104.5 -397.5t292.5 -136.5q110 0 240 41v485z" />
    <glyph glyph-name="gbreve" unicode="&#x11f;" horiz-adv-x="1103" 
d="M784 1462q-109 -66 -247 -63q-139 0 -246 76v124q48 -31 114 -50.5t132 -20.5q143 -3 247 61v-127zM786 1047h205v-1067q0 -137 -71.5 -232.5t-187 -134.5t-263 -30t-297.5 69l33 149q143 -57 275.5 -58.5t219 61t86.5 180.5v125q-117 -117 -280 -117q-132 0 -226.5 69.5
t-141 189.5t-46.5 279q0 245 103 391t299 146q165 0 288 -123h4v103zM567 162q124 0 219 80v555q-97 82 -219 82q-123 0 -191.5 -93t-68.5 -256q0 -177 67.5 -272.5t192.5 -95.5z" />
    <glyph glyph-name="Gdotaccent" unicode="&#x120;" horiz-adv-x="1331" 
d="M721 1597q-36 0 -63 27.5t-27 63.5q0 38 26.5 65t63.5 27t63.5 -27t26.5 -65q0 -36 -27 -63.5t-63 -27.5zM975 688h223v-610q-239 -105 -469 -105q-312 0 -464 191t-152 532t152 532t464 191q218 0 461 -102v-182q-238 96 -436 96q-205 0 -310.5 -135t-105.5 -400
q0 -261 104.5 -397.5t292.5 -136.5q110 0 240 41v485z" />
    <glyph glyph-name="gdotaccent" unicode="&#x121;" horiz-adv-x="1103" 
d="M528 1409q-36 0 -63 27t-27 63q0 38 26.5 65t63.5 27t63.5 -27t26.5 -65q0 -36 -27 -63t-63 -27zM786 1047h205v-1067q0 -137 -71.5 -232.5t-187 -134.5t-263 -30t-297.5 69l33 149q143 -57 275.5 -58.5t219 61t86.5 180.5v125q-117 -117 -280 -117q-132 0 -226.5 69.5
t-141 189.5t-46.5 279q0 245 103 391t299 146q165 0 288 -123h4v103zM567 162q124 0 219 80v555q-97 82 -219 82q-123 0 -191.5 -93t-68.5 -256q0 -177 67.5 -272.5t192.5 -95.5z" />
    <glyph glyph-name="uni0122" unicode="&#x122;" horiz-adv-x="1331" 
d="M975 688h223v-610q-239 -105 -469 -105q-312 0 -464 191t-152 532t152 532t464 191q218 0 461 -102v-182q-238 96 -436 96q-205 0 -310.5 -135t-105.5 -400q0 -261 104.5 -397.5t292.5 -136.5q110 0 240 41v485zM834 -283q-21 -190 -111 -450h-127q3 17 24 106.5
t37 175.5t23 166l6 76h156z" />
    <glyph glyph-name="uni0123" unicode="&#x123;" horiz-adv-x="1103" 
d="M397 1507q-12 156 -12 209l-8 156l147 -14l11 -146q0 -31 4 -153q30 11 53 6q41 -5 69 -38.5t25 -76.5q-4 -46 -40 -73.5t-83 -22.5q-62 6 -108 48t-58 105zM786 1047h205v-1067q0 -137 -71.5 -232.5t-187 -134.5t-263 -30t-297.5 69l33 149q143 -57 275.5 -58.5t219 61
t86.5 180.5v125q-117 -117 -280 -117q-132 0 -226.5 69.5t-141 189.5t-46.5 279q0 245 103 391t299 146q165 0 288 -123h4v103zM567 162q124 0 219 80v555q-97 82 -219 82q-123 0 -191.5 -93t-68.5 -256q0 -177 67.5 -272.5t192.5 -95.5z" />
    <glyph glyph-name="Hbar" unicode="&#x126;" horiz-adv-x="1339" 
d="M1298 1130v-153h-92v-983h-225v635h-623v-635h-225v983h-100v153h100v269h225v-269h623v269h225v-269h92zM981 817v160h-623v-160h623z" />
    <glyph glyph-name="hbar" unicode="&#x127;" horiz-adv-x="1095" 
d="M653 1057q152 2 241 -86t89 -254v-717h-207v649q0 195 -176 201q-127 2 -281 -113v-737h-206v1157h-170v129h170v113h206v-113h203v-129h-203v-227q161 124 334 127z" />
    <glyph glyph-name="Imacron" unicode="&#x12a;" horiz-adv-x="491" 
d="M-57 1888h641v-164h-641v164zM133 -6v1405h225v-1405h-225z" />
    <glyph glyph-name="imacron" unicode="&#x12b;" horiz-adv-x="491" 
d="M-61 1511h639v-157h-639v157zM319 1010v-1010h-206v1010h206z" />
    <glyph glyph-name="Iogonek" unicode="&#x12e;" horiz-adv-x="491" 
d="M358 1399v-1405h-47l45 -227h-206q-23 0 -38.5 -15.5t-15.5 -38.5q0 -25 15 -40t39 -15h206v-113h-206q-74 0 -121 46.5t-47 121.5q0 57 49 103t125 59l53 4l-19 115h-57v1405h225z" />
    <glyph glyph-name="iogonek" unicode="&#x12f;" horiz-adv-x="411" 
d="M203 1135q-46 0 -79.5 33t-33.5 77q0 46 33.5 78.5t79.5 32.5q45 0 77.5 -33t32.5 -78q0 -44 -33 -77t-77 -33zM57 -287q0 -25 15.5 -40t38.5 -15h204v-113h-204q-74 0 -121 46.5t-47 121.5q0 57 48.5 103t123.5 59l53 4l-16 121h-50v983h207v-983h-41l47 -233h-204
q-23 0 -38.5 -15.5t-15.5 -38.5z" />
    <glyph glyph-name="Idotaccent" unicode="&#x130;" horiz-adv-x="491" 
d="M252 1597q-38 0 -65 27.5t-27 63.5q0 38 27 65t65 27q36 0 63 -27t27 -65q0 -35 -27.5 -63t-62.5 -28zM133 -6v1405h225v-1405h-225z" />
    <glyph glyph-name="dotlessi" unicode="&#x131;" horiz-adv-x="432" 
d="M319 1010v-1010h-206v1010h206z" />
    <glyph glyph-name="uni0136" unicode="&#x136;" horiz-adv-x="1300" 
d="M621 713l626 -719h-289l-600 706v-706h-225v1405h225v-694l598 694h277zM530 -229l9 75h155l-10 -73q-19 -190 -109 -451h-126q1 7 23 104t36.5 180.5t21.5 164.5z" />
    <glyph glyph-name="uni0137" unicode="&#x137;" horiz-adv-x="1050" 
d="M504 684l516 -684h-248l-453 625v-625h-206v1399h206v-697l453 326h246zM428 -297l8 76h156l-10 -72q-20 -196 -109 -450h-127q1 6 23 102.5t37 179.5t22 164z" />
    <glyph glyph-name="Lacute" unicode="&#x139;" horiz-adv-x="1073" 
d="M946 2001l-14 -94q-5 -56 -20 -116t-37 -129t-29 -97h-133q6 30 25 105.5t30 134.5t14 112l13 84h151zM358 1399v-1217h666v-188h-891v1405h225z" />
    <glyph glyph-name="lacute" unicode="&#x13a;" horiz-adv-x="411" 
d="M387 2036l-14 -94q-5 -55 -20 -115.5t-36.5 -129t-29.5 -98.5h-133q7 32 25.5 107.5t29.5 134.5t14 111l13 84h151zM309 0h-207v1399h207v-1399z" />
    <glyph glyph-name="uni013B" unicode="&#x13b;" horiz-adv-x="1073" 
d="M358 1399v-1217h666v-188h-891v1405h225zM631 -342q-20 -198 -109 -451h-127q1 5 23 102.5t37 180.5t22 164l8 76h156z" />
    <glyph glyph-name="uni013C" unicode="&#x13c;" horiz-adv-x="411" 
d="M309 0h-207v1399h207v-1399zM270 -229q-12 -107 -45 -237t-63 -214h-127q1 5 23 102.5t37 180.5t22 164l8 75h156z" />
    <glyph glyph-name="Lcaron" unicode="&#x13d;" horiz-adv-x="1073" 
d="M524 1794l-4 119l295 -254l283 266l4 -119l-283 -276zM358 1399v-1217h666v-188h-891v1405h225z" />
    <glyph glyph-name="lcaron" unicode="&#x13e;" horiz-adv-x="411" 
d="M-72 1917l-4 139l275 -270l282 266l4 -137l-282 -277zM309 0h-207v1399h207v-1399z" />
    <glyph glyph-name="Lslash" unicode="&#x141;" horiz-adv-x="1073" 
d="M358 182h666v-188h-891v639l-129 -103h-225l354 279v590h225v-412l172 135h224l-396 -311v-629z" />
    <glyph glyph-name="lslash" unicode="&#x142;" horiz-adv-x="491" 
d="M733 1077l-375 -295v-788h-225v612l-151 -119h-224l375 295v617h225v-441l152 119h223z" />
    <glyph glyph-name="Nacute" unicode="&#x143;" horiz-adv-x="1368" 
d="M793 1907q-5 -56 -19 -113.5t-38 -134.5t-29 -94h-132q6 31 25 106t30 134t15 112l12 84h150zM1030 1399h205v-1405h-217l-684 1016l6 -1016h-207v1405h205l696 -1034z" />
    <glyph glyph-name="nacute" unicode="&#x144;" horiz-adv-x="1095" 
d="M674 1812l-15 -94q-5 -56 -19 -113.5t-38 -134.5t-29 -94h-131q6 30 25 105.5t30 135t15 112.5l12 83h150zM319 0h-206v1030h206v-106q96 67 177 97t176 30q154 0 232.5 -85.5t78.5 -248.5v-717h-207v649q0 201 -188 201q-124 0 -269 -113v-737z" />
    <glyph glyph-name="uni0145" unicode="&#x145;" horiz-adv-x="1368" 
d="M1030 1399h205v-1405h-217l-684 1016l6 -1016h-207v1405h205l696 -1034zM571 -362l7 75h155l-8 -71q-12 -106 -45.5 -233.5t-65.5 -217.5h-127q2 12 24 104t37.5 177.5t22.5 165.5z" />
    <glyph glyph-name="uni0146" unicode="&#x146;" horiz-adv-x="1095" 
d="M319 0h-206v1030h206v-106q96 67 177 97t176 30q154 0 232.5 -85.5t78.5 -248.5v-717h-207v649q0 201 -188 201q-124 0 -269 -113v-737zM592 -242q-12 -107 -45.5 -235t-63.5 -215h-127q1 6 23 102.5t37 179.5t22 164l8 76h156z" />
    <glyph glyph-name="Ncaron" unicode="&#x147;" horiz-adv-x="1368" 
d="M680 1614l-293 264l-6 123l297 -254l283 266l4 -123zM1030 1399h205v-1405h-217l-684 1016l6 -1016h-207v1405h205l696 -1034z" />
    <glyph glyph-name="ncaron" unicode="&#x148;" horiz-adv-x="1095" 
d="M256 1606l-4 139l274 -270l283 266l4 -137l-285 -277zM319 0h-206v1030h206v-106q96 67 177 97t176 30q154 0 232.5 -85.5t78.5 -248.5v-717h-207v649q0 201 -188 201q-124 0 -269 -113v-737z" />
    <glyph glyph-name="Eng" unicode="&#x14a;" horiz-adv-x="1368" 
d="M1030 1403h205v-1403l-8 -74q-21 -190 -111 -450h-192q4 22 25.5 107.5t38.5 173t24 167.5l6 76l-684 1014l6 -1014h-207v1403h205l696 -1034z" />
    <glyph glyph-name="eng" unicode="&#x14b;" horiz-adv-x="1095" 
d="M672 1051q154 0 232.5 -85.5t78.5 -248.5v-717l-10 -74q-22 -198 -109 -450h-182q4 19 24.5 107t37 174.5t24.5 166.5l8 76v649q0 201 -188 201q-124 0 -269 -113v-737h-206v1030h206v-106q96 67 177 97t176 30z" />
    <glyph glyph-name="Omacron" unicode="&#x14c;" horiz-adv-x="1429" 
d="M334 1804h870v-162h-870v162zM715 -27q-299 0 -450.5 193.5t-151.5 535.5q0 336 151.5 526.5t450.5 190.5q300 0 451 -190.5t151 -526.5q0 -225 -63.5 -386t-200 -252t-338.5 -91zM715 162q104 0 179.5 42t118 118.5t62 170t19.5 209.5q0 261 -96 395t-283 134
t-282 -133.5t-95 -395.5q0 -92 11.5 -170t39 -147.5t70 -118t108 -76.5t148.5 -28z" />
    <glyph glyph-name="omacron" unicode="&#x14d;" horiz-adv-x="1126" 
d="M254 1577h641v-162h-641v162zM563 -16q-154 0 -262 71t-158.5 190t-50.5 277q0 117 29.5 214.5t86.5 170.5t148 113.5t207 40.5t207 -40.5t148 -113.5t86.5 -170.5t29.5 -214.5q0 -158 -50.5 -277t-158.5 -190t-262 -71zM563 909q-57 0 -103 -20t-78.5 -55t-54.5 -84
t-32 -106t-10 -122t10 -122t32 -106t54.5 -84t78.5 -55t103 -20q94 0 158 53.5t91.5 138t27.5 195.5t-27.5 195.5t-91.5 138t-158 53.5z" />
    <glyph glyph-name="Ohungarumlaut" unicode="&#x150;" horiz-adv-x="1429" 
d="M715 2068q-10 -84 -29 -166t-45 -173t-33 -119h-131q5 23 28 128t37.5 183t20.5 143l8 68h152zM1081 2071q-6 -62 -24 -139t-44 -172.5t-38 -149.5h-133q1 6 17 76.5t22 100t18 89t19 105.5t12 87l8 64h149zM715 -27q-299 0 -450.5 193.5t-151.5 535.5q0 336 151.5 526.5
t450.5 190.5q300 0 451 -190.5t151 -526.5q0 -225 -63.5 -386t-200 -252t-338.5 -91zM715 162q104 0 179.5 42t118 118.5t62 170t19.5 209.5q0 261 -96 395t-283 134t-282 -133.5t-95 -395.5q0 -92 11.5 -170t39 -147.5t70 -118t108 -76.5t148.5 -28z" />
    <glyph glyph-name="ohungarumlaut" unicode="&#x151;" horiz-adv-x="1126" 
d="M561 1880q-10 -84 -28.5 -166t-45 -174.5t-32.5 -118.5h-131q4 22 27.5 128.5t38 184t20.5 142.5l8 68h151zM928 1882q-8 -83 -55 -260t-52 -201h-133q75 342 88 459l8 64h150zM563 -16q-154 0 -262 71t-158.5 190t-50.5 277q0 117 29.5 214.5t86.5 170.5t148 113.5
t207 40.5t207 -40.5t148 -113.5t86.5 -170.5t29.5 -214.5q0 -158 -50.5 -277t-158.5 -190t-262 -71zM563 909q-57 0 -103 -20t-78.5 -55t-54.5 -84t-32 -106t-10 -122t10 -122t32 -106t54.5 -84t78.5 -55t103 -20q94 0 158 53.5t91.5 138t27.5 195.5t-27.5 195.5t-91.5 138
t-158 53.5z" />
    <glyph glyph-name="OE" unicode="&#x152;" horiz-adv-x="2121" 
d="M1315 182h694v-188h-919v96q-145 -117 -375 -117q-299 0 -450.5 193.5t-151.5 535.5q0 336 151.5 526.5t450.5 190.5q230 0 375 -114v94h909v-189h-684v-393h592v-188h-592v-4v-443zM715 162q92 0 161.5 33t113.5 93.5t68 137.5t32 174v205q-19 211 -113.5 318.5
t-261.5 107.5q-187 0 -282 -133.5t-95 -395.5q0 -92 11.5 -170t39 -147.5t70 -118t108 -76.5t148.5 -28z" />
    <glyph glyph-name="oe" unicode="&#x153;" horiz-adv-x="1830" 
d="M1679 199l52 -146q-105 -43 -185.5 -55t-179.5 -12q-290 0 -428 180q-122 -182 -375 -182q-154 0 -262 71t-158.5 190t-50.5 277q0 117 29.5 214.5t86.5 170.5t148 113.5t207 40.5q238 0 363 -164q62 96 161 147.5t228 51.5q219 0 327.5 -165t75.5 -427h-669
q6 -173 90.5 -261.5t263.5 -88.5q160 0 276 45zM1311 948q-116 0 -184.5 -84.5t-77.5 -232.5h491q0 141 -61 229t-168 88zM563 135q124 0 193 88.5t82 233.5q-4 54 -4 82q0 43 2 61q-14 140 -82.5 224.5t-190.5 84.5q-57 0 -103 -20t-78.5 -55t-54.5 -84t-32 -106t-10 -122
t10 -122t32 -106t54.5 -84t78.5 -55t103 -20z" />
    <glyph glyph-name="Racute" unicode="&#x154;" horiz-adv-x="1265" 
d="M668 1907q-5 -56 -19 -113.5t-38 -134.5t-29 -94h-131q6 29 24.5 105.5t29.5 135t15 111.5l12 84h150zM879 567l340 -573h-254l-312 545h-295v-545h-225v1405h584q202 0 327 -117.5t125 -312.5q0 -157 -77 -261.5t-213 -140.5zM358 725h338q112 0 180 63t68 181
q0 113 -69.5 177t-176.5 64h-340v-485z" />
    <glyph glyph-name="racute" unicode="&#x155;" horiz-adv-x="700" 
d="M598 1812l-14 -94q-5 -56 -20 -116t-37 -129t-29 -97h-133q6 29 25 105.5t30 135.5t14 112l12 83h152zM319 0h-206v1030h206v-190q66 100 162.5 148t202.5 46v-162q-105 9 -218.5 -54.5t-146.5 -135.5v-682z" />
    <glyph glyph-name="uni0156" unicode="&#x156;" horiz-adv-x="1265" 
d="M879 567l340 -573h-254l-312 545h-295v-545h-225v1405h584q202 0 327 -117.5t125 -312.5q0 -157 -77 -261.5t-213 -140.5zM358 725h338q112 0 180 63t68 181q0 113 -69.5 177t-176.5 64h-340v-485zM551 -262l8 76h156l-10 -72q-20 -198 -109 -451h-127q1 5 23 102.5
t37 180.5t22 164z" />
    <glyph glyph-name="uni0157" unicode="&#x157;" horiz-adv-x="700" 
d="M319 0h-206v1030h206v-190q66 100 162.5 148t202.5 46v-162q-105 9 -218.5 -54.5t-146.5 -135.5v-682zM283 -221q-22 -191 -111 -451h-127q3 16 24 106.5t37 176.5t23 166l6 76h156z" />
    <glyph glyph-name="Rcaron" unicode="&#x158;" horiz-adv-x="1265" 
d="M555 1614l-293 264l-6 119l297 -256l283 268l4 -119zM879 567l340 -573h-254l-312 545h-295v-545h-225v1405h584q202 0 327 -117.5t125 -312.5q0 -157 -77 -261.5t-213 -140.5zM358 725h338q112 0 180 63t68 181q0 113 -69.5 177t-176.5 64h-340v-485z" />
    <glyph glyph-name="rcaron" unicode="&#x159;" horiz-adv-x="700" 
d="M174 1667l-6 137l274 -270l283 268l4 -139l-283 -277zM319 0h-206v1030h206v-190q66 100 162.5 148t202.5 46v-162q-105 9 -218.5 -54.5t-146.5 -135.5v-682z" />
    <glyph glyph-name="Sacute" unicode="&#x15a;" horiz-adv-x="1183" 
d="M735 2001l-14 -94q-5 -56 -20 -116t-37 -129t-29 -97h-133q6 30 25 105.5t30 134.5t14 112l13 84h151zM592 -27q-272 0 -512 70v182q301 -67 504 -67q143 0 219 63t76 154q0 24 -6.5 45.5t-15 38t-28 33.5t-32.5 28t-43.5 25t-46 21t-54 20.5t-54 18t-58.5 18.5
q-53 16 -90 29t-87 34t-83.5 43t-70 54t-58.5 68.5t-36 86t-14 106.5q0 126 63.5 211.5t171.5 124.5t255 39q238 0 483 -73v-187q-283 76 -479 76q-270 0 -270 -191q0 -40 16 -71.5t45 -54t67.5 -40.5t85 -33.5t94.5 -30.5q17 -4 25 -7q54 -16 91 -28t88 -33t85 -42.5
t71 -53.5t59 -68.5t36.5 -85.5t14.5 -107q0 -200 -141 -308t-371 -108z" />
    <glyph glyph-name="sacute" unicode="&#x15b;" horiz-adv-x="983" 
d="M637 1812l-14 -94q-5 -56 -19 -113.5t-38 -134.5t-29 -94h-131q6 28 24.5 105t29.5 136t15 112l12 83h150zM479 -33q-200 0 -397 82v156q89 -38 187 -58t169 -20q64 0 111.5 15t70.5 38.5t33.5 46t10.5 45.5q0 28 -12.5 50.5t-33 39.5t-50 31t-61.5 26t-69 24q-7 2 -10 3
q-41 14 -66 23t-63.5 26.5t-62.5 33.5t-52 40.5t-44 51t-27 63t-11 78.5q0 151 114 237t319 86q171 0 344 -75v-154q-154 74 -291 74q-127 0 -189.5 -46.5t-62.5 -105.5q0 -44 38 -79t76 -51t121 -44q11 -4 17 -6q56 -20 91.5 -34.5t82 -41.5t73.5 -56t46.5 -73.5
t19.5 -97.5q0 -152 -116.5 -240t-305.5 -88z" />
    <glyph glyph-name="Scedilla" unicode="&#x15e;" horiz-adv-x="1183" 
d="M602 -27l-2 -14q-17 -118 -33 -174l160 -2q67 -11 119.5 -58t52.5 -106q0 -69 -48.5 -118.5t-117.5 -49.5h-313v115h313q22 0 37.5 15t15.5 38q0 22 -15.5 37.5t-37.5 15.5h-313q1 5 9 27.5t9.5 28t8 26.5t8.5 32t7 32.5t8 40t6.5 44.5t6.5 54l2 18q-204 10 -405 68v182
q301 -67 504 -67q143 0 219 63t76 154q0 24 -6.5 45.5t-15 38t-28 33.5t-32.5 28t-43.5 25t-46 21t-54 20.5t-54 18t-58.5 18.5q-53 16 -90 29t-87 34t-83.5 43t-70 54t-58.5 68.5t-36 86t-14 106.5q0 126 63.5 211.5t171.5 124.5t255 39q238 0 483 -73v-187
q-283 76 -479 76q-270 0 -270 -191q0 -40 16 -71.5t45 -54t67.5 -40.5t85 -33.5t94.5 -30.5q17 -4 25 -7q54 -16 91 -28t88 -33t85 -42.5t71 -53.5t59 -68.5t36.5 -85.5t14.5 -107q0 -198 -138 -305.5t-364 -110.5z" />
    <glyph glyph-name="scedilla" unicode="&#x15f;" horiz-adv-x="983" 
d="M666 -258q67 -11 119.5 -58t52.5 -106q0 -69 -48.5 -118.5t-117.5 -49.5h-314v115h314q22 0 37.5 15t15.5 38q0 22 -15.5 37.5t-37.5 15.5h-314q2 7 10 31t11 32.5t9.5 31t9.5 38.5t8 40.5t9 52t7 59.5l6 53q-166 6 -346 80v156q89 -38 187 -58t169 -20q64 0 111.5 15
t70.5 38.5t33.5 46t10.5 45.5q0 28 -12.5 50.5t-33 39.5t-50 31t-61.5 26t-69 24q-7 2 -10 3q-41 14 -66 23t-63.5 26.5t-62.5 33.5t-52 40.5t-44 51t-27 63t-11 78.5q0 151 114 237t319 86q171 0 344 -75v-154q-154 74 -291 74q-127 0 -189.5 -46.5t-62.5 -105.5
q0 -44 38 -79t76 -51t121 -44q11 -4 17 -6q56 -20 91.5 -34.5t82 -41.5t73.5 -56t46.5 -73.5t19.5 -97.5q0 -138 -97 -224.5t-259 -101.5l-6 -51q-17 -118 -33 -174z" />
    <glyph glyph-name="Scaron" unicode="&#x160;" horiz-adv-x="1183" 
d="M313 1878l-4 119l295 -256l283 268l4 -119l-283 -276zM592 -27q-272 0 -512 70v182q301 -67 504 -67q143 0 219 63t76 154q0 24 -6.5 45.5t-15 38t-28 33.5t-32.5 28t-43.5 25t-46 21t-54 20.5t-54 18t-58.5 18.5q-53 16 -90 29t-87 34t-83.5 43t-70 54t-58.5 68.5
t-36 86t-14 106.5q0 126 63.5 211.5t171.5 124.5t255 39q238 0 483 -73v-187q-283 76 -479 76q-270 0 -270 -191q0 -40 16 -71.5t45 -54t67.5 -40.5t85 -33.5t94.5 -30.5q17 -4 25 -7q54 -16 91 -28t88 -33t85 -42.5t71 -53.5t59 -68.5t36.5 -85.5t14.5 -107
q0 -200 -141 -308t-371 -108z" />
    <glyph glyph-name="scaron" unicode="&#x161;" horiz-adv-x="983" 
d="M227 1667l-4 137l275 -270l282 268l4 -139l-284 -277zM479 -33q-200 0 -397 82v156q89 -38 187 -58t169 -20q64 0 111.5 15t70.5 38.5t33.5 46t10.5 45.5q0 28 -12.5 50.5t-33 39.5t-50 31t-61.5 26t-69 24q-7 2 -10 3q-41 14 -66 23t-63.5 26.5t-62.5 33.5t-52 40.5
t-44 51t-27 63t-11 78.5q0 151 114 237t319 86q171 0 344 -75v-154q-154 74 -291 74q-127 0 -189.5 -46.5t-62.5 -105.5q0 -44 38 -79t76 -51t121 -44q11 -4 17 -6q56 -20 91.5 -34.5t82 -41.5t73.5 -56t46.5 -73.5t19.5 -97.5q0 -152 -116.5 -240t-305.5 -88z" />
    <glyph glyph-name="uni0162" unicode="&#x162;" horiz-adv-x="1132" 
d="M623 -6l-7 -41q-13 -103 -30 -174l159 -2q67 -11 120 -58t53 -106q0 -69 -49.5 -118.5t-118.5 -49.5h-312v115h312q23 0 38 15t15 38q0 22 -15 37.5t-38 15.5h-312q2 5 16.5 51.5t19 65t13.5 66.5t15 102l4 43h-51v1216h-394v189h1010v-189h-393v-1216h-55z" />
    <glyph glyph-name="uni0163" unicode="&#x163;" horiz-adv-x="610" 
d="M600 -250q67 -11 119.5 -58t52.5 -106q0 -69 -48.5 -118.5t-117.5 -49.5h-313v115h313q22 0 37.5 15t15.5 38q0 22 -15.5 38t-37.5 16h-313q1 2 10 30t11 33.5t9 30.5t9.5 39t8 39.5t9 52.5t6.5 59l6 51q-111 7 -158.5 71t-47.5 185v623h-138l31 156h107v254l206 53v-307
h222l-31 -156h-191v-604q0 -119 113 -119q75 0 98 10v-151q-42 -10 -94 -13l-6 -51q-17 -118 -33 -174z" />
    <glyph glyph-name="Tcaron" unicode="&#x164;" horiz-adv-x="1132" 
d="M268 1878l-4 119l295 -256l283 268l4 -119l-283 -276zM1071 1210h-393v-1216h-223v1216h-394v189h1010v-189z" />
    <glyph glyph-name="tcaron" unicode="&#x165;" horiz-adv-x="610" 
d="M152 1739l-7 137l275 -270l282 268l5 -139l-283 -277zM362 854v-604q0 -119 113 -119q75 0 98 10v-151q-80 -17 -178 -17q-129 0 -184 64.5t-55 193.5v623h-138l31 156h107v254l206 53v-307h222l-31 -156h-191z" />
    <glyph glyph-name="Tbar" unicode="&#x166;" horiz-adv-x="1132" 
d="M1071 1210h-393v-333h237v-187h-237v-696h-223v696h-252v187h252v333h-394v189h1010v-189z" />
    <glyph glyph-name="tbar" unicode="&#x167;" horiz-adv-x="610" 
d="M362 250q0 -119 113 -119q75 0 98 10v-151q-80 -17 -178 -17q-129 0 -184 64.5t-55 193.5v287h-109v154h109v182h-138l31 156h107v254l206 53v-307h222l-31 -156h-191v-182h191v-154h-191v-268z" />
    <glyph glyph-name="Umacron" unicode="&#x16a;" horiz-adv-x="1347" 
d="M365 1804h606v-164h-606v164zM358 502q0 -340 316 -340q82 0 142.5 23t93 56.5t52 82.5t24.5 89t5 89v897h223v-897q0 -264 -141 -396.5t-399 -132.5t-399.5 132.5t-141.5 396.5v897h225v-897z" />
    <glyph glyph-name="umacron" unicode="&#x16b;" horiz-adv-x="1095" 
d="M846 1577v-162h-578v162h578zM776 1030h207v-1036h-207v112q-91 -69 -174 -101t-178 -32q-154 0 -232.5 86t-78.5 250v721h206v-655q0 -201 189 -201q123 0 268 113v743z" />
    <glyph glyph-name="Uring" unicode="&#x16e;" horiz-adv-x="1347" 
d="M649 1606q-60 0 -102.5 43t-42.5 104q0 60 42.5 102.5t102.5 42.5t103 -42.5t43 -102.5q0 -61 -43 -104t-103 -43zM649 1686q29 0 48.5 20.5t19.5 52.5q0 29 -19.5 48.5t-48.5 19.5t-48 -19.5t-19 -48.5q0 -32 19 -52.5t48 -20.5zM358 502q0 -340 316 -340q82 0 142.5 23
t93 56.5t52 82.5t24.5 89t5 89v897h223v-897q0 -264 -141 -396.5t-399 -132.5t-399.5 132.5t-141.5 396.5v897h225v-897z" />
    <glyph glyph-name="uring" unicode="&#x16f;" horiz-adv-x="1095" 
d="M522 1417q-60 0 -102.5 43.5t-42.5 104.5q0 60 42.5 102.5t102.5 42.5t103 -42.5t43 -102.5q0 -61 -43 -104.5t-103 -43.5zM522 1638q-29 0 -48 -19t-19 -48q0 -32 19 -53t48 -21t48.5 21t19.5 53q0 29 -19.5 48t-48.5 19zM776 1030h207v-1036h-207v112
q-91 -69 -174 -101t-178 -32q-154 0 -232.5 86t-78.5 250v721h206v-655q0 -201 189 -201q123 0 268 113v743z" />
    <glyph glyph-name="Uhungarumlaut" unicode="&#x170;" horiz-adv-x="1347" 
d="M649 2068q-10 -84 -28.5 -165.5t-44.5 -174t-33 -118.5h-133q4 17 17.5 77.5t21 96.5t18.5 90.5t18.5 101.5t12.5 88l8 68h149zM1014 2071q-6 -63 -23.5 -138.5t-44.5 -174t-39 -148.5h-131q6 27 21.5 100.5t25.5 123t21.5 116.5t17.5 118l8 64h152zM358 502
q0 -340 316 -340q82 0 142.5 23t93 56.5t52 82.5t24.5 89t5 89v897h223v-897q0 -264 -141 -396.5t-399 -132.5t-399.5 132.5t-141.5 396.5v897h225v-897z" />
    <glyph glyph-name="uhungarumlaut" unicode="&#x171;" horiz-adv-x="1095" 
d="M520 1880q-10 -84 -28.5 -166t-45 -174.5t-32.5 -118.5h-131q4 22 27.5 128.5t38 184t20.5 142.5l8 68h151zM887 1882q-8 -83 -55 -260t-52 -201h-133q75 342 88 459l8 64h150zM776 1030h207v-1036h-207v112q-91 -69 -174 -101t-178 -32q-154 0 -232.5 86t-78.5 250v721
h206v-655q0 -201 189 -201q123 0 268 113v743z" />
    <glyph glyph-name="Uogonek" unicode="&#x172;" horiz-adv-x="1347" 
d="M991 1399h223v-897q0 -251 -127.5 -383t-361.5 -144l41 -198h-205q-23 0 -38 -15t-15 -38q0 -25 15 -40.5t38 -15.5h205v-112h-205q-74 0 -121 46.5t-47 121.5q0 57 48.5 102t123.5 59l53 4l-12 86q-227 18 -350 149.5t-123 377.5v897h225v-897q0 -340 316 -340
q82 0 142.5 23t93 56.5t52 82.5t24.5 89t5 89v897z" />
    <glyph glyph-name="uogonek" unicode="&#x173;" horiz-adv-x="1095" 
d="M983 1030v-1036h-55l45 -227h-205q-23 0 -38 -15.5t-15 -38.5q0 -25 15 -40t38 -15h205v-113h-205q-74 0 -121 46.5t-47 121.5q0 57 48.5 103t123.5 59l53 4l-16 115h-33v112q-91 -69 -174 -101t-178 -32q-154 0 -232.5 86t-78.5 250v721h206v-655q0 -201 189 -201
q123 0 268 113v743h207z" />
    <glyph glyph-name="Wcircumflex" unicode="&#x174;" horiz-adv-x="1921" 
d="M1241 1542l-283 266l-296 -254l6 119l293 264l284 -276zM1653 1399h221l-373 -1415h-262l-278 1046l-279 -1046h-260l-375 1415h232l188 -715l96 -395l94 395l189 715h239l193 -715l96 -395l92 395z" />
    <glyph glyph-name="wcircumflex" unicode="&#x175;" horiz-adv-x="1660" 
d="M1102 1348l-283 268l-274 -270l6 137l272 280l283 -276zM1403 1030h221l-328 -1046h-254l-217 747l-217 -747h-243l-328 1046h223l238 -856l227 856h213l227 -856z" />
    <glyph glyph-name="Ycircumflex" unicode="&#x176;" horiz-adv-x="1253" 
d="M336 1673l293 264l284 -276l-4 -119l-282 266l-297 -254zM633 680l166 356l180 363h229l-469 -936v-469h-225v469l-469 936h238l182 -363z" />
    <glyph glyph-name="ycircumflex" unicode="&#x177;" horiz-adv-x="1079" 
d="M874 1348l-282 268l-275 -270l7 137l272 280l283 -276zM823 1030h221l-512 -1405h-196l113 314l-412 1091h231l275 -837l2 -5z" />
    <glyph glyph-name="Ydieresis" unicode="&#x178;" horiz-adv-x="1253" 
d="M477 1548q-38 0 -65 27.5t-27 64.5t27 65t65 28q36 0 63 -28t27 -65t-26.5 -64.5t-63.5 -27.5zM748 1548q-37 0 -64 27.5t-27 64.5t27 65t64 28q38 0 65 -28t27 -65t-27 -64.5t-65 -27.5zM633 680l166 356l180 363h229l-469 -936v-469h-225v469l-469 936h238l182 -363z
" />
    <glyph glyph-name="Zacute" unicode="&#x179;" horiz-adv-x="1179" 
d="M745 1907q-5 -56 -20 -116t-37 -129t-29 -97h-133q7 31 25.5 105.5t30 134t14.5 112.5l12 84h152zM369 182h731v-188h-1018v151l706 1065h-665v189h950v-152z" />
    <glyph glyph-name="zacute" unicode="&#x17a;" horiz-adv-x="962" 
d="M637 1733q-5 -56 -20 -116t-37 -129t-29 -97h-133q6 30 25 105.5t30 134.5t14 112l13 84h151zM319 156h588v-162h-852v149l580 727h-549v160h803v-147z" />
    <glyph glyph-name="Zdotaccent" unicode="&#x17b;" horiz-adv-x="1179" 
d="M637 1597q-36 0 -63 27.5t-27 63.5q0 38 26.5 65t63.5 27t63.5 -27t26.5 -65q0 -36 -27 -63.5t-63 -27.5zM369 182h731v-188h-1018v151l706 1065h-665v189h950v-152z" />
    <glyph glyph-name="zdotaccent" unicode="&#x17c;" horiz-adv-x="962" 
d="M528 1423q-36 0 -63 27t-27 63q0 38 26.5 65.5t63.5 27.5t63.5 -27.5t26.5 -65.5q0 -36 -27 -63t-63 -27zM319 156h588v-162h-852v149l580 727h-549v160h803v-147z" />
    <glyph glyph-name="Zcaron" unicode="&#x17d;" horiz-adv-x="1179" 
d="M633 1614l-295 264l-4 119l295 -256l282 268l4 -119zM369 182h731v-188h-1018v151l706 1065h-665v189h950v-152z" />
    <glyph glyph-name="zcaron" unicode="&#x17e;" horiz-adv-x="962" 
d="M524 1440l-295 264l-4 119l295 -256l283 268l4 -119zM319 156h588v-162h-852v149l580 727h-549v160h803v-147z" />
    <glyph glyph-name="uni0218" unicode="&#x218;" horiz-adv-x="1183" 
d="M592 -27q-272 0 -512 70v182q301 -67 504 -67q143 0 219 63t76 154q0 24 -6.5 45.5t-15 38t-28 33.5t-32.5 28t-43.5 25t-46 21t-54 20.5t-54 18t-58.5 18.5q-53 16 -90 29t-87 34t-83.5 43t-70 54t-58.5 68.5t-36 86t-14 106.5q0 126 63.5 211.5t171.5 124.5t255 39
q238 0 483 -73v-187q-283 76 -479 76q-270 0 -270 -191q0 -40 16 -71.5t45 -54t67.5 -40.5t85 -33.5t94.5 -30.5q17 -4 25 -7q54 -16 91 -28t88 -33t85 -42.5t71 -53.5t59 -68.5t36.5 -85.5t14.5 -107q0 -200 -141 -308t-371 -108zM623 -276q-12 -106 -45.5 -233.5
t-65.5 -217.5h-127q3 13 24.5 104.5t37 176.5t22.5 165l6 76h156z" />
    <glyph glyph-name="uni0219" unicode="&#x219;" horiz-adv-x="983" 
d="M479 -33q-200 0 -397 82v156q89 -38 187 -58t169 -20q64 0 111.5 15t70.5 38.5t33.5 46t10.5 45.5q0 28 -12.5 50.5t-33 39.5t-50 31t-61.5 26t-69 24q-7 2 -10 3q-41 14 -66 23t-63.5 26.5t-62.5 33.5t-52 40.5t-44 51t-27 63t-11 78.5q0 151 114 237t319 86
q171 0 344 -75v-154q-154 74 -291 74q-127 0 -189.5 -46.5t-62.5 -105.5q0 -44 38 -79t76 -51t121 -44q11 -4 17 -6q56 -20 91.5 -34.5t82 -41.5t73.5 -56t46.5 -73.5t19.5 -97.5q0 -152 -116.5 -240t-305.5 -88zM539 -246q-22 -198 -111 -450h-127q3 13 24.5 104.5
t37 176.5t22.5 165l6 76h156z" />
    <glyph glyph-name="uni021A" unicode="&#x21a;" horiz-adv-x="1132" 
d="M1071 1210h-393v-1216h-223v1216h-394v189h1010v-189zM649 -268q-22 -195 -110 -451h-127q3 16 24 106.5t37 176.5t23 166l6 75h155z" />
    <glyph glyph-name="uni021B" unicode="&#x21b;" horiz-adv-x="610" 
d="M362 854v-604q0 -119 113 -119q75 0 98 10v-151q-80 -17 -178 -17q-129 0 -184 64.5t-55 193.5v623h-138l31 156h107v254l206 53v-307h222l-31 -156h-191zM483 -217q-19 -194 -108 -451h-127q2 11 23.5 105t36.5 178.5t22 165.5l8 76h156z" />
    <glyph glyph-name="circumflex" unicode="&#x2c6;" horiz-adv-x="583" 
d="M6 1741l293 264l285 -276l-4 -119l-283 266l-297 -254z" />
    <glyph glyph-name="caron" unicode="&#x2c7;" horiz-adv-x="583" 
d="M6 1890l-6 119l297 -256l283 268l4 -118l-285 -277z" />
    <glyph glyph-name="breve" unicode="&#x2d8;" horiz-adv-x="493" 
d="M246 1599q-139 0 -246 76v90q48 -31 114 -50.5t132 -20.5q144 -3 248 61v-92q-110 -67 -248 -64z" />
    <glyph glyph-name="dotaccent" unicode="&#x2d9;" horiz-adv-x="167" 
d="M80 1579q-37 0 -64.5 27.5t-27.5 62.5q0 38 27.5 65t64.5 27t63.5 -27t26.5 -65q0 -36 -27 -63t-63 -27z" />
    <glyph glyph-name="ring" unicode="&#x2da;" horiz-adv-x="364" 
d="M182 1561q-60 0 -102.5 43t-42.5 104q0 60 42.5 102.5t102.5 42.5t103 -42.5t43 -102.5q0 -61 -43 -104t-103 -43zM182 1640q29 0 48.5 21t19.5 53q0 29 -19.5 48.5t-48.5 19.5t-48 -19.5t-19 -48.5q0 -32 19 -53t48 -21z" />
    <glyph glyph-name="ogonek" unicode="&#x2db;" horiz-adv-x="372" 
d="M225 -121l-16 121h117l47 -233h-205q-23 0 -38 -15.5t-15 -38.5q0 -25 15 -40t38 -15h205v-113h-205q-74 0 -121 46.5t-47 121.5q0 57 48.5 103t123.5 59z" />
    <glyph glyph-name="tilde" unicode="&#x2dc;" horiz-adv-x="524" 
d="M25 1638l-25 101l137 104q11 -29 65 -55.5t109 -26.5q38 0 98.5 22t90.5 46l24 -98q-32 -29 -100 -53.5t-113 -24.5q-100 0 -182 67z" />
    <glyph glyph-name="hungarumlaut" unicode="&#x2dd;" horiz-adv-x="612" 
d="M240 2009q-10 -83 -29 -165.5t-45 -174.5t-33 -119h-133q3 15 17 77.5t21.5 97t18.5 90.5t18.5 103t12.5 89l8 68h150zM604 2011q-6 -63 -23 -138t-44.5 -175t-38.5 -148h-131q4 18 27.5 129.5t37.5 188.5t21 141l8 66h151z" />
    <glyph glyph-name="gravecomb" unicode="&#x300;" 
d="M-233 2021h151l12 -84q3 -54 14 -111t32 -137t26 -104h-135q-7 28 -29 97t-37 129t-20 116z" />
    <glyph glyph-name="acutecomb" unicode="&#x301;" 
d="M2 2050l-16 -94q-5 -55 -20 -115t-36.5 -128.5t-29.5 -98.5h-133q7 32 25.5 107t29.5 134t14 111l12 84h154z" />
    <glyph glyph-name="uni0302" unicode="&#x302;" 
d="M-578 1741l293 264l287 -276l-6 -119l-283 266l-297 -254z" />
    <glyph glyph-name="tildecomb" unicode="&#x303;" 
d="M-500 1638l-24 101l137 104q11 -29 65 -55.5t109 -26.5q38 0 98 22t90 46l25 -98q-32 -29 -100 -53.5t-113 -24.5q-100 0 -182 67z" />
    <glyph glyph-name="uni0304" unicode="&#x304;" 
d="M-995 1196h997v-162h-997v162z" />
    <glyph glyph-name="uni0306" unicode="&#x306;" 
d="M-248 1599q-139 0 -246 76v90q48 -31 114 -50.5t132 -20.5q144 -3 248 61v-92q-110 -67 -248 -64z" />
    <glyph glyph-name="uni0307" unicode="&#x307;" 
d="M-88 1579q-37 0 -64.5 27.5t-27.5 62.5q0 38 27.5 65t64.5 27t63.5 -27t26.5 -65q0 -36 -27 -63t-63 -27z" />
    <glyph glyph-name="uni0308" unicode="&#x308;" 
d="M-362 1581q-38 0 -65.5 27.5t-27.5 64.5t27.5 64.5t65.5 27.5q37 0 63.5 -27.5t26.5 -64.5t-26.5 -64.5t-63.5 -27.5zM-92 1581q-37 0 -63.5 27.5t-26.5 64.5t26.5 64.5t63.5 27.5q38 0 66 -27.5t28 -64.5t-28 -64.5t-66 -27.5z" />
    <glyph glyph-name="uni030A" unicode="&#x30a;" 
d="M-182 1561q-60 0 -103 43t-43 104q0 60 43 102.5t103 42.5t102.5 -42.5t42.5 -102.5q0 -61 -42.5 -104t-102.5 -43zM-182 1640q29 0 48 21t19 53q0 29 -19 48.5t-48 19.5t-48.5 -19.5t-19.5 -48.5q0 -32 19.5 -53t48.5 -21z" />
    <glyph glyph-name="uni030B" unicode="&#x30b;" 
d="M-373 2009q-10 -83 -28.5 -165t-45 -175.5t-32.5 -118.5h-133q3 15 17 77.5t21.5 97t18.5 90.5t18.5 103t12.5 89l8 68h149zM-8 2011q-6 -63 -23.5 -138.5t-44.5 -174t-39 -148.5h-131q4 18 27.5 129.5t37.5 188.5t21 141l8 66h154z" />
    <glyph glyph-name="uni030C" unicode="&#x30c;" 
d="M-578 1890l-6 119l297 -256l283 268l6 -118l-287 -277z" />
    <glyph glyph-name="uni0312" unicode="&#x312;" 
d="M-94 1755q43 -5 70.5 -38.5t23.5 -76.5q-3 -45 -39 -73t-82 -23q-62 6 -108 48.5t-58 105.5q-11 104 -14 209l-8 155l149 -14l8 -145q0 -47 7 -154q30 11 51 6z" />
    <glyph glyph-name="uni0326" unicode="&#x326;" 
d="M-92 106q-19 -190 -109 -452h-127q2 12 23.5 105.5t36.5 177.5t22 165l8 76h156z" />
    <glyph glyph-name="uni0327" unicode="&#x327;" 
d="M-332 -248l160 -2q67 -11 119.5 -58t52.5 -106q0 -69 -48.5 -118.5t-117.5 -49.5h-313v115h313q22 0 37.5 15t15.5 38q0 22 -15.5 38t-37.5 16h-313q1 2 10 30t11 33.5t9 30.5t9.5 39t8 39.5t9 52.5t6.5 59l8 76h117l-8 -74q-17 -118 -33 -174z" />
    <glyph glyph-name="uni0328" unicode="&#x328;" 
d="M-147 -121l-17 121h117l47 -233h-205q-23 0 -38 -15.5t-15 -38.5q0 -25 15 -40t38 -15h205v-113h-205q-74 0 -121 46.5t-47 121.5q0 57 48.5 103t123.5 59z" />
    <glyph glyph-name="uni060C" unicode="&#x60c;" horiz-adv-x="557" 
d="M178 94q20 198 109 451h127q-1 -5 -23 -102.5t-37 -180.5t-22 -164l-8 -75h-156z" />
    <glyph glyph-name="uni0615" unicode="&#x615;" 
d="M637 1737q145 0 145 -172v-121h-438v90h72v328h88v-193q65 68 133 68zM694 1534v31q0 84 -65 84q-61 0 -125 -76v-39h190z" />
    <glyph glyph-name="uni061B" unicode="&#x61b;" horiz-adv-x="526" 
d="M213 678q22 198 111 450h127q-3 -13 -24.5 -104.5t-37 -176.5t-22.5 -165l-7 -76h-155zM274 -8q-41 0 -69.5 29.5t-28.5 70.5q-2 40 27.5 69t70.5 29q40 0 70.5 -29.5t30.5 -68.5q-1 -41 -31 -70.5t-70 -29.5z" />
    <glyph glyph-name="uni061C" unicode="&#x61c;" horiz-adv-x="1228" 
 />
    <glyph glyph-name="uni061F" unicode="&#x61f;" horiz-adv-x="1060" 
d="M475 406v65q0 78 -34.5 128.5t-121.5 109.5q-108 73 -158 144.5t-50 170.5q0 162 118 258t301 96q180 0 298 -103.5t118 -283.5h-184q0 98 -67 164t-165 66q-92 0 -153.5 -58.5t-61.5 -148.5q0 -63 38.5 -112t127.5 -111q93 -62 130.5 -130t37.5 -190v-65h-174zM559 -27
q-46 0 -80.5 34t-34.5 81q-1 47 34 81t81 34q48 0 82 -34t33 -81q0 -47 -34 -81t-81 -34z" />
    <glyph glyph-name="uni0621" unicode="&#x621;" horiz-adv-x="1318" 
d="M633 203h522v-199h-991v199h221q-143 130 -143 352q0 201 117 319.5t300 118.5q195 0 301 -110.5t134 -345.5l-185 -11q-23 130 -86 198.5t-159 68.5q-102 0 -168 -73t-66 -192q0 -91 50 -180t153 -145z" />
    <glyph glyph-name="uni0622" unicode="&#x622;" horiz-adv-x="503" 
d="M-35 1640l-45 70l172 145q24 -53 82 -78.5t125 -25.5q53 0 119.5 22t95.5 46l12 -97q-37 -31 -104.5 -52t-122.5 -21q-129 0 -221 86zM346 0h-199v1425h199v-1425z" />
    <glyph glyph-name="uni0623" unicode="&#x623;" horiz-adv-x="503" 
d="M248 1692h203v-113h-412v113h76q-54 54 -54 133q0 85 48.5 134.5t134.5 49.5q85 0 136 -51t60 -150h-102q-15 88 -92 88q-76 0 -76 -81q0 -82 78 -123zM147 0v1425h199v-1425h-199z" />
    <glyph glyph-name="uni0624" unicode="&#x624;" horiz-adv-x="1103" 
d="M760 1386v-112h-414v112h78q-53 50 -53 134q0 85 48 134.5t134 49.5q84 0 136 -51t61 -150h-105q-15 88 -90 88q-78 0 -78 -82t78 -123h205zM557 1040q184 0 307 -124t123 -310v-698q0 -222 -189 -318t-538 -26v184q150 -21 251.5 -19.5t163.5 30.5t89 76t27 118v49h-271
q-173 2 -295.5 129t-122.5 305v170q0 186 123.5 310t309.5 124h22zM791 606q0 104 -65.5 170t-168.5 66h-22q-103 0 -168.5 -66t-65.5 -170v-170q0 -96 65.5 -165.5t155.5 -69.5h269v405z" />
    <glyph glyph-name="uni0625" unicode="&#x625;" horiz-adv-x="503" 
d="M346 1425v-1425h-199v1425h199zM252 -444h205v-113h-414v113h78q-53 50 -53 133q0 85 48 134.5t134 49.5q84 0 135.5 -51t60.5 -150h-104q-15 88 -90 88q-78 0 -78 -82q0 -81 78 -122z" />
    <glyph glyph-name="uni0626" unicode="&#x626;" horiz-adv-x="1984" 
d="M424 758v-113h-412v113h76q-53 53 -53 133q0 84 48.5 134t133.5 50t136.5 -51t60.5 -150h-103q-15 89 -92 89q-76 0 -76 -84q0 -77 74 -121h207zM1507 1034h348v-1032h-198v836h-150q-98 0 -160.5 -63.5t-62.5 -162.5v-567q0 -166 -76.5 -300t-211 -210t-300.5 -76h-10
q-166 0 -300 76t-210 210t-76 300v412h197v-412q0 -172 108.5 -280.5t280.5 -108.5h10q172 0 281.5 108.5t109.5 280.5v567q0 181 120 301.5t300 120.5z" />
    <glyph glyph-name="uni0627" unicode="&#x627;" horiz-adv-x="503" 
d="M346 0h-199v1425h199v-1425z" />
    <glyph glyph-name="uni0628" unicode="&#x628;" horiz-adv-x="1734" 
d="M82 754h197v-326q0 -101 65 -165t166 -64h743q83 0 122.5 47t39.5 123v651h197v-731q0 -123 -82 -206t-205 -83h-815q-184 0 -306 122t-122 306v326zM866 -475q-51 0 -87 36t-36 87q0 50 36 85.5t87 35.5q50 0 85.5 -35.5t35.5 -85.5q0 -51 -35.5 -87t-85.5 -36z" />
    <glyph glyph-name="uni0629" unicode="&#x629;" horiz-adv-x="1110" 
d="M403 1196q-51 0 -86.5 36t-35.5 87q0 50 35.5 85.5t86.5 35.5q49 0 85 -36t36 -85q0 -51 -35.5 -87t-85.5 -36zM770 1196q-50 0 -86.5 36t-36.5 87q0 49 36.5 85t86.5 36q51 0 87 -35.5t36 -85.5q0 -51 -36 -87t-87 -36zM113 621q0 175 123.5 298t298.5 123h32
q175 0 298.5 -123t123.5 -298v-220q0 -165 -117 -282t-282 -117h-55q-178 0 -300 122.5t-122 299.5v197zM309 621v-197q0 -92 66 -157.5t160 -65.5h63q80 0 136.5 56.5t56.5 137.5v226q0 95 -64.5 159t-159.5 64h-32q-96 0 -161 -64t-65 -159z" />
    <glyph glyph-name="uni062A" unicode="&#x62a;" horiz-adv-x="1734" 
d="M647 1022q-51 0 -87 36t-36 87q0 50 36 86.5t87 36.5q49 0 85 -36.5t36 -86.5q0 -51 -35.5 -87t-85.5 -36zM1014 1022q-50 0 -86.5 36t-36.5 87q0 49 36.5 86t86.5 37q51 0 87 -36.5t36 -86.5q0 -51 -36 -87t-87 -36zM82 754h197v-326q0 -101 65 -165t166 -64h743
q83 0 122.5 47t39.5 123v651h197v-731q0 -123 -82 -206t-205 -83h-815q-184 0 -306 122t-122 306v326z" />
    <glyph glyph-name="uni062B" unicode="&#x62b;" horiz-adv-x="1734" 
d="M831 1315q-50 0 -86 36t-36 87q0 49 36 85t86 36q51 0 87 -35.5t36 -85.5q0 -51 -36 -87t-87 -36zM651 1036q-51 0 -87 36t-36 87q0 50 36 85.5t87 35.5q49 0 85 -36t36 -85q0 -51 -35.5 -87t-85.5 -36zM1010 1036q-51 0 -87 36t-36 87q0 50 36 85.5t87 35.5
q49 0 84.5 -35.5t35.5 -85.5q0 -51 -35 -87t-85 -36zM82 754h197v-326q0 -101 65 -165t166 -64h743q83 0 122.5 47t39.5 123v651h197v-731q0 -123 -82 -206t-205 -83h-815q-184 0 -306 122t-122 306v326z" />
    <glyph glyph-name="uni062C" unicode="&#x62c;" horiz-adv-x="1615" 
d="M1483 199v-199h-881q-135 0 -219 -74t-84 -205q0 -80 41.5 -145t114.5 -104t164 -55.5t198.5 -1.5t210.5 61v-185q-110 -52 -224.5 -70.5t-216 -6t-191.5 54t-155 105.5t-103 153.5t-38 193.5q0 214 141.5 346t358.5 132h621q-15 5 -29 16t-29 31.5t-25 36.5t-26 48.5
t-23.5 49t-25 57t-23.5 54.5q-116 245 -286.5 322t-378.5 -13v180q132 53 260 47t241 -63t212.5 -174t173.5 -285q27 -64 41.5 -98t33 -72.5t26.5 -54.5t22 -35t20.5 -24t22 -12t25 -8t30.5 -3zM584 -272q0 49 36.5 84.5t86.5 35.5q51 0 86.5 -35t35.5 -85q0 -51 -35.5 -87
t-86.5 -36q-50 0 -86.5 36t-36.5 87z" />
    <glyph glyph-name="uni062D" unicode="&#x62d;" horiz-adv-x="1615" 
d="M602 0q-135 0 -219 -74t-84 -205q0 -80 41.5 -145t114.5 -104t164 -55.5t198.5 -1.5t210.5 61v-185q-110 -52 -224.5 -70.5t-216 -6t-191.5 54t-155 105.5t-103 153.5t-38 193.5q0 214 141.5 346t358.5 132h621q-15 5 -29 16t-29 31.5t-25 36.5t-26 48.5t-23.5 49t-25 57
t-23.5 54.5q-116 245 -286.5 322t-378.5 -13v180q132 53 260 47t241 -63t212.5 -174t173.5 -285q27 -64 41.5 -98t33 -72.5t26.5 -54.5t22 -35t20.5 -24t22 -12t25 -8t30.5 -3v-199h-881z" />
    <glyph glyph-name="uni062E" unicode="&#x62e;" horiz-adv-x="1615" 
d="M664 1237q-50 0 -86.5 36t-36.5 87q0 49 36.5 85t86.5 36q51 0 86.5 -35.5t35.5 -85.5q0 -51 -35.5 -87t-86.5 -36zM602 0q-135 0 -219 -74t-84 -205q0 -80 41.5 -145t114.5 -104t164 -55.5t198.5 -1.5t210.5 61v-185q-110 -52 -224.5 -70.5t-216 -6t-191.5 54
t-155 105.5t-103 153.5t-38 193.5q0 214 141.5 346t358.5 132h621q-15 5 -29 16t-29 31.5t-25 36.5t-26 48.5t-23.5 49t-25 57t-23.5 54.5q-116 245 -286.5 322t-378.5 -13v180q132 53 260 47t241 -63t212.5 -174t173.5 -285q27 -64 41.5 -98t33 -72.5t26.5 -54.5t22 -35
t20.5 -24t22 -12t25 -8t30.5 -3v-199h-881z" />
    <glyph glyph-name="uni062F" unicode="&#x62f;" horiz-adv-x="1052" 
d="M98 0v199h400q95 0 162 67t67 162v162q0 103 -72.5 176.5t-175.5 73.5h-203v196h203q185 0 316 -131t131 -315v-197q0 -163 -115.5 -278t-278.5 -115h-434z" />
    <glyph glyph-name="uni0630" unicode="&#x630;" horiz-adv-x="1052" 
d="M492 1251q-51 0 -87 36t-36 87q0 50 36 85.5t87 35.5q49 0 84.5 -35.5t35.5 -85.5q0 -51 -35 -87t-85 -36zM98 0v199h400q95 0 162 67t67 162v162q0 103 -72.5 176.5t-175.5 73.5h-203v196h203q185 0 316 -131t131 -315v-197q0 -163 -115.5 -278t-278.5 -115h-434z" />
    <glyph glyph-name="uni0631" unicode="&#x631;" horiz-adv-x="624" 
d="M-47 -463v199h102q101 0 165.5 64t64.5 165v1018h198v-1018q0 -183 -122.5 -305.5t-305.5 -122.5h-102z" />
    <glyph glyph-name="uni0632" unicode="&#x632;" horiz-adv-x="624" 
d="M379 1171q-51 0 -87 36t-36 87q0 50 36 85.5t87 35.5q49 0 85 -35.5t36 -85.5q0 -51 -35.5 -87t-85.5 -36zM-47 -463v199h102q101 0 165.5 64t64.5 165v1018h198v-1018q0 -183 -122.5 -305.5t-305.5 -122.5h-102z" />
    <glyph glyph-name="uni0633" unicode="&#x633;" horiz-adv-x="2504" 
d="M2175 991h199v-624q0 -152 -107.5 -259.5t-259.5 -107.5q-173 0 -283 102q-99 -102 -243 -102h-199q-17 -232 -183.5 -386.5t-400.5 -154.5h-12q-122 0 -230.5 45.5t-186.5 123.5t-123.5 187.5t-45.5 231.5v412h197v-412q0 -172 108.5 -280.5t280.5 -108.5h10
q172 0 281.5 108.5t109.5 280.5v772h197v-620h191q66 0 108.5 42t42.5 107v471h197v-477q0 -67 48 -105t136 -38q69 0 118.5 49.5t49.5 118.5v624z" />
    <glyph glyph-name="uni0634" unicode="&#x634;" horiz-adv-x="2504" 
d="M1716 1364q-51 0 -87 36t-36 87q0 50 36 86.5t87 36.5q49 0 85 -36.5t36 -86.5q0 -51 -35.5 -87t-85.5 -36zM1534 1085q-50 0 -86.5 36t-36.5 87q0 50 36.5 86.5t86.5 36.5q51 0 87 -36.5t36 -86.5q0 -51 -36 -87t-87 -36zM1769 1208q0 50 36.5 86.5t86.5 36.5
q51 0 87 -36.5t36 -86.5q0 -51 -36 -87t-87 -36q-50 0 -86.5 36t-36.5 87zM2175 991h199v-624q0 -152 -107.5 -259.5t-259.5 -107.5q-173 0 -283 102q-99 -102 -243 -102h-199q-17 -232 -183.5 -386.5t-400.5 -154.5h-12q-122 0 -230.5 45.5t-186.5 123.5t-123.5 187.5
t-45.5 231.5v412h197v-412q0 -172 108.5 -280.5t280.5 -108.5h10q172 0 281.5 108.5t109.5 280.5v772h197v-620h191q66 0 108.5 42t42.5 107v471h197v-477q0 -67 48 -105t136 -38q69 0 118.5 49.5t49.5 118.5v624z" />
    <glyph glyph-name="uni0635" unicode="&#x635;" horiz-adv-x="2484" 
d="M1851 1020q246 0 375 -144.5t129 -408.5q0 -127 -62.5 -234.5t-170 -170t-234.5 -62.5h-610q-13 -157 -92 -281t-206.5 -192t-281.5 -68h-12q-122 0 -230.5 45.5t-186.5 123.5t-123.5 186.5t-45.5 230.5v412h197v-412q0 -172 108.5 -279.5t280.5 -107.5h10
q166 0 278.5 111t112.5 278v868h197v-213q299 318 567 318zM1884 199q116 0 197.5 81.5t81.5 196.5q0 173 -88.5 260.5t-243.5 87.5q-267 0 -547 -317v-311z" />
    <glyph glyph-name="uni0636" unicode="&#x636;" horiz-adv-x="2484" 
d="M1837 1190q-51 0 -87 36t-36 87q0 50 36 86.5t87 36.5q49 0 85 -36.5t36 -86.5q0 -51 -35.5 -87t-85.5 -36zM1851 1020q246 0 375 -144.5t129 -408.5q0 -127 -62.5 -234.5t-170 -170t-234.5 -62.5h-610q-13 -157 -92 -281t-206.5 -192t-281.5 -68h-12q-122 0 -230.5 45.5
t-186.5 123.5t-123.5 186.5t-45.5 230.5v412h197v-412q0 -172 108.5 -279.5t280.5 -107.5h10q166 0 278.5 111t112.5 278v868h197v-213q299 318 567 318zM1884 199q116 0 197.5 81.5t81.5 196.5q0 173 -88.5 260.5t-243.5 87.5q-267 0 -547 -317v-311z" />
    <glyph glyph-name="uni0637" unicode="&#x637;" horiz-adv-x="1849" 
d="M1141 1018q249 0 376.5 -139t127.5 -404q0 -129 -63.5 -238.5t-172.5 -173t-238 -63.5h-1069v215h236v1210h213v-747q313 340 590 340zM1161 199q123 0 207 82t84 208q0 165 -88.5 249.5t-241.5 84.5q-279 0 -571 -344v-280h610z" />
    <glyph glyph-name="uni0638" unicode="&#x638;" horiz-adv-x="1849" 
d="M1151 1192q-51 0 -87 36t-36 87q0 50 36 85.5t87 35.5q49 0 85 -36t36 -85q0 -51 -35.5 -87t-85.5 -36zM1141 1018q249 0 376.5 -139t127.5 -404q0 -129 -63.5 -238.5t-172.5 -173t-238 -63.5h-1069v215h236v1210h213v-747q313 340 590 340zM1161 199q123 0 207 82
t84 208q0 165 -88.5 249.5t-241.5 84.5q-279 0 -571 -344v-280h610z" />
    <glyph glyph-name="uni0639" unicode="&#x639;" horiz-adv-x="1214" 
d="M602 0q-136 0 -219.5 -74t-83.5 -205q0 -99 64.5 -173.5t166.5 -109.5t235.5 -27t262.5 65v-183q-132 -62 -268.5 -78t-253 15t-208.5 95.5t-145 168t-53 227.5q0 152 76 266t205 169q-176 121 -176 372q0 124 38.5 223t104 161.5t152 100.5t183 46t196.5 -8t192 -56
v-182q-76 33 -153.5 48t-149 12.5t-134.5 -26.5t-109.5 -65t-73.5 -107.5t-27 -150.5q0 -93 25.5 -158t73.5 -100t106 -50t133 -15h319v-201h-479z" />
    <glyph glyph-name="uni063A" unicode="&#x63a;" horiz-adv-x="1214" 
d="M666 1268q-50 0 -86.5 36t-36.5 87q0 49 36.5 84.5t86.5 35.5q51 0 86.5 -35t35.5 -85q0 -51 -35.5 -87t-86.5 -36zM602 0q-136 0 -219.5 -74t-83.5 -205q0 -99 64.5 -173.5t166.5 -109.5t235.5 -27t262.5 65v-183q-132 -62 -268.5 -78t-253 15t-208.5 95.5t-145 168
t-53 227.5q0 152 76 266t205 169q-176 121 -176 372q0 124 34 223t92.5 161.5t135.5 102t165 50t180 -1t181 -45.5v-182q-110 44 -211.5 48t-181.5 -30.5t-128 -119t-48 -210.5q0 -93 25.5 -158t73.5 -100t106 -50t133 -15h319v-201h-479z" />
    <glyph glyph-name="uni0640" unicode="&#x640;" horiz-adv-x="358" 
d="M-20 199h399v-199h-399v199z" />
    <glyph glyph-name="uni0641" unicode="&#x641;" horiz-adv-x="1875" 
d="M1317 1219q-47 0 -83.5 34.5t-37.5 81.5q-3 51 33.5 89t87.5 38q51 1 87 -35t36 -86q0 -51 -36 -87t-87 -35zM1323 1038q180 0 306 -126.5t126 -305.5v-153q0 -123 -60 -227.5t-164 -165t-228 -60.5h-791q-180 0 -304 124t-124 304v264h199v-264q0 -95 67 -162t162 -67
h461q-47 42 -75 104t-28 131v172q0 179 126.5 305.5t306.5 126.5h20zM1559 604q0 101 -67.5 168.5t-168.5 67.5h-20q-101 0 -168.5 -67.5t-67.5 -168.5v-170q0 -96 66 -165.5t157 -69.5h37q97 5 164.5 75t67.5 168v162z" />
    <glyph glyph-name="uni0642" unicode="&#x642;" horiz-adv-x="1660" 
d="M922 1198q-51 0 -87 36t-36 87q0 50 36 85.5t87 35.5q49 0 84.5 -35.5t35.5 -85.5q0 -51 -35 -87t-85 -36zM1288 1198q-50 0 -86.5 36t-36.5 87q0 49 36.5 85t86.5 36q51 0 87 -35.5t36 -85.5q0 -51 -36 -87t-87 -36zM1108 1079q180 0 301 -121t121 -301v-505
q0 -151 -54 -284t-148 -227t-227 -148t-284 -54h-4q-151 0 -283.5 54t-226.5 148t-148.5 227t-54.5 284v229h201v-229q0 -224 144 -368t368 -144h4q196 0 333 111.5t169 293.5h-244q-180 0 -301 120.5t-121 301.5v190q0 180 121 301t301 121h33zM1329 350h2v307
q0 98 -62.5 161t-160.5 63h-33q-98 0 -160.5 -63t-62.5 -161v-190q0 -98 62.5 -161.5t160.5 -63.5h254v108z" />
    <glyph glyph-name="uni0643" unicode="&#x643;" horiz-adv-x="1751" 
d="M1415 1425h197v-1136q0 -123 -82 -206t-205 -83h-815q-184 0 -306 122t-122 306v324h197v-324q0 -101 65 -165t166 -64h743q83 0 122.5 47t39.5 123v1056zM1030 850v-105h-389v105h74q-51 51 -51 127q0 80 45.5 127t126.5 47q79 0 128 -47t58 -141h-96q-15 84 -88 84
q-74 0 -74 -80q0 -79 72 -117h194z" />
    <glyph glyph-name="uni0644" unicode="&#x644;" horiz-adv-x="1421" 
d="M100 477h197v-411q0 -172 108.5 -281t280.5 -109h10q170 0 279.5 109t109.5 281v1359h199v-1359q0 -166 -76.5 -300t-211 -210t-300.5 -76h-10q-166 0 -300 76t-210 210t-76 300v411z" />
    <glyph glyph-name="uni0645" unicode="&#x645;" horiz-adv-x="1425" 
d="M840 -53q-115 0 -219 37t-172 110q-80 -4 -125 -53.5t-45 -126.5v-592h-203v592q0 145 85.5 248.5t221.5 126.5l2 307q0 192 127 319t319 127t319.5 -127t127.5 -319v-190q0 -113 -34 -202t-94.5 -144.5t-139 -84t-170.5 -28.5zM831 152q109 0 176.5 67t67.5 176v201
q0 108 -68 176t-176 68q-107 0 -175 -68.5t-68 -175.5v-354q43 -48 99 -69t144 -21z" />
    <glyph glyph-name="uni0646" unicode="&#x646;" horiz-adv-x="1421" 
d="M631 920q-51 0 -87 35.5t-36 86.5q0 50 36 86.5t87 36.5q49 0 85 -36.5t36 -86.5q0 -51 -35.5 -86.5t-85.5 -35.5zM100 432h197v-412q0 -172 108.5 -280.5t280.5 -108.5h10q171 0 280 109t109 280v959h199v-959q0 -166 -76.5 -300t-211 -209.5t-300.5 -75.5h-10
q-166 0 -300 75.5t-210 209.5t-76 300v412z" />
    <glyph glyph-name="uni0647" unicode="&#x647;" horiz-adv-x="1110" 
d="M113 621q0 175 123.5 298t298.5 123h32q175 0 298.5 -123t123.5 -298v-220q0 -165 -117 -282t-282 -117h-55q-178 0 -300 122.5t-122 299.5v197zM309 621v-197q0 -92 66 -157.5t160 -65.5h63q80 0 136.5 56.5t56.5 137.5v226q0 95 -64.5 159t-159.5 64h-32
q-96 0 -161 -64t-65 -159z" />
    <glyph glyph-name="uni0648" unicode="&#x648;" horiz-adv-x="1103" 
d="M557 1040q184 0 307 -124t123 -310v-698q0 -222 -189 -318t-538 -26v184q150 -21 251.5 -19.5t163.5 30.5t89 76t27 118v49h-271q-173 2 -295.5 129t-122.5 305v170q0 186 123.5 310t309.5 124h22zM791 606q0 104 -65.5 170t-168.5 66h-22q-103 0 -168.5 -66t-65.5 -170
v-170q0 -96 65.5 -165.5t155.5 -69.5h269v405z" />
    <glyph glyph-name="uni0649" unicode="&#x649;" horiz-adv-x="1984" 
d="M1507 1034h348v-1032h-198v836h-150q-98 0 -160.5 -63.5t-62.5 -162.5v-567q0 -166 -76.5 -300t-211 -210t-300.5 -76h-10q-166 0 -300 76t-210 210t-76 300v412h197v-412q0 -172 108.5 -280.5t280.5 -108.5h10q172 0 281.5 108.5t109.5 280.5v567q0 181 120 301.5
t300 120.5z" />
    <glyph glyph-name="uni064A" unicode="&#x64a;" horiz-adv-x="1984" 
d="M1507 1034h348v-1032h-198v836h-150q-98 0 -160.5 -63.5t-62.5 -162.5v-567q0 -166 -76.5 -300t-211 -210t-300.5 -76h-10q-166 0 -300 76t-210 210t-76 300v412h197v-412q0 -172 108.5 -280.5t280.5 -108.5h10q172 0 281.5 108.5t109.5 280.5v567q0 181 120 301.5
t300 120.5zM508 -649q49 0 85 -36.5t36 -86.5q0 -51 -35.5 -87t-85.5 -36q-51 0 -87 36t-36 87q0 50 36 86.5t87 36.5zM874 -649q49 0 85 -36.5t36 -86.5q0 -51 -35.5 -87t-85.5 -36q-51 0 -86.5 36t-35.5 87q0 50 35.5 86.5t86.5 36.5z" />
    <glyph glyph-name="uni064B" unicode="&#x64b;" 
d="M0 1837l379 139v-80l-379 -139v80zM0 1675l379 140v-80l-379 -140v80z" />
    <glyph glyph-name="uni064C" unicode="&#x64c;" 
d="M467 1645q0 -49 -30.5 -86t-76.5 -48l-274 -88v15h-2q2 19 1.5 37.5t-5 40t-15.5 32t-30.5 14t-50.5 -13.5v66q71 38 109 13.5t44 -101.5l90 28q-34 34 -34 91t40 97t97 40t97 -40t40 -97zM332 1577q28 0 45.5 19.5t17.5 50.5q0 27 -18 45t-45 18q-28 0 -46 -18t-18 -45
q0 -53 43 -66l11 2l4 -6h6z" />
    <glyph glyph-name="uni064D" unicode="&#x64d;" 
d="M0 -223l379 139v-80l-379 -139v80zM0 -395l379 139v-80l-379 -139v80z" />
    <glyph glyph-name="uni064E" unicode="&#x64e;" 
d="M51 1735l379 139v-80l-379 -139v80z" />
    <glyph glyph-name="uni064F" unicode="&#x64f;" 
d="M350 1812q0 -54 -34 -92.5t-85 -44.5l-262 -86v88l142 43q-33 41 -33 92q0 57 40 97.5t97 40.5q56 0 95.5 -40.5t39.5 -97.5zM217 1745q27 0 45.5 20t18.5 50q0 26 -19 44.5t-45 18.5q-28 0 -46.5 -18.5t-18.5 -44.5q0 -51 45 -68l10 4l4 -6h6z" />
    <glyph glyph-name="uni0650" unicode="&#x650;" 
d="M51 -602l348 119v-90l-348 -119v90z" />
    <glyph glyph-name="uni0651" unicode="&#x651;" 
d="M137 1419q-59 0 -98 39t-39 107v49l86 20v-69q0 -60 51 -60q49 0 49 70v94l86 23v-105q0 -23 15 -36t35 -13q61 0 61 72v112l86 25v-137q0 -74 -37 -118t-98 -44q-26 0 -51.5 12.5t-40.5 32.5q-13 -34 -42.5 -54t-62.5 -20z" />
    <glyph glyph-name="uni0652" unicode="&#x652;" 
d="M182 1649q-60 0 -102.5 43t-42.5 104q0 60 42.5 103t102.5 43t103 -43t43 -103q0 -61 -43 -104t-103 -43zM182 1729q30 0 49 19.5t19 51.5q0 29 -19.5 48.5t-48.5 19.5t-48 -19.5t-19 -48.5q0 -32 18.5 -51.5t48.5 -19.5z" />
    <glyph glyph-name="uni0653" unicode="&#x653;" 
d="M45 1935l-45 70l172 145q24 -53 81.5 -78.5t123.5 -25.5q53 0 119.5 22t95.5 46l12 -97q-35 -31 -103.5 -52t-123.5 -21q-126 0 -221 86z" />
    <glyph glyph-name="uni0654" unicode="&#x654;" 
d="M176 1561h207v-113h-414v113h78q-53 53 -53 133q0 84 48.5 134t133.5 50t136.5 -51t60.5 -150h-103q-15 88 -92 88q-76 0 -76 -84q0 -76 74 -120z" />
    <glyph glyph-name="uni0655" unicode="&#x655;" 
d="M268 -262h209v-113h-414v113h78q-53 53 -53 133q0 84 48.5 134t133.5 50q84 0 136 -50.5t61 -149.5h-105q-15 88 -90 88q-77 0 -77 -84q0 -77 73 -121z" />
    <glyph glyph-name="uni0656" unicode="&#x656;" 
 />
    <glyph glyph-name="uni0660" unicode="&#x660;" horiz-adv-x="817" 
d="M569 532l-151 -149l-150 149q7 7 43 44.5t65.5 67t39.5 36.5q119 -119 153 -148z" />
    <glyph glyph-name="uni0661" unicode="&#x661;" horiz-adv-x="538" 
d="M377 0h-199v1292h199v-1292z" />
    <glyph glyph-name="uni0662" unicode="&#x662;" horiz-adv-x="813" 
d="M772 1292v-196h-209q-101 0 -166 -64.5t-65 -165.5v-866h-197v866q0 183 122 304.5t306 121.5h209z" />
    <glyph glyph-name="uni0663" unicode="&#x663;" horiz-adv-x="1376" 
d="M1065 1292h160v-438q0 -98 -72.5 -175t-173.5 -77q-98 0 -150 25.5t-98 81.5q-36 -49 -94 -78t-127 -29h-115v-602h-198v1292h198v-522h121q63 0 103 41t40 104v377h152v-377q0 -74 30 -109.5t113 -35.5q47 0 79 37t32 80v405z" />
    <glyph glyph-name="uni0664" unicode="&#x664;" horiz-adv-x="1097" 
d="M264 379q0 -84 63 -135.5t164 -66t220 -4.5t239 42v-172q-133 -35 -254.5 -46t-227 5.5t-183 60.5t-122 124t-44.5 190q0 100 58 183.5t159 129.5q-131 86 -131 238q0 87 38 156.5t100 114.5t148.5 76t174 46t186.5 20v-184q-89 -3 -171 -19t-151 -44t-110 -73.5
t-41 -102.5q0 -94 77 -138.5t203 -44.5h267v-157h-367q-133 0 -214 -54t-81 -145z" />
    <glyph glyph-name="uni0665" unicode="&#x665;" horiz-adv-x="1181" 
d="M94 614q0 123 42.5 247.5t111 219t159 154t181.5 59.5q89 0 179 -60t157.5 -154.5t110 -219t42.5 -246.5q0 -146 -42 -264t-112.5 -192t-158 -113t-182.5 -39q-74 0 -144.5 23.5t-133 73.5t-109 120.5t-74 171t-27.5 219.5zM911 616q0 115 -50 233.5t-126 193.5t-147 75
q-73 0 -149.5 -75t-126.5 -193t-50 -234q0 -107 27.5 -192.5t73 -138t102 -80t117.5 -27.5q63 0 121 28.5t105 81.5t75 138t28 190z" />
    <glyph glyph-name="uni0666" unicode="&#x666;" horiz-adv-x="1034" 
d="M629 10v1127h-606v168h802v-1295h-196z" />
    <glyph glyph-name="uni0667" unicode="&#x667;" horiz-adv-x="1228" 
d="M506 -6l-395 1298h190l320 -1081h4l317 1081h182l-395 -1298h-223z" />
    <glyph glyph-name="uni0668" unicode="&#x668;" horiz-adv-x="1243" 
d="M506 1305h225l393 -1305h-182l-317 1085h-4l-320 -1085h-190z" />
    <glyph glyph-name="uni0669" unicode="&#x669;" horiz-adv-x="1089" 
d="M516 1331q184 0 300 -122.5t116 -309.5v-899h-199v410h-241q-177 0 -297.5 121t-120.5 315v72q0 112 53.5 206.5t151 150.5t217.5 56h20zM494 608h239v291q0 105 -60 174.5t-161 69.5h-16q-93 0 -159.5 -66t-66.5 -168v-73q0 -91 67 -159.5t157 -68.5z" />
    <glyph glyph-name="uni066A" unicode="&#x66a;" horiz-adv-x="1308" 
d="M203 0l694 1393h199l-695 -1393h-198zM276 1077l-159 158l157 156l158 -156zM983 86l-158 158l156 155l160 -155z" />
    <glyph glyph-name="uni066B" unicode="&#x66b;" horiz-adv-x="557" 
d="M375 106q-21 -192 -111 -452h-127q3 17 24 106.5t37 175.5t23 166l6 76h156z" />
    <glyph glyph-name="uni066C" unicode="&#x66c;" horiz-adv-x="557" 
d="M375 106q-21 -192 -111 -452h-127q3 17 24 106.5t37 175.5t23 166l6 76h156z" />
    <glyph glyph-name="uni066D" unicode="&#x66d;" horiz-adv-x="790" 
d="M674 969l-49 -88l-174 114l-7 -217h-96l-8 217l-174 -114l-49 88l166 102l-166 105l49 86l182 -113v217h96v-217l181 113l49 -86l-166 -105z" />
    <glyph glyph-name="uni066E" unicode="&#x66e;" horiz-adv-x="1734" 
d="M82 754h197v-326q0 -101 65 -165t166 -64h743q83 0 122.5 47t39.5 123v651h197v-731q0 -123 -82 -206t-205 -83h-815q-184 0 -306 122t-122 306v326z" />
    <glyph glyph-name="uni066F" unicode="&#x66f;" horiz-adv-x="1660" 
d="M1108 1079q180 0 301 -121t121 -301v-505q0 -151 -54 -284t-148 -227t-227 -148t-284 -54h-4q-151 0 -283.5 54t-226.5 148t-148.5 227t-54.5 284v229h201v-229q0 -224 144 -368t368 -144h4q196 0 333 111.5t169 293.5h-244q-180 0 -301 120.5t-121 301.5v190
q0 180 121 301t301 121h33zM1329 350h2v307q0 98 -62.5 161t-160.5 63h-33q-98 0 -160.5 -63t-62.5 -161v-190q0 -98 62.5 -161.5t160.5 -63.5h254v108z" />
    <glyph glyph-name="uni0670" unicode="&#x670;" 
 />
    <glyph glyph-name="uni0679" unicode="&#x679;" horiz-adv-x="1734" 
d="M606 1075v88h72v330h88v-195q68 68 135 68q143 0 143 -170v-121h-438zM891 1278q-58 0 -125 -76v-39h192v33q0 82 -67 82zM1415 1020h197v-731q0 -123 -82 -206t-205 -83h-815q-184 0 -306 122t-122 306v326h197v-326q0 -101 65 -165t166 -64h743q83 0 122.5 47t39.5 123
v651z" />
    <glyph glyph-name="uni067E" unicode="&#x67e;" horiz-adv-x="1734" 
d="M82 754h197v-326q0 -101 65 -165t166 -64h743q83 0 122.5 47t39.5 123v651h197v-731q0 -123 -82 -206t-205 -83h-815q-184 0 -306 122t-122 306v326zM762 -496q-50 0 -86.5 36t-36.5 87q0 49 36.5 85t86.5 36q51 0 87 -35.5t36 -85.5q0 -51 -36 -87t-87 -36zM1112 -496
q-50 0 -86.5 36t-36.5 87q0 49 36.5 85t86.5 36q51 0 87 -35.5t36 -85.5q0 -51 -36 -87t-87 -36zM930 -768q-50 0 -86.5 36t-36.5 87q0 49 36.5 85t86.5 36q51 0 87 -35.5t36 -85.5q0 -51 -36 -87t-87 -36z" />
    <glyph glyph-name="uni0686" unicode="&#x686;" horiz-adv-x="1509" 
d="M1155 506q30 -72 54.5 -124t45.5 -84.5t34.5 -51.5t31 -28.5t26 -12t27.5 -6.5v-199h-772q-135 0 -219 -74t-84 -205q0 -80 41.5 -145t114.5 -104t164 -55.5t198.5 -1.5t210.5 61v-185q-110 -52 -224.5 -70.5t-216 -6t-191.5 54t-155 105.5t-103 153.5t-38 193.5
q0 213 141 344.5t357 133.5h483q-11 9 -23 28.5t-27 49.5t-27.5 58t-32 72.5t-33.5 73.5q-121 246 -291 327t-379 -7v180q132 53 260 47t241 -63t212.5 -174t173.5 -285zM887 -221q0 -31 -22 -53.5t-54 -22.5t-55 22.5t-23 53.5q0 30 23 52t55 22t54 -22t22 -52zM1069 -221
q0 -31 -23 -53.5t-55 -22.5t-55 22.5t-23 53.5q0 30 23 52t55 22t55 -22t23 -52zM899 -444q-32 0 -55 24t-23 55t23 52.5t55 21.5t54 -21.5t22 -52.5t-22 -55t-54 -24z" />
    <glyph glyph-name="uni0688" unicode="&#x688;" horiz-adv-x="1052" 
d="M279 1305v88h71v329h88v-192q65 65 133 65q71 0 108.5 -43t37.5 -127v-120h-438zM563 1507q-62 0 -125 -75v-39h191v32q0 82 -66 82zM479 1036q185 0 316 -131t131 -315v-197q0 -163 -115.5 -278t-278.5 -115h-434v199h400q95 0 162 67t67 162v162q0 103 -72.5 176.5
t-175.5 73.5h-203v196h203z" />
    <glyph glyph-name="uni0691" unicode="&#x691;" horiz-adv-x="624" 
d="M459 1516q145 0 145 -170v-121h-438v88h72v329h88v-192q66 66 133 66zM516 1313v33q0 81 -65 81q-62 0 -125 -75v-39h190zM285 -35v1018h198v-1018q0 -183 -122.5 -305.5t-305.5 -122.5h-102v199h102q101 0 165.5 64t64.5 165z" />
    <glyph glyph-name="uni0698" unicode="&#x698;" horiz-adv-x="786" 
d="M412 1464q-50 0 -86.5 36t-36.5 87q0 49 36.5 85t86.5 36q51 0 87 -35.5t36 -85.5q0 -51 -36 -87t-87 -36zM231 1186q-51 0 -86.5 36t-35.5 87q0 50 35.5 85.5t86.5 35.5q49 0 85 -36t36 -85q0 -51 -35.5 -87t-85.5 -36zM590 1186q-51 0 -87 36t-36 87q0 50 36 85.5
t87 35.5q50 0 85.5 -36t35.5 -85q0 -51 -35.5 -87t-85.5 -36zM-8 -463v199h102q101 0 165.5 64t64.5 165v1018h198v-1018q0 -183 -122.5 -305.5t-305.5 -122.5h-102z" />
    <glyph glyph-name="uni06A1" unicode="&#x6a1;" horiz-adv-x="1875" 
d="M1323 1038q180 0 306 -126.5t126 -305.5v-153q0 -123 -60 -227.5t-164 -165t-228 -60.5h-791q-180 0 -304 124t-124 304v264h199v-264q0 -95 67 -162t162 -67h461q-47 42 -75 104t-28 131v172q0 179 126.5 305.5t306.5 126.5h20zM1559 604q0 101 -67.5 168.5t-168.5 67.5
h-20q-101 0 -168.5 -67.5t-67.5 -168.5v-170q0 -96 66 -165.5t157 -69.5h37q97 5 164.5 75t67.5 168v162z" />
    <glyph glyph-name="uni06A4" unicode="&#x6a4;" horiz-adv-x="1875" 
d="M1311 1511q-50 0 -86.5 36t-36.5 87q0 49 36.5 85t86.5 36q51 0 87 -35.5t36 -85.5q0 -51 -36 -87t-87 -36zM1130 1233q-51 0 -86.5 36t-35.5 87q0 50 35.5 85.5t86.5 35.5q50 0 85.5 -35.5t35.5 -85.5q0 -51 -35.5 -87t-85.5 -36zM1489 1233q-51 0 -87 36t-36 87
q0 50 36 85.5t87 35.5q49 0 85 -35.5t36 -85.5q0 -51 -35.5 -87t-85.5 -36zM1323 1038q180 0 306 -126.5t126 -305.5v-153q0 -123 -60 -227.5t-164 -165t-228 -60.5h-791q-180 0 -304 124t-124 304v264h199v-264q0 -95 67 -162t162 -67h461q-47 42 -75 104t-28 131v172
q0 179 126.5 305.5t306.5 126.5h20zM1559 604q0 101 -67.5 168.5t-168.5 67.5h-20q-101 0 -168.5 -67.5t-67.5 -168.5v-170q0 -96 66 -165.5t157 -69.5h37q97 5 164.5 75t67.5 168v162z" />
    <glyph glyph-name="uni06A9" unicode="&#x6a9;" horiz-adv-x="1830" 
d="M1239 831q216 0 331.5 -118t115.5 -312q0 -160 -112.5 -280.5t-270.5 -120.5h-795q-182 2 -303 123.5t-121 304.5v326h199v-326q0 -101 64 -165t165 -64h762q89 0 152 63t63 152q0 97 -71.5 158t-178.5 61h-604l-57 61l374 731l160 -67l-262 -527h389z" />
    <glyph glyph-name="uni06AF" unicode="&#x6af;" horiz-adv-x="1869" 
d="M797 1427h98l-375 -727h-98zM1276 831q216 0 331 -118t115 -312q0 -160 -112.5 -280.5t-270.5 -120.5h-831q-182 2 -303 123.5t-121 304.5v326h199v-326q0 -101 64 -165t165 -64h799q89 0 152 63t63 152q0 97 -71.5 158t-178.5 61h-604l-58 61l375 731l160 -67l-262 -527
h389z" />
    <glyph glyph-name="uni06BA" unicode="&#x6ba;" horiz-adv-x="1421" 
d="M100 432h197v-412q0 -172 108.5 -280.5t280.5 -108.5h10q171 0 280 109t109 280v959h199v-959q0 -166 -76.5 -300t-211 -209.5t-300.5 -75.5h-10q-166 0 -300 75.5t-210 209.5t-76 300v412z" />
    <glyph glyph-name="uni06BE" unicode="&#x6be;" horiz-adv-x="1638" 
d="M461 991q306 76 538.5 44t371 -149t142.5 -282v-182q0 -175 -123 -298.5t-298 -123.5h-1119l-86 33v133l86 33h318q-42 36 -67 91.5t-25 117.5v137q4 127 74.5 219.5t187.5 124.5v102zM1083 199q95 0 163.5 68t68.5 163v172q-3 89 -87 154t-225 89.5t-303 0.5
q125 -14 201 -97t76 -219v-331h106zM809 199v336q0 97 -57 153.5t-160 56.5q-109 0 -166 -55t-57 -155v-123q0 -85 61.5 -146t149.5 -67h229z" />
    <glyph glyph-name="uni06C1" unicode="&#x6c1;" horiz-adv-x="1110" 
d="M113 621q0 175 123.5 298t298.5 123h32q175 0 298.5 -123t123.5 -298v-220q0 -165 -117 -282t-282 -117h-55q-178 0 -300 122.5t-122 299.5v197zM309 621v-197q0 -92 66 -157.5t160 -65.5h63q80 0 136.5 56.5t56.5 137.5v226q0 95 -64.5 159t-159.5 64h-32
q-96 0 -161 -64t-65 -159z" />
    <glyph glyph-name="uni06C2" unicode="&#x6c2;" horiz-adv-x="1110" 
d="M766 1333v-112h-412v112h76q-53 53 -53 133q0 84 48.5 134.5t133.5 50.5t136.5 -51t60.5 -150h-103q-15 88 -92 88q-76 0 -76 -84q0 -77 74 -121h207zM567 1042q175 0 298.5 -123t123.5 -298v-220q0 -165 -117 -282t-282 -117h-55q-178 0 -300 122.5t-122 299.5v197
q0 175 123.5 298t298.5 123h32zM791 395v226q0 95 -64.5 159t-159.5 64h-32q-96 0 -161 -64t-65 -159v-197q0 -92 66 -157.5t160 -65.5h63q80 0 136.5 56.5t56.5 137.5z" />
    <glyph glyph-name="uni06C3" unicode="&#x6c3;" horiz-adv-x="1110" 
d="M399 1196q-50 0 -86.5 36t-36.5 87q0 49 36.5 85t86.5 36q51 0 87 -35.5t36 -85.5q0 -51 -36 -87t-87 -36zM768 1196q-51 0 -87 36t-36 87q0 50 36 85.5t87 35.5q50 0 85.5 -36t35.5 -85q0 -51 -35.5 -87t-85.5 -36zM113 621q0 175 123.5 298t298.5 123h32
q175 0 298.5 -123t123.5 -298v-220q0 -165 -117 -282t-282 -117h-55q-178 0 -300 122.5t-122 299.5v197zM309 621v-197q0 -92 66 -157.5t160 -65.5h63q80 0 136.5 56.5t56.5 137.5v226q0 95 -64.5 159t-159.5 64h-32q-96 0 -161 -64t-65 -159z" />
    <glyph glyph-name="uni06CC" unicode="&#x6cc;" horiz-adv-x="1984" 
d="M1507 1034h348v-1032h-198v836h-150q-98 0 -160.5 -63.5t-62.5 -162.5v-567q0 -166 -76.5 -300t-211 -210t-300.5 -76h-10q-166 0 -300 76t-210 210t-76 300v412h197v-412q0 -172 108.5 -280.5t280.5 -108.5h10q172 0 281.5 108.5t109.5 280.5v567q0 181 120 301.5
t300 120.5z" />
    <glyph glyph-name="uni06D2" unicode="&#x6d2;" horiz-adv-x="1433" 
d="M369 -303h1034v-201h-1231v740q0 180 120.5 300.5t301.5 120.5h346v-655h-199v457h-147q-98 0 -161.5 -62.5t-63.5 -160.5v-539z" />
    <glyph glyph-name="uni06D3" unicode="&#x6d3;" horiz-adv-x="1433" 
d="M854 971v-113h-414v113h78q-53 50 -53 133q0 85 48 134.5t134 49.5q84 0 136 -51t61 -150h-105q-15 89 -90 89q-78 0 -78 -82t78 -123h205zM369 -303h1034v-201h-1231v740q0 180 120.5 300.5t301.5 120.5h346v-655h-199v457h-147q-98 0 -161.5 -62.5t-63.5 -160.5v-539z
" />
    <glyph glyph-name="uni06D4" unicode="&#x6d4;" horiz-adv-x="550" 
d="M276 -8q-41 0 -69.5 29t-30.5 71q0 40 29.5 69t70.5 29q40 0 70 -29.5t29 -68.5q0 -41 -29.5 -70.5t-69.5 -29.5z" />
    <glyph glyph-name="uni06F0" unicode="&#x6f0;" horiz-adv-x="817" 
d="M569 532l-151 -149l-150 149q7 7 43 44.5t65.5 67t39.5 36.5q119 -119 153 -148z" />
    <glyph glyph-name="uni06F1" unicode="&#x6f1;" horiz-adv-x="538" 
d="M377 0h-199v1292h199v-1292z" />
    <glyph glyph-name="uni06F2" unicode="&#x6f2;" horiz-adv-x="813" 
d="M772 1292v-196h-209q-101 0 -166 -64.5t-65 -165.5v-866h-197v866q0 183 122 304.5t306 121.5h209z" />
    <glyph glyph-name="uni06F3" unicode="&#x6f3;" horiz-adv-x="1376" 
d="M1065 1292h160v-438q0 -98 -72.5 -175t-173.5 -77q-98 0 -150 25.5t-98 81.5q-36 -49 -94 -78t-127 -29h-115v-602h-198v1292h198v-522h121q63 0 103 41t40 104v377h152v-377q0 -74 30 -109.5t113 -35.5q47 0 79 37t32 80v405z" />
    <glyph glyph-name="uni06F4" unicode="&#x6f4;" horiz-adv-x="1390" 
d="M1239 737v-174h-844v-563h-198v1292h198v-555h133q-75 78 -75 193q0 87 38 156.5t99.5 114.5t148 76t174.5 46t187 20v-184q-90 -3 -172 -19t-150.5 -44t-109.5 -73.5t-41 -102.5q0 -95 76.5 -139t203.5 -44h332z" />
    <glyph glyph-name="uni06F5" unicode="&#x6f5;" horiz-adv-x="1241" 
d="M430 63q-188 0 -276 174q-80 158 -52 398q27 236 143 418q126 197 302 233q36 8 74 8q198 0 340 -188q124 -164 163 -404q38 -237 -28 -414t-216 -215q-37 -10 -79 -10q-125 0 -189 109q-58 -109 -182 -109zM430 217q43 0 71 37.5t38.5 92t9.5 124.5h123
q0 -103 32 -178.5t97 -75.5q122 0 166 141q43 139 -2 343t-148 330q-91 110 -196 110q-124 0 -230 -158q-99 -147 -134 -347q-36 -206 23 -324q48 -95 150 -95z" />
    <glyph glyph-name="uni06F6" unicode="&#x6f6;" horiz-adv-x="1212" 
d="M608 246q-122 -27 -197 -97t-75 -182q0 -121 102 -200l-92 -158q-91 61 -141.5 153t-50.5 205q0 140 75.5 240t206.5 149q-184 99 -184 346q0 136 46 237.5t122 157.5t174 81t203 16.5t207 -45.5v-154q-107 39 -204 42.5t-175 -28.5t-124 -111.5t-46 -199.5
q0 -146 65 -211t182 -73l385 63v-149z" />
    <glyph glyph-name="uni06F7" unicode="&#x6f7;" horiz-adv-x="1228" 
d="M506 -6l-395 1298h190l320 -1081h4l317 1081h182l-393 -1298h-225z" />
    <glyph glyph-name="uni06F8" unicode="&#x6f8;" horiz-adv-x="1243" 
d="M506 1305h225l393 -1303h-182l-317 1083h-4l-320 -1083h-190z" />
    <glyph glyph-name="uni06F9" unicode="&#x6f9;" horiz-adv-x="1089" 
d="M516 1331q184 0 300 -122.5t116 -309.5v-899h-199v410h-241q-177 0 -297.5 121t-120.5 315v72q0 112 53.5 206.5t151 150.5t217.5 56h20zM494 608h239v291q0 105 -60 174.5t-161 69.5h-16q-93 0 -159.5 -66t-66.5 -168v-73q0 -91 67 -159.5t157 -68.5z" />
    <glyph glyph-name="Wgrave" unicode="&#x1e80;" horiz-adv-x="1921" 
d="M895 1579q-5 17 -29 94t-38 134.5t-19 113.5l-14 94h149l12 -84q4 -53 15 -112t30 -134t25 -106h-131zM1653 1399h221l-373 -1415h-262l-278 1046l-279 -1046h-260l-375 1415h232l188 -715l96 -395l94 395l189 715h239l193 -715l96 -395l92 395z" />
    <glyph glyph-name="wgrave" unicode="&#x1e81;" horiz-adv-x="1660" 
d="M778 1405q-5 17 -29 94t-38 134.5t-19 113.5l-14 94h149l13 -84q4 -53 15 -111.5t29.5 -135t24.5 -105.5h-131zM1403 1030h221l-328 -1046h-254l-217 747l-217 -747h-243l-328 1046h223l238 -856l227 856h213l227 -856z" />
    <glyph glyph-name="Wacute" unicode="&#x1e82;" horiz-adv-x="1921" 
d="M1133 1907q-5 -56 -20 -116t-37 -129t-29 -97h-134q7 31 25.5 105.5t30 134t14.5 112.5l12 84h152zM1653 1399h221l-373 -1415h-262l-278 1046l-279 -1046h-260l-375 1415h232l188 -715l96 -395l94 395l189 715h239l193 -715l96 -395l92 395z" />
    <glyph glyph-name="wacute" unicode="&#x1e83;" horiz-adv-x="1660" 
d="M944 1733q-5 -56 -19 -113.5t-38 -134.5t-29 -94h-131q6 31 25 106t30 134t15 112l12 84h149zM1403 1030h221l-328 -1046h-254l-217 747l-217 -747h-243l-328 1046h223l238 -856l227 856h213l227 -856z" />
    <glyph glyph-name="Wdieresis" unicode="&#x1e84;" horiz-adv-x="1921" 
d="M809 1548q-38 0 -65 27.5t-27 64.5t27 65t65 28q36 0 63 -28t27 -65t-26.5 -64.5t-63.5 -27.5zM1079 1548q-37 0 -63.5 27.5t-26.5 64.5t27 65t63 28q38 0 65 -28t27 -65t-27 -64.5t-65 -27.5zM1653 1399h221l-373 -1415h-262l-278 1046l-279 -1046h-260l-375 1415h232
l188 -715l96 -395l94 395l189 715h239l193 -715l96 -395l92 395z" />
    <glyph glyph-name="wdieresis" unicode="&#x1e85;" horiz-adv-x="1660" 
d="M692 1374q-38 0 -65 27.5t-27 64.5t27 65t65 28q36 0 63 -28t27 -65t-26.5 -64.5t-63.5 -27.5zM963 1374q-37 0 -64 27.5t-27 64.5t27 65t64 28q38 0 65 -28t27 -65t-27 -64.5t-65 -27.5zM1403 1030h221l-328 -1046h-254l-217 747l-217 -747h-243l-328 1046h223l238 -856
l227 856h213l227 -856z" />
    <glyph glyph-name="uni1E9E" unicode="&#x1e9e;" horiz-adv-x="1267" 
d="M362 0h-229v1399h574q203 0 316.5 -96t113.5 -267q0 -116 -57.5 -198.5t-157.5 -118.5q127 -40 195.5 -128.5t68.5 -213.5q0 -173 -121.5 -275t-323.5 -108h-116l-2 188h110q109 2 168.5 56t59.5 161q0 100 -63 155.5t-175 63.5h-43v187h41q199 12 199 203
q0 99 -59.5 150.5t-168.5 51.5h-334z" />
    <glyph glyph-name="Ygrave" unicode="&#x1ef2;" horiz-adv-x="1253" 
d="M463 2015h149l13 -84q4 -53 15 -111.5t29.5 -135t24.5 -105.5h-131q-5 17 -29 94t-38 134.5t-19 113.5zM633 680l166 356l180 363h229l-469 -936v-469h-225v469l-469 936h238l182 -363z" />
    <glyph glyph-name="ygrave" unicode="&#x1ef3;" horiz-adv-x="1079" 
d="M502 1405q-5 17 -29 94t-38 134.5t-19 113.5l-15 94h150l12 -84q4 -53 15 -112t30 -134t25 -106h-131zM823 1030h221l-512 -1405h-196l113 314l-412 1091h231l275 -837l2 -5z" />
    <glyph glyph-name="quoteleft" unicode="&#x2018;" horiz-adv-x="393" 
d="M-2 1190q21 190 111 450h127q-3 -17 -24 -106.5t-37 -175.5t-23 -166l-7 -76h-157z" />
    <glyph glyph-name="quoteright" unicode="&#x2019;" horiz-adv-x="497" 
d="M375 1462q-22 -198 -111 -450h-127q3 13 24.5 104.5t37 176.5t22.5 165l6 76h156z" />
    <glyph glyph-name="quotesinglbase" unicode="&#x201a;" horiz-adv-x="557" 
d="M375 106q-21 -192 -111 -452h-127q3 17 24 106.5t37 175.5t23 166l6 76h156z" />
    <glyph glyph-name="quotedblleft" unicode="&#x201c;" horiz-adv-x="886" 
d="M133 1190q21 190 111 450h127q-3 -17 -24 -106.5t-37 -175.5t-23 -166l-6 -76h-156zM492 1190q22 194 110 450h127q-3 -17 -24 -106.5t-37 -175.5t-23 -166l-6 -76h-156z" />
    <glyph glyph-name="quotedblright" unicode="&#x201d;" horiz-adv-x="856" 
d="M375 1462q-22 -198 -111 -450h-127q3 13 24.5 104.5t37 176.5t22.5 165l6 76h156zM733 1462q-20 -200 -108 -450h-127q1 6 23 102.5t37 179.5t22 164l8 76h155z" />
    <glyph glyph-name="quotedblbase" unicode="&#x201e;" horiz-adv-x="872" 
d="M633 178l-10 -72q-19 -190 -109 -452h-244q3 17 24 106.5t37 175.5t23 166l6 76h273z" />
    <glyph glyph-name="dagger" unicode="&#x2020;" horiz-adv-x="610" 
d="M362 1327v-651h-206v651h-138l31 156h107v254l206 53v-307h222l-31 -156h-191z" />
    <glyph glyph-name="daggerdbl" unicode="&#x2021;" horiz-adv-x="610" 
d="M362 1327v-176h216v-160h-216v-373h-206v373h-138v160h138v176h-138l31 156h107v254l206 53v-307h222l-31 -156h-191z" />
    <glyph glyph-name="bullet" unicode="&#x2022;" horiz-adv-x="694" 
d="M348 -96q-77 0 -130.5 54.5t-55.5 133.5q-1 76 53.5 130t132.5 54q76 0 132 -54t55 -130q-1 -78 -56.5 -133t-130.5 -55z" />
    <glyph glyph-name="perthousand" unicode="&#x2030;" horiz-adv-x="2965" 
d="M528 537q-171 0 -261.5 126.5t-90.5 344.5q0 215 90.5 341t261.5 126t262 -126t91 -341q0 -217 -91 -344t-262 -127zM1124 1352h181l-404 -1579h-178zM528 674q100 0 147.5 92.5t47.5 241.5q0 150 -47.5 239.5t-147.5 89.5q-101 0 -147.5 -89t-46.5 -240
q0 -150 46.5 -242t147.5 -92zM1585 -229q-171 0 -261.5 127.5t-90.5 345.5q0 215 90.5 341t261.5 126t261.5 -126t90.5 -341q0 -218 -90.5 -345.5t-261.5 -127.5zM2449 -229q-171 0 -261.5 127.5t-90.5 345.5q0 215 90.5 341t261.5 126t262 -126t91 -341q0 -218 -91 -345.5
t-262 -127.5zM1585 -92q68 0 113 47t63.5 119.5t18.5 169.5q0 150 -47.5 239.5t-147.5 89.5q-101 0 -147.5 -89t-46.5 -240q0 -97 18 -169.5t62.5 -119.5t113.5 -47zM2449 -92q68 0 113 47t63.5 119.5t18.5 169.5q0 150 -47.5 239.5t-147.5 89.5q-101 0 -147.5 -89
t-46.5 -240q0 -97 18 -169.5t62.5 -119.5t113.5 -47z" />
    <glyph glyph-name="guilsinglleft" unicode="&#x2039;" horiz-adv-x="530" 
d="M307 868h119l-260 -395l260 -389l-119 -2l-270 391z" />
    <glyph glyph-name="guilsinglright" unicode="&#x203a;" horiz-adv-x="557" 
d="M250 174h-119l262 395l-262 389h119l270 -389z" />
    <glyph glyph-name="fraction" unicode="&#x2044;" horiz-adv-x="1218" 
d="M262 -227h-180l872 1579h181z" />
    <glyph glyph-name="Euro" unicode="&#x20ac;" horiz-adv-x="1300" 
d="M754 1231q-333 0 -392 -369h326v-133h-350v-33q0 -46 2 -69h348v-133h-307q31 -164 125 -248t248 -84q156 0 446 88v-172q-239 -105 -471 -105q-257 0 -405 134.5t-189 386.5h-289v133h269q-2 23 -2 69v33h-267v133h281q35 268 184 412.5t418 144.5q228 0 471 -102v-174
q-281 88 -446 88z" />
    <glyph glyph-name="trademark" unicode="&#x2122;" horiz-adv-x="2797" 
d="M61 1210v189h1010v-189h-393v-1216h-223v1216h-394zM2384 1399h280v-1405h-223l4 1067l-411 -838h-156l-412 838l4 -1067h-204v1405h274l248 -506l180 -379l176 379z" />
    <glyph glyph-name="partialdiff" unicode="&#x2202;" horiz-adv-x="1222" 
d="M492 1419q137 0 247.5 -45t194.5 -138t130 -248t46 -363q0 -104 -16 -196.5t-54 -177t-95.5 -145.5t-146 -97t-200.5 -36q-214 0 -349.5 134.5t-135.5 353.5q0 227 121.5 352t322.5 125q97 0 185.5 -44.5t152.5 -125.5q-5 61 -19 120t-45 125.5t-74.5 116.5t-113.5 82.5
t-156 32.5q-77 0 -147 -11.5t-178 -45.5l-6 166q69 23 103.5 33t100 21t132.5 11zM598 154q72 0 124.5 24.5t83.5 64.5t50 100.5t25 121.5t6 139q-52 73 -127 116.5t-152 43.5q-66 0 -117 -20t-81 -51t-49 -74t-26 -83.5t-7 -84.5q0 -133 75 -215t195 -82z" />
    <glyph glyph-name="emptyset" unicode="&#x2205;" horiz-adv-x="1429" 
d="M942 1384q188 -66 281.5 -242t93.5 -440q0 -225 -63.5 -386t-200 -252t-338.5 -91q-56 0 -131 11l-41 -158h-119l49 188q-180 69 -270 247t-90 441q0 336 151.5 526.5t450.5 190.5q65 0 114 -8l54 209h121zM338 702q0 -372 184 -489l260 1014q-46 4 -67 4
q-187 0 -282 -133.5t-95 -395.5zM715 162q104 0 179.5 42t118 118.5t62 170t19.5 209.5q0 379 -201 488l-262 -1020q36 -8 84 -8z" />
    <glyph glyph-name="minus" unicode="&#x2212;" horiz-adv-x="1173" 
d="M1012 469h-850v156h850v-156z" />
    <glyph glyph-name="approxequal" unicode="&#x2248;" horiz-adv-x="1687" 
d="M262 592l-98 149l383 322q52 -114 183.5 -174t277.5 -60q120 0 270 49t215 105l31 -201q-82 -72 -238 -122t-278 -50q-281 0 -496 193zM262 76l-98 149l383 322q52 -114 183.5 -174t277.5 -60q120 0 270 49t215 105l31 -201q-82 -72 -238 -122t-278 -50q-281 0 -496 193z
" />
    <glyph glyph-name="notequal" unicode="&#x2260;" horiz-adv-x="1183" 
d="M1016 469h-311l-64 -225h375v-154h-418l-96 -338h-180l96 338h-254v154h297l63 225h-360v156h403l90 317h181l-90 -317h268v-156z" />
    <glyph glyph-name="lessequal" unicode="&#x2264;" horiz-adv-x="1304" 
d="M1098 190l-908 459v191l908 460v-204l-686 -346v-11l686 -344v-205zM221 -88v156h885v-156h-885z" />
    <glyph glyph-name="greaterequal" unicode="&#x2265;" horiz-adv-x="1304" 
d="M199 190v205l686 344v11l-686 346v204l907 -460v-191zM1075 -88h-885v156h885v-156z" />
    <glyph glyph-name="uniFD3E" unicode="&#xfd3e;" horiz-adv-x="737" 
d="M209 528q0 473 237 850h195q-105 -172 -165 -398.5t-60 -451.5t60.5 -451.5t164.5 -398.5h-195q-237 377 -237 850z" />
    <glyph glyph-name="uniFD3F" unicode="&#xfd3f;" horiz-adv-x="1046" 
d="M528 528q0 -475 -237 -850h-195q105 173 165.5 399.5t60.5 450.5q0 223 -61 449.5t-165 400.5h195q237 -377 237 -850z" />
    <glyph glyph-name="N.001" horiz-adv-x="1368" 
d="M1030 1403h205v-1403h-217l-684 1014l6 -1014h-207v1403h205l696 -1034z" />
    <glyph glyph-name="i.loclTRK" horiz-adv-x="432" 
d="M213 1135q-45 0 -78 32.5t-33 77.5q0 46 32.5 78.5t78.5 32.5t78.5 -32.5t32.5 -78.5q0 -45 -33 -77.5t-78 -32.5zM319 1010v-1010h-206v1010h206z" />
    <glyph glyph-name="uni06F4.urdu" horiz-adv-x="1370" 
d="M1239 737v-174h-844v-563h-198v1292h198v-555h133q-75 78 -75 193q0 87 38 156.5t99.5 114.5t148 76t174.5 46t187 20v-184q-90 -3 -172 -19t-150.5 -44t-109.5 -73.5t-41 -102.5q0 -95 76.5 -139t203.5 -44h332z" />
    <glyph glyph-name="uni06F7.urdu" horiz-adv-x="1228" 
d="M506 -6l-395 1298h190l320 -1081h4l317 1081h182l-393 -1298h-225z" />
    <glyph glyph-name="guillemotleft.case" horiz-adv-x="1161" 
d="M358 236l-270 395l270 389h119l-262 -389l262 -395h-119zM709 236l-271 395l271 389h118l-260 -389l260 -395h-118z" />
    <glyph glyph-name="guillemotright.case" horiz-adv-x="858" 
d="M131 1012l270 -396l-270 -389h-119l260 389l-260 396h119zM481 1012l271 -396l-271 -389h-119l263 389l-263 396h119z" />
    <glyph glyph-name="guilsinglleft.case" horiz-adv-x="557" 
d="M307 971h119l-260 -396l260 -389h-119l-270 389z" />
    <glyph glyph-name="guilsinglright.case" horiz-adv-x="557" 
d="M250 276h-119l262 396l-262 389h119l270 -389z" />
    <glyph glyph-name="dotabovear" 
d="M80 1772q-37 0 -64.5 27.5t-27.5 62.5q0 38 27.5 65t64.5 27t63.5 -27t26.5 -65q0 -36 -27 -63t-63 -27z" />
    <glyph glyph-name="dotbelowar" 
d="M117 -406q-38 0 -66 28.5t-28 68.5q0 38 28 66t66 28q40 0 68 -28t28 -66q0 -40 -28 -68.5t-68 -28.5z" />
    <glyph glyph-name="dotcenterar" 
d="M117 604q-38 0 -66 28t-28 66q0 40 28 68.5t66 28.5q40 0 68 -28.5t28 -68.5q0 -38 -28 -66t-68 -28z" />
    <glyph glyph-name="twodotsverticalabovear" 
d="M102 1720q-38 0 -66 28.5t-28 68.5q0 38 28 66t66 28q40 0 68.5 -28t28.5 -66q0 -40 -28.5 -68.5t-68.5 -28.5zM102 1487q-38 0 -66 28t-28 66q0 40 28 68t66 28q40 0 68.5 -28t28.5 -68q0 -38 -28.5 -66t-68.5 -28z" />
    <glyph glyph-name="twodotsverticalbelowar" 
d="M117 -336q-38 0 -66 28t-28 68q0 38 28 66.5t66 28.5q39 0 67.5 -28.5t28.5 -66.5q0 -40 -28 -68t-68 -28zM117 -584q-38 0 -66 29t-28 68q0 40 28 68t66 28q40 0 68 -28t28 -68q0 -39 -28.5 -68t-67.5 -29z" />
    <glyph glyph-name="twodotshorizontalabovear" 
d="M131 1540q-38 0 -65 27.5t-27 64.5t27 64.5t65 27.5q37 0 63.5 -27.5t26.5 -64.5t-26.5 -64.5t-63.5 -27.5zM401 1540q-37 0 -63.5 27.5t-26.5 64.5t26.5 64.5t63.5 27.5q38 0 65.5 -27.5t27.5 -64.5t-27.5 -64.5t-65.5 -27.5z" />
    <glyph glyph-name="twodotshorizontalbelowar" 
d="M111 -569q-38 0 -66.5 29t-28.5 67q0 39 28 67.5t67 28.5q40 0 68 -28t28 -68q0 -39 -28.5 -67.5t-67.5 -28.5zM391 -569q-38 0 -66 29t-28 67q0 40 28 68t66 28q40 0 68 -28t28 -68q0 -39 -28.5 -67.5t-67.5 -28.5z" />
    <glyph glyph-name="threedotsdownabovear" 
d="M127 1739q-40 0 -68 28t-28 68q0 39 28.5 67.5t67.5 28.5q38 0 66 -29t28 -67q0 -40 -28 -68t-66 -28zM362 1739q-38 0 -66 28t-28 68q0 38 28 67t66 29q40 0 68.5 -28.5t28.5 -67.5q0 -40 -28.5 -68t-68.5 -28zM244 1540q-40 0 -68.5 28t-28.5 66q0 40 28.5 68.5
t68.5 28.5q38 0 66 -28.5t28 -68.5q0 -38 -28 -66t-66 -28z" />
    <glyph glyph-name="threedotsdownbelowar" 
d="M104 -365q-37 0 -63.5 27t-26.5 64q0 35 26.5 61.5t63.5 26.5q35 0 62 -26.5t27 -61.5q0 -37 -27 -64t-62 -27zM358 -365q-36 0 -62 27t-26 64q0 36 26 62t62 26t62 -26t26 -62q0 -37 -26 -64t-62 -27zM229 -584q-35 0 -61.5 26.5t-26.5 63.5q0 35 26.5 61.5t61.5 26.5
q36 0 62 -26t26 -62q0 -37 -25.5 -63.5t-62.5 -26.5z" />
    <glyph glyph-name="threedotsupabovear" 
d="M246 1751q-37 0 -62.5 25.5t-25.5 62.5t25.5 63.5t62.5 26.5t62.5 -26.5t25.5 -63.5t-25.5 -62.5t-62.5 -25.5zM119 1536q-37 0 -62.5 26.5t-25.5 63.5t25.5 63.5t62.5 26.5t62.5 -26.5t25.5 -63.5t-25.5 -63.5t-62.5 -26.5zM385 1538q-37 0 -62.5 25.5t-25.5 62.5
t25.5 63.5t62.5 26.5t62.5 -26.5t25.5 -63.5t-25.5 -62.5t-62.5 -25.5z" />
    <glyph glyph-name="threedotsupbelowar" 
d="M252 -375q-40 0 -68 28t-28 66q0 40 28 68.5t68 28.5q38 0 66 -28.5t28 -68.5q0 -38 -28 -66t-66 -28zM139 -573q-38 0 -66 28t-28 66q0 40 28 68t66 28q40 0 67 -28t27 -68q0 -39 -27.5 -66.5t-66.5 -27.5zM371 -573q-38 0 -66.5 28t-28.5 66q0 39 28 67.5t67 28.5
q40 0 68 -28t28 -68q0 -38 -28 -66t-68 -28z" />
    <glyph glyph-name="waslaar" 
 />
    <glyph glyph-name="miniKehehar" 
 />
    <glyph glyph-name="gafsarkashabovear" 
d="M303 1427h98l-374 -727h-99z" />
    <glyph glyph-name="gafsarkashcenterar" 
 />
    <glyph glyph-name="doublestrokear" 
 />
    <glyph glyph-name="hamzacenterar" 
d="M178 801h176v-90h-354v90h70q-50 47 -50 119q0 73 42 116t114 43q73 0 117 -42t53 -128h-84q-15 80 -84 80t-69 -78q0 -75 69 -110z" />
    <glyph glyph-name="uni0654064F" 
d="M346 2136q0 -53 -34.5 -92t-86.5 -45l-262 -86v88l141 43q-32 40 -32 92q0 57 40 97t97 40t97 -40t40 -97zM147 2138q0 -52 43 -65l11 2l4 -7h6q28 0 45.5 19.5t17.5 50.5q0 27 -18 45.5t-45 18.5t-45.5 -18.5t-18.5 -45.5zM176 1561h207v-113h-414v113h78
q-53 53 -53 133q0 84 48.5 134t133.5 50t136.5 -51t60.5 -150h-103q-15 88 -92 88q-76 0 -76 -84q0 -76 74 -120z" />
    <glyph glyph-name="uni0654064C" 
d="M-25 2007v31q-2 28 -11 46t-31 26.5t-58 -11.5v66q71 37 109.5 12t44.5 -100l88 26q-33 41 -33 92q0 57 40 97.5t97 40.5t97 -40.5t40 -97.5q0 -54 -34.5 -92.5t-85.5 -44.5l-263 -86v17h-2q0 3 1 9t1 9zM160 2198q0 -53 43 -66l10 2l4 -6h6q28 0 46 19.5t18 50.5
q0 26 -18.5 44.5t-45.5 18.5t-45 -18t-18 -45zM176 1561h207v-113h-414v113h78q-53 53 -53 133q0 84 48.5 134t133.5 50t136.5 -51t60.5 -150h-103q-15 88 -92 88q-76 0 -76 -84q0 -76 74 -120z" />
    <glyph glyph-name="uni0654064E" 
d="M371 2234v-80l-379 -139v80zM176 1561h207v-113h-414v113h78q-53 53 -53 133q0 84 48.5 134t133.5 50t136.5 -51t60.5 -150h-103q-15 88 -92 88q-76 0 -76 -84q0 -76 74 -120z" />
    <glyph glyph-name="uni0654064B" 
d="M371 2359v-80l-379 -139v80zM371 2198v-80l-379 -140v80zM176 1561h207v-113h-414v113h78q-53 53 -53 133q0 84 48.5 134t133.5 50t136.5 -51t60.5 -150h-103q-15 88 -92 88q-76 0 -76 -84q0 -76 74 -120z" />
    <glyph glyph-name="uni06540652" 
d="M178 1948q-60 0 -102.5 43t-42.5 104q0 60 42.5 103t102.5 43t103 -43t43 -103q0 -61 -43 -104t-103 -43zM178 2169q-29 0 -48 -19.5t-19 -48.5q0 -32 19 -52.5t48 -20.5t48.5 20.5t19.5 52.5q0 29 -19.5 48.5t-48.5 19.5zM176 1561h207v-113h-414v113h78q-53 53 -53 133
q0 84 48.5 134t133.5 50t136.5 -51t60.5 -150h-103q-15 88 -92 88q-76 0 -76 -84q0 -76 74 -120z" />
    <glyph glyph-name="uni06550650" 
d="M268 -262h209v-113h-414v113h78q-53 53 -53 133q0 84 48.5 134t133.5 50q84 0 136 -50.5t61 -149.5h-105q-15 88 -90 88q-77 0 -77 -84q0 -77 73 -121zM94 -702v90l348 118v-90z" />
    <glyph glyph-name="uni0655064D" 
d="M268 -262h209v-113h-414v113h78q-53 53 -53 133q0 84 48.5 134t133.5 50q84 0 136 -50.5t61 -149.5h-105q-15 88 -90 88q-77 0 -77 -84q0 -77 73 -121zM84 -721v80l379 137v-78zM84 -893v78l379 139v-78z" />
    <glyph glyph-name="uni06510670" 
 />
    <glyph glyph-name="uni0651064F" 
 />
    <glyph glyph-name="uni0651064C" 
 />
    <glyph glyph-name="uni0651064E" 
d="M18 1946l377 139v-80l-377 -139v80zM137 1419q-59 0 -98 39t-39 107v49l86 20v-69q0 -60 51 -60q49 0 49 70v94l86 23v-105q0 -23 15 -36t35 -13q61 0 61 72v112l86 25v-137q0 -74 -37 -118t-98 -44q-26 0 -51.5 12.5t-40.5 32.5q-13 -34 -42.5 -54t-62.5 -20z" />
    <glyph glyph-name="uni0651064B.1" 
d="M18 2071l377 139v-80l-377 -139v80zM18 1909l377 139v-80l-377 -139v80zM137 1419q-59 0 -98 39t-39 107v49l86 20v-69q0 -60 51 -60q49 0 49 70v94l86 23v-105q0 -23 15 -36t35 -13q61 0 61 72v112l86 25v-137q0 -74 -37 -118t-98 -44q-26 0 -51.5 12.5t-40.5 32.5
q-13 -34 -42.5 -54t-62.5 -20z" />
    <glyph glyph-name="uni06510650" 
d="M152 1991q-61 0 -99.5 38.5t-38.5 106.5v49l86 21v-70q0 -59 52 -59q47 0 47 69v95l86 22v-104q0 -24 15 -37t36 -13q59 0 59 72v113l86 24v-137q0 -74 -37 -118t-98 -44q-25 0 -50 12.5t-40 32.5q-15 -35 -43 -54t-61 -19zM51 1735l379 139v-80l-379 -139v80z" />
    <glyph glyph-name="out" 
d="M-2 0l-94 35v145l94 35v-215z" />
    <glyph glyph-name="behnoondotless" horiz-adv-x="2170" 
 />
    </font>
</defs>
</svg>
