<?xml version="1.0" standalone="no"?>
<!DOCTYPE svg PUBLIC "-//W3C//DTD SVG 1.1//EN" "http://www.w3.org/Graphics/SVG/1.1/DTD/svg11.dtd" >
<svg xmlns="http://www.w3.org/2000/svg" xmlns:xlink="http://www.w3.org/1999/xlink" version="1.1">
<metadata>
Created by FontForge 20170731 at Sun Mar 20 11:31:37 2022
 By Aleksey,,,
https://www.baianat.com/
</metadata>
<defs>
<font id="Somar-SemiBold" horiz-adv-x="0" >
  <font-face 
    font-family="Somar SemiBold"
    font-weight="600"
    font-stretch="normal"
    units-per-em="2048"
    panose-1="0 0 7 0 0 0 0 0 0 0"
    ascent="1638"
    descent="-410"
    x-height="1028"
    cap-height="1397"
    bbox="-991 -922 2908 2462"
    underline-thickness="102"
    underline-position="-307"
    unicode-range="U+0020-FEFC"
  />
<missing-glyph horiz-adv-x="997" 
 />
    <glyph glyph-name="uniFDF2" unicode="&#x627;&#xfedf;&#xfee0;&#xfeea;" horiz-adv-x="2975" arabic-form="isolated" 
d="M1563 2068v-241l-93 -25v240zM1430 1454q-58 0 -97 38t-39 101v47l92 23v-70q0 -47 44 -47q40 0 40 58v88l93 24v-100q0 -41 43 -41q49 0 49 59v107l90 26v-133q0 -70 -34 -111.5t-93 -41.5q-61 0 -88 41q-15 -32 -42 -50t-58 -18zM2089 328v1097h235v-1179
q0 -104 -71 -175t-174 -71h-285q-137 0 -244 115q-100 -115 -274 -115h-107q-181 0 -292 137q-118 -131 -320 -131q-119 0 -219.5 61t-158.5 165t-58 225v141q0 193 127 322t319 129h469v-680q0 -59 36.5 -96t96.5 -37h109q152 0 156 163l-2 895h237v-798q0 -38 -2 -58v-35
q0 -167 158 -167h178q33 0 59.5 24t26.5 68zM2591 1425h235v-1425h-235v1425zM801 356v457h-234q-94 0 -152.5 -59.5t-58.5 -155.5v-141q0 -89 59 -151t142 -62q75 0 139.5 29t104.5 83z" />
    <glyph glyph-name="uniFEF5" unicode="&#xfedf;&#xfe82;" horiz-adv-x="1378" arabic-form="isolated" 
d="M358 1591l-112 -96l-49 78l178 156q28 -58 87.5 -84.5t127.5 -26.5q57 0 124.5 21.5t96.5 46.5l10 -113q-38 -32 -106 -53t-125 -21q-129 0 -232 92zM1006 1425h235v-1179q0 -104 -71 -175t-175 -71h-903v236h268v1044h238v-1044h322q33 0 59.5 24t26.5 68v1097z" />
    <glyph glyph-name="uniFEF6" unicode="&#xfee0;&#xfe82;" horiz-adv-x="1538" arabic-form="final" 
d="M291 1481l-49 78l180 155q27 -58 85.5 -84t127.5 -26q58 0 125 21.5t96 45.5l10 -112q-38 -32 -106 -53t-125 -21q-129 0 -232 92zM1444 236h88v-236h-121q-71 0 -133.5 31.5t-106.5 85.5q-99 -117 -278 -117h-756v236h277v1044h235v-1044h246q156 0 156 167v1022h235
v-1022q0 -167 158 -167z" />
    <glyph glyph-name="uniFEF7" unicode="&#xfedf;&#xfe84;" horiz-adv-x="1378" arabic-form="isolated" 
d="M692 1524v-133h-438v133h74q-49 56 -49 131q0 87 51.5 139.5t142.5 52.5t146.5 -56t62.5 -161h-121q-6 41 -29 63.5t-57 22.5q-72 0 -72 -76q0 -73 74 -116h215zM1006 1425h235v-1179q0 -104 -71 -175t-175 -71h-903v236h268v1044h238v-1044h322q33 0 59.5 24t26.5 68
v1097z" />
    <glyph glyph-name="uniFEF8" unicode="&#xfee0;&#xfe84;" horiz-adv-x="1521" arabic-form="final" 
d="M727 1524v-133h-438v133h73q-49 56 -49 131q0 88 51.5 140t143.5 52q91 0 146.5 -56t62.5 -161h-121q-6 41 -29 63.5t-57 22.5q-35 0 -54.5 -19.5t-19.5 -56.5q0 -73 76 -116h215zM1444 236h88v-236h-121q-71 0 -133.5 31.5t-106.5 85.5q-99 -117 -278 -117h-756v236h277
v1044h235v-1044h246q156 0 156 167v1022h235v-1022q0 -167 158 -167z" />
    <glyph glyph-name="uniFEF9" unicode="&#xfedf;&#xfe88;" horiz-adv-x="1378" arabic-form="isolated" 
d="M1006 1425h235v-1179q0 -104 -71 -175t-175 -71h-903v236h268v1044h238v-1044h322q33 0 59.5 24t26.5 68v1097zM385 -362q0 -76 74 -119h215v-131h-438v131h75q-51 54 -51 133q0 86 51.5 138t143.5 52q91 0 146.5 -55.5t62.5 -159.5h-121q-6 41 -29 62.5t-57 21.5
q-72 0 -72 -73z" />
    <glyph glyph-name="uniFEFA" unicode="&#xfee0;&#xfe88;" horiz-adv-x="1521" arabic-form="final" 
d="M1444 236h88v-236h-121q-71 0 -133.5 31.5t-106.5 85.5q-99 -117 -278 -117h-756v236h277v1044h235v-1044h246q156 0 156 167v1022h235v-1022q0 -167 158 -167zM432 -326q0 -75 74 -118h215v-131h-438v131h75q-51 54 -51 133q0 86 52 139t143 53t146.5 -56.5t62.5 -160.5
h-121q-6 41 -29 62.5t-57 21.5q-72 0 -72 -74z" />
    <glyph glyph-name="uniFEFB" unicode="&#xfedf;&#xfe8e;" horiz-adv-x="1378" arabic-form="isolated" 
d="M1006 1425h235v-1179q0 -104 -71 -175t-175 -71h-903v236h268v1044h238v-1044h322q33 0 59.5 24t26.5 68v1097z" />
    <glyph glyph-name="uniFEFC" unicode="&#xfee0;&#xfe8e;" horiz-adv-x="1521" arabic-form="final" 
d="M1444 236h88v-236h-121q-71 0 -133.5 31.5t-106.5 85.5q-99 -117 -278 -117h-756v236h277v1044h235v-1044h246q156 0 156 167v1022h235v-1022q0 -167 158 -167z" />
    <glyph glyph-name="uni066E.init" unicode="&#x66e;" horiz-adv-x="606" 
d="M252 971h233v-666q0 -130 -87 -217.5t-216 -87.5h-184l-102 39v160l102 37h96q158 0 158 167v568z" />
    <glyph glyph-name="uni066E.medi" unicode="&#x66e;" horiz-adv-x="677" 
d="M616 236h66v-236h-98q-135 0 -242 115q-100 -115 -276 -115h-68l-102 37v160l102 39h70q155 0 155 167v566h236v-566q0 -167 157 -167z" />
    <glyph glyph-name="uni066E.fina" unicode="&#x66e;" horiz-adv-x="1849" 
d="M1792 236h74v-236h-107q-134 0 -241 115q-100 -115 -279 -115h-715q-189 0 -315.5 126t-126.5 316v310h235v-310q0 -92 57.5 -149t149.5 -57h717q158 0 158 167v566h235v-566q0 -167 158 -167z" />
    <glyph glyph-name="uni066F.fina" unicode="&#x66f;" horiz-adv-x="1691" 
d="M1575 236h127v-236h-141q-50 -259 -247 -420.5t-472 -161.5h-6q-207 0 -375 95.5t-263.5 264t-95.5 376.5v227h238v-227q0 -218 139 -358t357 -140h6q191 0 315.5 92.5t165.5 251.5h-215q-188 0 -313 125t-125 313v168q0 186 125.5 311t312.5 125h31q187 0 311.5 -125
t124.5 -311v-370zM905 438q0 -90 56.5 -146t146.5 -56h231v370q0 89 -55.5 145t-144.5 56h-31q-89 0 -146 -56t-57 -145v-168z" />
    <glyph glyph-name="uni06A1.init" unicode="&#x6a1;" horiz-adv-x="1157" 
d="M590 1047q189 0 318.5 -130.5t129.5 -320.5v-178q0 -172 -122.5 -295t-294.5 -123h-623l-102 39v160l102 39h205q-84 91 -84 215v143q0 190 129.5 320.5t318.5 130.5h23zM803 440v156q0 93 -60 153t-153 60h-23q-92 0 -151.5 -59.5t-59.5 -153.5v-143q0 -88 59.5 -151.5
t139.5 -63.5h43q85 0 145 59t60 143z" />
    <glyph glyph-name="uni06A1.medi" unicode="&#x6a1;" horiz-adv-x="1185" 
d="M971 236h223v-236h-1200l-103 39v160l103 37h229q-82 92 -82 215v145q0 194 127 321t330 127q205 0 331 -125.5t126 -322.5v-145q0 -124 -84 -215zM819 451v145q0 97 -58 155t-161 58q-106 0 -164.5 -57t-58.5 -156v-145q0 -88 66.5 -151.5t154.5 -63.5q101 0 161 61.5
t60 153.5z" />
    <glyph glyph-name="uni06A1.fina" unicode="&#x6a1;" horiz-adv-x="1927" 
d="M1634 236h303v-236h-1419q-188 3 -312 129t-124 313v263h235v-263q0 -92 57.5 -149t149.5 -57h363q-84 94 -84 215v145q0 193 128 320.5t331 127.5t328.5 -126t125.5 -322v-145q0 -123 -82 -215zM1483 451v145q0 96 -58.5 154.5t-160.5 58.5q-107 0 -165.5 -56.5
t-58.5 -156.5v-145q0 -88 66.5 -151.5t153.5 -63.5q102 0 162.5 61.5t60.5 153.5z" />
    <glyph glyph-name="uni06C2.fina" unicode="&#x6c2;" horiz-adv-x="1136" 
d="M793 1341v-131h-439v131h76q-53 53 -53 134q0 86 51.5 138t142.5 52q92 0 147 -55t62 -160h-121q-6 40 -28.5 62t-55.5 22q-73 0 -73 -74q0 -30 18.5 -63t57.5 -56h215zM582 1049q181 0 308.5 -127.5t127.5 -309.5v-188q0 -175 -122.5 -298.5t-295.5 -123.5h-51
q-184 0 -311 126.5t-127 309.5v174q0 181 128 309t310 128h33zM782 414v198q0 88 -57 144.5t-143 56.5h-33q-87 0 -144 -57t-57 -144v-172q0 -83 59 -142.5t142 -59.5h59q72 0 123 52t51 124z" />
    <glyph glyph-name="uni06C3.fina" unicode="&#x6c3;" horiz-adv-x="1224" 
d="M451 1212q-59 0 -101.5 42t-42.5 100q0 57 43 99t101 42q57 0 99 -42t42 -99q0 -58 -42 -100t-99 -42zM852 1212q-57 0 -99 42t-42 100q0 57 42 99t99 42q58 0 99.5 -42t41.5 -99q0 -59 -41.5 -100.5t-99.5 -41.5zM1169 236h66v-236h-66q-157 0 -261.5 104t-106.5 261
v444h-234q-94 0 -152.5 -59t-58.5 -154v-373h-235v373q0 191 127.5 319.5t318.5 128.5h469v-675q0 -59 36.5 -96t96.5 -37z" />
    <glyph glyph-name="uniFB57" unicode="&#x67e;" horiz-adv-x="1849" arabic-form="final" 
d="M1792 236h74v-236h-107q-134 0 -241 115q-100 -115 -279 -115h-715q-189 0 -315.5 126t-126.5 316v310h235v-310q0 -92 57.5 -149t149.5 -57h717q158 0 158 167v566h235v-566q0 -167 158 -167zM819 -352q0 -59 -41.5 -101.5t-99.5 -42.5q-57 0 -99 43t-42 101q0 57 42 99
t99 42q58 0 99.5 -42t41.5 -99zM1067 -211q58 0 100.5 -42t42.5 -99q0 -59 -42.5 -101.5t-100.5 -42.5q-57 0 -99 43t-42 101q0 57 42 99t99 42zM868 -512q58 0 100 -42t42 -99q0 -59 -42 -100.5t-100 -41.5t-99.5 41.5t-41.5 100.5q0 57 41.5 99t99.5 42z" />
    <glyph glyph-name="uniFB58" unicode="&#x67e;" horiz-adv-x="825" arabic-form="initial" 
d="M-35 0v236h445q34 0 60 24t26 68v643h235v-725q0 -104 -70.5 -175t-173.5 -71h-522zM188 -502q-57 0 -99 42t-42 100q0 57 42 99t99 42q58 0 100 -42t42 -99q0 -58 -42 -100t-100 -42zM578 -502q-57 0 -99.5 42t-42.5 100q0 57 42.5 99t99.5 42q58 0 100.5 -42t42.5 -99
q0 -58 -42 -100t-101 -42zM379 -803q-59 0 -100 42t-41 102q0 57 41.5 98t99.5 41t99.5 -41t41.5 -98q0 -60 -41 -102t-100 -42z" />
    <glyph glyph-name="uniFB59" unicode="&#x67e;" horiz-adv-x="845" arabic-form="medial" 
d="M715 236h186v-236h-219q-137 0 -244 115q-96 -115 -274 -115h-172l-103 37v160l103 39h174q152 0 156 161l-3 572h238v-473q0 -38 -2 -58v-35q0 -167 160 -167zM391 -354q0 -60 -42 -102t-99 -42q-59 0 -101.5 42t-42.5 102q0 57 42.5 98t101.5 41q57 0 99 -41t42 -98z
M639 -215q57 0 99 -41t42 -98q0 -60 -42 -102t-99 -42q-59 0 -101 42t-42 102q0 57 42 98t101 41zM438 -514q58 0 101 -42t43 -99q0 -59 -43 -101.5t-101 -42.5q-57 0 -99 43t-42 101q0 57 42 99t99 42z" />
    <glyph glyph-name="uniFB67" unicode="&#x679;" horiz-adv-x="1849" arabic-form="final" 
d="M582 1004v100h77v340h99v-203q67 70 139 70q75 0 115.5 -47.5t40.5 -137.5v-122h-471zM887 1210q-63 0 -129 -75v-31h196v22q0 84 -67 84zM1792 236h74v-236h-107q-134 0 -241 115q-100 -115 -279 -115h-715q-189 0 -315.5 126t-126.5 316v310h235v-310q0 -92 57.5 -149
t149.5 -57h717q158 0 158 167v566h235v-566q0 -167 158 -167z" />
    <glyph glyph-name="uniFB68" unicode="&#x679;" horiz-adv-x="606" arabic-form="initial" 
d="M444 1462q75 0 115.5 -47t40.5 -137v-123h-471v100h76v340h100v-200q70 67 139 67zM500 1255v23q0 84 -68 84q-60 0 -127 -76v-31h195zM252 403v568h233v-666q0 -130 -87 -217.5t-216 -87.5h-184l-102 37v162l102 37h96q158 0 158 167z" />
    <glyph glyph-name="uniFB69" unicode="&#x679;" horiz-adv-x="677" arabic-form="medial" 
d="M92 1167v101h78v340h98v-203q68 68 140 68q75 0 115 -46.5t40 -136.5v-123h-471zM397 1374q-62 0 -129 -76v-30h197v22q0 84 -68 84zM616 236h66v-236h-98q-135 0 -242 115q-100 -115 -276 -115h-68l-102 37v160l102 39h70q155 0 155 167v566h236v-566q0 -167 157 -167z
" />
    <glyph glyph-name="uniFB6B" unicode="&#x6a4;" horiz-adv-x="1927" arabic-form="final" 
d="M1276 1544q-57 0 -99 42t-42 100q0 57 42 99t99 42q58 0 100.5 -42t42.5 -99q0 -58 -42 -100t-101 -42zM1075 1235q-59 0 -101 41.5t-42 99.5q0 57 42.5 99.5t100.5 42.5q57 0 99.5 -42.5t42.5 -99.5q0 -58 -42.5 -99.5t-99.5 -41.5zM1327 1376q0 57 42.5 99.5
t100.5 42.5q57 0 99.5 -42.5t42.5 -99.5q0 -58 -42.5 -99.5t-99.5 -41.5q-59 0 -101 41.5t-42 99.5zM1634 236h303v-236h-1419q-188 3 -312 129t-124 313v263h235v-263q0 -92 57.5 -149t149.5 -57h363q-84 94 -84 215v145q0 193 128 320.5t331 127.5t328.5 -126t125.5 -322
v-145q0 -123 -82 -215zM1483 451v145q0 96 -58.5 154.5t-160.5 58.5q-107 0 -165.5 -56.5t-58.5 -156.5v-145q0 -88 66.5 -151.5t153.5 -63.5q102 0 162.5 61.5t60.5 153.5z" />
    <glyph glyph-name="uniFB6C" unicode="&#x6a4;" horiz-adv-x="1157" arabic-form="initial" 
d="M596 1540q-59 0 -101 41.5t-42 99.5q0 57 42.5 99.5t100.5 42.5q57 0 99 -42.5t42 -99.5q0 -58 -42 -99.5t-99 -41.5zM393 1231q-59 0 -101 41.5t-42 99.5q0 57 42.5 99t100.5 42q57 0 99.5 -42t42.5 -99q0 -58 -42.5 -99.5t-99.5 -41.5zM788 1231q-59 0 -101 41.5
t-42 99.5q0 57 42.5 99t100.5 42t100 -42t42 -99q0 -58 -41.5 -99.5t-100.5 -41.5zM590 1047q189 0 318.5 -130.5t129.5 -320.5v-178q0 -172 -122.5 -295t-294.5 -123h-623l-102 39v160l102 39h205q-84 91 -84 215v143q0 190 129.5 320.5t318.5 130.5h23zM803 440v156
q0 93 -60 153t-153 60h-23q-92 0 -151.5 -59.5t-59.5 -153.5v-143q0 -88 59.5 -151.5t139.5 -63.5h43q85 0 145 59t60 143z" />
    <glyph glyph-name="uniFB6D" unicode="&#x6a4;" horiz-adv-x="1185" arabic-form="medial" 
d="M621 1540q-59 0 -101.5 41.5t-42.5 99.5q0 57 43 99.5t101 42.5q57 0 99 -42.5t42 -99.5q0 -58 -42 -99.5t-99 -41.5zM418 1231q-59 0 -101.5 41.5t-42.5 99.5q0 57 43 99t101 42q57 0 99 -42t42 -99q0 -58 -42 -99.5t-99 -41.5zM670 1372q0 57 42.5 99t100.5 42
t99.5 -42t41.5 -99q0 -58 -41 -99.5t-100 -41.5t-101 41.5t-42 99.5zM971 236h223v-236h-1200l-103 39v160l103 37h229q-82 92 -82 215v145q0 194 127 321t330 127q205 0 331 -125.5t126 -322.5v-145q0 -124 -84 -215zM819 451v145q0 97 -58 155t-161 58q-106 0 -164.5 -57
t-58.5 -156v-145q0 -88 66.5 -151.5t154.5 -63.5q101 0 161 61.5t60 153.5z" />
    <glyph glyph-name="uniFB7B" unicode="&#x686;" horiz-adv-x="1486" arabic-form="final" 
d="M1399 236h104v-236h-864q-135 0 -218 -71t-83 -201q0 -77 41 -139.5t112.5 -100.5t161 -53.5t195.5 -0.5t207 60v-217q-112 -54 -229 -74t-221.5 -6.5t-197.5 57t-160 110.5t-106 161t-39 203q0 226 151.5 366t381.5 142h424q-12 12 -28 40t-29 53.5t-37 75.5t-37 76
q-77 147 -172.5 230t-213.5 101.5t-253 -40.5v217q277 101 512 -22.5t387 -452.5q33 -76 62 -129t48 -80.5t40 -42.5t31.5 -18.5t29.5 -5.5v-2zM727 -207q0 -29 -20.5 -49t-51.5 -20q-29 0 -50 20t-21 49q0 28 21 48t50 20q30 0 51 -20t21 -48zM918 -207q0 -29 -21 -49
t-51 -20t-51 20t-21 49q0 28 21.5 48t50.5 20t50.5 -20t21.5 -48zM750 -436q-30 0 -51 20t-21 49q0 28 21.5 49t50.5 21q30 0 51.5 -21t21.5 -49q0 -29 -21 -49t-52 -20z" />
    <glyph glyph-name="uniFB7C" unicode="&#x686;" horiz-adv-x="1304" arabic-form="initial" 
d="M1010 514q34 -76 63 -129.5t48.5 -80.5t40 -42t31 -18.5t28.5 -5.5v-238h-1244v236h906q-9 10 -20.5 27.5t-26 45t-25.5 49.5t-30.5 62t-30.5 61q-58 113 -120 185.5t-139 113t-170.5 38.5t-207.5 -46v217q275 101 509 -23t388 -452zM397 -469q-57 0 -99 42.5t-42 100.5
q0 57 42 99.5t99 42.5q58 0 100 -42.5t42 -99.5q0 -59 -42 -101t-100 -42zM788 -469q-58 0 -100.5 42.5t-42.5 100.5q0 57 42.5 99.5t100.5 42.5q57 0 99.5 -42.5t42.5 -99.5q0 -58 -42.5 -100.5t-99.5 -42.5zM588 -768q-57 0 -99.5 41.5t-42.5 99.5q0 57 42.5 99.5
t99.5 42.5q58 0 99.5 -42.5t41.5 -99.5q0 -59 -41.5 -100t-99.5 -41z" />
    <glyph glyph-name="uniFB7D" unicode="&#x686;" horiz-adv-x="1361" arabic-form="medial" 
d="M1204 236h162v-236h-1364l-102 37v160l102 39h864q-12 12 -28 40t-29 53.5t-37 75.5t-37 76q-59 113 -121.5 185.5t-139.5 113t-170.5 38.5t-207.5 -46v217q277 101 510 -22.5t387 -452.5q34 -76 63.5 -129.5t48.5 -80.5t40 -42.5t31 -18.5t28 -5v-2zM524 -326
q0 -59 -41.5 -101t-99.5 -42q-59 0 -101 42.5t-42 100.5q0 57 42.5 99.5t100.5 42.5t99.5 -42.5t41.5 -99.5zM772 -184q58 0 99.5 -42.5t41.5 -99.5q0 -59 -41.5 -101t-99.5 -42q-57 0 -99 42.5t-42 100.5q0 57 42 99.5t99 42.5zM573 -485q57 0 99.5 -42.5t42.5 -99.5
q0 -58 -42.5 -99.5t-99.5 -41.5q-59 0 -101 41.5t-42 99.5q0 57 42.5 99.5t100.5 42.5z" />
    <glyph glyph-name="uniFB89" unicode="&#x688;" horiz-adv-x="1138" arabic-form="final" 
d="M258 1300v101h78v340h100v-201q71 68 139 68q75 0 114.5 -47t39.5 -138v-123h-471zM563 1507q-61 0 -127 -75v-31h195v22q0 84 -68 84zM934 236h223v-236h-1061v236h602v346q0 100 -62.5 162.5t-162.5 62.5h-201v237h201q197 0 329 -132t132 -330v-346z" />
    <glyph glyph-name="uniFB8B" unicode="&#x698;" horiz-adv-x="874" arabic-form="final" 
d="M455 1501q-57 0 -99.5 43t-42.5 101q0 57 42.5 99t99.5 42q58 0 99.5 -42t41.5 -99q0 -59 -41.5 -101.5t-99.5 -42.5zM252 1192q-58 0 -99.5 42t-41.5 101q0 57 42 99.5t99 42.5q58 0 99.5 -42.5t41.5 -99.5q0 -60 -41 -101.5t-100 -41.5zM506 1335q0 57 42.5 99.5
t100.5 42.5q57 0 99.5 -42.5t42.5 -99.5q0 -59 -42 -101t-100 -42q-59 0 -101 41.5t-42 101.5zM891 236v-236h-279v-25q0 -189 -125.5 -315.5t-314.5 -126.5h-102v236h102q91 0 148 57t57 149v1012h235v-751h279z" />
    <glyph glyph-name="uniFB8D" unicode="&#x691;" horiz-adv-x="706" arabic-form="final" 
d="M186 1219v100h76v340h100v-201q71 68 140 68q75 0 115 -47.5t40 -137.5v-122h-471zM489 1425q-61 0 -127 -75v-31h195v22q0 84 -68 84zM723 236v-236h-184v-25q0 -189 -127 -315.5t-316 -126.5h-102v236h102q91 0 148 57t57 149v1012h238v-751h184z" />
    <glyph glyph-name="uniFB8F" unicode="&#x6a9;" horiz-adv-x="2066" arabic-form="final" 
d="M1741 236h332v-236h-1549q-124 1 -225 59t-158 159t-57 224v308h235v-308q0 -92 58 -149t151 -57h977v155q0 100 -63 162.5t-164 62.5h-672l-26 43l393 766h237l-297 -573h365q198 0 330.5 -132t132.5 -329v-155z" />
    <glyph glyph-name="uniFB90" unicode="&#x6a9;" horiz-adv-x="1413" arabic-form="initial" 
d="M823 852q195 0 328 -133.5t133 -327.5q0 -161 -114 -276t-275 -115h-895l-102 37v162l102 37h879q75 0 122.5 54t47.5 132q0 94 -62.5 144t-163.5 50h-673l-25 103l399 706l189 -75l-250 -498h360z" />
    <glyph glyph-name="uniFB91" unicode="&#x6a9;" horiz-adv-x="1495" arabic-form="medial" 
d="M1278 236h223v-236h-1509l-103 37v162l103 37h1050v155q0 100 -63 162.5t-164 62.5h-672l-28 43l401 766h238l-299 -573h360q198 0 330.5 -132t132.5 -329v-155z" />
    <glyph glyph-name="uniFB93" unicode="&#x6af;" horiz-adv-x="2000" arabic-form="final" 
d="M1788 236h213v-236h-1481q-124 1 -224.5 59t-157 159t-56.5 224v308h235v-308q0 -92 57.5 -149t149.5 -57h1028v155q0 100 -62.5 162.5t-162.5 62.5h-672l-28 43l393 766h237l-296 -573h366q198 0 329.5 -132t131.5 -329v-155zM934 1425l-399 -763h-103l399 763h103z" />
    <glyph glyph-name="uniFB94" unicode="&#x6af;" horiz-adv-x="1525" arabic-form="initial" 
d="M934 852q196 0 329.5 -133.5t133.5 -327.5q0 -161 -115 -276t-276 -115h-1022l-103 37v162l103 37h1005q75 0 123.5 54t48.5 132q0 94 -62.5 144t-164.5 50h-672l-24 103l399 706l188 -75l-250 -498h359zM434 1425h103l-410 -763h-102z" />
    <glyph glyph-name="uniFB95" unicode="&#x6af;" horiz-adv-x="1687" arabic-form="medial" 
d="M1473 236h229v-236h-1704l-104 39v160l104 37h1239v155q0 100 -62.5 162.5t-162.5 62.5h-672l-29 43l396 766h237l-297 -573h365q198 0 329.5 -132t131.5 -329v-155zM614 1425l-399 -763h-102l399 763h102z" />
    <glyph glyph-name="uniFB9F" unicode="&#x6ba;" horiz-adv-x="1511" arabic-form="final" 
d="M1522 236v-236h-209q-14 -245 -183.5 -405t-416.5 -160h-13q-170 0 -307 78t-214 215t-77 307v401h234v-401q0 -163 101 -264t263 -101h13q160 0 262 101.5t102 263.5v946h236v-745h209z" />
    <glyph glyph-name="uniFBA7" unicode="&#x6c1;" horiz-adv-x="1261" arabic-form="final" 
d="M1169 236h66v-236h-66q-157 0 -261.5 104t-106.5 261v444h-234q-94 0 -152.5 -59t-58.5 -154v-373h-235v373q0 191 127.5 319.5t318.5 128.5h469v-675q0 -59 36.5 -96t96.5 -37z" />
    <glyph glyph-name="uniFBA8" unicode="&#x6c1;" horiz-adv-x="645" arabic-form="initial" 
d="M252 971h233v-666q0 -130 -87 -217.5t-216 -87.5h-184l-102 37v162l102 37h96q158 0 158 167v568zM213 -201l4 74h184l-8 -72q-16 -166 -112 -444h-150q4 17 18.5 78t25.5 109.5t22.5 120.5t15.5 134z" />
    <glyph glyph-name="uniFBA9" unicode="&#x6c1;" horiz-adv-x="1527" arabic-form="medial" 
d="M1536 193v-236h-299v-221q0 -193 -128.5 -322t-320.5 -129h-469v672h-313l-104 37v160l104 39h313v452h236v-1124h233q95 0 154 60t59 155v457h535z" />
    <glyph glyph-name="uniFBAB" unicode="&#x6be;" horiz-adv-x="1546" arabic-form="final" 
d="M1257 236h304v-236h-263v-47q0 -225 -111 -353t-339 -128q-208 0 -325.5 135t-123.5 350l-358 -35v234l358 37v356q0 215 132.5 356.5t334.5 141.5q211 0 340 -148.5t129 -392.5q0 -149 -78 -270zM616 526v-313l213 23q133 13 212 80.5t79 189.5q0 154 -68 237.5
t-184 83.5q-109 0 -180.5 -85.5t-71.5 -215.5zM848 -311q113 0 173 78.5t60 209.5v99q-116 -64 -252 -76l-213 -20v-3q0 -133 58 -210.5t174 -77.5z" />
    <glyph glyph-name="uniFBAC" unicode="&#x6be;" horiz-adv-x="1689" arabic-form="initial" 
d="M500 1012q322 74 557 31.5t368.5 -166.5t137.5 -295v-142q0 -183 -129 -311.5t-312 -128.5h-1149l-102 37v162l102 37h316q-72 79 -72 190v109q4 134 81 230.5t202 127.5v119zM1116 236q88 0 149.5 61t61.5 149l-2 136q-5 124 -163 199.5t-386 52.5q109 -25 174.5 -108.5
t65.5 -207.5v-282h100zM815 236v288q0 89 -52 141t-145 52q-97 0 -148.5 -50.5t-51.5 -142.5v-92q0 -78 57 -134t135 -62h205z" />
    <glyph glyph-name="uniFBAD" unicode="&#x6be;" horiz-adv-x="1761" arabic-form="medial" 
d="M1565 236h227v-236h-1808l-103 37v162l103 37h307q-74 77 -74 190v127q0 123 59 217.5t164 140.5v109q329 73 579 28t398 -177t148 -304v-331zM1327 236v331q0 103 -122.5 188t-319.5 103q133 -111 133 -305v-317h309zM727 236h90v325q0 89 -51.5 141t-144.5 52
q-97 0 -150 -51.5t-53 -141.5v-129q0 -78 57 -134t135 -62h117z" />
    <glyph glyph-name="uniFBAF" unicode="&#x6d2;" horiz-adv-x="1482" arabic-form="final" 
d="M1423 -274v-240h-1233v348q0 172 115 287t285 115h903v-236h-903q-74 0 -119 -44.5t-45 -119.5v-110h997z" />
    <glyph glyph-name="uniFBB1" unicode="&#x6d3;" horiz-adv-x="1482" arabic-form="final" 
d="M1016 600v-133h-438v133h73q-49 56 -49 131q0 87 52 140t143 53t146.5 -56t62.5 -161h-121q-6 41 -29 63.5t-57 22.5q-72 0 -72 -76q0 -74 74 -117h215zM590 0q-74 0 -119 -44.5t-45 -119.5v-110h997v-240h-1233v348q0 172 115 287t285 115h903v-236h-903z" />
    <glyph glyph-name="uniFBFD" unicode="&#x6cc;" horiz-adv-x="2113" arabic-form="final" 
d="M1890 236h234v-236h-469v805h-142q-88 0 -143 -56t-55 -145v-541q0 -126 -46.5 -237.5t-126 -190.5t-191.5 -124.5t-238 -45.5h-13q-126 0 -237 45.5t-190.5 125t-125 190.5t-45.5 237v404h234v-404q0 -161 101.5 -261.5t262.5 -100.5h13q161 0 262.5 100.5t101.5 261.5
v541q0 187 125 311.5t311 124.5h377v-804z" />
    <glyph glyph-name="uniFBFE" unicode="&#x6cc;" horiz-adv-x="815" arabic-form="initial" 
d="M582 305q0 -130 -87 -217.5t-216 -87.5h-287l-101 37v162l101 37h196q160 0 160 167v568h234v-666zM160 -195q57 0 99 -42t42 -99q0 -60 -41.5 -101.5t-99.5 -41.5q-59 0 -101.5 41.5t-42.5 101.5q0 57 43 99t101 42zM561 -195q58 0 99.5 -42t41.5 -99q0 -60 -41 -101.5
t-100 -41.5t-101 41.5t-42 101.5q0 57 42.5 99t100.5 42z" />
    <glyph glyph-name="uniFBFF" unicode="&#x6cc;" horiz-adv-x="901" arabic-form="medial" 
d="M741 236h181v-236h-211q-137 0 -244 115q-100 -115 -277 -115h-198l-103 37v160l103 39h203q151 0 155 161l-2 572h238v-473q0 -38 -2 -58v-35q0 -167 157 -167zM227 -190q57 0 99.5 -42.5t42.5 -99.5q0 -58 -42.5 -100.5t-99.5 -42.5q-59 0 -101 42.5t-42 100.5
q0 57 42.5 99.5t100.5 42.5zM629 -190q58 0 99.5 -42.5t41.5 -99.5q0 -59 -41.5 -101t-99.5 -42t-100 42t-42 101q0 57 42 99.5t100 42.5z" />
    <glyph glyph-name="uniFE82" unicode="&#x622;" horiz-adv-x="552" arabic-form="final" 
d="M-35 1632l-51 80l180 156q27 -59 85.5 -86t127.5 -27q58 0 126 21.5t97 46.5l9 -111q-37 -32 -105.5 -53t-126.5 -21q-132 0 -229 91zM137 1425h236v-1097q0 -44 26 -68t60 -24h110v-236h-186q-103 0 -174.5 71t-71.5 175v1179z" />
    <glyph glyph-name="uniFE84" unicode="&#x623;" horiz-adv-x="559" arabic-form="final" 
d="M469 1706v-133h-438v133h73q-49 56 -49 131q0 88 51.5 140.5t143.5 52.5q91 0 146.5 -56t62.5 -162h-121q-6 41 -29 63.5t-57 22.5q-72 0 -72 -75q0 -74 74 -117h215zM459 236h110v-236h-186q-103 0 -174.5 71t-71.5 175v1179h236v-1097q0 -44 26 -68t60 -24z" />
    <glyph glyph-name="uniFE86" unicode="&#x624;" horiz-adv-x="1150" arabic-form="final" 
d="M784 1409v-131h-438v131h76q-53 53 -53 133q0 86 51.5 139.5t142.5 53.5q92 0 147 -56t62 -161h-119q-6 41 -29 62.5t-57 21.5q-73 0 -73 -74q0 -31 18 -63.5t57 -55.5h215zM1167 236v-236h-151v-92q0 -146 -88 -243t-258 -129t-420 26v219q152 -24 254 -25t163.5 27.5
t87 72.5t25.5 109v37h-248q-180 2 -307 133.5t-127 317.5v145q0 192 128.5 320.5t320.5 128.5h22q192 0 319.5 -128.5t127.5 -320.5v-362h151zM535 238h245v360q0 95 -58.5 154t-152.5 59h-22q-94 0 -153.5 -59t-59.5 -154v-145q0 -87 60.5 -151t140.5 -64z" />
    <glyph glyph-name="uniFE88" unicode="&#x625;" horiz-adv-x="557" arabic-form="final" 
d="M459 236h110v-236h-186q-103 0 -174.5 71t-71.5 175v1179h236v-1097q0 -44 26 -68t60 -24zM227 -295q0 -76 76 -119h215v-131h-438v131h74q-52 52 -52 131q0 87 52 140t143 53q92 0 147 -55.5t62 -161.5h-121q-6 42 -29 64t-57 22q-72 0 -72 -74z" />
    <glyph glyph-name="uniFE8A" unicode="&#x626;" horiz-adv-x="2113" arabic-form="final" 
d="M461 784v-131h-438v131h75q-53 53 -53 134q0 86 52 138t143 52q92 0 147 -55t62 -160h-121q-6 40 -28.5 62t-55.5 22q-74 0 -74 -74q0 -31 18.5 -63.5t57.5 -55.5h215zM1890 236h234v-236h-469v805h-142q-88 0 -143 -56t-55 -145v-541q0 -126 -46.5 -237.5t-126 -190.5
t-191.5 -124.5t-238 -45.5h-13q-126 0 -237 45.5t-190.5 125t-125 190.5t-45.5 237v404h234v-404q0 -161 101.5 -261.5t262.5 -100.5h13q161 0 262.5 100.5t101.5 261.5v541q0 187 125 311.5t311 124.5h377v-804z" />
    <glyph glyph-name="uniFE8B" unicode="&#x626;" horiz-adv-x="606" arabic-form="initial" 
d="M362 1272h216v-133h-439v133h74q-51 54 -51 131q0 87 51.5 139.5t142.5 52.5q92 0 147 -55.5t62 -161.5h-119q-6 41 -29 63.5t-57 22.5q-73 0 -73 -75t75 -117zM252 403v568h233v-666q0 -130 -87 -217.5t-216 -87.5h-184l-102 37v162l102 37h96q158 0 158 167z" />
    <glyph glyph-name="uniFE8C" unicode="&#x626;" horiz-adv-x="673" arabic-form="medial" 
d="M541 1284v-133h-439v133h74q-49 56 -49 131q0 88 51.5 140.5t143.5 52.5q91 0 146 -55.5t62 -161.5h-120q-6 41 -29 63.5t-57 22.5q-72 0 -72 -76q0 -74 74 -117h215zM616 236h66v-236h-98q-135 0 -242 115q-100 -115 -276 -115h-68l-102 37v160l102 39h70q155 0 155 167
v566h236v-566q0 -167 157 -167z" />
    <glyph glyph-name="uniFE8E" unicode="&#x627;" horiz-adv-x="552" arabic-form="final" 
d="M137 1425h236v-1097q0 -44 26 -68t60 -24h110v-236h-186q-103 0 -174.5 71t-71.5 175v1179z" />
    <glyph glyph-name="uniFE90" unicode="&#x628;" horiz-adv-x="1849" arabic-form="final" 
d="M1792 236h74v-236h-107q-134 0 -241 115q-100 -115 -279 -115h-715q-189 0 -315.5 126t-126.5 316v310h235v-310q0 -92 57.5 -149t149.5 -57h717q158 0 158 167v566h235v-566q0 -167 158 -167zM874 -238q58 0 100 -42t42 -99q0 -59 -42 -101t-100 -42t-100.5 42
t-42.5 101q0 57 42.5 99t100.5 42z" />
    <glyph glyph-name="uniFE91" unicode="&#x628;" horiz-adv-x="606" arabic-form="initial" 
d="M-33 0v236h197q34 0 60 24t26 68v643h235v-725q0 -104 -70 -175t-173 -71h-275zM281 -520q-59 0 -101.5 41.5t-42.5 101.5q0 57 43 99t101 42q57 0 99 -42t42 -99q0 -59 -42 -101t-99 -42z" />
    <glyph glyph-name="uniFE92" unicode="&#x628;" horiz-adv-x="727" arabic-form="medial" 
d="M655 236h113v-236h-143q-137 0 -244 115q-100 -115 -277 -115h-112l-103 37v160l103 39h117q151 0 155 161l-2 572h238v-473q0 -38 -2 -58v-35q0 -167 157 -167zM379 -231q57 0 99 -42.5t42 -99.5q0 -58 -42 -100.5t-99 -42.5q-59 0 -101 42t-42 101q0 57 42.5 99.5
t100.5 42.5z" />
    <glyph glyph-name="uniFE94" unicode="&#x629;" horiz-adv-x="1224" arabic-form="final" 
d="M410 1212q-59 0 -101.5 42t-42.5 100q0 57 43 99t101 42q57 0 99 -42t42 -99q0 -58 -42 -100t-99 -42zM811 1212q-57 0 -99 42t-42 100q0 57 42 99t99 42q58 0 99.5 -42t41.5 -99q0 -59 -41.5 -100.5t-99.5 -41.5zM1169 236h66v-236h-66q-181 0 -292 137
q-118 -131 -320 -131q-119 0 -219.5 61t-158.5 165t-58 225v141q0 193 127 322t319 129h469v-680q0 -59 36.5 -96t96.5 -37zM801 356v457h-234q-94 0 -152.5 -59.5t-58.5 -155.5v-141q0 -89 59 -151t142 -62q75 0 139.5 29t104.5 83z" />
    <glyph glyph-name="uniFE96" unicode="&#x62a;" horiz-adv-x="1849" arabic-form="final" 
d="M641 981q-59 0 -101 41.5t-42 99.5q0 57 42.5 99.5t100.5 42.5t99.5 -42.5t41.5 -99.5q0 -58 -41 -99.5t-100 -41.5zM1044 981q-59 0 -101 41.5t-42 99.5q0 57 42.5 99.5t100.5 42.5q57 0 99.5 -42.5t42.5 -99.5q0 -58 -42.5 -99.5t-99.5 -41.5zM1792 236h74v-236h-107
q-134 0 -241 115q-100 -115 -279 -115h-715q-189 0 -315.5 126t-126.5 316v310h235v-310q0 -92 57.5 -149t149.5 -57h717q158 0 158 167v566h235v-566q0 -167 158 -167z" />
    <glyph glyph-name="uniFE97" unicode="&#x62a;" horiz-adv-x="823" arabic-form="initial" 
d="M211 1110q-59 0 -101 42t-42 101q0 57 42.5 99.5t100.5 42.5q57 0 99 -42.5t42 -99.5q0 -58 -42 -100.5t-99 -42.5zM612 1110q-57 0 -99 42.5t-42 100.5q0 57 42 99.5t99 42.5q58 0 100 -42.5t42 -99.5q0 -59 -42 -101t-100 -42zM-18 0v236h299q34 0 60 24t26 68v643h235
v-725q0 -104 -70.5 -175t-173.5 -71h-376z" />
    <glyph glyph-name="uniFE98" unicode="&#x62a;" horiz-adv-x="966" arabic-form="medial" 
d="M268 1126q-59 0 -101 42t-42 100q0 57 42.5 99t100.5 42q57 0 99.5 -42t42.5 -99q0 -58 -42.5 -100t-99.5 -42zM670 1126q-57 0 -99.5 42t-42.5 100q0 57 42.5 99t99.5 42q58 0 99.5 -42t41.5 -99q0 -59 -41.5 -100.5t-99.5 -41.5zM733 236h250v-236h-283
q-138 0 -241 115q-100 -115 -277 -115h-190l-103 37v160l103 39h192q156 0 156 167v566h235v-566q0 -167 158 -167z" />
    <glyph glyph-name="uniFE9A" unicode="&#x62b;" horiz-adv-x="1849" arabic-form="final" 
d="M844 1307q-59 0 -101.5 41.5t-42.5 99.5q0 57 43 99t101 42q57 0 99 -42t42 -99q0 -58 -42 -99.5t-99 -41.5zM641 997q-59 0 -101 42t-42 100q0 57 42.5 99t100.5 42t99.5 -42t41.5 -99q0 -59 -41.5 -100.5t-99.5 -41.5zM895 1139q0 57 42 99t99 42q58 0 100 -42t42 -99
q0 -59 -42 -100.5t-100 -41.5q-57 0 -99 42t-42 100zM1792 236h74v-236h-107q-134 0 -241 115q-100 -115 -279 -115h-715q-189 0 -315.5 126t-126.5 316v310h235v-310q0 -92 57.5 -149t149.5 -57h717q158 0 158 167v566h235v-566q0 -167 158 -167z" />
    <glyph glyph-name="uniFE9B" unicode="&#x62b;" horiz-adv-x="858" arabic-form="initial" 
d="M455 1436q-58 0 -100 42t-42 101q0 57 42.5 99t99.5 42q58 0 99.5 -42t41.5 -99q0 -60 -41 -101.5t-100 -41.5zM252 1126q-57 0 -99 42t-42 100q0 57 42 99t99 42q58 0 100.5 -42t42.5 -99q0 -58 -42 -100t-101 -42zM649 1126q-59 0 -101 42t-42 100q0 57 42.5 99
t100.5 42q57 0 99.5 -42t42.5 -99q0 -58 -42.5 -100t-99.5 -42zM-14 0v236h258q34 0 60 24t26 68v643h235v-725q0 -104 -70 -175t-173 -71h-336z" />
    <glyph glyph-name="uniFE9C" unicode="&#x62b;" horiz-adv-x="1007" arabic-form="medial" 
d="M477 1450q-57 0 -99 42.5t-42 100.5q0 57 42 99.5t99 42.5q58 0 99.5 -42.5t41.5 -99.5q0 -59 -41.5 -101t-99.5 -42zM274 1141q-58 0 -99.5 41.5t-41.5 101.5q0 57 42 98t99 41q59 0 101.5 -41t42.5 -98q0 -60 -42.5 -101.5t-101.5 -41.5zM528 1284q0 57 42.5 98
t101.5 41q57 0 99 -41t42 -98q0 -60 -41.5 -101.5t-99.5 -41.5q-59 0 -101.5 41.5t-42.5 101.5zM887 236h137v-236h-248q-138 0 -241 115q-100 -115 -277 -115h-266l-103 37v160l103 39h268q156 0 156 167v275l-2 291h237v-566q0 -68 72 -117.5t164 -49.5z" />
    <glyph glyph-name="uniFE9E" unicode="&#x62c;" horiz-adv-x="1478" arabic-form="final" 
d="M1399 236h104v-236h-864q-135 0 -218 -71t-83 -201q0 -77 41 -139.5t112.5 -100.5t161 -53.5t195.5 -0.5t207 60v-217q-112 -54 -229 -74t-221.5 -6.5t-197.5 57t-160 110.5t-106 161t-39 203q0 226 151.5 366t381.5 142h424q-12 12 -28 40t-29 53.5t-37 75.5t-37 76
q-77 147 -172.5 230t-213.5 101.5t-253 -40.5v217q277 101 512 -22.5t387 -452.5q33 -76 62 -129t48 -80.5t40 -42.5t31.5 -18.5t29.5 -5.5v-2zM582 -268q0 57 42.5 99t100.5 42q57 0 99 -42t42 -99q0 -60 -42 -102t-99 -42q-59 0 -101 42t-42 102z" />
    <glyph glyph-name="uniFE9F" unicode="&#x62c;" horiz-adv-x="1286" arabic-form="initial" 
d="M991 514q34 -76 63 -129.5t48 -80.5t40 -42.5t30.5 -18.5t27.5 -5v-238h-1202l-102 37v160l102 39h864q-12 12 -28 40t-29 53.5t-37 75.5t-37 76q-58 113 -120.5 185.5t-139.5 113t-171 38.5t-208 -46v217q276 101 510 -22.5t389 -452.5zM567 -164q58 0 100 -41t42 -98
q0 -60 -41.5 -101.5t-100.5 -41.5t-100 41.5t-41 101.5q0 57 41.5 98t99.5 41z" />
    <glyph glyph-name="uniFEA0" unicode="&#x62c;" horiz-adv-x="1357" arabic-form="medial" 
d="M1200 236h162v-236h-1364l-102 37v160l102 39h864q-12 12 -28 40t-29 53.5t-37 75.5t-37 76q-58 113 -120.5 185.5t-139.5 113t-171 38.5t-208 -46v217q276 101 510 -22.5t389 -452.5q34 -76 63 -129.5t48 -80.5t40 -42.5t30.5 -18.5t27.5 -5v-2zM596 -164q59 0 101 -41
t42 -98q0 -60 -42 -101.5t-101 -41.5q-58 0 -99.5 42t-41.5 101q0 57 42 98t99 41z" />
    <glyph glyph-name="uniFEA2" unicode="&#x62d;" horiz-adv-x="1542" arabic-form="final" 
d="M1454 236h105v-236h-920q-135 0 -218 -71t-83 -201q0 -77 41 -139.5t112.5 -100.5t161 -53.5t195.5 -0.5t207 60v-217q-112 -54 -229 -74t-221.5 -6.5t-197.5 57t-160 110.5t-106 161t-39 203q0 226 151.5 366t381.5 142h514q-31 9 -71.5 73.5t-94.5 171.5
q-76 147 -171.5 230t-213 101.5t-252.5 -40.5v217q277 101 511 -22.5t386 -452.5q46 -103 71 -154.5t49.5 -80t40.5 -33.5t50 -8v-2z" />
    <glyph glyph-name="uniFEA3" unicode="&#x62d;" horiz-adv-x="1286" arabic-form="initial" 
d="M991 514q34 -76 63 -129.5t48 -80.5t40 -42.5t30.5 -18.5t27.5 -5v-238h-1202l-102 37v160l102 39h864q-12 12 -28 40t-29 53.5t-37 75.5t-37 76q-58 113 -120.5 185.5t-139.5 113t-171 38.5t-208 -46v217q276 101 510 -22.5t389 -452.5z" />
    <glyph glyph-name="uniFEA4" unicode="&#x62d;" horiz-adv-x="1361" arabic-form="medial" 
d="M1204 236h162v-236h-1364l-102 37v160l102 39h864q-12 12 -28 40t-29 53.5t-37 75.5t-37 76q-59 113 -121.5 185.5t-139.5 113t-170.5 38.5t-207.5 -46v217q277 101 510 -22.5t387 -452.5q34 -76 63.5 -129.5t48.5 -80.5t40 -42.5t31 -18.5t28 -5v-2z" />
    <glyph glyph-name="uniFEA6" unicode="&#x62e;" horiz-adv-x="1486" arabic-form="final" 
d="M612 1235q-59 0 -101 41.5t-42 99.5q0 57 42.5 99.5t100.5 42.5q57 0 99.5 -42.5t42.5 -99.5q0 -58 -42.5 -99.5t-99.5 -41.5zM1454 236h105v-236h-920q-135 0 -218 -71t-83 -201q0 -77 41 -139.5t112.5 -100.5t161 -53.5t195.5 -0.5t207 60v-217q-112 -54 -229 -74
t-221.5 -6.5t-197.5 57t-160 110.5t-106 161t-39 203q0 226 151.5 366t381.5 142h514q-31 9 -71.5 73.5t-94.5 171.5q-76 147 -171.5 230t-213 101.5t-252.5 -40.5v217q277 101 511 -22.5t386 -452.5q46 -103 71 -154.5t49.5 -80t40.5 -33.5t50 -8v-2z" />
    <glyph glyph-name="uniFEA7" unicode="&#x62e;" horiz-adv-x="1286" arabic-form="initial" 
d="M373 1188q-57 0 -99.5 41.5t-42.5 99.5q0 57 42.5 99t99.5 42q58 0 99.5 -42t41.5 -99q0 -59 -41 -100t-100 -41zM991 514q34 -76 63 -129.5t48 -80.5t40 -42.5t30.5 -18.5t27.5 -5v-238h-1202l-102 37v160l102 39h864q-12 12 -28 40t-29 53.5t-37 75.5t-37 76
q-58 113 -120.5 185.5t-139.5 113t-171 38.5t-208 -46v217q276 101 510 -22.5t389 -452.5z" />
    <glyph glyph-name="uniFEA8" unicode="&#x62e;" horiz-adv-x="1361" arabic-form="medial" 
d="M377 1188q-59 0 -100 41t-41 100q0 57 41.5 99t99.5 42t99.5 -42t41.5 -99q0 -59 -41 -100t-100 -41zM1204 236h162v-236h-1364l-102 37v160l102 39h864q-12 12 -28 40t-29 53.5t-37 75.5t-37 76q-59 113 -121.5 185.5t-139.5 113t-170.5 38.5t-207.5 -46v217
q277 101 510 -22.5t387 -452.5q34 -76 63.5 -129.5t48.5 -80.5t40 -42.5t31 -18.5t28 -5v-2z" />
    <glyph glyph-name="uniFEAA" unicode="&#x62f;" horiz-adv-x="1138" arabic-form="final" 
d="M934 236h223v-236h-1061v236h602v346q0 100 -62.5 162.5t-162.5 62.5h-225v237h225q197 0 329 -132t132 -330v-346z" />
    <glyph glyph-name="uniFEAC" unicode="&#x630;" horiz-adv-x="1138" arabic-form="final" 
d="M487 1255q-58 0 -100.5 42.5t-42.5 101.5q0 57 42.5 99t100.5 42q57 0 99.5 -42t42.5 -99q0 -58 -42.5 -101t-99.5 -43zM934 236h223v-236h-1061v236h602v346q0 100 -62.5 162.5t-162.5 62.5h-201v237h201q197 0 329 -132t132 -330v-346z" />
    <glyph glyph-name="uniFEAE" unicode="&#x631;" horiz-adv-x="702" arabic-form="final" 
d="M723 236v-236h-184v-25q0 -189 -127 -315.5t-316 -126.5h-102v236h102q91 0 148 57t57 149v1012h238v-751h184z" />
    <glyph glyph-name="uniFEB0" unicode="&#x632;" horiz-adv-x="706" arabic-form="final" 
d="M416 1174q-58 0 -100 42t-42 101q0 57 42 99t100 42t99.5 -42t41.5 -99q0 -59 -41.5 -101t-99.5 -42zM723 236v-236h-184v-25q0 -189 -127 -315.5t-316 -126.5h-102v236h102q91 0 148 57t57 149v1012h238v-751h184z" />
    <glyph glyph-name="uniFEB2" unicode="&#x633;" horiz-adv-x="2686" arabic-form="final" 
d="M2574 236h129v-236h-129q-64 -1 -118.5 25.5t-88.5 76.5q-82 -102 -239 -102h-127q-66 0 -120.5 30t-84.5 74q-72 -104 -227 -104q-79 0 -158 31q-56 15 -94 59v-24q0 -126 -46 -237t-125.5 -190.5t-191.5 -125t-239 -45.5h-13q-256 0 -427 171t-171 427v403h234v-403
q0 -161 102 -262t262 -101h13q162 0 264 101t102 262v753h236v-497q12 -42 44.5 -64t76.5 -22h75q60 0 96 36.5t36 96.5v450h229v-450q0 -60 36 -96.5t97 -36.5h80q59 0 91 36t32 97v635h229v-635q0 -61 36.5 -97t98.5 -36z" />
    <glyph glyph-name="uniFEB3" unicode="&#x633;" horiz-adv-x="1728" arabic-form="initial" 
d="M1331 1028h238v-641q0 -160 -113.5 -273.5t-273.5 -113.5q-182 0 -283 109q-54 -56 -128.5 -84.5t-154.5 -28.5q-159 0 -266 110q-101 -106 -260 -106h-92v236h98q60 0 100 39t40 100v444h233v-444q0 -68 40 -106t114 -38q71 -2 115 37.5t44 106.5v444h236v-444
q0 -65 43 -102t121 -37q63 0 106 44t43 107v641zM-4 0l-102 37v162l102 37v-236z" />
    <glyph glyph-name="uniFEB4" unicode="&#x633;" horiz-adv-x="1841" arabic-form="medial" 
d="M1718 236h127v-236h-127q-65 -1 -119.5 26.5t-87.5 77.5q-84 -104 -239 -104h-144q-65 0 -119.5 30t-84.5 74q-69 -104 -238 -104h-133q-68 0 -124 30.5t-83 78.5q-38 -55 -101.5 -82t-178.5 -27h-66l-102 39v160l102 37h45q74 0 109.5 35t35.5 98v450h234v-450
q0 -65 35 -99t92 -34h92q58 0 93.5 36.5t35.5 96.5v450h229v-450q0 -60 36.5 -96.5t97.5 -36.5h94q59 0 92 36t33 97v645h229v-645q0 -61 36.5 -97t98.5 -36z" />
    <glyph glyph-name="uniFEB6" unicode="&#x634;" horiz-adv-x="2686" arabic-form="final" 
d="M1688 1376q-58 0 -100 42t-42 102q0 57 42.5 98t99.5 41q59 0 101 -41t42 -98q0 -60 -42 -102t-101 -42zM1487 1067q-59 0 -101.5 41.5t-42.5 99.5q0 57 43 99.5t101 42.5q57 0 99 -42.5t42 -99.5q0 -58 -42 -99.5t-99 -41.5zM1739 1208q0 57 42.5 99.5t100.5 42.5
q57 0 99 -42.5t42 -99.5q0 -58 -42 -99.5t-99 -41.5q-59 0 -101 41.5t-42 99.5zM2574 236h129v-236h-129q-64 -1 -118.5 25.5t-88.5 76.5q-82 -102 -239 -102h-127q-66 0 -120.5 30t-84.5 74q-72 -104 -227 -104q-79 0 -158 31q-56 15 -94 59v-24q0 -126 -46 -237
t-125.5 -190.5t-191.5 -125t-239 -45.5h-13q-256 0 -427 171t-171 427v403h234v-403q0 -161 102 -262t262 -101h13q162 0 264 101t102 262v753h236v-497q12 -42 44.5 -64t76.5 -22h75q60 0 96 36.5t36 96.5v450h229v-450q0 -60 36 -96.5t97 -36.5h80q59 0 91 36t32 97v635
h229v-635q0 -61 36.5 -97t98.5 -36z" />
    <glyph glyph-name="uniFEB7" unicode="&#x634;" horiz-adv-x="1728" arabic-form="initial" 
d="M870 1399q-58 0 -99.5 42t-41.5 101q0 57 41.5 99t99.5 42t100 -42t42 -99q0 -59 -42 -101t-100 -42zM668 1090q-58 0 -100 42t-42 101q0 57 42.5 98t99.5 41q58 0 99.5 -41t41.5 -98q0 -60 -41 -101.5t-100 -41.5zM1063 1090q-57 0 -99 42t-42 101q0 57 42 98t99 41
q59 0 101 -41t42 -98q0 -60 -42 -101.5t-101 -41.5zM1331 1028h238v-641q0 -160 -113.5 -273.5t-273.5 -113.5q-182 0 -283 109q-54 -56 -128.5 -84.5t-154.5 -28.5q-159 0 -266 110q-101 -106 -260 -106h-92v236h98q60 0 100 39t40 100v444h233v-444q0 -68 40 -106t114 -38
q71 -2 115 37.5t44 106.5v444h236v-444q0 -65 43 -102t121 -37q63 0 106 44t43 107v641zM-4 0l-102 37v162l102 37v-236z" />
    <glyph glyph-name="uniFEB8" unicode="&#x634;" horiz-adv-x="1841" arabic-form="medial" 
d="M895 1399q-58 0 -99.5 42t-41.5 101q0 57 41.5 99t99.5 42t99.5 -42t41.5 -99q0 -59 -41.5 -101t-99.5 -42zM692 1090q-58 0 -99.5 42t-41.5 101q0 57 42 98t99 41q58 0 100 -41t42 -98q0 -60 -41.5 -101.5t-100.5 -41.5zM946 1233q0 57 42 98t99 41q59 0 101.5 -41
t42.5 -98q0 -60 -42.5 -101.5t-101.5 -41.5q-57 0 -99 42t-42 101zM1718 236h127v-236h-127q-65 -1 -119.5 26.5t-87.5 77.5q-84 -104 -239 -104h-144q-65 0 -119.5 30t-84.5 74q-69 -104 -238 -104h-133q-68 0 -124 30.5t-83 78.5q-38 -55 -101.5 -82t-178.5 -27h-66
l-100 37v162l100 37h45q74 0 109.5 35t35.5 98v450h234v-450q0 -65 35 -99t92 -34h92q58 0 93.5 36.5t35.5 96.5v450h229v-450q0 -60 36.5 -96.5t97.5 -36.5h94q59 0 92 36t33 97v645h229v-645q0 -61 36.5 -97t98.5 -36z" />
    <glyph glyph-name="uniFEBA" unicode="&#x635;" horiz-adv-x="2568" arabic-form="final" 
d="M2394 236h191v-236h-1276q-22 -233 -189.5 -382.5t-406.5 -149.5h-13q-170 0 -306.5 77.5t-214 214t-77.5 306.5v403h234v-403q0 -161 101.5 -262t262.5 -101h13q160 0 262 101t102 262v862h236v-203q285 307 557 307q263 0 393.5 -151t130.5 -463v-182zM2165 236v182
q0 195 -86 289t-236 94q-264 0 -530 -301v-264h852z" />
    <glyph glyph-name="uniFEBB" unicode="&#x635;" horiz-adv-x="1712" arabic-form="initial" 
d="M1030 1032q258 0 391 -147t133 -418q0 -193 -137 -330t-330 -137h-1103v236h229v694h233v-228q303 330 584 330zM1073 236q104 0 178 73.5t74 177.5q0 161 -85.5 237.5t-235.5 76.5q-279 0 -558 -330v-235h627z" />
    <glyph glyph-name="uniFEBC" unicode="&#x635;" horiz-adv-x="1628" arabic-form="medial" 
d="M1503 236h133v-236h-1638v2l-100 37v160l100 34v3h164v694h235v-236q297 338 584 338q263 0 392.5 -151.5t129.5 -464.5v-180zM1276 236v180q0 196 -86 289.5t-238 93.5q-277 0 -555 -328v-235h879z" />
    <glyph glyph-name="uniFEBE" unicode="&#x636;" horiz-adv-x="2568" arabic-form="final" 
d="M1847 1198q-57 0 -99 42t-42 101q0 57 42 98.5t99 41.5q59 0 101.5 -41.5t42.5 -98.5q0 -60 -42.5 -101.5t-101.5 -41.5zM2394 236h191v-236h-1276q-22 -233 -189.5 -382.5t-406.5 -149.5h-13q-170 0 -306.5 77.5t-214 214t-77.5 306.5v403h234v-403q0 -161 101.5 -262
t262.5 -101h13q160 0 262 101t102 262v862h236v-203q285 307 557 307q263 0 393.5 -151t130.5 -463v-182zM2165 236v182q0 195 -86 289t-236 94q-264 0 -530 -301v-264h852z" />
    <glyph glyph-name="uniFEBF" unicode="&#x636;" horiz-adv-x="1712" arabic-form="initial" 
d="M1036 1178q-57 0 -99 41.5t-42 99.5q0 57 42 99t99 42q58 0 100 -42t42 -99q0 -58 -41.5 -99.5t-100.5 -41.5zM1030 1032q258 0 391 -147t133 -418q0 -193 -137 -330t-330 -137h-1103v236h229v694h233v-228q303 330 584 330zM1073 236q104 0 178 73.5t74 177.5
q0 161 -85.5 237.5t-235.5 76.5q-279 0 -558 -330v-235h627z" />
    <glyph glyph-name="uniFEC0" unicode="&#x636;" horiz-adv-x="1628" arabic-form="medial" 
d="M971 1169q-59 0 -101.5 42t-42.5 102q0 57 43 99t101 42q57 0 99 -42t42 -99q0 -60 -42 -102t-99 -42zM1503 236h133v-236h-1638v2l-98 35v162l98 34v3h164v694h235v-236q297 338 584 338q263 0 392.5 -151.5t129.5 -464.5v-180zM1276 236v180q0 196 -86 289.5t-238 93.5
q-277 0 -555 -328v-235h879z" />
    <glyph glyph-name="uniFEC2" unicode="&#x637;" horiz-adv-x="1814" arabic-form="final" 
d="M1665 236h166v-236h-1729v236h222v1189h235v-729q295 336 582 336q264 0 394 -151.5t130 -464.5v-180zM1436 236v180q0 196 -86 289.5t-236 93.5q-277 0 -555 -328v-235h877z" />
    <glyph glyph-name="uniFEC3" unicode="&#x637;" horiz-adv-x="1703" arabic-form="initial" 
d="M1032 1032q127 0 228 -41.5t165 -114.5t97.5 -170t33.5 -212q0 -134 -66 -247.5t-179 -180t-246 -66.5h-1073v236h223v1189h234v-723q303 330 583 330zM1092 236q98 0 166.5 69t68.5 166q0 153 -88 240.5t-233 87.5q-280 0 -557 -330v-233h643z" />
    <glyph glyph-name="uniFEC4" unicode="&#x637;" horiz-adv-x="1777" arabic-form="medial" 
d="M1561 236h225v-236h-1788v2l-100 37v160l100 34v3h221v1189h236v-731q297 338 583 338q263 0 393 -151.5t130 -464.5v-180zM1333 236v180q0 196 -85.5 289.5t-235.5 93.5q-280 0 -557 -330v-233h878z" />
    <glyph glyph-name="uniFEC6" unicode="&#x638;" horiz-adv-x="1820" arabic-form="final" 
d="M1133 1200q-59 0 -101.5 41.5t-42.5 99.5q0 57 43 99.5t101 42.5q57 0 99 -42.5t42 -99.5q0 -58 -42 -99.5t-99 -41.5zM1665 236h166v-236h-1729v236h222v1189h235v-729q295 336 582 336q264 0 394 -151.5t130 -464.5v-180zM1436 236v180q0 196 -86 289.5t-236 93.5
q-277 0 -555 -328v-235h877z" />
    <glyph glyph-name="uniFEC7" unicode="&#x638;" horiz-adv-x="1703" arabic-form="initial" 
d="M1030 1188q-59 0 -101 41.5t-42 101.5q0 57 42.5 99.5t100.5 42.5q57 0 99 -42.5t42 -99.5q0 -59 -41.5 -101t-99.5 -42zM1032 1032q127 0 228 -41.5t165 -114.5t97.5 -170t33.5 -212q0 -134 -66 -247.5t-179 -180t-246 -66.5h-1073v236h223v1189h234v-723
q303 330 583 330zM1092 236q98 0 166.5 69t68.5 166q0 153 -88 240.5t-233 87.5q-280 0 -557 -330v-233h643z" />
    <glyph glyph-name="uniFEC8" unicode="&#x638;" horiz-adv-x="1777" arabic-form="medial" 
d="M1028 1188q-59 0 -101 41.5t-42 101.5q0 57 42.5 99.5t100.5 42.5q57 0 99 -42.5t42 -99.5q0 -59 -41.5 -101t-99.5 -42zM1561 236h225v-236h-1788v2l-98 35v162l98 34v3h221v1189h236v-731q297 338 583 338q263 0 393 -151.5t130 -464.5v-180zM1333 236v180
q0 196 -85.5 289.5t-235.5 93.5q-280 0 -557 -330v-233h878z" />
    <glyph glyph-name="uniFECA" unicode="&#x639;" horiz-adv-x="1298" arabic-form="final" 
d="M88 -254q0 197 110 330.5t308 224.5l-363 481v150q264 108 527 108q232 0 363.5 -94t111.5 -256q-17 -126 -81.5 -224t-184.5 -192q59 -38 137 -38h293v-236h-346q-105 0 -167 32.5t-126 98.5q-21 -12 -65.5 -33t-77 -37t-73.5 -46t-67 -63.5t-44.5 -87t-18.5 -118.5
q0 -95 67 -162t171.5 -92.5t238 -12t260.5 69.5v-217q-112 -54 -230.5 -76t-225 -13t-202 48t-165 101.5t-110 154t-40.5 199.5zM397 770v-8l281 -381q199 160 199 332q0 53 -52.5 87t-126 41.5t-158 -11t-143.5 -60.5z" />
    <glyph glyph-name="uniFECB" unicode="&#x639;" horiz-adv-x="1038" arabic-form="initial" 
d="M688 236h313v-236h-1005l-102 39v160l102 37h219q-106 118 -106 305q0 147 48.5 258t129 173t185 91t217.5 20t224 -49v-217q-108 41 -205.5 45t-173 -28.5t-119.5 -110t-44 -191.5q0 -84 23.5 -143.5t68 -92t99.5 -46.5t126 -14z" />
    <glyph glyph-name="uniFECC" unicode="&#x639;" horiz-adv-x="1308" arabic-form="medial" 
d="M1063 236h254v-236h-406q-166 0 -260 119q-125 -119 -278 -119h-375l-100 39v160l100 37h315q37 0 116 12t101 28l-354 484v174q144 57 256 81.5t234 24.5q218 0 349.5 -81t131.5 -224q0 -58 -25 -125q-18 -51 -40 -92.5t-59.5 -86.5t-56 -64.5t-72.5 -72.5
q-6 -7 -10.5 -11.5t-9.5 -8.5q84 -38 189 -38zM856 645q16 41 16 70q0 106 -213 106q-141 0 -266 -49v-10l281 -381q51 54 75 81.5t56.5 78t50.5 104.5z" />
    <glyph glyph-name="uniFECE" unicode="&#x63a;" horiz-adv-x="1298" arabic-form="final" 
d="M610 1239q-58 0 -99.5 41.5t-41.5 99.5q0 57 41.5 99.5t99.5 42.5t100 -42.5t42 -99.5q0 -58 -41.5 -99.5t-100.5 -41.5zM88 -254q0 197 110 330.5t308 224.5l-363 481v150q264 108 527 108q232 0 363.5 -94t111.5 -256q-17 -126 -81.5 -224t-184.5 -192q59 -38 137 -38
h293v-236h-346q-105 0 -167 32.5t-126 98.5q-21 -12 -65.5 -33t-77 -37t-73.5 -46t-67 -63.5t-44.5 -87t-18.5 -118.5q0 -95 67 -162t171.5 -92.5t238 -12t260.5 69.5v-217q-112 -54 -230.5 -76t-225 -13t-202 48t-165 101.5t-110 154t-40.5 199.5zM397 770v-8l281 -381
q199 160 199 332q0 53 -52.5 87t-126 41.5t-158 -11t-143.5 -60.5z" />
    <glyph glyph-name="uniFECF" unicode="&#x63a;" horiz-adv-x="1038" arabic-form="initial" 
d="M565 1249q-59 0 -101 42t-42 102q0 57 42 98t101 41q57 0 99.5 -41t42.5 -98q0 -59 -42.5 -101.5t-99.5 -42.5zM688 236h313v-236h-1005l-102 37v162l102 37h219q-106 118 -106 305q0 147 48.5 258t129 173t185 91t217.5 20t224 -49v-217q-108 41 -205.5 45t-173 -28.5
t-119.5 -110t-44 -191.5q0 -84 23.5 -143.5t68 -92t99.5 -46.5t126 -14z" />
    <glyph glyph-name="uniFED0" unicode="&#x63a;" horiz-adv-x="1308" arabic-form="medial" 
d="M608 1239q-57 0 -99 41.5t-42 99.5q0 57 42 99.5t99 42.5q58 0 100 -42.5t42 -99.5q0 -58 -41.5 -99.5t-100.5 -41.5zM1063 236h254v-236h-406q-166 0 -260 119q-125 -119 -278 -119h-375l-100 37v162l100 37h315q37 0 116 12t101 28l-354 484v174q144 57 256 81.5
t234 24.5q218 0 349.5 -81t131.5 -224q0 -58 -25 -125q-18 -51 -40 -92.5t-59.5 -86.5t-56 -64.5t-72.5 -72.5q-6 -7 -10.5 -11.5t-9.5 -8.5q84 -38 189 -38zM856 645q16 41 16 70q0 106 -213 106q-141 0 -266 -49v-10l281 -381q51 54 75 81.5t56.5 78t50.5 104.5z" />
    <glyph glyph-name="uniFED2" unicode="&#x641;" horiz-adv-x="1927" arabic-form="final" 
d="M1257 1221q-57 0 -99 42.5t-42 100.5q0 57 42 99t99 42q58 0 100 -42t42 -99q0 -59 -42 -101t-100 -42zM1634 236h303v-236h-1419q-188 3 -312 129t-124 313v263h235v-263q0 -92 57.5 -149t149.5 -57h363q-84 94 -84 215v145q0 193 128 320.5t331 127.5t328.5 -126
t125.5 -322v-145q0 -123 -82 -215zM1483 451v145q0 96 -58.5 154.5t-160.5 58.5q-107 0 -165.5 -56.5t-58.5 -156.5v-145q0 -88 66.5 -151.5t153.5 -63.5q102 0 162.5 61.5t60.5 153.5z" />
    <glyph glyph-name="uniFED3" unicode="&#x641;" horiz-adv-x="1157" arabic-form="initial" 
d="M582 1212q-57 2 -99 42.5t-43 97.5q-1 58 41.5 100.5t102.5 44.5q57 0 99 -42t42 -99q0 -59 -42.5 -101.5t-100.5 -42.5zM590 1047q189 0 318.5 -130.5t129.5 -320.5v-178q0 -172 -122.5 -295t-294.5 -123h-623l-102 39v160l102 39h205q-84 91 -84 215v143
q0 190 129.5 320.5t318.5 130.5h23zM803 440v156q0 93 -60 153t-153 60h-23q-92 0 -151.5 -59.5t-59.5 -153.5v-143q0 -88 59.5 -151.5t139.5 -63.5h43q85 0 145 59t60 143z" />
    <glyph glyph-name="uniFED4" unicode="&#x641;" horiz-adv-x="1185" arabic-form="medial" 
d="M584 1200q-57 0 -99.5 42.5t-42.5 100.5q0 57 42.5 99.5t99.5 42.5q58 0 99.5 -42.5t41.5 -99.5q0 -59 -41.5 -101t-99.5 -42zM971 236h235v-236h-1231l-102 39v160l102 37h248q-82 92 -82 215v145q0 194 127 321t330 127q205 0 331 -125.5t126 -322.5v-145
q0 -124 -84 -215zM819 451v145q0 97 -58 155t-161 58q-106 0 -164.5 -57t-58.5 -156v-145q0 -88 66.5 -151.5t154.5 -63.5q101 0 161 61.5t60 153.5z" />
    <glyph glyph-name="uniFED6" unicode="&#x642;" horiz-adv-x="1691" arabic-form="final" 
d="M924 1178q-57 0 -99.5 41.5t-42.5 99.5q0 57 42.5 99t99.5 42q58 0 99.5 -42t41.5 -99q0 -59 -41.5 -100t-99.5 -41zM1327 1178q-59 0 -101 41.5t-42 99.5q0 57 42.5 99t100.5 42q57 0 99 -42t42 -99q0 -58 -42 -99.5t-99 -41.5zM1575 236h127v-236h-141
q-50 -259 -247 -420.5t-472 -161.5h-6q-207 0 -375 95.5t-263.5 264t-95.5 376.5v227h238v-227q0 -218 139 -358t357 -140h6q191 0 315.5 92.5t165.5 251.5h-215q-188 0 -313 125t-125 313v168q0 186 125.5 311t312.5 125h31q187 0 311.5 -125t124.5 -311v-370zM905 438
q0 -90 56.5 -146t146.5 -56h231v370q0 89 -55.5 145t-144.5 56h-31q-89 0 -146 -56t-57 -145v-168z" />
    <glyph glyph-name="uniFED7" unicode="&#x642;" horiz-adv-x="1157" arabic-form="initial" 
d="M371 1214q-59 0 -100.5 42t-41.5 102q0 57 42 99t100 42t99.5 -42t41.5 -99q0 -60 -41 -102t-100 -42zM774 1214q-59 0 -101 42t-42 102q0 57 42.5 99t100.5 42q57 0 99 -42t42 -99q0 -60 -42 -102t-99 -42zM590 1047q189 0 318.5 -130.5t129.5 -320.5v-178
q0 -172 -122.5 -295t-294.5 -123h-623l-102 39v160l102 39h205q-84 91 -84 215v143q0 190 129.5 320.5t318.5 130.5h23zM803 440v156q0 93 -60 153t-153 60h-23q-92 0 -151.5 -59.5t-59.5 -153.5v-143q0 -88 59.5 -151.5t139.5 -63.5h43q85 0 145 59t60 143z" />
    <glyph glyph-name="uniFED8" unicode="&#x642;" horiz-adv-x="1185" arabic-form="medial" 
d="M369 1196q-59 0 -101.5 42.5t-42.5 100.5q0 57 43 99.5t101 42.5t99.5 -42.5t41.5 -99.5q0 -59 -41.5 -101t-99.5 -42zM772 1196q-58 0 -100.5 42t-42.5 101q0 57 42.5 99.5t100.5 42.5q57 0 99 -42.5t42 -99.5q0 -58 -42 -100.5t-99 -42.5zM971 236h223v-236h-1200
l-103 37v162l103 37h229q-82 92 -82 215v145q0 194 127 321t330 127q205 0 331 -125.5t126 -322.5v-145q0 -124 -84 -215zM819 451v145q0 97 -58 155t-161 58q-106 0 -164.5 -57t-58.5 -156v-145q0 -88 66.5 -151.5t154.5 -63.5q101 0 161 61.5t60 153.5z" />
    <glyph glyph-name="uniFEDA" unicode="&#x643;" horiz-adv-x="1880" arabic-form="final" 
d="M1792 236h98v-236h-131q-134 0 -241 115q-100 -115 -279 -115h-715q-189 0 -315.5 126.5t-126.5 315.5v310h235v-310q0 -92 57.5 -149t149.5 -57h717q158 0 158 167v1022h235v-1022q0 -167 158 -167zM1047 872v-120h-410v120h72q-50 53 -50 125q0 81 49 131t134 50
q84 0 135.5 -52.5t58.5 -150.5h-110q-6 39 -27.5 60.5t-54.5 21.5q-70 0 -70 -72q0 -29 17 -60.5t55 -52.5h201z" />
    <glyph glyph-name="uniFEDB" unicode="&#x643;" horiz-adv-x="1413" arabic-form="initial" 
d="M823 852q195 0 328 -133.5t133 -327.5q0 -161 -114 -276t-275 -115h-895l-102 37v162l102 37h879q75 0 122.5 54t47.5 132q0 94 -62.5 144t-163.5 50h-673l-25 103l399 706l189 -75l-250 -498h360z" />
    <glyph glyph-name="uniFEDC" unicode="&#x643;" horiz-adv-x="1495" arabic-form="medial" 
d="M1278 236h244v-236h-1549l-102 37v162l102 37h1069v155q0 100 -63 162.5t-164 62.5h-672l-28 43l401 766h238l-299 -573h360q198 0 330.5 -132t132.5 -329v-155z" />
    <glyph glyph-name="uniFEDE" unicode="&#x644;" horiz-adv-x="1523" arabic-form="final" 
d="M1530 236v-236h-221q-23 -232 -190 -382t-406 -150h-13q-127 0 -238 45.5t-190 125t-124.5 190.5t-45.5 237v403h234v-403q0 -161 101.5 -262t262.5 -101h13q160 0 262 101t102 262v1359h236v-1189h217z" />
    <glyph glyph-name="uniFEDF" unicode="&#x644;" horiz-adv-x="567" arabic-form="initial" 
d="M195 1425h235v-1179q0 -104 -70.5 -175t-173.5 -71h-188l-102 39v160l102 37h111q34 0 60 24t26 68v1097z" />
    <glyph glyph-name="uniFEE0" unicode="&#x644;" horiz-adv-x="659" arabic-form="medial" 
d="M602 236h66v-236h-99q-138 0 -241 115q-100 -115 -277 -115h-55l-100 39v160l100 37h57q156 0 156 167v1022h235v-1022q0 -167 158 -167z" />
    <glyph glyph-name="uniFEE2" unicode="&#x645;" horiz-adv-x="1480" arabic-form="final" 
d="M1423 236h66v-236h-66q-79 0 -144.5 31.5t-107.5 87.5q-58 -72 -143 -112t-186 -40q-242 0 -381 142q-65 -6 -101 -48t-36 -106v-481h-238v481q0 142 84 246.5t217 132.5l2 266q0 195 129 325t324 130t324.5 -130t129.5 -325v-235q0 -58 35 -93.5t92 -35.5zM842 203
q98 0 158.5 60.5t60.5 158.5v178q0 97 -60.5 158t-158.5 61q-97 0 -157 -61t-60 -158v-319q37 -41 87.5 -59.5t129.5 -18.5z" />
    <glyph glyph-name="uniFEE3" unicode="&#x645;" horiz-adv-x="1255" arabic-form="initial" 
d="M688 1049q192 0 320.5 -129.5t128.5 -321.5v-141q0 -185 -129 -318t-310 -133q-197 0 -342 123q-45 -61 -115 -95t-155 -34h-88l-102 37v162l102 37h88q58 0 94.5 37t36.5 96v229q0 192 128.5 321.5t320.5 129.5h22zM901 457v141q0 96 -59.5 155.5t-153.5 59.5h-22
q-94 0 -153.5 -59.5t-59.5 -155.5v-242q40 -54 105 -83t140 -29q83 0 143 62.5t60 150.5z" />
    <glyph glyph-name="uniFEE4" unicode="&#x645;" horiz-adv-x="1304" arabic-form="medial" 
d="M1255 236h70v-236h-70q-88 0 -159 37.5t-115 103.5q-55 -63 -132 -99t-163 -36q-197 0 -342 123q-45 -61 -115.5 -95t-154.5 -34h-78l-100 37v162l100 37h78q58 0 94.5 37t36.5 96v229q0 192 128 321.5t320 129.5h23q192 0 320 -129.5t128 -321.5v-229q0 -59 36.5 -96
t94.5 -37zM686 244q83 0 143 62.5t60 150.5v141q0 96 -59.5 155.5t-153.5 59.5h-23q-94 0 -153.5 -59.5t-59.5 -155.5v-242q40 -54 105.5 -83t140.5 -29z" />
    <glyph glyph-name="uniFEE6" unicode="&#x646;" horiz-adv-x="1511" arabic-form="final" 
d="M635 897q-57 0 -99 42.5t-42 100.5q0 57 42 99.5t99 42.5q58 0 100.5 -42.5t42.5 -99.5q0 -58 -42 -100.5t-101 -42.5zM1522 236v-236h-209q-14 -245 -183.5 -405t-416.5 -160h-13q-170 0 -307 78t-214 215t-77 307v401h234v-401q0 -163 101 -264t263 -101h13
q160 0 262 101.5t102 263.5v946h236v-745h209z" />
    <glyph glyph-name="uniFEE7" unicode="&#x646;" horiz-adv-x="606" arabic-form="initial" 
d="M348 1108q-59 0 -100 41.5t-41 101.5q0 57 41.5 99.5t99.5 42.5t99.5 -42.5t41.5 -99.5q0 -60 -41 -101.5t-100 -41.5zM-33 0v236h197q34 0 60 24t26 68v643h235v-725q0 -104 -70 -175t-173 -71h-275z" />
    <glyph glyph-name="uniFEE8" unicode="&#x646;" horiz-adv-x="655" arabic-form="medial" 
d="M313 1122q-58 0 -100.5 42.5t-42.5 101.5q0 57 42.5 99t100.5 42t100 -42t42 -99q0 -59 -42 -101.5t-100 -42.5zM610 236h66v-236h-98q-68 0 -131.5 31t-110.5 84q-100 -115 -277 -115h-67l-103 37v160l103 39h69q156 0 156 167v566h236v-566q0 -167 157 -167z" />
    <glyph glyph-name="uniFEEA" unicode="&#x647;" horiz-adv-x="1226" arabic-form="final" 
d="M1169 236h66v-236h-66q-181 0 -292 137q-118 -131 -320 -131q-119 0 -219.5 61t-158.5 165t-58 225v141q0 193 127 322t319 129h469v-680q0 -59 36.5 -96t96.5 -37zM801 356v457h-234q-94 0 -152.5 -59.5t-58.5 -155.5v-141q0 -89 59 -151t142 -62q75 0 139.5 29
t104.5 83z" />
    <glyph glyph-name="uniFEEB" unicode="&#x647;" horiz-adv-x="1689" arabic-form="initial" 
d="M500 1012q322 74 557 31.5t368.5 -166.5t137.5 -295v-142q0 -183 -129 -311.5t-312 -128.5h-1149l-102 37v162l102 37h316q-72 79 -72 190v109q4 134 81 230.5t202 127.5v119zM1116 236q88 0 149.5 61t61.5 149l-2 136q-5 124 -163 199.5t-386 52.5q109 -25 174.5 -108.5
t65.5 -207.5v-282h100zM815 236v288q0 89 -52 141t-145 52q-97 0 -148.5 -50.5t-51.5 -142.5v-92q0 -78 57 -134t135 -62h205z" />
    <glyph glyph-name="uniFEEC" unicode="&#x647;" horiz-adv-x="1327" arabic-form="medial" 
d="M1110 236h293v-236h-256v-59q0 -105 -26.5 -189.5t-80 -147.5t-140.5 -97.5t-202 -34.5q-214 0 -332 141t-118 364v23h-295v236h295v313q0 215 132.5 356.5t334.5 141.5q211 0 340 -148.5t129 -392.5q0 -147 -74 -270zM465 526v-290h213q130 0 210.5 72.5t80.5 197.5
q0 154 -68 237.5t-184 83.5q-109 0 -180.5 -85.5t-71.5 -215.5zM-152 37v162l103 37v-236zM698 -311q111 0 171.5 78.5t60.5 209.5v84q-116 -61 -252 -61h-213v-23q0 -133 58 -210.5t175 -77.5z" />
    <glyph glyph-name="uniFEEE" unicode="&#x648;" horiz-adv-x="1114" arabic-form="final" 
d="M1124 236v-236h-108v-92q0 -146 -88 -243t-258 -129t-420 26v219q152 -24 254 -25t163.5 27.5t87 72.5t25.5 109v37h-248q-180 2 -307 133.5t-127 317.5v145q0 192 128.5 320.5t320.5 128.5h22q192 0 319.5 -128.5t127.5 -320.5v-362h108zM535 238h245v360
q0 95 -58.5 154t-152.5 59h-22q-94 0 -153.5 -59t-59.5 -154v-145q0 -87 60.5 -151t140.5 -64z" />
    <glyph glyph-name="uniFEF0" unicode="&#x649;" horiz-adv-x="2113" arabic-form="final" 
d="M1890 236h234v-236h-469v805h-142q-88 0 -143 -56t-55 -145v-541q0 -126 -46.5 -237.5t-126 -190.5t-191.5 -124.5t-238 -45.5h-13q-126 0 -237 45.5t-190.5 125t-125 190.5t-45.5 237v404h234v-404q0 -161 101.5 -261.5t262.5 -100.5h13q161 0 262.5 100.5t101.5 261.5
v541q0 187 125 311.5t311 124.5h377v-804z" />
    <glyph glyph-name="uniFEF2" unicode="&#x64a;" horiz-adv-x="2113" arabic-form="final" 
d="M1890 236h234v-236h-469v805h-142q-88 0 -143 -56t-55 -145v-541q0 -126 -46.5 -237.5t-126 -190.5t-191.5 -124.5t-238 -45.5h-13q-126 0 -237 45.5t-190.5 125t-125 190.5t-45.5 237v404h234v-404q0 -161 101.5 -261.5t262.5 -100.5h13q161 0 262.5 100.5t101.5 261.5
v541q0 187 125 311.5t311 124.5h377v-804zM479 -637q58 0 100 -42t42 -99q0 -60 -41.5 -102t-100.5 -42q-57 0 -99 42t-42 102q0 57 42 99t99 42zM883 -637q57 0 99 -42t42 -99q0 -60 -42 -102t-99 -42q-59 0 -101.5 42t-42.5 102q0 57 43 99t101 42z" />
    <glyph glyph-name="uniFEF3" unicode="&#x64a;" horiz-adv-x="839" arabic-form="initial" 
d="M-23 0v236h377q33 0 59.5 24t26.5 68v643h236v-725q0 -104 -71.5 -175t-174.5 -71h-453zM182 -479q-59 0 -101 41.5t-42 101.5q0 57 42.5 99t100.5 42t100 -42t42 -99q0 -60 -41.5 -101.5t-100.5 -41.5zM584 -479q-58 0 -100 42t-42 101q0 57 42.5 99t99.5 42
q58 0 99.5 -42t41.5 -99q0 -60 -41 -101.5t-100 -41.5z" />
    <glyph glyph-name="uniFEF4" unicode="&#x64a;" horiz-adv-x="901" arabic-form="medial" 
d="M741 236h181v-236h-211q-137 0 -244 115q-100 -115 -277 -115h-198l-103 37v160l103 39h203q151 0 155 161l-2 572h238v-473q0 -38 -2 -58v-35q0 -167 157 -167zM227 -190q57 0 99.5 -42.5t42.5 -99.5q0 -58 -42.5 -100.5t-99.5 -42.5q-59 0 -101 42.5t-42 100.5
q0 57 42.5 99.5t100.5 42.5zM629 -190q58 0 99.5 -42.5t41.5 -99.5q0 -59 -41.5 -101t-99.5 -42t-100 42t-42 101q0 57 42 99.5t100 42.5z" />
    <glyph glyph-name=".notdef" horiz-adv-x="997" 
 />
    <glyph glyph-name=".null" 
 />
    <glyph glyph-name="nonmarkingreturn" horiz-adv-x="682" 
 />
    <glyph glyph-name="space" unicode=" " horiz-adv-x="382" 
 />
    <glyph glyph-name="exclam" unicode="!" horiz-adv-x="622" 
d="M412 412h-199l-20 938h239zM311 -20q-54 0 -92.5 38t-38.5 93q0 54 38.5 91.5t92.5 37.5q53 0 92 -38t39 -91q0 -55 -39 -93t-92 -38z" />
    <glyph glyph-name="quotedbl" unicode="&#x22;" horiz-adv-x="722" 
d="M287 893h-160v500h160v-500zM596 893h-160v500h160v-500z" />
    <glyph glyph-name="numbersign" unicode="#" horiz-adv-x="1288" 
d="M741 352h-301l-59 -352h-174l55 352h-201l29 178h203l49 295h-205l31 176h203l57 353h176l-57 -353h299l59 353h176l-59 -353h205l-31 -176h-201l-51 -295h205l-31 -178h-203l-55 -352h-178zM770 530l47 295h-301l-47 -295h301z" />
    <glyph glyph-name="dollar" unicode="$" horiz-adv-x="1269" 
d="M567 -199l2 166q-220 14 -347.5 131.5t-133.5 325.5h250q6 -98 67.5 -160.5t167.5 -75.5l2 424l-69 17q-187 51 -283.5 144.5t-97.5 240.5q0 174 127.5 290.5t331.5 133.5l2 161h141l-2 -165q197 -19 314 -135t122 -295h-250q-6 82 -55.5 137.5t-132.5 68.5l-4 -403
l47 -10q215 -48 316.5 -152.5t99.5 -259.5q-1 -183 -126.5 -294.5t-342.5 -125.5l-4 -164h-142zM580 846l2 368q-84 -10 -134.5 -60t-52.5 -122q0 -68 44 -111.5t141 -74.5zM715 188q92 12 146 65.5t52 131.5q1 67 -44 109.5t-152 78.5z" />
    <glyph glyph-name="percent" unicode="%" horiz-adv-x="2170" 
d="M539 512q-178 0 -272.5 129t-94.5 346q0 214 94.5 342.5t272.5 128.5t272 -128.5t94 -342.5q0 -217 -94 -346t-272 -129zM1139 1331h209l-402 -1558h-209zM539 672q92 0 136 85t44 230q0 144 -43.5 227.5t-136.5 83.5q-92 0 -135.5 -83t-43.5 -228t43.5 -230t135.5 -85z
M1640 -244q-178 0 -272 129.5t-94 347.5q0 213 94.5 342.5t271.5 129.5q119 0 203 -61.5t124 -166.5t40 -244q0 -218 -94.5 -347.5t-272.5 -129.5zM1640 -84q91 0 135 86t44 231q0 144 -44 228t-135 84q-93 0 -136.5 -83.5t-43.5 -228.5t44 -231t136 -86z" />
    <glyph glyph-name="ampersand" unicode="&#x26;" horiz-adv-x="1290" 
d="M547 -20q-205 0 -333 114t-128 281q-6 113 56 203.5t216 177.5l-4 6q-75 95 -112 173t-37 163q0 150 108 255t271 105q155 0 252.5 -97t97.5 -239q0 -192 -197 -334l-82 -59l273 -323q68 118 80 260l206 -2q-10 -262 -133 -431l201 -231h-262l-94 111q-1 -2 -4 -5.5
t-4 -5.5q-145 -122 -371 -122zM614 922q82 58 110.5 136.5t-9.5 135.5t-131 57q-70 0 -117 -45.5t-47 -111.5q0 -45 24.5 -91t94.5 -135zM487 610q-88 -68 -120.5 -112.5t-32.5 -106.5q0 -89 65 -147t166 -58q123 3 215 82z" />
    <glyph glyph-name="quotesingle" unicode="'" horiz-adv-x="512" 
d="M393 1477q-16 -167 -112 -445h-150q4 17 18.5 78t25.5 109.5t22.5 121t15.5 134.5l4 73h184z" />
    <glyph glyph-name="parenleft" unicode="(" horiz-adv-x="768" 
d="M205 512q0 471 244 838h233q-105 -163 -168 -388.5t-63 -449.5t63 -450.5t168 -387.5h-233q-244 367 -244 838z" />
    <glyph glyph-name="parenright" unicode=")" horiz-adv-x="768" 
d="M563 512q0 -471 -244 -838h-233q105 163 168 388.5t63 449.5t-63 450.5t-168 387.5h233q244 -367 244 -838z" />
    <glyph glyph-name="asterisk" unicode="*" horiz-adv-x="1114" 
d="M498 895l-236 -150l-74 127l248 125l-248 127l74 127l236 -149l-13 278h144l-13 -278l236 149l72 -127l-246 -127l246 -125l-72 -127l-236 150l13 -279h-144z" />
    <glyph glyph-name="plus" unicode="+" horiz-adv-x="1212" 
d="M1051 631v-182h-351v-363h-182v363h-358v182h358v346h182v-346h351z" />
    <glyph glyph-name="comma" unicode="," horiz-adv-x="573" 
d="M393 102q-16 -166 -112 -444h-150q4 17 18.5 78t25.5 109.5t22.5 120.5t15.5 134l4 74h184z" />
    <glyph glyph-name="hyphen" unicode="-" horiz-adv-x="903" 
d="M743 449h-583v182h583v-182z" />
    <glyph glyph-name="period" unicode="." horiz-adv-x="565" 
d="M283 -10q-46 0 -78.5 32t-32.5 78q-1 45 32 78t79 33q45 0 78.5 -33t33.5 -78q-1 -46 -34.5 -78t-77.5 -32z" />
    <glyph glyph-name="slash" unicode="/" horiz-adv-x="792" 
d="M299 -227h-209l402 1558h208z" />
    <glyph glyph-name="zero" unicode="0" horiz-adv-x="1316" 
d="M657 -25q-135 0 -241 53t-174.5 149.5t-104 229t-35.5 293.5q0 214 61.5 373.5t188 251.5t305.5 92q180 0 307 -92t188.5 -251.5t61.5 -373.5q0 -216 -61.5 -377.5t-188.5 -254.5t-307 -93zM657 201q100 0 166 67t93.5 175.5t27.5 256.5q0 111 -16 199t-49.5 155
t-89.5 103.5t-132 36.5q-100 0 -165 -65t-92 -172t-27 -257q0 -110 15.5 -198.5t48.5 -157t88.5 -106t131.5 -37.5z" />
    <glyph glyph-name="one" unicode="1" horiz-adv-x="720" 
d="M336 -4l6 1153l-219 -162l-72 240l367 174h55h133v-1405h-270z" />
    <glyph glyph-name="two" unicode="2" horiz-adv-x="1122" 
d="M84 199q381 305 520 465t139 301q0 66 -23 115t-62 75t-81.5 37.5t-89.5 11.5q-166 0 -356 -80l-49 189q234 104 463 104q217 0 342 -112.5t125 -298.5q0 -62 -13 -119t-33 -105.5t-61 -103.5t-80 -98.5t-109 -106.5t-128 -112.5t-155 -130.5q-15 -13 -23 -19l630 -4
v-211h-956v203z" />
    <glyph glyph-name="three" unicode="3" horiz-adv-x="1171" 
d="M707 735q179 -25 270.5 -123.5t91.5 -234.5q0 -195 -139 -298.5t-389 -103.5q-268 0 -465 101v203q213 -91 434 -91q68 0 119 14t80 34.5t47.5 49.5t24 55t5.5 54q0 201 -297 201h-180v201h170q129 0 202 61.5t73 149.5q0 35 -11 67.5t-36.5 64.5t-77.5 51t-125 19
q-183 0 -361 -88l-67 195q224 100 479 100q210 0 338.5 -94.5t128.5 -275.5q0 -139 -88.5 -218.5t-226.5 -93.5z" />
    <glyph glyph-name="four" unicode="4" horiz-adv-x="1206" 
d="M987 528h156v-217h-156v-315h-270v315h-654v215l599 871h325v-869zM332 528h385l6 584z" />
    <glyph glyph-name="five" unicode="5" horiz-adv-x="1140" 
d="M381 907q678 -23 678 -489q0 -198 -141 -320.5t-383 -122.5q-265 0 -455 105v205q96 -49 217.5 -73t226.5 -24q128 0 196 61.5t68 162.5q0 149 -153.5 214.5t-493.5 73.5l25 697h811l-74 -213h-504z" />
    <glyph glyph-name="six" unicode="6" horiz-adv-x="1236" 
d="M686 936q201 0 325 -124.5t124 -348.5q0 -220 -141 -354t-363 -134q-112 0 -202.5 36t-150.5 96.5t-100.5 145t-58 177.5t-17.5 197q0 170 32.5 304.5t89.5 224.5t138.5 149.5t175 85.5t203.5 26q67 0 134.5 -11.5t106.5 -23t110 -34.5l-5 -197q-119 36 -191.5 47.5
t-147.5 11.5q-77 0 -140.5 -27.5t-106 -70.5t-73.5 -101t-46.5 -115t-21.5 -116q60 74 146 115t180 41zM633 188q108 0 176 72t68 191q0 40 -6.5 76t-24 74t-44.5 65.5t-73 45t-106 17.5q-69 0 -137 -36.5t-113 -96.5q0 -70 5.5 -124.5t22 -109.5t44.5 -91.5t75.5 -59.5
t112.5 -23z" />
    <glyph glyph-name="seven" unicode="7" horiz-adv-x="1005" 
d="M690 1190l-635 -6v213h895v-168l-510 -1233h-262z" />
    <glyph glyph-name="eight" unicode="8" horiz-adv-x="1271" 
d="M874 733q150 -69 227 -153t77 -203q0 -103 -43.5 -182t-120.5 -126t-173.5 -70.5t-209.5 -23.5q-111 0 -205.5 21t-170 64.5t-118.5 117t-43 170.5q0 122 80 212t221 145q-115 47 -190.5 134t-75.5 203q0 92 42 165t114.5 118t163 68.5t192.5 23.5q130 0 240.5 -39
t183 -123t72.5 -200q0 -112 -66 -186t-197 -136zM635 1217q-85 0 -152 -47t-67 -128q0 -150 252 -208q198 74 198 198q0 87 -67.5 136t-163.5 49zM631 176q126 0 193 52t67 137q0 27 -10 52t-23.5 43.5t-40 37.5t-46.5 31t-56.5 27.5t-57 23.5t-59.5 22
q-100 -34 -164.5 -91.5t-64.5 -133.5q0 -91 65.5 -146t196.5 -55z" />
    <glyph glyph-name="nine" unicode="9" horiz-adv-x="1236" 
d="M606 1417q112 0 202.5 -35.5t150.5 -96t100.5 -144.5t58 -177t17.5 -198q0 -170 -32.5 -304.5t-89.5 -225t-138.5 -150t-175 -85.5t-203.5 -26q-175 0 -351 58v196q207 -47 344 -47q76 0 139.5 27t106 70.5t74 101t47 115t21.5 116.5q-60 -73 -146 -114t-180 -41
q-202 0 -325.5 124t-123.5 349q0 220 141 353.5t363 133.5zM614 664q68 0 136.5 37t113.5 96q0 58 -4 104.5t-14 95t-29 84t-47 64.5t-70.5 44t-97.5 15q-107 0 -174.5 -71.5t-67.5 -190.5q0 -50 11 -94.5t37.5 -88t79 -69.5t126.5 -26z" />
    <glyph glyph-name="colon" unicode=":" horiz-adv-x="565" 
d="M283 674q-54 0 -92.5 38.5t-38.5 92.5q0 53 38.5 91t92.5 38q53 0 92 -38.5t39 -90.5q0 -54 -39 -92.5t-92 -38.5zM283 -10q-54 0 -92.5 37.5t-38.5 91.5t38.5 91.5t92.5 37.5q53 0 92 -38t39 -91t-39 -91t-92 -38z" />
    <glyph glyph-name="semicolon" unicode=";" horiz-adv-x="573" 
d="M313 731q-57 0 -97 40t-40 97q0 56 40 97t97 41q55 0 96.5 -41t41.5 -97q0 -57 -41 -97t-97 -40zM403 238q-7 -74 -26 -153t-47.5 -171.5t-36.5 -120.5h-154q1 5 22 92.5t29 125.5t20 108.5t15 122.5l6 67h179z" />
    <glyph glyph-name="less" unicode="&#x3c;" horiz-adv-x="1316" 
d="M188 819l940 449v-242l-677 -315v-11l677 -315v-242l-940 449v227z" />
    <glyph glyph-name="equal" unicode="=" horiz-adv-x="1212" 
d="M1051 449h-891v182h891v-182zM1051 37h-891v182h891v-182z" />
    <glyph glyph-name="greater" unicode="&#x3e;" horiz-adv-x="1318" 
d="M188 143v242l678 315v11l-678 315v242l940 -449v-227z" />
    <glyph glyph-name="question" unicode="?" horiz-adv-x="1089" 
d="M401 455q0 88 18 147t51 97.5t93 78.5q85 59 122.5 104.5t37.5 104.5q0 79 -54.5 130.5t-133.5 51.5q-88 0 -147.5 -57.5t-59.5 -144.5h-219q0 185 120.5 287t305.5 102q190 0 311 -95.5t121 -261.5q0 -101 -51 -173t-158 -142q-84 -57 -118 -105t-34 -124v-58h-205v58z
M508 -33q-56 0 -93.5 37.5t-37.5 93.5q-1 54 37 91.5t94 37.5q53 0 92.5 -38t38.5 -91q-1 -55 -39.5 -93t-91.5 -38z" />
    <glyph glyph-name="at" unicode="@" horiz-adv-x="2035" 
d="M1040 -328q-276 0 -485.5 114t-322.5 319.5t-113 474.5q0 202 66.5 375.5t187 298.5t297 196.5t387.5 71.5q264 0 468.5 -109t318.5 -312t114 -470q1 -253 -112 -395.5t-316 -157.5q-90 -6 -142 43.5t-57 128.5h-6q-33 -80 -138.5 -129.5t-223.5 -44.5q-82 4 -156.5 38
t-135 95t-96.5 158.5t-36 216.5q1 119 36.5 217t94 159t127.5 96.5t143 43.5q118 13 224 -32t139 -116h8v133h184v-704q0 -62 15.5 -85.5t52.5 -23.5q81 0 135.5 100t54.5 273q0 145 -41 262.5t-109 193.5t-159.5 127.5t-187.5 73t-199 21.5q-170 0 -309 -58.5t-229.5 -159
t-139.5 -233t-49 -282.5q2 -327 199.5 -523t525.5 -196q119 0 229.5 26.5t190.5 71.5l67 -174q-81 -55 -215.5 -89t-286.5 -34zM1032 274q128 0 195 86t65 232q0 133 -65.5 219t-198.5 86q-126 0 -203 -84.5t-77 -222.5q0 -133 75 -224.5t209 -91.5z" />
    <glyph glyph-name="A" unicode="A" horiz-adv-x="1327" 
d="M907 334h-491l-109 -338h-264l522 1411h221l506 -1411h-274zM664 1124l-199 -589h395z" />
    <glyph glyph-name="B" unicode="B" horiz-adv-x="1275" 
d="M932 719q123 -34 196.5 -119.5t73.5 -218.5q0 -181 -119.5 -283t-332.5 -102h-627v1401h586q212 0 327 -95.5t115 -269.5q0 -115 -58.5 -196t-160.5 -117zM393 1174v-349h297q100 0 150.5 42t50.5 132q0 87 -52 131t-149 44h-297zM719 221q213 0 213 189q0 96 -61 143
t-169 47h-309v-379h326z" />
    <glyph glyph-name="C" unicode="C" horiz-adv-x="1306" 
d="M1208 82q-239 -107 -473 -107q-165 0 -288 52t-197.5 148.5t-111 226.5t-36.5 294t36.5 294t111 226.5t197.5 148.5t288 52q236 0 473 -106v-207q-297 90 -444 90q-193 0 -292 -125.5t-99 -372.5q0 -246 99 -370.5t292 -124.5q154 0 444 88v-207z" />
    <glyph glyph-name="D" unicode="D" horiz-adv-x="1353" 
d="M123 -4v1401h522q157 0 275.5 -49t193 -141.5t111.5 -219.5t37 -287q0 -332 -153.5 -518t-463.5 -186h-522zM645 221q346 0 346 479q0 242 -86 358t-260 116h-254v-953h254z" />
    <glyph glyph-name="E" unicode="E" horiz-adv-x="1140" 
d="M1057 1174h-664v-340h572v-224h-572v-389h674v-225h-944v1401h934v-223z" />
    <glyph glyph-name="F" unicode="F" horiz-adv-x="1077" 
d="M1026 1174h-633v-381h539v-224h-539v-573h-270v1401h903v-223z" />
    <glyph glyph-name="G" unicode="G" horiz-adv-x="1331" 
d="M938 694h270v-612q-239 -107 -473 -107q-165 0 -288 52t-197.5 148.5t-111 226.5t-36.5 294t36.5 294t111 226.5t197.5 148.5t288 52q224 0 461 -106v-217q-230 100 -432 100q-193 0 -292 -125.5t-99 -372.5q0 -242 99 -368.5t269 -126.5q102 0 197 32v461z" />
    <glyph glyph-name="H" unicode="H" horiz-adv-x="1345" 
d="M123 -4v1401h270v-563h559v563h271v-1401h-271v614h-559v-614h-270z" />
    <glyph glyph-name="I" unicode="I" horiz-adv-x="516" 
d="M123 -4v1401h270v-1401h-270z" />
    <glyph glyph-name="J" unicode="J" horiz-adv-x="684" 
d="M561 338q0 -186 -79.5 -274.5t-243.5 -88.5q-100 0 -213 23l26 213q68 -10 113 -10q65 0 96 40.5t31 108.5v1047h270v-1059z" />
    <glyph glyph-name="K" unicode="K" horiz-adv-x="1335" 
d="M1288 -4h-346l-549 709v-709h-270v1401h270v-688l553 688h328l-567 -680z" />
    <glyph glyph-name="L" unicode="L" horiz-adv-x="1079" 
d="M393 1397v-1176h643v-225h-913v1401h270z" />
    <glyph glyph-name="M" unicode="M" horiz-adv-x="1673" 
d="M1208 1397h342v-1401h-270l6 1003l-368 -780h-187l-366 780l6 -1003h-248v1401h336l219 -469l164 -361l155 361z" />
    <glyph glyph-name="N" unicode="N" horiz-adv-x="1378" 
d="M1008 1401h247v-1401h-262l-628 934l6 -934h-248v1401h246l643 -959z" />
    <glyph glyph-name="O" unicode="O" horiz-adv-x="1439" 
d="M719 -25q-156 0 -275 52.5t-193 149t-111.5 228t-37.5 295.5q0 162 37.5 292t111.5 226t193 147.5t275 51.5t275 -52t193.5 -147.5t112 -225.5t37.5 -292q0 -163 -37.5 -295t-112 -228.5t-193.5 -149t-275 -52.5zM719 201q94 0 162.5 37t108.5 106t58.5 157t18.5 199
q0 494 -348 494q-172 0 -259 -124.5t-87 -369.5q0 -88 11 -161.5t37 -137t65.5 -107t98.5 -68.5t134 -25z" />
    <glyph glyph-name="P" unicode="P" horiz-adv-x="1259" 
d="M393 510v-514h-270v1401h594q211 0 340 -121t129 -322q0 -205 -127 -324.5t-342 -119.5h-324zM393 735h299q105 0 165.5 53.5t60.5 165.5q0 109 -62 164.5t-164 55.5h-299v-439z" />
    <glyph glyph-name="Q" unicode="Q" horiz-adv-x="1439" 
d="M1063 -354l-344 329q-156 0 -275 52.5t-193 149t-111.5 228t-37.5 295.5q0 162 37.5 292t111.5 226t193 147.5t275 51.5t275 -52t193.5 -147.5t112 -225.5t37.5 -292q0 -256 -89.5 -425t-266.5 -234l248 -244zM719 201q94 0 162.5 37t108.5 106t58.5 157t18.5 199
q0 494 -348 494q-172 0 -259 -124.5t-87 -369.5q0 -88 11 -161.5t37 -137t65.5 -107t98.5 -68.5t134 -25z" />
    <glyph glyph-name="R" unicode="R" horiz-adv-x="1275" 
d="M913 553l324 -557h-305l-287 520h-252v-520h-270v1401h594q211 0 340 -119.5t129 -321.5q0 -153 -71.5 -256.5t-201.5 -146.5zM692 739q101 0 163.5 55.5t62.5 161.5q0 104 -64 161t-160 57h-301v-435h299z" />
    <glyph glyph-name="S" unicode="S" horiz-adv-x="1193" 
d="M596 -25q-280 0 -524 68v219q330 -69 514 -69q125 0 194.5 54.5t69.5 133.5q0 30 -10.5 55.5t-34.5 46t-46.5 35t-65 31t-71 25.5t-80.5 25q-2 1 -3.5 1t-3 1t-3.5 1q-53 16 -89.5 29t-86.5 34.5t-83.5 43.5t-70 55t-58.5 70t-36 88t-14 110q0 98 37.5 173t105.5 120.5
t158 68.5t201 23q234 0 494 -74v-225q-278 80 -488 80q-237 0 -237 -166q0 -25 9 -46.5t21 -38t37.5 -32t45 -26t56.5 -23.5t60 -20t67 -20q11 -3 17 -5q53 -15 89.5 -27t87 -33t84.5 -42t71 -53.5t59 -69.5t36.5 -87.5t14.5 -109.5q0 -105 -39.5 -187t-110 -133
t-165.5 -77.5t-209 -26.5z" />
    <glyph glyph-name="T" unicode="T" horiz-adv-x="1142" 
d="M1092 1174h-385v-1178h-271v1178h-383v223h1039v-223z" />
    <glyph glyph-name="U" unicode="U" horiz-adv-x="1357" 
d="M393 504q0 -303 285 -303q287 0 287 303v893h270v-893q0 -264 -147.5 -396.5t-409.5 -132.5q-261 0 -408 132.5t-147 396.5v893h270v-893z" />
    <glyph glyph-name="V" unicode="V" horiz-adv-x="1335" 
d="M575 575l97 -305l98 305l258 822h264l-467 -1411h-321l-461 1411h276z" />
    <glyph glyph-name="W" unicode="W" horiz-adv-x="1941" 
d="M1634 1397h264l-362 -1411h-315l-250 970l-250 -970h-315l-363 1411h276l166 -660l90 -395l91 395l165 660h289l172 -660l92 -395l84 395z" />
    <glyph glyph-name="X" unicode="X" horiz-adv-x="1355" 
d="M842 725l465 -729h-310l-206 317l-140 224l-129 -226l-192 -315h-281l453 729l-422 672h305l158 -252l137 -227l135 229l156 250h293z" />
    <glyph glyph-name="Y" unicode="Y" horiz-adv-x="1267" 
d="M643 705l150 354l161 338h275l-459 -951v-450h-270v450l-459 951h285l161 -338l154 -354h2z" />
    <glyph glyph-name="Z" unicode="Z" horiz-adv-x="1187" 
d="M418 221h696v-225h-1040v180l674 998h-633v223h972v-183z" />
    <glyph glyph-name="bracketleft" unicode="[" horiz-adv-x="770" 
d="M225 1343h461v-178h-229v-1321h229v-176h-461v1675z" />
    <glyph glyph-name="backslash" unicode="\" horiz-adv-x="792" 
d="M299 1331l401 -1558h-208l-402 1558h209z" />
    <glyph glyph-name="bracketright" unicode="]" horiz-adv-x="770" 
d="M543 -332h-461v176h229v1321h-229v178h461v-1675z" />
    <glyph glyph-name="underscore" unicode="_" horiz-adv-x="1540" 
d="M1438 20h-1303v183h1303v-183z" />
    <glyph glyph-name="grave" unicode="`" horiz-adv-x="260" 
d="M0 2030h178l10 -82q3 -58 15.5 -124.5t31.5 -142t25 -104.5h-154q-4 14 -31 94.5t-42.5 143t-20.5 124.5z" />
    <glyph glyph-name="a" unicode="a" horiz-adv-x="1040" 
d="M692 698q0 89 -43 137t-117 54.5t-157 -10t-178 -52.5l-43 166q85 36 173.5 57t177 27.5t166 -12.5t137.5 -59.5t95 -117.5t35 -183v-705h-248v127q-137 -143 -325 -143q-128 0 -202.5 79.5t-74.5 202.5q0 178 163 283.5t441 93.5v55zM692 502q-90 10 -164.5 -6.5
t-118 -49.5t-67 -71.5t-23.5 -77.5q0 -60 43 -92.5t109 -32.5q122 0 221 96v234z" />
    <glyph glyph-name="b" unicode="b" horiz-adv-x="1107" 
d="M616 1057q197 0 303.5 -149t106.5 -388q0 -157 -41.5 -275.5t-132 -189.5t-221.5 -71q-79 0 -153.5 32t-127.5 88l-2 -104h-246v1405h248v-463q52 55 122 85t144 30zM539 184q109 0 169 87.5t60 248.5t-60 248.5t-169 87.5q-103 0 -189 -70v-532q31 -27 81 -48.5
t108 -21.5z" />
    <glyph glyph-name="c" unicode="c" horiz-adv-x="964" 
d="M903 45q-94 -37 -158.5 -49t-146.5 -12q-243 0 -383.5 148t-140.5 407q0 258 140.5 406.5t383.5 148.5q133 0 291 -52l-70 -180q-66 20 -103.5 26.5t-88.5 6.5q-139 0 -220 -94.5t-81 -261.5q0 -168 81 -262.5t220 -94.5q99 0 217 51z" />
    <glyph glyph-name="d" unicode="d" horiz-adv-x="1107" 
d="M760 106q-52 -57 -127.5 -89.5t-153.5 -32.5q-131 0 -222 71t-133 189.5t-42 275.5q0 156 45.5 275.5t140 190.5t226.5 71q74 0 144 -30.5t122 -86.5v465h246v-1405h-246v106zM760 786q-91 70 -191 70q-109 0 -169 -87.5t-60 -248.5t60 -248.5t169 -87.5q107 0 191 70
v532z" />
    <glyph glyph-name="e" unicode="e" horiz-adv-x="1130" 
d="M354 492q13 -310 330 -310q147 0 270 45l62 -170q-77 -33 -151 -50t-118 -20t-108 -3q-271 0 -408 147.5t-137 407.5q0 253 131.5 405t358.5 152q225 0 339 -167t74 -437h-643zM782 643q0 127 -53.5 203t-148.5 76q-100 0 -160 -76t-66 -203h428z" />
    <glyph glyph-name="f" unicode="f" horiz-adv-x="675" 
d="M446 1004h250l-32 -189h-218v-819h-247v819h-170l39 189h131v120q0 214 140.5 292t360.5 -17l-20 -158q-63 26 -109 28.5t-73 -17.5t-39.5 -54.5t-12.5 -83.5v-110z" />
    <glyph glyph-name="g" unicode="g" horiz-adv-x="1107" 
d="M166 -346l39 178q137 -57 263.5 -60t209 55t82.5 169v119q-52 -56 -122 -86.5t-144 -30.5q-132 0 -226.5 70.5t-140 190t-45.5 276.5t42 275.5t133 189.5t222 71q76 0 149 -33t128 -90h4v103h246v-1061q0 -113 -47.5 -200t-130.5 -135.5t-189 -67.5t-228.5 -1.5
t-244.5 68.5zM569 199q108 0 191 69v506q-84 70 -191 70q-108 0 -168.5 -83.5t-60.5 -225.5q0 -161 60 -248.5t169 -87.5z" />
    <glyph glyph-name="h" unicode="h" horiz-adv-x="1097" 
d="M662 1057q151 3 242 -86t91 -256v-715h-247v633q0 171 -152 174q-110 5 -246 -92v-715h-248v1397h248v-457q153 114 312 117z" />
    <glyph glyph-name="i" unicode="i" horiz-adv-x="522" 
d="M223 1120q-54 0 -91.5 37.5t-37.5 91.5q0 53 37.5 90t91.5 37q53 0 90 -37t37 -90q0 -54 -37 -91.5t-90 -37.5zM350 1001v-1001h-248v1001h248z" />
    <glyph glyph-name="j" unicode="j" horiz-adv-x="452" 
d="M223 1120q-54 0 -91.5 37.5t-37.5 91.5q0 53 37.5 90t91.5 37q53 0 90 -37t37 -90q0 -54 -37 -91.5t-90 -37.5zM102 1001h248v-1050q0 -164 -72 -254t-223 -90q-84 0 -159 16l22 178q52 -10 82 -10q54 0 78 38.5t24 121.5v1050z" />
    <glyph glyph-name="k" unicode="k" horiz-adv-x="1083" 
d="M1057 0h-295l-412 602v-602h-248v1397h248v-695l414 324h291l-486 -346z" />
    <glyph glyph-name="l" unicode="l" horiz-adv-x="520" 
d="M385 0h-248v1397h248v-1397z" />
    <glyph glyph-name="m" unicode="m" horiz-adv-x="1724" 
d="M1313 1049q154 0 231.5 -85.5t77.5 -248.5v-715h-248v633q0 176 -168 176q-103 0 -225 -96q4 -27 4 -80v-633h-246v633q0 176 -168 176q-102 0 -221 -94v-715h-248v1028h248v-137q75 77 153 117.5t175 40.5q210 0 274 -170q91 88 178 129t183 41z" />
    <glyph glyph-name="n" unicode="n" horiz-adv-x="1097" 
d="M350 0h-248v1028h248v-94q93 63 167 89t169 26q153 0 231 -86t78 -248v-715h-247v633q0 176 -168 176q-111 0 -230 -94v-715z" />
    <glyph glyph-name="o" unicode="o" horiz-adv-x="1126" 
d="M563 -16q-121 0 -214 41t-150.5 114t-87 169t-29.5 212t29.5 212t87 169.5t150.5 114.5t214 41t214 -41t150.5 -114.5t87 -169.5t29.5 -212t-29.5 -212t-87 -169t-150.5 -114t-214 -41zM563 879q-124 0 -188 -100t-64 -259t64 -258.5t188 -99.5q123 0 185.5 99t62.5 259
t-62.5 259.5t-185.5 99.5z" />
    <glyph glyph-name="p" unicode="p" horiz-adv-x="1107" 
d="M631 1059q99 0 175.5 -40.5t124 -113.5t71.5 -169.5t24 -213.5q0 -239 -107 -387.5t-303 -148.5q-74 0 -144 29.5t-122 84.5v-462h-248v1400h246l2 -100q53 56 127.5 88.5t153.5 32.5zM539 186q109 0 169 87.5t60 248.5q0 142 -60.5 225.5t-168.5 83.5q-58 0 -108 -21
t-81 -48v-506q31 -27 81 -48.5t108 -21.5z" />
    <glyph glyph-name="q" unicode="q" horiz-adv-x="1107" 
d="M760 936v102h246v-1400h-246v464q-52 -56 -121.5 -86t-144.5 -30q-132 0 -226.5 70.5t-140 190t-45.5 275.5q0 157 42 276t133 190t222 71q78 0 153 -33t128 -90zM760 256v506q-83 69 -191 69t-168.5 -83.5t-60.5 -225.5q0 -161 60 -248.5t169 -87.5q107 0 191 70z" />
    <glyph glyph-name="r" unicode="r" horiz-adv-x="714" 
d="M350 0h-248v1028h248v-197q58 102 150.5 150.5t197.5 48.5v-194q-101 12 -212.5 -52t-135.5 -137v-647z" />
    <glyph glyph-name="s" unicode="s" horiz-adv-x="983" 
d="M479 -35q-206 0 -407 88v185q85 -41 184 -63.5t172 -22.5q104 0 149.5 38t45.5 86q0 23 -10.5 42t-26.5 32.5t-43.5 27.5t-52 23.5t-61.5 22.5q-11 4 -17 6q-55 19 -90 33t-83.5 41.5t-77 58.5t-49 79.5t-20.5 107.5q0 159 116 249.5t331 90.5q182 0 350 -84v-183
q-147 82 -285 82q-112 0 -170.5 -41.5t-58.5 -93.5q0 -37 33 -67.5t66 -45t107 -41.5q18 -7 27 -10q52 -19 87.5 -34t80 -41.5t71 -56t45.5 -74t19 -97.5q0 -158 -120 -248t-312 -90z" />
    <glyph glyph-name="t" unicode="t" horiz-adv-x="624" 
d="M393 817v-553q0 -53 28.5 -78.5t76.5 -25.5q65 0 92 10v-178q-87 -17 -193 -17q-137 0 -194.5 67t-57.5 200v575h-131l33 187h98v249l248 62v-311h209l-33 -187h-176z" />
    <glyph glyph-name="u" unicode="u" horiz-adv-x="1097" 
d="M748 1028h247v-1032h-247v100q-88 -65 -164.5 -93t-171.5 -28q-154 0 -232 86t-78 248v719h248v-637q0 -176 168 -176q106 0 230 94v719z" />
    <glyph glyph-name="v" unicode="v" horiz-adv-x="1103" 
d="M401 0l-368 1042h278l162 -479l82 -321h2l84 321l164 479h266l-371 -1042h-299z" />
    <glyph glyph-name="w" unicode="w" horiz-adv-x="1691" 
d="M1393 1042h266l-322 -1042h-305l-192 688l-191 -688h-297l-319 1042h268l213 -825l205 825h254l205 -825z" />
    <glyph glyph-name="x" unicode="x" horiz-adv-x="1107" 
d="M45 1028h295l145 -219l84 -154h2l88 158l142 215h258l-336 -504l346 -528h-297l-145 217l-86 158h-2l-86 -160l-140 -215h-274l348 528z" />
    <glyph glyph-name="y" unicode="y" horiz-adv-x="1103" 
d="M805 1028h266l-498 -1401h-235l104 297l-409 1104h278l244 -799l2 -2z" />
    <glyph glyph-name="z" unicode="z" horiz-adv-x="962" 
d="M365 186h548v-190h-866v176l543 666h-512v190h815v-176z" />
    <glyph glyph-name="braceleft" unicode="{" horiz-adv-x="776" 
d="M723 -332q-78 0 -133 6t-113 26.5t-93 56.5t-57.5 100t-21.5 153v201q-2 105 -45.5 147.5t-157.5 42.5v207q114 0 157.5 43.5t45.5 149.5v200q-1 89 21.5 152.5t58 100t93 57t113 26.5t132.5 6v-178q-110 0 -149 -44t-39 -150v-223q0 -88 -44 -146.5t-155 -85.5v-22
q111 -27 155 -85.5t44 -144.5v-225q0 -105 39.5 -150t148.5 -45v-176z" />
    <glyph glyph-name="bar" unicode="|" horiz-adv-x="385" 
d="M25 2154h335v-2154h-335v2154z" />
    <glyph glyph-name="braceright" unicode="}" horiz-adv-x="774" 
d="M53 -332v176q109 0 148 45t39 150v225q0 86 44 144.5t156 87.5v20q-112 27 -156 85.5t-44 146.5v223q0 106 -38.5 150t-148.5 44v178q54 0 95.5 -3t87 -11.5t78.5 -24t64 -41t50.5 -61t31 -86.5t11.5 -115v-200q0 -106 44.5 -149.5t158.5 -43.5v-207q-114 0 -158.5 -43
t-44.5 -147v-201q0 -89 -22.5 -153t-57.5 -100t-93 -56.5t-112.5 -26.5t-132.5 -6z" />
    <glyph glyph-name="asciitilde" unicode="~" horiz-adv-x="1767" 
d="M281 614l-107 166l391 336q30 -65 82.5 -113.5t117 -75.5t131 -40t136.5 -13q124 0 273.5 48t212.5 102l24 -231q-83 -72 -234 -119t-276 -47q-289 0 -504 196z" />
    <glyph glyph-name="exclamdown" unicode="&#xa1;" horiz-adv-x="622" 
d="M311 1350q53 0 92 -38t39 -93q0 -53 -39 -91t-92 -38q-54 0 -92.5 37.5t-38.5 91.5q0 55 38.5 93t92.5 38zM412 920l20 -940h-239l20 940h199z" />
    <glyph glyph-name="cent" unicode="&#xa2;" horiz-adv-x="964" 
d="M903 45q-135 -55 -258 -61v-183h-106v185q-218 19 -341.5 165t-123.5 388q0 241 124 387.5t341 165.5v178h106v-178q122 -9 244 -50l-70 -180q-101 31 -174 33v-713q97 6 199 51zM326 539q0 -138 56 -228t157 -118v692q-101 -28 -157 -118t-56 -228z" />
    <glyph glyph-name="sterling" unicode="&#xa3;" horiz-adv-x="1843" 
 />
    <glyph glyph-name="currency" unicode="&#xa4;" horiz-adv-x="1230" 
d="M1114 729q0 -287 -160 -428l136 -242l-146 -41l-119 211q-82 -36 -192 -36q-135 0 -230 53l-120 -228l-146 41l146 275q-131 140 -131 395q0 217 100 356l-176 316l145 41l139 -250q127 74 273 74q124 0 239 -54l121 230l144 -41l-150 -285q127 -139 127 -387zM633 371
q84 0 141 50t82 128.5t25 179.5q0 102 -24.5 180t-81.5 128t-142 50t-143 -50.5t-83.5 -129t-25.5 -178.5q0 -159 65.5 -258.5t186.5 -99.5z" />
    <glyph glyph-name="yen" unicode="&#xa5;" horiz-adv-x="1267" 
d="M770 446v-79h248v-80h-248v-78h248v-78h-248v-135h-270v135h-252v78h252v78h-252v80h252v79l-459 951h285l161 -338l158 -350l148 350l161 338h275z" />
    <glyph glyph-name="brokenbar" unicode="&#xa6;" horiz-adv-x="385" 
d="M25 2154h335v-913h-335v913zM25 913h335v-913h-335v913z" />
    <glyph glyph-name="dieresis" unicode="&#xa8;" horiz-adv-x="487" 
d="M102 1575q-41 0 -71.5 30.5t-30.5 71.5q0 43 30.5 74t71.5 31q43 0 74 -31t31 -74q0 -41 -31 -71.5t-74 -30.5zM385 1575q-42 0 -72 30t-30 72q0 43 30 74t72 31t72 -31t30 -74q0 -42 -30 -72t-72 -30z" />
    <glyph glyph-name="copyright" unicode="&#xa9;" horiz-adv-x="1921" 
d="M1569 1157q121 -123 185.5 -280t64.5 -328q0 -172 -64.5 -329.5t-185.5 -280.5q-124 -121 -280.5 -185.5t-327.5 -64.5q-172 0 -329.5 65t-279.5 185q-121 123 -185.5 280.5t-64.5 329.5q0 171 64.5 328t185.5 280q122 120 279.5 185t329.5 65q171 0 327.5 -64.5
t280.5 -185.5zM1499 8q108 110 166.5 249t58.5 292q0 151 -58.5 289.5t-166.5 248.5q-110 108 -248.5 167t-289.5 59q-152 0 -291.5 -59t-247.5 -167q-108 -109 -165.5 -247.5t-57.5 -290.5q0 -153 57.5 -292.5t165.5 -248.5q109 -107 248 -166t291 -59q150 0 289 59
t249 166zM1278 45q-93 -37 -158.5 -49t-146.5 -12q-243 0 -383.5 148t-140.5 407q0 258 140.5 406.5t383.5 148.5q135 0 289 -52l-68 -180q-111 33 -193 33q-139 0 -220 -94.5t-81 -261.5q0 -168 81 -262.5t220 -94.5q100 0 218 51z" />
    <glyph glyph-name="guillemotleft" unicode="&#xab;" horiz-adv-x="911" 
d="M350 121l-278 405l278 398h142l-273 -398l273 -405h-142zM696 121l-278 405l278 398h142l-271 -398l271 -405h-142z" />
    <glyph glyph-name="uni00AD" unicode="&#xad;" horiz-adv-x="739" 
d="M743 449h-583v182h583v-182z" />
    <glyph glyph-name="macron" unicode="&#xaf;" horiz-adv-x="991" 
d="M0 1190h991v-184h-991v184z" />
    <glyph glyph-name="degree" unicode="&#xb0;" horiz-adv-x="628" 
d="M313 1665q-106 0 -182 77t-76 185q0 106 76 182t182 76q107 0 183.5 -76t76.5 -182q0 -109 -76.5 -185.5t-183.5 -76.5zM313 1815q50 0 82.5 33.5t32.5 88.5q0 49 -32.5 81t-82.5 32q-49 0 -80.5 -31.5t-31.5 -81.5q0 -55 31 -88.5t81 -33.5z" />
    <glyph glyph-name="plusminus" unicode="&#xb1;" horiz-adv-x="1212" 
d="M700 1098h351v-183h-351v-362h-182v362h-358v183h358v346h182v-346zM160 213v182h891v-182h-891z" />
    <glyph glyph-name="acute" unicode="&#xb4;" horiz-adv-x="260" 
d="M260 2052l-12 -88q-4 -62 -19.5 -125t-43.5 -144.5t-31 -92.5h-154q5 21 20 78.5t24 95.5t18 94t10 102l10 80h178z" />
    <glyph glyph-name="paragraph" unicode="&#xb6;" horiz-adv-x="1632" 
d="M899 510h-324q-215 0 -342 119.5t-127 324.5q0 201 129 322t340 121h594v-1401h-270v514zM1260 -4v1401h270v-1401h-270z" />
    <glyph glyph-name="periodcentered" unicode="&#xb7;" horiz-adv-x="565" 
d="M283 330q-46 0 -78.5 32.5t-32.5 79.5q-1 44 32 76.5t79 32.5q45 0 78.5 -32.5t33.5 -76.5q-1 -47 -34 -79.5t-78 -32.5z" />
    <glyph glyph-name="cedilla" unicode="&#xb8;" horiz-adv-x="497" 
d="M172 -233l131 -5q75 -14 135 -66t60 -116q0 -78 -55.5 -132t-133.5 -54h-309v131h309q23 0 39.5 16t16.5 39t-16.5 39t-39.5 16h-309q19 52 27.5 76.5t21.5 85.5t19 127l6 76h135l-8 -72q-10 -91 -29 -161z" />
    <glyph glyph-name="guillemotright" unicode="&#xbb;" horiz-adv-x="919" 
d="M252 121h-141l270 405l-270 398h141l278 -398zM598 121h-141l272 405l-272 398h141l279 -398z" />
    <glyph glyph-name="questiondown" unicode="&#xbf;" horiz-adv-x="1089" 
d="M569 1356q54 0 91.5 -37.5t37.5 -91.5q1 -55 -36.5 -93t-92.5 -38q-53 0 -93 38t-40 93q1 54 40.5 91.5t92.5 37.5zM674 868q0 -88 -18 -147t-51 -97.5t-93 -78.5q-85 -59 -122.5 -104.5t-37.5 -104.5q0 -79 55.5 -130.5t135.5 -51.5q87 0 146 57.5t59 144.5h219
q0 -124 -58 -213.5t-152.5 -132.5t-213.5 -43q-191 0 -312.5 95.5t-121.5 261.5q0 101 50.5 173t157.5 142q84 57 118 105.5t34 123.5v58h205v-58z" />
    <glyph glyph-name="Agrave" unicode="&#xc0;" horiz-adv-x="1327" 
d="M487 2019h179l10 -82q2 -59 13 -120t34 -150.5t25 -99.5h-154q-5 18 -31.5 95.5t-43 142t-21.5 126.5zM907 334h-491l-109 -338h-264l522 1411h221l506 -1411h-274zM664 1124l-199 -589h395z" />
    <glyph glyph-name="Aacute" unicode="&#xc1;" horiz-adv-x="1327" 
d="M786 2005l-12 -88q-5 -62 -21 -126t-43.5 -144t-31.5 -93h-154q3 14 25.5 100.5t34 149t14.5 121.5l8 80h180zM907 334h-491l-109 -338h-264l522 1411h221l506 -1411h-274zM664 1124l-199 -589h395z" />
    <glyph glyph-name="Acircumflex" unicode="&#xc2;" horiz-adv-x="1327" 
d="M356 1677l306 271l288 -289l-6 -141l-287 282l-307 -264zM907 334h-491l-109 -338h-264l522 1411h221l506 -1411h-274zM664 1124l-199 -589h395z" />
    <glyph glyph-name="Atilde" unicode="&#xc3;" horiz-adv-x="1327" 
d="M389 1700l-24 117l137 104q11 -29 65 -55.5t109 -26.5q38 0 98 22t90 46l25 -115q-32 -29 -100 -53.5t-113 -24.5q-98 0 -182 68zM907 334h-491l-109 -338h-264l522 1411h221l506 -1411h-274zM664 1124l-199 -589h395z" />
    <glyph glyph-name="Adieresis" unicode="&#xc4;" horiz-adv-x="1327" 
d="M506 1550q-42 0 -72.5 30.5t-30.5 72.5q0 43 30 73.5t73 30.5q41 0 71.5 -30.5t30.5 -73.5q0 -41 -30.5 -72t-71.5 -31zM788 1550q-42 0 -73 31t-31 72q0 43 30.5 73.5t73.5 30.5q42 0 72.5 -30.5t30.5 -73.5q0 -41 -31 -72t-72 -31zM907 334h-491l-109 -338h-264
l522 1411h221l506 -1411h-274zM664 1124l-199 -589h395z" />
    <glyph glyph-name="Aring" unicode="&#xc5;" horiz-adv-x="1327" 
d="M651 1606q-64 0 -108.5 45t-44.5 110q0 63 44.5 108.5t108.5 45.5q63 0 108.5 -45.5t45.5 -108.5q0 -64 -45.5 -109.5t-108.5 -45.5zM651 1696q28 0 47 19.5t19 51.5q0 29 -19 47.5t-47 18.5q-29 0 -48 -18.5t-19 -47.5q0 -32 18.5 -51.5t48.5 -19.5zM907 334h-491
l-109 -338h-264l522 1411h221l506 -1411h-274zM664 1124l-199 -589h395z" />
    <glyph glyph-name="AE" unicode="&#xc6;" horiz-adv-x="1916" 
d="M1202 221h674v-225h-946v338h-514l-109 -338h-264l522 1411l1301 2v-233h-666v-342h572v-224h-570v-389zM928 535l-2 589h-262l-199 -589h463z" />
    <glyph glyph-name="Ccedilla" unicode="&#xc7;" horiz-adv-x="1306" 
d="M764 1194q-193 0 -292 -125.5t-99 -372.5q0 -246 99 -370.5t292 -124.5q154 0 444 88v-207q-214 -96 -422 -105l-6 -49q-11 -97 -28 -161l133 -5q74 -14 133 -66t59 -116q0 -78 -54.5 -132t-131.5 -54h-311v131h311q23 0 38 16t15 39t-15 39t-38 16h-311q54 137 67 289
l4 56q-189 17 -313.5 112.5t-180 246.5t-55.5 357q0 164 36.5 294t111 226.5t197.5 148.5t288 52q236 0 473 -106v-207q-297 90 -444 90z" />
    <glyph glyph-name="Egrave" unicode="&#xc8;" horiz-adv-x="1140" 
d="M414 2019h178l8 -82q3 -59 14.5 -121.5t34 -148t25.5 -100.5h-154q-5 18 -31.5 95.5t-43 142t-21.5 126.5zM1057 1174h-664v-340h572v-224h-572v-389h674v-225h-944v1401h934v-223z" />
    <glyph glyph-name="Eacute" unicode="&#xc9;" horiz-adv-x="1140" 
d="M711 2005l-11 -88q-5 -62 -21 -126t-43.5 -144t-31.5 -93h-153q2 9 25 99.5t34 151.5t14 120l8 80h179zM1057 1174h-664v-340h572v-224h-572v-389h674v-225h-944v1401h934v-223z" />
    <glyph glyph-name="Ecircumflex" unicode="&#xca;" horiz-adv-x="1140" 
d="M283 1677l305 271l289 -289l-7 -141l-286 282l-310 -264zM1057 1174h-664v-340h572v-224h-572v-389h674v-225h-944v1401h934v-223z" />
    <glyph glyph-name="Edieresis" unicode="&#xcb;" horiz-adv-x="1140" 
d="M432 1550q-42 0 -73 31t-31 72q0 43 30.5 73.5t73.5 30.5q42 0 72.5 -30.5t30.5 -73.5q0 -41 -31 -72t-72 -31zM713 1550q-41 0 -72 31t-31 72q0 43 31 73.5t72 30.5q43 0 73.5 -30.5t30.5 -73.5q0 -41 -30.5 -72t-73.5 -31zM1057 1174h-664v-340h572v-224h-572v-389h674
v-225h-944v1401h934v-223z" />
    <glyph glyph-name="Igrave" unicode="&#xcc;" horiz-adv-x="516" 
d="M94 2019h178l11 -82q2 -59 12 -119t34 -153t25 -98h-153q-6 19 -32 95.5t-43 141.5t-22 127zM123 -4v1401h270v-1401h-270z" />
    <glyph glyph-name="Iacute" unicode="&#xcd;" horiz-adv-x="516" 
d="M444 2005l-12 -88q-5 -62 -21 -126t-43.5 -144t-31.5 -93h-154q3 14 25.5 100.5t34 149t14.5 121.5l8 80h180zM123 -4v1401h270v-1401h-270z" />
    <glyph glyph-name="Icircumflex" unicode="&#xce;" horiz-adv-x="516" 
d="M-37 1677l305 271l289 -254l-6 -142l-287 248l-309 -264zM123 -4v1401h270v-1401h-270z" />
    <glyph glyph-name="Idieresis" unicode="&#xcf;" horiz-adv-x="516" 
d="M113 1550q-42 0 -72.5 30.5t-30.5 72.5q0 43 30 73.5t73 30.5q41 0 71.5 -30.5t30.5 -73.5q0 -41 -30.5 -72t-71.5 -31zM395 1550q-43 0 -73.5 31t-30.5 72q0 43 30.5 73.5t73.5 30.5q41 0 72 -30.5t31 -73.5q0 -41 -31 -72t-72 -31zM123 -4v1401h270v-1401h-270z" />
    <glyph glyph-name="Eth" unicode="&#xd0;" horiz-adv-x="1353" 
d="M645 1397q157 0 275.5 -49t193 -141.5t111.5 -219.5t37 -287q0 -332 -153.5 -518t-463.5 -186h-522v549h-164v262h164v590h522zM645 221q346 0 346 479q0 242 -86 358t-260 116h-254v-367h221v-262h-221v-324h254z" />
    <glyph glyph-name="Ntilde" unicode="&#xd1;" horiz-adv-x="1378" 
d="M526 1782l-104 -82l-25 117l138 104q11 -29 65 -55.5t109 -26.5q38 0 98 22t90 46l25 -115q-32 -29 -100 -53.5t-113 -24.5q-99 0 -183 68zM1008 1397h247v-1401h-262l-628 934l6 -934h-248v1401h246l643 -959z" />
    <glyph glyph-name="Ograve" unicode="&#xd2;" horiz-adv-x="1439" 
d="M557 2019h180l8 -82q3 -58 15.5 -124.5t31.5 -141.5t25 -104h-151q-6 19 -32 95.5t-43 141.5t-22 127zM719 -25q-156 0 -275 52.5t-193 149t-111.5 228t-37.5 295.5q0 162 37.5 292t111.5 226t193 147.5t275 51.5t275 -52t193.5 -147.5t112 -225.5t37.5 -292
q0 -163 -37.5 -295t-112 -228.5t-193.5 -149t-275 -52.5zM719 201q94 0 162.5 37t108.5 106t58.5 157t18.5 199q0 494 -348 494q-172 0 -259 -124.5t-87 -369.5q0 -88 11 -161.5t37 -137t65.5 -107t98.5 -68.5t134 -25z" />
    <glyph glyph-name="Oacute" unicode="&#xd3;" horiz-adv-x="1439" 
d="M856 2005l-12 -88q-4 -62 -19.5 -125t-43.5 -145.5t-31 -92.5h-154q2 9 25.5 99.5t34 151.5t12.5 120l10 80h178zM719 -25q-156 0 -275 52.5t-193 149t-111.5 228t-37.5 295.5q0 162 37.5 292t111.5 226t193 147.5t275 51.5t275 -52t193.5 -147.5t112 -225.5t37.5 -292
q0 -163 -37.5 -295t-112 -228.5t-193.5 -149t-275 -52.5zM719 201q94 0 162.5 37t108.5 106t58.5 157t18.5 199q0 494 -348 494q-172 0 -259 -124.5t-87 -369.5q0 -88 11 -161.5t37 -137t65.5 -107t98.5 -68.5t134 -25z" />
    <glyph glyph-name="Ocircumflex" unicode="&#xd4;" horiz-adv-x="1439" 
d="M426 1677l305 271l291 -289l-6 -141l-289 282l-307 -264zM719 -25q-156 0 -275 52.5t-193 149t-111.5 228t-37.5 295.5q0 162 37.5 292t111.5 226t193 147.5t275 51.5t275 -52t193.5 -147.5t112 -225.5t37.5 -292q0 -163 -37.5 -295t-112 -228.5t-193.5 -149t-275 -52.5z
M719 201q94 0 162.5 37t108.5 106t58.5 157t18.5 199q0 494 -348 494q-172 0 -259 -124.5t-87 -369.5q0 -88 11 -161.5t37 -137t65.5 -107t98.5 -68.5t134 -25z" />
    <glyph glyph-name="Otilde" unicode="&#xd5;" horiz-adv-x="1439" 
d="M461 1700l-25 117l137 104q11 -29 65.5 -55.5t109.5 -26.5q38 0 98 22t90 46l25 -115q-32 -29 -100 -53.5t-113 -24.5q-99 0 -183 68zM719 -25q-156 0 -275 52.5t-193 149t-111.5 228t-37.5 295.5q0 162 37.5 292t111.5 226t193 147.5t275 51.5t275 -52t193.5 -147.5
t112 -225.5t37.5 -292q0 -163 -37.5 -295t-112 -228.5t-193.5 -149t-275 -52.5zM719 201q94 0 162.5 37t108.5 106t58.5 157t18.5 199q0 494 -348 494q-172 0 -259 -124.5t-87 -369.5q0 -88 11 -161.5t37 -137t65.5 -107t98.5 -68.5t134 -25z" />
    <glyph glyph-name="Odieresis" unicode="&#xd6;" horiz-adv-x="1439" 
d="M575 1550q-41 0 -71.5 31t-30.5 72q0 43 30.5 73.5t71.5 30.5q43 0 74 -30.5t31 -73.5q0 -41 -31 -72t-74 -31zM858 1550q-41 0 -71.5 31t-30.5 72q0 43 30.5 73.5t71.5 30.5q43 0 74 -30.5t31 -73.5q0 -41 -31 -72t-74 -31zM719 -25q-156 0 -275 52.5t-193 149
t-111.5 228t-37.5 295.5q0 162 37.5 292t111.5 226t193 147.5t275 51.5t275 -52t193.5 -147.5t112 -225.5t37.5 -292q0 -163 -37.5 -295t-112 -228.5t-193.5 -149t-275 -52.5zM719 201q94 0 162.5 37t108.5 106t58.5 157t18.5 199q0 494 -348 494q-172 0 -259 -124.5
t-87 -369.5q0 -88 11 -161.5t37 -137t65.5 -107t98.5 -68.5t134 -25z" />
    <glyph glyph-name="multiply" unicode="&#xd7;" horiz-adv-x="1167" 
d="M963 281l-121 -134l-267 246l-243 -262l-135 123l243 264l-252 234l123 133l252 -234l238 256l135 -123l-238 -258z" />
    <glyph glyph-name="Oslash" unicode="&#xd8;" horiz-adv-x="1439" 
d="M1337 700q0 -256 -91 -433t-273 -249l55 -213h-133l-47 181q-75 -11 -129 -11q-156 0 -275 52.5t-193 149t-111.5 228t-37.5 295.5q0 261 96 438.5t289 243.5l-65 252h133l57 -223q52 6 107 6q156 0 275 -52t193.5 -147.5t112 -225.5t37.5 -292zM911 258q156 113 156 442
q0 494 -348 494q-33 0 -49 -2zM719 201q37 0 72 6l-244 944q-174 -103 -174 -451q0 -88 11 -161.5t37 -137t65.5 -107t98.5 -68.5t134 -25z" />
    <glyph glyph-name="Ugrave" unicode="&#xd9;" horiz-adv-x="1357" 
d="M492 2019h180l8 -82q3 -58 15.5 -124.5t31.5 -141.5t25 -104h-154q-7 24 -31 97t-41 139t-22 128zM393 504q0 -303 285 -303q287 0 287 303v893h270v-893q0 -264 -147.5 -396.5t-409.5 -132.5q-261 0 -408 132.5t-147 396.5v893h270v-893z" />
    <glyph glyph-name="Uacute" unicode="&#xda;" horiz-adv-x="1357" 
d="M858 2005l-12 -88q-4 -62 -19.5 -125t-43.5 -145.5t-31 -92.5h-154q2 9 25.5 99.5t34 151.5t12.5 120l10 80h178zM393 504q0 -303 285 -303q287 0 287 303v893h270v-893q0 -264 -147.5 -396.5t-409.5 -132.5q-261 0 -408 132.5t-147 396.5v893h270v-893z" />
    <glyph glyph-name="Ucircumflex" unicode="&#xdb;" horiz-adv-x="1357" 
d="M360 1677l306 271l288 -289l-4 -141l-288 282l-308 -264zM393 504q0 -303 285 -303q287 0 287 303v893h270v-893q0 -264 -147.5 -396.5t-409.5 -132.5q-261 0 -408 132.5t-147 396.5v893h270v-893z" />
    <glyph glyph-name="Udieresis" unicode="&#xdc;" horiz-adv-x="1357" 
d="M510 1550q-41 0 -71.5 31t-30.5 72q0 43 30.5 73.5t71.5 30.5q43 0 73.5 -30.5t30.5 -73.5q0 -41 -31 -72t-73 -31zM793 1550q-42 0 -72.5 30.5t-30.5 72.5q0 43 30 73.5t73 30.5t72.5 -30.5t29.5 -73.5q0 -42 -30 -72.5t-72 -30.5zM393 504q0 -303 285 -303
q287 0 287 303v893h270v-893q0 -264 -147.5 -396.5t-409.5 -132.5q-261 0 -408 132.5t-147 396.5v893h270v-893z" />
    <glyph glyph-name="Yacute" unicode="&#xdd;" horiz-adv-x="1267" 
d="M756 2005l-13 -88q-5 -62 -21 -126t-43.5 -144t-31.5 -93h-153q2 9 25 99.5t34 151.5t14 120l8 80h181zM643 705l150 354l161 338h275l-459 -951v-450h-270v450l-459 951h285l161 -338l154 -354h2z" />
    <glyph glyph-name="Thorn" unicode="&#xde;" horiz-adv-x="1107" 
d="M631 1059q99 0 175.5 -40.5t124 -113.5t71.5 -169.5t24 -213.5q0 -239 -107 -387.5t-303 -148.5q-74 0 -144 29.5t-122 84.5v-462h-248v1720h246l2 -420q53 56 128 88.5t153 32.5zM539 186q109 0 169 87.5t60 248.5q0 142 -60.5 225.5t-168.5 83.5q-58 0 -108 -21
t-81 -48v-506q31 -27 81 -48.5t108 -21.5z" />
    <glyph glyph-name="germandbls" unicode="&#xdf;" horiz-adv-x="1275" 
d="M399 0h-276v1397h586q212 0 327 -95.5t115 -269.5q0 -113 -56.5 -193t-154.5 -118q127 -43 194.5 -130.5t67.5 -209.5q0 -172 -126 -275.5t-333 -109.5h-108v225h98q95 2 147 48.5t52 140.5q0 93 -55.5 140t-155.5 50h-41v225h29q182 6 182 174q0 87 -52 131t-149 44
h-297z" />
    <glyph glyph-name="agrave" unicode="&#xe0;" horiz-adv-x="1040" 
d="M358 1831h181l8 -82q3 -58 15.5 -124.5t31 -142.5t24.5 -104h-151q-5 17 -31.5 95.5t-43 143t-21.5 126.5zM692 698q0 89 -43 137t-117 54.5t-157 -10t-178 -52.5l-43 166q85 36 173.5 57t177 27.5t166 -12.5t137.5 -59.5t95 -117.5t35 -183v-705h-248v127
q-137 -143 -325 -143q-128 0 -202.5 79.5t-74.5 202.5q0 178 163 283.5t441 93.5v55zM692 502q-90 10 -164.5 -6.5t-118 -49.5t-67 -71.5t-23.5 -77.5q0 -60 43 -92.5t109 -32.5q122 0 221 96v234z" />
    <glyph glyph-name="aacute" unicode="&#xe1;" horiz-adv-x="1040" 
d="M657 1817l-12 -88q-4 -62 -19.5 -125t-43.5 -145.5t-31 -92.5h-154q2 9 25.5 99.5t34 151.5t12.5 120l10 80h178zM692 698q0 89 -43 137t-117 54.5t-157 -10t-178 -52.5l-43 166q85 36 173.5 57t177 27.5t166 -12.5t137.5 -59.5t95 -117.5t35 -183v-705h-248v127
q-137 -143 -325 -143q-128 0 -202.5 79.5t-74.5 202.5q0 178 163 283.5t441 93.5v55zM692 502q-90 10 -164.5 -6.5t-118 -49.5t-67 -71.5t-23.5 -77.5q0 -60 43 -92.5t109 -32.5q122 0 221 96v234z" />
    <glyph glyph-name="acircumflex" unicode="&#xe2;" horiz-adv-x="1040" 
d="M227 1489l305 270l291 -289l-6 -141l-289 283l-307 -264zM692 698q0 89 -43 137t-117 54.5t-157 -10t-178 -52.5l-43 166q85 36 173.5 57t177 27.5t166 -12.5t137.5 -59.5t95 -117.5t35 -183v-705h-248v127q-137 -143 -325 -143q-128 0 -202.5 79.5t-74.5 202.5
q0 178 163 283.5t441 93.5v55zM692 502q-90 10 -164.5 -6.5t-118 -49.5t-67 -71.5t-23.5 -77.5q0 -60 43 -92.5t109 -32.5q122 0 221 96v234z" />
    <glyph glyph-name="atilde" unicode="&#xe3;" horiz-adv-x="1040" 
d="M262 1511l-24 117l137 105q11 -29 65 -55.5t109 -26.5q38 0 98 21.5t90 45.5l25 -114q-32 -29 -100 -53.5t-113 -24.5q-100 0 -182 67zM692 698q0 89 -43 137t-117 54.5t-157 -10t-178 -52.5l-43 166q85 36 173.5 57t177 27.5t166 -12.5t137.5 -59.5t95 -117.5t35 -183
v-705h-248v127q-137 -143 -325 -143q-128 0 -202.5 79.5t-74.5 202.5q0 178 163 283.5t441 93.5v55zM692 502q-90 10 -164.5 -6.5t-118 -49.5t-67 -71.5t-23.5 -77.5q0 -60 43 -92.5t109 -32.5q122 0 221 96v234z" />
    <glyph glyph-name="adieresis" unicode="&#xe4;" horiz-adv-x="1040" 
d="M377 1362q-41 0 -72 30.5t-31 71.5q0 43 31 74t72 31q43 0 73.5 -31t30.5 -74q0 -41 -30.5 -71.5t-73.5 -30.5zM659 1362q-41 0 -71.5 30.5t-30.5 71.5q0 43 30.5 74t71.5 31q43 0 74 -31t31 -74q0 -41 -31 -71.5t-74 -30.5zM692 698q0 89 -43 137t-117 54.5t-157 -10
t-178 -52.5l-43 166q85 36 173.5 57t177 27.5t166 -12.5t137.5 -59.5t95 -117.5t35 -183v-705h-248v127q-137 -143 -325 -143q-128 0 -202.5 79.5t-74.5 202.5q0 178 163 283.5t441 93.5v55zM692 502q-90 10 -164.5 -6.5t-118 -49.5t-67 -71.5t-23.5 -77.5q0 -60 43 -92.5
t109 -32.5q122 0 221 96v234z" />
    <glyph glyph-name="aring" unicode="&#xe5;" horiz-adv-x="1040" 
d="M522 1417q-63 0 -108 46t-45 110q0 63 45 108t108 45t108.5 -45t45.5 -108q0 -64 -45.5 -110t-108.5 -46zM522 1507q30 0 49 20t19 52q0 29 -19.5 47.5t-48.5 18.5t-47 -18.5t-18 -47.5q0 -32 18 -52t47 -20zM692 698q0 89 -43 137t-117 54.5t-157 -10t-178 -52.5
l-43 166q85 36 173.5 57t177 27.5t166 -12.5t137.5 -59.5t95 -117.5t35 -183v-705h-248v127q-137 -143 -325 -143q-128 0 -202.5 79.5t-74.5 202.5q0 178 163 283.5t441 93.5v55zM692 502q-90 10 -164.5 -6.5t-118 -49.5t-67 -71.5t-23.5 -77.5q0 -60 43 -92.5t109 -32.5
q122 0 221 96v234z" />
    <glyph glyph-name="ae" unicode="&#xe6;" horiz-adv-x="1705" 
d="M1550 227l62 -170q-77 -33 -152 -50t-118.5 -20t-106.5 -3q-306 0 -444 190q-74 -90 -187.5 -140t-238.5 -50q-128 0 -202.5 79.5t-74.5 202.5q0 178 163 283.5t441 93.5v55q0 89 -43 137t-117 54.5t-157 -10t-178 -52.5l-43 166q126 53 252.5 74.5t248.5 -0.5t193 -96
q128 125 332 125q225 0 338 -166.5t73 -437.5h-643q13 -310 332 -310q147 0 270 45zM1174 922q-100 0 -160 -76t-66 -203h430q0 127 -53.5 203t-150.5 76zM692 274v203q0 17 -2 25q-72 8 -134.5 -1.5t-105 -30.5t-73 -50.5t-44.5 -61t-14 -61.5q0 -60 43 -92.5t109 -32.5
q115 0 221 102z" />
    <glyph glyph-name="ccedilla" unicode="&#xe7;" horiz-adv-x="964" 
d="M768 -238q75 -14 135 -66t60 -116q0 -78 -55.5 -132t-133.5 -54h-309v131h309q23 0 39 16t16 39t-16 39t-39 16h-309q18 49 27 76t21.5 87t18.5 126l5 62q-217 20 -340 165.5t-123 387.5q0 258 140.5 406.5t383.5 148.5q133 0 291 -52l-70 -180q-66 20 -103.5 26.5
t-88.5 6.5q-139 0 -220 -94.5t-81 -261.5q0 -168 81 -262.5t220 -94.5q99 0 217 51l59 -188q-125 -50 -231 -59l-6 -58q-15 -109 -29 -161z" />
    <glyph glyph-name="egrave" unicode="&#xe8;" horiz-adv-x="1118" 
d="M389 1831h180l9 -82q3 -58 15.5 -124.5t31 -142.5t24.5 -104h-151q-6 19 -32 96t-43 142t-22 127zM340 492q13 -310 332 -310q147 0 270 45l62 -170q-78 -33 -152 -50t-117.5 -20t-107.5 -3q-272 0 -408.5 147.5t-136.5 407.5q0 253 130.5 405t358.5 152
q226 0 339.5 -167t72.5 -437h-643zM770 643q0 127 -54 203t-151 76q-100 0 -159.5 -76t-65.5 -203h430z" />
    <glyph glyph-name="eacute" unicode="&#xe9;" horiz-adv-x="1118" 
d="M688 1817l-12 -88q-4 -62 -19.5 -125t-43.5 -145.5t-31 -92.5h-154q2 9 25.5 99.5t34 151.5t12.5 120l10 80h178zM340 492q13 -310 332 -310q147 0 270 45l62 -170q-78 -33 -152 -50t-117.5 -20t-107.5 -3q-272 0 -408.5 147.5t-136.5 407.5q0 253 130.5 405t358.5 152
q226 0 339.5 -167t72.5 -437h-643zM770 643q0 127 -54 203t-151 76q-100 0 -159.5 -76t-65.5 -203h430z" />
    <glyph glyph-name="ecircumflex" unicode="&#xea;" horiz-adv-x="1118" 
d="M285 1470l278 289l291 -289l-6 -163l-289 280l-280 -282zM340 492q13 -310 332 -310q147 0 270 45l62 -170q-78 -33 -152 -50t-117.5 -20t-107.5 -3q-272 0 -408.5 147.5t-136.5 407.5q0 253 130.5 405t358.5 152q226 0 339.5 -167t72.5 -437h-643zM770 643
q0 127 -54 203t-151 76q-100 0 -159.5 -76t-65.5 -203h430z" />
    <glyph glyph-name="edieresis" unicode="&#xeb;" horiz-adv-x="1118" 
d="M408 1362q-41 0 -72 30.5t-31 71.5q0 43 31 74t72 31q43 0 73.5 -31t30.5 -74q0 -41 -30.5 -71.5t-73.5 -30.5zM690 1362q-41 0 -71.5 30.5t-30.5 71.5q0 43 30.5 74t71.5 31q43 0 74 -31t31 -74q0 -41 -31 -71.5t-74 -30.5zM340 492q13 -310 332 -310q147 0 270 45
l62 -170q-78 -33 -152 -50t-117.5 -20t-107.5 -3q-272 0 -408.5 147.5t-136.5 407.5q0 253 130.5 405t358.5 152q226 0 339.5 -167t72.5 -437h-643zM770 643q0 127 -54 203t-151 76q-100 0 -159.5 -76t-65.5 -203h430z" />
    <glyph glyph-name="igrave" unicode="&#xec;" horiz-adv-x="436" 
d="M45 1606h180l8 -80q3 -58 15.5 -124.5t31.5 -142t25 -104.5h-151q-5 16 -32 94t-43.5 142.5t-21.5 126.5zM350 1001v-1001h-248v1001h248z" />
    <glyph glyph-name="iacute" unicode="&#xed;" horiz-adv-x="436" 
d="M397 1751l-10 -88q-5 -62 -21 -126t-43.5 -144t-31.5 -93h-154q2 9 25.5 99.5t34 151.5t12.5 120l10 80h178zM342 983v-983h-248v983h248z" />
    <glyph glyph-name="icircumflex" unicode="&#xee;" horiz-adv-x="436" 
d="M-104 1276l305 268l288 -287l-4 -141l-288 281l-310 -262zM332 983l10 -983h-248l-10 983h248z" />
    <glyph glyph-name="idieresis" unicode="&#xef;" horiz-adv-x="436" 
d="M72 1294q-42 0 -72.5 30.5t-30.5 72.5q0 43 30 73.5t73 30.5t72.5 -30.5t29.5 -73.5q0 -42 -30 -72.5t-72 -30.5zM354 1294q-42 0 -72 30.5t-30 72.5q0 43 29.5 73.5t72.5 30.5q42 0 72.5 -30.5t30.5 -73.5q0 -41 -31 -72t-72 -31zM350 1001v-1001h-248v1001h248z" />
    <glyph glyph-name="eth" unicode="&#xf0;" horiz-adv-x="1236" 
d="M793 1356q162 -77 252 -256.5t90 -472.5q0 -104 -17.5 -197t-58 -177.5t-100.5 -145t-150.5 -96.5t-202.5 -36q-222 0 -363 134t-141 354q0 225 123.5 349t325.5 124q94 0 180 -41t146 -115q-10 114 -61 220t-144 163l-68 -108h-151l92 151q-32 4 -56 4
q-75 0 -148.5 -11.5t-190.5 -47.5l-5 197q71 23 110 34.5t106.5 23t134.5 11.5q88 0 168 -18l61 100l158 2zM602 188q55 0 97.5 15t70.5 44.5t47 65t29 84.5t14 95.5t4 103.5q-45 59 -113.5 96t-136.5 37q-60 0 -106 -17.5t-73 -45t-44.5 -65.5t-24 -74t-6.5 -76
q0 -119 67.5 -191t174.5 -72z" />
    <glyph glyph-name="ntilde" unicode="&#xf1;" horiz-adv-x="1097" 
d="M291 1511l-25 117l137 105q11 -29 65.5 -55.5t109.5 -26.5q38 0 98 21.5t90 45.5l25 -114q-32 -29 -100 -53.5t-113 -24.5q-101 0 -183 67zM350 0h-248v1028h248v-94q93 63 167 89t169 26q153 0 231 -86t78 -248v-715h-247v633q0 176 -168 176q-111 0 -230 -94v-715z" />
    <glyph glyph-name="ograve" unicode="&#xf2;" horiz-adv-x="1126" 
d="M410 1831h180l8 -82q3 -58 15.5 -124.5t31.5 -142t25 -104.5h-152q-5 17 -31.5 95.5t-43 143t-21.5 126.5zM563 -16q-121 0 -214 41t-150.5 114t-87 169t-29.5 212t29.5 212t87 169.5t150.5 114.5t214 41t214 -41t150.5 -114.5t87 -169.5t29.5 -212t-29.5 -212t-87 -169
t-150.5 -114t-214 -41zM563 879q-124 0 -188 -100t-64 -259t64 -258.5t188 -99.5q123 0 185.5 99t62.5 259t-62.5 259.5t-185.5 99.5z" />
    <glyph glyph-name="oacute" unicode="&#xf3;" horiz-adv-x="1126" 
d="M709 1817l-13 -88q-4 -62 -19.5 -125t-43.5 -145.5t-31 -92.5h-153q5 22 19.5 80t23.5 96t18 93.5t10 101.5l10 80h179zM563 -16q-121 0 -214 41t-150.5 114t-87 169t-29.5 212t29.5 212t87 169.5t150.5 114.5t214 41t214 -41t150.5 -114.5t87 -169.5t29.5 -212
t-29.5 -212t-87 -169t-150.5 -114t-214 -41zM563 879q-124 0 -188 -100t-64 -259t64 -258.5t188 -99.5q123 0 185.5 99t62.5 259t-62.5 259.5t-185.5 99.5z" />
    <glyph glyph-name="ocircumflex" unicode="&#xf4;" horiz-adv-x="1126" 
d="M299 1470l279 289l288 -289l-4 -163l-289 280l-280 -282zM563 -16q-121 0 -214 41t-150.5 114t-87 169t-29.5 212t29.5 212t87 169.5t150.5 114.5t214 41t214 -41t150.5 -114.5t87 -169.5t29.5 -212t-29.5 -212t-87 -169t-150.5 -114t-214 -41zM563 879q-124 0 -188 -100
t-64 -259t64 -258.5t188 -99.5q123 0 185.5 99t62.5 259t-62.5 259.5t-185.5 99.5z" />
    <glyph glyph-name="otilde" unicode="&#xf5;" horiz-adv-x="1126" 
d="M313 1511l-24 117l137 105q11 -29 65 -55.5t109 -26.5q38 0 98 21.5t90 45.5l25 -114q-32 -29 -100 -53.5t-113 -24.5q-100 0 -182 67zM563 -16q-121 0 -214 41t-150.5 114t-87 169t-29.5 212t29.5 212t87 169.5t150.5 114.5t214 41t214 -41t150.5 -114.5t87 -169.5
t29.5 -212t-29.5 -212t-87 -169t-150.5 -114t-214 -41zM563 879q-124 0 -188 -100t-64 -259t64 -258.5t188 -99.5q123 0 185.5 99t62.5 259t-62.5 259.5t-185.5 99.5z" />
    <glyph glyph-name="odieresis" unicode="&#xf6;" horiz-adv-x="1126" 
d="M428 1362q-41 0 -71.5 30.5t-30.5 71.5q0 43 30.5 74t71.5 31q43 0 73.5 -31t30.5 -74q0 -41 -30.5 -71.5t-73.5 -30.5zM711 1362q-41 0 -72 30.5t-31 71.5q0 43 31 74t72 31q43 0 73.5 -31t30.5 -74q0 -41 -30.5 -71.5t-73.5 -30.5zM563 -16q-121 0 -214 41t-150.5 114
t-87 169t-29.5 212t29.5 212t87 169.5t150.5 114.5t214 41t214 -41t150.5 -114.5t87 -169.5t29.5 -212t-29.5 -212t-87 -169t-150.5 -114t-214 -41zM563 879q-124 0 -188 -100t-64 -259t64 -258.5t188 -99.5q123 0 185.5 99t62.5 259t-62.5 259.5t-185.5 99.5z" />
    <glyph glyph-name="divide" unicode="&#xf7;" horiz-adv-x="1212" 
d="M606 872q-57 0 -96 39.5t-39 96.5q0 56 39 94.5t96 38.5t96 -38.5t39 -94.5q0 -57 -39 -96.5t-96 -39.5zM1051 449h-891v182h891v-182zM606 -8q-57 0 -96 39t-39 96q0 56 39 94.5t96 38.5t96 -38.5t39 -94.5q0 -57 -39 -96t-96 -39z" />
    <glyph glyph-name="oslash" unicode="&#xf8;" horiz-adv-x="1126" 
d="M1044 520q0 -275 -152 -420t-419 -110l-49 -187h-96l53 209q-149 52 -224 186.5t-75 321.5q0 271 151.5 417.5t413.5 113.5l55 213h99l-62 -236q102 -33 171.5 -108t101.5 -175.5t32 -224.5zM434 213l168 664q-138 13 -212.5 -82.5t-74.5 -274.5q0 -104 30 -185.5
t89 -121.5zM520 166q139 -18 217 78t78 276q0 106 -32 188.5t-95 120.5z" />
    <glyph glyph-name="ugrave" unicode="&#xf9;" horiz-adv-x="1097" 
d="M467 1378q-5 17 -31.5 95.5t-43 143t-21.5 126.5l-13 88h181l8 -82q3 -58 15.5 -124.5t31 -142.5t24.5 -104h-151zM748 1028h247v-1032h-247v100q-88 -65 -164.5 -93t-171.5 -28q-154 0 -232 86t-78 248v719h248v-637q0 -176 168 -176q106 0 230 94v719z" />
    <glyph glyph-name="uacute" unicode="&#xfa;" horiz-adv-x="1097" 
d="M645 1729q-4 -62 -19.5 -125t-43.5 -145.5t-31 -92.5h-154q2 9 25.5 99.5t34 151.5t12.5 120l10 80h178zM748 1028h247v-1032h-247v100q-88 -65 -164.5 -93t-171.5 -28q-154 0 -232 86t-78 248v719h248v-637q0 -176 168 -176q106 0 230 94v719z" />
    <glyph glyph-name="ucircumflex" unicode="&#xfb;" horiz-adv-x="1097" 
d="M840 1323l-287 281l-281 -281l7 166l278 289l289 -289zM748 1028h247v-1032h-247v100q-88 -65 -164.5 -93t-171.5 -28q-154 0 -232 86t-78 248v719h248v-637q0 -176 168 -176q106 0 230 94v719z" />
    <glyph glyph-name="udieresis" unicode="&#xfc;" horiz-adv-x="1097" 
d="M377 1362q-41 0 -72 30.5t-31 71.5q0 43 31 74t72 31q43 0 73.5 -31t30.5 -74q0 -41 -30.5 -71.5t-73.5 -30.5zM659 1362q-41 0 -71.5 30.5t-30.5 71.5q0 43 30.5 74t71.5 31q43 0 74 -31t31 -74q0 -41 -31 -71.5t-74 -30.5zM748 1028h247v-1032h-247v100
q-88 -65 -164.5 -93t-171.5 -28q-154 0 -232 86t-78 248v719h248v-637q0 -176 168 -176q106 0 230 94v719z" />
    <glyph glyph-name="yacute" unicode="&#xfd;" horiz-adv-x="1103" 
d="M686 1747q-5 -62 -21.5 -126.5t-43 -143t-31.5 -95.5h-154q3 14 25.5 100.5t34 149t14.5 121.5l8 82h180zM805 1028h266l-498 -1401h-235l104 297l-409 1104h278l244 -799l2 -2z" />
    <glyph glyph-name="thorn" unicode="&#xfe;" horiz-adv-x="1107" 
d="M631 1059q99 0 175.5 -40.5t124 -113.5t71.5 -169.5t24 -213.5q0 -239 -107 -387.5t-303 -148.5q-74 0 -144 29.5t-122 84.5v-462h-248v1720h246l2 -420q53 56 128 88.5t153 32.5zM539 186q109 0 169 87.5t60 248.5q0 142 -60.5 225.5t-168.5 83.5q-58 0 -108 -21
t-81 -48v-506q31 -27 81 -48.5t108 -21.5z" />
    <glyph glyph-name="ydieresis" unicode="&#xff;" horiz-adv-x="1103" 
d="M418 1380q-42 0 -72.5 30.5t-30.5 72.5q0 41 30.5 71.5t72.5 30.5q41 0 71.5 -30.5t30.5 -71.5t-30.5 -72t-71.5 -31zM700 1380q-42 0 -73 31t-31 72t30.5 71.5t73.5 30.5q41 0 72 -30.5t31 -71.5t-31 -72t-72 -31zM805 1028h266l-498 -1401h-235l104 297l-409 1104h278
l244 -799l2 -2z" />
    <glyph glyph-name="Amacron" unicode="&#x100;" horiz-adv-x="1327" 
d="M393 1868h662v-185h-662v185zM907 334h-491l-109 -338h-264l522 1411h221l506 -1411h-274zM664 1124l-199 -589h395z" />
    <glyph glyph-name="amacron" unicode="&#x101;" horiz-adv-x="1040" 
d="M203 1618h661v-184h-661v184zM692 698q0 89 -43 137t-117 54.5t-157 -10t-178 -52.5l-43 166q85 36 173.5 57t177 27.5t166 -12.5t137.5 -59.5t95 -117.5t35 -183v-705h-248v127q-137 -143 -325 -143q-128 0 -202.5 79.5t-74.5 202.5q0 178 163 283.5t441 93.5v55z
M692 502q-90 10 -164.5 -6.5t-118 -49.5t-67 -71.5t-23.5 -77.5q0 -60 43 -92.5t109 -32.5q122 0 221 96v234z" />
    <glyph glyph-name="Abreve" unicode="&#x102;" horiz-adv-x="1327" 
d="M670 1585q-149 3 -252 82v135q44 -32 113.5 -53.5t138.5 -22.5q69 0 138.5 18.5t115.5 49.5v-137q-109 -72 -254 -72zM907 334h-491l-109 -338h-264l522 1411h221l506 -1411h-274zM664 1124l-199 -589h395z" />
    <glyph glyph-name="abreve" unicode="&#x103;" horiz-adv-x="1040" 
d="M539 1397q-146 3 -252 82v135q46 -33 115 -54t139 -22q69 0 138 18.5t116 49.5v-138q-110 -71 -256 -71zM692 698q0 89 -43 137t-117 54.5t-157 -10t-178 -52.5l-43 166q85 36 173.5 57t177 27.5t166 -12.5t137.5 -59.5t95 -117.5t35 -183v-705h-248v127
q-137 -143 -325 -143q-128 0 -202.5 79.5t-74.5 202.5q0 178 163 283.5t441 93.5v55zM692 502q-90 10 -164.5 -6.5t-118 -49.5t-67 -71.5t-23.5 -77.5q0 -60 43 -92.5t109 -32.5q122 0 221 96v234z" />
    <glyph glyph-name="Aogonek" unicode="&#x104;" horiz-adv-x="1327" 
d="M1040 -199q-23 0 -37 -15t-14 -38t14 -37t37 -14h226v-131h-226q-82 0 -132 50t-50 132q0 62 52.5 111.5t136.5 66.5l49 4l-9 66h-69l-111 338h-491l-109 -338h-264l522 1411h221l506 -1411h-67l41 -195h-226zM465 535h395l-196 589z" />
    <glyph glyph-name="aogonek" unicode="&#x105;" horiz-adv-x="1040" 
d="M938 705v-705h-64l39 -190h-227q-23 0 -38 -15.5t-15 -40.5t15 -40t38 -15h232v-133h-232q-83 0 -134.5 52.5t-51.5 135.5q0 63 53 114.5t139 68.5l53 4l-8 59h-47v127q-137 -143 -325 -143q-128 0 -202.5 79.5t-74.5 202.5q0 178 163 283.5t441 93.5v55q0 89 -43 137
t-117 54.5t-157 -10t-178 -52.5l-43 166q85 36 173.5 57t177 27.5t166 -12.5t137.5 -59.5t95 -117.5t35 -183zM692 268v234q-90 10 -164.5 -6.5t-118 -49.5t-67 -71.5t-23.5 -77.5q0 -60 43 -92.5t109 -32.5q122 0 221 96z" />
    <glyph glyph-name="Cacute" unicode="&#x106;" horiz-adv-x="1306" 
d="M854 2005l-10 -88q-5 -62 -21 -126t-43.5 -144t-31.5 -93h-154q2 9 25.5 99.5t34 151.5t12.5 120l10 80h178zM1208 82q-239 -107 -473 -107q-165 0 -288 52t-197.5 148.5t-111 226.5t-36.5 294t36.5 294t111 226.5t197.5 148.5t288 52q236 0 473 -106v-207
q-297 90 -444 90q-193 0 -292 -125.5t-99 -372.5q0 -246 99 -370.5t292 -124.5q154 0 444 88v-207z" />
    <glyph glyph-name="cacute" unicode="&#x107;" horiz-adv-x="964" 
d="M657 1817l-12 -88q-4 -62 -19.5 -125t-43.5 -145.5t-31 -92.5h-154q2 9 25.5 99.5t34 151.5t12.5 120l10 80h178zM903 45q-94 -37 -158.5 -49t-146.5 -12q-243 0 -383.5 148t-140.5 407q0 258 140.5 406.5t383.5 148.5q133 0 291 -52l-70 -180q-66 20 -103.5 26.5
t-88.5 6.5q-139 0 -220 -94.5t-81 -261.5q0 -168 81 -262.5t220 -94.5q99 0 217 51z" />
    <glyph glyph-name="Cdotaccent" unicode="&#x10a;" horiz-adv-x="1306" 
d="M723 1591q-42 0 -72 31t-30 72q0 43 29.5 73.5t72.5 30.5q40 0 70 -31t30 -73q0 -40 -30.5 -71.5t-69.5 -31.5zM1208 82q-239 -107 -473 -107q-165 0 -288 52t-197.5 148.5t-111 226.5t-36.5 294t36.5 294t111 226.5t197.5 148.5t288 52q236 0 473 -106v-207
q-297 90 -444 90q-193 0 -292 -125.5t-99 -372.5q0 -246 99 -370.5t292 -124.5q154 0 444 88v-207z" />
    <glyph glyph-name="cdotaccent" unicode="&#x10b;" horiz-adv-x="964" 
d="M526 1403q-42 0 -73 31t-31 71q0 43 30.5 74t73.5 31q40 0 70.5 -31.5t30.5 -73.5q0 -40 -30.5 -71t-70.5 -31zM903 45q-94 -37 -158.5 -49t-146.5 -12q-243 0 -383.5 148t-140.5 407q0 258 140.5 406.5t383.5 148.5q133 0 291 -52l-70 -180q-66 20 -103.5 26.5
t-88.5 6.5q-139 0 -220 -94.5t-81 -261.5q0 -168 81 -262.5t220 -94.5q99 0 217 51z" />
    <glyph glyph-name="Ccaron" unicode="&#x10c;" horiz-adv-x="1306" 
d="M416 1886l-6 142l307 -263l289 281l4 -141l-289 -287zM1208 82q-239 -107 -473 -107q-165 0 -288 52t-197.5 148.5t-111 226.5t-36.5 294t36.5 294t111 226.5t197.5 148.5t288 52q236 0 473 -106v-207q-297 90 -444 90q-193 0 -292 -125.5t-99 -372.5q0 -246 99 -370.5
t292 -124.5q154 0 444 88v-207z" />
    <glyph glyph-name="ccaron" unicode="&#x10d;" horiz-adv-x="964" 
d="M219 1698l-6 141l307 -262l289 281l4 -142l-289 -286zM903 45q-94 -37 -158.5 -49t-146.5 -12q-243 0 -383.5 148t-140.5 407q0 258 140.5 406.5t383.5 148.5q133 0 291 -52l-70 -180q-66 20 -103.5 26.5t-88.5 6.5q-139 0 -220 -94.5t-81 -261.5q0 -168 81 -262.5
t220 -94.5q99 0 217 51z" />
    <glyph glyph-name="Dcaron" unicode="&#x10e;" horiz-adv-x="1353" 
d="M209 1886l-8 142l309 -263l287 281l6 -141l-289 -287zM123 -4v1401h522q157 0 275.5 -49t193 -141.5t111.5 -219.5t37 -287q0 -332 -153.5 -518t-463.5 -186h-522zM645 221q346 0 346 479q0 242 -86 358t-260 116h-254v-953h254z" />
    <glyph glyph-name="dcaron" unicode="&#x10f;" horiz-adv-x="1107" 
d="M150 1698l-7 141l308 -262l288 281l4 -142l-288 -286zM760 106q-52 -57 -127.5 -89.5t-153.5 -32.5q-131 0 -222 71t-133 189.5t-42 275.5q0 156 45.5 275.5t140 190.5t226.5 71q74 0 144 -30.5t122 -86.5v465h246v-1405h-246v106zM760 786q-91 70 -191 70
q-109 0 -169 -87.5t-60 -248.5t60 -248.5t169 -87.5q107 0 191 70v532z" />
    <glyph glyph-name="Dcroat" unicode="&#x110;" horiz-adv-x="1353" 
d="M645 1397q157 0 275.5 -49t193 -141.5t111.5 -219.5t37 -287q0 -332 -153.5 -518t-463.5 -186h-522v549h-164v262h164v590h522zM645 221q346 0 346 479q0 242 -86 358t-260 116h-254v-367h221v-262h-221v-324h254z" />
    <glyph glyph-name="dcroat" unicode="&#x111;" horiz-adv-x="1107" 
d="M1200 1255v-133h-194v-1122h-246v106q-52 -57 -127.5 -89.5t-153.5 -32.5q-131 0 -222 71t-133 189.5t-42 275.5q0 156 45.5 275.5t140 190.5t226.5 71q74 0 144 -30.5t122 -86.5v182h-219v133h219v150h246v-150h194zM760 254v532q-91 70 -191 70q-109 0 -169 -87.5
t-60 -248.5t60 -248.5t169 -87.5q107 0 191 70z" />
    <glyph glyph-name="Emacron" unicode="&#x112;" horiz-adv-x="1140" 
d="M250 1851h659v-186h-659v186zM1057 1174h-664v-340h572v-224h-572v-389h674v-225h-944v1401h934v-223z" />
    <glyph glyph-name="emacron" unicode="&#x113;" horiz-adv-x="1118" 
d="M305 1542h621v-184h-621v184zM340 492q13 -310 332 -310q147 0 270 45l62 -170q-78 -33 -152 -50t-117.5 -20t-107.5 -3q-272 0 -408.5 147.5t-136.5 407.5q0 253 130.5 405t358.5 152q226 0 339.5 -167t72.5 -437h-643zM770 643q0 127 -54 203t-151 76
q-100 0 -159.5 -76t-65.5 -203h430z" />
    <glyph glyph-name="Edotaccent" unicode="&#x116;" horiz-adv-x="1140" 
d="M580 1591q-42 0 -72.5 31.5t-30.5 71.5q0 43 30 73.5t73 30.5q40 0 71 -31t31 -73q0 -40 -31 -71.5t-71 -31.5zM1057 1174h-664v-340h572v-224h-572v-389h674v-225h-944v1401h934v-223z" />
    <glyph glyph-name="edotaccent" unicode="&#x117;" horiz-adv-x="1118" 
d="M557 1403q-42 0 -73 31t-31 71q0 43 30.5 74t73.5 31q40 0 70 -31t30 -74q0 -40 -30 -71t-70 -31zM340 492q13 -310 332 -310q147 0 270 45l62 -170q-78 -33 -152 -50t-117.5 -20t-107.5 -3q-272 0 -408.5 147.5t-136.5 407.5q0 253 130.5 405t358.5 152
q226 0 339.5 -167t72.5 -437h-643zM770 643q0 127 -54 203t-151 76q-100 0 -159.5 -76t-65.5 -203h430z" />
    <glyph glyph-name="Eogonek" unicode="&#x118;" horiz-adv-x="1140" 
d="M393 221h674v-407h-229q-25 0 -40.5 -15.5t-15.5 -38.5q0 -25 15.5 -40t40.5 -15h229v-133h-229q-84 0 -135.5 52t-51.5 136q0 63 53.5 114.5t139.5 68.5l51 4v49h-772v1401h934v-223h-664v-340h572v-224h-572v-389z" />
    <glyph glyph-name="eogonek" unicode="&#x119;" horiz-adv-x="1118" 
d="M510 -231q-23 0 -38 -15.5t-15 -38.5q0 -25 15 -40t38 -15h229v-133h-229q-83 0 -134.5 51.5t-51.5 136.5q0 63 53 113.5t139 69.5l51 4l-12 84q-237 20 -355 165.5t-118 387.5q0 253 130.5 405t358.5 152q226 0 339.5 -167t72.5 -437h-643q13 -310 332 -310
q147 0 270 45l62 -170q-164 -68 -310 -71l45 -217h-229zM565 922q-100 0 -159.5 -76t-65.5 -203h430q0 127 -54 203t-151 76z" />
    <glyph glyph-name="Ecaron" unicode="&#x11a;" horiz-adv-x="1140" 
d="M272 1886l-6 142l307 -263l289 281l4 -141l-288 -287zM1057 1174h-664v-340h572v-224h-572v-389h674v-225h-944v1401h934v-223z" />
    <glyph glyph-name="ecaron" unicode="&#x11b;" horiz-adv-x="1118" 
d="M276 1718l-6 166l281 -282l289 280l4 -166l-289 -286zM340 492q13 -310 332 -310q147 0 270 45l62 -170q-78 -33 -152 -50t-117.5 -20t-107.5 -3q-272 0 -408.5 147.5t-136.5 407.5q0 253 130.5 405t358.5 152q226 0 339.5 -167t72.5 -437h-643zM770 643q0 127 -54 203
t-151 76q-100 0 -159.5 -76t-65.5 -203h430z" />
    <glyph glyph-name="Gbreve" unicode="&#x11e;" horiz-adv-x="1331" 
d="M735 1585q-149 3 -252 82v145q44 -32 113.5 -52.5t138.5 -22.5q69 0 139 18t115 49v-147q-109 -72 -254 -72zM938 694h270v-612q-239 -107 -473 -107q-165 0 -288 52t-197.5 148.5t-111 226.5t-36.5 294t36.5 294t111 226.5t197.5 148.5t288 52q224 0 461 -106v-217
q-230 100 -432 100q-193 0 -292 -125.5t-99 -372.5q0 -242 99 -368.5t269 -126.5q102 0 197 32v461z" />
    <glyph glyph-name="gbreve" unicode="&#x11f;" horiz-adv-x="1107" 
d="M539 1397q-146 3 -252 82v145q46 -33 115 -54t139 -22q69 0 138 18.5t116 49.5v-148q-110 -71 -256 -71zM166 -346l39 178q137 -57 263.5 -60t209 55t82.5 169v119q-52 -56 -122 -86.5t-144 -30.5q-132 0 -226.5 70.5t-140 190t-45.5 276.5t42 275.5t133 189.5t222 71
q76 0 149 -33t128 -90h4v103h246v-1061q0 -113 -47.5 -200t-130.5 -135.5t-189 -67.5t-228.5 -1.5t-244.5 68.5zM569 199q108 0 191 69v506q-84 70 -191 70q-108 0 -168.5 -83.5t-60.5 -225.5q0 -161 60 -248.5t169 -87.5z" />
    <glyph glyph-name="Gdotaccent" unicode="&#x120;" horiz-adv-x="1331" 
d="M725 1591q-42 0 -72 31t-30 72q0 43 29.5 73.5t72.5 30.5q40 0 71 -31t31 -73q0 -40 -31 -71.5t-71 -31.5zM938 694h270v-612q-239 -107 -473 -107q-165 0 -288 52t-197.5 148.5t-111 226.5t-36.5 294t36.5 294t111 226.5t197.5 148.5t288 52q224 0 461 -106v-217
q-230 100 -432 100q-193 0 -292 -125.5t-99 -372.5q0 -242 99 -368.5t269 -126.5q102 0 197 32v461z" />
    <glyph glyph-name="gdotaccent" unicode="&#x121;" horiz-adv-x="1107" 
d="M526 1403q-42 0 -73 31t-31 71q0 43 30.5 74t73.5 31q40 0 70.5 -31.5t30.5 -73.5q0 -40 -30.5 -71t-70.5 -31zM166 -346l39 178q137 -57 263.5 -60t209 55t82.5 169v119q-52 -56 -122 -86.5t-144 -30.5q-132 0 -226.5 70.5t-140 190t-45.5 276.5t42 275.5t133 189.5
t222 71q76 0 149 -33t128 -90h4v103h246v-1061q0 -113 -47.5 -200t-130.5 -135.5t-189 -67.5t-228.5 -1.5t-244.5 68.5zM569 199q108 0 191 69v506q-84 70 -191 70q-108 0 -168.5 -83.5t-60.5 -225.5q0 -161 60 -248.5t169 -87.5z" />
    <glyph glyph-name="uni0122" unicode="&#x122;" horiz-adv-x="1331" 
d="M938 694h270v-612q-239 -107 -473 -107q-165 0 -288 52t-197.5 148.5t-111 226.5t-36.5 294t36.5 294t111 226.5t197.5 148.5t288 52q224 0 461 -106v-217q-230 100 -432 100q-193 0 -292 -125.5t-99 -372.5q0 -242 99 -368.5t269 -126.5q102 0 197 32v461zM854 -289
q-17 -178 -113 -444h-149q2 8 24.5 102t37.5 177t20 163l6 76h182z" />
    <glyph glyph-name="uni0123" unicode="&#x123;" horiz-adv-x="1107" 
d="M600 1591q47 -5 78.5 -41.5t28.5 -83.5q-5 -51 -44.5 -82.5t-91.5 -25.5q-72 6 -126.5 55t-69.5 121q-15 139 -15 207l-6 157l178 -14l5 -149q0 -36 4 -150q37 12 59 6zM166 -346l39 178q137 -57 263.5 -60t209 55t82.5 169v119q-52 -56 -122 -86.5t-144 -30.5
q-132 0 -226.5 70.5t-140 190t-45.5 276.5t42 275.5t133 189.5t222 71q76 0 149 -33t128 -90h4v103h246v-1061q0 -113 -47.5 -200t-130.5 -135.5t-189 -67.5t-228.5 -1.5t-244.5 68.5zM569 199q108 0 191 69v506q-84 70 -191 70q-108 0 -168.5 -83.5t-60.5 -225.5
q0 -161 60 -248.5t169 -87.5z" />
    <glyph glyph-name="Hbar" unicode="&#x126;" horiz-adv-x="1345" 
d="M1317 1161v-180h-94v-985h-271v614h-559v-614h-270v985h-98v180h98v236h270v-236h559v236h271v-236h94zM952 834v147h-559v-147h559z" />
    <glyph glyph-name="hbar" unicode="&#x127;" horiz-adv-x="1097" 
d="M662 1057q151 3 242 -86t91 -256v-715h-247v633q0 171 -152 174q-110 5 -246 -92v-715h-248v1139h-157v145h157v113h248v-113h197v-145h-197v-199q153 114 312 117z" />
    <glyph glyph-name="Imacron" unicode="&#x12a;" horiz-adv-x="516" 
d="M-55 1903h661v-185h-661v185zM123 -4v1401h270v-1401h-270z" />
    <glyph glyph-name="imacron" unicode="&#x12b;" horiz-adv-x="516" 
d="M-59 1538h661v-180h-661v180zM350 1001v-1001h-248v1001h248z" />
    <glyph glyph-name="Iogonek" unicode="&#x12e;" horiz-adv-x="516" 
d="M393 1397v-1401h-63l55 -266h-229q-23 0 -38.5 -15.5t-15.5 -40.5q0 -23 15.5 -38t38.5 -15h229v-133h-229q-83 0 -135 51.5t-52 134.5q0 65 53.5 115.5t139.5 67.5l51 4l-18 135h-72v1401h270z" />
    <glyph glyph-name="iogonek" unicode="&#x12f;" horiz-adv-x="436" 
d="M215 1120q-54 0 -91.5 37.5t-37.5 91.5q0 53 37.5 90t91.5 37q53 0 90 -37t37 -90q0 -54 -37 -91.5t-90 -37.5zM61 -326q0 -23 15.5 -38t38.5 -15h231v-133h-231q-83 0 -135 51.5t-52 134.5q0 65 53.5 115.5t139.5 67.5l53 4l-20 139h-60v983h248v-983h-51l55 -270h-231
q-23 0 -38.5 -15.5t-15.5 -40.5z" />
    <glyph glyph-name="Idotaccent" unicode="&#x130;" horiz-adv-x="516" 
d="M260 1591q-42 0 -72 31t-30 72q0 43 29.5 73.5t72.5 30.5q40 0 71 -31t31 -73q0 -40 -31 -71.5t-71 -31.5zM123 -4v1401h270v-1401h-270z" />
    <glyph glyph-name="dotlessi" unicode="&#x131;" horiz-adv-x="452" 
d="M350 1001v-1001h-248v1001h248z" />
    <glyph glyph-name="uni0136" unicode="&#x136;" horiz-adv-x="1335" 
d="M707 717l581 -721h-346l-549 709v-709h-270v1401h270v-688l553 688h328zM535 -231l6 73h182l-8 -71q-18 -188 -113 -445h-149q4 17 18.5 78t25.5 109.5t22.5 121t15.5 134.5z" />
    <glyph glyph-name="uni0137" unicode="&#x137;" horiz-adv-x="1083" 
d="M569 680l488 -680h-295l-412 602v-602h-248v1397h248v-695l414 324h291zM432 -307l4 74h185l-9 -72q-16 -167 -112 -445h-150q4 17 18.5 78t25.5 109.5t22.5 121t15.5 134.5z" />
    <glyph glyph-name="Lacute" unicode="&#x139;" horiz-adv-x="1079" 
d="M983 2005l-12 -88q-4 -62 -19.5 -125t-43.5 -145.5t-31 -92.5h-154q2 9 25.5 99.5t34 151.5t12.5 120l10 80h178zM393 1397v-1176h643v-225h-913v1401h270z" />
    <glyph glyph-name="lacute" unicode="&#x13a;" horiz-adv-x="436" 
d="M418 2046l-12 -90q-5 -62 -20.5 -125t-43.5 -145t-31 -93h-153q6 28 24.5 104t31 142.5t15.5 124.5l11 82h178zM342 0h-248v1397h248v-1397z" />
    <glyph glyph-name="uni013B" unicode="&#x13b;" horiz-adv-x="1079" 
d="M393 1397v-1176h643v-225h-913v1401h270zM647 -367q-15 -174 -112 -444h-150q2 8 24.5 102t37.5 177t20 163l6 76h182z" />
    <glyph glyph-name="uni013C" unicode="&#x13c;" horiz-adv-x="436" 
d="M342 0h-248v1397h248v-1397zM299 -231q-17 -181 -115 -445h-149q1 6 24.5 100.5t39 178.5t20.5 164l4 73h182z" />
    <glyph glyph-name="Lcaron" unicode="&#x13d;" horiz-adv-x="1079" 
d="M545 1784l-6 141l307 -262l289 281l4 -142l-289 -289zM393 1397v-1176h643v-225h-913v1401h270z" />
    <glyph glyph-name="lcaron" unicode="&#x13e;" horiz-adv-x="436" 
d="M-66 1931l-8 166l283 -280l287 280l6 -166l-289 -289zM342 0h-248v1397h248v-1397z" />
    <glyph glyph-name="Lslash" unicode="&#x141;" horiz-adv-x="1079" 
d="M393 221h643v-225h-913v633l-121 -88h-262l383 280v576h270v-377l158 115h264l-422 -308v-606z" />
    <glyph glyph-name="lslash" unicode="&#x142;" horiz-adv-x="516" 
d="M788 1079l-395 -288v-795h-270v596l-146 -107h-264l410 299v613h270v-414l133 96h262z" />
    <glyph glyph-name="Nacute" unicode="&#x143;" horiz-adv-x="1378" 
d="M807 1917q-5 -62 -21 -126t-43.5 -144t-31.5 -93h-154q3 14 25.5 100.5t34 149t14.5 121.5l8 80h180zM1008 1397h247v-1401h-262l-628 934l6 -934h-248v1401h246l643 -959z" />
    <glyph glyph-name="nacute" unicode="&#x144;" horiz-adv-x="1097" 
d="M688 1817l-12 -88q-5 -62 -21 -126t-43.5 -144t-31.5 -93h-154q3 14 25.5 100.5t34 149t14.5 121.5l8 80h180zM350 0h-248v1028h248v-94q93 63 167 89t169 26q153 0 231 -86t78 -248v-715h-247v633q0 176 -168 176q-111 0 -230 -94v-715z" />
    <glyph glyph-name="uni0145" unicode="&#x145;" horiz-adv-x="1378" 
d="M1008 1397h247v-1401h-262l-628 934l6 -934h-248v1401h246l643 -959zM565 -383l6 74h183l-9 -72q-18 -190 -112 -444h-150q4 17 18.5 78t25.5 109.5t22.5 120.5t15.5 134z" />
    <glyph glyph-name="uni0146" unicode="&#x146;" horiz-adv-x="1097" 
d="M350 0h-248v1028h248v-94q93 63 167 89t169 26q153 0 231 -86t78 -248v-715h-247v633q0 176 -168 176q-111 0 -230 -94v-715zM610 -268q-18 -184 -114 -445h-150q1 6 24.5 100.5t39 178.5t20.5 164l4 73h182z" />
    <glyph glyph-name="Ncaron" unicode="&#x147;" horiz-adv-x="1378" 
d="M684 1618l-305 268l-6 146l307 -263l289 281l4 -145zM1008 1397h247v-1401h-262l-628 934l6 -934h-248v1401h246l643 -959z" />
    <glyph glyph-name="ncaron" unicode="&#x148;" horiz-adv-x="1097" 
d="M252 1595l-6 166l280 -282l289 280l4 -166l-289 -286zM350 0h-248v1028h248v-94q93 63 167 89t169 26q153 0 231 -86t78 -248v-715h-247v633q0 176 -168 176q-111 0 -230 -94v-715z" />
    <glyph glyph-name="Eng" unicode="&#x14a;" horiz-adv-x="1378" 
d="M1008 1401h247v-1401l-8 -72q-16 -166 -112 -444h-234q3 13 25.5 102t39 173.5t21.5 164.5l6 76l-628 934l6 -934h-248v1401h246l643 -959z" />
    <glyph glyph-name="eng" unicode="&#x14b;" horiz-adv-x="1097" 
d="M686 1049q153 0 231 -86t78 -248v-715l-8 -72q-16 -162 -113 -444h-217q1 5 24 100t38.5 178t21.5 162l7 76v633q0 176 -168 176q-111 0 -230 -94v-715h-248v1028h248v-94q93 63 167 89t169 26z" />
    <glyph glyph-name="Omacron" unicode="&#x14c;" horiz-adv-x="1439" 
d="M354 1837h834v-186h-834v186zM719 -25q-156 0 -275 52.5t-193 149t-111.5 228t-37.5 295.5q0 162 37.5 292t111.5 226t193 147.5t275 51.5t275 -52t193.5 -147.5t112 -225.5t37.5 -292q0 -163 -37.5 -295t-112 -228.5t-193.5 -149t-275 -52.5zM719 201q94 0 162.5 37
t108.5 106t58.5 157t18.5 199q0 494 -348 494q-172 0 -259 -124.5t-87 -369.5q0 -88 11 -161.5t37 -137t65.5 -107t98.5 -68.5t134 -25z" />
    <glyph glyph-name="omacron" unicode="&#x14d;" horiz-adv-x="1126" 
d="M246 1618h661v-184h-661v184zM563 -16q-121 0 -214 41t-150.5 114t-87 169t-29.5 212t29.5 212t87 169.5t150.5 114.5t214 41t214 -41t150.5 -114.5t87 -169.5t29.5 -212t-29.5 -212t-87 -169t-150.5 -114t-214 -41zM563 879q-124 0 -188 -100t-64 -259t64 -258.5
t188 -99.5q123 0 185.5 99t62.5 259t-62.5 259.5t-185.5 99.5z" />
    <glyph glyph-name="Ohungarumlaut" unicode="&#x150;" horiz-adv-x="1439" 
d="M725 2052q-9 -84 -28 -164t-49.5 -177t-33.5 -109h-153q0 2 20.5 88.5t28.5 124.5t20.5 109.5t16.5 125.5l6 68h178zM1106 2052q-6 -68 -25.5 -146.5t-47.5 -170t-38 -133.5h-153q2 11 26.5 118.5t38.5 185.5t19 146l6 66h180zM719 -25q-156 0 -275 52.5t-193 149
t-111.5 228t-37.5 295.5q0 162 37.5 292t111.5 226t193 147.5t275 51.5t275 -52t193.5 -147.5t112 -225.5t37.5 -292q0 -163 -37.5 -295t-112 -228.5t-193.5 -149t-275 -52.5zM719 201q94 0 162.5 37t108.5 106t58.5 157t18.5 199q0 494 -348 494q-172 0 -259 -124.5
t-87 -369.5q0 -88 11 -161.5t37 -137t65.5 -107t98.5 -68.5t134 -25z" />
    <glyph glyph-name="ohungarumlaut" unicode="&#x151;" horiz-adv-x="1126" 
d="M578 1864q-9 -84 -28 -164t-49.5 -178t-33.5 -109h-154q4 15 17 71t21 92.5t19 90t18.5 102.5t10.5 93l7 67h178zM958 1864q-6 -68 -25 -146.5t-47 -171t-38 -133.5h-154q2 10 26.5 118.5t38.5 186.5t19 146l6 65h181zM563 -16q-121 0 -214 41t-150.5 114t-87 169
t-29.5 212t29.5 212t87 169.5t150.5 114.5t214 41t214 -41t150.5 -114.5t87 -169.5t29.5 -212t-29.5 -212t-87 -169t-150.5 -114t-214 -41zM563 879q-124 0 -188 -100t-64 -259t64 -258.5t188 -99.5q123 0 185.5 99t62.5 259t-62.5 259.5t-185.5 99.5z" />
    <glyph glyph-name="OE" unicode="&#x152;" horiz-adv-x="2111" 
d="M1333 221h676v-225h-946v70q-139 -91 -344 -91q-156 0 -275 52.5t-193 149t-111.5 228t-37.5 295.5q0 162 37.5 292t111.5 226t193 147.5t275 51.5q205 0 344 -88v68h936v-223h-666v-340h572v-224h-570q-2 -4 -2 -14v-375zM719 201q162 0 245 106.5t99 292.5v201
q-35 393 -344 393q-172 0 -259 -124.5t-87 -369.5q0 -88 11 -161.5t37 -137t65.5 -107t98.5 -68.5t134 -25z" />
    <glyph glyph-name="oe" unicode="&#x153;" horiz-adv-x="1814" 
d="M1665 227l61 -170q-78 -33 -151.5 -50t-117 -20t-107.5 -3q-281 0 -418 159q-127 -159 -369 -159q-121 0 -214 41t-150.5 114t-87 169t-29.5 212t29.5 212t87 169.5t150.5 114.5t214 41q224 0 350 -139q132 178 381 178q226 0 339.5 -167t72.5 -437h-643
q13 -310 332 -310q147 0 270 45zM1288 922q-100 0 -159.5 -76t-65.5 -203h430q0 127 -54 203t-151 76zM563 162q111 0 173 80.5t73 216.5q-4 50 -4 80q0 41 2 59q-14 128 -75 204.5t-169 76.5q-124 0 -188 -100t-64 -259t64 -258.5t188 -99.5z" />
    <glyph glyph-name="Racute" unicode="&#x154;" horiz-adv-x="1275" 
d="M680 1917q-5 -62 -22 -128t-41.5 -139.5t-30.5 -95.5h-154q6 29 25 104.5t31.5 142t15.5 124.5l8 80h180zM913 553l324 -557h-305l-287 520h-252v-520h-270v1401h594q211 0 340 -119.5t129 -321.5q0 -153 -71.5 -256.5t-201.5 -146.5zM692 739q101 0 163.5 55.5
t62.5 161.5q0 104 -64 161t-160 57h-301v-435h299z" />
    <glyph glyph-name="racute" unicode="&#x155;" horiz-adv-x="714" 
d="M618 1817l-12 -88q-5 -62 -21 -126t-43.5 -144t-31.5 -93h-152q6 29 25 104.5t31.5 142t15.5 124.5l8 80h180zM350 0h-248v1028h248v-197q58 102 150.5 150.5t197.5 48.5v-194q-101 12 -212.5 -52t-135.5 -137v-647z" />
    <glyph glyph-name="uni0156" unicode="&#x156;" horiz-adv-x="1275" 
d="M913 553l324 -557h-305l-287 520h-252v-520h-270v1401h594q211 0 340 -119.5t129 -321.5q0 -153 -71.5 -256.5t-201.5 -146.5zM692 739q101 0 163.5 55.5t62.5 161.5q0 104 -64 161t-160 57h-301v-435h299zM551 -279l4 76h182l-6 -73q-17 -172 -115 -445h-149
q3 13 25 103t38 174.5t21 164.5z" />
    <glyph glyph-name="uni0157" unicode="&#x157;" horiz-adv-x="714" 
d="M350 0h-248v1028h248v-197q58 102 150.5 150.5t197.5 48.5v-194q-101 12 -212.5 -52t-135.5 -137v-647zM307 -231q-18 -183 -112 -445h-150q1 7 24 102t38 178t20 163l6 75h182z" />
    <glyph glyph-name="Rcaron" unicode="&#x158;" horiz-adv-x="1275" 
d="M559 1618l-307 268l-6 142l307 -263l289 281l6 -141zM913 553l324 -557h-305l-287 520h-252v-520h-270v1401h594q211 0 340 -119.5t129 -321.5q0 -153 -71.5 -256.5t-201.5 -146.5zM692 739q101 0 163.5 55.5t62.5 161.5q0 104 -64 161t-160 57h-301v-435h299z" />
    <glyph glyph-name="rcaron" unicode="&#x159;" horiz-adv-x="714" 
d="M174 1671l-6 166l281 -283l288 281l6 -166l-290 -287zM350 0h-248v1028h248v-197q58 102 150.5 150.5t197.5 48.5v-194q-101 12 -212.5 -52t-135.5 -137v-647z" />
    <glyph glyph-name="Sacute" unicode="&#x15a;" horiz-adv-x="1193" 
d="M748 2005l-13 -88q-4 -62 -19.5 -125t-43.5 -145.5t-31 -92.5h-154q2 9 25.5 99.5t34 151.5t12.5 120l10 80h179zM596 -25q-280 0 -524 68v219q330 -69 514 -69q125 0 194.5 54.5t69.5 133.5q0 30 -10.5 55.5t-34.5 46t-46.5 35t-65 31t-71 25.5t-80.5 25q-2 1 -3.5 1
t-3 1t-3.5 1q-53 16 -89.5 29t-86.5 34.5t-83.5 43.5t-70 55t-58.5 70t-36 88t-14 110q0 98 37.5 173t105.5 120.5t158 68.5t201 23q234 0 494 -74v-225q-278 80 -488 80q-237 0 -237 -166q0 -25 9 -46.5t21 -38t37.5 -32t45 -26t56.5 -23.5t60 -20t67 -20q11 -3 17 -5
q53 -15 89.5 -27t87 -33t84.5 -42t71 -53.5t59 -69.5t36.5 -87.5t14.5 -109.5q0 -105 -39.5 -187t-110 -133t-165.5 -77.5t-209 -26.5z" />
    <glyph glyph-name="sacute" unicode="&#x15b;" horiz-adv-x="983" 
d="M647 1817l-10 -88q-5 -62 -21 -126t-43.5 -144t-31.5 -93h-154q2 9 25.5 99.5t34 151.5t12.5 120l10 80h178zM479 -35q-206 0 -407 88v185q85 -41 184 -63.5t172 -22.5q104 0 149.5 38t45.5 86q0 23 -10.5 42t-26.5 32.5t-43.5 27.5t-52 23.5t-61.5 22.5q-11 4 -17 6
q-55 19 -90 33t-83.5 41.5t-77 58.5t-49 79.5t-20.5 107.5q0 159 116 249.5t331 90.5q182 0 350 -84v-183q-147 82 -285 82q-112 0 -170.5 -41.5t-58.5 -93.5q0 -37 33 -67.5t66 -45t107 -41.5q18 -7 27 -10q52 -19 87.5 -34t80 -41.5t71 -56t45.5 -74t19 -97.5
q0 -158 -120 -248t-312 -90z" />
    <glyph glyph-name="Scedilla" unicode="&#x15e;" horiz-adv-x="1193" 
d="M612 -25v-6q-16 -118 -28 -162l131 -4q75 -14 134.5 -66t59.5 -116q0 -78 -55 -132t-133 -54h-309v131h309q23 0 39 16t16 39t-16 39t-39 16h-309q18 49 27 76t21.5 87t18.5 126v12q-209 10 -407 66v219q330 -69 514 -69q125 0 194.5 54.5t69.5 133.5q0 30 -10.5 55.5
t-34.5 46t-46.5 35t-65 31t-71 25.5t-80.5 25q-2 1 -3.5 1t-3 1t-3.5 1q-53 16 -89.5 29t-86.5 34.5t-83.5 43.5t-70 55t-58.5 70t-36 88t-14 110q0 98 37.5 173t105.5 120.5t158 68.5t201 23q234 0 494 -74v-225q-278 80 -488 80q-237 0 -237 -166q0 -25 9 -46.5t21 -38
t37.5 -32t45 -26t56.5 -23.5t60 -20t67 -20q11 -3 17 -5q53 -15 89.5 -27t87 -33t84.5 -42t71 -53.5t59 -69.5t36.5 -87.5t14.5 -109.5q0 -203 -139 -311t-369 -113z" />
    <glyph glyph-name="scedilla" unicode="&#x15f;" horiz-adv-x="983" 
d="M659 -244q74 -15 133.5 -66.5t59.5 -115.5q0 -78 -54.5 -132t-131.5 -54h-312v131h312q23 0 38 16t15 39t-15 39t-38 16h-312q19 52 27.5 76.5t21.5 85.5t19 127l4 49q-179 9 -354 86v185q85 -41 184 -63.5t172 -22.5q104 0 149.5 38t45.5 86q0 23 -10.5 42t-26.5 32.5
t-43.5 27.5t-52 23.5t-61.5 22.5q-11 4 -17 6q-55 19 -90 33t-83.5 41.5t-77 58.5t-49 79.5t-20.5 107.5q0 159 116 249.5t331 90.5q182 0 350 -84v-183q-147 82 -285 82q-112 0 -170.5 -41.5t-58.5 -93.5q0 -37 33 -67.5t66 -45t107 -41.5q18 -7 27 -10q52 -19 87.5 -34
t80 -41.5t71 -56t45.5 -74t19 -97.5q0 -139 -95.5 -227t-254.5 -107l-6 -47q-10 -93 -29 -162z" />
    <glyph glyph-name="Scaron" unicode="&#x160;" horiz-adv-x="1193" 
d="M309 1886l-6 142l307 -263l289 281l4 -141l-289 -287zM596 -25q-280 0 -524 68v219q330 -69 514 -69q125 0 194.5 54.5t69.5 133.5q0 30 -10.5 55.5t-34.5 46t-46.5 35t-65 31t-71 25.5t-80.5 25q-2 1 -3.5 1t-3 1t-3.5 1q-53 16 -89.5 29t-86.5 34.5t-83.5 43.5t-70 55
t-58.5 70t-36 88t-14 110q0 98 37.5 173t105.5 120.5t158 68.5t201 23q234 0 494 -74v-225q-278 80 -488 80q-237 0 -237 -166q0 -25 9 -46.5t21 -38t37.5 -32t45 -26t56.5 -23.5t60 -20t67 -20q11 -3 17 -5q53 -15 89.5 -27t87 -33t84.5 -42t71 -53.5t59 -69.5t36.5 -87.5
t14.5 -109.5q0 -105 -39.5 -187t-110 -133t-165.5 -77.5t-209 -26.5z" />
    <glyph glyph-name="scaron" unicode="&#x161;" horiz-adv-x="983" 
d="M223 1671l-6 166l281 -283l286 281l7 -166l-289 -287zM479 -35q-206 0 -407 88v185q85 -41 184 -63.5t172 -22.5q104 0 149.5 38t45.5 86q0 23 -10.5 42t-26.5 32.5t-43.5 27.5t-52 23.5t-61.5 22.5q-11 4 -17 6q-55 19 -90 33t-83.5 41.5t-77 58.5t-49 79.5t-20.5 107.5
q0 159 116 249.5t331 90.5q182 0 350 -84v-183q-147 82 -285 82q-112 0 -170.5 -41.5t-58.5 -93.5q0 -37 33 -67.5t66 -45t107 -41.5q18 -7 27 -10q52 -19 87.5 -34t80 -41.5t71 -56t45.5 -74t19 -97.5q0 -158 -120 -248t-312 -90z" />
    <glyph glyph-name="uni0162" unicode="&#x162;" horiz-adv-x="1142" 
d="M637 -4l-4 -35q-10 -93 -29 -162l131 -4q75 -13 135 -65t60 -115q0 -78 -55 -133t-132 -55h-311v133h311q22 0 38 15.5t16 39.5q0 22 -16 37.5t-38 15.5h-311q19 52 27.5 76.5t21.5 86t19 128.5l4 37h-68v1178h-383v223h1039v-223h-385v-1178h-70z" />
    <glyph glyph-name="uni0163" unicode="&#x163;" horiz-adv-x="624" 
d="M590 -238q75 -14 134.5 -66t59.5 -116q0 -78 -55 -132t-133 -54h-309v131h309q23 0 39 16t16 39t-16 39t-39 16h-309q18 49 27 76t21.5 87t18.5 126l2 53q-114 9 -162.5 75.5t-48.5 189.5v575h-131l33 187h98v249l248 62v-311h209l-33 -187h-176v-553q0 -53 28.5 -78.5
t76.5 -25.5q65 0 92 10v-178q-22 -4 -96 -12l-7 -52q-16 -116 -28 -161z" />
    <glyph glyph-name="Tcaron" unicode="&#x164;" horiz-adv-x="1142" 
d="M266 1886l-6 142l307 -263l289 281l6 -141l-291 -287zM1092 1174h-385v-1178h-271v1178h-383v223h1039v-223z" />
    <glyph glyph-name="tcaron" unicode="&#x165;" horiz-adv-x="624" 
d="M121 1759l-6 166l280 -280l287 280l6 -166l-289 -286zM393 817v-553q0 -53 28.5 -78.5t76.5 -25.5q65 0 92 10v-178q-87 -17 -193 -17q-137 0 -194.5 67t-57.5 200v575h-131l33 187h98v249l248 62v-311h209l-33 -187h-176z" />
    <glyph glyph-name="Tbar" unicode="&#x166;" horiz-adv-x="1142" 
d="M1092 1174h-385v-312h219v-223h-219v-643h-271v643h-233v223h233v312h-383v223h1039v-223z" />
    <glyph glyph-name="tbar" unicode="&#x167;" horiz-adv-x="624" 
d="M393 264q0 -53 28.5 -78.5t76.5 -25.5q65 0 92 10v-178q-87 -17 -193 -17q-137 0 -194.5 67t-57.5 200v231h-98v184h98v160h-131l33 187h98v249l248 62v-311h209l-33 -187h-176v-160h176v-184h-176v-209z" />
    <glyph glyph-name="Umacron" unicode="&#x16a;" horiz-adv-x="1357" 
d="M352 1835h621v-184h-621v184zM393 504q0 -303 285 -303q287 0 287 303v893h270v-893q0 -264 -147.5 -396.5t-409.5 -132.5q-261 0 -408 132.5t-147 396.5v893h270v-893z" />
    <glyph glyph-name="umacron" unicode="&#x16b;" horiz-adv-x="1097" 
d="M848 1618v-184h-586v184h586zM748 1028h247v-1032h-247v100q-88 -65 -164.5 -93t-171.5 -28q-154 0 -232 86t-78 248v719h248v-637q0 -176 168 -176q106 0 230 94v719z" />
    <glyph glyph-name="Uring" unicode="&#x16e;" horiz-adv-x="1357" 
d="M655 1606q-63 0 -108 45.5t-45 109.5q0 63 45 108.5t108 45.5t108.5 -45.5t45.5 -108.5q0 -64 -45.5 -109.5t-108.5 -45.5zM655 1696q30 0 49 19.5t19 51.5q0 29 -19.5 47.5t-48.5 18.5t-47 -18.5t-18 -47.5q0 -32 18 -51.5t47 -19.5zM393 504q0 -303 285 -303
q287 0 287 303v893h270v-893q0 -264 -147.5 -396.5t-409.5 -132.5q-261 0 -408 132.5t-147 396.5v893h270v-893z" />
    <glyph glyph-name="uring" unicode="&#x16f;" horiz-adv-x="1097" 
d="M522 1417q-63 0 -108 46t-45 110q0 63 45 108t108 45t108.5 -45t45.5 -108q0 -64 -45.5 -110t-108.5 -46zM522 1645q-29 0 -47 -18.5t-18 -47.5q0 -32 18 -52t47 -20q30 0 49 20t19 52q0 29 -19.5 47.5t-48.5 18.5zM748 1028h247v-1032h-247v100q-88 -65 -164.5 -93
t-171.5 -28q-154 0 -232 86t-78 248v719h248v-637q0 -176 168 -176q106 0 230 94v719z" />
    <glyph glyph-name="Uhungarumlaut" unicode="&#x170;" horiz-adv-x="1357" 
d="M659 2052q-9 -84 -27.5 -163t-49.5 -179t-33 -108h-154q2 11 27 117t39 184t18 147l6 68h181zM1040 2052q-6 -68 -25 -146t-47 -170.5t-38 -133.5h-154q2 11 26.5 118.5t38.5 185.5t19 146l6 66h181zM393 504q0 -303 285 -303q287 0 287 303v893h270v-893
q0 -264 -147.5 -396.5t-409.5 -132.5q-261 0 -408 132.5t-147 396.5v893h270v-893z" />
    <glyph glyph-name="uhungarumlaut" unicode="&#x171;" horiz-adv-x="1097" 
d="M526 1864q-9 -84 -27.5 -163t-49.5 -180t-33 -108h-154q4 15 17 71t21 92.5t19 90t18.5 102.5t10.5 93l6 67h178zM907 1864q-6 -68 -25 -146.5t-47 -171t-38 -133.5h-154q2 10 26.5 118.5t38.5 186.5t19 146l6 65h180zM748 1028h247v-1032h-247v100q-88 -65 -164.5 -93
t-171.5 -28q-154 0 -232 86t-78 248v719h248v-637q0 -176 168 -176q106 0 230 94v719z" />
    <glyph glyph-name="Uogonek" unicode="&#x172;" horiz-adv-x="1357" 
d="M965 1397h270v-893q0 -249 -131 -381t-365 -146l47 -231h-229q-25 0 -40 -15t-15 -40q0 -23 15 -38t40 -15h229v-134h-229q-83 0 -134.5 52t-51.5 135q0 65 53 115t139 67l51 4l-14 100q-226 19 -351.5 151t-125.5 376v893h270v-893q0 -303 285 -303q287 0 287 303v893z
" />
    <glyph glyph-name="uogonek" unicode="&#x173;" horiz-adv-x="1097" 
d="M995 1028v-1032h-71l55 -266h-231q-23 0 -38.5 -15.5t-15.5 -40.5q0 -23 15.5 -38t38.5 -15h231v-133h-231q-83 0 -135 51.5t-52 134.5q0 65 53.5 115.5t141.5 67.5l51 4l-19 135h-40v100q-88 -65 -164.5 -93t-171.5 -28q-154 0 -232 86t-78 248v719h248v-637
q0 -176 168 -176q106 0 230 94v719h247z" />
    <glyph glyph-name="Wcircumflex" unicode="&#x174;" horiz-adv-x="1941" 
d="M1249 1518l-286 282l-308 -264l7 141l305 271l288 -289zM1634 1397h264l-362 -1411h-315l-250 970l-250 -970h-315l-363 1411h276l166 -660l90 -395l91 395l165 660h289l172 -660l92 -395l84 395z" />
    <glyph glyph-name="wcircumflex" unicode="&#x175;" horiz-adv-x="1691" 
d="M1118 1323l-289 281l-280 -281l6 166l279 289l288 -289zM1393 1028h266l-322 -1042h-305l-192 688l-191 -688h-297l-319 1042h268l213 -823l205 823h254l205 -823z" />
    <glyph glyph-name="Ycircumflex" unicode="&#x176;" horiz-adv-x="1267" 
d="M326 1677l305 271l289 -289l-7 -141l-286 282l-308 -264zM643 705l150 354l161 338h275l-459 -951v-450h-270v450l-459 951h285l161 -338l154 -354h2z" />
    <glyph glyph-name="ycircumflex" unicode="&#x177;" horiz-adv-x="1103" 
d="M891 1323l-287 281l-280 -281l6 166l278 289l289 -289zM805 1028h266l-498 -1401h-235l104 297l-409 1104h278l244 -799l2 -2z" />
    <glyph glyph-name="Ydieresis" unicode="&#x178;" horiz-adv-x="1267" 
d="M475 1550q-42 0 -72 30.5t-30 72.5q0 43 29.5 73.5t72.5 30.5q41 0 72 -30.5t31 -73.5q0 -41 -31 -72t-72 -31zM758 1550q-43 0 -74 31t-31 72q0 43 31 73.5t74 30.5q41 0 71.5 -30.5t30.5 -73.5q0 -41 -30.5 -72t-71.5 -31zM643 705l150 354l161 338h275l-459 -951v-450
h-270v450l-459 951h285l161 -338l154 -354h2z" />
    <glyph glyph-name="Zacute" unicode="&#x179;" horiz-adv-x="1187" 
d="M754 1917q-4 -62 -20 -125.5t-43.5 -144t-31.5 -93.5h-153q2 9 25.5 99.5t34 151.5t12.5 120l10 80h178zM418 221h696v-225h-1040v180l674 998h-633v223h972v-183z" />
    <glyph glyph-name="zacute" unicode="&#x17a;" horiz-adv-x="962" 
d="M645 1747q-4 -62 -20 -126t-43 -144t-31 -95h-154q2 9 25.5 99.5t34 151.5t12.5 120l10 82h178zM365 186h548v-190h-866v176l543 666h-512v190h815v-176z" />
    <glyph glyph-name="Zdotaccent" unicode="&#x17b;" horiz-adv-x="1187" 
d="M635 1591q-42 0 -73.5 31.5t-31.5 71.5q0 43 31 73.5t74 30.5q40 0 70 -31t30 -73q0 -40 -30.5 -71.5t-69.5 -31.5zM418 221h696v-225h-1040v180l674 998h-633v223h972v-183z" />
    <glyph glyph-name="zdotaccent" unicode="&#x17c;" horiz-adv-x="962" 
d="M526 1421q-42 0 -73 30.5t-31 72.5q0 43 30.5 73.5t73.5 30.5q40 0 70.5 -31t30.5 -73q0 -41 -30.5 -72t-70.5 -31zM365 186h548v-190h-866v176l543 666h-512v190h815v-176z" />
    <glyph glyph-name="Zcaron" unicode="&#x17d;" horiz-adv-x="1187" 
d="M633 1618l-305 268l-6 142l307 -263l289 281l4 -141zM418 221h696v-225h-1040v180l674 998h-633v223h972v-183z" />
    <glyph glyph-name="zcaron" unicode="&#x17e;" horiz-adv-x="962" 
d="M524 1448l-305 268l-6 142l307 -263l289 281l4 -141zM365 186h548v-190h-866v176l543 666h-512v190h815v-176z" />
    <glyph glyph-name="uni0218" unicode="&#x218;" horiz-adv-x="1193" 
d="M596 -25q-280 0 -524 68v219q330 -69 514 -69q125 0 194.5 54.5t69.5 133.5q0 30 -10.5 55.5t-34.5 46t-46.5 35t-65 31t-71 25.5t-80.5 25q-2 1 -3.5 1t-3 1t-3.5 1q-53 16 -89.5 29t-86.5 34.5t-83.5 43.5t-70 55t-58.5 70t-36 88t-14 110q0 98 37.5 173t105.5 120.5
t158 68.5t201 23q234 0 494 -74v-225q-278 80 -488 80q-237 0 -237 -166q0 -25 9 -46.5t21 -38t37.5 -32t45 -26t56.5 -23.5t60 -20t67 -20q11 -3 17 -5q53 -15 89.5 -27t87 -33t84.5 -42t71 -53.5t59 -69.5t36.5 -87.5t14.5 -109.5q0 -105 -39.5 -187t-110 -133
t-165.5 -77.5t-209 -26.5zM643 -287q-16 -162 -113 -444h-149q4 17 18.5 78t25.5 109.5t22.5 120.5t15.5 134l4 74h184z" />
    <glyph glyph-name="uni0219" unicode="&#x219;" horiz-adv-x="983" 
d="M479 -35q-206 0 -407 88v185q85 -41 184 -63.5t172 -22.5q104 0 149.5 38t45.5 86q0 23 -10.5 42t-26.5 32.5t-43.5 27.5t-52 23.5t-61.5 22.5q-11 4 -17 6q-55 19 -90 33t-83.5 41.5t-77 58.5t-49 79.5t-20.5 107.5q0 159 116 249.5t331 90.5q182 0 350 -84v-183
q-147 82 -285 82q-112 0 -170.5 -41.5t-58.5 -93.5q0 -37 33 -67.5t66 -45t107 -41.5q18 -7 27 -10q52 -19 87.5 -34t80 -41.5t71 -56t45.5 -74t19 -97.5q0 -158 -120 -248t-312 -90zM561 -254q-18 -190 -112 -444h-150q4 17 18.5 78t25.5 109.5t22.5 120.5t15.5 134l6 74
h182z" />
    <glyph glyph-name="uni021A" unicode="&#x21a;" horiz-adv-x="1142" 
d="M1092 1174h-385v-1178h-271v1178h-383v223h1039v-223zM674 -289q-18 -187 -113 -444h-149q0 2 23.5 99t38.5 179t20 162l6 76h182z" />
    <glyph glyph-name="uni021B" unicode="&#x21b;" horiz-adv-x="624" 
d="M393 817v-553q0 -53 28.5 -78.5t76.5 -25.5q65 0 92 10v-178q-87 -17 -193 -17q-137 0 -194.5 67t-57.5 200v575h-131l33 187h98v249l248 62v-311h209l-33 -187h-176zM504 -217q-14 -172 -113 -445h-149q1 7 24 102t38 178t20 163l6 76h182z" />
    <glyph glyph-name="circumflex" unicode="&#x2c6;" horiz-adv-x="600" 
d="M6 1765l305 271l289 -289l-4 -141l-289 280l-307 -262z" />
    <glyph glyph-name="caron" unicode="&#x2c7;" horiz-adv-x="600" 
d="M6 1894l-6 142l307 -262l289 280l4 -141l-289 -289z" />
    <glyph glyph-name="breve" unicode="&#x2d8;" horiz-adv-x="507" 
d="M252 1599q-140 0 -252 80v103q46 -33 115 -54t139 -22q69 0 138 18.5t116 49.5v-105q-113 -73 -256 -70z" />
    <glyph glyph-name="dotaccent" unicode="&#x2d9;" horiz-adv-x="188" 
d="M88 1575q-41 0 -71.5 30.5t-30.5 71.5q0 43 30.5 74t71.5 31t71.5 -31t30.5 -74q0 -41 -30.5 -71.5t-71.5 -30.5z" />
    <glyph glyph-name="ring" unicode="&#x2da;" horiz-adv-x="399" 
d="M201 1561q-64 0 -109 45t-45 110q0 63 45 108.5t109 45.5q63 0 108 -45.5t45 -108.5q0 -64 -45 -109.5t-108 -45.5zM201 1651q28 0 46.5 19.5t18.5 51.5q0 28 -18.5 47t-46.5 19q-29 0 -48.5 -19t-19.5 -47q0 -32 19 -51.5t49 -19.5z" />
    <glyph glyph-name="ogonek" unicode="&#x2db;" horiz-adv-x="417" 
d="M246 -139l-19 139h135l56 -270h-232q-23 0 -38 -15.5t-15 -40.5q0 -23 15 -38t38 -15h232v-133h-232q-83 0 -134.5 51.5t-51.5 134.5q0 65 53.5 115.5t141.5 67.5z" />
    <glyph glyph-name="tilde" unicode="&#x2dc;" horiz-adv-x="524" 
d="M25 1638l-25 117l137 105q11 -29 65 -55.5t109 -26.5q38 0 98.5 21.5t90.5 45.5l24 -114q-32 -29 -100 -53.5t-113 -24.5q-100 0 -182 67z" />
    <glyph glyph-name="hungarumlaut" unicode="&#x2dd;" horiz-adv-x="651" 
d="M264 2005q-9 -84 -27.5 -163.5t-49.5 -179.5t-33 -108h-154q0 1 20.5 88.5t28.5 125t20.5 109t16.5 124.5l6 70h178zM645 2005q-6 -68 -25 -146.5t-47 -171t-38 -133.5h-154q2 7 21.5 91t28 124.5t20.5 111.5t16 124l6 66h178z" />
    <glyph glyph-name="gravecomb" unicode="&#x300;" 
d="M-260 2030h178l10 -82q3 -58 15.5 -124.5t31.5 -142t25 -104.5h-154q-4 14 -31 94.5t-42.5 143t-20.5 124.5z" />
    <glyph glyph-name="acutecomb" unicode="&#x301;" 
d="M0 2052l-12 -88q-4 -62 -19.5 -125t-43.5 -144.5t-31 -92.5h-154q5 21 20 78.5t24 95.5t18 94t10 102l10 80h178z" />
    <glyph glyph-name="uni0302" unicode="&#x302;" 
d="M-594 1765l305 271l289 -289l-4 -141l-289 280l-307 -262z" />
    <glyph glyph-name="tildecomb" unicode="&#x303;" 
d="M-500 1638l-24 117l137 105q11 -29 65 -55.5t109 -26.5q38 0 98 21.5t90 45.5l25 -114q-32 -29 -100 -53.5t-113 -24.5q-100 0 -182 67z" />
    <glyph glyph-name="uni0304" unicode="&#x304;" 
d="M-991 1190h991v-184h-991v184z" />
    <glyph glyph-name="uni0306" unicode="&#x306;" 
d="M-256 1599q-140 0 -252 80v103q46 -33 115 -54t139 -22q69 0 138 18.5t116 49.5v-105q-113 -73 -256 -70z" />
    <glyph glyph-name="uni0307" unicode="&#x307;" 
d="M-100 1575q-41 0 -72 30.5t-31 71.5q0 43 31 74t72 31t71.5 -31t30.5 -74q0 -41 -30.5 -71.5t-71.5 -30.5z" />
    <glyph glyph-name="uni0308" unicode="&#x308;" 
d="M-385 1575q-41 0 -71.5 30.5t-30.5 71.5q0 43 30.5 74t71.5 31q43 0 73.5 -31t30.5 -74q0 -41 -30.5 -71.5t-73.5 -30.5zM-102 1575q-42 0 -72.5 30.5t-30.5 71.5q0 43 30 74t73 31q42 0 72 -31t30 -74q0 -42 -30 -72t-72 -30z" />
    <glyph glyph-name="uni030A" unicode="&#x30a;" 
d="M-199 1561q-64 0 -108.5 45t-44.5 110q0 63 44.5 108.5t108.5 45.5q63 0 108.5 -45.5t45.5 -108.5q0 -64 -45.5 -109.5t-108.5 -45.5zM-199 1651q28 0 47 19.5t19 51.5q0 28 -19 47t-47 19q-29 0 -48 -19t-19 -47q0 -32 18.5 -51.5t48.5 -19.5z" />
    <glyph glyph-name="uni030B" unicode="&#x30b;" 
d="M-387 2005q-9 -84 -28 -164.5t-49.5 -177.5t-33.5 -109h-153q0 1 20.5 88.5t28.5 125t20.5 109t16.5 124.5l6 70h178zM-6 2005q-6 -68 -25.5 -146.5t-47.5 -170.5t-38 -134h-153q2 7 21.5 91t28 124.5t20.5 111.5t16 124l6 66h178z" />
    <glyph glyph-name="uni030C" unicode="&#x30c;" 
d="M-594 1894l-6 142l307 -262l289 280l4 -141l-289 -289z" />
    <glyph glyph-name="uni0312" unicode="&#x312;" 
d="M-106 1774q47 -4 78 -41.5t28 -83.5q-4 -52 -43 -84t-92 -27q-72 8 -127 57t-70 121q-14 130 -14 207l-6 158l178 -15l4 -151q0 -38 4 -148q36 12 60 7z" />
    <glyph glyph-name="uni0326" unicode="&#x326;" 
d="M-113 102q-15 -182 -112 -444h-150q4 17 18.5 78t25.5 109.5t22.5 120.5t15.5 134l6 74h183z" />
    <glyph glyph-name="uni0327" unicode="&#x327;" 
d="M-326 -233l131 -5q75 -14 135 -66t60 -116q0 -78 -55 -132t-133 -54h-310v131h310q23 0 39 16t16 39t-16 39t-39 16h-310q19 52 27.5 76.5t21.5 85.5t19 127l6 76h135l-8 -72q-10 -91 -29 -161z" />
    <glyph glyph-name="uni0328" unicode="&#x328;" 
d="M-172 -139l-18 139h135l55 -270h-231q-23 0 -38.5 -15.5t-15.5 -40.5q0 -23 15.5 -38t38.5 -15h231v-133h-231q-83 0 -135 51.5t-52 134.5q0 65 53.5 115.5t141.5 67.5z" />
    <glyph glyph-name="uni060C" unicode="&#x60c;" horiz-adv-x="573" 
d="M170 98q18 188 113 445h149q-4 -17 -18.5 -78t-25.5 -109.5t-22.5 -121t-15.5 -134.5l-6 -73h-182z" />
    <glyph glyph-name="uni0615" unicode="&#x615;" 
d="M645 1769q75 0 114.5 -47t39.5 -137v-123h-471v101h78v340h100v-201q70 67 139 67zM700 1563v22q0 84 -67 84q-60 0 -127 -76v-30h194z" />
    <glyph glyph-name="uni061B" unicode="&#x61b;" horiz-adv-x="534" 
d="M205 688q18 192 112 445h150q-4 -17 -18.5 -78t-25.5 -109.5t-22.5 -121t-15.5 -134.5l-6 -74h-182zM283 -10q-47 0 -79 32t-34 78q0 46 33 78.5t80 32.5q45 0 78 -33t32 -78q-1 -46 -33.5 -78t-76.5 -32z" />
    <glyph glyph-name="uni061C" unicode="&#x61c;" horiz-adv-x="1228" 
 />
    <glyph glyph-name="uni061F" unicode="&#x61f;" horiz-adv-x="1089" 
d="M477 397v58q0 76 -33.5 124t-117.5 105q-107 70 -158 142t-51 173q0 166 121 261.5t311 95.5q120 0 214.5 -43t152.5 -132.5t59 -213.5h-221q0 87 -59 144.5t-146 57.5q-79 0 -135 -52t-56 -130q0 -59 38 -104.5t124 -104.5q60 -40 93 -78.5t51 -97.5t18 -147v-58h-205z
M575 -33q-53 0 -91.5 38t-39.5 93q-1 53 38.5 91t92.5 38q56 0 94.5 -37.5t37.5 -91.5q-2 -56 -39.5 -93.5t-92.5 -37.5z" />
    <glyph glyph-name="uni0621" unicode="&#x621;" horiz-adv-x="1341" 
d="M653 240h525v-238h-1014v238h209q-127 127 -127 329q0 197 120 313.5t304 116.5q205 0 312.5 -114t129.5 -357l-217 -6q-17 115 -75 177.5t-146 62.5q-91 0 -148.5 -62t-56.5 -163q-2 -75 43.5 -158.5t140.5 -138.5z" />
    <glyph glyph-name="uni0622" unicode="&#x622;" horiz-adv-x="530" 
d="M-25 1640l-51 80l180 156q27 -59 85.5 -85t127.5 -26q58 0 126 22t96 46l10 -113q-36 -32 -105 -52.5t-127 -20.5q-130 0 -231 90zM379 0h-236v1425h236v-1425z" />
    <glyph glyph-name="uni0623" unicode="&#x623;" horiz-adv-x="530" 
d="M264 1714h215v-131h-438v131h76q-51 51 -51 131q0 88 51 140.5t143 52.5q91 0 146.5 -56t62.5 -161h-121q-6 42 -29 64t-57 22q-74 0 -74 -76q0 -30 18 -62.5t58 -54.5zM143 0v1425h236v-1425h-236z" />
    <glyph glyph-name="uni0624" unicode="&#x624;" horiz-adv-x="1128" 
d="M784 1409v-131h-438v131h76q-53 53 -53 133q0 86 51.5 139.5t142.5 53.5q92 0 147 -56t62 -161h-119q-6 41 -29 62.5t-57 21.5q-73 0 -73 -74q0 -31 18 -63.5t57 -55.5h215zM569 1047q192 0 319.5 -128.5t127.5 -320.5v-690q0 -146 -88 -243t-258 -129t-420 26v219
q152 -24 254 -25t163.5 27.5t87 72.5t25.5 109v37h-248q-180 2 -307 133.5t-127 317.5v145q0 192 128.5 320.5t320.5 128.5h22zM780 598q0 95 -58.5 154t-152.5 59h-22q-94 0 -153.5 -59t-59.5 -154v-145q0 -87 60.5 -151t140.5 -64h245v360z" />
    <glyph glyph-name="uni0625" unicode="&#x625;" horiz-adv-x="530" 
d="M379 1425v-1425h-236v1425h236zM268 -430h215v-131h-438v131h74q-51 51 -51 131q0 88 51.5 140.5t142.5 52.5q92 0 147 -56t62 -162h-121q-6 42 -29 64t-57 22q-71 0 -71 -75t75 -117z" />
    <glyph glyph-name="uni0626" unicode="&#x626;" horiz-adv-x="2009" 
d="M461 784v-131h-438v131h75q-53 53 -53 134q0 87 52 139.5t143 52.5q92 0 147 -56t62 -161h-121q-6 40 -28.5 62t-55.5 22q-74 0 -74 -74q0 -31 18.5 -63.5t59.5 -55.5h213zM1513 1042h377v-1042h-235v807h-142q-88 0 -143 -57t-55 -146v-538q0 -169 -78.5 -307
t-216.5 -216t-307 -78h-13q-126 0 -237 46t-190.5 125.5t-125 191t-45.5 238.5v401h234v-401q0 -162 101 -263.5t263 -101.5h13q161 0 262.5 101.5t101.5 263.5v538q0 187 125 312.5t311 125.5z" />
    <glyph glyph-name="uni0627" unicode="&#x627;" horiz-adv-x="530" 
d="M379 0h-236v1425h236v-1425z" />
    <glyph glyph-name="uni0628" unicode="&#x628;" horiz-adv-x="1753" 
d="M82 750h235v-308q0 -92 57.5 -149t149.5 -57h717q158 0 158 167v605h235v-703q0 -131 -87 -218t-218 -87h-805q-190 0 -316 126t-126 316v308zM874 -522q-58 0 -100.5 42t-42.5 101q0 57 42.5 99t100.5 42t100 -42t42 -99q0 -59 -42 -101t-100 -42z" />
    <glyph glyph-name="uni0629" unicode="&#x629;" horiz-adv-x="1136" 
d="M406 1184q-59 0 -101.5 41.5t-42.5 101.5q0 57 43 99t101 42q57 0 99 -42t42 -99q0 -59 -41.5 -101t-99.5 -42zM807 1184q-57 0 -99 42t-42 101q0 57 42 99t99 42q58 0 99.5 -42t41.5 -99q0 -60 -41 -101.5t-100 -41.5zM111 612q0 181 128 309t310 128h33
q181 0 308.5 -127.5t127.5 -309.5v-188q0 -175 -122.5 -298.5t-295.5 -123.5h-51q-184 0 -311 126.5t-127 309.5v174zM348 612v-172q0 -83 59 -142.5t142 -59.5h59q72 0 123 52t51 124v198q0 88 -57 144.5t-143 56.5h-33q-87 0 -144 -57t-57 -144z" />
    <glyph glyph-name="uni062A" unicode="&#x62a;" horiz-adv-x="1753" 
d="M641 1016q-59 0 -101 41.5t-42 99.5q0 57 42.5 99t100.5 42t99.5 -42t41.5 -99q0 -59 -41 -100t-100 -41zM1044 1016q-59 0 -101 41.5t-42 99.5q0 57 42.5 99t100.5 42q57 0 99.5 -42t42.5 -99q0 -58 -42.5 -99.5t-99.5 -41.5zM82 750h235v-308q0 -92 57.5 -149
t149.5 -57h717q158 0 158 167v605h235v-703q0 -131 -87 -218t-218 -87h-805q-190 0 -316 126t-126 316v308z" />
    <glyph glyph-name="uni062B" unicode="&#x62b;" horiz-adv-x="1753" 
d="M844 1341q-59 0 -101.5 42t-42.5 102q0 57 43 99t101 42q57 0 99 -42t42 -99q0 -60 -42 -102t-99 -42zM641 1032q-59 0 -101 42t-42 100q0 57 42.5 99t100.5 42t99.5 -42t41.5 -99q0 -59 -41.5 -100.5t-99.5 -41.5zM1036 1032q-57 0 -99 42t-42 100q0 57 42 99t99 42
q58 0 100 -42t42 -99q0 -58 -42 -100t-100 -42zM82 750h235v-308q0 -92 57.5 -149t149.5 -57h717q158 0 158 167v605h235v-703q0 -131 -87 -218t-218 -87h-805q-190 0 -316 126t-126 316v308z" />
    <glyph glyph-name="uni062C" unicode="&#x62c;" horiz-adv-x="1628" 
d="M1499 238v-238h-860q-135 0 -218 -71t-83 -201q0 -77 41 -139.5t112.5 -100.5t161 -53.5t195.5 -0.5t207 60v-217q-112 -54 -229 -74t-221.5 -6.5t-197.5 57t-160 110.5t-106 161t-39 203q0 226 151.5 366t381.5 142h563q-18 6 -36 21.5t-31 31t-30 46t-26 48.5t-27 57
t-26 54q-108 221 -267 292.5t-364 -14.5v217q277 101 511 -22.5t386 -452.5q88 -198 116 -235t95 -41zM582 -268q0 57 42.5 99t100.5 42q57 0 99 -42t42 -99q0 -60 -42 -102t-99 -42q-59 0 -101 42t-42 102z" />
    <glyph glyph-name="uni062D" unicode="&#x62d;" horiz-adv-x="1628" 
d="M639 0q-135 0 -218 -71t-83 -201q0 -77 41 -139.5t112.5 -100.5t161 -53.5t195.5 -0.5t207 60v-217q-112 -54 -229 -74t-221.5 -6.5t-197.5 57t-160 110.5t-106 161t-39 203q0 226 151.5 366t381.5 142h563q-18 6 -36 21.5t-31 31t-30 46t-26 48.5t-27 57t-26 54
q-108 221 -267 292.5t-364 -14.5v217q277 101 511 -22.5t386 -452.5q88 -198 116 -235t95 -41v-238h-860z" />
    <glyph glyph-name="uni062E" unicode="&#x62e;" horiz-adv-x="1628" 
d="M680 1235q-59 0 -101 41.5t-42 99.5q0 57 42.5 99.5t100.5 42.5q57 0 99 -42.5t42 -99.5q0 -58 -42 -99.5t-99 -41.5zM639 0q-135 0 -218 -71t-83 -201q0 -77 41 -139.5t112.5 -100.5t161 -53.5t195.5 -0.5t207 60v-217q-112 -54 -229 -74t-221.5 -6.5t-197.5 57
t-160 110.5t-106 161t-39 203q0 226 151.5 366t381.5 142h563q-18 6 -36 21.5t-31 31t-30 46t-26 48.5t-27 57t-26 54q-108 221 -267 292.5t-364 -14.5v217q277 101 511 -22.5t386 -452.5q88 -198 116 -235t95 -41v-238h-860z" />
    <glyph glyph-name="uni062F" unicode="&#x62f;" horiz-adv-x="1056" 
d="M96 0v236h393q86 0 147.5 61t61.5 147v138q0 93 -66 159t-159 66h-201v237h201q125 0 231 -62t168 -168.5t62 -231.5v-179q0 -167 -118.5 -285t-285.5 -118h-434z" />
    <glyph glyph-name="uni0630" unicode="&#x630;" horiz-adv-x="1056" 
d="M487 1255q-58 0 -100.5 42.5t-42.5 101.5q0 57 42.5 99t100.5 42q57 0 99.5 -42t42.5 -99q0 -58 -42.5 -101t-99.5 -43zM96 0v236h393q86 0 147.5 61t61.5 147v138q0 93 -66 159t-159 66h-201v237h201q125 0 231 -62t168 -168.5t62 -231.5v-179q0 -167 -118.5 -285
t-285.5 -118h-434z" />
    <glyph glyph-name="uni0631" unicode="&#x631;" horiz-adv-x="632" 
d="M-45 -467v236h100q91 0 149 57t58 149v1012h236v-1012q0 -189 -127 -315.5t-316 -126.5h-100z" />
    <glyph glyph-name="uni0632" unicode="&#x632;" horiz-adv-x="632" 
d="M373 1174q-57 0 -99.5 42.5t-42.5 100.5q0 57 42.5 99t99.5 42q58 0 100.5 -42t42.5 -99q0 -59 -42 -101t-101 -42zM-45 -467v236h100q91 0 149 57t58 149v1012h236v-1012q0 -189 -127 -315.5t-316 -126.5h-100z" />
    <glyph glyph-name="uni0633" unicode="&#x633;" horiz-adv-x="2537" 
d="M2175 987h235v-598q0 -161 -114 -275t-275 -114q-167 0 -282 100q-108 -100 -254 -100h-174q-23 -229 -192 -380.5t-404 -151.5h-15q-167 0 -304 78.5t-215.5 215.5t-78.5 304v405h234v-405q0 -160 101.5 -261.5t262.5 -101.5h13q161 0 262.5 101.5t101.5 261.5v753h238
v-583h164q63 0 103 40.5t40 102.5v440h236v-444q0 -65 43 -102t120 -37q64 0 109 45t45 108v598z" />
    <glyph glyph-name="uni0634" unicode="&#x634;" horiz-adv-x="2537" 
d="M1731 1399q-59 0 -101.5 42.5t-42.5 100.5q0 57 43 99t101 42q57 0 99 -42t42 -99q0 -58 -42 -100.5t-99 -42.5zM1528 1090q-59 0 -101.5 41.5t-42.5 101.5q0 57 42.5 98t101.5 41q57 0 99 -41t42 -98q0 -59 -41.5 -101t-99.5 -42zM1782 1233q0 57 41.5 98t99.5 41
t99.5 -41t41.5 -98q0 -60 -41 -101.5t-100 -41.5t-100 41.5t-41 101.5zM2175 987h235v-598q0 -161 -114 -275t-275 -114q-167 0 -282 100q-108 -100 -254 -100h-174q-23 -229 -192 -380.5t-404 -151.5h-15q-167 0 -304 78.5t-215.5 215.5t-78.5 304v405h234v-405
q0 -160 101.5 -261.5t262.5 -101.5h13q161 0 262.5 101.5t101.5 261.5v753h238v-583h164q63 0 103 40.5t40 102.5v440h236v-444q0 -65 43 -102t120 -37q64 0 109 45t45 108v598z" />
    <glyph glyph-name="uni0635" unicode="&#x635;" horiz-adv-x="2521" 
d="M1870 1032q255 0 389.5 -152.5t134.5 -414.5q0 -193 -136.5 -329t-328.5 -136h-622q-26 -235 -191.5 -383.5t-400.5 -148.5h-15q-126 0 -237 46t-190 125t-125 190t-46 237v403h234v-403q0 -161 101.5 -262t262.5 -101h13q155 0 259.5 104t104.5 259v862h236v-199
q288 303 557 303zM1925 236q100 0 170 70.5t70 170.5q0 152 -88.5 238t-233.5 86q-263 0 -530 -299v-266h612z" />
    <glyph glyph-name="uni0636" unicode="&#x636;" horiz-adv-x="2521" 
d="M1858 1198q-59 0 -101.5 41.5t-42.5 101.5q0 57 42.5 98.5t101.5 41.5q58 0 99.5 -41.5t41.5 -98.5q0 -60 -41 -101.5t-100 -41.5zM1870 1032q255 0 389.5 -152.5t134.5 -414.5q0 -193 -136.5 -329t-328.5 -136h-622q-26 -235 -191.5 -383.5t-400.5 -148.5h-15
q-126 0 -237 46t-190 125t-125 190t-46 237v403h234v-403q0 -161 101.5 -262t262.5 -101h13q155 0 259.5 104t104.5 259v862h236v-199q288 303 557 303zM1925 236q100 0 170 70.5t70 170.5q0 152 -88.5 238t-233.5 86q-263 0 -530 -299v-266h612z" />
    <glyph glyph-name="uni0637" unicode="&#x637;" horiz-adv-x="1921" 
d="M1178 1032q257 0 390.5 -147t133.5 -412q0 -96 -37.5 -184t-101.5 -151t-151.5 -100.5t-184.5 -37.5h-1125v258h236v1167h256v-723q303 330 584 330zM1214 236q110 0 184.5 71.5t74.5 184.5q0 145 -88 226t-234 81q-280 0 -557 -330v-233h620z" />
    <glyph glyph-name="uni0638" unicode="&#x638;" horiz-adv-x="1921" 
d="M1188 1200q-57 0 -99 42.5t-42 100.5q0 57 42 99.5t99 42.5q58 0 99.5 -42.5t41.5 -99.5q0 -59 -41.5 -101t-99.5 -42zM1178 1032q257 0 390.5 -147t133.5 -412q0 -96 -37.5 -184t-101.5 -151t-151.5 -100.5t-184.5 -37.5h-1125v258h236v1167h256v-723q303 330 584 330z
M1214 236q110 0 184.5 71.5t74.5 184.5q0 145 -88 226t-234 81q-280 0 -557 -330v-233h620z" />
    <glyph glyph-name="uni0639" unicode="&#x639;" horiz-adv-x="1230" 
d="M639 0q-135 0 -218 -71t-83 -201q0 -76 41 -138.5t112.5 -100.5t161 -54t195.5 -1t207 60v-217q-112 -54 -229.5 -74t-222 -6.5t-197 57t-159.5 110.5t-106 161t-39 203q0 156 75 273t204 179q-172 122 -172 361q0 123 38.5 222t105 162.5t154.5 103t186.5 49t202 -5
t200.5 -54.5v-217q-114 48 -225.5 55.5t-200.5 -22.5t-144 -107t-55 -190q0 -85 24 -144.5t68.5 -92.5t99 -47.5t125.5 -14.5h314v-238h-463z" />
    <glyph glyph-name="uni063A" unicode="&#x63a;" horiz-adv-x="1230" 
d="M688 1270q-59 0 -101 41.5t-42 101.5q0 57 42.5 99t100.5 42q57 0 99 -42t42 -99q0 -59 -41.5 -101t-99.5 -42zM639 0q-135 0 -218 -71t-83 -201q0 -76 41 -138.5t112.5 -100.5t161 -54t195.5 -1t207 60v-217q-112 -54 -229.5 -74t-222 -6.5t-197 57t-159.5 110.5
t-106 161t-39 203q0 156 75 273t204 179q-172 122 -172 361q0 147 48.5 258.5t129.5 174t185 91.5t217.5 20t224.5 -49v-217q-107 42 -205 46t-173.5 -28.5t-120 -109.5t-44.5 -190q0 -85 24 -144.5t68.5 -92.5t99 -47.5t125.5 -14.5h314v-238h-463z" />
    <glyph glyph-name="uni0640" unicode="&#x640;" horiz-adv-x="389" 
d="M-20 236h430v-236h-430v236z" />
    <glyph glyph-name="uni0641" unicode="&#x641;" horiz-adv-x="1931" 
d="M1356 1212q-56 0 -97 41t-42 99q-3 57 39.5 100t101.5 43q57 1 99 -40.5t42 -98.5q0 -60 -42 -102t-101 -42zM1364 1044q186 0 317 -131t131 -317v-129q0 -127 -62 -234.5t-169.5 -170t-234.5 -62.5h-820q-187 0 -314.5 128t-127.5 314v263h235v-261q0 -86 60.5 -147
t146.5 -61h451q-84 94 -84 215v145q0 122 60.5 225t163.5 163t224 60h23zM1577 596q0 92 -60.5 152.5t-152.5 60.5h-23q-92 0 -151.5 -60.5t-59.5 -152.5v-145q0 -88 59.5 -151.5t139.5 -63.5h41q87 5 147 67.5t60 149.5v143z" />
    <glyph glyph-name="uni0642" unicode="&#x642;" horiz-adv-x="1701" 
d="M932 1212q-57 0 -99 42t-42 100q0 57 42 99t99 42q58 0 100.5 -42t42.5 -99q0 -58 -42 -100t-101 -42zM1335 1212q-58 0 -99.5 41.5t-41.5 100.5q0 57 41.5 99t99.5 42t100 -42t42 -99q0 -58 -41.5 -100t-100.5 -42zM1139 1098q187 0 311.5 -125t124.5 -311v-478
q0 -156 -55.5 -292.5t-152.5 -233.5t-233 -153t-292 -56h-6q-207 0 -375 95t-263.5 263.5t-95.5 376.5v228h238v-228q0 -218 139 -357.5t357 -139.5h6q183 0 312.5 100.5t168.5 267.5h-215q-187 0 -312.5 125.5t-125.5 311.5v170q0 186 125.5 311t312.5 125h31zM1337 371h2
v291q0 89 -55.5 144.5t-144.5 55.5h-31q-90 0 -146.5 -55.5t-56.5 -144.5v-170q0 -89 57 -145t146 -56h229v80z" />
    <glyph glyph-name="uni0643" unicode="&#x643;" horiz-adv-x="1765" 
d="M1399 1425h235v-1120q0 -131 -87 -218t-218 -87h-805q-190 0 -316 126t-126 316v308h235v-308q0 -92 57.5 -149t149.5 -57h717q158 0 158 167v1022zM1049 872v-120h-410v120h72q-49 52 -49 125q0 81 48.5 131t133.5 50q84 0 135.5 -52.5t58.5 -150.5h-110
q-6 39 -27.5 60.5t-54.5 21.5q-70 0 -70 -72q0 -29 17 -60.5t55 -52.5h201z" />
    <glyph glyph-name="uni0644" unicode="&#x644;" horiz-adv-x="1443" 
d="M102 494h234v-404q0 -161 101.5 -261.5t262.5 -100.5h13q160 0 262 100.5t102 261.5v1335h236v-1335q0 -127 -46 -238.5t-125.5 -191t-191 -125t-237.5 -45.5h-13q-170 0 -307 78t-214 215t-77 307v404z" />
    <glyph glyph-name="uni0645" unicode="&#x645;" horiz-adv-x="1466" 
d="M864 -57q-113 0 -222 37t-177 108q-67 -7 -104 -50t-37 -108v-587h-242v587q0 146 85 252.5t220 136.5l2 271q0 197 132.5 330t332.5 133q197 0 330 -132.5t133 -330.5v-166q0 -123 -35.5 -217t-98.5 -151t-143.5 -85t-175.5 -28zM854 186q98 0 159.5 61t61.5 161v182
q0 97 -61.5 159t-159.5 62q-99 0 -160 -62t-61 -159v-326q37 -42 88 -60t133 -18z" />
    <glyph glyph-name="uni0646" unicode="&#x646;" horiz-adv-x="1443" 
d="M635 897q-57 0 -99 42.5t-42 100.5q0 57 42 99.5t99 42.5q58 0 100.5 -42.5t42.5 -99.5q0 -58 -42 -100.5t-101 -42.5zM102 436h234v-401q0 -163 101 -264t263 -101h13q160 0 262 101.5t102 263.5v946h236v-946q0 -127 -46 -238.5t-125.5 -191t-191 -125t-237.5 -45.5
h-13q-170 0 -307 78t-214 215t-77 307v401z" />
    <glyph glyph-name="uni0647" unicode="&#x647;" horiz-adv-x="1136" 
d="M111 612q0 181 128 309t310 128h33q181 0 308.5 -127.5t127.5 -309.5v-188q0 -175 -122.5 -298.5t-295.5 -123.5h-51q-184 0 -311 126.5t-127 309.5v174zM348 612v-172q0 -83 59 -142.5t142 -59.5h59q72 0 123 52t51 124v198q0 88 -57 144.5t-143 56.5h-33
q-87 0 -144 -57t-57 -144z" />
    <glyph glyph-name="uni0648" unicode="&#x648;" horiz-adv-x="1128" 
d="M569 1047q192 0 319.5 -128.5t127.5 -320.5v-690q0 -146 -88 -243t-258 -129t-420 26v219q152 -24 254 -25t163.5 27.5t87 72.5t25.5 109v37h-248q-180 2 -307 133.5t-127 317.5v145q0 192 128.5 320.5t320.5 128.5h22zM780 598q0 95 -58.5 154t-152.5 59h-22
q-94 0 -153.5 -59t-59.5 -154v-145q0 -87 60.5 -151t140.5 -64h245v360z" />
    <glyph glyph-name="uni0649" unicode="&#x649;" horiz-adv-x="2009" 
d="M1513 1042h377v-1042h-235v807h-142q-88 0 -143 -57t-55 -146v-538q0 -169 -78.5 -307t-216.5 -216t-307 -78h-13q-126 0 -237 46t-190.5 125.5t-125 191t-45.5 238.5v401h234v-401q0 -162 101 -263.5t263 -101.5h13q161 0 262.5 101.5t101.5 263.5v538q0 187 125 312.5
t311 125.5z" />
    <glyph glyph-name="uni064A" unicode="&#x64a;" horiz-adv-x="2009" 
d="M1513 1042h377v-1042h-235v807h-142q-88 0 -143 -57t-55 -146v-538q0 -169 -78.5 -307t-216.5 -216t-307 -78h-13q-126 0 -237 46t-190.5 125.5t-125 191t-45.5 238.5v401h234v-401q0 -162 101 -263.5t263 -101.5h13q161 0 262.5 101.5t101.5 263.5v538q0 187 125 312.5
t311 125.5zM504 -637q58 0 99.5 -42t41.5 -99q0 -59 -41.5 -100.5t-99.5 -41.5q-57 0 -99.5 42t-42.5 100q0 57 42.5 99t99.5 42zM905 -637q58 0 101 -42t43 -99q0 -58 -42.5 -100t-101.5 -42q-57 0 -99 42t-42 100q0 57 42 99t99 42z" />
    <glyph glyph-name="uni064B" unicode="&#x64b;" 
d="M0 1894l395 148v-90l-395 -148v90zM0 1716l395 150v-90l-395 -148v88z" />
    <glyph glyph-name="uni064C" unicode="&#x64c;" 
d="M485 1671q0 -54 -34.5 -94.5t-85.5 -48.5l-277 -90v20h-2q2 16 2 33.5t-4.5 40t-16.5 33.5t-33 15t-54 -15v71q75 44 116 20.5t47 -100.5l86 27q-28 39 -28 88q0 60 41.5 102t101.5 42q59 0 100 -42t41 -102zM346 1606q26 0 44 19t18 48q0 25 -18 43.5t-44 18.5
t-43.5 -18.5t-17.5 -43.5q0 -44 34 -61l9 2l4 -6q4 -2 14 -2z" />
    <glyph glyph-name="uni064D" unicode="&#x64d;" 
d="M0 -188l395 147v-90l-395 -148v91zM0 -379l395 148v-88l-395 -150v90z" />
    <glyph glyph-name="uni064E" unicode="&#x64e;" 
d="M63 1767l396 146v-88l-396 -150v92z" />
    <glyph glyph-name="uni064F" unicode="&#x64f;" 
d="M360 1874q0 -54 -33.5 -93.5t-84.5 -47.5l-281 -91v99l143 45q-30 42 -30 88q0 60 42 101.5t101 41.5q60 0 101.5 -41.5t41.5 -101.5zM221 1810q25 0 42.5 18.5t17.5 47.5q0 26 -17.5 43.5t-42.5 17.5q-28 0 -45.5 -17.5t-17.5 -43.5q0 -44 39 -61l6 2l2 -5q6 -2 16 -2z
" />
    <glyph glyph-name="uni0650" unicode="&#x650;" 
d="M63 -539l357 123v-102l-357 -123v102z" />
    <glyph glyph-name="uni0651" unicode="&#x651;" 
d="M143 1434q-62 0 -102.5 41t-40.5 110v47l100 25v-72q0 -51 43 -51t43 59v93l99 26v-106q0 -41 45 -41q51 0 51 59v115l98 28v-143q0 -74 -36 -118t-99 -44q-64 0 -94 43q-17 -33 -45.5 -52t-61.5 -19z" />
    <glyph glyph-name="uni0652" unicode="&#x652;" 
d="M201 1704q-65 0 -109.5 45t-44.5 111q0 63 45 108t109 45q63 0 108 -45t45 -108q0 -66 -45 -111t-108 -45zM201 1794q28 0 46.5 20t18.5 52q0 28 -18.5 46.5t-46.5 18.5q-29 0 -48.5 -18.5t-19.5 -46.5q0 -32 19 -52t49 -20z" />
    <glyph glyph-name="uni0653" unicode="&#x653;" 
d="M51 1954l-51 80l180 155q50 -110 213 -110q58 0 126 21.5t95 45.5l11 -112q-38 -32 -106.5 -53t-125.5 -21q-130 0 -231 90z" />
    <glyph glyph-name="uni0654" unicode="&#x654;" 
d="M188 1626h213v-131h-438v131h76q-53 53 -53 133q0 88 52 140.5t144 52.5q91 0 146.5 -56.5t62.5 -160.5h-121q-6 41 -29 62.5t-57 21.5q-73 0 -73 -74q0 -31 18.5 -63.5t58.5 -55.5z" />
    <glyph glyph-name="uni0655" unicode="&#x655;" 
d="M281 -229h215v-131h-439v131h76q-53 53 -53 133q0 86 51.5 139t142.5 53q92 0 147 -56t62 -161h-121q-6 41 -29 62.5t-57 21.5q-71 0 -71 -74q0 -30 18.5 -62.5t57.5 -55.5z" />
    <glyph glyph-name="uni0656" unicode="&#x656;" 
 />
    <glyph glyph-name="uni0660" unicode="&#x660;" horiz-adv-x="899" 
d="M629 535l-172 -173l-170 173q15 13 85 83.5t83 81.5q127 -124 174 -165z" />
    <glyph glyph-name="uni0661" unicode="&#x661;" horiz-adv-x="573" 
d="M410 0h-236v1280h236v-1280z" />
    <glyph glyph-name="uni0662" unicode="&#x662;" horiz-adv-x="817" 
d="M766 1280v-236h-203q-93 0 -151 -57t-58 -149v-838h-233v838q0 189 126 315.5t316 126.5h203z" />
    <glyph glyph-name="uni0663" unicode="&#x663;" horiz-adv-x="1413" 
d="M1069 1280h191v-436q0 -104 -76.5 -183t-182.5 -79q-96 0 -148 24t-101 78q-85 -102 -228 -102h-90v-582h-237v1280h237v-500h96q60 0 99 40t39 100v360h178v-360q0 -70 26.5 -105t98.5 -35q42 0 70 33t28 72v395z" />
    <glyph glyph-name="uni0664" unicode="&#x664;" horiz-adv-x="1081" 
d="M281 383q0 -71 58 -114t154.5 -55.5t208.5 -6t232 30.5v-205q-141 -29 -262 -36t-225.5 11.5t-178 63t-115.5 123t-42 186.5q0 98 55.5 179.5t152.5 127.5q-120 88 -120 230q0 90 37.5 160.5t97.5 115t148 75.5t175 45.5t193 22.5v-219q-87 -5 -163 -19t-141 -38.5
t-102.5 -64.5t-37.5 -91q0 -162 260 -162h256v-188h-355q-131 0 -208.5 -43t-77.5 -129z" />
    <glyph glyph-name="uni0665" unicode="&#x665;" horiz-adv-x="1193" 
d="M96 608q0 122 42.5 244.5t110.5 215.5t159 151.5t182 58.5q121 0 235.5 -98t185 -254t70.5 -318q0 -144 -42.5 -261t-113 -189.5t-158 -111t-181.5 -38.5t-180.5 38t-156.5 110.5t-111.5 189.5t-41.5 262zM885 610q0 105 -46 214t-115.5 178t-133.5 69q-65 0 -134.5 -69
t-115 -178t-45.5 -214q0 -190 86 -294.5t205 -104.5q56 0 109 26t95.5 74.5t68.5 126t26 172.5z" />
    <glyph glyph-name="uni0666" unicode="&#x666;" horiz-adv-x="1028" 
d="M604 8v1082h-579v198h813v-1280h-234z" />
    <glyph glyph-name="uni0667" unicode="&#x667;" horiz-adv-x="1228" 
d="M483 -6l-381 1278h226l290 -1022h7l288 1022h217l-380 -1278h-267z" />
    <glyph glyph-name="uni0668" unicode="&#x668;" horiz-adv-x="1247" 
d="M483 1288h267l380 -1288h-217l-288 1030h-7l-290 -1030h-226z" />
    <glyph glyph-name="uni0669" unicode="&#x669;" horiz-adv-x="1120" 
d="M541 1325q190 0 308 -127t118 -321v-877h-236v393h-213q-185 0 -309.5 124t-124.5 329v55q0 174 124 299t312 125h21zM520 629h211v248q0 97 -52.5 160t-143.5 63h-17q-81 0 -140 -59.5t-59 -151.5v-55q0 -82 60 -143.5t141 -61.5z" />
    <glyph glyph-name="uni066A" unicode="&#x66a;" horiz-adv-x="1329" 
d="M279 1061l-177 174l174 174l179 -174zM211 0l672 1393h227l-674 -1393h-225zM1012 74l-176 174l174 174l176 -174z" />
    <glyph glyph-name="uni066B" unicode="&#x66b;" horiz-adv-x="573" 
d="M393 102q-16 -166 -112 -444h-150q4 17 18.5 78t25.5 109.5t22.5 120.5t15.5 134l4 74h184z" />
    <glyph glyph-name="uni066C" unicode="&#x66c;" horiz-adv-x="573" 
d="M393 102q-16 -166 -112 -444h-150q4 17 18.5 78t25.5 109.5t22.5 120.5t15.5 134l4 74h184z" />
    <glyph glyph-name="uni066D" unicode="&#x66d;" horiz-adv-x="782" 
d="M670 973l-56 -99l-163 105l-5 -201h-110l-4 201l-164 -105l-55 99l155 94l-155 96l55 99l168 -105v201h110v-201l168 105l56 -99l-156 -96z" />
    <glyph glyph-name="uni066E" unicode="&#x66e;" horiz-adv-x="1753" 
d="M82 750h235v-308q0 -92 57.5 -149t149.5 -57h717q158 0 158 167v605h235v-703q0 -131 -87 -218t-218 -87h-805q-190 0 -316 126t-126 316v308z" />
    <glyph glyph-name="uni066F" unicode="&#x66f;" horiz-adv-x="1701" 
d="M1139 1098q187 0 311.5 -125t124.5 -311v-478q0 -156 -55.5 -292.5t-152.5 -233.5t-233 -153t-292 -56h-6q-207 0 -375 95t-263.5 263.5t-95.5 376.5v228h238v-228q0 -218 139 -357.5t357 -139.5h6q183 0 312.5 100.5t168.5 267.5h-215q-187 0 -312.5 125.5t-125.5 311.5
v170q0 186 125.5 311t312.5 125h31zM1337 371h2v291q0 89 -55.5 144.5t-144.5 55.5h-31q-90 0 -146.5 -55.5t-56.5 -144.5v-170q0 -89 57 -145t146 -56h229v80z" />
    <glyph glyph-name="uni0670" unicode="&#x670;" 
 />
    <glyph glyph-name="uni0679" unicode="&#x679;" horiz-adv-x="1753" 
d="M600 1059v100h78v338h100v-199q69 66 140 66q153 0 153 -184v-121h-471zM905 1266q-63 0 -127 -76v-31h195v21q0 86 -68 86zM1399 1008h235v-703q0 -131 -87 -218t-218 -87h-805q-190 0 -316 126t-126 316v308h235v-308q0 -92 57.5 -149t149.5 -57h717q158 0 158 167v605
z" />
    <glyph glyph-name="uni067E" unicode="&#x67e;" horiz-adv-x="1753" 
d="M82 750h235v-308q0 -92 57.5 -149t149.5 -57h717q158 0 158 167v605h235v-703q0 -131 -87 -218t-218 -87h-805q-190 0 -316 126t-126 316v308zM760 -543q-59 0 -101.5 42t-42.5 100q0 57 43 99t101 42q57 0 99 -42t42 -99q0 -58 -42 -100t-99 -42zM1149 -543
q-59 0 -101 42t-42 100q0 57 42.5 99t100.5 42q57 0 99 -42t42 -99q0 -58 -42 -100t-99 -42zM946 -844q-59 0 -101 42t-42 100q0 57 42.5 99t100.5 42q57 0 99 -42t42 -99q0 -58 -42 -100t-99 -42z" />
    <glyph glyph-name="uni0686" unicode="&#x686;" horiz-adv-x="1527" 
d="M1188 514q33 -76 62 -129t48 -80.5t40 -42.5t31.5 -18.5t29.5 -5.5v-238h-760q-135 0 -218 -71t-83 -201q0 -77 41 -139.5t112.5 -100.5t161 -53.5t195.5 -0.5t207 60v-217q-112 -54 -229 -74t-221.5 -6.5t-197.5 57t-160 110.5t-106 161t-39 203q0 226 151.5 366
t381.5 142h424q-12 12 -28 40t-29 53.5t-37 75.5t-37 76q-77 147 -172.5 230t-213.5 101.5t-253 -40.5v217q277 101 512 -22.5t387 -452.5zM909 -211q0 -34 -25.5 -58t-60.5 -24t-60.5 24t-25.5 58q0 32 25.5 56t60.5 24t60.5 -24t25.5 -56zM1108 -211q0 -34 -25.5 -58
t-60.5 -24t-60.5 24t-25.5 58q0 32 25.5 56t60.5 24t60.5 -24t25.5 -56zM920 -455q-35 0 -60.5 27t-25.5 61t25.5 58t60.5 24t60.5 -24t25.5 -58t-25.5 -61t-60.5 -27z" />
    <glyph glyph-name="uni0688" unicode="&#x688;" horiz-adv-x="1056" 
d="M258 1300v101h78v340h100v-201q71 68 139 68q75 0 114.5 -47t39.5 -138v-123h-471zM563 1507q-61 0 -127 -75v-31h195v22q0 84 -68 84zM473 1044q125 0 231 -62t168 -168.5t62 -231.5v-179q0 -167 -118.5 -285t-285.5 -118h-434v236h393q86 0 147.5 61t61.5 147v138
q0 93 -66 159t-159 66h-201v237h201z" />
    <glyph glyph-name="uni0691" unicode="&#x691;" horiz-adv-x="632" 
d="M463 1526q75 0 114 -47t39 -138v-122h-471v100h78v340h101v-201q68 68 139 68zM518 1319v22q0 84 -67 84q-64 0 -127 -75v-31h194zM262 -25v1012h236v-1012q0 -189 -127 -315.5t-316 -126.5h-100v236h100q91 0 149 57t58 149z" />
    <glyph glyph-name="uni0698" unicode="&#x698;" horiz-adv-x="835" 
d="M416 1501q-58 0 -101 42.5t-43 101.5q0 57 43 99t101 42q57 0 99 -42t42 -99q0 -58 -42 -101t-99 -43zM213 1192q-59 0 -101 41.5t-42 101.5q0 57 42.5 99.5t100.5 42.5t99.5 -42.5t41.5 -99.5q0 -60 -41 -101.5t-100 -41.5zM608 1192q-58 0 -99.5 42t-41.5 101
q0 57 42 99.5t99 42.5q58 0 100 -42.5t42 -99.5q0 -60 -41.5 -101.5t-100.5 -41.5zM4 -467v236h100q91 0 149 57t58 149v1012h236v-1012q0 -189 -127 -315.5t-316 -126.5h-100z" />
    <glyph glyph-name="uni06A1" unicode="&#x6a1;" horiz-adv-x="1931" 
d="M1364 1044q186 0 317 -131t131 -317v-129q0 -127 -62 -234.5t-169.5 -170t-234.5 -62.5h-820q-187 0 -314.5 128t-127.5 314v263h235v-261q0 -86 60.5 -147t146.5 -61h451q-84 94 -84 215v145q0 122 60.5 225t163.5 163t224 60h23zM1577 596q0 92 -60.5 152.5
t-152.5 60.5h-23q-92 0 -151.5 -60.5t-59.5 -152.5v-145q0 -88 59.5 -151.5t139.5 -63.5h41q87 5 147 67.5t60 149.5v143z" />
    <glyph glyph-name="uni06A4" unicode="&#x6a4;" horiz-adv-x="1931" 
d="M1350 1540q-59 0 -101.5 41.5t-42.5 99.5q0 57 43 99.5t101 42.5q57 0 99 -42.5t42 -99.5q0 -58 -42 -99.5t-99 -41.5zM1147 1231q-59 0 -101 41.5t-42 99.5q0 57 42.5 99t100.5 42t99.5 -42t41.5 -99q0 -58 -41 -99.5t-100 -41.5zM1542 1231q-57 0 -99 41.5t-42 99.5
q0 57 42 99t99 42q58 0 99.5 -42t41.5 -99q0 -58 -41.5 -99.5t-99.5 -41.5zM1364 1044q186 0 317 -131t131 -317v-129q0 -127 -62 -234.5t-169.5 -170t-234.5 -62.5h-820q-187 0 -314.5 128t-127.5 314v263h235v-261q0 -86 60.5 -147t146.5 -61h451q-84 94 -84 215v145
q0 122 60.5 225t163.5 163t224 60h23zM1577 596q0 92 -60.5 152.5t-152.5 60.5h-23q-92 0 -151.5 -60.5t-59.5 -152.5v-145q0 -88 59.5 -151.5t139.5 -63.5h41q87 5 147 67.5t60 149.5v143z" />
    <glyph glyph-name="uni06A9" unicode="&#x6a9;" horiz-adv-x="1888" 
d="M1278 852q231 0 347 -118.5t116 -321.5q0 -163 -115 -287.5t-274 -124.5h-828q-189 2 -314.5 127.5t-125.5 314.5v308h235v-308q0 -92 58 -149t151 -57h787q79 0 134.5 56t55.5 134q0 88 -63.5 139t-163.5 51h-614l-70 74l379 735l188 -77l-243 -496h360z" />
    <glyph glyph-name="uni06AF" unicode="&#x6af;" horiz-adv-x="1937" 
d="M815 1427h111l-377 -727h-111zM1325 852q230 0 346.5 -118.5t116.5 -321.5q0 -106 -52 -201t-142.5 -153t-196.5 -58h-873q-189 2 -314.5 127.5t-125.5 314.5v308h235v-308q0 -92 58 -149t151 -57h834q78 0 134 56t56 134q0 88 -63.5 139t-163.5 51h-616l-70 74l381 735
l188 -77l-245 -496h362z" />
    <glyph glyph-name="uni06BA" unicode="&#x6ba;" horiz-adv-x="1443" 
d="M102 436h234v-401q0 -163 101 -264t263 -101h13q160 0 262 101.5t102 263.5v946h236v-946q0 -127 -46 -238.5t-125.5 -191t-191 -125t-237.5 -45.5h-13q-170 0 -307 78t-214 215t-77 307v401z" />
    <glyph glyph-name="uni06BE" unicode="&#x6be;" horiz-adv-x="1689" 
d="M500 1012q322 74 557 31.5t368.5 -166.5t137.5 -295v-142q0 -183 -129 -311.5t-312 -128.5h-1149l-102 37v162l102 37h316q-72 79 -72 190v109q4 134 81 230.5t202 127.5v119zM1116 236q88 0 149.5 61t61.5 149l-2 136q-5 124 -163 199.5t-386 52.5q109 -25 174.5 -108.5
t65.5 -207.5v-282h100zM815 236v288q0 89 -52 141t-145 52q-97 0 -148.5 -50.5t-51.5 -142.5v-92q0 -78 57 -134t135 -62h205z" />
    <glyph glyph-name="uni06C1" unicode="&#x6c1;" horiz-adv-x="1136" 
d="M111 612q0 181 128 309t310 128h33q181 0 308.5 -127.5t127.5 -309.5v-188q0 -175 -122.5 -298.5t-295.5 -123.5h-51q-184 0 -311 126.5t-127 309.5v174zM348 612v-172q0 -83 59 -142.5t142 -59.5h59q72 0 123 52t51 124v198q0 88 -57 144.5t-143 56.5h-33
q-87 0 -144 -57t-57 -144z" />
    <glyph glyph-name="uni06C2" unicode="&#x6c2;" horiz-adv-x="1136" 
d="M793 1341v-131h-439v131h76q-53 53 -53 134q0 86 51.5 138t142.5 52q92 0 147 -55t62 -160h-121q-6 40 -28.5 62t-55.5 22q-73 0 -73 -74q0 -30 18.5 -63t57.5 -56h215zM582 1049q181 0 308.5 -127.5t127.5 -309.5v-188q0 -175 -122.5 -298.5t-295.5 -123.5h-51
q-184 0 -311 126.5t-127 309.5v174q0 181 128 309t310 128h33zM782 414v198q0 88 -57 144.5t-143 56.5h-33q-87 0 -144 -57t-57 -144v-172q0 -83 59 -142.5t142 -59.5h59q72 0 123 52t51 124z" />
    <glyph glyph-name="uni06C3" unicode="&#x6c3;" horiz-adv-x="1136" 
d="M401 1184q-59 0 -101 41.5t-42 101.5q0 57 42.5 99t100.5 42q57 0 99.5 -42t42.5 -99q0 -59 -42 -101t-100 -42zM803 1184q-57 0 -99 42t-42 101q0 57 42 99t99 42q58 0 100.5 -42t42.5 -99q0 -60 -42 -101.5t-101 -41.5zM111 612q0 181 128 309t310 128h33
q181 0 308.5 -127.5t127.5 -309.5v-188q0 -175 -122.5 -298.5t-295.5 -123.5h-51q-184 0 -311 126.5t-127 309.5v174zM348 612v-172q0 -83 59 -142.5t142 -59.5h59q72 0 123 52t51 124v198q0 88 -57 144.5t-143 56.5h-33q-87 0 -144 -57t-57 -144z" />
    <glyph glyph-name="uni06CC" unicode="&#x6cc;" horiz-adv-x="2009" 
d="M1513 1042h377v-1042h-235v807h-142q-88 0 -143 -57t-55 -146v-538q0 -169 -78.5 -307t-216.5 -216t-307 -78h-13q-126 0 -237 46t-190.5 125.5t-125 191t-45.5 238.5v401h234v-401q0 -162 101 -263.5t263 -101.5h13q161 0 262.5 101.5t101.5 263.5v538q0 187 125 312.5
t311 125.5z" />
    <glyph glyph-name="uni06D2" unicode="&#x6d2;" horiz-adv-x="1445" 
d="M410 -276h997v-238h-1235v745q0 186 125.5 311.5t312.5 125.5h375v-668h-235v432h-140q-89 0 -144.5 -56t-55.5 -145v-507z" />
    <glyph glyph-name="uni06D3" unicode="&#x6d3;" horiz-adv-x="1445" 
d="M891 999v-133h-438v133h73q-49 56 -49 131q0 88 51.5 140.5t143.5 52.5q91 0 146.5 -56t62.5 -161h-121q-6 41 -29 63.5t-57 22.5q-72 0 -72 -76q0 -74 74 -117h215zM410 -276h997v-238h-1235v745q0 186 125.5 311.5t312.5 125.5h375v-668h-235v432h-140
q-89 0 -144.5 -56t-55.5 -145v-507z" />
    <glyph glyph-name="uni06D4" unicode="&#x6d4;" horiz-adv-x="565" 
d="M283 -10q-46 0 -78.5 32t-32.5 78q-1 45 32 78t79 33q45 0 78.5 -33t33.5 -78q-1 -46 -34.5 -78t-77.5 -32z" />
    <glyph glyph-name="uni06F0" unicode="&#x6f0;" horiz-adv-x="899" 
d="M629 535l-172 -173l-170 173q15 13 85 83.5t83 81.5q127 -124 174 -165z" />
    <glyph glyph-name="uni06F1" unicode="&#x6f1;" horiz-adv-x="573" 
d="M410 0h-236v1280h236v-1280z" />
    <glyph glyph-name="uni06F2" unicode="&#x6f2;" horiz-adv-x="817" 
d="M766 1280v-236h-203q-93 0 -151 -57t-58 -149v-838h-233v838q0 189 126 315.5t316 126.5h203z" />
    <glyph glyph-name="uni06F3" unicode="&#x6f3;" horiz-adv-x="1413" 
d="M1069 1280h191v-436q0 -104 -76.5 -183t-182.5 -79q-96 0 -148 24t-101 78q-85 -102 -228 -102h-90v-582h-237v1280h237v-500h96q60 0 99 40t39 100v360h178v-360q0 -70 26.5 -105t98.5 -35q42 0 70 33t28 72v395z" />
    <glyph glyph-name="uni06F4" unicode="&#x6f4;" horiz-adv-x="1419" 
d="M1266 745v-206h-832v-539h-237v1280h237v-535h119q-64 76 -64 175q0 76 25 137.5t72.5 104.5t106.5 75t135.5 52.5t151 32t161.5 17.5v-219q-87 -5 -163.5 -19t-142 -38.5t-103.5 -64.5t-38 -91q0 -162 262 -162h310z" />
    <glyph glyph-name="uni06F5" unicode="&#x6f5;" horiz-adv-x="1245" 
d="M438 74q-190 0 -280 172q-81 155 -56 387q26 232 142 410q125 193 304 228q36 7 73 7q199 0 341 -186q123 -161 159 -395q36 -232 -33 -404q-69 -175 -222 -211q-36 -8 -75 -8q-115 0 -179 92q-61 -92 -174 -92zM438 254q29 0 50.5 21.5t32.5 58t15.5 77.5t2.5 87h143
q0 -43 5 -82.5t17 -77.5t34 -61t53 -23q113 0 150 134q37 133 -11 325q-48 191 -147 300q-77 84 -162 85q-112 0 -212 -149q-94 -141 -127 -327q-34 -194 26 -295q44 -73 130 -73z" />
    <glyph glyph-name="uni06F6" unicode="&#x6f6;" horiz-adv-x="1216" 
d="M635 238q-120 -30 -193 -97t-73 -174q0 -111 92 -184l-109 -186q-198 135 -198 370q0 137 73.5 239.5t198.5 155.5q-172 105 -172 328q0 110 32 198.5t88 144.5t130 91.5t159 45t174.5 -1t176.5 -40.5v-180q-103 37 -196 40.5t-165 -26t-114.5 -101t-42.5 -177.5
q0 -236 223 -256l377 66v-177z" />
    <glyph glyph-name="uni06F7" unicode="&#x6f7;" horiz-adv-x="1228" 
d="M483 -6l-381 1278h226l290 -1022h7l288 1022h217l-380 -1278h-267z" />
    <glyph glyph-name="uni06F8" unicode="&#x6f8;" horiz-adv-x="1247" 
d="M483 1288h267l380 -1286h-217l-288 1028h-7l-290 -1028h-226z" />
    <glyph glyph-name="uni06F9" unicode="&#x6f9;" horiz-adv-x="1120" 
d="M541 1325q190 0 308 -127t118 -321v-877h-236v393h-213q-185 0 -309.5 124t-124.5 329v55q0 174 124 299t312 125h21zM520 629h211v248q0 97 -52.5 160t-143.5 63h-17q-81 0 -140 -59.5t-59 -151.5v-55q0 -82 60 -143.5t141 -61.5z" />
    <glyph glyph-name="Wgrave" unicode="&#x1e80;" horiz-adv-x="1941" 
d="M899 1567q-5 18 -31.5 95.5t-43 142t-21.5 126.5l-10 88h178l10 -82q2 -59 13 -120t34 -150.5t25 -99.5h-154zM1634 1397h264l-362 -1411h-315l-250 970l-250 -970h-315l-363 1411h276l166 -660l90 -395l91 395l165 660h289l172 -660l92 -395l84 395z" />
    <glyph glyph-name="wgrave" unicode="&#x1e81;" horiz-adv-x="1691" 
d="M793 1397q-7 25 -31 97t-41.5 138t-22.5 127l-12 90h180l8 -82q3 -58 15.5 -124.5t31.5 -141.5t25 -104h-153zM1393 1028h266l-322 -1042h-305l-192 688l-191 -688h-297l-319 1042h268l213 -823l205 823h254l205 -823z" />
    <glyph glyph-name="Wacute" unicode="&#x1e82;" horiz-adv-x="1941" 
d="M1167 1917q-5 -62 -21 -126t-43.5 -144t-31.5 -93h-151q6 28 24.5 104t31 142.5t15.5 124.5l8 80h181zM1634 1397h264l-362 -1411h-315l-250 970l-250 -970h-315l-363 1411h276l166 -660l90 -395l91 395l165 660h289l172 -660l92 -395l84 395z" />
    <glyph glyph-name="wacute" unicode="&#x1e83;" horiz-adv-x="1691" 
d="M973 1747q-4 -62 -20 -126t-43 -144t-31 -95h-154q6 29 25.5 104t32 142t14.5 125l10 82h178zM1393 1028h266l-322 -1042h-305l-192 688l-191 -688h-297l-319 1042h268l213 -823l205 823h254l205 -823z" />
    <glyph glyph-name="Wdieresis" unicode="&#x1e84;" horiz-adv-x="1941" 
d="M811 1550q-42 0 -72 30.5t-30 72.5q0 43 29.5 73.5t72.5 30.5q41 0 71.5 -30.5t30.5 -73.5q0 -41 -30.5 -72t-71.5 -31zM1094 1550q-43 0 -74 31t-31 72q0 43 31 73.5t74 30.5q41 0 71.5 -30.5t30.5 -73.5q0 -41 -30.5 -72t-71.5 -31zM1634 1397h264l-362 -1411h-315
l-250 970l-250 -970h-315l-363 1411h276l166 -660l90 -395l91 395l165 660h289l172 -660l92 -395l84 395z" />
    <glyph glyph-name="wdieresis" unicode="&#x1e85;" horiz-adv-x="1691" 
d="M705 1380q-41 0 -72 31t-31 72t31 71.5t72 30.5q43 0 73.5 -30.5t30.5 -71.5t-30.5 -72t-73.5 -31zM987 1380q-42 0 -72 30.5t-30 72.5t30 72t72 30q43 0 73 -30.5t30 -71.5q0 -42 -30.5 -72.5t-72.5 -30.5zM1393 1028h266l-322 -1042h-305l-192 688l-191 -688h-297
l-319 1042h268l213 -823l205 823h254l205 -823z" />
    <glyph glyph-name="uni1E9E" unicode="&#x1e9e;" horiz-adv-x="1275" 
d="M399 0h-276v1397h586q212 0 327 -95.5t115 -269.5q0 -113 -56.5 -193t-154.5 -118q127 -43 194.5 -130.5t67.5 -209.5q0 -172 -126 -275.5t-333 -109.5h-108v225h98q95 2 147 48.5t52 140.5q0 89 -57 136.5t-156 53.5h-45v225h45q172 9 172 174q0 87 -52 131t-149 44
h-297z" />
    <glyph glyph-name="Ygrave" unicode="&#x1ef2;" horiz-adv-x="1267" 
d="M457 2019h178l10 -82q2 -59 13 -120t34 -150.5t25 -99.5h-154q-5 18 -31.5 95.5t-43 142t-21.5 126.5zM643 705l150 354l161 338h275l-459 -951v-450h-270v450l-459 951h285l161 -338l154 -354h2z" />
    <glyph glyph-name="ygrave" unicode="&#x1ef3;" horiz-adv-x="1103" 
d="M506 1397q-5 18 -31.5 95t-43 141.5t-21.5 125.5l-11 90h179l10 -82q2 -59 12 -119t34 -153t25 -98h-153zM805 1028h266l-498 -1401h-235l104 297l-409 1104h278l244 -799l2 -2z" />
    <glyph glyph-name="quoteleft" unicode="&#x2018;" horiz-adv-x="382" 
d="M-35 1192q17 179 115 444h149q-4 -17 -18.5 -78t-25.5 -109.5t-22.5 -120.5t-15.5 -134l-6 -74h-182z" />
    <glyph glyph-name="quoteright" unicode="&#x2019;" horiz-adv-x="512" 
d="M393 1477q-16 -167 -112 -445h-150q4 17 18.5 78t25.5 109.5t22.5 121t15.5 134.5l4 73h184z" />
    <glyph glyph-name="quotesinglbase" unicode="&#x201a;" horiz-adv-x="573" 
d="M393 102q-16 -166 -112 -444h-150q4 17 18.5 78t25.5 109.5t22.5 120.5t15.5 134l4 74h184z" />
    <glyph glyph-name="quotedblleft" unicode="&#x201c;" horiz-adv-x="923" 
d="M135 1192q18 187 113 444h149q-4 -17 -18.5 -78t-25.5 -109.5t-22.5 -120.5t-15.5 -134l-6 -74h-182zM508 1192q15 179 113 444h149q-4 -17 -18.5 -78t-25.5 -109.5t-22.5 -120.5t-15.5 -134l-6 -74h-182z" />
    <glyph glyph-name="quotedblright" unicode="&#x201d;" horiz-adv-x="884" 
d="M393 1477q-16 -167 -112 -445h-150q4 17 18.5 78t25.5 109.5t22.5 121t15.5 134.5l4 73h184zM766 1477q-16 -163 -113 -445h-149q4 17 18.5 78t25.5 109.5t22.5 121t15.5 134.5l4 73h184z" />
    <glyph glyph-name="quotedblbase" unicode="&#x201e;" horiz-adv-x="931" 
d="M514 174l-8 -72q-15 -179 -113 -444h-149q4 17 18.5 78t25.5 109.5t22.5 120.5t15.5 134l6 74h182zM528 174h183l-6 -72q-17 -179 -115 -444h-150q2 7 25 101t38.5 177.5t20.5 163.5z" />
    <glyph glyph-name="dagger" unicode="&#x2020;" horiz-adv-x="624" 
d="M393 1290v-608h-248v608h-131l33 187h98v249l248 62v-311h209l-33 -187h-176z" />
    <glyph glyph-name="daggerdbl" unicode="&#x2021;" horiz-adv-x="624" 
d="M393 1290v-166h205v-190h-205v-340h-248v340h-131v190h131v166h-131l33 187h98v249l248 62v-311h209l-33 -187h-176z" />
    <glyph glyph-name="bullet" unicode="&#x2022;" horiz-adv-x="731" 
d="M367 -104q-87 0 -146 59t-61 145q-2 85 58.5 145t148.5 60q83 0 144 -60.5t60 -144.5t-61.5 -144t-142.5 -60z" />
    <glyph glyph-name="perthousand" unicode="&#x2030;" horiz-adv-x="3072" 
d="M539 512q-178 0 -272.5 129t-94.5 346q0 214 94.5 342.5t272.5 128.5t272 -128.5t94 -342.5q0 -217 -94 -346t-272 -129zM1139 1331h209l-402 -1558h-209zM539 672q92 0 136 85t44 230q0 144 -43.5 227.5t-136.5 83.5q-92 0 -135.5 -83t-43.5 -228t43.5 -230t135.5 -85z
M1640 -244q-178 0 -272 129.5t-94 347.5q0 213 94.5 342.5t271.5 129.5q119 0 203 -61.5t124 -166.5t40 -244q0 -218 -94.5 -347.5t-272.5 -129.5zM2542 -244q-178 0 -272.5 129.5t-94.5 347.5q0 139 40 244t124 166.5t203 61.5q177 0 271.5 -129.5t94.5 -342.5
q0 -218 -94 -347.5t-272 -129.5zM1640 -84q91 0 135 86t44 231q0 144 -44 228t-135 84q-93 0 -136.5 -83.5t-43.5 -228.5t44 -231t136 -86zM2542 -84q92 0 136 86t44 231t-43.5 228.5t-136.5 83.5q-92 0 -135.5 -83.5t-43.5 -228.5q0 -146 43.5 -231.5t135.5 -85.5z" />
    <glyph glyph-name="guilsinglleft" unicode="&#x2039;" horiz-adv-x="571" 
d="M313 862h142l-273 -405l273 -398h-142l-278 398z" />
    <glyph glyph-name="guilsinglright" unicode="&#x203a;" horiz-adv-x="555" 
d="M242 172h-142l273 406l-273 397h142l278 -397z" />
    <glyph glyph-name="fraction" unicode="&#x2044;" horiz-adv-x="1284" 
d="M299 -227h-209l893 1558h209z" />
    <glyph glyph-name="Euro" unicode="&#x20ac;" horiz-adv-x="1306" 
d="M764 1194q-147 0 -238.5 -79.5t-122.5 -233.5h304v-154h-334v-31q0 -25 4 -71h330v-154h-281q68 -270 338 -270q154 0 444 88v-207q-239 -107 -473 -107q-260 0 -411 129.5t-195 366.5h-287v154h262q-2 25 -2 71v31h-260v154h277q38 257 191 396.5t425 139.5
q236 0 473 -106v-207q-297 90 -444 90z" />
    <glyph glyph-name="trademark" unicode="&#x2122;" horiz-adv-x="2816" 
d="M53 1174v223h1039v-223h-385v-1178h-271v1178h-383zM2351 1397h342v-1401h-270l6 1003l-369 -780h-186l-367 780l6 -1003h-247v1401h336l219 -469l164 -361l155 361z" />
    <glyph glyph-name="partialdiff" unicode="&#x2202;" horiz-adv-x="1236" 
d="M496 1417q110 0 203.5 -26t175 -85.5t138.5 -149.5t89.5 -224.5t32.5 -304.5q0 -104 -17.5 -197t-58 -177.5t-100.5 -145t-150.5 -96.5t-202.5 -36q-222 0 -363 134t-141 354q0 225 123.5 349t325.5 124q94 0 180 -41t146 -115q-6 59 -21.5 116t-47 114.5t-74 101
t-106 71t-139.5 27.5q-75 0 -148.5 -11.5t-190.5 -47.5l-5 197q71 23 110 34.5t106.5 23t134.5 11.5zM602 188q55 0 97.5 15t70.5 44.5t47 65t29 84.5t14 95.5t4 103.5q-45 59 -113.5 96t-136.5 37q-60 0 -106 -17.5t-73 -45t-44.5 -65.5t-24 -74t-6.5 -76q0 -119 67.5 -191
t174.5 -72z" />
    <glyph glyph-name="emptyset" unicode="&#x2205;" horiz-adv-x="1439" 
d="M952 1380q192 -66 288.5 -243t96.5 -437q0 -163 -37.5 -295t-112 -228.5t-193.5 -149t-275 -52.5q-55 0 -127 11l-45 -174h-133l53 206q-183 70 -274 247t-91 435q0 162 37.5 292t111.5 226t193 147.5t275 51.5q57 0 106 -6l60 229h135zM373 700q0 -332 155 -444l240 936
q-14 2 -49 2q-172 0 -259 -124.5t-87 -369.5zM719 201q94 0 162.5 37t108.5 106t58.5 157t18.5 199q0 347 -174 451l-244 -944q35 -6 70 -6z" />
    <glyph glyph-name="minus" unicode="&#x2212;" horiz-adv-x="1212" 
d="M1051 449h-891v182h891v-182z" />
    <glyph glyph-name="approxequal" unicode="&#x2248;" horiz-adv-x="1695" 
d="M270 614l-106 166l391 336q30 -65 83 -113.5t117.5 -75.5t131 -40t135.5 -13q124 0 273 48t212 102l25 -231q-83 -72 -234 -119t-276 -47q-289 0 -504 196zM270 74l-106 168l391 336q30 -65 83 -113.5t117.5 -75.5t131 -40t135.5 -13q124 0 273 47.5t212 101.5l25 -233
q-83 -71 -234.5 -117.5t-275.5 -46.5q-288 0 -504 197z" />
    <glyph glyph-name="notequal" unicode="&#x2260;" horiz-adv-x="1222" 
d="M1055 449h-318l-63 -230h381v-182h-432l-97 -346h-209l97 346h-250v182h301l63 230h-364v182h416l90 327h209l-91 -327h267v-182z" />
    <glyph glyph-name="lessequal" unicode="&#x2264;" horiz-adv-x="1318" 
d="M1122 143l-940 449v227l940 449v-242l-678 -315v-11l678 -315v-242zM215 -162v182h913v-182h-913z" />
    <glyph glyph-name="greaterequal" unicode="&#x2265;" horiz-adv-x="1318" 
d="M188 143v242l678 315v11l-678 315v242l940 -449v-227zM1098 -162h-916v182h916v-182z" />
    <glyph glyph-name="uniFD3E" unicode="&#xfd3e;" horiz-adv-x="768" 
d="M205 512q0 471 244 838h233q-105 -163 -168 -388.5t-63 -449.5t63 -450.5t168 -387.5h-233q-244 367 -244 838z" />
    <glyph glyph-name="uniFD3F" unicode="&#xfd3f;" horiz-adv-x="999" 
d="M563 512q0 -471 -244 -838h-233q105 163 168 388.5t63 449.5t-63 450.5t-168 387.5h233q244 -367 244 -838z" />
    <glyph glyph-name="N.001" horiz-adv-x="1378" 
d="M1008 1401h247v-1401h-262l-628 934l6 -934h-248v1401h246l643 -959z" />
    <glyph glyph-name="i.loclTRK" horiz-adv-x="452" 
d="M223 1120q-54 0 -91.5 37.5t-37.5 91.5q0 53 37.5 90t91.5 37q53 0 90 -37t37 -90q0 -54 -37 -91.5t-90 -37.5zM350 1001v-1001h-248v1001h248z" />
    <glyph glyph-name="uni06F4.urdu" horiz-adv-x="1404" 
d="M1266 745v-206h-832v-539h-237v1280h237v-535h119q-64 76 -64 175q0 76 25 137.5t72.5 104.5t106.5 75t135.5 52.5t151 32t161.5 17.5v-219q-87 -5 -163.5 -19t-142 -38.5t-103.5 -64.5t-38 -91q0 -162 262 -162h310z" />
    <glyph glyph-name="uni06F7.urdu" horiz-adv-x="1228" 
d="M483 -6l-381 1278h226l290 -1022h7l288 1022h217l-380 -1278h-267z" />
    <glyph glyph-name="guillemotleft.case" horiz-adv-x="1216" 
d="M350 223l-278 406l278 397h142l-273 -397l273 -406h-142zM696 223l-278 406l278 397h142l-271 -397l271 -406h-142z" />
    <glyph glyph-name="guillemotright.case" horiz-adv-x="837" 
d="M127 1016l279 -406l-279 -397h-141l272 397l-272 406h141zM475 1016l279 -406l-279 -397h-141l270 397l-270 406h141z" />
    <glyph glyph-name="guilsinglleft.case" horiz-adv-x="555" 
d="M313 965h142l-273 -406l273 -397h-142l-278 397z" />
    <glyph glyph-name="guilsinglright.case" horiz-adv-x="555" 
d="M242 274h-142l273 406l-273 397h142l278 -397z" />
    <glyph glyph-name="dotabovear" 
d="M88 1827q-41 0 -71.5 31t-30.5 71q0 44 30 74.5t72 30.5t72 -30.5t30 -74.5q0 -40 -30.5 -71t-71.5 -31z" />
    <glyph glyph-name="dotbelowar" 
d="M135 -403q-44 0 -76 32t-32 76t32 75.5t76 31.5t76.5 -31.5t32.5 -75.5t-32.5 -76t-76.5 -32z" />
    <glyph glyph-name="dotcenterar" 
d="M135 606q-44 0 -76 32.5t-32 76.5q0 43 32 75.5t76 32.5t76.5 -32.5t32.5 -75.5q0 -44 -32.5 -76.5t-76.5 -32.5z" />
    <glyph glyph-name="twodotsverticalabovear" 
d="M117 1776q-45 0 -77 31t-32 75t32.5 76.5t76.5 32.5t76 -32.5t32 -76.5t-32 -75t-76 -31zM117 1516q-45 0 -77 31t-32 75t32.5 77.5t76.5 33.5t76 -33t32 -78q0 -44 -32 -75t-76 -31z" />
    <glyph glyph-name="twodotsverticalbelowar" 
d="M135 -307q-44 0 -76 32t-32 76t32 76.5t76 32.5t76.5 -32.5t32.5 -76.5t-32.5 -76t-76.5 -32zM135 -582q-44 0 -76 33t-32 78q0 43 32 74.5t76 31.5t76.5 -31.5t32.5 -74.5q0 -44 -32.5 -77.5t-76.5 -33.5z" />
    <glyph glyph-name="twodotshorizontalabovear" 
d="M152 1579q-42 0 -72.5 30.5t-30.5 71.5q0 43 30 74t73 31q42 0 72 -31t30 -74q0 -42 -30 -72t-72 -30zM434 1579q-42 0 -72 30t-30 72q0 43 30 74t72 31q41 0 72 -31t31 -74q0 -41 -31 -71.5t-72 -30.5z" />
    <glyph glyph-name="twodotshorizontalbelowar" 
d="M127 -563q-44 0 -76.5 32t-32.5 76t32.5 76.5t76.5 32.5t76.5 -32.5t32.5 -76.5t-32.5 -76t-76.5 -32zM422 -563q-44 0 -76.5 32t-32.5 76t32.5 76.5t76.5 32.5t76 -32.5t32 -76.5t-32 -76t-76 -32z" />
    <glyph glyph-name="threedotsdownabovear" 
d="M145 1790q-43 0 -74.5 31t-31.5 75t31.5 76.5t74.5 32.5q44 0 76.5 -32.5t32.5 -76.5t-32 -75t-77 -31zM412 1790q-44 0 -75.5 31t-31.5 75t31.5 76.5t75.5 32.5q45 0 76.5 -32t31.5 -77q0 -44 -31 -75t-77 -31zM276 1565q-44 0 -75 32t-31 76q0 45 31 77t75 32
t76.5 -32.5t32.5 -76.5t-32.5 -76t-76.5 -32z" />
    <glyph glyph-name="threedotsdownbelowar" 
d="M119 -330q-41 0 -71 30t-30 71q0 40 30 70t71 30q40 0 69 -30t29 -70q0 -41 -29 -71t-69 -30zM387 -330q-40 0 -69 30t-29 71q0 40 29 70t69 30q41 0 70.5 -30t29.5 -70q0 -41 -29.5 -71t-70.5 -30zM252 -563q-40 0 -70 28.5t-30 69.5t30 70.5t70 29.5q41 0 70.5 -29.5
t29.5 -70.5t-29.5 -69.5t-70.5 -28.5z" />
    <glyph glyph-name="threedotsupabovear" 
d="M270 1792q-40 0 -69 29.5t-29 70.5t29 71t69 30q42 0 71.5 -29.5t29.5 -71.5t-29.5 -71t-71.5 -29zM137 1565q-41 0 -70.5 29t-29.5 69q0 41 29.5 71.5t70.5 30.5t71 -30.5t30 -71.5q0 -40 -30 -69t-71 -29zM416 1565q-40 0 -69.5 29t-29.5 69q0 41 29.5 71.5t69.5 30.5
q41 0 71.5 -30.5t30.5 -71.5q0 -40 -30.5 -69t-71.5 -29z" />
    <glyph glyph-name="threedotsupbelowar" 
d="M289 -350q-44 0 -75.5 32t-31.5 76t31.5 76.5t75.5 32.5t76 -32.5t32 -76.5t-32 -76t-76 -32zM164 -573q-44 0 -76.5 32t-32.5 76t32.5 76.5t76.5 32.5q43 0 74.5 -32.5t31.5 -76.5t-31.5 -76t-74.5 -32zM424 -573q-44 0 -75.5 32t-31.5 76t31.5 76.5t75.5 32.5
q45 0 76.5 -32t31.5 -77t-31.5 -76.5t-76.5 -31.5z" />
    <glyph glyph-name="waslaar" 
 />
    <glyph glyph-name="miniKehehar" 
 />
    <glyph glyph-name="gafsarkashabovear" 
d="M299 1427h111l-379 -727h-111z" />
    <glyph glyph-name="gafsarkashcenterar" 
 />
    <glyph glyph-name="doublestrokear" 
 />
    <glyph glyph-name="hamzacenterar" 
d="M184 678h181v-105h-365v105h66q-46 46 -46 115q0 73 43 117t119 44q75 0 121 -46t53 -134h-96q-6 36 -26 56t-50 20q-65 0 -65 -70q0 -66 65 -102z" />
    <glyph glyph-name="uni0654064F" 
d="M348 2218q0 -55 -34.5 -94t-86.5 -47l-276 -90v98l143 45q-31 39 -31 88q0 60 42 101.5t102 41.5q59 0 100 -41.5t41 -101.5zM147 2220q0 -44 35 -61l8 2l5 -7q4 -2 14 -2q26 0 43.5 19.5t17.5 48.5q0 25 -17.5 43t-43.5 18t-44 -18t-18 -43zM188 1626h213v-131h-438v131
h76q-53 53 -53 133q0 88 52 140.5t144 52.5q91 0 146.5 -56.5t62.5 -160.5h-121q-6 41 -29 62.5t-57 21.5q-73 0 -73 -74q0 -31 18.5 -63.5t58.5 -55.5z" />
    <glyph glyph-name="uni0654064C" 
d="M-25 2091q2 13 2 27.5t-2 32.5t-9 31t-18.5 22t-32 7t-46.5 -16v74q75 44 116.5 20t47.5 -102l88 27q-31 43 -31 90q0 59 41.5 101t101.5 42q58 0 100 -42t42 -101q0 -53 -33.5 -93.5t-83.5 -49.5l-281 -90v20h-2zM174 2306q0 -49 39 -63l6 2l2 -4q9 -3 15 -3q27 0 44 19
t17 49q0 25 -17.5 42t-43.5 17t-44 -17t-18 -42zM188 1626h213v-131h-438v131h76q-53 53 -53 133q0 88 52 140.5t144 52.5q91 0 146.5 -56.5t62.5 -160.5h-121q-6 41 -29 62.5t-57 21.5q-73 0 -73 -74q0 -31 18.5 -63.5t58.5 -55.5z" />
    <glyph glyph-name="uni0654064E" 
d="M387 2343v-90l-395 -148v90zM188 1626h213v-131h-438v131h76q-53 53 -53 133q0 88 52 140.5t144 52.5q91 0 146.5 -56.5t62.5 -160.5h-121q-6 41 -29 62.5t-57 21.5q-73 0 -73 -74q0 -31 18.5 -63.5t58.5 -55.5z" />
    <glyph glyph-name="uni0654064B" 
d="M387 2462v-88l-395 -150v90zM387 2286v-91l-395 -147v88zM188 1626h213v-131h-438v131h76q-53 53 -53 133q0 88 52 140.5t144 52.5q91 0 146.5 -56.5t62.5 -160.5h-121q-6 41 -29 62.5t-57 21.5q-73 0 -73 -74q0 -31 18.5 -63.5t58.5 -55.5z" />
    <glyph glyph-name="uni06540652" 
d="M182 2038q-63 0 -108 45.5t-45 109.5q0 63 45 108.5t108 45.5t108.5 -45.5t45.5 -108.5q0 -64 -45.5 -109.5t-108.5 -45.5zM182 2265q-29 0 -47 -18.5t-18 -46.5q0 -32 18 -52t47 -20q30 0 49 20t19 52q0 28 -19.5 46.5t-48.5 18.5zM188 1626h213v-131h-438v131h76
q-53 53 -53 133q0 88 52 140.5t144 52.5q91 0 146.5 -56.5t62.5 -160.5h-121q-6 41 -29 62.5t-57 21.5q-73 0 -73 -74q0 -31 18.5 -63.5t58.5 -55.5z" />
    <glyph glyph-name="uni06550650" 
d="M281 -229h215v-131h-439v131h76q-53 53 -53 133q0 86 51.5 139t142.5 53q92 0 147 -56t62 -161h-121q-6 41 -29 62.5t-57 21.5q-71 0 -71 -74q0 -30 18.5 -62.5t57.5 -55.5zM96 -694v102l357 123v-102z" />
    <glyph glyph-name="uni0655064D" 
d="M281 -229h215v-131h-439v131h76q-53 53 -53 133q0 86 51.5 139t142.5 53q92 0 147 -56t62 -161h-121q-6 41 -29 62.5t-57 21.5q-71 0 -71 -74q0 -30 18.5 -62.5t57.5 -55.5zM84 -717v90l395 148v-88zM84 -905v88l395 149v-90z" />
    <glyph glyph-name="uni06510670" 
 />
    <glyph glyph-name="uni0651064F" 
 />
    <glyph glyph-name="uni0651064C" 
 />
    <glyph glyph-name="uni0651064E" 
d="M16 1985l396 145v-88l-396 -150v93zM143 1434q-62 0 -102.5 41t-40.5 110v47l100 25v-72q0 -51 43 -51t43 59v93l99 26v-106q0 -41 45 -41q51 0 51 59v115l98 28v-143q0 -74 -36 -118t-99 -44q-64 0 -94 43q-17 -33 -45.5 -52t-61.5 -19z" />
    <glyph glyph-name="uni0651064B.1" 
d="M16 2103l396 148v-90l-396 -148v90zM16 1925l396 150v-90l-396 -148v88zM143 1434q-62 0 -102.5 41t-40.5 110v47l100 25v-72q0 -51 43 -51t43 59v93l99 26v-106q0 -41 45 -41q51 0 51 59v115l98 28v-143q0 -74 -36 -118t-99 -44q-64 0 -94 43q-17 -33 -45.5 -52
t-61.5 -19z" />
    <glyph glyph-name="uni06510650" 
d="M166 2028q-62 0 -102.5 41t-40.5 108v47l100 25v-72q0 -49 43 -49t43 57v92l100 29v-106q0 -21 12.5 -32t30.5 -11q51 0 51 59v117l101 26v-143q0 -73 -37 -117.5t-100 -44.5q-26 0 -53.5 12t-41.5 31q-35 -69 -106 -69zM63 1767l396 146v-88l-396 -150v92z" />
    <glyph glyph-name="out" 
d="M-2 0l-113 41v176l113 41v-258z" />
    <glyph glyph-name="behnoondotless" horiz-adv-x="2217" 
 />
    </font>
</defs>
</svg>
