<?xml version="1.0" standalone="no"?>
<!DOCTYPE svg PUBLIC "-//W3C//DTD SVG 1.1//EN" "http://www.w3.org/Graphics/SVG/1.1/DTD/svg11.dtd" >
<svg xmlns="http://www.w3.org/2000/svg" xmlns:xlink="http://www.w3.org/1999/xlink" version="1.1">
<metadata>
Created by FontForge 20170731 at Sun Mar 20 11:31:38 2022
 By Aleksey,,,
https://www.baianat.com/
</metadata>
<defs>
<font id="Somar-Regular" horiz-adv-x="0" >
  <font-face 
    font-family="Somar"
    font-weight="400"
    font-stretch="normal"
    units-per-em="2048"
    panose-1="0 0 5 0 0 0 0 0 0 0"
    ascent="1638"
    descent="-410"
    x-height="1030"
    cap-height="1399"
    bbox="-999 -881 2695 2275"
    underline-thickness="102"
    underline-position="-307"
    unicode-range="U+0020-FEFC"
  />
<missing-glyph horiz-adv-x="843" 
 />
    <glyph glyph-name="uniFDF2" unicode="&#x627;&#xfedf;&#xfee0;&#xfeea;" horiz-adv-x="2818" arabic-form="isolated" 
d="M1507 2003v-221l-67 -19v222zM1386 1419q-55 0 -89.5 35t-34.5 100v50l67 16v-66q0 -65 57 -65q54 0 54 80v92l67 16v-100q0 -26 16.5 -39.5t39.5 -13.5q69 0 69 82v106l68 17v-123q0 -72 -35.5 -114t-93.5 -42q-54 0 -84 45q-12 -35 -40.5 -55.5t-60.5 -20.5zM2050 260
v1165h158v-1214q0 -89 -60 -150t-149 -61h-273q-132 0 -225 115q-83 -115 -241 -115h-107q-94 0 -168.5 42.5t-118.5 115.5q-127 -150 -336 -150q-167 0 -285 122.5t-118 293.5v192q0 179 118 297.5t296 118.5h438v-696q0 -78 48.5 -127t125.5 -49h107q82 0 122.5 47.5
t40.5 124.5v948h160v-948q0 -76 42 -124t124 -48h203q41 0 69.5 26.5t28.5 73.5zM2494 1425h158v-1425h-158v1425zM819 307v565h-278q-113 0 -184.5 -72t-71.5 -184v-192q0 -105 72.5 -180.5t172.5 -75.5q88 0 165 36.5t124 102.5z" />
    <glyph glyph-name="uniFEF5" unicode="&#xfedf;&#xfe82;" horiz-adv-x="1318" arabic-form="isolated" 
d="M322 1552l-109 -92l-41 62l164 135q21 -48 77 -74.5t119 -26.5q51 0 115.5 22t93.5 46l17 -78q-36 -31 -104.5 -53.5t-121.5 -22.5q-122 0 -210 82zM1018 1425h160v-1214q0 -89 -60 -150t-149 -61h-889v160h280v1097h160v-1097h402q41 0 68.5 26.5t27.5 73.5v1165z" />
    <glyph glyph-name="uniFEF6" unicode="&#xfee0;&#xfe82;" horiz-adv-x="1515" arabic-form="final" 
d="M281 1446l-41 61l163 135q21 -48 77 -74t120 -26q49 0 114.5 22t94.5 46l14 -78q-34 -31 -102 -53.5t-121 -22.5q-123 0 -211 82zM1405 160h111v-160h-132q-69 0 -127 32t-96 87q-81 -119 -246 -119h-774v160h295v1097h160v-1097h322q82 0 122.5 47.5t40.5 124.5v1093
h160l-2 -1093q0 -76 42.5 -124t123.5 -48z" />
    <glyph glyph-name="uniFEF7" unicode="&#xfedf;&#xfe84;" horiz-adv-x="1318" arabic-form="isolated" 
d="M627 1473v-95h-387v95h77q-55 52 -55 133q0 82 46 129t124 47t126 -45.5t58 -139.5h-86q-18 93 -96 93q-82 0 -82 -93q0 -81 74 -124h201zM1018 1425h160v-1214q0 -89 -60 -150t-149 -61h-889v160h280v1097h160v-1097h402q41 0 68.5 26.5t27.5 73.5v1165z" />
    <glyph glyph-name="uniFEF8" unicode="&#xfee0;&#xfe84;" horiz-adv-x="1505" arabic-form="final" 
d="M682 1473v-95h-387v95h78q-54 51 -54 133t45.5 129t124.5 47q77 0 126 -46t59 -139h-88q-18 93 -97 93q-40 0 -59.5 -22t-19.5 -71q0 -83 73 -124h199zM1405 160h111v-160h-132q-69 0 -127 32t-96 87q-81 -119 -246 -119h-774v160h295v1097h160v-1097h322
q82 0 122.5 47.5t40.5 124.5v1093h160l-2 -1093q0 -76 42.5 -124t123.5 -48z" />
    <glyph glyph-name="uniFEF9" unicode="&#xfedf;&#xfe88;" horiz-adv-x="1318" arabic-form="isolated" 
d="M1018 1425h160v-1214q0 -89 -60 -150t-149 -61h-889v160h280v1097h160v-1097h402q41 0 68.5 26.5t27.5 73.5v1165zM346 -381q0 -86 76 -125h196v-94h-387v94h78q-55 52 -55 133q0 83 45.5 129.5t124.5 46.5q78 0 126 -45t58 -139h-86q-18 92 -96 92q-41 0 -60.5 -21.5
t-19.5 -70.5z" />
    <glyph glyph-name="uniFEFA" unicode="&#xfee0;&#xfe88;" horiz-adv-x="1505" arabic-form="final" 
d="M1405 160h111v-160h-132q-69 0 -127 32t-96 87q-81 -119 -246 -119h-774v160h295v1097h160v-1097h322q82 0 122.5 47.5t40.5 124.5v1093h160l-2 -1093q0 -76 42.5 -124t123.5 -48zM422 -334q0 -82 74 -125h200v-94h-387v94h78q-55 52 -55 133q0 82 46 129t124 47t126 -45
t58 -139h-86q-18 92 -96 92q-82 0 -82 -92z" />
    <glyph glyph-name="uniFEFB" unicode="&#xfedf;&#xfe8e;" horiz-adv-x="1318" arabic-form="isolated" 
d="M1018 1425h160v-1214q0 -89 -60 -150t-149 -61h-889v160h280v1097h160v-1097h402q41 0 68.5 26.5t27.5 73.5v1165z" />
    <glyph glyph-name="uniFEFC" unicode="&#xfee0;&#xfe8e;" horiz-adv-x="1505" arabic-form="final" 
d="M1405 160h111v-160h-132q-69 0 -127 32t-96 87q-81 -119 -246 -119h-774v160h295v1097h160v-1097h322q82 0 122.5 47.5t40.5 124.5v1093h160l-2 -1093q0 -76 42.5 -124t123.5 -48z" />
    <glyph glyph-name="uni066E.init" unicode="&#x66e;" horiz-adv-x="561" 
d="M276 969h160v-699q0 -116 -77.5 -193t-194.5 -77h-166l-68 27v106l68 27h115q81 0 122 48t41 124v637z" />
    <glyph glyph-name="uni066E.medi" unicode="&#x66e;" horiz-adv-x="641" 
d="M575 160h72v-160h-92q-132 0 -225 115q-86 -115 -244 -115h-86l-70 27v106l70 27h88q80 0 121 46.5t43 121.5l-2 641h162v-584q0 -31 -2 -47v-6q0 -76 42 -124t123 -48z" />
    <glyph glyph-name="uni066E.fina" unicode="&#x66e;" horiz-adv-x="1841" 
d="M1755 160h100v-160h-118q-67 0 -126 31t-102 84q-83 -115 -243 -115h-772q-177 0 -294.5 117.5t-117.5 294.5v346h160v-346q0 -110 71 -181t181 -71h772q81 0 122.5 46.5t43.5 121.5l-2 641h161v-584q0 -31 -2 -47v-6q0 -76 42 -124t124 -48z" />
    <glyph glyph-name="uni066F.fina" unicode="&#x66f;" horiz-adv-x="1595" 
d="M1483 160h123v-160h-129q-34 -259 -224 -423.5t-460 -164.5h-5q-146 0 -274 52.5t-218.5 143t-143 218.5t-52.5 274v232h160v-232q0 -230 149 -379t379 -149h5q214 0 353 117t169 311h-271q-175 0 -291 116.5t-116 291.5v213q0 173 116 289t291 116h31q175 0 291.5 -116
t116.5 -289v-461zM797 408q0 -109 69 -178.5t178 -69.5h279v461q0 107 -70 176t-178 69h-31q-109 0 -178 -69t-69 -176v-213z" />
    <glyph glyph-name="uni06A1.init" unicode="&#x6a1;" horiz-adv-x="1101" 
d="M561 1032q173 0 294.5 -121.5t121.5 -296.5v-223q0 -161 -114 -275t-277 -114h-586l-70 25v108l70 27h248q-56 44 -89.5 111.5t-33.5 144.5v196q0 175 120.5 296.5t295.5 121.5h20zM817 408v206q0 109 -73.5 183.5t-182.5 74.5h-20q-109 0 -182.5 -74.5t-73.5 -183.5
v-196q0 -106 71.5 -181t171.5 -75h43q102 0 174 72t72 174z" />
    <glyph glyph-name="uni06A1.medi" unicode="&#x6a1;" horiz-adv-x="1163" 
d="M899 160h277v-160h-1180l-70 27v106l70 27h291q-57 44 -90 112t-33 146v196q0 183 115.5 299.5t312.5 116.5q200 0 315 -115t115 -301v-196q0 -77 -33.5 -145.5t-89.5 -112.5zM862 418v196q0 115 -69.5 185.5t-194.5 70.5q-135 0 -205.5 -68t-70.5 -188v-196
q0 -106 77.5 -182t186.5 -76q131 0 203.5 73.5t72.5 184.5z" />
    <glyph glyph-name="uni06A1.fina" unicode="&#x6a1;" horiz-adv-x="1859" 
d="M1520 160h350v-160h-1381q-115 1 -208 55t-146 148t-53 209v266h160v-266q0 -110 71 -181t181 -71h413q-57 44 -90 112t-33 146v196q0 183 116 299.5t314 116.5q199 0 313.5 -115t114.5 -301v-196q0 -78 -33 -146.5t-89 -111.5zM1485 418v196q0 115 -70.5 185.5
t-195.5 70.5q-135 0 -205 -68t-70 -188v-196q0 -106 77.5 -182t184.5 -76q131 0 205 73.5t74 184.5z" />
    <glyph glyph-name="uni06C2.fina" unicode="&#x6c2;" horiz-adv-x="1083" 
d="M739 1323v-94h-387v94h78q-53 50 -53 133t45 130.5t125 47.5q76 0 125 -46t59 -140h-86q-18 92 -96 92q-42 0 -62 -21.5t-20 -70.5q0 -86 76 -125h196zM551 1034q169 0 288 -119t119 -288v-246q0 -157 -110.5 -268t-265.5 -111h-64q-170 0 -287.5 118t-117.5 288v219
q0 169 119 288t286 119h33zM799 375v252q0 105 -71.5 176t-176.5 71h-33q-104 0 -175 -71t-71 -176v-219q0 -101 72.5 -173.5t173.5 -72.5h68q88 0 150.5 62t62.5 151z" />
    <glyph glyph-name="uni06C3.fina" unicode="&#x6c3;" horiz-adv-x="1193" 
d="M444 1227q-41 0 -71.5 30.5t-30.5 73.5q0 41 30.5 72t71.5 31q42 0 72.5 -30.5t30.5 -72.5q0 -43 -30 -73.5t-73 -30.5zM778 1227q-43 0 -73.5 30.5t-30.5 73.5q0 41 31 72t73 31q41 0 72 -31t31 -72q0 -43 -30.5 -73.5t-72.5 -30.5zM1153 160h51v-160h-51
q-141 0 -236 93t-98 233v544h-278q-113 0 -184.5 -72t-71.5 -184v-366h-158v366q0 179 118 297.5t296 118.5h438v-694q0 -78 48.5 -127t125.5 -49z" />
    <glyph glyph-name="uniFB57" unicode="&#x67e;" horiz-adv-x="1841" arabic-form="final" 
d="M1755 160h100v-160h-118q-67 0 -126 31t-102 84q-83 -115 -243 -115h-772q-177 0 -294.5 117.5t-117.5 294.5v346h160v-346q0 -110 71 -181t181 -71h772q81 0 122.5 46.5t43.5 121.5l-2 641h161v-584q0 -31 -2 -47v-6q0 -76 42 -124t124 -48zM819 -315q0 -43 -30.5 -74
t-71.5 -31q-42 0 -73.5 31.5t-31.5 73.5q0 41 31.5 71.5t73.5 30.5q41 0 71.5 -30.5t30.5 -71.5zM1028 -213q41 0 71.5 -30.5t30.5 -71.5q0 -43 -30.5 -74t-71.5 -31q-43 0 -73.5 31t-30.5 74q0 41 30.5 71.5t73.5 30.5zM868 -457q41 0 72 -30.5t31 -71.5q0 -43 -31 -74
t-72 -31t-71.5 31t-30.5 74q0 41 30.5 71.5t71.5 30.5z" />
    <glyph glyph-name="uniFB58" unicode="&#x67e;" horiz-adv-x="692" arabic-form="initial" 
d="M-33 0v160h361q39 0 67.5 26.5t28.5 73.5v711h160v-760q0 -90 -60.5 -150.5t-150.5 -60.5h-406zM174 -422q-42 0 -73 31t-31 74q0 41 31.5 71.5t72.5 30.5t71.5 -30.5t30.5 -71.5q0 -43 -30.5 -74t-71.5 -31zM485 -422q-43 0 -73.5 31t-30.5 74q0 41 30.5 71.5t73.5 30.5
q41 0 72 -30.5t31 -71.5q0 -43 -31 -74t-72 -31zM326 -666q-41 0 -72 31t-31 72t31 71.5t72 30.5t71.5 -30.5t30.5 -71.5t-30.5 -72t-71.5 -31z" />
    <glyph glyph-name="uniFB59" unicode="&#x67e;" horiz-adv-x="741" arabic-form="medial" 
d="M635 160h143v-160h-166q-132 0 -225 115q-83 -115 -242 -115h-149l-70 27v106l70 27h149q82 0 123 47.5t41 124.5v637h160v-637q0 -76 42 -124t124 -48zM352 -311q0 -42 -29.5 -72.5t-70.5 -30.5q-43 0 -74 31t-31 72t31 71.5t74 30.5q41 0 70.5 -30.5t29.5 -71.5z
M561 -209q43 0 73 -30.5t30 -71.5q0 -42 -30.5 -72.5t-72.5 -30.5q-41 0 -71.5 31t-30.5 72t30.5 71.5t71.5 30.5zM403 -453q41 0 72 -30.5t31 -71.5q0 -42 -30.5 -72t-72.5 -30q-43 0 -73.5 29.5t-30.5 72.5q0 41 30.5 71.5t73.5 30.5z" />
    <glyph glyph-name="uniFB67" unicode="&#x679;" horiz-adv-x="1841" arabic-form="final" 
d="M600 1020v78h66v317h77v-184q65 65 129 65q134 0 134 -157v-119h-406zM864 1221q-57 0 -121 -76v-47h187v41q0 82 -66 82zM1755 160h100v-160h-118q-67 0 -126 31t-102 84q-83 -115 -243 -115h-772q-177 0 -294.5 117.5t-117.5 294.5v346h160v-346q0 -110 71 -181
t181 -71h772q81 0 122.5 46.5t43.5 121.5l-2 641h161v-584q0 -31 -2 -47v-6q0 -76 42 -124t124 -48z" />
    <glyph glyph-name="uniFB68" unicode="&#x679;" horiz-adv-x="561" arabic-form="initial" 
d="M418 1460q135 0 135 -160v-118h-406v78h66v317h76v-184q64 67 129 67zM477 1260v40q0 43 -15.5 62.5t-49.5 19.5q-60 0 -123 -75v-47h188zM276 332v637h160v-699q0 -116 -77.5 -193t-194.5 -77h-166l-68 27v106l68 27h115q81 0 122 48t41 124z" />
    <glyph glyph-name="uniFB69" unicode="&#x679;" horiz-adv-x="641" arabic-form="medial" 
d="M117 1204v78h67v320h76v-187q65 68 129 68q133 0 133 -158v-121h-405zM383 1405q-59 0 -123 -76v-47h186v43q0 42 -15 61t-48 19zM575 160h72v-160h-92q-132 0 -225 115q-86 -115 -244 -115h-86l-70 27v106l70 27h88q80 0 121 46.5t43 121.5l-2 641h162v-584
q0 -31 -2 -47v-6q0 -76 42 -124t123 -48z" />
    <glyph glyph-name="uniFB6B" unicode="&#x6a4;" horiz-adv-x="1859" arabic-form="final" 
d="M1225 1487q-43 0 -74 30.5t-31 73.5q0 41 31 72t74 31q41 0 71.5 -31t30.5 -72q0 -43 -30.5 -73.5t-71.5 -30.5zM1065 1241q-43 0 -73.5 29.5t-30.5 72.5q0 41 30.5 72t73.5 31q41 0 70.5 -30.5t29.5 -72.5q0 -43 -29.5 -72.5t-70.5 -29.5zM1282 1343q0 41 30.5 72
t71.5 31q42 0 72.5 -30.5t30.5 -72.5q0 -43 -30 -72.5t-73 -29.5q-42 0 -72 30t-30 72zM1520 160h350v-160h-1381q-115 1 -208 55t-146 148t-53 209v266h160v-266q0 -110 71 -181t181 -71h413q-57 44 -90 112t-33 146v196q0 183 116 299.5t314 116.5q199 0 313.5 -115
t114.5 -301v-196q0 -78 -33 -146.5t-89 -111.5zM1485 418v196q0 115 -70.5 185.5t-195.5 70.5q-135 0 -205 -68t-70 -188v-196q0 -106 77.5 -182t184.5 -76q131 0 205 73.5t74 184.5z" />
    <glyph glyph-name="uniFB6C" unicode="&#x6a4;" horiz-adv-x="1101" arabic-form="initial" 
d="M565 1481q-43 0 -73.5 30.5t-30.5 73.5q0 41 30.5 72t73.5 31q41 0 71 -31t30 -72q0 -43 -30 -73.5t-71 -30.5zM403 1233q-41 0 -71.5 30.5t-30.5 73.5q0 41 30.5 72t71.5 31q42 0 72.5 -30.5t30.5 -72.5q0 -43 -30 -73.5t-73 -30.5zM725 1233q-41 0 -71.5 30.5
t-30.5 73.5q0 41 30.5 72t71.5 31q42 0 72 -30.5t30 -72.5q0 -43 -29.5 -73.5t-72.5 -30.5zM561 1032q173 0 294.5 -121.5t121.5 -296.5v-223q0 -161 -114 -275t-277 -114h-586l-70 25v108l70 27h248q-56 44 -89.5 111.5t-33.5 144.5v196q0 175 120.5 296.5t295.5 121.5h20z
M817 408v206q0 109 -73.5 183.5t-182.5 74.5h-20q-109 0 -182.5 -74.5t-73.5 -183.5v-196q0 -106 71.5 -181t171.5 -75h43q102 0 174 72t72 174z" />
    <glyph glyph-name="uniFB6D" unicode="&#x6a4;" horiz-adv-x="1163" arabic-form="medial" 
d="M606 1481q-43 0 -73.5 30.5t-30.5 73.5q0 41 31 72t73 31q41 0 71 -31t30 -72q0 -43 -30 -73.5t-71 -30.5zM444 1233q-41 0 -71.5 30.5t-30.5 73.5q0 41 30.5 72t71.5 31q42 0 72.5 -30.5t30.5 -72.5q0 -43 -30 -73.5t-73 -30.5zM664 1337q0 41 30.5 72t71.5 31
q42 0 72 -30.5t30 -72.5q0 -43 -29.5 -73.5t-72.5 -30.5q-41 0 -71.5 30.5t-30.5 73.5zM899 160h277v-160h-1180l-70 27v106l70 27h291q-57 44 -90 112t-33 146v196q0 183 115.5 299.5t312.5 116.5q200 0 315 -115t115 -301v-196q0 -77 -33.5 -145.5t-89.5 -112.5zM862 418
v196q0 115 -69.5 185.5t-194.5 70.5q-135 0 -205.5 -68t-70.5 -188v-196q0 -106 77.5 -182t186.5 -76q131 0 203.5 73.5t72.5 184.5z" />
    <glyph glyph-name="uniFB7B" unicode="&#x686;" horiz-adv-x="1454" arabic-form="final" 
d="M1350 160h118v-160h-903q-137 0 -222 -76t-85 -207q0 -83 42 -151t116 -109t167 -59t202 -3t214 62v-149q-107 -50 -218 -69t-209 -7.5t-185.5 51t-150.5 101t-99.5 147.5t-36.5 186q0 197 130.5 320t332.5 123h541q-14 11 -33.5 45t-35 69t-43.5 100.5t-46 104.5
q-84 181 -194 280t-236 112.5t-270 -44.5v146q103 40 202.5 47t195 -22t181 -91.5t161 -166.5t134.5 -242q39 -96 69.5 -159t49.5 -97t40.5 -51.5t33 -21t37.5 -7.5v-2zM606 -170q26 0 43 -17t17 -42t-17 -42.5t-43 -17.5q-25 0 -43 17.5t-18 42.5t18 42t43 17zM850 -229
q0 -25 -17 -42.5t-42 -17.5q-26 0 -44 17.5t-18 42.5t18 42t44 17q25 0 42 -17t17 -42zM698 -446q-26 0 -43.5 17t-17.5 42t17.5 42t43.5 17q25 0 43.5 -17.5t18.5 -41.5t-18.5 -41.5t-43.5 -17.5z" />
    <glyph glyph-name="uniFB7C" unicode="&#x686;" horiz-adv-x="1327" arabic-form="initial" 
d="M981 498q33 -80 58.5 -137t47 -93t35 -56.5t31.5 -31t27 -13t30 -5.5v-162h-1233v160h990q-14 11 -33.5 45t-35 69t-43.5 100.5t-46 104.5q-128 274 -301 357t-402 -9v146q103 40 202.5 47t195 -22t181 -91.5t161.5 -166.5t135 -242zM401 -406q-43 0 -73.5 30t-30.5 73
q0 41 30.5 71.5t73.5 30.5q41 0 72 -30.5t31 -71.5q0 -42 -30.5 -72.5t-72.5 -30.5zM713 -406q-43 0 -74 30t-31 73q0 41 31 71.5t74 30.5q41 0 70.5 -30.5t29.5 -71.5q0 -43 -29.5 -73t-70.5 -30zM553 -651q-42 0 -73 31t-31 73q0 41 31.5 72t72.5 31t71.5 -31t30.5 -72
q0 -43 -30.5 -73.5t-71.5 -30.5z" />
    <glyph glyph-name="uniFB7D" unicode="&#x686;" horiz-adv-x="1333" arabic-form="medial" 
d="M1217 160h122v-160h-1335l-70 27v106l70 27h967q-14 11 -33.5 45t-35 69t-43.5 100.5t-46 104.5q-126 273 -299.5 357t-400.5 -9v146q102 40 201.5 47t194.5 -22t180.5 -91.5t162 -166.5t135.5 -242q39 -96 69.5 -159t49.5 -97t40.5 -51.5t33 -21t37.5 -7.5v-2zM508 -303
q0 -43 -29.5 -73t-72.5 -30q-42 0 -72.5 30.5t-30.5 72.5q0 41 31 71.5t72 30.5q42 0 72 -30t30 -72zM717 -201q41 0 71.5 -30.5t30.5 -71.5q0 -43 -30.5 -73t-71.5 -30q-42 0 -73.5 30.5t-31.5 72.5q0 41 31.5 71.5t73.5 30.5zM557 -444q42 0 72 -30.5t30 -72.5
q0 -43 -29.5 -73.5t-72.5 -30.5q-41 0 -71.5 30.5t-30.5 73.5q0 41 30.5 72t71.5 31z" />
    <glyph glyph-name="uniFB89" unicode="&#x688;" horiz-adv-x="1128" arabic-form="final" 
d="M297 1307v77h65v318h76v-186q66 69 129 69q135 0 135 -160v-118h-405zM561 1507q-57 0 -123 -75v-48h189v41q0 82 -66 82zM915 160h228v-160h-1043v160h656v438q0 120 -76.5 196t-196.5 76h-202v160h202q186 0 309 -123.5t123 -308.5v-438z" />
    <glyph glyph-name="uniFB8B" unicode="&#x698;" horiz-adv-x="784" arabic-form="final" 
d="M432 1425q-42 0 -73 30.5t-31 72.5q0 41 31.5 71.5t72.5 30.5t72 -30.5t31 -71.5q0 -42 -30.5 -72.5t-72.5 -30.5zM272 1178q-43 0 -73.5 30.5t-30.5 71.5q0 42 31 73t73 31q41 0 72 -31.5t31 -72.5t-31 -71.5t-72 -30.5zM489 1280q0 42 31.5 73t73.5 31q41 0 70.5 -31
t29.5 -73q0 -41 -29.5 -71.5t-70.5 -30.5q-43 0 -74 30.5t-31 71.5zM799 160v-160h-262v-45q0 -177 -117.5 -294.5t-294.5 -117.5h-105v158h105q109 0 180.5 71t71.5 183v1026h160v-821h262z" />
    <glyph glyph-name="uniFB8D" unicode="&#x691;" horiz-adv-x="684" arabic-form="final" 
d="M209 1229v78h65v317h76v-184q64 67 129 67q135 0 135 -159v-119h-405zM473 1430q-59 0 -123 -76v-47h189v41q0 82 -66 82zM696 160v-160h-204v-45q0 -177 -118.5 -294.5t-295.5 -117.5h-103v158h103q111 0 182.5 71t71.5 183v1026h160v-821h204z" />
    <glyph glyph-name="uniFB8F" unicode="&#x6a9;" horiz-adv-x="1912" arabic-form="final" 
d="M1630 160h285v-160h-1423q-115 1 -208.5 55t-146.5 148t-53 209v344h160v-344q0 -110 71 -181t181 -71h974v217q0 120 -76 196t-196 76h-627l-18 29l379 747h160l-312 -616h418q186 0 309 -123t123 -309v-217z" />
    <glyph glyph-name="uniFB90" unicode="&#x6a9;" horiz-adv-x="1323" arabic-form="initial" 
d="M768 809q182 0 307 -125.5t125 -306.5q0 -155 -111 -266t-268 -111h-813l-69 27v106l69 27h803q97 0 163 68.5t66 166.5q0 114 -77.5 184t-194.5 70h-627l-16 66l381 710l125 -53l-279 -563h416z" />
    <glyph glyph-name="uniFB91" unicode="&#x6a9;" horiz-adv-x="1398" arabic-form="medial" 
d="M1186 160h227v-160h-1417l-70 27v106l70 27h1032v217q0 120 -76.5 196t-197.5 76h-625l-18 29l383 747h159l-313 -616h414q186 0 309 -123t123 -309v-217z" />
    <glyph glyph-name="uniFB93" unicode="&#x6af;" horiz-adv-x="1871" arabic-form="final" 
d="M866 1427l-383 -751h-82l385 751h80zM1659 160h213v-160h-1383q-115 1 -208 55t-146 148t-53 209v344h160v-344q0 -110 71 -181t181 -71h1005v217q0 120 -76 196t-196 76h-627l-18 29l379 747h159l-311 -616h418q186 0 309 -123t123 -309v-217z" />
    <glyph glyph-name="uniFB94" unicode="&#x6af;" horiz-adv-x="1429" arabic-form="initial" 
d="M426 1427h80l-391 -751h-80zM872 809q183 0 308 -125t125 -307q0 -156 -110.5 -266.5t-266.5 -110.5h-946l-70 27v106l70 27h936q97 0 162 68.5t65 166.5q0 114 -77.5 184t-195.5 70h-626l-17 66l381 710l127 -53l-278 -563h413z" />
    <glyph glyph-name="uniFB95" unicode="&#x6af;" horiz-adv-x="1562" arabic-form="medial" 
d="M563 1427l-385 -751h-80l383 751h82zM1352 160h227v-160h-1581l-70 27v106l70 27h1194v217q0 120 -76 196t-196 76h-627l-19 29l379 747h160l-311 -616h418q186 0 309 -123t123 -309v-217z" />
    <glyph glyph-name="uniFB9F" unicode="&#x6ba;" horiz-adv-x="1492" arabic-form="final" 
d="M1503 160v-160h-250q-1 -120 -45.5 -225t-120 -179.5t-182 -117.5t-227.5 -43h-8q-246 0 -408 162.5t-162 408.5v420h158v-420q0 -183 115 -297.5t297 -114.5h8q183 0 299.5 114.5t116.5 297.5v971h159v-817h250z" />
    <glyph glyph-name="uniFBA7" unicode="&#x6c1;" horiz-adv-x="1247" arabic-form="final" 
d="M1153 160h51v-160h-51q-141 0 -236 93t-98 233v544h-278q-113 0 -184.5 -72t-71.5 -184v-366h-158v366q0 179 118 297.5t296 118.5h438v-694q0 -78 48.5 -127t125.5 -49z" />
    <glyph glyph-name="uniFBA8" unicode="&#x6c1;" horiz-adv-x="585" arabic-form="initial" 
d="M276 969h160v-699q0 -116 -77.5 -193t-194.5 -77h-166l-68 27v106l68 27h115q81 0 122 48t41 124v637zM227 -197l11 78h129l-13 -74q-12 -105 -44 -238t-60 -218h-105q3 17 23 108.5t35 177t24 166.5z" />
    <glyph glyph-name="uniFBA9" unicode="&#x6c1;" horiz-adv-x="1499" arabic-form="medial" 
d="M1513 133v-160h-323v-235q0 -178 -119 -297t-297 -119h-438v651h-332l-72 27v106l72 27h332v494h160v-1145h278q113 0 184.5 71t71.5 185v395h483z" />
    <glyph glyph-name="uniFBAB" unicode="&#x6be;" horiz-adv-x="1480" arabic-form="final" 
d="M1163 160h326v-160h-234v-78q0 -216 -112 -345.5t-318 -129.5q-199 0 -315.5 137.5t-116.5 352.5v24l-309 -31v160l309 31v411q0 217 127.5 358.5t323.5 141.5q206 0 327 -146t121 -397q0 -197 -129 -329zM543 516v-381l260 25q156 14 251 99t95 230q0 191 -81 292.5
t-224 101.5q-130 0 -215.5 -104.5t-85.5 -262.5zM825 -403q129 0 205 94t76 246v172q-131 -94 -303 -109l-260 -25v-38q0 -154 74.5 -247t207.5 -93z" />
    <glyph glyph-name="uniFBAC" unicode="&#x6be;" horiz-adv-x="1585" arabic-form="initial" 
d="M422 969q165 49 324 59t286 -16t224.5 -79t151 -133t54.5 -175v-224q0 -166 -117.5 -283.5t-283.5 -117.5h-1086l-69 27v106l69 27h316q-50 37 -79.5 98t-29.5 129v166q3 120 67.5 209t172.5 121v86zM1049 160q105 0 179.5 74.5t74.5 179.5v209q-1 74 -58.5 131.5
t-151.5 87.5t-216 37t-252 -21q140 -3 226.5 -86t86.5 -231v-381h111zM801 160v385q0 103 -62 165t-174 62q-121 0 -183.5 -60t-62.5 -167v-152q0 -93 67 -158.5t163 -74.5h252z" />
    <glyph glyph-name="uniFBAD" unicode="&#x6be;" horiz-adv-x="1705" arabic-form="medial" 
d="M1473 160h251v-160h-1734l-70 27v106l70 27h309q-49 38 -79 99t-30 128v176q0 122 60 212t168 128v80q167 48 328.5 56.5t290.5 -21t228.5 -86t153.5 -139.5t54 -179v-454zM1313 160v454q0 88 -75 157.5t-209.5 104.5t-299.5 25q104 -40 160.5 -128t56.5 -210v-403h367z
M655 160h154v407q0 102 -62 164t-174 62q-120 0 -181.5 -59.5t-61.5 -166.5v-174q0 -94 66 -159t163 -74h96z" />
    <glyph glyph-name="uniFBAF" unicode="&#x6d2;" horiz-adv-x="1452" arabic-form="final" 
d="M1409 -330v-162h-1229v302q0 150 100 250t250 100h932v-160h-932q-85 0 -137.5 -52.5t-52.5 -137.5v-140h1069z" />
    <glyph glyph-name="uniFBB1" unicode="&#x6d3;" horiz-adv-x="1452" arabic-form="final" 
d="M991 504v-94h-387v94h78q-55 52 -55 133q0 82 46 129t124 47t126 -45t58 -139h-86q-18 92 -96 92q-82 0 -82 -92q0 -82 74 -125h200zM530 0q-85 0 -137.5 -52.5t-52.5 -137.5v-140h1069v-162h-1229v302q0 150 100 250t250 100h932v-160h-932z" />
    <glyph glyph-name="uniFBFD" unicode="&#x6cc;" horiz-adv-x="2029" arabic-form="final" 
d="M1819 160h221v-160h-379v866h-160q-107 0 -176.5 -70.5t-69.5 -177.5v-593q0 -163 -75 -294.5t-207 -205.5t-295 -74h-6q-246 0 -409 163.5t-163 410.5v417h158v-417q0 -183 115.5 -298.5t298.5 -115.5h6q183 0 300.5 115.5t117.5 298.5v593q0 175 116 291.5t289 116.5
h318v-866z" />
    <glyph glyph-name="uniFBFE" unicode="&#x6cc;" horiz-adv-x="688" arabic-form="initial" 
d="M494 270q0 -115 -77.5 -192.5t-193.5 -77.5h-227l-70 27v106l70 27h174q81 0 122.5 48t41.5 124v637h160v-699zM133 -197q43 0 73 -30.5t30 -71.5q0 -43 -30 -72.5t-73 -29.5q-42 0 -72 30t-30 72q0 41 30.5 71.5t71.5 30.5zM465 -197q42 0 72 -30t30 -72
q0 -43 -29.5 -72.5t-72.5 -29.5q-42 0 -72.5 30t-30.5 72q0 41 31 71.5t72 30.5z" />
    <glyph glyph-name="uniFBFF" unicode="&#x6cc;" horiz-adv-x="772" arabic-form="medial" 
d="M651 160h142v-160h-162q-67 0 -126 31t-102 84q-83 -115 -241 -115h-166l-70 27v106l70 27h168q80 0 121 46.5t43 121.5l-2 641h159v-637q0 -76 42.5 -124t123.5 -48zM215 -188q42 0 72 -30.5t30 -72.5q0 -43 -29.5 -73.5t-72.5 -30.5q-41 0 -71.5 30.5t-30.5 73.5
q0 41 30.5 72t71.5 31zM547 -188q41 0 71.5 -31t30.5 -72q0 -43 -30.5 -73.5t-71.5 -30.5t-72 30.5t-31 73.5q0 41 31 72t72 31z" />
    <glyph glyph-name="uniFE82" unicode="&#x622;" horiz-adv-x="516" arabic-form="final" 
d="M-55 1636l-39 60l162 135q22 -47 78.5 -72.5t119.5 -25.5q49 0 114 21.5t95 45.5l14 -80q-36 -31 -103 -53t-120 -22q-120 0 -211 81zM141 1425h160v-1165q0 -47 28.5 -73.5t69.5 -26.5h131v-160h-178q-90 0 -150.5 60.5t-60.5 150.5v1214z" />
    <glyph glyph-name="uniFE84" unicode="&#x623;" horiz-adv-x="520" arabic-form="final" 
d="M410 1667v-94h-387v94h77q-55 52 -55 133q0 82 46 129t124 47t126 -45t58 -139h-86q-18 92 -96 92q-41 0 -60.5 -21.5t-19.5 -70.5q0 -83 74 -125h199zM399 160h131v-160h-178q-90 0 -150.5 60.5t-60.5 150.5v1214h160v-1165q0 -47 28.5 -73.5t69.5 -26.5z" />
    <glyph glyph-name="uniFE86" unicode="&#x624;" horiz-adv-x="1093" arabic-form="final" 
d="M733 1364v-94h-387v94h78q-53 50 -53 133t45 130.5t125 47.5q76 0 125 -46t59 -140h-86q-18 92 -98 92q-41 0 -60.5 -21.5t-19.5 -70.5q0 -86 76 -125h196zM1108 160v-160h-150v-92q0 -218 -175 -308t-515 -32v149q195 -28 313 -9t168 74.5t50 158.5v61h-293
q-108 1 -200.5 57.5t-146 152t-53.5 206.5v196q0 179 118.5 298.5t297.5 119.5h21q179 0 297 -119.5t118 -298.5v-454h150zM510 162h289v452q0 114 -71.5 186t-184.5 72h-21q-114 0 -185 -72t-71 -186v-196q0 -105 72 -180.5t172 -75.5z" />
    <glyph glyph-name="uniFE88" unicode="&#x625;" horiz-adv-x="522" arabic-form="final" 
d="M399 160h131v-160h-178q-90 0 -150.5 60.5t-60.5 150.5v1214h160v-1165q0 -47 28.5 -73.5t69.5 -26.5zM195 -313q0 -87 75 -125h197v-94h-385v94h76q-54 51 -54 133q0 83 45 130.5t125 47.5q78 0 126.5 -46t58.5 -140h-86q-18 92 -97 92q-42 0 -61.5 -21.5t-19.5 -70.5z
" />
    <glyph glyph-name="uniFE8A" unicode="&#x626;" horiz-adv-x="2029" arabic-form="final" 
d="M387 727v-94h-387v94h78q-53 53 -53 135t45.5 129t124.5 47q76 0 125 -46t59 -138h-86q-18 90 -96 90q-42 0 -62 -21.5t-20 -70.5q0 -87 75 -125h197zM1819 160h221v-160h-379v866h-160q-107 0 -176.5 -70.5t-69.5 -177.5v-593q0 -163 -75 -294.5t-207 -205.5t-295 -74
h-6q-246 0 -409 163.5t-163 410.5v417h158v-417q0 -183 115.5 -298.5t298.5 -115.5h6q183 0 300.5 115.5t117.5 298.5v593q0 175 116 291.5t289 116.5h318v-866z" />
    <glyph glyph-name="uniFE8B" unicode="&#x626;" horiz-adv-x="561" arabic-form="initial" 
d="M342 1237h197v-92h-387v92h79q-55 52 -55 135q0 82 45.5 129t124.5 47q76 0 125 -46t59 -138h-86q-17 90 -98 90q-41 0 -60.5 -21t-19.5 -69q0 -86 76 -127zM276 332v637h160v-699q0 -116 -77.5 -193t-194.5 -77h-166l-68 27v106l68 27h115q81 0 122 48t41 124z" />
    <glyph glyph-name="uniFE8C" unicode="&#x626;" horiz-adv-x="634" arabic-form="medial" 
d="M510 1262v-95h-387v95h78q-56 53 -56 133q0 82 46 129t124 47t126.5 -45.5t58.5 -139.5h-86q-18 93 -97 93q-40 0 -59.5 -22t-19.5 -71q0 -83 73 -124h199zM575 160h72v-160h-92q-132 0 -225 115q-86 -115 -244 -115h-86l-70 27v106l70 27h88q80 0 121 46.5t43 121.5
l-2 641h162v-584q0 -31 -2 -47v-6q0 -76 42 -124t123 -48z" />
    <glyph glyph-name="uniFE8E" unicode="&#x627;" horiz-adv-x="516" arabic-form="final" 
d="M141 1425h160v-1165q0 -47 28.5 -73.5t69.5 -26.5h131v-160h-178q-90 0 -150.5 60.5t-60.5 150.5v1214z" />
    <glyph glyph-name="uniFE90" unicode="&#x628;" horiz-adv-x="1841" arabic-form="final" 
d="M1755 160h100v-160h-118q-67 0 -126 31t-102 84q-83 -115 -243 -115h-772q-177 0 -294.5 117.5t-117.5 294.5v346h160v-346q0 -110 71 -181t181 -71h772q81 0 122.5 46.5t43.5 121.5l-2 641h161v-584q0 -31 -2 -47v-6q0 -76 42 -124t124 -48zM856 -223q42 0 72 -30.5
t30 -72.5q0 -43 -29.5 -73.5t-72.5 -30.5q-41 0 -71.5 30.5t-30.5 73.5q0 41 30.5 72t71.5 31z" />
    <glyph glyph-name="uniFE91" unicode="&#x628;" horiz-adv-x="561" arabic-form="initial" 
d="M-31 0v160h211q39 0 67.5 26.5t28.5 73.5v711h160v-760q0 -90 -60.5 -150.5t-150.5 -60.5h-256zM250 -426q-42 0 -72.5 30t-30.5 72q0 41 31 72t72 31q42 0 72 -30.5t30 -72.5q0 -43 -29.5 -72.5t-72.5 -29.5z" />
    <glyph glyph-name="uniFE92" unicode="&#x628;" horiz-adv-x="669" arabic-form="medial" 
d="M600 160h100v-160h-122q-133 0 -226 115q-83 -115 -241 -115h-115l-70 27v106l70 27h115q82 0 122.5 47.5t40.5 124.5v637h160v-637q0 -76 42 -124t124 -48zM350 -213q42 0 72.5 -30.5t30.5 -71.5q0 -43 -30 -74t-73 -31q-41 0 -71.5 31t-30.5 74q0 41 30.5 71.5
t71.5 30.5z" />
    <glyph glyph-name="uniFE94" unicode="&#x629;" horiz-adv-x="1193" arabic-form="final" 
d="M403 1227q-41 0 -71.5 30.5t-30.5 73.5q0 41 30.5 72t71.5 31q42 0 72.5 -30.5t30.5 -72.5q0 -43 -30 -73.5t-73 -30.5zM737 1227q-43 0 -73.5 30.5t-30.5 73.5q0 41 30.5 72t73.5 31q41 0 72 -31t31 -72q0 -43 -31 -73.5t-72 -30.5zM1153 160h51v-160h-51
q-94 0 -168.5 42.5t-118.5 115.5q-127 -150 -336 -150q-167 0 -285 122.5t-118 293.5v192q0 179 118 297.5t296 118.5h438v-696q0 -78 48.5 -127t125.5 -49zM819 307v565h-278q-113 0 -184.5 -72t-71.5 -184v-192q0 -105 72.5 -180.5t172.5 -75.5q88 0 165 36.5t124 102.5z
" />
    <glyph glyph-name="uniFE96" unicode="&#x62a;" horiz-adv-x="1841" arabic-form="final" 
d="M651 971q-42 0 -72 30t-30 72q0 41 30.5 72t71.5 31q42 0 72.5 -30.5t30.5 -72.5q0 -43 -30 -72.5t-73 -29.5zM985 971q-43 0 -73.5 29.5t-30.5 72.5q0 41 30.5 72t73.5 31q41 0 70.5 -30.5t29.5 -72.5q0 -43 -29.5 -72.5t-70.5 -29.5zM1755 160h100v-160h-118
q-67 0 -126 31t-102 84q-83 -115 -243 -115h-772q-177 0 -294.5 117.5t-117.5 294.5v346h160v-346q0 -110 71 -181t181 -71h772q81 0 122.5 46.5t43.5 121.5l-2 641h161v-584q0 -31 -2 -47v-6q0 -76 42 -124t124 -48z" />
    <glyph glyph-name="uniFE97" unicode="&#x62a;" horiz-adv-x="681" arabic-form="initial" 
d="M201 1120q-42 0 -72.5 30.5t-30.5 72.5q0 41 31 71.5t72 30.5q42 0 72 -30t30 -72q0 -43 -29.5 -73t-72.5 -30zM535 1120q-43 0 -74 30t-31 73q0 41 31 71.5t74 30.5q41 0 71.5 -30.5t30.5 -71.5q0 -43 -30.5 -73t-71.5 -30zM-18 0v160h258q41 0 68.5 26.5t27.5 73.5v711
h160v-760q0 -90 -60.5 -150.5t-148.5 -60.5h-305z" />
    <glyph glyph-name="uniFE98" unicode="&#x62a;" horiz-adv-x="813" arabic-form="medial" 
d="M238 1145q-42 0 -72.5 30t-30.5 72q0 41 31 72t72 31q42 0 72 -30.5t30 -72.5q0 -43 -29.5 -72.5t-72.5 -29.5zM571 1145q-43 0 -73.5 29.5t-30.5 72.5q0 41 30.5 72t73.5 31q41 0 72 -31t31 -72q0 -42 -30.5 -72t-72.5 -30zM645 160h182v-160h-202q-133 0 -226 115
q-86 -115 -243 -115h-160l-70 27v106l70 27h162q82 0 123 47.5t41 124.5v637h159v-584q0 -31 -2 -47v-6q0 -76 42.5 -124t123.5 -48z" />
    <glyph glyph-name="uniFE9A" unicode="&#x62b;" horiz-adv-x="1841" arabic-form="final" 
d="M819 1227q-41 0 -71.5 30.5t-30.5 73.5q0 41 30.5 72t71.5 31q42 0 72.5 -30.5t30.5 -72.5q0 -43 -30 -73.5t-73 -30.5zM659 979q-41 0 -71.5 30.5t-30.5 73.5q0 41 30.5 72t71.5 31q42 0 72.5 -30.5t30.5 -72.5q0 -43 -30 -73.5t-73 -30.5zM877 1083q0 41 31.5 72
t72.5 31t71.5 -31t30.5 -72q0 -43 -30.5 -73.5t-71.5 -30.5q-42 0 -73 31t-31 73zM1755 160h100v-160h-118q-67 0 -126 31t-102 84q-83 -115 -243 -115h-772q-177 0 -294.5 117.5t-117.5 294.5v346h160v-346q0 -110 71 -181t181 -71h772q81 0 122.5 46.5t43.5 121.5l-2 641
h161v-584q0 -31 -2 -47v-6q0 -76 42 -124t124 -48z" />
    <glyph glyph-name="uniFE9B" unicode="&#x62b;" horiz-adv-x="712" arabic-form="initial" 
d="M406 1376q-43 0 -74 31t-31 72t31.5 72.5t73.5 31.5q41 0 71.5 -31.5t30.5 -72.5t-30.5 -72t-71.5 -31zM246 1128q-43 0 -74 31t-31 74q0 41 31 71.5t74 30.5q41 0 71.5 -30.5t30.5 -71.5q0 -43 -30.5 -74t-71.5 -31zM565 1128q-41 0 -71.5 31t-30.5 74q0 41 30.5 71.5
t71.5 30.5q43 0 73 -30.5t30 -71.5q0 -43 -30 -74t-73 -31zM-18 0v160h245q41 0 69 26.5t28 73.5v711h159v-760q0 -90 -60.5 -150.5t-148.5 -60.5h-292z" />
    <glyph glyph-name="uniFE9C" unicode="&#x62b;" horiz-adv-x="837" arabic-form="medial" 
d="M412 1401q-43 0 -74 30.5t-31 71.5t31 72t74 31q41 0 71.5 -31t30.5 -72t-30.5 -71.5t-71.5 -30.5zM252 1153q-43 0 -74 30.5t-31 73.5q0 41 31 72t74 31q41 0 71.5 -31t30.5 -72q0 -43 -30.5 -73.5t-71.5 -30.5zM469 1257q0 41 30.5 72t71.5 31q42 0 72.5 -30.5
t30.5 -72.5q0 -43 -30 -73.5t-73 -30.5q-41 0 -71.5 30.5t-30.5 73.5zM737 160h115v-160h-182q-133 0 -226 115q-86 -115 -243 -115h-205l-70 27v106l70 27h207q82 0 123 47.5t41 124.5v637h159v-637q0 -71 62.5 -121.5t148.5 -50.5z" />
    <glyph glyph-name="uniFE9E" unicode="&#x62c;" horiz-adv-x="1449" arabic-form="final" 
d="M1350 160h118v-160h-903q-137 0 -222 -76t-85 -207q0 -83 42 -151t116 -109t167 -59t202 -3t214 62v-149q-107 -50 -218 -69t-209 -7.5t-185.5 51t-150.5 101t-99.5 147.5t-36.5 186q0 197 130.5 320t332.5 123h541q-14 11 -33.5 45t-35 69t-43.5 100.5t-46 104.5
q-84 181 -194 280t-236 112.5t-270 -44.5v146q103 40 202.5 47t195 -22t181 -91.5t161 -166.5t134.5 -242q39 -96 69.5 -159t49.5 -97t40.5 -51.5t33 -21t37.5 -7.5v-2zM586 -276q0 41 30.5 71.5t71.5 30.5q42 0 72.5 -30t30.5 -72q0 -43 -30 -73t-73 -30q-42 0 -72 30.5
t-30 72.5z" />
    <glyph glyph-name="uniFE9F" unicode="&#x62c;" horiz-adv-x="1325" arabic-form="initial" 
d="M981 498q33 -81 58 -137.5t46.5 -92.5t34.5 -56t31.5 -31t27.5 -13.5t31 -5.5v-162h-1212l-70 27v106l70 27h967q-14 11 -33.5 45t-35 69t-43.5 100.5t-46 104.5q-126 273 -300 357t-401 -9v146q102 40 201.5 47t195 -22t181 -91.5t162 -166.5t135.5 -242zM551 -182
q41 0 71.5 -31t30.5 -72t-30.5 -71.5t-71.5 -30.5t-71.5 30.5t-30.5 71.5t30.5 72t71.5 31z" />
    <glyph glyph-name="uniFEA0" unicode="&#x62c;" horiz-adv-x="1327" arabic-form="medial" 
d="M1210 160h123v-160h-1335l-70 27v106l70 27h967q-14 11 -33.5 45t-35 69t-43.5 100.5t-46 104.5q-126 273 -300 357t-401 -9v146q102 40 201.5 47t195 -22t181 -91.5t162 -166.5t135.5 -242q33 -81 58 -137.5t46.5 -92.5t34.5 -56t31.5 -31t27.5 -13.5t31 -5.5v-2z
M569 -182q41 0 72 -31t31 -72t-31 -71.5t-72 -30.5q-43 0 -73.5 30.5t-30.5 71.5t30.5 72t73.5 31z" />
    <glyph glyph-name="uniFEA2" unicode="&#x62d;" horiz-adv-x="1488" arabic-form="final" 
d="M1384 160h119v-160h-938q-137 0 -222 -76t-85 -207q0 -83 42 -151t116 -109t167 -59t202 -3t214 62v-149q-107 -50 -218 -69t-209 -7.5t-185.5 51t-150.5 101t-99.5 147.5t-36.5 186q0 197 130.5 320t332.5 123h594q-14 5 -29.5 23.5t-36 58t-33 65t-40 88t-37.5 84.5
q-85 181 -195 280t-236.5 112.5t-270.5 -44.5v146q103 40 202.5 47t195.5 -22t181.5 -91.5t161.5 -166.5t135 -242q26 -64 44 -107.5t35.5 -81t27.5 -59t24.5 -39t21.5 -25t22.5 -13.5t24 -7.5t29.5 -3.5v-2z" />
    <glyph glyph-name="uniFEA3" unicode="&#x62d;" horiz-adv-x="1325" arabic-form="initial" 
d="M981 498q33 -81 58 -137.5t46.5 -92.5t34.5 -56t31.5 -31t27.5 -13.5t31 -5.5v-162h-1212l-70 27v106l70 27h967q-14 11 -33.5 45t-35 69t-43.5 100.5t-46 104.5q-126 273 -300 357t-401 -9v146q102 40 201.5 47t195 -22t181 -91.5t162 -166.5t135.5 -242z" />
    <glyph glyph-name="uniFEA4" unicode="&#x62d;" horiz-adv-x="1333" arabic-form="medial" 
d="M1217 160h122v-160h-1335l-70 27v106l70 27h967q-14 11 -33.5 45t-35 69t-43.5 100.5t-46 104.5q-126 273 -299.5 357t-400.5 -9v146q102 40 201.5 47t194.5 -22t180.5 -91.5t162 -166.5t135.5 -242q39 -96 69.5 -159t49.5 -97t40.5 -51.5t33 -21t37.5 -7.5v-2z" />
    <glyph glyph-name="uniFEA6" unicode="&#x62e;" horiz-adv-x="1454" arabic-form="final" 
d="M537 1237q-43 0 -74 30.5t-31 73.5q0 41 31 72t74 31q41 0 70.5 -30.5t29.5 -72.5q0 -43 -29.5 -73.5t-70.5 -30.5zM1384 160h119v-160h-938q-137 0 -222 -76t-85 -207q0 -83 42 -151t116 -109t167 -59t202 -3t214 62v-149q-107 -50 -218 -69t-209 -7.5t-185.5 51
t-150.5 101t-99.5 147.5t-36.5 186q0 197 130.5 320t332.5 123h594q-14 5 -29.5 23.5t-36 58t-33 65t-40 88t-37.5 84.5q-85 181 -195 280t-236.5 112.5t-270.5 -44.5v146q103 40 202.5 47t195.5 -22t181.5 -91.5t161.5 -166.5t135 -242q26 -64 44 -107.5t35.5 -81t27.5 -59
t24.5 -39t21.5 -25t22.5 -13.5t24 -7.5t29.5 -3.5v-2z" />
    <glyph glyph-name="uniFEA7" unicode="&#x62e;" horiz-adv-x="1325" arabic-form="initial" 
d="M367 1171q-42 0 -73.5 31.5t-31.5 73.5q0 41 31.5 71.5t73.5 30.5q41 0 71.5 -30.5t30.5 -71.5q0 -43 -30.5 -74t-71.5 -31zM981 498q33 -81 58 -137.5t46.5 -92.5t34.5 -56t31.5 -31t27.5 -13.5t31 -5.5v-162h-1212l-70 27v106l70 27h967q-14 11 -33.5 45t-35 69
t-43.5 100.5t-46 104.5q-126 273 -300 357t-401 -9v146q102 40 201.5 47t195 -22t181 -91.5t162 -166.5t135.5 -242z" />
    <glyph glyph-name="uniFEA8" unicode="&#x62e;" horiz-adv-x="1333" arabic-form="medial" 
d="M373 1171q-41 0 -72 31t-31 74q0 41 31 71.5t72 30.5t71.5 -30.5t30.5 -71.5q0 -43 -30.5 -74t-71.5 -31zM1217 160h122v-160h-1335l-70 27v106l70 27h967q-14 11 -33.5 45t-35 69t-43.5 100.5t-46 104.5q-126 273 -299.5 357t-400.5 -9v146q102 40 201.5 47t194.5 -22
t180.5 -91.5t162 -166.5t135.5 -242q39 -96 69.5 -159t49.5 -97t40.5 -51.5t33 -21t37.5 -7.5v-2z" />
    <glyph glyph-name="uniFEAA" unicode="&#x62f;" horiz-adv-x="1128" arabic-form="final" 
d="M915 160h228v-160h-1043v160h656v438q0 120 -76.5 196t-196.5 76h-217v160h217q186 0 309 -123.5t123 -308.5v-438z" />
    <glyph glyph-name="uniFEAC" unicode="&#x630;" horiz-adv-x="1128" arabic-form="final" 
d="M494 1245q-42 0 -72.5 30.5t-30.5 72.5q0 41 31 71.5t72 30.5q42 0 72 -30t30 -72q0 -43 -29.5 -73t-72.5 -30zM915 160h228v-160h-1043v160h656v438q0 120 -76.5 196t-196.5 76h-202v160h202q186 0 309 -123.5t123 -308.5v-438z" />
    <glyph glyph-name="uniFEAE" unicode="&#x631;" horiz-adv-x="675" arabic-form="final" 
d="M696 160v-160h-204v-45q0 -177 -118.5 -294.5t-295.5 -117.5h-103v158h103q111 0 182.5 71t71.5 183v1026h160v-821h204z" />
    <glyph glyph-name="uniFEB0" unicode="&#x632;" horiz-adv-x="684" arabic-form="final" 
d="M408 1167q-42 0 -72.5 30.5t-30.5 72.5q0 41 31 71.5t72 30.5t71.5 -30.5t30.5 -71.5q0 -42 -30 -72.5t-72 -30.5zM696 160v-160h-204v-45q0 -177 -118.5 -294.5t-295.5 -117.5h-103v158h103q111 0 182.5 71t71.5 183v1026h160v-821h204z" />
    <glyph glyph-name="uniFEB2" unicode="&#x633;" horiz-adv-x="2631" arabic-form="final" 
d="M2497 160h149v-160h-152q-63 0 -113.5 28.5t-78.5 80.5q-38 -56 -85.5 -82.5t-125.5 -26.5h-158q-63 0 -113 31.5t-75 72.5q-61 -104 -205 -104q-86 0 -160 18q-80 12 -123 74v-65q0 -163 -74.5 -294.5t-206 -205.5t-294.5 -74h-6q-122 0 -228.5 43.5t-182.5 119.5
t-119.5 182.5t-43.5 228.5v417h160v-417q0 -183 115.5 -298.5t298.5 -115.5h6q183 0 300.5 115.5t117.5 298.5v792h157v-549q9 -54 44.5 -82t84.5 -28h125q59 0 97.5 40t38.5 99v520h155v-520q0 -59 40 -99t102 -40h129q58 0 91.5 39t33.5 100v690h155v-690
q0 -60 39.5 -99.5t104.5 -39.5z" />
    <glyph glyph-name="uniFEB3" unicode="&#x633;" horiz-adv-x="1671" arabic-form="initial" 
d="M1346 1020h159v-680q0 -141 -100 -240.5t-240 -99.5q-197 0 -282 115q-42 -57 -118 -87t-159 -30q-170 0 -262 115q-40 -52 -103.5 -82.5t-134.5 -30.5h-108l-70 27v106l70 27h117q65 0 108 43t43 108v508h158v-508q0 -72 46 -112t138 -43q87 -1 141 42t54 113v508h160
v-508q0 -71 52.5 -111t149.5 -40q74 0 127.5 52.5t53.5 127.5v680z" />
    <glyph glyph-name="uniFEB4" unicode="&#x633;" horiz-adv-x="1806" arabic-form="medial" 
d="M1661 160h151v-160h-151q-62 0 -114 28.5t-81 80.5q-38 -56 -85.5 -82.5t-125.5 -26.5h-182q-63 0 -113 31.5t-75 72.5q-61 -104 -211 -104h-168q-68 0 -120.5 33t-74.5 80q-30 -53 -86.5 -83t-158.5 -30h-62l-70 27v106l70 27h43q86 0 125 38t39 101v520h158l2 -520
q0 -68 37 -103.5t92 -35.5h151q59 0 97 40t38 99v520h156v-520q0 -59 39.5 -99t101.5 -40h156q58 0 90.5 39t32.5 100v696h156v-696q0 -59 40 -99t103 -40z" />
    <glyph glyph-name="uniFEB6" unicode="&#x634;" horiz-adv-x="2631" arabic-form="final" 
d="M1681 1290q-43 0 -73.5 31t-30.5 74q0 41 30.5 71.5t73.5 30.5q41 0 72 -30.5t31 -71.5q0 -43 -31 -74t-72 -31zM1522 1042q-43 0 -74 31t-31 74q0 41 31 71.5t74 30.5q41 0 70.5 -30.5t29.5 -71.5q0 -43 -29.5 -74t-70.5 -31zM1739 1147q0 41 30.5 71.5t71.5 30.5
q43 0 73 -30.5t30 -71.5q0 -43 -30 -74t-73 -31q-41 0 -71.5 31t-30.5 74zM2497 160h149v-160h-152q-63 0 -113.5 28.5t-78.5 80.5q-38 -56 -85.5 -82.5t-125.5 -26.5h-158q-63 0 -113 31.5t-75 72.5q-61 -104 -205 -104q-86 0 -160 18q-80 12 -123 74v-65
q0 -163 -74.5 -294.5t-206 -205.5t-294.5 -74h-6q-122 0 -228.5 43.5t-182.5 119.5t-119.5 182.5t-43.5 228.5v417h160v-417q0 -183 115.5 -298.5t298.5 -115.5h6q183 0 300.5 115.5t117.5 298.5v792h157v-549q9 -54 44.5 -82t84.5 -28h125q59 0 97.5 40t38.5 99v520h155
v-520q0 -59 40 -99t102 -40h129q58 0 91.5 39t33.5 100v690h155v-690q0 -60 39.5 -99.5t104.5 -39.5z" />
    <glyph glyph-name="uniFEB7" unicode="&#x634;" horiz-adv-x="1671" arabic-form="initial" 
d="M866 1329q-41 0 -71.5 31t-30.5 72t30.5 71.5t71.5 30.5t72 -30.5t31 -71.5t-31 -72t-72 -31zM707 1081q-42 0 -73.5 31.5t-31.5 73.5q0 41 31.5 71.5t73.5 30.5q41 0 71.5 -30.5t30.5 -71.5q0 -43 -30.5 -74t-71.5 -31zM924 1186q0 41 30.5 71.5t73.5 30.5
q41 0 71.5 -30.5t30.5 -71.5q0 -43 -30.5 -74t-71.5 -31q-43 0 -73.5 31t-30.5 74zM1346 1020h159v-680q0 -141 -100 -240.5t-240 -99.5q-197 0 -282 115q-42 -57 -118 -87t-159 -30q-170 0 -262 115q-40 -52 -103.5 -82.5t-134.5 -30.5h-108l-70 27v106l70 27h117
q65 0 108 43t43 108v508h158v-508q0 -72 46 -112t138 -43q87 -1 141 42t54 113v508h160v-508q0 -71 52.5 -111t149.5 -40q74 0 127.5 52.5t53.5 127.5v680z" />
    <glyph glyph-name="uniFEB8" unicode="&#x634;" horiz-adv-x="1806" arabic-form="medial" 
d="M862 1329q-41 0 -71.5 31t-30.5 72t30.5 71.5t71.5 30.5t72 -30.5t31 -71.5t-31 -72t-72 -31zM702 1081q-42 0 -73 31.5t-31 73.5q0 41 31.5 71.5t72.5 30.5t72 -30.5t31 -71.5q0 -43 -31 -74t-72 -31zM920 1186q0 41 30.5 71.5t73.5 30.5q41 0 71.5 -30.5t30.5 -71.5
q0 -43 -30.5 -74t-71.5 -31q-43 0 -73.5 31t-30.5 74zM1661 160h151v-160h-151q-62 0 -114 28.5t-81 80.5q-38 -56 -85.5 -82.5t-125.5 -26.5h-182q-63 0 -113 31.5t-75 72.5q-61 -104 -211 -104h-168q-68 0 -120.5 33t-74.5 80q-30 -53 -86.5 -83t-158.5 -30h-62l-70 27
v106l70 27h43q86 0 125 38t39 101v520h158l2 -520q0 -68 37 -103.5t92 -35.5h151q59 0 97 40t38 99v520h156v-520q0 -59 39.5 -99t101.5 -40h156q58 0 90.5 39t32.5 100v696h156v-696q0 -59 40 -99t103 -40z" />
    <glyph glyph-name="uniFEBA" unicode="&#x635;" horiz-adv-x="2494" arabic-form="final" 
d="M2314 160h195v-160h-1256q-9 -237 -171.5 -392t-403.5 -155h-8q-121 0 -227 43.5t-181.5 119t-118.5 182t-43 227.5v419h158v-419q0 -181 115 -296.5t297 -115.5h8q183 0 300.5 115.5t117.5 296.5v876h157v-233q308 338 580 338q242 0 361.5 -134t119.5 -430v-282z
M2161 160v282q0 216 -89 312t-253 96q-136 0 -280.5 -89t-285.5 -249v-354z" />
    <glyph glyph-name="uniFEBB" unicode="&#x635;" horiz-adv-x="1613" arabic-form="initial" 
d="M979 1006q481 0 481 -535q0 -128 -63 -236.5t-171 -171.5t-235 -63l-1005 2v158h237v741h158v-248q321 353 598 353zM983 160q134 0 228 94t94 227q0 196 -87.5 281.5t-252.5 85.5q-140 0 -289.5 -95t-294.5 -264v-329h602z" />
    <glyph glyph-name="uniFEBC" unicode="&#x635;" horiz-adv-x="1527" arabic-form="medial" 
d="M1405 160h135v-160h-1542l-68 27v106l68 27h168v741h158v-258q317 363 598 363q242 0 362.5 -135t120.5 -431v-280zM1249 160v280q0 217 -88.5 312.5t-251.5 95.5q-141 0 -290 -95.5t-295 -265.5v-327h925z" />
    <glyph glyph-name="uniFEBE" unicode="&#x636;" horiz-adv-x="2494" arabic-form="final" 
d="M1800 1182q-43 0 -73.5 30.5t-30.5 73.5q0 42 31 72.5t73 30.5q41 0 72 -31t31 -72q0 -42 -30.5 -73t-72.5 -31zM2314 160h195v-160h-1256q-9 -237 -171.5 -392t-403.5 -155h-8q-121 0 -227 43.5t-181.5 119t-118.5 182t-43 227.5v419h158v-419q0 -181 115 -296.5
t297 -115.5h8q183 0 300.5 115.5t117.5 296.5v876h157v-233q308 338 580 338q242 0 361.5 -134t119.5 -430v-282zM2161 160v282q0 216 -89 312t-253 96q-136 0 -280.5 -89t-285.5 -249v-354z" />
    <glyph glyph-name="uniFEBF" unicode="&#x636;" horiz-adv-x="1613" arabic-form="initial" 
d="M983 1167q-43 0 -73.5 30t-30.5 73q0 41 30.5 71.5t73.5 30.5q41 0 71.5 -30.5t30.5 -71.5q0 -42 -30.5 -72.5t-71.5 -30.5zM979 1006q481 0 481 -535q0 -128 -63 -236.5t-171 -171.5t-235 -63l-1005 2v158h237v741h158v-248q321 353 598 353zM983 160q134 0 228 94
t94 227q0 196 -87.5 281.5t-252.5 85.5q-140 0 -289.5 -95t-294.5 -264v-329h602z" />
    <glyph glyph-name="uniFEC0" unicode="&#x636;" horiz-adv-x="1527" arabic-form="medial" 
d="M915 1155q-41 0 -71.5 30.5t-30.5 71.5q0 42 30.5 73.5t71.5 31.5q42 0 72.5 -31.5t30.5 -73.5q0 -41 -30 -71.5t-73 -30.5zM1405 160h135v-160h-1542l-68 27v106l68 27h168v741h158v-258q317 363 598 363q242 0 362.5 -135t120.5 -431v-280zM1249 160v280
q0 217 -88.5 312.5t-251.5 95.5q-141 0 -290 -95.5t-295 -265.5v-327h925z" />
    <glyph glyph-name="uniFEC2" unicode="&#x637;" horiz-adv-x="1736" arabic-form="final" 
d="M1567 160h184v-160h-1651v160h228v1265h157v-780q319 361 598 361q242 0 363 -135t121 -431v-280zM1411 160v280q0 217 -88.5 312.5t-251.5 95.5q-141 0 -290.5 -95.5t-295.5 -265.5v-327h926z" />
    <glyph glyph-name="uniFEC3" unicode="&#x637;" horiz-adv-x="1603" arabic-form="initial" 
d="M977 1006q235 0 358 -134.5t123 -386.5q0 -132 -65 -243.5t-176.5 -176.5t-243.5 -65h-981v160h229v1265h158v-774q323 355 598 355zM991 160q129 0 220.5 91.5t91.5 221.5q0 192 -89.5 283.5t-250.5 91.5q-140 0 -289.5 -95.5t-294.5 -265.5v-327h612z" />
    <glyph glyph-name="uniFEC4" unicode="&#x637;" horiz-adv-x="1695" arabic-form="medial" 
d="M1464 160h244v-160h-1710l-68 27v106l68 27h227v1265h158v-780q319 361 598 361q242 0 362.5 -135t120.5 -431v-280zM1309 160v280q0 217 -88.5 312.5t-251.5 95.5q-141 0 -290.5 -95.5t-295.5 -265.5v-327h926z" />
    <glyph glyph-name="uniFEC6" unicode="&#x638;" horiz-adv-x="1740" arabic-form="final" 
d="M1567 160h184v-160h-1651v160h228v1265h157v-780q319 361 598 361q242 0 363 -135t121 -431v-280zM1077 1180q-41 0 -71.5 30.5t-30.5 73.5q0 41 30.5 71.5t71.5 30.5q43 0 73 -30t30 -72q0 -43 -30 -73.5t-73 -30.5zM1411 160v280q0 217 -88.5 312.5t-251.5 95.5
q-141 0 -290.5 -95.5t-295.5 -265.5v-327h926z" />
    <glyph glyph-name="uniFEC7" unicode="&#x638;" horiz-adv-x="1603" arabic-form="initial" 
d="M977 1006q235 0 358 -134.5t123 -386.5q0 -132 -65 -243.5t-176.5 -176.5t-243.5 -65h-981v160h229v1265h158v-774q323 355 598 355zM979 1174q-43 0 -74 30.5t-31 71.5q0 42 31 73t74 31q41 0 70.5 -31t29.5 -73q0 -41 -29.5 -71.5t-70.5 -30.5zM991 160
q129 0 220.5 91.5t91.5 221.5q0 192 -89.5 283.5t-250.5 91.5q-140 0 -289.5 -95.5t-294.5 -265.5v-327h612z" />
    <glyph glyph-name="uniFEC8" unicode="&#x638;" horiz-adv-x="1695" arabic-form="medial" 
d="M1464 160h244v-160h-1710l-68 27v106l68 27h227v1265h158v-780q319 361 598 361q242 0 362.5 -135t120.5 -431v-280zM975 1174q-41 0 -72 30.5t-31 71.5t31 72.5t72 31.5q42 0 72 -31t30 -73t-30 -72t-72 -30zM1309 160v280q0 217 -88.5 312.5t-251.5 95.5
q-141 0 -290.5 -95.5t-295.5 -265.5v-327h926z" />
    <glyph glyph-name="uniFECA" unicode="&#x639;" horiz-adv-x="1251" arabic-form="final" 
d="M131 -279q0 93 27.5 171t82.5 141t119.5 111.5t155.5 99.5l-387 557v110q257 113 500 113q221 0 338 -99.5t82 -267.5q-25 -129 -92 -227t-193 -205q62 -65 164 -65h334v-160h-367q-90 0 -152.5 32.5t-117.5 94.5q-25 -17 -74.5 -46.5t-78.5 -48t-68 -52.5t-60.5 -67
t-37 -83t-15.5 -109q0 -136 119 -210t299 -68.5t358 84.5v-148q-108 -51 -221.5 -74.5t-216 -19.5t-194.5 35.5t-159 85t-106 135t-39 180.5zM301 803v-10l334 -488q244 220 244 416q0 71 -60.5 114t-148.5 50.5t-189 -13.5t-180 -69z" />
    <glyph glyph-name="uniFECB" unicode="&#x639;" horiz-adv-x="1007" arabic-form="initial" 
d="M643 160h328v-160h-973l-70 27v106l70 27h254q-141 119 -141 354q0 124 33.5 223t91 161t133.5 100t162 48t175.5 -2t174.5 -45v-147q-112 45 -217 49t-189.5 -32.5t-136 -128.5t-51.5 -230q0 -102 27 -172.5t77.5 -108.5t111 -53.5t140.5 -15.5z" />
    <glyph glyph-name="uniFECC" unicode="&#x639;" horiz-adv-x="1226" arabic-form="medial" 
d="M954 160h285v-160h-375q-161 0 -252 119q-131 -119 -274 -119h-342v2l-66 25v106l66 25v2h305q47 0 120 19t109 50l-380 557v125q253 113 475 113q197 0 314.5 -78t117.5 -213q0 -58 -23 -123q-20 -63 -48 -115.5t-69 -102.5t-71 -81.5t-86 -85.5q77 -65 194 -65z
M631 305q61 62 93 98.5t71.5 99.5t62.5 132q16 47 16 86q0 72 -64 112.5t-189 40.5q-166 0 -324 -71v-10z" />
    <glyph glyph-name="uniFECE" unicode="&#x63a;" horiz-adv-x="1251" arabic-form="final" 
d="M578 1225q-42 0 -72.5 30.5t-30.5 73.5q0 41 31 72t72 31t71.5 -31t30.5 -72q0 -43 -30.5 -73.5t-71.5 -30.5zM131 -279q0 93 27.5 171t82.5 141t119.5 111.5t155.5 99.5l-387 557v110q257 113 500 113q221 0 338 -99.5t82 -267.5q-25 -129 -92 -227t-193 -205
q62 -65 164 -65h334v-160h-367q-90 0 -152.5 32.5t-117.5 94.5q-25 -17 -74.5 -46.5t-78.5 -48t-68 -52.5t-60.5 -67t-37 -83t-15.5 -109q0 -136 119 -210t299 -68.5t358 84.5v-148q-108 -51 -221.5 -74.5t-216 -19.5t-194.5 35.5t-159 85t-106 135t-39 180.5zM301 803v-10
l334 -488q244 220 244 416q0 71 -60.5 114t-148.5 50.5t-189 -13.5t-180 -69z" />
    <glyph glyph-name="uniFECF" unicode="&#x63a;" horiz-adv-x="1007" arabic-form="initial" 
d="M551 1229q-43 0 -74 30.5t-31 73.5q0 41 31 72t74 31q41 0 70.5 -30.5t29.5 -72.5q0 -43 -29.5 -73.5t-70.5 -30.5zM643 160h328v-160h-973l-70 27v106l70 27h254q-141 119 -141 354q0 124 33.5 223t91 161t133.5 100t162 48t175.5 -2t174.5 -45v-147q-112 45 -217 49
t-189.5 -32.5t-136 -128.5t-51.5 -230q0 -102 27 -172.5t77.5 -108.5t111 -53.5t140.5 -15.5z" />
    <glyph glyph-name="uniFED0" unicode="&#x63a;" horiz-adv-x="1226" arabic-form="medial" 
d="M575 1225q-43 0 -73.5 30.5t-30.5 73.5q0 41 30.5 72t73.5 31q41 0 72 -31t31 -72q0 -43 -31 -73.5t-72 -30.5zM954 160h285v-160h-375q-161 0 -252 119q-131 -119 -274 -119h-342v2l-66 25v106l66 25v2h305q47 0 120 19t109 50l-380 557v125q253 113 475 113
q197 0 314.5 -78t117.5 -213q0 -58 -23 -123q-20 -63 -48 -115.5t-69 -102.5t-71 -81.5t-86 -85.5q77 -65 194 -65zM631 305q61 62 93 98.5t71.5 99.5t62.5 132q16 47 16 86q0 72 -64 112.5t-189 40.5q-166 0 -324 -71v-10z" />
    <glyph glyph-name="uniFED2" unicode="&#x641;" horiz-adv-x="1859" arabic-form="final" 
d="M1212 1233q-43 0 -73.5 30.5t-30.5 71.5t31 72t73 31q41 0 72 -31t31 -72t-31 -71.5t-72 -30.5zM1520 160h350v-160h-1381q-115 1 -208 55t-146 148t-53 209v266h160v-266q0 -110 71 -181t181 -71h413q-57 44 -90 112t-33 146v196q0 183 116 299.5t314 116.5
q199 0 313.5 -115t114.5 -301v-196q0 -78 -33 -146.5t-89 -111.5zM1485 418v196q0 115 -70.5 185.5t-195.5 70.5q-135 0 -205 -68t-70 -188v-196q0 -106 77.5 -182t184.5 -76q131 0 205 73.5t74 184.5z" />
    <glyph glyph-name="uniFED3" unicode="&#x641;" horiz-adv-x="1101" arabic-form="initial" 
d="M553 1225q-38 0 -67.5 28t-30.5 68q-3 43 27.5 76t74.5 33q41 0 70.5 -29.5t31.5 -71.5q0 -43 -31 -74t-75 -30zM561 1032q173 0 294.5 -121.5t121.5 -296.5v-223q0 -161 -114 -275t-277 -114h-586l-70 25v108l70 27h248q-56 44 -89.5 111.5t-33.5 144.5v196
q0 175 120.5 296.5t295.5 121.5h20zM817 408v206q0 109 -73.5 183.5t-182.5 74.5h-20q-109 0 -182.5 -74.5t-73.5 -183.5v-196q0 -106 71.5 -181t171.5 -75h43q102 0 174 72t72 174z" />
    <glyph glyph-name="uniFED4" unicode="&#x641;" horiz-adv-x="1163" arabic-form="medial" 
d="M584 1217q-43 0 -74 30.5t-31 71.5t31 71.5t74 30.5q41 0 71.5 -30.5t30.5 -71.5t-30.5 -71.5t-71.5 -30.5zM899 160h299v-160h-1235l-67 27v106l67 27h324q-57 44 -90 112t-33 146v196q0 183 115.5 299.5t312.5 116.5q200 0 315 -115t115 -301v-196q0 -77 -33.5 -145.5
t-89.5 -112.5zM862 418v196q0 115 -69.5 185.5t-194.5 70.5q-135 0 -205.5 -68t-70.5 -188v-196q0 -106 77.5 -182t186.5 -76q131 0 203.5 73.5t72.5 184.5z" />
    <glyph glyph-name="uniFED6" unicode="&#x642;" horiz-adv-x="1595" arabic-form="final" 
d="M885 1157q-42 0 -73.5 31.5t-31.5 73.5q0 41 31.5 71.5t73.5 30.5q41 0 71.5 -30.5t30.5 -71.5q0 -43 -30.5 -74t-71.5 -31zM1217 1157q-41 0 -72 31t-31 74q0 41 31 71.5t72 30.5q42 0 72 -30t30 -72q0 -43 -30 -74t-72 -31zM1483 160h123v-160h-129
q-34 -259 -224 -423.5t-460 -164.5h-5q-146 0 -274 52.5t-218.5 143t-143 218.5t-52.5 274v232h160v-232q0 -230 149 -379t379 -149h5q214 0 353 117t169 311h-271q-175 0 -291 116.5t-116 291.5v213q0 173 116 289t291 116h31q175 0 291.5 -116t116.5 -289v-461zM797 408
q0 -109 69 -178.5t178 -69.5h279v461q0 107 -70 176t-178 69h-31q-109 0 -178 -69t-69 -176v-213z" />
    <glyph glyph-name="uniFED7" unicode="&#x642;" horiz-adv-x="1101" arabic-form="initial" 
d="M383 1225q-41 0 -71.5 30.5t-30.5 71.5q0 42 30.5 73.5t71.5 31.5t71.5 -31.5t30.5 -73.5q0 -41 -30.5 -71.5t-71.5 -30.5zM715 1225q-41 0 -72 30.5t-31 71.5t31 73t72 32q42 0 72 -31.5t30 -73.5t-30 -72t-72 -30zM561 1032q173 0 294.5 -121.5t121.5 -296.5v-223
q0 -161 -114 -275t-277 -114h-586l-70 25v108l70 27h248q-56 44 -89.5 111.5t-33.5 144.5v196q0 175 120.5 296.5t295.5 121.5h20zM817 408v206q0 109 -73.5 183.5t-182.5 74.5h-20q-109 0 -182.5 -74.5t-73.5 -183.5v-196q0 -106 71.5 -181t171.5 -75h43q102 0 174 72
t72 174z" />
    <glyph glyph-name="uniFED8" unicode="&#x642;" horiz-adv-x="1163" arabic-form="medial" 
d="M408 1214q-42 0 -72.5 30.5t-30.5 72.5q0 41 31 71.5t72 30.5q42 0 72 -30t30 -72q0 -43 -29.5 -73t-72.5 -30zM741 1214q-43 0 -73.5 30t-30.5 73q0 41 30.5 71.5t73.5 30.5q41 0 71 -30.5t30 -71.5q0 -43 -30 -73t-71 -30zM899 160h277v-160h-1180l-70 27v106l70 27
h291q-57 44 -90 112t-33 146v196q0 183 115.5 299.5t312.5 116.5q200 0 315 -115t115 -301v-196q0 -77 -33.5 -145.5t-89.5 -112.5zM862 418v196q0 115 -69.5 185.5t-194.5 70.5q-135 0 -205.5 -68t-70.5 -188v-196q0 -106 77.5 -182t186.5 -76q131 0 203.5 73.5t72.5 184.5
z" />
    <glyph glyph-name="uniFEDA" unicode="&#x643;" horiz-adv-x="1857" arabic-form="final" 
d="M1755 160h113v-160h-131q-67 0 -126 31t-102 84q-86 -115 -243 -115h-772q-177 0 -294.5 117.5t-117.5 294.5v346h160v-346q0 -110 71 -181t181 -71h772q81 0 123.5 47t42.5 123l-2 1095h161v-1040q0 -31 -2 -45v-8q0 -76 42 -124t124 -48zM1004 827v-88h-371v88h76
q-54 51 -54 129t44 124t120 46q73 0 119.5 -43.5t56.5 -132.5h-82q-17 88 -94 88q-39 0 -58.5 -21t-19.5 -69q0 -82 72 -121h191z" />
    <glyph glyph-name="uniFEDB" unicode="&#x643;" horiz-adv-x="1323" arabic-form="initial" 
d="M768 809q182 0 307 -125.5t125 -306.5q0 -155 -111 -266t-268 -111h-813l-69 27v106l69 27h803q97 0 163 68.5t66 166.5q0 114 -77.5 184t-194.5 70h-627l-16 66l381 710l125 -53l-279 -563h416z" />
    <glyph glyph-name="uniFEDC" unicode="&#x643;" horiz-adv-x="1398" arabic-form="medial" 
d="M1186 160h237v-160h-1439l-70 27v106l70 27h1044v217q0 120 -76.5 196t-197.5 76h-625l-18 29l383 747h159l-313 -616h414q186 0 309 -123t123 -309v-217z" />
    <glyph glyph-name="uniFEDE" unicode="&#x644;" horiz-adv-x="1505" arabic-form="final" 
d="M1509 160v-160h-256q-11 -237 -172.5 -392t-402.5 -155h-8q-121 0 -227 43.5t-181.5 119.5t-118.5 182.5t-43 228.5v417h158v-417q0 -183 115 -298.5t297 -115.5h8q183 0 299.5 115.5t116.5 298.5v1398h159v-1265h256z" />
    <glyph glyph-name="uniFEDF" unicode="&#x644;" horiz-adv-x="528" arabic-form="initial" 
d="M227 1425h160v-1214q0 -90 -60.5 -150.5t-150.5 -60.5h-178l-68 27v106l68 27h133q39 0 67.5 26.5t28.5 73.5v1165z" />
    <glyph glyph-name="uniFEE0" unicode="&#x644;" horiz-adv-x="624" arabic-form="medial" 
d="M565 160h72v-160h-94q-65 0 -124 30.5t-102 82.5q-84 -113 -241 -113h-80v2l-68 25v106l68 25v2h82q80 0 122 47t42 123l-2 1095h161v-1040q0 -31 -2 -45v-8q0 -76 42 -124t124 -48z" />
    <glyph glyph-name="uniFEE2" unicode="&#x645;" horiz-adv-x="1447" arabic-form="final" 
d="M1399 160h55v-160h-55q-86 0 -154 39.5t-104 107.5q-52 -84 -140.5 -132t-197.5 -48q-242 0 -375 148q-92 -4 -144.5 -59.5t-52.5 -143.5v-442h-159v442q0 140 85.5 238.5t221.5 115.5v344q0 183 120.5 303.5t303.5 120.5t303.5 -120.5t120.5 -303.5v-276
q0 -76 48.5 -125t123.5 -49zM803 127q117 0 190.5 73.5t73.5 190.5v219q0 117 -73.5 190.5t-190.5 73.5t-190.5 -73.5t-73.5 -190.5v-381q46 -55 106.5 -78.5t157.5 -23.5z" />
    <glyph glyph-name="uniFEE3" unicode="&#x645;" horiz-adv-x="1241" arabic-form="initial" 
d="M698 1032q180 0 298 -118.5t118 -297.5v-192q0 -171 -118 -293.5t-285 -122.5q-103 0 -195 37.5t-160 106.5q-39 -70 -109.5 -111t-158.5 -41h-90l-70 27v106l70 27h90q77 0 125.5 49t48.5 127v280q0 178 119 297t297 119h20zM956 424v192q0 113 -72 184.5t-186 71.5h-20
q-114 0 -185 -71.5t-71 -184.5v-309q47 -66 123.5 -102.5t165.5 -36.5q100 0 172.5 75.5t72.5 180.5z" />
    <glyph glyph-name="uniFEE4" unicode="&#x645;" horiz-adv-x="1329" arabic-form="medial" 
d="M1282 160h68v-160h-68q-94 0 -167 46t-107 124q-53 -74 -133 -118t-173 -44q-103 0 -194.5 37.5t-159.5 106.5q-39 -70 -109.5 -111t-158.5 -41h-82l-70 27v106l70 27h82q77 0 125.5 49t48.5 127v280q0 178 119 297t297 119h20q180 0 298 -118.5t118 -297.5v-280
q0 -78 49.5 -127t126.5 -49zM702 168q100 0 173 75.5t73 180.5v192q0 112 -72.5 184t-185.5 72h-20q-114 0 -185 -71.5t-71 -184.5v-309q47 -66 123 -102.5t165 -36.5z" />
    <glyph glyph-name="uniFEE6" unicode="&#x646;" horiz-adv-x="1492" arabic-form="final" 
d="M625 942q-43 0 -74 30.5t-31 71.5t31 72t74 31q41 0 71.5 -31t30.5 -72t-30.5 -71.5t-71.5 -30.5zM1503 160v-160h-250q-1 -120 -45.5 -225t-120 -179.5t-182 -117.5t-227.5 -43h-8q-246 0 -408 162.5t-162 408.5v420h158v-420q0 -183 115 -297.5t297 -114.5h8
q183 0 299.5 114.5t116.5 297.5v971h159v-817h250z" />
    <glyph glyph-name="uniFEE7" unicode="&#x646;" horiz-adv-x="561" arabic-form="initial" 
d="M340 1118q-41 0 -71.5 31t-30.5 72t30.5 72.5t71.5 31.5t71.5 -31.5t30.5 -72.5t-30.5 -72t-71.5 -31zM-31 0v160h211q39 0 67.5 26.5t28.5 73.5v711h160v-760q0 -90 -60.5 -150.5t-150.5 -60.5h-256z" />
    <glyph glyph-name="uniFEE8" unicode="&#x646;" horiz-adv-x="622" arabic-form="medial" 
d="M311 1143q-41 0 -71.5 30.5t-30.5 71.5t30.5 72t71.5 31q42 0 72.5 -30.5t30.5 -72.5q0 -41 -30 -71.5t-73 -30.5zM571 160h72v-160h-92q-132 0 -225 115q-86 -115 -244 -115h-86l-70 27v106l70 27h88q82 0 123 47.5t41 124.5v637h160v-584q0 -31 -2 -47v-6
q0 -76 42 -124t123 -48z" />
    <glyph glyph-name="uniFEEA" unicode="&#x647;" horiz-adv-x="1200" arabic-form="final" 
d="M1153 160h51v-160h-51q-94 0 -168.5 42.5t-118.5 115.5q-127 -150 -336 -150q-167 0 -285 122.5t-118 293.5v192q0 179 118 297.5t296 118.5h438v-696q0 -78 48.5 -127t125.5 -49zM819 307v565h-278q-113 0 -184.5 -72t-71.5 -184v-192q0 -105 72.5 -180.5t172.5 -75.5
q88 0 165 36.5t124 102.5z" />
    <glyph glyph-name="uniFEEB" unicode="&#x647;" horiz-adv-x="1585" arabic-form="initial" 
d="M422 969q165 49 324 59t286 -16t224.5 -79t151 -133t54.5 -175v-224q0 -166 -117.5 -283.5t-283.5 -117.5h-1086l-69 27v106l69 27h316q-50 37 -79.5 98t-29.5 129v166q3 120 67.5 209t172.5 121v86zM1049 160q105 0 179.5 74.5t74.5 179.5v209q-1 74 -58.5 131.5
t-151.5 87.5t-216 37t-252 -21q140 -3 226.5 -86t86.5 -231v-381h111zM801 160v385q0 103 -62 165t-174 62q-121 0 -183.5 -60t-62.5 -167v-152q0 -93 67 -158.5t163 -74.5h252z" />
    <glyph glyph-name="uniFEEC" unicode="&#x647;" horiz-adv-x="1255" arabic-form="medial" 
d="M999 160h312v-160h-232v-86q0 -210 -111.5 -338.5t-316.5 -128.5q-199 0 -315.5 137.5t-116.5 352.5v63h-248l-69 27v106l69 27h248v372q0 217 127 358.5t322 141.5q207 0 328.5 -146t121.5 -397q0 -191 -119 -329zM369 516v-356h260q152 0 249 90.5t97 238.5
q0 191 -81 292.5t-224 101.5q-130 0 -215.5 -104.5t-85.5 -262.5zM651 -403q129 0 205 94t76 246v161q-132 -98 -303 -98h-260v-63q0 -154 74.5 -247t207.5 -93z" />
    <glyph glyph-name="uniFEEE" unicode="&#x648;" horiz-adv-x="1071" arabic-form="final" 
d="M1081 160v-160h-123v-92q0 -218 -175 -308t-515 -32v149q195 -28 313 -9t168 74.5t50 158.5v61h-293q-108 1 -200.5 57.5t-146 152t-53.5 206.5v196q0 179 118.5 298.5t297.5 119.5h21q179 0 297 -119.5t118 -298.5v-454h123zM510 162h289v452q0 114 -71.5 186t-184.5 72
h-21q-114 0 -185 -72t-71 -186v-196q0 -105 72 -180.5t172 -75.5z" />
    <glyph glyph-name="uniFEF0" unicode="&#x649;" horiz-adv-x="2029" arabic-form="final" 
d="M1819 160h221v-160h-379v866h-160q-107 0 -176.5 -70.5t-69.5 -177.5v-593q0 -163 -75 -294.5t-207 -205.5t-295 -74h-6q-246 0 -409 163.5t-163 410.5v417h158v-417q0 -183 115.5 -298.5t298.5 -115.5h6q183 0 300.5 115.5t117.5 298.5v593q0 175 116 291.5t289 116.5
h318v-866z" />
    <glyph glyph-name="uniFEF2" unicode="&#x64a;" horiz-adv-x="2029" arabic-form="final" 
d="M1819 160h221v-160h-379v866h-160q-107 0 -176.5 -70.5t-69.5 -177.5v-593q0 -163 -75 -294.5t-207 -205.5t-295 -74h-6q-246 0 -409 163.5t-163 410.5v417h158v-417q0 -183 115.5 -298.5t298.5 -115.5h6q183 0 300.5 115.5t117.5 298.5v593q0 175 116 291.5t289 116.5
h318v-866zM496 -664q41 0 71.5 -30.5t30.5 -71.5q0 -42 -30 -72t-72 -30q-43 0 -74 30t-31 72q0 41 31 71.5t74 30.5zM827 -664q41 0 71 -30.5t30 -71.5q0 -42 -30 -72t-71 -30q-43 0 -73.5 29.5t-30.5 72.5q0 41 30.5 71.5t73.5 30.5z" />
    <glyph glyph-name="uniFEF3" unicode="&#x64a;" horiz-adv-x="702" arabic-form="initial" 
d="M-25 0v160h318q41 0 68.5 26.5t27.5 73.5v711h160v-760q0 -91 -60 -151t-149 -60h-365zM147 -401q-42 0 -72 30t-30 72q0 41 30.5 71.5t71.5 30.5q43 0 73 -30.5t30 -71.5q0 -43 -30 -72.5t-73 -29.5zM479 -401q-42 0 -73 30t-31 72q0 41 31.5 71.5t72.5 30.5t72 -30.5
t31 -71.5q0 -42 -30.5 -72t-72.5 -30z" />
    <glyph glyph-name="uniFEF4" unicode="&#x64a;" horiz-adv-x="772" arabic-form="medial" 
d="M651 160h142v-160h-162q-67 0 -126 31t-102 84q-83 -115 -241 -115h-166l-70 27v106l70 27h168q80 0 121 46.5t43 121.5l-2 641h159v-637q0 -76 42.5 -124t123.5 -48zM215 -188q42 0 72 -30.5t30 -72.5q0 -43 -29.5 -73.5t-72.5 -30.5q-41 0 -71.5 30.5t-30.5 73.5
q0 41 30.5 72t71.5 31zM547 -188q41 0 71.5 -31t30.5 -72q0 -43 -30.5 -73.5t-71.5 -30.5t-72 30.5t-31 73.5q0 41 31 72t72 31z" />
    <glyph glyph-name=".notdef" horiz-adv-x="843" 
 />
    <glyph glyph-name=".null" 
 />
    <glyph glyph-name="nonmarkingreturn" horiz-adv-x="682" 
 />
    <glyph glyph-name="space" unicode=" " horiz-adv-x="382" 
 />
    <glyph glyph-name="exclam" unicode="!" horiz-adv-x="577" 
d="M356 422h-137l-12 967h162zM289 -12q-41 0 -70 28.5t-29 69.5t29 69.5t70 28.5q40 0 69 -28.5t29 -69.5t-29 -69.5t-69 -28.5z" />
    <glyph glyph-name="quotedbl" unicode="&#x22;" horiz-adv-x="700" 
d="M260 928h-115v477h115v-477zM553 928h-115v477h115v-477z" />
    <glyph glyph-name="numbersign" unicode="#" horiz-adv-x="1273" 
d="M768 391h-365l-63 -391h-123l64 391h-226l21 123h225l59 358h-229l25 125h225l63 389h125l-65 -389h364l64 389h123l-64 -389h228l-21 -125h-225l-62 -358h228l-21 -123h-225l-64 -391h-124zM788 514l60 358h-365l-57 -358h362z" />
    <glyph glyph-name="dollar" unicode="$" horiz-adv-x="1241" 
d="M573 -193v162q-207 11 -330 121.5t-130 296.5h166q9 -113 87 -184.5t209 -81.5l3 530l-66 21q-181 52 -273 142.5t-92 227.5q0 165 122 276.5t313 125.5l2 162h102v-162q188 -15 303 -127.5t121 -284.5h-168q-8 108 -77 178.5t-181 79.5l-2 -506l53 -16
q204 -52 299.5 -149t95.5 -244q-2 -173 -124.5 -283.5t-327.5 -122.5l-2 -162h-103zM580 811v483q-112 -10 -181 -76.5t-71 -164.5q0 -91 59.5 -146t192.5 -96zM678 121q126 10 200 79t74 175q0 92 -61.5 146.5t-210.5 101.5z" />
    <glyph glyph-name="percent" unicode="%" horiz-adv-x="2031" 
d="M516 559q-163 0 -250.5 125.5t-87.5 343.5q0 213 87.5 337t250.5 124q164 0 252 -123.5t88 -337.5q0 -218 -88 -343.5t-252 -125.5zM516 674q57 0 99.5 28.5t66.5 78.5t35.5 111.5t11.5 135.5q0 100 -19.5 174.5t-68.5 123t-125 48.5q-75 0 -123.5 -48.5t-68 -123
t-19.5 -174.5q0 -74 11.5 -135.5t35.5 -111.5t66 -78.5t98 -28.5zM1108 1370h152l-404 -1597h-149zM1528 -213q-163 0 -250.5 125t-87.5 344q0 213 87.5 336t250.5 123q164 0 252 -123t88 -336q0 -219 -87.5 -344t-252.5 -125zM1528 -98q76 0 125 50.5t68.5 126.5t19.5 177
q0 99 -19.5 173t-68.5 122.5t-125 48.5q-75 0 -123 -48.5t-67 -122.5t-19 -173q0 -75 11 -136t34.5 -111.5t65 -78.5t98.5 -28z" />
    <glyph glyph-name="ampersand" unicode="&#x26;" horiz-adv-x="1234" 
d="M539 -18q-191 0 -315 112.5t-124 274.5q-3 115 61 202.5t230 194.5l-8 10q-89 104 -129.5 183t-40.5 161q0 140 101 240t249 100q141 0 231.5 -92t90.5 -227q0 -93 -48 -172.5t-151 -155.5l-92 -68l332 -405q73 119 88 268l143 -2q-20 -232 -129 -383l186 -221h-180
l-110 133q0 -2 -13 -14q-67 -70 -166 -104.5t-206 -34.5zM600 907q58 42 95 98t46 109.5t-4.5 99.5t-59 74.5t-114.5 28.5q-86 0 -145.5 -58.5t-59.5 -140.5q0 -51 28.5 -100.5t125.5 -175.5zM479 664q-125 -95 -168 -151t-43 -132q0 -110 80.5 -183t200.5 -75
q167 3 276 121z" />
    <glyph glyph-name="quotesingle" unicode="'" horiz-adv-x="481" 
d="M354 1446q-12 -105 -44 -238.5t-60 -218.5h-105q3 15 23 108.5t35 179.5t24 167l11 76h129z" />
    <glyph glyph-name="parenleft" unicode="(" horiz-adv-x="704" 
d="M213 543q0 474 229 862h158q-104 -183 -162.5 -410t-58.5 -452q0 -224 58.5 -449.5t162.5 -410.5h-158q-229 388 -229 860z" />
    <glyph glyph-name="parenright" unicode=")" horiz-adv-x="704" 
d="M492 543q0 -469 -228 -860h-160q105 185 164.5 410.5t59.5 449.5q0 225 -59.5 451t-164.5 411h160q228 -394 228 -862z" />
    <glyph glyph-name="asterisk" unicode="*" horiz-adv-x="1060" 
d="M485 930l-268 -162l-51 90l274 150l-274 149l51 92l268 -164l-6 314h105l-9 -314l269 164l53 -92l-276 -149l276 -150l-53 -90l-269 162l9 -312h-105z" />
    <glyph glyph-name="plus" unicode="+" horiz-adv-x="1132" 
d="M973 616v-127h-342v-348l-127 2v346h-342v127h344v338h127v-338h340z" />
    <glyph glyph-name="comma" unicode="," horiz-adv-x="542" 
d="M354 109q-12 -105 -44 -238.5t-60 -218.5h-105q3 17 23 108.5t35 177t24 166.5l11 78h129z" />
    <glyph glyph-name="hyphen" unicode="-" horiz-adv-x="886" 
d="M725 489h-563v127h563v-127z" />
    <glyph glyph-name="period" unicode="." horiz-adv-x="536" 
d="M268 -6q-36 0 -61 25.5t-27 62.5q0 35 25.5 60.5t62.5 25.5q35 0 61.5 -25.5t26.5 -60.5q-2 -37 -27.5 -62.5t-60.5 -25.5z" />
    <glyph glyph-name="slash" unicode="/" horiz-adv-x="702" 
d="M223 -227h-149l401 1597h152z" />
    <glyph glyph-name="zero" unicode="0" horiz-adv-x="1298" 
d="M649 -27q-254 0 -390 195t-136 534q0 333 136 525t390 192t390.5 -192t136.5 -525q0 -339 -136.5 -534t-390.5 -195zM649 125q94 0 163 46.5t108 129t57 182t18 219.5q0 121 -18 219.5t-57 179t-108 125t-163 44.5q-76 0 -136 -30t-99 -81.5t-65 -124.5t-37 -155
t-11 -177q0 -120 18.5 -220t57.5 -182t108.5 -128.5t163.5 -46.5z" />
    <glyph glyph-name="one" unicode="1" horiz-adv-x="669" 
d="M362 -6l3 1237l-248 -164l-51 158l354 180h35h86v-1411h-179z" />
    <glyph glyph-name="two" unicode="2" horiz-adv-x="1083" 
d="M78 133q405 343 552.5 522t147.5 338q0 63 -18.5 112.5t-47.5 81t-69 52t-80 29t-82 8.5q-180 0 -368 -90l-35 127q217 106 438 106q204 0 322 -110t118 -293q0 -44 -4 -82t-17 -77.5t-25.5 -71.5t-41.5 -74.5t-52 -73.5t-70 -81t-83 -85.5t-103.5 -98t-118 -108
t-140.5 -125.5l680 -2v-143h-903v139z" />
    <glyph glyph-name="three" unicode="3" horiz-adv-x="1136" 
d="M653 725q173 -23 267 -121.5t94 -238.5q0 -191 -129 -291.5t-367 -100.5q-131 0 -248.5 27t-195.5 74v137q208 -94 424 -94q85 0 148.5 19t97.5 45.5t54 64.5t25.5 68t5.5 63q0 122 -91.5 186t-262.5 64h-174v137h166q147 0 236.5 75.5t89.5 186.5q0 32 -6 62.5t-25 66.5
t-50.5 62t-87 43.5t-128.5 17.5q-186 0 -367 -88l-39 129q196 100 436 100q205 0 325 -95t120 -275q0 -135 -88.5 -220.5t-229.5 -103.5z" />
    <glyph glyph-name="four" unicode="4" horiz-adv-x="1175" 
d="M915 502h185v-148h-185v-360h-178v360h-661v144l626 901h213v-897zM258 502h479l4 700z" />
    <glyph glyph-name="five" unicode="5" horiz-adv-x="1126" 
d="M317 885q349 -9 528 -123.5t179 -355.5q0 -193 -136 -313t-362 -120q-238 0 -434 107v141q184 -104 426 -104q154 0 241 78t87 208q0 176 -165 255.5t-523 84.5l28 656h756l-55 -144h-545z" />
    <glyph glyph-name="six" unicode="6" horiz-adv-x="1208" 
d="M645 938q203 0 321.5 -125.5t118.5 -355.5q0 -217 -130.5 -350.5t-336.5 -133.5q-111 0 -198 36.5t-142 97t-90.5 146t-50 176t-14.5 194.5q0 205 43.5 359t123.5 248.5t188.5 141.5t244.5 47q66 0 129 -10.5t94.5 -19.5t97.5 -31l-8 -131q-162 51 -311 51
q-80 0 -146.5 -25.5t-110.5 -70t-76.5 -97t-51.5 -114.5t-29 -113.5t-14 -103.5q66 88 156.5 136t191.5 48zM618 117q131 0 214 92.5t83 241.5q0 50 -7.5 95t-29 92t-54.5 81t-89 56t-129 22q-84 0 -166 -50t-139 -135q0 -86 7 -153t27 -133.5t54.5 -110.5t92.5 -71t136 -27
z" />
    <glyph glyph-name="seven" unicode="7" horiz-adv-x="962" 
d="M61 1399h840v-113l-545 -1292h-174l543 1263l-664 -2v144z" />
    <glyph glyph-name="eight" unicode="8" horiz-adv-x="1247" 
d="M786 733q79 -32 137.5 -66t106.5 -78.5t73 -102t25 -126.5q0 -189 -140 -288t-367 -99q-147 0 -258.5 39t-178.5 124t-67 208q0 243 340 373q-136 51 -218.5 136t-82.5 208q0 170 133.5 264t337.5 94q128 0 231 -39.5t166 -120t63 -190.5q0 -121 -76 -197t-225 -139z
M344 1059q0 -93 74 -155t223 -101q127 43 197.5 102t70.5 150q0 51 -18 91t-47 65t-67.5 41.5t-76.5 23t-77 6.5q-46 0 -91 -11t-89 -34.5t-71.5 -69.5t-27.5 -108zM621 111q156 0 237.5 64t81.5 179q0 47 -21 88t-50.5 68.5t-79.5 54.5t-89.5 43t-99.5 37
q-301 -97 -301 -285q0 -118 82 -183.5t240 -65.5z" />
    <glyph glyph-name="nine" unicode="9" horiz-adv-x="1208" 
d="M590 1419q111 0 198 -36t142 -96t90.5 -145.5t50 -176t14.5 -195.5q0 -205 -43.5 -359t-123.5 -249t-188.5 -142t-244.5 -47q-97 0 -168 13.5t-153 40.5v133q192 -47 319 -47q69 0 128.5 20t101.5 52t76 78t55 92.5t36.5 100.5t23 97.5t11.5 87.5q-66 -89 -158 -137.5
t-194 -48.5q-202 0 -321 126t-119 355q0 217 130.5 350t336.5 133zM602 594q85 0 166 50t139 136q0 87 -7 154t-27 134t-54.5 110.5t-92 70.5t-136.5 27q-131 0 -213 -92.5t-82 -241.5q0 -49 7.5 -94t28.5 -93t54 -82.5t89 -56.5t128 -22z" />
    <glyph glyph-name="colon" unicode=":" horiz-adv-x="536" 
d="M268 729q-41 0 -69.5 28.5t-28.5 69.5q0 40 28.5 69.5t69.5 29.5q40 0 69.5 -29.5t29.5 -69.5q0 -41 -29.5 -69.5t-69.5 -28.5zM268 25q-41 0 -69.5 29t-28.5 69q0 41 28.5 69.5t69.5 28.5q40 0 69.5 -28.5t29.5 -69.5q0 -40 -29.5 -69t-69.5 -29z" />
    <glyph glyph-name="semicolon" unicode=";" horiz-adv-x="542" 
d="M319 774q-46 0 -78 32.5t-32 78.5t32 78t78 32q45 0 78 -32.5t33 -77.5t-33 -78t-78 -33zM373 336q-12 -91 -54.5 -266t-46.5 -193h-110q7 37 30 145t37 183.5t21 134.5l10 68h123z" />
    <glyph glyph-name="less" unicode="&#x3c;" horiz-adv-x="1288" 
d="M207 862l874 469v-166l-694 -377v-8l694 -377v-165l-874 469v155z" />
    <glyph glyph-name="equal" unicode="=" horiz-adv-x="1132" 
d="M973 489h-811v127h811v-127zM973 141h-811v127h811v-127z" />
    <glyph glyph-name="greater" unicode="&#x3e;" horiz-adv-x="1288" 
d="M209 238v165l694 377v8l-694 377v166l872 -469v-155z" />
    <glyph glyph-name="question" unicode="?" horiz-adv-x="1030" 
d="M403 487q0 115 39 182t136 134q93 65 132.5 117t39.5 118q0 100 -70 166t-172 66q-109 0 -182.5 -73t-73.5 -183h-152q1 117 55.5 206t146.5 135t206 46q175 0 290 -97.5t115 -256.5q0 -97 -49 -168.5t-159 -147.5q-91 -61 -125.5 -112.5t-34.5 -131.5v-73h-142v73z
M477 -20q-41 0 -70 28.5t-30 71.5q0 40 29.5 68t70.5 28q40 0 69.5 -28.5t28.5 -67.5q0 -42 -29 -71t-69 -29z" />
    <glyph glyph-name="at" unicode="@" horiz-adv-x="1959" 
d="M993 -229q-193 0 -358 68t-280.5 186.5t-180.5 285t-65 357.5q0 154 42 294.5t121.5 253t188 196t248 128.5t295.5 45q248 0 446.5 -112.5t311 -315.5t112.5 -459q0 -230 -106 -366t-287 -144q-88 -4 -133.5 45.5t-47.5 143.5h-6q-40 -90 -140 -145t-216 -52
q-169 3 -291 138t-121 352q0 109 34 202t90 155t127.5 98t148.5 40q116 9 215.5 -44t138.5 -140h8v170h127v-694q0 -78 18.5 -106.5t65.5 -28.5q102 0 168 105.5t66 279.5q0 142 -40.5 263.5t-110.5 208t-163 148t-198.5 91.5t-216.5 30q-165 0 -306.5 -61.5t-238 -167
t-151 -247t-54.5 -298.5q0 -222 95.5 -397t266 -272t385.5 -97q240 0 424 112l52 -116q-91 -62 -217 -97.5t-267 -35.5zM981 315q135 0 216 100.5t81 258.5q-2 151 -81.5 251.5t-217.5 100.5q-134 0 -222.5 -99.5t-88.5 -252.5q0 -150 87 -254.5t226 -104.5z" />
    <glyph glyph-name="A" unicode="A" horiz-adv-x="1288" 
d="M733 1409l516 -1415h-184l-129 375h-576l-131 -375h-176l531 1415h149zM395 506h506l-250 715z" />
    <glyph glyph-name="B" unicode="B" horiz-adv-x="1257" 
d="M897 715q124 -32 197 -120.5t73 -221.5q0 -179 -111.5 -279t-310.5 -100h-602v1405h562q195 0 305 -96t110 -265q0 -121 -58.5 -204t-164.5 -119zM322 1249v-463h370q256 0 256 232q0 112 -67 171.5t-189 59.5h-370zM727 145q125 0 193.5 61.5t68.5 182.5q0 120 -76 183
t-213 63h-378v-490h405z" />
    <glyph glyph-name="C" unicode="C" horiz-adv-x="1292" 
d="M1190 72q-239 -99 -467 -99q-303 0 -451.5 188.5t-148.5 534.5t148.5 534.5t451.5 188.5q231 0 467 -98v-141q-274 90 -449 90q-217 0 -328.5 -145.5t-111.5 -428.5q0 -284 111.5 -427.5t328.5 -143.5q175 0 449 86v-139z" />
    <glyph glyph-name="D" unicode="D" horiz-adv-x="1345" 
d="M143 -6v1405h498q294 0 441 -181t147 -516q0 -341 -147 -524.5t-441 -183.5h-498zM641 145q203 0 306.5 140t103.5 417q0 547 -410 547h-319v-1104h319z" />
    <glyph glyph-name="E" unicode="E" horiz-adv-x="1126" 
d="M1028 1249h-706v-450h612v-150h-612v-504h716v-151h-895v1405h885v-150z" />
    <glyph glyph-name="F" unicode="F" horiz-adv-x="1069" 
d="M999 1249h-677v-491h585v-150h-585v-614h-179v1405h856v-150z" />
    <glyph glyph-name="G" unicode="G" horiz-adv-x="1331" 
d="M1010 682h178v-610q-235 -99 -465 -99q-303 0 -451.5 188.5t-148.5 534.5t148.5 534.5t451.5 188.5q223 0 459 -98v-145q-248 94 -441 94q-217 0 -328.5 -145.5t-111.5 -428.5q0 -281 111 -426t315 -145q136 0 283 49v508z" />
    <glyph glyph-name="H" unicode="H" horiz-adv-x="1331" 
d="M143 -6v1405h179v-600h688v600h178v-1405h-178v655h-688v-655h-179z" />
    <glyph glyph-name="I" unicode="I" horiz-adv-x="464" 
d="M143 -6v1405h179v-1405h-179z" />
    <glyph glyph-name="J" unicode="J" horiz-adv-x="634" 
d="M492 301q0 -167 -70 -247.5t-213 -80.5q-95 0 -182 19l18 143q61 -10 119 -10q149 0 149 182v1092h179v-1098z" />
    <glyph glyph-name="K" unicode="K" horiz-adv-x="1263" 
d="M1206 -6h-233l-651 704v-704h-179v1405h179v-697l647 697h221l-655 -692z" />
    <glyph glyph-name="L" unicode="L" horiz-adv-x="1064" 
d="M322 1399v-1254h688v-151h-867v1405h179z" />
    <glyph glyph-name="M" unicode="M" horiz-adv-x="1658" 
d="M1296 1399h220v-1405h-179l4 1128l-456 -897h-125l-455 897l2 -1128h-164v1405h215l275 -543l198 -397z" />
    <glyph glyph-name="N" unicode="N" horiz-adv-x="1359" 
d="M1051 1405h166v-1405h-173l-739 1094l2 -1094h-164v1405h162l750 -1108z" />
    <glyph glyph-name="O" unicode="O" horiz-adv-x="1421" 
d="M711 -27q-292 0 -440 191.5t-148 537.5q0 339 148 528t440 189q291 0 439 -188.5t148 -528.5q0 -346 -147.5 -537.5t-439.5 -191.5zM711 125q91 0 162 31t116.5 83.5t75 128t41.5 157t12 177.5q0 280 -102.5 424t-304.5 144t-306 -144t-104 -424q0 -96 12 -177.5t42 -157
t75.5 -128t117 -83.5t163.5 -31z" />
    <glyph glyph-name="P" unicode="P" horiz-adv-x="1239" 
d="M322 573v-579h-179v1405h574q196 0 315 -113t119 -301q0 -193 -116.5 -302.5t-317.5 -109.5h-395zM322 723h380q128 0 199.5 66.5t71.5 195.5q0 126 -74 195t-197 69h-380v-526z" />
    <glyph glyph-name="Q" unicode="Q" horiz-adv-x="1421" 
d="M1040 -346l-331 319q-292 0 -439 191.5t-147 537.5q0 339 148 528t440 189q291 0 439 -188.5t148 -528.5q0 -292 -103.5 -468t-307.5 -220l266 -258zM711 125q91 0 162 31t116.5 83.5t75 128t41.5 157t12 177.5q0 280 -102.5 424t-304.5 144t-306 -144t-104 -424
q0 -96 12 -177.5t42 -157t75.5 -128t117 -83.5t163.5 -31z" />
    <glyph glyph-name="R" unicode="R" horiz-adv-x="1257" 
d="M844 582l356 -588h-203l-338 565h-337v-565h-179v1405h574q195 0 314.5 -114.5t119.5 -305.5q0 -161 -82 -265t-225 -132zM322 711h380q123 0 197 70t74 198q0 125 -76 197.5t-195 72.5h-380v-538z" />
    <glyph glyph-name="S" unicode="S" horiz-adv-x="1175" 
d="M588 -27q-261 0 -500 68v145q294 -65 492 -65q163 0 245 72.5t82 173.5q0 35 -11 65t-26.5 52t-46 43.5t-54.5 35t-69 30.5t-71.5 25.5t-79.5 24.5q-56 18 -91 30t-86.5 34t-84 42.5t-70 52.5t-58.5 67t-35.5 83t-14.5 103q0 181 128 272.5t351 91.5q234 0 471 -69v-152
q-271 74 -469 74q-301 0 -301 -217q0 -45 20 -82t44.5 -60t78.5 -47.5t87.5 -36t105.5 -33.5q11 -3 16 -5q43 -13 71 -22t69.5 -24t69 -28.5t62 -33.5t57.5 -41t46.5 -49.5t37 -59.5t22.5 -70.5t9 -83.5q0 -194 -136 -300t-361 -106z" />
    <glyph glyph-name="T" unicode="T" horiz-adv-x="1120" 
d="M1053 1249h-404v-1255h-178v1255h-403v150h985v-150z" />
    <glyph glyph-name="U" unicode="U" horiz-adv-x="1339" 
d="M322 498q0 -373 348 -373q66 0 119.5 13.5t89 35t61.5 54t40.5 64t22.5 71.5t10.5 70t2.5 65v901h180v-901q0 -263 -136 -394t-390 -131q-255 0 -391 131t-136 394v901h179v-901z" />
    <glyph glyph-name="V" unicode="V" horiz-adv-x="1300" 
d="M1073 1399h176l-499 -1415h-211l-486 1415h183l290 -862l123 -363l125 363z" />
    <glyph glyph-name="W" unicode="W" horiz-adv-x="1902" 
d="M1673 1399h176l-385 -1415h-207l-305 1122l-307 -1122h-209l-383 1415h185l208 -768l101 -398l102 398l209 768h193l211 -768l102 -398l100 398z" />
    <glyph glyph-name="X" unicode="X" horiz-adv-x="1320" 
d="M768 731l492 -737h-207l-246 362l-162 244l-393 -606h-191l484 737l-439 668h203l191 -285l164 -254l161 254l187 285h196z" />
    <glyph glyph-name="Y" unicode="Y" horiz-adv-x="1236" 
d="M1004 1399h182l-479 -920v-485h-179v485l-479 920h191l200 -385l183 -357l182 357z" />
    <glyph glyph-name="Z" unicode="Z" horiz-adv-x="1171" 
d="M317 145h766v-151h-995v121l746 1134h-705v150h930v-121z" />
    <glyph glyph-name="bracketleft" unicode="[" horiz-adv-x="706" 
d="M231 1395h375v-125h-217v-1475h217v-125h-375v1725z" />
    <glyph glyph-name="backslash" unicode="\" horiz-adv-x="702" 
d="M225 1370l402 -1597h-150l-403 1597h151z" />
    <glyph glyph-name="bracketright" unicode="]" horiz-adv-x="706" 
d="M475 -330h-375v125h217v1475h-217v125h375v-1725z" />
    <glyph glyph-name="underscore" unicode="_" horiz-adv-x="1404" 
d="M1303 18h-1158v127h1158v-127z" />
    <glyph glyph-name="grave" unicode="`" horiz-adv-x="204" 
d="M0 2011h123l14 -86q4 -47 15 -99.5t28 -125t25 -109.5h-111q-8 35 -26.5 99.5t-32 119.5t-19.5 103z" />
    <glyph glyph-name="a" unicode="a" horiz-adv-x="1034" 
d="M748 705q0 85 -32 139.5t-85 76t-127 21t-151.5 -19.5t-164.5 -52l-24 113q87 37 173.5 58.5t171 27t157 -13.5t127.5 -59.5t86.5 -113.5t31.5 -173v-709h-166v143q-157 -157 -360 -157q-133 0 -210 74.5t-77 193.5q0 175 178.5 286t471.5 93v72zM748 530
q-114 12 -211 -7.5t-157 -59.5t-93 -90t-33 -101q0 -74 52 -114.5t140 -40.5q94 0 165 33.5t137 97.5v282z" />
    <glyph glyph-name="b" unicode="b" horiz-adv-x="1099" 
d="M582 1063q200 0 307.5 -145.5t107.5 -393.5t-104.5 -393t-300.5 -145q-175 0 -305 118l-2 -104h-162v1411h164v-463q127 115 295 115zM537 123q138 0 213 104.5t75 296.5t-75 298t-213 106q-77 0 -142 -28.5t-108 -65.5v-619q112 -92 250 -92z" />
    <glyph glyph-name="c" unicode="c" horiz-adv-x="952" 
d="M879 41q-140 -55 -283 -55q-234 0 -367 146t-133 405t133 403.5t367 144.5q138 0 274 -47l-43 -125q-127 37 -215 37q-165 0 -255.5 -107.5t-90.5 -305.5q0 -199 90.5 -306.5t255.5 -107.5q99 0 232 47z" />
    <glyph glyph-name="d" unicode="d" horiz-adv-x="1099" 
d="M811 1411h166v-1411h-162l-4 102q-132 -116 -303 -116q-197 0 -301.5 145t-104.5 393t107.5 393.5t306.5 145.5q167 0 295 -113v461zM274 524q0 -192 75.5 -296.5t213.5 -104.5q77 0 141.5 28t106.5 64v619q-40 37 -105 65.5t-143 28.5q-138 0 -213.5 -106t-75.5 -298z
" />
    <glyph glyph-name="e" unicode="e" horiz-adv-x="1120" 
d="M283 514q3 -196 93.5 -293.5t280.5 -97.5q160 0 285 45l41 -119q-100 -38 -177 -49.5t-177 -11.5q-258 0 -388 143t-130 406q0 258 125 407.5t346 149.5q143 0 239 -77t135 -206.5t23 -296.5h-696zM834 621q0 155 -68.5 253.5t-187.5 98.5q-131 0 -208.5 -93.5
t-86.5 -258.5h551z" />
    <glyph glyph-name="f" unicode="f" horiz-adv-x="620" 
d="M379 1016h272l-26 -129h-246v-893h-166v893h-168l37 129h131v131q0 200 125.5 274t337.5 -16l-17 -113q-74 34 -129 37.5t-87.5 -21t-48 -67.5t-15.5 -104v-121z" />
    <glyph glyph-name="g" unicode="g" horiz-adv-x="1099" 
d="M811 1044h166v-1075q0 -133 -69 -225.5t-181.5 -130t-257 -29.5t-293.5 66l29 123q110 -44 218.5 -54t194.5 12.5t139.5 85t53.5 156.5v125q-127 -112 -295 -112q-197 0 -305.5 146t-108.5 392q0 249 104.5 395t301.5 146q170 0 299 -123h4v102zM274 524
q0 -192 75.5 -296.5t213.5 -104.5q77 0 141.5 28t106.5 64v604q-42 36 -106.5 64t-141.5 28q-137 0 -213 -102.5t-76 -284.5z" />
    <glyph glyph-name="h" unicode="h" horiz-adv-x="1091" 
d="M643 1055q153 3 239.5 -83.5t86.5 -254.5v-717h-164v666q0 222 -201 225q-146 2 -317 -133v-758h-164v1399h164v-484q174 140 356 140z" />
    <glyph glyph-name="i" unicode="i" horiz-adv-x="452" 
d="M203 1149q-38 0 -66 28t-28 66q0 37 28 64.5t66 27.5t66 -27.5t28 -64.5q0 -38 -28 -66t-66 -28zM287 1016v-1016h-164v1016h164z" />
    <glyph glyph-name="j" unicode="j" horiz-adv-x="409" 
d="M203 1149q-38 0 -66 28t-28 66q0 37 28 64.5t66 27.5t66 -27.5t28 -64.5q0 -38 -28 -66t-66 -28zM123 1016h164v-1071q0 -168 -63.5 -254t-198.5 -86q-85 0 -142 14l17 123q58 -10 92 -10q67 0 99 52t32 161v1071z" />
    <glyph glyph-name="k" unicode="k" horiz-adv-x="1017" 
d="M981 0h-201l-493 649v-649h-164v1399h164v-694l491 323h201l-541 -338z" />
    <glyph glyph-name="l" unicode="l" horiz-adv-x="526" 
d="M346 0h-166v1399h166v-1399z" />
    <glyph glyph-name="m" unicode="m" horiz-adv-x="1746" 
d="M1313 1051q311 0 311 -334v-717h-164v666q0 225 -211 225q-137 0 -299 -137q6 -40 6 -88v-666h-165v666q0 225 -211 225q-45 0 -88.5 -12.5t-84 -36.5t-64 -40.5t-56.5 -43.5v-758h-164v1030h164v-143q82 79 167.5 121.5t188.5 42.5q223 0 287 -179q99 93 189 136t194 43
z" />
    <glyph glyph-name="n" unicode="n" horiz-adv-x="1091" 
d="M287 0h-164v1030h164v-119q100 73 186.5 106.5t183.5 33.5q312 0 312 -334v-717h-164v666q0 225 -211 225q-143 0 -307 -133v-758z" />
    <glyph glyph-name="o" unicode="o" horiz-adv-x="1126" 
d="M563 -14q-221 0 -341 148t-120 390q0 244 120 391.5t341 147.5t341 -147.5t120 -391.5q0 -242 -120 -390t-341 -148zM563 940q-78 0 -138 -32.5t-96.5 -90.5t-54.5 -132t-18 -161t18 -160.5t54.5 -131t96.5 -90.5t138 -33t137.5 33t95 91t53 131t17.5 160
q0 88 -17.5 161.5t-53 131.5t-95 90.5t-137.5 32.5z" />
    <glyph glyph-name="p" unicode="p" horiz-adv-x="1099" 
d="M592 1067q197 0 301 -145t104 -394q0 -248 -108 -393t-307 -145q-169 0 -295 114v-462h-164v1405h162l2 -99q132 119 305 119zM537 127q138 0 213 104.5t75 296.5q0 182 -75.5 284.5t-212.5 102.5q-138 0 -250 -92v-604q112 -92 250 -92z" />
    <glyph glyph-name="q" unicode="q" horiz-adv-x="1099" 
d="M815 1047h162v-1405h-166v460q-127 -112 -295 -112q-198 0 -306 145.5t-108 392.5q0 249 104.5 394t301.5 145q170 0 303 -117zM274 528q0 -192 75.5 -296.5t213.5 -104.5q77 0 141.5 28t106.5 64v604q-42 36 -106.5 64t-141.5 28q-137 0 -213 -102.5t-76 -284.5z" />
    <glyph glyph-name="r" unicode="r" horiz-adv-x="684" 
d="M287 0h-164v1030h164v-182q75 97 175 144.5t208 47.5v-133q-110 7 -224 -55t-159 -133v-719z" />
    <glyph glyph-name="s" unicode="s" horiz-adv-x="983" 
d="M479 -29q-198 0 -389 72v127q94 -35 192.5 -52.5t166.5 -17.5q75 0 128.5 17.5t78.5 46t35.5 54.5t10.5 52q0 23 -8 43.5t-18.5 35.5t-34 30.5t-38.5 24.5t-50 22.5t-51.5 19t-57.5 19.5q-43 14 -67.5 23t-64.5 26t-64 32t-52.5 39.5t-44.5 50.5t-27 61.5t-11 76.5
q0 142 110.5 224.5t308.5 82.5q165 0 338 -67v-127q-167 67 -299 67q-74 0 -130 -16t-85 -42t-43 -53.5t-14 -56.5q0 -39 19 -68.5t57.5 -51.5t76.5 -37.5t96 -34.5q4 -1 6.5 -2t6 -2t6.5 -2q41 -14 67 -24t64 -26.5t62 -32.5t51.5 -39.5t43 -48.5t26 -59t10.5 -73
q0 -145 -113.5 -229.5t-298.5 -84.5z" />
    <glyph glyph-name="t" unicode="t" horiz-adv-x="595" 
d="M330 889v-656q0 -133 125 -133q74 0 100 13v-125q-81 -15 -162 -15q-121 0 -174 61.5t-53 184.5v670h-146l29 127h117v256l164 45v-301h233l-28 -127h-205z" />
    <glyph glyph-name="u" unicode="u" horiz-adv-x="1091" 
d="M805 1030h164v-1036h-164v123q-181 -144 -371 -144q-154 0 -232.5 85t-78.5 249v723h164v-672q0 -225 213 -225q148 0 305 131v766z" />
    <glyph glyph-name="v" unicode="v" horiz-adv-x="1054" 
d="M840 1047h176l-393 -1047h-193l-391 1047h184l211 -568l96 -309l97 309z" />
    <glyph glyph-name="w" unicode="w" horiz-adv-x="1628" 
d="M1411 1047h180l-338 -1047h-198l-244 805l-242 -805h-192l-338 1047h178l264 -887l248 887h172l248 -887z" />
    <glyph glyph-name="x" unicode="x" horiz-adv-x="1079" 
d="M649 520l383 -526h-201l-192 256l-109 164l-112 -170l-185 -250h-186l379 526l-375 510h199l190 -256l109 -162l113 166l186 252h176z" />
    <glyph glyph-name="y" unicode="y" horiz-adv-x="1054" 
d="M840 1030h176l-527 -1405h-157l121 328l-414 1077h184l305 -874l2 -6z" />
    <glyph glyph-name="z" unicode="z" horiz-adv-x="962" 
d="M274 123h627v-129h-840v119l619 788h-588v129h791v-119z" />
    <glyph glyph-name="braceleft" unicode="{" horiz-adv-x="712" 
d="M670 -330q-83 0 -143.5 14t-110.5 49t-75.5 100.5t-25.5 162.5v266q0 112 -43 155.5t-159 43.5v141q116 1 159 44.5t43 156.5v266q0 96 25.5 162t75.5 100.5t110.5 49t143.5 14.5v-125q-111 0 -155 -50.5t-42 -168.5v-281q-2 -93 -36.5 -148t-123.5 -83v-15
q88 -26 123 -82.5t37 -146.5v-281q-2 -118 42 -168.5t155 -50.5v-125z" />
    <glyph glyph-name="bar" unicode="|" horiz-adv-x="272" 
d="M25 2128h223v-2128h-223v2128z" />
    <glyph glyph-name="braceright" unicode="}" horiz-adv-x="712" 
d="M43 -330v125q112 0 155.5 50.5t43.5 168.5v281q0 91 35 147t124 82v15q-89 28 -124 83.5t-35 147.5v281q0 118 -43.5 168.5t-155.5 50.5v125q84 0 144.5 -14.5t110 -49.5t74.5 -100.5t25 -161.5v-266q0 -113 43.5 -156.5t161.5 -44.5v-141q-117 0 -161 -43.5t-44 -155.5
v-266q0 -97 -25 -162.5t-74.5 -100.5t-110 -49t-144.5 -14z" />
    <glyph glyph-name="asciitilde" unicode="~" horiz-adv-x="1798" 
d="M268 571l-88 131l373 308q47 -104 180.5 -166t276.5 -62q114 0 264.5 50.5t218.5 107.5l39 -170q-82 -71 -242 -123.5t-280 -52.5q-276 0 -488 186z" />
    <glyph glyph-name="exclamdown" unicode="&#xa1;" horiz-adv-x="577" 
d="M289 1389q40 0 69 -29t29 -70t-29 -69.5t-69 -28.5q-41 0 -70 28.5t-29 69.5t29 70t70 29zM356 954l13 -966h-162l12 966h137z" />
    <glyph glyph-name="cent" unicode="&#xa2;" horiz-adv-x="952" 
d="M879 41q-135 -52 -261 -55v-183h-79v185q-208 19 -325.5 163t-117.5 386q0 241 117.5 384t325.5 162v181h79v-179q134 -6 252 -47l-43 -125q-124 37 -209 37v-827q105 3 226 47zM266 537q0 -176 71 -280.5t202 -127.5v815q-131 -23 -202 -128t-71 -279z" />
    <glyph glyph-name="sterling" unicode="&#xa3;" horiz-adv-x="1843" 
 />
    <glyph glyph-name="currency" unicode="&#xa4;" horiz-adv-x="1189" 
d="M1077 745q0 -142 -42.5 -254t-123.5 -182l144 -256l-107 -24l-129 225q-89 -47 -203 -47q-133 0 -231 61l-125 -239l-108 24l145 279q-141 144 -141 413q0 242 112 381l-174 314l109 24l147 -260q115 80 266 80q128 0 222 -49l120 229l109 -24l-143 -275
q74 -68 113.5 -176t39.5 -244zM616 330q101 0 171 56.5t101.5 148t31.5 210.5t-30.5 210t-100.5 148.5t-173 57.5q-78 0 -138 -32.5t-96.5 -90.5t-54.5 -132t-18 -161q0 -187 79 -301t228 -114z" />
    <glyph glyph-name="yen" unicode="&#xa5;" horiz-adv-x="1236" 
d="M711 479l-4 -88h301v-65h-301v-99h301v-63h-301v-170h-179v170h-290v63h290v99h-290v65h290v88l-479 920h191l200 -385l185 -357l180 357l199 385h182z" />
    <glyph glyph-name="brokenbar" unicode="&#xa6;" horiz-adv-x="272" 
d="M25 2128h223v-922h-223v922zM25 868h223v-868h-223v868z" />
    <glyph glyph-name="dieresis" unicode="&#xa8;" horiz-adv-x="419" 
d="M80 1587q-32 0 -56 24t-24 56t24 56t56 24t56 -24t24 -56t-24 -56t-56 -24zM340 1587q-32 0 -56 24t-24 56t24 56t56 24t56 -24t24 -56t-24 -56t-56 -24z" />
    <glyph glyph-name="copyright" unicode="&#xa9;" horiz-adv-x="1921" 
d="M1569 1157q121 -123 185.5 -280t64.5 -328q0 -172 -64.5 -329.5t-185.5 -280.5q-124 -121 -280.5 -185.5t-327.5 -64.5q-172 0 -329.5 65t-279.5 185q-121 123 -185.5 280.5t-64.5 329.5q0 171 64.5 328t185.5 280q122 120 279.5 185t329.5 65q171 0 327.5 -64.5
t280.5 -185.5zM1513 -6q110 114 170 257t60 298q0 154 -60 296.5t-170 256.5q-114 110 -256 169.5t-296 59.5q-156 0 -299 -59.5t-254 -169.5q-109 -113 -168.5 -256t-59.5 -297q0 -156 59 -299t169 -256q112 -109 255 -169.5t298 -60.5q153 0 295 60.5t257 169.5zM1260 41
q-140 -55 -283 -55q-234 0 -366 146t-132 405t132 403.5t366 144.5q138 0 274 -47l-43 -125q-127 37 -213 37q-166 0 -257 -107.5t-91 -305.5q0 -199 91 -306.5t257 -107.5q97 0 230 47z" />
    <glyph glyph-name="guillemotleft" unicode="&#xab;" horiz-adv-x="919" 
d="M365 143l-263 385l263 381h96l-250 -381l250 -385h-96zM721 143l-262 385l262 381h96l-252 -381l252 -385h-96z" />
    <glyph glyph-name="uni00AD" unicode="&#xad;" horiz-adv-x="745" 
d="M725 489h-563v127h563v-127z" />
    <glyph glyph-name="macron" unicode="&#xaf;" horiz-adv-x="1001" 
d="M2 1202h999v-141h-999v141z" />
    <glyph glyph-name="degree" unicode="&#xb0;" horiz-adv-x="567" 
d="M283 1673q-99 0 -169.5 71.5t-70.5 172.5q0 98 71 169t169 71t168.5 -71t70.5 -169q0 -101 -70.5 -172.5t-168.5 -71.5zM283 1792q53 0 88 36.5t35 94.5q0 54 -35 88.5t-88 34.5t-87 -34.5t-34 -88.5q0 -58 34 -94.5t87 -36.5z" />
    <glyph glyph-name="plusminus" unicode="&#xb1;" horiz-adv-x="1132" 
d="M633 1065h340v-127h-342v-348l-127 2v346h-342v127h344v338l127 -2v-336zM162 317v127h811v-127h-811z" />
    <glyph glyph-name="acute" unicode="&#xb4;" horiz-adv-x="204" 
d="M205 2048l-17 -100q-6 -49 -19 -102.5t-31.5 -119.5t-26.5 -98h-111q8 37 25 109.5t28 125t15 99.5l14 86h123z" />
    <glyph glyph-name="paragraph" unicode="&#xb6;" horiz-adv-x="1484" 
d="M938 573h-395q-201 0 -317.5 109.5t-116.5 302.5q0 188 119 301t315 113h573v-1405h-178v579zM1204 -6v1405h178v-1405h-178z" />
    <glyph glyph-name="periodcentered" unicode="&#xb7;" horiz-adv-x="536" 
d="M268 330q-36 0 -61 25t-27 61q0 37 25.5 62.5t62.5 25.5q36 0 62 -26t26 -62q-2 -35 -27.5 -60.5t-60.5 -25.5z" />
    <glyph glyph-name="cedilla" unicode="&#xb8;" horiz-adv-x="460" 
d="M123 -260l188 -2q58 -9 104 -50.5t46 -93.5q0 -63 -43 -106t-103 -43h-315v94h315q22 0 37 16t15 39q0 21 -15.5 36.5t-36.5 15.5h-315q4 15 15.5 53.5t16 57.5t12.5 63.5t15 101.5l9 78h100l-10 -74q-14 -107 -35 -186z" />
    <glyph glyph-name="guillemotright" unicode="&#xbb;" horiz-adv-x="935" 
d="M262 143h-96l252 385l-252 381h96l262 -381zM618 143h-96l250 385l-250 381h96l263 -381z" />
    <glyph glyph-name="questiondown" unicode="&#xbf;" horiz-adv-x="1030" 
d="M539 1401q40 0 68.5 -28.5t29.5 -69.5q0 -41 -29 -70t-69 -29t-70.5 29t-30.5 70t30.5 69.5t70.5 28.5zM610 893q0 -115 -38.5 -181.5t-135.5 -133.5q-93 -65 -132.5 -117.5t-39.5 -118.5q0 -100 70 -165.5t174 -65.5q108 0 181 73t73 183h151q-1 -117 -55.5 -206
t-145.5 -135t-204 -46q-176 0 -292 97.5t-116 256.5q0 96 49.5 167t159.5 148q90 61 125 113t35 131v74h141v-74z" />
    <glyph glyph-name="Agrave" unicode="&#xc0;" horiz-adv-x="1288" 
d="M592 1589q-8 31 -27 97.5t-31.5 120t-17.5 102.5l-18 100h123l16 -86q4 -46 14.5 -100t26.5 -123.5t24 -110.5h-110zM733 1409l516 -1415h-184l-129 375h-576l-131 -375h-176l531 1415h149zM395 506h506l-250 715z" />
    <glyph glyph-name="Aacute" unicode="&#xc1;" horiz-adv-x="1288" 
d="M745 1894q-5 -49 -17.5 -102.5t-31 -120t-26.5 -98.5h-111q5 24 33 149t33 185l16 88h123zM733 1409l516 -1415h-184l-129 375h-576l-131 -375h-176l531 1415h149zM395 506h506l-250 715z" />
    <glyph glyph-name="Acircumflex" unicode="&#xc2;" horiz-adv-x="1288" 
d="M934 1565l-279 254l-282 -248l2 96l282 258l279 -264zM733 1409l516 -1415h-184l-129 375h-576l-131 -375h-176l531 1415h149zM395 506h506l-250 715z" />
    <glyph glyph-name="Atilde" unicode="&#xc3;" horiz-adv-x="1288" 
d="M483 1776l-104 -82l-25 82l138 104q11 -29 65 -55.5t109 -26.5q38 0 98 22t90 46l25 -80q-32 -29 -100 -53.5t-113 -24.5q-99 0 -183 68zM733 1409l516 -1415h-184l-129 375h-576l-131 -375h-176l531 1415h149zM395 506h506l-250 715z" />
    <glyph glyph-name="Adieresis" unicode="&#xc4;" horiz-adv-x="1288" 
d="M508 1546q-32 0 -55 24t-23 56q0 34 23 57t55 23q34 0 57 -23t23 -57q0 -33 -23.5 -56.5t-56.5 -23.5zM770 1546q-33 0 -56.5 23.5t-23.5 56.5q0 34 23 57t57 23q32 0 55 -23t23 -57q0 -32 -23 -56t-55 -24zM733 1409l516 -1415h-184l-129 375h-576l-131 -375h-176
l531 1415h149zM395 506h506l-250 715z" />
    <glyph glyph-name="Aring" unicode="&#xc5;" horiz-adv-x="1288" 
d="M641 1606q-57 0 -97 40.5t-40 98.5q0 57 40 97t97 40q56 0 96.5 -40t40.5 -97q0 -58 -40.5 -98.5t-96.5 -40.5zM641 1819q-30 0 -50 -20t-20 -50q0 -32 19.5 -53t50.5 -21q29 0 48.5 21t19.5 53q0 29 -19.5 49.5t-48.5 20.5zM733 1409l516 -1415h-184l-129 375h-576
l-131 -375h-176l531 1415h149zM395 506h506l-250 715z" />
    <glyph glyph-name="AE" unicode="&#xc6;" horiz-adv-x="1867" 
d="M1102 145h715v-151h-895v375h-562l-131 -375h-176l531 1415l1222 2v-156h-706v-456h612v-150h-612zM920 506v717h-267l-258 -717h525z" />
    <glyph glyph-name="Ccedilla" unicode="&#xc7;" horiz-adv-x="1292" 
d="M741 1270q-217 0 -328.5 -145.5t-111.5 -428.5q0 -284 111.5 -427.5t328.5 -143.5q175 0 449 86v-139q-228 -93 -440 -99l-7 -47q-22 -139 -34 -186l186 -2q60 -9 106 -50.5t46 -93.5q0 -63 -43 -106t-105 -43h-313v94h313q22 0 37.5 16t15.5 39q0 20 -16 36t-37 16h-313
q4 15 15.5 53.5t16 57.5t12.5 63.5t15 101.5l6 53q-267 23 -397.5 209.5t-130.5 511.5q0 346 148.5 534.5t451.5 188.5q231 0 467 -98v-141q-274 90 -449 90z" />
    <glyph glyph-name="Egrave" unicode="&#xc8;" horiz-adv-x="1126" 
d="M436 2009h121l16 -86q4 -46 14.5 -100.5t27 -123t24.5 -110.5h-111q-7 30 -26 97.5t-31.5 120.5t-17.5 102zM1028 1249h-706v-450h612v-150h-612v-504h716v-151h-895v1405h885v-150z" />
    <glyph glyph-name="Eacute" unicode="&#xc9;" horiz-adv-x="1126" 
d="M700 1995l-18 -101q-5 -49 -18 -102.5t-31.5 -119.5t-26.5 -99h-110q6 31 33.5 153t33.5 181l15 88h122zM1028 1249h-706v-450h612v-150h-612v-504h716v-151h-895v1405h885v-150z" />
    <glyph glyph-name="Ecircumflex" unicode="&#xca;" horiz-adv-x="1126" 
d="M313 1667l281 258l278 -264l-2 -96l-276 254l-285 -248zM1028 1249h-706v-450h612v-150h-612v-504h716v-151h-895v1405h885v-150z" />
    <glyph glyph-name="Edieresis" unicode="&#xcb;" horiz-adv-x="1126" 
d="M446 1546q-33 0 -56 23.5t-23 56.5q0 34 22.5 57t56.5 23q32 0 55 -23t23 -57q0 -32 -23 -56t-55 -24zM707 1546q-33 0 -56.5 23.5t-23.5 56.5q0 34 23 57t57 23q32 0 54.5 -23t22.5 -57q0 -33 -22.5 -56.5t-54.5 -23.5zM1028 1249h-706v-450h612v-150h-612v-504h716
v-151h-895v1405h885v-150z" />
    <glyph glyph-name="Igrave" unicode="&#xcc;" horiz-adv-x="464" 
d="M88 2009h123l16 -86q4 -46 14.5 -100.5t27 -123t24.5 -110.5h-111q-8 31 -27 97.5t-31.5 120t-17.5 102.5zM143 -6v1405h179v-1405h-179z" />
    <glyph glyph-name="Iacute" unicode="&#xcd;" horiz-adv-x="464" 
d="M385 1995l-18 -101q-5 -49 -18 -102.5t-31.5 -119.5t-26.5 -99h-111q5 24 33 149t33 185l16 88h123zM143 -6v1405h179v-1405h-179z" />
    <glyph glyph-name="Icircumflex" unicode="&#xce;" horiz-adv-x="464" 
d="M-35 1667l283 258l278 -246l-2 -96l-278 236l-285 -248zM143 -6v1405h179v-1405h-179z" />
    <glyph glyph-name="Idieresis" unicode="&#xcf;" horiz-adv-x="464" 
d="M98 1546q-32 0 -55 24t-23 56q0 34 23 57t55 23q34 0 57 -23t23 -57q0 -33 -23.5 -56.5t-56.5 -23.5zM360 1546q-33 0 -56 23.5t-23 56.5q0 34 22.5 57t56.5 23q32 0 55 -23t23 -57q0 -32 -23 -56t-55 -24zM143 -6v1405h179v-1405h-179z" />
    <glyph glyph-name="Eth" unicode="&#xd0;" horiz-adv-x="1345" 
d="M641 1399q294 0 441 -181t147 -516q0 -341 -147 -524.5t-441 -183.5h-498v590h-186v174h186v641h498zM641 145q203 0 306.5 140t103.5 417q0 547 -410 547h-319v-491h274v-174h-274v-439h319z" />
    <glyph glyph-name="Ntilde" unicode="&#xd1;" horiz-adv-x="1359" 
d="M516 1776l-104 -82l-25 82l137 104q11 -29 65 -55.5t109 -26.5q38 0 98.5 22t90.5 46l24 -80q-32 -29 -100 -53.5t-113 -24.5q-98 0 -182 68zM1051 1399h166v-1405h-173l-739 1093l2 -1093h-164v1405h162l750 -1110z" />
    <glyph glyph-name="Ograve" unicode="&#xd2;" horiz-adv-x="1421" 
d="M569 2009h121l17 -86q4 -47 14 -99.5t27.5 -125.5t25.5 -109h-110q-6 24 -27.5 96t-33.5 123.5t-17 100.5zM711 -27q-292 0 -440 191.5t-148 537.5q0 339 148 528t440 189q291 0 439 -188.5t148 -528.5q0 -346 -147.5 -537.5t-439.5 -191.5zM711 125q91 0 162 31
t116.5 83.5t75 128t41.5 157t12 177.5q0 280 -102.5 424t-304.5 144t-306 -144t-104 -424q0 -96 12 -177.5t42 -157t75.5 -128t117 -83.5t163.5 -31z" />
    <glyph glyph-name="Oacute" unicode="&#xd3;" horiz-adv-x="1421" 
d="M834 1995l-17 -101q-6 -48 -19.5 -102.5t-32 -119t-26.5 -99.5h-110q8 38 25 110.5t27.5 125t14.5 98.5l15 88h123zM711 -27q-292 0 -440 191.5t-148 537.5q0 339 148 528t440 189q291 0 439 -188.5t148 -528.5q0 -346 -147.5 -537.5t-439.5 -191.5zM711 125q91 0 162 31
t116.5 83.5t75 128t41.5 157t12 177.5q0 280 -102.5 424t-304.5 144t-306 -144t-104 -424q0 -96 12 -177.5t42 -157t75.5 -128t117 -83.5t163.5 -31z" />
    <glyph glyph-name="Ocircumflex" unicode="&#xd4;" horiz-adv-x="1421" 
d="M446 1667l283 258l279 -264l-4 -96l-277 254l-285 -248zM711 -27q-292 0 -440 191.5t-148 537.5q0 339 148 528t440 189q291 0 439 -188.5t148 -528.5q0 -346 -147.5 -537.5t-439.5 -191.5zM711 125q91 0 162 31t116.5 83.5t75 128t41.5 157t12 177.5q0 280 -102.5 424
t-304.5 144t-306 -144t-104 -424q0 -96 12 -177.5t42 -157t75.5 -128t117 -83.5t163.5 -31z" />
    <glyph glyph-name="Otilde" unicode="&#xd5;" horiz-adv-x="1421" 
d="M451 1694l-25 82l137 104q11 -29 65 -55.5t109 -26.5q38 0 98.5 22t90.5 46l24 -80q-32 -29 -100 -53.5t-113 -24.5q-98 0 -182 68zM711 -27q-292 0 -440 191.5t-148 537.5q0 339 148 528t440 189q291 0 439 -188.5t148 -528.5q0 -346 -147.5 -537.5t-439.5 -191.5z
M711 125q91 0 162 31t116.5 83.5t75 128t41.5 157t12 177.5q0 280 -102.5 424t-304.5 144t-306 -144t-104 -424q0 -96 12 -177.5t42 -157t75.5 -128t117 -83.5t163.5 -31z" />
    <glyph glyph-name="Odieresis" unicode="&#xd6;" horiz-adv-x="1421" 
d="M580 1546q-33 0 -56.5 23.5t-23.5 56.5q0 34 23 57t57 23q32 0 54.5 -23t22.5 -57q0 -33 -22.5 -56.5t-54.5 -23.5zM840 1546q-32 0 -56 24t-24 56q0 33 23.5 56.5t56.5 23.5t56.5 -23.5t23.5 -56.5q0 -32 -24 -56t-56 -24zM711 -27q-292 0 -440 191.5t-148 537.5
q0 339 148 528t440 189q291 0 439 -188.5t148 -528.5q0 -346 -147.5 -537.5t-439.5 -191.5zM711 125q91 0 162 31t116.5 83.5t75 128t41.5 157t12 177.5q0 280 -102.5 424t-304.5 144t-306 -144t-104 -424q0 -96 12 -177.5t42 -157t75.5 -128t117 -83.5t163.5 -31z" />
    <glyph glyph-name="multiply" unicode="&#xd7;" horiz-adv-x="1105" 
d="M877 283l-86 -95l-252 242l-236 -248l-94 86l237 250l-241 232l86 94l244 -234l233 244l94 -86l-235 -246z" />
    <glyph glyph-name="Oslash" unicode="&#xd8;" horiz-adv-x="1421" 
d="M1298 702q0 -268 -89 -445t-267 -245l47 -184h-104l-41 158q-67 -13 -133 -13q-292 0 -440 191.5t-148 537.5q0 267 91.5 443t274.5 239l-51 201h107l45 -176q62 10 121 10q291 0 439 -188.5t148 -528.5zM903 170q215 119 215 532q0 280 -102.5 424t-304.5 144
q-43 0 -84 -6zM711 125q48 0 96 10l-279 1096q-227 -112 -227 -529q0 -96 12 -177.5t42 -157t75.5 -128t117 -83.5t163.5 -31z" />
    <glyph glyph-name="Ugrave" unicode="&#xd9;" horiz-adv-x="1339" 
d="M502 2009h123l14 -86q4 -46 14.5 -99.5t28 -125t25.5 -109.5h-111q-8 33 -27 98t-32.5 119.5t-18.5 102.5zM322 498q0 -373 348 -373q66 0 119.5 13.5t89 35t61.5 54t40.5 64t22.5 71.5t10.5 70t2.5 65v901h180v-901q0 -263 -136 -394t-390 -131q-255 0 -391 131
t-136 394v901h179v-901z" />
    <glyph glyph-name="Uacute" unicode="&#xda;" horiz-adv-x="1339" 
d="M807 1995l-16 -101q-6 -48 -19.5 -102.5t-32 -119t-26.5 -99.5h-111q8 40 25 111t28 124.5t15 98.5l14 88h123zM322 498q0 -373 348 -373q66 0 119.5 13.5t89 35t61.5 54t40.5 64t22.5 71.5t10.5 70t2.5 65v901h180v-901q0 -263 -136 -394t-390 -131q-255 0 -391 131
t-136 394v901h179v-901z" />
    <glyph glyph-name="Ucircumflex" unicode="&#xdb;" horiz-adv-x="1339" 
d="M379 1667l283 258l278 -264l-4 -96l-277 254l-284 -248zM322 498q0 -373 348 -373q66 0 119.5 13.5t89 35t61.5 54t40.5 64t22.5 71.5t10.5 70t2.5 65v901h180v-901q0 -263 -136 -394t-390 -131q-255 0 -391 131t-136 394v901h179v-901z" />
    <glyph glyph-name="Udieresis" unicode="&#xdc;" horiz-adv-x="1339" 
d="M512 1546q-32 0 -56 24t-24 56q0 33 23.5 56.5t56.5 23.5t56.5 -23.5t23.5 -56.5q0 -32 -24 -56t-56 -24zM772 1546q-32 0 -56 24t-24 56q0 33 23.5 56.5t56.5 23.5t56.5 -23.5t23.5 -56.5q0 -32 -24 -56t-56 -24zM322 498q0 -373 348 -373q66 0 119.5 13.5t89 35
t61.5 54t40.5 64t22.5 71.5t10.5 70t2.5 65v901h180v-901q0 -263 -136 -394t-390 -131q-255 0 -391 131t-136 394v901h179v-901z" />
    <glyph glyph-name="Yacute" unicode="&#xdd;" horiz-adv-x="1236" 
d="M715 1894q-5 -49 -18 -102.5t-31.5 -119.5t-26.5 -99h-111q5 24 33 149t33 185l16 88h123zM1004 1399h182l-479 -920v-485h-179v485l-479 920h191l200 -385l183 -357l182 357z" />
    <glyph glyph-name="Thorn" unicode="&#xde;" horiz-adv-x="1099" 
d="M592 1067q197 0 301 -145t104 -394q0 -248 -108 -393t-307 -145q-169 0 -295 114v-462h-164v1708h162l2 -402q132 119 305 119zM537 127q138 0 213 104.5t75 296.5q0 182 -75.5 284.5t-212.5 102.5q-138 0 -250 -92v-604q112 -92 250 -92z" />
    <glyph glyph-name="germandbls" unicode="&#xdf;" horiz-adv-x="1257" 
d="M326 0h-183v1399h562q195 0 305 -96t110 -265q0 -120 -57.5 -203t-161.5 -120q128 -37 197 -126t69 -216q0 -175 -115 -275.5t-311 -103.5h-129l-2 151h125q122 0 188 62t66 182q0 116 -70 178.5t-198 67.5h-35v151h29q233 9 233 232q0 112 -67 171.5t-189 59.5h-370z
" />
    <glyph glyph-name="agrave" unicode="&#xe0;" horiz-adv-x="1034" 
d="M379 1821h121l16 -86q4 -46 14.5 -99.5t28 -125t25.5 -109.5h-111q-6 24 -27 95.5t-33.5 123t-17.5 100.5zM748 705q0 85 -32 139.5t-85 76t-127 21t-151.5 -19.5t-164.5 -52l-24 113q87 37 173.5 58.5t171 27t157 -13.5t127.5 -59.5t86.5 -113.5t31.5 -173v-709h-166
v143q-157 -157 -360 -157q-133 0 -210 74.5t-77 193.5q0 175 178.5 286t471.5 93v72zM748 530q-114 12 -211 -7.5t-157 -59.5t-93 -90t-33 -101q0 -74 52 -114.5t140 -40.5q94 0 165 33.5t137 97.5v282z" />
    <glyph glyph-name="aacute" unicode="&#xe1;" horiz-adv-x="1034" 
d="M643 1806l-16 -100q-6 -48 -19.5 -103t-32 -119.5t-26.5 -99.5h-111q8 40 25 111t28 124.5t15 98.5l14 88h123zM748 705q0 85 -32 139.5t-85 76t-127 21t-151.5 -19.5t-164.5 -52l-24 113q87 37 173.5 58.5t171 27t157 -13.5t127.5 -59.5t86.5 -113.5t31.5 -173v-709
h-166v143q-157 -157 -360 -157q-133 0 -210 74.5t-77 193.5q0 175 178.5 286t471.5 93v72zM748 530q-114 12 -211 -7.5t-157 -59.5t-93 -90t-33 -101q0 -74 52 -114.5t140 -40.5q94 0 165 33.5t137 97.5v282z" />
    <glyph glyph-name="acircumflex" unicode="&#xe2;" horiz-adv-x="1034" 
d="M256 1479l283 258l278 -264l-4 -97l-276 254l-285 -248zM748 705q0 85 -32 139.5t-85 76t-127 21t-151.5 -19.5t-164.5 -52l-24 113q87 37 173.5 58.5t171 27t157 -13.5t127.5 -59.5t86.5 -113.5t31.5 -173v-709h-166v143q-157 -157 -360 -157q-133 0 -210 74.5
t-77 193.5q0 175 178.5 286t471.5 93v72zM748 530q-114 12 -211 -7.5t-157 -59.5t-93 -90t-33 -101q0 -74 52 -114.5t140 -40.5q94 0 165 33.5t137 97.5v282z" />
    <glyph glyph-name="atilde" unicode="&#xe3;" horiz-adv-x="1034" 
d="M260 1505l-24 82l137 105q11 -29 65 -55.5t109 -26.5q38 0 98 21.5t90 45.5l25 -80q-32 -29 -100 -53t-113 -24q-100 0 -182 67zM748 705q0 85 -32 139.5t-85 76t-127 21t-151.5 -19.5t-164.5 -52l-24 113q87 37 173.5 58.5t171 27t157 -13.5t127.5 -59.5t86.5 -113.5
t31.5 -173v-709h-166v143q-157 -157 -360 -157q-133 0 -210 74.5t-77 193.5q0 175 178.5 286t471.5 93v72zM748 530q-114 12 -211 -7.5t-157 -59.5t-93 -90t-33 -101q0 -74 52 -114.5t140 -40.5q94 0 165 33.5t137 97.5v282z" />
    <glyph glyph-name="adieresis" unicode="&#xe4;" horiz-adv-x="1034" 
d="M389 1358q-33 0 -56.5 23.5t-23.5 56.5q0 34 23 57t57 23q32 0 55 -23t23 -57q0 -32 -23 -56t-55 -24zM649 1358q-32 0 -56 24t-24 56q0 33 23.5 56.5t56.5 23.5t56.5 -23.5t23.5 -56.5q0 -32 -24 -56t-56 -24zM748 705q0 85 -32 139.5t-85 76t-127 21t-151.5 -19.5
t-164.5 -52l-24 113q87 37 173.5 58.5t171 27t157 -13.5t127.5 -59.5t86.5 -113.5t31.5 -173v-709h-166v143q-157 -157 -360 -157q-133 0 -210 74.5t-77 193.5q0 175 178.5 286t471.5 93v72zM748 530q-114 12 -211 -7.5t-157 -59.5t-93 -90t-33 -101q0 -74 52 -114.5
t140 -40.5q94 0 165 33.5t137 97.5v282z" />
    <glyph glyph-name="aring" unicode="&#xe5;" horiz-adv-x="1034" 
d="M520 1417q-57 0 -97 40.5t-40 98.5q0 57 40 97.5t97 40.5t97 -40.5t40 -97.5q0 -58 -40 -98.5t-97 -40.5zM520 1487q29 0 48.5 21t19.5 53q0 29 -19.5 49t-48.5 20t-49 -20t-20 -49q0 -32 20 -53t49 -21zM748 705q0 85 -32 139.5t-85 76t-127 21t-151.5 -19.5t-164.5 -52
l-24 113q87 37 173.5 58.5t171 27t157 -13.5t127.5 -59.5t86.5 -113.5t31.5 -173v-709h-166v143q-157 -157 -360 -157q-133 0 -210 74.5t-77 193.5q0 175 178.5 286t471.5 93v72zM748 530q-114 12 -211 -7.5t-157 -59.5t-93 -90t-33 -101q0 -74 52 -114.5t140 -40.5
q94 0 165 33.5t137 97.5v282z" />
    <glyph glyph-name="ae" unicode="&#xe6;" horiz-adv-x="1726" 
d="M1292 123q160 0 285 45l41 -119q-100 -38 -176.5 -49.5t-175.5 -11.5q-313 0 -441 211q-82 -104 -199 -158.5t-241 -54.5q-133 0 -210 74.5t-77 193.5q0 175 178.5 286t471.5 93v72q0 85 -32 139.5t-85 76t-127 21t-151.5 -19.5t-164.5 -52l-24 113q102 43 203 65
t195 20.5t171.5 -37.5t122.5 -105q126 168 361 168q143 0 239.5 -76.5t135.5 -206.5t22 -297h-696q5 -196 94.5 -293.5t279.5 -97.5zM1214 973q-131 0 -208 -93t-88 -259h550q0 155 -67.5 253.5t-186.5 98.5zM748 258v215q-3 27 -3 57q-114 12 -210 -7.5t-155.5 -59.5
t-92.5 -90t-33 -101q0 -74 52 -114.5t140 -40.5q92 0 162.5 37t139.5 104z" />
    <glyph glyph-name="ccedilla" unicode="&#xe7;" horiz-adv-x="952" 
d="M784 -262q60 -9 106 -50.5t46 -93.5q0 -62 -43.5 -105.5t-104.5 -43.5h-315v94h315q22 0 37 16t15 39q0 21 -15.5 36.5t-36.5 15.5h-315q4 15 15.5 53.5t16 57.5t12.5 63.5t15 101.5l9 66q-210 17 -327.5 161t-117.5 388q0 259 133 403.5t367 144.5q138 0 274 -47
l-43 -125q-127 37 -215 37q-165 0 -255.5 -107.5t-90.5 -305.5q0 -199 90.5 -306.5t255.5 -107.5q99 0 232 47l35 -129q-118 -47 -238 -53l-10 -62q-14 -107 -35 -186z" />
    <glyph glyph-name="egrave" unicode="&#xe8;" horiz-adv-x="1112" 
d="M397 1821h121l17 -86q4 -47 14 -99.5t27.5 -125.5t25.5 -109h-110q-6 24 -27 95.5t-33.5 123t-17.5 100.5zM274 514q5 -196 95 -293.5t280 -97.5q160 0 285 45l41 -119q-100 -38 -176.5 -49.5t-177.5 -11.5q-257 0 -388 143t-131 406q0 258 125.5 407.5t345.5 149.5
q86 0 156.5 -28.5t119.5 -80.5t80 -124t41.5 -160t0.5 -187h-697zM825 621q0 155 -68.5 253.5t-185.5 98.5q-131 0 -208.5 -93.5t-88.5 -258.5h551z" />
    <glyph glyph-name="eacute" unicode="&#xe9;" horiz-adv-x="1112" 
d="M662 1806l-17 -100q-6 -48 -19.5 -103t-32 -119.5t-26.5 -99.5h-110q8 38 25 110.5t27.5 125t14.5 98.5l15 88h123zM274 514q5 -196 95 -293.5t280 -97.5q160 0 285 45l41 -119q-100 -38 -176.5 -49.5t-177.5 -11.5q-257 0 -388 143t-131 406q0 258 125.5 407.5
t345.5 149.5q86 0 156.5 -28.5t119.5 -80.5t80 -124t41.5 -160t0.5 -187h-697zM825 621q0 155 -68.5 253.5t-185.5 98.5q-131 0 -208.5 -93.5t-88.5 -258.5h551z" />
    <glyph glyph-name="ecircumflex" unicode="&#xea;" horiz-adv-x="1112" 
d="M291 1466l266 271l279 -264l-5 -111l-276 252l-268 -258zM274 514q5 -196 95 -293.5t280 -97.5q160 0 285 45l41 -119q-100 -38 -176.5 -49.5t-177.5 -11.5q-257 0 -388 143t-131 406q0 258 125.5 407.5t345.5 149.5q86 0 156.5 -28.5t119.5 -80.5t80 -124t41.5 -160
t0.5 -187h-697zM825 621q0 155 -68.5 253.5t-185.5 98.5q-131 0 -208.5 -93.5t-88.5 -258.5h551z" />
    <glyph glyph-name="edieresis" unicode="&#xeb;" horiz-adv-x="1112" 
d="M408 1358q-33 0 -56.5 23.5t-23.5 56.5q0 34 23 57t57 23q32 0 54.5 -23t22.5 -57q0 -33 -22.5 -56.5t-54.5 -23.5zM668 1358q-32 0 -56 24t-24 56q0 33 23.5 56.5t56.5 23.5t56.5 -23.5t23.5 -56.5q0 -32 -24 -56t-56 -24zM274 514q5 -196 95 -293.5t280 -97.5
q160 0 285 45l41 -119q-100 -38 -176.5 -49.5t-177.5 -11.5q-257 0 -388 143t-131 406q0 258 125.5 407.5t345.5 149.5q86 0 156.5 -28.5t119.5 -80.5t80 -124t41.5 -160t0.5 -187h-697zM825 621q0 155 -68.5 253.5t-185.5 98.5q-131 0 -208.5 -93.5t-88.5 -258.5h551z" />
    <glyph glyph-name="igrave" unicode="&#xec;" horiz-adv-x="385" 
d="M57 1563h121l17 -88q4 -46 14 -98.5t27.5 -124.5t25.5 -111h-110q-7 27 -27.5 97.5t-33 122.5t-17.5 101zM287 1016v-1016h-164v1016h164z" />
    <glyph glyph-name="iacute" unicode="&#xed;" horiz-adv-x="385" 
d="M340 1675l-16 -100q-6 -48 -19.5 -103t-32 -119.5t-26.5 -99.5h-111q7 35 34.5 155t33.5 179l14 88h123zM274 983v-983h-163v983h163z" />
    <glyph glyph-name="icircumflex" unicode="&#xee;" horiz-adv-x="385" 
d="M-111 1204l285 258l279 -264l-4 -96l-277 252l-287 -246zM262 983l12 -983h-163l-13 983h164z" />
    <glyph glyph-name="idieresis" unicode="&#xef;" horiz-adv-x="385" 
d="M53 1257q-32 0 -56 24t-24 56t24 56t56 24q33 0 56.5 -23.5t23.5 -56.5t-23.5 -56.5t-56.5 -23.5zM313 1257q-32 0 -56 24t-24 56t24 56t56 24q33 0 56.5 -23.5t23.5 -56.5t-23.5 -56.5t-56.5 -23.5zM287 1016v-1016h-164v1016h164z" />
    <glyph glyph-name="eth" unicode="&#xf0;" horiz-adv-x="1208" 
d="M739 1370q165 -74 255.5 -260.5t90.5 -486.5q0 -104 -14.5 -194.5t-50 -176t-90.5 -146t-142 -97t-198 -36.5q-206 0 -336.5 133.5t-130.5 350.5q0 229 119 355t321 126q102 0 194 -48.5t158 -137.5q-5 50 -13.5 97.5t-28 108t-46 110.5t-70.5 97t-98 74l-79 -133h-109
l96 164q-36 8 -84 8q-78 0 -145 -10.5t-166 -40.5l-8 131q66 22 97.5 31t94.5 19.5t129 10.5q83 0 160 -18l64 108l116 4zM592 117q78 0 135.5 27t91.5 71t54 110.5t27 133.5t7 153q-58 86 -139 135.5t-166 49.5q-73 0 -128.5 -22t-88.5 -56t-54 -81t-28.5 -92t-7.5 -95
q0 -149 82.5 -241.5t214.5 -92.5z" />
    <glyph glyph-name="ntilde" unicode="&#xf1;" horiz-adv-x="1091" 
d="M276 1505l-24 82l137 105q11 -29 65 -55.5t109 -26.5q38 0 98.5 21.5t90.5 45.5l24 -80q-32 -29 -100 -53t-113 -24q-100 0 -182 67zM287 0h-164v1030h164v-119q100 73 186.5 106.5t183.5 33.5q312 0 312 -334v-717h-164v666q0 225 -211 225q-143 0 -307 -133v-758z" />
    <glyph glyph-name="ograve" unicode="&#xf2;" horiz-adv-x="1126" 
d="M410 1821h120l17 -86q4 -47 14 -99.5t27.5 -125.5t25.5 -109h-110q-6 24 -27 95.5t-33.5 123t-17.5 100.5zM563 -14q-221 0 -341 148t-120 390q0 244 120 391.5t341 147.5t341 -147.5t120 -391.5q0 -242 -120 -390t-341 -148zM563 940q-78 0 -138 -32.5t-96.5 -90.5
t-54.5 -132t-18 -161t18 -160.5t54.5 -131t96.5 -90.5t138 -33t137.5 33t95 91t53 131t17.5 160q0 88 -17.5 161.5t-53 131.5t-95 90.5t-137.5 32.5z" />
    <glyph glyph-name="oacute" unicode="&#xf3;" horiz-adv-x="1126" 
d="M674 1806l-17 -100q-6 -48 -19 -102.5t-31.5 -120t-26.5 -99.5h-111q8 40 25 111t28 124.5t15 98.5l14 88h123zM563 -14q-221 0 -341 148t-120 390q0 244 120 391.5t341 147.5t341 -147.5t120 -391.5q0 -242 -120 -390t-341 -148zM563 940q-78 0 -138 -32.5t-96.5 -90.5
t-54.5 -132t-18 -161t18 -160.5t54.5 -131t96.5 -90.5t138 -33t137.5 33t95 91t53 131t17.5 160q0 88 -17.5 161.5t-53 131.5t-95 90.5t-137.5 32.5z" />
    <glyph glyph-name="ocircumflex" unicode="&#xf4;" horiz-adv-x="1126" 
d="M299 1466l266 271l279 -264l-4 -111l-277 252l-268 -258zM563 -14q-221 0 -341 148t-120 390q0 244 120 391.5t341 147.5t341 -147.5t120 -391.5q0 -242 -120 -390t-341 -148zM563 940q-78 0 -138 -32.5t-96.5 -90.5t-54.5 -132t-18 -161t18 -160.5t54.5 -131t96.5 -90.5
t138 -33t137.5 33t95 91t53 131t17.5 160q0 88 -17.5 161.5t-53 131.5t-95 90.5t-137.5 32.5z" />
    <glyph glyph-name="otilde" unicode="&#xf5;" horiz-adv-x="1126" 
d="M291 1505l-25 82l137 105q11 -29 65.5 -55.5t109.5 -26.5q38 0 98 21.5t90 45.5l25 -80q-32 -29 -100 -53t-113 -24q-101 0 -183 67zM563 -14q-221 0 -341 148t-120 390q0 244 120 391.5t341 147.5t341 -147.5t120 -391.5q0 -242 -120 -390t-341 -148zM563 940
q-78 0 -138 -32.5t-96.5 -90.5t-54.5 -132t-18 -161t18 -160.5t54.5 -131t96.5 -90.5t138 -33t137.5 33t95 91t53 131t17.5 160q0 88 -17.5 161.5t-53 131.5t-95 90.5t-137.5 32.5z" />
    <glyph glyph-name="odieresis" unicode="&#xf6;" horiz-adv-x="1126" 
d="M420 1358q-33 0 -56.5 23.5t-23.5 56.5q0 34 23 57t57 23q32 0 55 -23t23 -57q0 -32 -23 -56t-55 -24zM680 1358q-32 0 -56 24t-24 56q0 33 23.5 56.5t56.5 23.5t56.5 -23.5t23.5 -56.5q0 -32 -24 -56t-56 -24zM563 -14q-221 0 -341 148t-120 390q0 244 120 391.5
t341 147.5t341 -147.5t120 -391.5q0 -242 -120 -390t-341 -148zM563 940q-78 0 -138 -32.5t-96.5 -90.5t-54.5 -132t-18 -161t18 -160.5t54.5 -131t96.5 -90.5t138 -33t137.5 33t95 91t53 131t17.5 160q0 88 -17.5 161.5t-53 131.5t-95 90.5t-137.5 32.5z" />
    <glyph glyph-name="divide" unicode="&#xf7;" horiz-adv-x="1132" 
d="M563 846q-44 0 -75 31t-31 75t31 75.5t75 31.5t75.5 -31.5t31.5 -75.5t-31.5 -75t-75.5 -31zM973 489h-811v127h811v-127zM563 94q-44 0 -75 31.5t-31 75.5t31 75t75 31t75.5 -31t31.5 -75t-31.5 -75.5t-75.5 -31.5z" />
    <glyph glyph-name="oslash" unicode="&#xf8;" horiz-adv-x="1126" 
d="M1024 524q0 -135 -39 -242.5t-110 -178.5t-176.5 -100t-233.5 -7l-43 -174h-84l49 194q-139 52 -212 186t-73 322q0 177 65.5 306.5t191 191t290.5 35.5l51 198h84l-55 -217q144 -50 219.5 -185.5t75.5 -328.5zM424 152l192 784q-170 23 -263 -89.5t-93 -322.5
q0 -130 40 -228.5t124 -143.5zM498 115q174 -30 273 84t99 325q0 134 -43.5 235.5t-134.5 143.5z" />
    <glyph glyph-name="ugrave" unicode="&#xf9;" horiz-adv-x="1091" 
d="M473 1401q-6 24 -27 95.5t-33.5 123t-17.5 100.5l-16 101h121l16 -86q4 -46 14.5 -99.5t28 -125t25.5 -109.5h-111zM805 1030h164v-1036h-164v123q-181 -144 -371 -144q-154 0 -232.5 85t-78.5 249v723h164v-672q0 -225 213 -225q148 0 305 131v766z" />
    <glyph glyph-name="uacute" unicode="&#xfa;" horiz-adv-x="1091" 
d="M627 1706q-6 -48 -19.5 -103t-32 -119.5t-26.5 -99.5h-111q8 40 25 111t28 124.5t15 98.5l14 88h123zM805 1030h164v-1036h-164v123q-181 -144 -371 -144q-154 0 -232.5 85t-78.5 249v723h164v-672q0 -225 213 -225q148 0 305 131v766z" />
    <glyph glyph-name="ucircumflex" unicode="&#xfb;" horiz-adv-x="1091" 
d="M827 1372l-276 254l-268 -260l2 111l266 270l278 -264zM805 1030h164v-1036h-164v123q-181 -144 -371 -144q-154 0 -232.5 85t-78.5 249v723h164v-672q0 -225 213 -225q148 0 305 131v766z" />
    <glyph glyph-name="udieresis" unicode="&#xfc;" horiz-adv-x="1091" 
d="M389 1358q-33 0 -56.5 23.5t-23.5 56.5q0 34 23 57t57 23q32 0 55 -23t23 -57q0 -32 -23 -56t-55 -24zM649 1358q-32 0 -56 24t-24 56q0 33 23.5 56.5t56.5 23.5t56.5 -23.5t23.5 -56.5q0 -32 -24 -56t-56 -24zM805 1030h164v-1036h-164v123q-181 -144 -371 -144
q-154 0 -232.5 85t-78.5 249v723h164v-672q0 -225 213 -225q148 0 305 131v766z" />
    <glyph glyph-name="yacute" unicode="&#xfd;" horiz-adv-x="1054" 
d="M649 1716q-5 -49 -17.5 -102.5t-31.5 -119.5t-27 -97h-110q8 41 24 110.5t26.5 123.5t14.5 100l17 86h123zM840 1030h176l-527 -1405h-157l121 328l-414 1077h184l305 -874l2 -6z" />
    <glyph glyph-name="thorn" unicode="&#xfe;" horiz-adv-x="1099" 
d="M592 1067q197 0 301 -145t104 -394q0 -248 -108 -393t-307 -145q-169 0 -295 114v-462h-164v1708h162l2 -402q132 119 305 119zM537 127q138 0 213 104.5t75 296.5q0 182 -75.5 284.5t-212.5 102.5q-138 0 -250 -92v-604q112 -92 250 -92z" />
    <glyph glyph-name="ydieresis" unicode="&#xff;" horiz-adv-x="1054" 
d="M412 1370q-32 0 -55 23t-23 55q0 34 23 58t55 24q34 0 57 -24t23 -58q0 -32 -23 -55t-57 -23zM674 1370q-34 0 -57 23t-23 55q0 34 23 58t57 24q32 0 55 -24t23 -58q0 -32 -23 -55t-55 -23zM840 1030h176l-527 -1405h-157l121 328l-414 1077h184l305 -874l2 -6z" />
    <glyph glyph-name="Amacron" unicode="&#x100;" horiz-adv-x="1288" 
d="M1008 1827v-141h-617v141h617zM733 1409l516 -1415h-184l-129 375h-576l-131 -375h-176l531 1415h149zM395 506h506l-250 715z" />
    <glyph glyph-name="amacron" unicode="&#x101;" horiz-adv-x="1034" 
d="M217 1536h617v-141h-617v141zM748 705q0 85 -32 139.5t-85 76t-127 21t-151.5 -19.5t-164.5 -52l-24 113q87 37 173.5 58.5t171 27t157 -13.5t127.5 -59.5t86.5 -113.5t31.5 -173v-709h-166v143q-157 -157 -360 -157q-133 0 -210 74.5t-77 193.5q0 175 178.5 286
t471.5 93v72zM748 530q-114 12 -211 -7.5t-157 -59.5t-93 -90t-33 -101q0 -74 52 -114.5t140 -40.5q94 0 165 33.5t137 97.5v282z" />
    <glyph glyph-name="Abreve" unicode="&#x102;" horiz-adv-x="1288" 
d="M897 1645q-110 -61 -242 -58q-127 0 -239 70v90q108 -67 239 -70q130 -3 242 58v-90zM733 1409l516 -1415h-184l-129 375h-576l-131 -375h-176l531 1415h149zM395 506h506l-250 715z" />
    <glyph glyph-name="abreve" unicode="&#x103;" horiz-adv-x="1034" 
d="M532 1399q-127 0 -237 69v91q103 -67 240 -70q132 -3 239 57v-90q-108 -60 -242 -57zM748 705q0 85 -32 139.5t-85 76t-127 21t-151.5 -19.5t-164.5 -52l-24 113q87 37 173.5 58.5t171 27t157 -13.5t127.5 -59.5t86.5 -113.5t31.5 -173v-709h-166v143
q-157 -157 -360 -157q-133 0 -210 74.5t-77 193.5q0 175 178.5 286t471.5 93v72zM748 530q-114 12 -211 -7.5t-157 -59.5t-93 -90t-33 -101q0 -74 52 -114.5t140 -40.5q94 0 165 33.5t137 97.5v282z" />
    <glyph glyph-name="Aogonek" unicode="&#x104;" horiz-adv-x="1288" 
d="M1063 -150q-20 0 -33.5 -13.5t-13.5 -33.5q0 -22 13.5 -35.5t33.5 -13.5h172v-92h-172q-62 0 -100.5 39t-38.5 102q0 49 40 87t103 49l49 2l-8 53h-43l-129 375h-576l-131 -375h-176l531 1415h149l516 -1415h-43l29 -144h-172zM395 506h506l-250 715z" />
    <glyph glyph-name="aogonek" unicode="&#x105;" horiz-adv-x="1034" 
d="M911 709v-709h-39l23 -150h-174q-23 0 -38 -14.5t-15 -36.5q0 -23 15 -38t38 -15h182v-96h-182q-65 0 -106.5 41.5t-41.5 107.5q0 52 43 92.5t109 51.5l55 4l-6 53h-29v143q-157 -157 -360 -157q-133 0 -210 74.5t-77 193.5q0 175 178.5 286t471.5 93v72q0 85 -32 139.5
t-85 76t-127 21t-151.5 -19.5t-164.5 -52l-24 113q87 37 173.5 58.5t171 27t157 -13.5t127.5 -59.5t86.5 -113.5t31.5 -173zM748 248v282q-114 12 -211 -7.5t-157 -59.5t-93 -90t-33 -101q0 -74 52 -114.5t140 -40.5q94 0 165 33.5t137 97.5z" />
    <glyph glyph-name="Cacute" unicode="&#x106;" horiz-adv-x="1292" 
d="M834 1995l-17 -101q-6 -48 -19.5 -102.5t-32 -119t-26.5 -99.5h-110q6 31 33.5 153t33.5 181l15 88h123zM1190 72q-239 -99 -467 -99q-303 0 -451.5 188.5t-148.5 534.5t148.5 534.5t451.5 188.5q231 0 467 -98v-141q-274 90 -449 90q-217 0 -328.5 -145.5t-111.5 -428.5
q0 -284 111.5 -427.5t328.5 -143.5q175 0 449 86v-139z" />
    <glyph glyph-name="cacute" unicode="&#x107;" horiz-adv-x="952" 
d="M643 1806l-16 -100q-6 -48 -19.5 -103t-32 -119.5t-26.5 -99.5h-111q8 40 25 111t28 124.5t15 98.5l14 88h123zM879 41q-140 -55 -283 -55q-234 0 -367 146t-133 405t133 403.5t367 144.5q138 0 274 -47l-43 -125q-127 37 -215 37q-165 0 -255.5 -107.5t-90.5 -305.5
q0 -199 90.5 -306.5t255.5 -107.5q99 0 232 47z" />
    <glyph glyph-name="Cdotaccent" unicode="&#x10a;" horiz-adv-x="1292" 
d="M721 1602q-32 0 -55 23.5t-23 55.5q0 34 23 57t55 23q33 0 56.5 -23.5t23.5 -56.5q0 -32 -24 -55.5t-56 -23.5zM1190 72q-239 -99 -467 -99q-303 0 -451.5 188.5t-148.5 534.5t148.5 534.5t451.5 188.5q231 0 467 -98v-141q-274 90 -449 90q-217 0 -328.5 -145.5
t-111.5 -428.5q0 -284 111.5 -427.5t328.5 -143.5q175 0 449 86v-139z" />
    <glyph glyph-name="cdotaccent" unicode="&#x10b;" horiz-adv-x="952" 
d="M532 1413q-33 0 -56 23.5t-23 56.5q0 34 22.5 57t56.5 23q31 0 54.5 -23.5t23.5 -56.5q0 -32 -23.5 -56t-54.5 -24zM879 41q-140 -55 -283 -55q-234 0 -367 146t-133 405t133 403.5t367 144.5q138 0 274 -47l-43 -125q-127 37 -215 37q-165 0 -255.5 -107.5t-90.5 -305.5
q0 -199 90.5 -306.5t255.5 -107.5q99 0 232 47z" />
    <glyph glyph-name="Ccaron" unicode="&#x10c;" horiz-adv-x="1292" 
d="M430 1868l-4 96l285 -248l276 254l4 -96l-278 -266zM1190 72q-239 -99 -467 -99q-303 0 -451.5 188.5t-148.5 534.5t148.5 534.5t451.5 188.5q231 0 467 -98v-141q-274 90 -449 90q-217 0 -328.5 -145.5t-111.5 -428.5q0 -284 111.5 -427.5t328.5 -143.5q175 0 449 86
v-139z" />
    <glyph glyph-name="ccaron" unicode="&#x10d;" horiz-adv-x="952" 
d="M240 1679l-4 97l284 -248l279 254l2 -96l-279 -267zM879 41q-140 -55 -283 -55q-234 0 -367 146t-133 405t133 403.5t367 144.5q138 0 274 -47l-43 -125q-127 37 -215 37q-165 0 -255.5 -107.5t-90.5 -305.5q0 -199 90.5 -306.5t255.5 -107.5q99 0 232 47z" />
    <glyph glyph-name="Dcaron" unicode="&#x10e;" horiz-adv-x="1345" 
d="M244 1868l-4 96l284 -248l277 254l2 -96l-279 -266zM143 -6v1405h498q294 0 441 -181t147 -516q0 -341 -147 -524.5t-441 -183.5h-498zM641 145q203 0 306.5 140t103.5 417q0 547 -410 547h-319v-1104h319z" />
    <glyph glyph-name="dcaron" unicode="&#x10f;" horiz-adv-x="1099" 
d="M481 1419l-282 260l-4 97l284 -248l277 254l4 -96zM811 1411h166v-1411h-162l-4 102q-132 -116 -303 -116q-197 0 -301.5 145t-104.5 393t107.5 393.5t306.5 145.5q167 0 295 -113v461zM274 524q0 -192 75.5 -296.5t213.5 -104.5q77 0 141.5 28t106.5 64v619
q-40 37 -105 65.5t-143 28.5q-138 0 -213.5 -106t-75.5 -298z" />
    <glyph glyph-name="Dcroat" unicode="&#x110;" horiz-adv-x="1345" 
d="M641 1399q294 0 441 -181t147 -516q0 -341 -147 -524.5t-441 -183.5h-498v590h-186v174h186v641h498zM641 145q203 0 306.5 140t103.5 417q0 547 -410 547h-319v-491h274v-174h-274v-439h319z" />
    <glyph glyph-name="dcroat" unicode="&#x111;" horiz-adv-x="1099" 
d="M1196 1260v-105h-219v-1155h-162l-4 102q-132 -116 -303 -116q-197 0 -301.5 145t-104.5 393t107.5 393.5t306.5 145.5q167 0 295 -113v205h-233v105h233v151h166v-151h219zM274 524q0 -192 75.5 -296.5t213.5 -104.5q77 0 141.5 28t106.5 64v619q-40 37 -105 65.5
t-143 28.5q-138 0 -213.5 -106t-75.5 -298z" />
    <glyph glyph-name="Emacron" unicode="&#x112;" horiz-adv-x="1126" 
d="M264 1798h619v-139h-619v139zM1028 1249h-706v-450h612v-150h-612v-504h716v-151h-895v1405h885v-150z" />
    <glyph glyph-name="emacron" unicode="&#x113;" horiz-adv-x="1112" 
d="M297 1491h594v-141h-594v141zM274 514q5 -196 95 -293.5t280 -97.5q160 0 285 45l41 -119q-100 -38 -176.5 -49.5t-177.5 -11.5q-257 0 -388 143t-131 406q0 258 125.5 407.5t345.5 149.5q86 0 156.5 -28.5t119.5 -80.5t80 -124t41.5 -160t0.5 -187h-697zM825 621
q0 155 -68.5 253.5t-185.5 98.5q-131 0 -208.5 -93.5t-88.5 -258.5h551z" />
    <glyph glyph-name="Edotaccent" unicode="&#x116;" horiz-adv-x="1126" 
d="M588 1602q-32 0 -56 23.5t-24 55.5q0 33 23.5 56.5t56.5 23.5t56.5 -23.5t23.5 -56.5q0 -32 -24 -55.5t-56 -23.5zM1028 1249h-706v-450h612v-150h-612v-504h716v-151h-895v1405h885v-150z" />
    <glyph glyph-name="edotaccent" unicode="&#x117;" horiz-adv-x="1112" 
d="M551 1413q-33 0 -56.5 23.5t-23.5 56.5q0 34 23 57t57 23q31 0 54.5 -23.5t23.5 -56.5q0 -32 -23.5 -56t-54.5 -24zM274 514q5 -196 95 -293.5t280 -97.5q160 0 285 45l41 -119q-100 -38 -176.5 -49.5t-177.5 -11.5q-257 0 -388 143t-131 406q0 258 125.5 407.5
t345.5 149.5q86 0 156.5 -28.5t119.5 -80.5t80 -124t41.5 -160t0.5 -187h-697zM825 621q0 155 -68.5 253.5t-185.5 98.5q-131 0 -208.5 -93.5t-88.5 -258.5h551z" />
    <glyph glyph-name="Eogonek" unicode="&#x118;" horiz-adv-x="1126" 
d="M322 145h716v-292h-182q-22 0 -36.5 -15t-14.5 -37q0 -23 14.5 -38t36.5 -15h182v-94h-182q-64 0 -104.5 41t-40.5 106q0 53 41.5 93.5t107.5 50.5l55 2v47h-772v1405h885v-150h-706v-450h612v-150h-612v-504z" />
    <glyph glyph-name="eogonek" unicode="&#x119;" horiz-adv-x="1112" 
d="M934 168l41 -119q-151 -58 -301 -61l31 -160h-183q-22 0 -36.5 -15t-14.5 -38t14.5 -38.5t36.5 -15.5h183v-94h-183q-64 0 -105.5 41.5t-41.5 106.5q0 52 42.5 92t108.5 51l56 2l-11 70q-233 13 -351 155t-118 392q0 258 125.5 407.5t345.5 149.5q86 0 156.5 -28.5
t119.5 -80.5t80 -124t41.5 -160t0.5 -187h-697q5 -196 95 -293.5t280 -97.5q160 0 285 45zM571 973q-131 0 -208.5 -93.5t-88.5 -258.5h551q0 155 -68.5 253.5t-185.5 98.5z" />
    <glyph glyph-name="Ecaron" unicode="&#x11a;" horiz-adv-x="1126" 
d="M297 1868l-4 96l285 -248l276 254l4 -96l-278 -266zM1028 1249h-706v-450h612v-150h-612v-504h716v-151h-895v1405h885v-150z" />
    <glyph glyph-name="ecaron" unicode="&#x11b;" horiz-adv-x="1112" 
d="M274 1690l-4 110l269 -258l278 254l2 -110l-278 -267zM274 514q5 -196 95 -293.5t280 -97.5q160 0 285 45l41 -119q-100 -38 -176.5 -49.5t-177.5 -11.5q-257 0 -388 143t-131 406q0 258 125.5 407.5t345.5 149.5q86 0 156.5 -28.5t119.5 -80.5t80 -124t41.5 -160
t0.5 -187h-697zM825 621q0 155 -68.5 253.5t-185.5 98.5q-131 0 -208.5 -93.5t-88.5 -258.5h551z" />
    <glyph glyph-name="Gbreve" unicode="&#x11e;" horiz-adv-x="1331" 
d="M717 1587q-128 0 -240 70v106q106 -66 240 -69q130 0 241 57v-106q-110 -61 -241 -58zM1010 682h178v-610q-235 -99 -465 -99q-303 0 -451.5 188.5t-148.5 534.5t148.5 534.5t451.5 188.5q223 0 459 -98v-145q-248 94 -441 94q-217 0 -328.5 -145.5t-111.5 -428.5
q0 -281 111 -426t315 -145q136 0 283 49v508z" />
    <glyph glyph-name="gbreve" unicode="&#x11f;" horiz-adv-x="1099" 
d="M774 1456q-108 -60 -242 -57q-127 0 -237 69v107q103 -67 240 -70q130 0 239 58v-107zM811 1044h166v-1075q0 -133 -69 -225.5t-181.5 -130t-257 -29.5t-293.5 66l29 123q110 -44 218.5 -54t194.5 12.5t139.5 85t53.5 156.5v125q-127 -112 -295 -112q-197 0 -305.5 146
t-108.5 392q0 249 104.5 395t301.5 146q170 0 299 -123h4v102zM274 524q0 -192 75.5 -296.5t213.5 -104.5q77 0 141.5 28t106.5 64v604q-42 36 -106.5 64t-141.5 28q-137 0 -213 -102.5t-76 -284.5z" />
    <glyph glyph-name="Gdotaccent" unicode="&#x120;" horiz-adv-x="1331" 
d="M717 1602q-32 0 -56 23.5t-24 55.5q0 33 23.5 56.5t56.5 23.5q32 0 55 -23t23 -57q0 -32 -23 -55.5t-55 -23.5zM1010 682h178v-610q-235 -99 -465 -99q-303 0 -451.5 188.5t-148.5 534.5t148.5 534.5t451.5 188.5q223 0 459 -98v-145q-248 94 -441 94
q-217 0 -328.5 -145.5t-111.5 -428.5q0 -281 111 -426t315 -145q136 0 283 49v508z" />
    <glyph glyph-name="gdotaccent" unicode="&#x121;" horiz-adv-x="1099" 
d="M532 1413q-33 0 -56 23.5t-23 56.5q0 34 22.5 57t56.5 23q31 0 54.5 -23.5t23.5 -56.5q0 -32 -23.5 -56t-54.5 -24zM811 1044h166v-1075q0 -133 -69 -225.5t-181.5 -130t-257 -29.5t-293.5 66l29 123q110 -44 218.5 -54t194.5 12.5t139.5 85t53.5 156.5v125
q-127 -112 -295 -112q-197 0 -305.5 146t-108.5 392q0 249 104.5 395t301.5 146q170 0 299 -123h4v102zM274 524q0 -192 75.5 -296.5t213.5 -104.5q77 0 141.5 28t106.5 64v604q-42 36 -106.5 64t-141.5 28q-137 0 -213 -102.5t-76 -284.5z" />
    <glyph glyph-name="uni0122" unicode="&#x122;" horiz-adv-x="1331" 
d="M1010 682h178v-610q-235 -99 -465 -99q-303 0 -451.5 188.5t-148.5 534.5t148.5 534.5t451.5 188.5q223 0 459 -98v-145q-248 94 -441 94q-217 0 -328.5 -145.5t-111.5 -428.5q0 -281 111 -426t315 -145q136 0 283 49v508zM811 -274q-13 -107 -45.5 -243t-60.5 -214h-105
q3 17 23 107.5t36 177t25 167.5l10 76h127z" />
    <glyph glyph-name="uni0123" unicode="&#x123;" horiz-adv-x="1099" 
d="M420 1479q-9 128 -12 211l-11 153l121 -12l12 -141q0 -48 7 -158q24 7 45 4q38 -4 62.5 -34.5t19.5 -67.5q-3 -39 -35 -64t-74 -20q-51 6 -88.5 41.5t-46.5 87.5zM811 1044h166v-1075q0 -133 -69 -225.5t-181.5 -130t-257 -29.5t-293.5 66l29 123q110 -44 218.5 -54
t194.5 12.5t139.5 85t53.5 156.5v125q-127 -112 -295 -112q-197 0 -305.5 146t-108.5 392q0 249 104.5 395t301.5 146q170 0 299 -123h4v102zM274 524q0 -192 75.5 -296.5t213.5 -104.5q77 0 141.5 28t106.5 64v604q-42 36 -106.5 64t-141.5 28q-137 0 -213 -102.5
t-76 -284.5z" />
    <glyph glyph-name="Hbar" unicode="&#x126;" horiz-adv-x="1331" 
d="M1280 1100v-129h-92v-977h-178v655h-688v-655h-179v977h-100v129h100v299h179v-299h688v299h178v-299h92zM1010 799v172h-688v-172h688z" />
    <glyph glyph-name="hbar" unicode="&#x127;" horiz-adv-x="1091" 
d="M643 1055q153 3 239.5 -83.5t86.5 -254.5v-717h-164v666q0 222 -201 225q-146 2 -317 -133v-758h-164v1176h-184v110h184v113h164v-113h213v-110h-213v-261q174 140 356 140z" />
    <glyph glyph-name="Imacron" unicode="&#x12a;" horiz-adv-x="464" 
d="M-57 1872h616v-141h-616v141zM143 -6v1405h179v-1405h-179z" />
    <glyph glyph-name="imacron" unicode="&#x12b;" horiz-adv-x="464" 
d="M-63 1483h618v-133h-618v133zM287 1016v-1016h-164v1016h164z" />
    <glyph glyph-name="Iogonek" unicode="&#x12e;" horiz-adv-x="464" 
d="M92 -250q0 -23 14.5 -38t36.5 -15h183v-94h-183q-65 0 -106 41.5t-41 105.5q0 53 42.5 94.5t108.5 51.5l56 2l-17 96h-43v1405h179v-1405h-33l37 -191h-183q-22 0 -36.5 -15t-14.5 -38z" />
    <glyph glyph-name="iogonek" unicode="&#x12f;" horiz-adv-x="385" 
d="M188 1149q-38 0 -65 28t-27 66q0 37 27 64.5t65 27.5t66.5 -27.5t28.5 -64.5q0 -38 -28.5 -66t-66.5 -28zM51 -250q0 -23 15 -38t38 -15h183v-94h-183q-64 0 -105.5 41.5t-41.5 105.5q0 53 43 94.5t109 51.5l55 2l-17 102h-36v983h163v-983h-26l39 -197h-183
q-23 0 -38 -15t-15 -38z" />
    <glyph glyph-name="Idotaccent" unicode="&#x130;" horiz-adv-x="464" 
d="M242 1602q-32 0 -56 23.5t-24 55.5q0 33 23.5 56.5t56.5 23.5q32 0 54.5 -23t22.5 -57q0 -32 -22.5 -55.5t-54.5 -23.5zM143 -6v1405h179v-1405h-179z" />
    <glyph glyph-name="dotlessi" unicode="&#x131;" horiz-adv-x="409" 
d="M287 1016v-1016h-164v1016h164z" />
    <glyph glyph-name="uni0136" unicode="&#x136;" horiz-adv-x="1263" 
d="M535 707l671 -713h-233l-651 704v-704h-179v1405h179v-697l647 697h221zM526 -227l9 77h129l-11 -73q-12 -104 -44.5 -236.5t-61.5 -220.5h-105q4 21 23.5 109.5t35.5 175.5t25 168z" />
    <glyph glyph-name="uni0137" unicode="&#x137;" horiz-adv-x="1017" 
d="M438 690l543 -690h-201l-493 649v-649h-164v1399h164v-694l491 323h201zM424 -285l10 78h127l-10 -74q-12 -106 -45 -240t-62 -216h-104q4 22 23.5 109.5t35.5 174.5t25 168z" />
    <glyph glyph-name="Lacute" unicode="&#x139;" horiz-adv-x="1064" 
d="M907 1995l-16 -101q-6 -48 -19.5 -102.5t-32 -119t-26.5 -99.5h-111q8 40 25 111t28 124.5t15 98.5l14 88h123zM322 1399v-1254h688v-151h-867v1405h179z" />
    <glyph glyph-name="lacute" unicode="&#x13a;" horiz-adv-x="385" 
d="M354 2028l-16 -101q-5 -49 -17.5 -101t-33 -122.5t-27.5 -97.5h-110q8 37 25.5 109t27.5 124.5t14 99.5l16 89h121zM274 0h-163v1399h163v-1399z" />
    <glyph glyph-name="uni013B" unicode="&#x13b;" horiz-adv-x="1064" 
d="M322 1399v-1254h688v-151h-867v1405h179zM614 -319q-14 -105 -46.5 -239.5t-59.5 -217.5h-105q4 21 23.5 110t35.5 176t25 168l9 76h129z" />
    <glyph glyph-name="uni013C" unicode="&#x13c;" horiz-adv-x="385" 
d="M274 0h-163v1399h163v-1399zM244 -227q-14 -105 -46.5 -238.5t-60.5 -218.5h-104q4 21 23.5 109.5t35.5 175.5t25 168l8 77h129z" />
    <glyph glyph-name="Lcaron" unicode="&#x13d;" horiz-adv-x="1064" 
d="M504 1804l-4 97l284 -248l279 254l2 -97l-279 -264zM322 1399v-1254h688v-151h-867v1405h179z" />
    <glyph glyph-name="lcaron" unicode="&#x13e;" horiz-adv-x="385" 
d="M-76 1903l-4 110l270 -260l277 254l2 -111l-279 -264zM274 0h-163v1399h163v-1399z" />
    <glyph glyph-name="Lslash" unicode="&#x141;" horiz-adv-x="1064" 
d="M322 145h688v-151h-867v647l-139 -119h-184l323 275v602h179v-449l186 158h182l-368 -315v-648z" />
    <glyph glyph-name="lslash" unicode="&#x142;" horiz-adv-x="464" 
d="M676 1075l-354 -303v-778h-179v627l-155 -134h-183l338 289v623h179v-469l170 145h184z" />
    <glyph glyph-name="Nacute" unicode="&#x143;" horiz-adv-x="1359" 
d="M778 1894q-5 -49 -18 -102.5t-31.5 -119.5t-26.5 -99h-110q8 43 24 112t26.5 123t14.5 99l17 88h123zM1051 1399h166v-1405h-173l-739 1093l2 -1093h-164v1405h162l750 -1110z" />
    <glyph glyph-name="nacute" unicode="&#x144;" horiz-adv-x="1091" 
d="M662 1806l-19 -100q-5 -49 -18 -103t-31.5 -120t-26.5 -99h-110q8 43 24 112t26.5 123t14.5 99l17 88h123zM287 0h-164v1030h164v-119q100 73 186.5 106.5t183.5 33.5q312 0 312 -334v-717h-164v666q0 225 -211 225q-143 0 -307 -133v-758z" />
    <glyph glyph-name="uni0145" unicode="&#x145;" horiz-adv-x="1359" 
d="M1051 1399h166v-1405h-173l-739 1093l2 -1093h-164v1405h162l750 -1110zM575 -340l11 78h127l-11 -74q-12 -107 -45 -241.5t-61 -215.5h-104q4 19 23.5 109t35 176.5t24.5 167.5z" />
    <glyph glyph-name="uni0146" unicode="&#x146;" horiz-adv-x="1091" 
d="M287 0h-164v1030h164v-119q100 73 186.5 106.5t183.5 33.5q312 0 312 -334v-717h-164v666q0 225 -211 225q-143 0 -307 -133v-758zM575 -215q-14 -105 -46.5 -239.5t-59.5 -217.5h-104q4 21 23.5 109.5t35.5 175.5t25 168l8 78h129z" />
    <glyph glyph-name="Ncaron" unicode="&#x147;" horiz-adv-x="1359" 
d="M676 1608l-283 260l-4 102l285 -248l276 254l4 -102zM1051 1399h166v-1405h-173l-739 1093l2 -1093h-164v1405h162l750 -1110z" />
    <glyph glyph-name="ncaron" unicode="&#x148;" horiz-adv-x="1091" 
d="M260 1616l-4 110l268 -258l277 254l4 -110l-279 -266zM287 0h-164v1030h164v-119q100 73 186.5 106.5t183.5 33.5q312 0 312 -334v-717h-164v666q0 225 -211 225q-143 0 -307 -133v-758z" />
    <glyph glyph-name="Eng" unicode="&#x14a;" horiz-adv-x="1359" 
d="M1051 1405h166v-1405l-13 -74q-14 -107 -45.5 -241t-58.5 -215h-156q5 28 25 111t38 171.5t27 169.5l10 78l-739 1094l2 -1094h-164v1405h162l750 -1108z" />
    <glyph glyph-name="eng" unicode="&#x14b;" horiz-adv-x="1091" 
d="M657 1051q312 0 312 -334v-717l-11 -74q-14 -108 -46.5 -243t-59.5 -213h-143q5 24 23.5 110.5t35 174t27.5 167.5l10 78v666q0 225 -211 225q-143 0 -307 -133v-758h-164v1030h164v-119q100 73 186.5 106.5t183.5 33.5z" />
    <glyph glyph-name="Omacron" unicode="&#x14c;" horiz-adv-x="1421" 
d="M313 1774h906v-142h-906v142zM711 -27q-292 0 -440 191.5t-148 537.5q0 339 148 528t440 189q291 0 439 -188.5t148 -528.5q0 -346 -147.5 -537.5t-439.5 -191.5zM711 125q91 0 162 31t116.5 83.5t75 128t41.5 157t12 177.5q0 280 -102.5 424t-304.5 144t-306 -144
t-104 -424q0 -96 12 -177.5t42 -157t75.5 -128t117 -83.5t163.5 -31z" />
    <glyph glyph-name="omacron" unicode="&#x14d;" horiz-adv-x="1126" 
d="M262 1536h619v-141h-619v141zM563 -14q-221 0 -341 148t-120 390q0 244 120 391.5t341 147.5t341 -147.5t120 -391.5q0 -242 -120 -390t-341 -148zM563 940q-78 0 -138 -32.5t-96.5 -90.5t-54.5 -132t-18 -161t18 -160.5t54.5 -131t96.5 -90.5t138 -33t137.5 33t95 91
t53 131t17.5 160q0 88 -17.5 161.5t-53 131.5t-95 90.5t-137.5 32.5z" />
    <glyph glyph-name="Ohungarumlaut" unicode="&#x150;" horiz-adv-x="1421" 
d="M705 2083q-11 -83 -29.5 -166t-42 -173t-31.5 -128h-110q73 344 90 465l10 65h121zM1055 2087q-6 -58 -22 -132t-42 -176t-39 -163h-110q70 332 90 467l10 63h121zM711 -27q-292 0 -440 191.5t-148 537.5q0 339 148 528t440 189q291 0 439 -188.5t148 -528.5
q0 -346 -147.5 -537.5t-439.5 -191.5zM711 125q91 0 162 31t116.5 83.5t75 128t41.5 157t12 177.5q0 280 -102.5 424t-304.5 144t-306 -144t-104 -424q0 -96 12 -177.5t42 -157t75.5 -128t117 -83.5t163.5 -31z" />
    <glyph glyph-name="ohungarumlaut" unicode="&#x151;" horiz-adv-x="1126" 
d="M545 1894q-11 -83 -29.5 -166t-42 -173t-31.5 -128h-110q73 344 90 465l10 66h121zM895 1898q-6 -58 -22 -131.5t-41.5 -176.5t-38.5 -163h-111q70 332 90 467l10 64h121zM563 -14q-221 0 -341 148t-120 390q0 244 120 391.5t341 147.5t341 -147.5t120 -391.5
q0 -242 -120 -390t-341 -148zM563 940q-78 0 -138 -32.5t-96.5 -90.5t-54.5 -132t-18 -161t18 -160.5t54.5 -131t96.5 -90.5t138 -33t137.5 33t95 91t53 131t17.5 160q0 88 -17.5 161.5t-53 131.5t-95 90.5t-137.5 32.5z" />
    <glyph glyph-name="OE" unicode="&#x152;" horiz-adv-x="2134" 
d="M1294 145h717v-151h-895v131q-149 -152 -405 -152q-292 0 -440 191.5t-148 537.5q0 339 148 528t440 189q256 0 405 -149v129h885v-150h-707v-438v-12h613v-150h-609q-1 -9 -2 -28.5t-2 -28.5v-447zM711 125q104 0 181.5 39.5t124 110.5t70 158t29.5 194v151
q-27 492 -405 492q-202 0 -306 -144t-104 -424q0 -96 12 -177.5t42 -157t75.5 -128t117 -83.5t163.5 -31z" />
    <glyph glyph-name="oe" unicode="&#x153;" horiz-adv-x="1847" 
d="M1409 123q160 0 285 45l41 -119q-100 -38 -177 -49.5t-178 -11.5q-306 0 -434 205q-122 -207 -383 -207q-221 0 -341 148t-120 390q0 244 120 391.5t341 147.5q251 0 375 -193q59 108 160 166t235 58q86 0 156.5 -28.5t119.5 -80.5t80 -124t41.5 -160t0.5 -187h-697
q5 -196 95 -293.5t280 -97.5zM1331 973q-131 0 -208.5 -93.5t-88.5 -258.5h551q0 155 -68.5 253.5t-185.5 98.5zM563 109q140 0 215 99t86 261q-2 23 -2 68q0 37 2 53q-13 158 -87.5 254t-213.5 96q-78 0 -138 -32.5t-96.5 -90.5t-54.5 -132t-18 -161t18 -160.5t54.5 -131
t96.5 -90.5t138 -33z" />
    <glyph glyph-name="Racute" unicode="&#x154;" horiz-adv-x="1257" 
d="M655 1894q-5 -49 -17.5 -102.5t-31 -120t-26.5 -98.5h-113q8 40 25.5 111t28 124.5t14.5 98.5l16 88h121zM844 582l356 -588h-203l-338 565h-337v-565h-179v1405h574q195 0 314.5 -114.5t119.5 -305.5q0 -161 -82 -265t-225 -132zM322 711h380q123 0 197 70t74 198
q0 125 -76 197.5t-195 72.5h-380v-538z" />
    <glyph glyph-name="racute" unicode="&#x155;" horiz-adv-x="684" 
d="M575 1806l-16 -100q-5 -49 -18 -103t-31.5 -120t-26.5 -99h-110q8 43 24 112t26.5 123t14.5 99l17 88h120zM287 0h-164v1030h164v-182q75 97 175 144.5t208 47.5v-133q-110 7 -224 -55t-159 -133v-719z" />
    <glyph glyph-name="uni0156" unicode="&#x156;" horiz-adv-x="1257" 
d="M844 582l356 -588h-203l-338 565h-337v-565h-179v1405h574q195 0 314.5 -114.5t119.5 -305.5q0 -161 -82 -265t-225 -132zM322 711h380q123 0 197 70t74 198q0 125 -76 197.5t-195 72.5h-380v-538zM553 -244l8 76h129l-10 -74q-14 -105 -46.5 -238t-60.5 -218h-104
q4 21 23.5 110t35.5 176t25 168z" />
    <glyph glyph-name="uni0157" unicode="&#x157;" horiz-adv-x="684" 
d="M287 0h-164v1030h164v-182q75 97 175 144.5t208 47.5v-133q-110 7 -224 -55t-159 -133v-719zM256 -209q-14 -106 -46.5 -241.5t-59.5 -215.5h-105q3 16 23.5 107.5t36 178t24.5 167.5l8 76h129z" />
    <glyph glyph-name="Rcaron" unicode="&#x158;" horiz-adv-x="1257" 
d="M553 1608l-283 260l-4 96l285 -248l276 254l2 -96zM844 582l356 -588h-203l-338 565h-337v-565h-179v1405h574q195 0 314.5 -114.5t119.5 -305.5q0 -161 -82 -265t-225 -132zM322 711h380q123 0 197 70t74 198q0 125 -76 197.5t-195 72.5h-380v-538z" />
    <glyph glyph-name="rcaron" unicode="&#x159;" horiz-adv-x="684" 
d="M172 1661l-4 113l268 -261l277 254l4 -110l-279 -266zM287 0h-164v1030h164v-182q75 97 175 144.5t208 47.5v-133q-110 7 -224 -55t-159 -133v-719z" />
    <glyph glyph-name="Sacute" unicode="&#x15a;" horiz-adv-x="1175" 
d="M721 1995l-16 -101q-6 -48 -19.5 -102.5t-32 -119t-26.5 -99.5h-111q8 40 25 111t28 124.5t15 98.5l14 88h123zM588 -27q-261 0 -500 68v145q294 -65 492 -65q163 0 245 72.5t82 173.5q0 35 -11 65t-26.5 52t-46 43.5t-54.5 35t-69 30.5t-71.5 25.5t-79.5 24.5
q-56 18 -91 30t-86.5 34t-84 42.5t-70 52.5t-58.5 67t-35.5 83t-14.5 103q0 181 128 272.5t351 91.5q234 0 471 -69v-152q-271 74 -469 74q-301 0 -301 -217q0 -45 20 -82t44.5 -60t78.5 -47.5t87.5 -36t105.5 -33.5q11 -3 16 -5q43 -13 71 -22t69.5 -24t69 -28.5t62 -33.5
t57.5 -41t46.5 -49.5t37 -59.5t22.5 -70.5t9 -83.5q0 -194 -136 -300t-361 -106z" />
    <glyph glyph-name="sacute" unicode="&#x15b;" horiz-adv-x="983" 
d="M627 1806l-17 -100q-6 -48 -19.5 -103t-32 -119.5t-26.5 -99.5h-110q6 31 33.5 153t33.5 181l15 88h123zM479 -29q-198 0 -389 72v127q94 -35 192.5 -52.5t166.5 -17.5q75 0 128.5 17.5t78.5 46t35.5 54.5t10.5 52q0 23 -8 43.5t-18.5 35.5t-34 30.5t-38.5 24.5t-50 22.5
t-51.5 19t-57.5 19.5q-43 14 -67.5 23t-64.5 26t-64 32t-52.5 39.5t-44.5 50.5t-27 61.5t-11 76.5q0 142 110.5 224.5t308.5 82.5q165 0 338 -67v-127q-167 67 -299 67q-74 0 -130 -16t-85 -42t-43 -53.5t-14 -56.5q0 -39 19 -68.5t57.5 -51.5t76.5 -37.5t96 -34.5
q4 -1 6.5 -2t6 -2t6.5 -2q41 -14 67 -24t64 -26.5t62 -32.5t51.5 -39.5t43 -48.5t26 -59t10.5 -73q0 -145 -113.5 -229.5t-298.5 -84.5z" />
    <glyph glyph-name="Scedilla" unicode="&#x15e;" horiz-adv-x="1175" 
d="M590 -27l-4 -22q-15 -109 -35 -187l188 -2q60 -9 106 -50t46 -93q0 -62 -43.5 -105.5t-104.5 -43.5h-315v94h315q22 0 37 16t15 39q0 21 -15.5 36t-36.5 15h-315q4 14 15.5 53.5t16 58t12.5 63.5t15 102l5 28q-206 10 -404 66v145q294 -65 492 -65q163 0 245 72.5
t82 173.5q0 35 -11 65t-26.5 52t-46 43.5t-54.5 35t-69 30.5t-71.5 25.5t-79.5 24.5q-56 18 -91 30t-86.5 34t-84 42.5t-70 52.5t-58.5 67t-35.5 83t-14.5 103q0 181 128 272.5t351 91.5q234 0 471 -69v-152q-271 74 -469 74q-301 0 -301 -217q0 -45 20 -82t44.5 -60
t78.5 -47.5t87.5 -36t105.5 -33.5q11 -3 16 -5q43 -13 71 -22t69.5 -24t69 -28.5t62 -33.5t57.5 -41t46.5 -49.5t37 -59.5t22.5 -70.5t9 -83.5q0 -194 -135.5 -300t-359.5 -106z" />
    <glyph glyph-name="scedilla" unicode="&#x15f;" horiz-adv-x="983" 
d="M674 -272q58 -9 103.5 -50.5t45.5 -93.5q0 -63 -42.5 -106t-104.5 -43h-314v94h314q23 0 38 16t15 39q0 21 -15 36t-38 15h-314q5 17 16 54t16 57t13 64.5t15 101.5l6 61q-172 6 -338 70v127q94 -35 192.5 -52.5t166.5 -17.5q75 0 128.5 17.5t78.5 46t35.5 54.5t10.5 52
q0 23 -8 43.5t-18.5 35.5t-34 30.5t-38.5 24.5t-50 22.5t-51.5 19t-57.5 19.5q-43 14 -67.5 23t-64.5 26t-64 32t-52.5 39.5t-44.5 50.5t-27 61.5t-11 76.5q0 142 110.5 224.5t308.5 82.5q165 0 338 -67v-127q-167 67 -299 67q-74 0 -130 -16t-85 -42t-43 -53.5t-14 -56.5
q0 -39 19 -68.5t57.5 -51.5t76.5 -37.5t96 -34.5q4 -1 6.5 -2t6 -2t6.5 -2q41 -14 67 -24t64 -26.5t62 -32.5t51.5 -39.5t43 -48.5t26 -59t10.5 -73q0 -135 -99 -218t-264 -94l-8 -57q-20 -129 -35 -186z" />
    <glyph glyph-name="Scaron" unicode="&#x160;" horiz-adv-x="1175" 
d="M317 1868l-4 96l285 -248l279 254l2 -96l-279 -266zM588 -27q-261 0 -500 68v145q294 -65 492 -65q163 0 245 72.5t82 173.5q0 35 -11 65t-26.5 52t-46 43.5t-54.5 35t-69 30.5t-71.5 25.5t-79.5 24.5q-56 18 -91 30t-86.5 34t-84 42.5t-70 52.5t-58.5 67t-35.5 83
t-14.5 103q0 181 128 272.5t351 91.5q234 0 471 -69v-152q-271 74 -469 74q-301 0 -301 -217q0 -45 20 -82t44.5 -60t78.5 -47.5t87.5 -36t105.5 -33.5q11 -3 16 -5q43 -13 71 -22t69.5 -24t69 -28.5t62 -33.5t57.5 -41t46.5 -49.5t37 -59.5t22.5 -70.5t9 -83.5
q0 -194 -136 -300t-361 -106z" />
    <glyph glyph-name="scaron" unicode="&#x161;" horiz-adv-x="983" 
d="M231 1661l-4 113l269 -261l278 254l2 -110l-278 -266zM479 -29q-198 0 -389 72v127q94 -35 192.5 -52.5t166.5 -17.5q75 0 128.5 17.5t78.5 46t35.5 54.5t10.5 52q0 23 -8 43.5t-18.5 35.5t-34 30.5t-38.5 24.5t-50 22.5t-51.5 19t-57.5 19.5q-43 14 -67.5 23t-64.5 26
t-64 32t-52.5 39.5t-44.5 50.5t-27 61.5t-11 76.5q0 142 110.5 224.5t308.5 82.5q165 0 338 -67v-127q-167 67 -299 67q-74 0 -130 -16t-85 -42t-43 -53.5t-14 -56.5q0 -39 19 -68.5t57.5 -51.5t76.5 -37.5t96 -34.5q4 -1 6.5 -2t6 -2t6.5 -2q41 -14 67 -24t64 -26.5
t62 -32.5t51.5 -39.5t43 -48.5t26 -59t10.5 -73q0 -145 -113.5 -229.5t-298.5 -84.5z" />
    <glyph glyph-name="uni0162" unicode="&#x162;" horiz-adv-x="1120" 
d="M606 -6l-6 -47q-20 -132 -35 -187l189 -4q58 -8 103.5 -49t45.5 -94q0 -61 -42.5 -104.5t-102.5 -43.5h-316v95h316q22 0 36.5 15.5t14.5 37.5t-14.5 37.5t-36.5 15.5h-316q5 17 16 54t16 57t13 64.5t15 101.5l6 51h-37v1255h-403v150h985v-150h-404v-1255h-43z" />
    <glyph glyph-name="uni0163" unicode="&#x163;" horiz-adv-x="595" 
d="M610 -262q60 -9 106 -50.5t46 -93.5q0 -62 -43.5 -105.5t-104.5 -43.5h-315v94h315q22 0 37 16t15 39q0 21 -15.5 36.5t-36.5 15.5h-315q4 15 15.5 53.5t16 57.5t12.5 63.5t15 101.5l7 51q-105 7 -152 68.5t-47 177.5v670h-146l29 127h117v256l164 45v-301h233l-28 -127
h-205v-656q0 -133 125 -133q74 0 100 13v-125q-49 -9 -90 -11l-8 -51q-14 -107 -35 -186z" />
    <glyph glyph-name="Tcaron" unicode="&#x164;" horiz-adv-x="1120" 
d="M270 1868l-4 96l285 -248l276 254l4 -96l-278 -266zM1053 1249h-404v-1255h-178v1255h-403v150h985v-150z" />
    <glyph glyph-name="tcaron" unicode="&#x165;" horiz-adv-x="595" 
d="M180 1716l-2 111l268 -260l277 254l2 -111l-279 -264zM330 889v-656q0 -133 125 -133q74 0 100 13v-125q-81 -15 -162 -15q-121 0 -174 61.5t-53 184.5v670h-146l29 127h117v256l164 45v-301h233l-28 -127h-205z" />
    <glyph glyph-name="Tbar" unicode="&#x166;" horiz-adv-x="1120" 
d="M1053 1249h-404v-358h258v-150h-258v-747h-178v747h-266v150h266v358h-403v150h985v-150z" />
    <glyph glyph-name="tbar" unicode="&#x167;" horiz-adv-x="595" 
d="M330 233q0 -133 125 -133q74 0 100 13v-125q-81 -15 -162 -15q-121 0 -174 61.5t-53 184.5v342h-117v123h117v205h-146l29 127h117v256l164 45v-301h233l-28 -127h-205v-205h205v-123h-205v-328z" />
    <glyph glyph-name="Umacron" unicode="&#x16a;" horiz-adv-x="1339" 
d="M375 1772h594v-140h-594v140zM322 498q0 -373 348 -373q66 0 119.5 13.5t89 35t61.5 54t40.5 64t22.5 71.5t10.5 70t2.5 65v901h180v-901q0 -263 -136 -394t-390 -131q-255 0 -391 131t-136 394v901h179v-901z" />
    <glyph glyph-name="umacron" unicode="&#x16b;" horiz-adv-x="1091" 
d="M844 1536v-141h-572v141h572zM805 1030h164v-1036h-164v123q-181 -144 -371 -144q-154 0 -232.5 85t-78.5 249v723h164v-672q0 -225 213 -225q148 0 305 131v766z" />
    <glyph glyph-name="Uring" unicode="&#x16e;" horiz-adv-x="1339" 
d="M643 1606q-57 0 -97 40.5t-40 98.5q0 57 40 97t97 40t97 -40t40 -97q0 -58 -40 -98.5t-97 -40.5zM643 1675q30 0 50 21t20 53q0 29 -20.5 49.5t-49.5 20.5t-48.5 -20.5t-19.5 -49.5q0 -32 19.5 -53t48.5 -21zM322 498q0 -373 348 -373q66 0 119.5 13.5t89 35t61.5 54
t40.5 64t22.5 71.5t10.5 70t2.5 65v901h180v-901q0 -263 -136 -394t-390 -131q-255 0 -391 131t-136 394v901h179v-901z" />
    <glyph glyph-name="uring" unicode="&#x16f;" horiz-adv-x="1091" 
d="M520 1417q-57 0 -97 40.5t-40 98.5q0 57 40 97.5t97 40.5t97 -40.5t40 -97.5q0 -58 -40 -98.5t-97 -40.5zM520 1630q-29 0 -49 -20t-20 -49q0 -32 20 -53t49 -21t48.5 21t19.5 53q0 29 -19.5 49t-48.5 20zM805 1030h164v-1036h-164v123q-181 -144 -371 -144
q-154 0 -232.5 85t-78.5 249v723h164v-672q0 -225 213 -225q148 0 305 131v766z" />
    <glyph glyph-name="Uhungarumlaut" unicode="&#x170;" horiz-adv-x="1339" 
d="M637 2083q-11 -83 -29 -165.5t-41.5 -174t-31.5 -127.5h-111q73 344 90 465l10 65h121zM989 2087q-9 -76 -50.5 -249t-51.5 -222h-113q70 332 90 467l10 63h121zM322 498q0 -373 348 -373q66 0 119.5 13.5t89 35t61.5 54t40.5 64t22.5 71.5t10.5 70t2.5 65v901h180v-901
q0 -263 -136 -394t-390 -131q-255 0 -391 131t-136 394v901h179v-901z" />
    <glyph glyph-name="uhungarumlaut" unicode="&#x171;" horiz-adv-x="1091" 
d="M514 1894q-11 -83 -29 -165.5t-41.5 -174t-31.5 -127.5h-111q73 344 90 465l10 66h121zM864 1898q-6 -58 -22 -131.5t-41.5 -176.5t-38.5 -163h-111q70 332 90 467l11 64h120zM805 1030h164v-1036h-164v123q-181 -144 -371 -144q-154 0 -232.5 85t-78.5 249v723h164v-672
q0 -225 213 -225q148 0 305 131v766z" />
    <glyph glyph-name="Uogonek" unicode="&#x172;" horiz-adv-x="1339" 
d="M1016 1399h180v-901q0 -251 -125 -382.5t-358 -142.5l32 -166h-182q-22 0 -36.5 -15t-14.5 -38t14.5 -38t36.5 -15h182v-94h-182q-64 0 -104.5 41t-40.5 106q0 53 41.5 94.5t107.5 51.5l56 2l-13 73q-227 14 -347 144.5t-120 378.5v901h179v-901q0 -373 348 -373
q66 0 119.5 13.5t89 35t61.5 54t40.5 64t22.5 71.5t10.5 70t2.5 65v901z" />
    <glyph glyph-name="uogonek" unicode="&#x173;" horiz-adv-x="1091" 
d="M969 1030v-1036h-39l37 -191h-181q-23 0 -38 -15t-15 -38t15 -38t38 -15h181v-94h-181q-64 0 -105.5 41.5t-41.5 105.5q0 53 43 94.5t109 51.5l53 2l-17 96h-22v123q-181 -144 -371 -144q-154 0 -232.5 85t-78.5 249v723h164v-672q0 -225 213 -225q148 0 305 131v766h164
z" />
    <glyph glyph-name="Wcircumflex" unicode="&#x174;" horiz-adv-x="1902" 
d="M1231 1565l-279 254l-282 -248l2 96l282 258l279 -264zM1673 1399h176l-385 -1415h-207l-305 1122l-307 -1122h-209l-383 1415h185l208 -768l101 -398l102 398l209 768h193l211 -768l102 -398l100 398z" />
    <glyph glyph-name="wcircumflex" unicode="&#x175;" horiz-adv-x="1628" 
d="M1085 1372l-276 254l-268 -260l4 111l266 270l279 -264zM1411 1030h180l-338 -1046h-198l-244 804l-242 -804h-192l-338 1046h178l264 -887l248 887h172l248 -887z" />
    <glyph glyph-name="Ycircumflex" unicode="&#x176;" horiz-adv-x="1236" 
d="M903 1565l-278 254l-283 -248l2 96l283 258l278 -264zM1004 1399h182l-479 -920v-485h-179v485l-479 920h191l200 -385l183 -357l182 357z" />
    <glyph glyph-name="ycircumflex" unicode="&#x177;" horiz-adv-x="1054" 
d="M858 1372l-276 254l-269 -260l2 111l267 270l278 -264zM840 1030h176l-527 -1405h-157l121 328l-414 1077h184l305 -874l2 -6z" />
    <glyph glyph-name="Ydieresis" unicode="&#x178;" horiz-adv-x="1236" 
d="M477 1546q-32 0 -55 24t-23 56q0 34 23 57t55 23q34 0 57 -23t23 -57q0 -33 -23.5 -56.5t-56.5 -23.5zM739 1546q-33 0 -56.5 23.5t-23.5 56.5q0 34 23 57t57 23q32 0 55 -23t23 -57q0 -32 -23 -56t-55 -24zM1004 1399h182l-479 -920v-485h-179v485l-479 920h191
l200 -385l183 -357l182 357z" />
    <glyph glyph-name="Zacute" unicode="&#x179;" horiz-adv-x="1171" 
d="M735 1894q-6 -48 -19.5 -102.5t-32 -119t-26.5 -99.5h-110q8 38 25 110.5t27.5 125t14.5 98.5l15 88h123zM317 145h766v-151h-995v121l746 1134h-705v150h930v-121z" />
    <glyph glyph-name="zacute" unicode="&#x17a;" horiz-adv-x="962" 
d="M627 1716q-6 -48 -19.5 -102.5t-32 -119t-26.5 -97.5h-111q8 37 25 109.5t28 125t15 99.5l14 86h123zM274 123h627v-129h-840v119l619 788h-588v129h791v-119z" />
    <glyph glyph-name="Zdotaccent" unicode="&#x17b;" horiz-adv-x="1171" 
d="M641 1602q-33 0 -56.5 23t-23.5 56q0 34 23 57t57 23q31 0 54.5 -23.5t23.5 -56.5q0 -32 -23.5 -55.5t-54.5 -23.5zM317 145h766v-151h-995v121l746 1134h-705v150h930v-121z" />
    <glyph glyph-name="zdotaccent" unicode="&#x17c;" horiz-adv-x="962" 
d="M532 1423q-33 0 -56 24t-23 56q0 34 23 58t56 24q31 0 54.5 -24.5t23.5 -57.5q0 -31 -23.5 -55.5t-54.5 -24.5zM274 123h627v-129h-840v119l619 788h-588v129h791v-119z" />
    <glyph glyph-name="Zcaron" unicode="&#x17d;" horiz-adv-x="1171" 
d="M631 1608l-283 260l-4 96l285 -248l278 254l2 -96zM317 145h766v-151h-995v121l746 1134h-705v150h930v-121z" />
    <glyph glyph-name="zcaron" unicode="&#x17e;" horiz-adv-x="962" 
d="M522 1430l-282 260l-4 96l284 -248l279 254l2 -96zM274 123h627v-129h-840v119l619 788h-588v129h791v-119z" />
    <glyph glyph-name="uni0218" unicode="&#x218;" horiz-adv-x="1175" 
d="M588 -27q-261 0 -500 68v145q294 -65 492 -65q163 0 245 72.5t82 173.5q0 35 -11 65t-26.5 52t-46 43.5t-54.5 35t-69 30.5t-71.5 25.5t-79.5 24.5q-56 18 -91 30t-86.5 34t-84 42.5t-70 52.5t-58.5 67t-35.5 83t-14.5 103q0 181 128 272.5t351 91.5q234 0 471 -69v-152
q-271 74 -469 74q-301 0 -301 -217q0 -45 20 -82t44.5 -60t78.5 -47.5t87.5 -36t105.5 -33.5q11 -3 16 -5q43 -13 71 -22t69.5 -24t69 -28.5t62 -33.5t57.5 -41t46.5 -49.5t37 -59.5t22.5 -70.5t9 -83.5q0 -194 -136 -300t-361 -106zM600 -266q-12 -105 -44 -238.5
t-60 -218.5h-105q3 16 23 108t35 178t24 167l10 77h129z" />
    <glyph glyph-name="uni0219" unicode="&#x219;" horiz-adv-x="983" 
d="M479 -29q-198 0 -389 72v127q94 -35 192.5 -52.5t166.5 -17.5q75 0 128.5 17.5t78.5 46t35.5 54.5t10.5 52q0 23 -8 43.5t-18.5 35.5t-34 30.5t-38.5 24.5t-50 22.5t-51.5 19t-57.5 19.5q-43 14 -67.5 23t-64.5 26t-64 32t-52.5 39.5t-44.5 50.5t-27 61.5t-11 76.5
q0 142 110.5 224.5t308.5 82.5q165 0 338 -67v-127q-167 67 -299 67q-74 0 -130 -16t-85 -42t-43 -53.5t-14 -56.5q0 -39 19 -68.5t57.5 -51.5t76.5 -37.5t96 -34.5q4 -1 6.5 -2t6 -2t6.5 -2q41 -14 67 -24t64 -26.5t62 -32.5t51.5 -39.5t43 -48.5t26 -59t10.5 -73
q0 -145 -113.5 -229.5t-298.5 -84.5zM514 -238q-12 -106 -45 -240.5t-61 -215.5h-105q4 22 23.5 109.5t35.5 174.5t25 168l10 78h127z" />
    <glyph glyph-name="uni021A" unicode="&#x21a;" horiz-adv-x="1120" 
d="M1053 1249h-404v-1255h-178v1255h-403v150h985v-150zM623 -246q-12 -106 -45 -240t-62 -216h-104q4 22 23.5 109.5t35.5 174.5t25 168l10 78h127z" />
    <glyph glyph-name="uni021B" unicode="&#x21b;" horiz-adv-x="595" 
d="M330 889v-656q0 -133 125 -133q74 0 100 13v-125q-81 -15 -162 -15q-121 0 -174 61.5t-53 184.5v670h-146l29 127h117v256l164 45v-301h233l-28 -127h-205zM463 -215q-14 -106 -47 -241t-60 -216h-104q3 16 23.5 107.5t36 178t24.5 167.5l8 76h129z" />
    <glyph glyph-name="circumflex" unicode="&#x2c6;" horiz-adv-x="565" 
d="M4 1714l283 258l278 -264l-4 -96l-276 254l-285 -248z" />
    <glyph glyph-name="caron" unicode="&#x2c7;" horiz-adv-x="565" 
d="M4 1884l-4 96l285 -247l276 254l4 -97l-278 -264z" />
    <glyph glyph-name="breve" unicode="&#x2d8;" horiz-adv-x="479" 
d="M238 1597q-128 3 -238 72v80q97 -63 240 -70q130 0 239 58v-80q-108 -60 -241 -60z" />
    <glyph glyph-name="dotaccent" unicode="&#x2d9;" horiz-adv-x="147" 
d="M72 1581q-33 0 -56.5 24.5t-23.5 55.5q0 34 23 58t57 24q31 0 54.5 -24.5t23.5 -57.5q0 -31 -23.5 -55.5t-54.5 -24.5z" />
    <glyph glyph-name="ring" unicode="&#x2da;" horiz-adv-x="329" 
d="M166 1561q-57 0 -97 41t-40 98t40 97t97 40q56 0 96.5 -40t40.5 -97t-40.5 -98t-96.5 -41zM166 1630q29 0 48 21t19 53q0 31 -19 50.5t-48 19.5q-31 0 -50.5 -19.5t-19.5 -50.5q0 -32 19.5 -53t50.5 -21z" />
    <glyph glyph-name="ogonek" unicode="&#x2db;" horiz-adv-x="327" 
d="M205 -102l-17 102h101l39 -197h-181q-23 0 -38 -15t-15 -38t15 -38t38 -15h181v-94h-181q-65 0 -106 41.5t-41 105.5q0 53 43 94.5t109 51.5z" />
    <glyph glyph-name="tilde" unicode="&#x2dc;" horiz-adv-x="524" 
d="M25 1638l-25 82l137 105q11 -29 65 -55.5t109 -26.5q38 0 98.5 21.5t90.5 45.5l24 -79q-32 -29 -100 -53.5t-113 -24.5q-100 0 -182 67z" />
    <glyph glyph-name="hungarumlaut" unicode="&#x2dd;" horiz-adv-x="571" 
d="M213 2015q-11 -84 -28.5 -166.5t-42 -175t-31.5 -125.5h-111q5 23 28.5 135.5t37.5 188.5t22 139l10 66h123zM563 2017q-6 -58 -22 -131t-41.5 -176.5t-38.5 -161.5h-111q69 322 90 467l11 62h120z" />
    <glyph glyph-name="gravecomb" unicode="&#x300;" 
d="M-205 2011h123l14 -86q4 -47 15 -99.5t28 -125t25 -109.5h-111q-8 34 -26.5 99.5t-31.5 120t-19 102.5z" />
    <glyph glyph-name="acutecomb" unicode="&#x301;" 
d="M0 2048l-16 -100q-6 -48 -19.5 -102.5t-32 -119.5t-26.5 -98h-111q8 37 25 109.5t28 125t15 99.5l14 86h123z" />
    <glyph glyph-name="uni0302" unicode="&#x302;" 
d="M-561 1714l282 258l279 -264l-4 -96l-277 254l-284 -248z" />
    <glyph glyph-name="tildecomb" unicode="&#x303;" 
d="M-500 1638l-24 82l137 105q11 -29 65 -55.5t109 -26.5q38 0 98 21.5t90 45.5l25 -79q-32 -29 -100 -53.5t-113 -24.5q-100 0 -182 67z" />
    <glyph glyph-name="uni0304" unicode="&#x304;" 
d="M-999 1202h999v-141h-999v141z" />
    <glyph glyph-name="uni0306" unicode="&#x306;" 
d="M-242 1597q-127 3 -237 72v80q97 -63 239 -70q131 0 240 58v-80q-108 -60 -242 -60z" />
    <glyph glyph-name="uni0307" unicode="&#x307;" 
d="M-76 1581q-33 0 -56.5 24.5t-23.5 55.5q0 34 23 58t57 24q31 0 54.5 -24.5t23.5 -57.5q0 -31 -23.5 -55.5t-54.5 -24.5z" />
    <glyph glyph-name="uni0308" unicode="&#x308;" 
d="M-340 1587q-32 0 -56 24t-24 56t24 56t56 24t56 -24t24 -56t-24 -56t-56 -24zM-80 1587q-32 0 -56 24t-24 56t24 56t56 24t56 -24t24 -56t-24 -56t-56 -24z" />
    <glyph glyph-name="uni030A" unicode="&#x30a;" 
d="M-164 1561q-57 0 -97 41t-40 98t40 97t97 40q56 0 96.5 -40t40.5 -97t-40.5 -98t-96.5 -41zM-164 1630q29 0 48.5 21t19.5 53q0 31 -19.5 50.5t-48.5 19.5q-31 0 -50 -19.5t-19 -50.5q0 -32 19 -53t50 -21z" />
    <glyph glyph-name="uni030B" unicode="&#x30b;" 
d="M-358 2015q-11 -84 -29 -167t-42 -174t-32 -126h-110q5 23 28.5 135.5t37.5 188.5t22 139l10 66h123zM-8 2017q-6 -58 -22 -131.5t-42 -175.5t-39 -162h-110q69 322 90 467l10 62h121z" />
    <glyph glyph-name="uni030C" unicode="&#x30c;" 
d="M-561 1884l-4 96l284 -247l277 254l4 -97l-279 -264z" />
    <glyph glyph-name="uni0312" unicode="&#x312;" 
d="M-82 1735q37 -5 61.5 -35t20.5 -66q-3 -41 -35 -65.5t-74 -18.5q-51 4 -88.5 40t-46.5 87q-9 126 -12 211l-10 154l119 -10l14 -142q0 -60 6 -159q30 8 45 4z" />
    <glyph glyph-name="uni0326" unicode="&#x326;" 
d="M-72 109q-14 -105 -46.5 -239.5t-59.5 -217.5h-105q4 22 23.5 109.5t35.5 174.5t25 168l9 78h129z" />
    <glyph glyph-name="uni0327" unicode="&#x327;" 
d="M-338 -260l188 -2q58 -9 104 -50.5t46 -93.5q0 -63 -42.5 -106t-102.5 -43h-316v94h316q22 0 36.5 16t14.5 39q0 21 -15 36.5t-36 15.5h-316q5 17 16 54t16 56.5t13 64t15 101.5l8 78h100l-10 -74q-14 -107 -35 -186z" />
    <glyph glyph-name="uni0328" unicode="&#x328;" 
d="M-123 -102l-16 102h100l39 -197h-180q-23 0 -38 -15t-15 -38t15 -38t38 -15h180v-94h-180q-65 0 -106.5 41.5t-41.5 105.5q0 53 43 94.5t109 51.5z" />
    <glyph glyph-name="uni060C" unicode="&#x60c;" horiz-adv-x="542" 
d="M184 90q14 105 46.5 238.5t60.5 218.5h104q-4 -21 -23.5 -109.5t-35.5 -175.5t-25 -168l-8 -78h-129z" />
    <glyph glyph-name="uni0615" unicode="&#x615;" 
d="M629 1702q135 0 135 -158v-119h-406v78h66v318h76v-187q65 68 129 68zM688 1503v41q0 43 -15.5 62.5t-49.5 19.5q-56 0 -123 -76v-47h188z" />
    <glyph glyph-name="uni061B" unicode="&#x61b;" horiz-adv-x="518" 
d="M221 668q12 104 44.5 235t62.5 221h104q-4 -22 -23.5 -109.5t-35.5 -174.5t-25 -168l-8 -78h-129zM268 -6q-37 0 -62.5 25.5t-25.5 62.5q0 35 25.5 60.5t62.5 25.5q36 0 61.5 -25.5t24.5 -60.5q0 -37 -25.5 -62.5t-60.5 -25.5z" />
    <glyph glyph-name="uni061C" unicode="&#x61c;" horiz-adv-x="1228" 
 />
    <glyph glyph-name="uni061F" unicode="&#x61f;" horiz-adv-x="1030" 
d="M473 414v73q0 80 -34 131.5t-124 112.5q-111 76 -160 147.5t-49 168.5q0 159 115 256.5t291 97.5q113 0 204.5 -46t146.5 -135t55 -206h-150q0 110 -73.5 183t-182.5 73q-102 0 -172 -66t-70 -166q0 -66 39 -118t131 -117q97 -67 135.5 -134t38.5 -182v-73h-141zM543 -20
q-40 0 -70 29t-31 71q0 39 30.5 67.5t70.5 28.5q41 0 69.5 -28t28.5 -68q0 -43 -28.5 -71.5t-69.5 -28.5z" />
    <glyph glyph-name="uni0621" unicode="&#x621;" horiz-adv-x="1296" 
d="M606 168h527v-164h-969v164h229q-155 132 -155 371q0 207 114.5 327.5t296.5 120.5q185 0 288.5 -107t135.5 -337l-151 -15q-26 144 -95 218.5t-174 74.5q-116 0 -189 -83t-73 -220q0 -67 21 -130t70.5 -123t123.5 -97z" />
    <glyph glyph-name="uni0622" unicode="&#x622;" horiz-adv-x="475" 
d="M-43 1640l-39 60l162 135q22 -47 79 -73.5t120 -26.5q49 0 113 21.5t95 45.5l15 -78q-34 -31 -102 -53t-121 -22q-119 0 -211 82zM311 0h-159v1425h159v-1425z" />
    <glyph glyph-name="uni0623" unicode="&#x623;" horiz-adv-x="475" 
d="M225 1669h197v-92h-387v92h80q-56 50 -56 135q0 82 45.5 129t124.5 47q76 0 125.5 -46t59.5 -138h-88q-17 90 -97 90q-41 0 -60 -21t-19 -69q0 -86 75 -127zM152 0v1425h159v-1425h-159z" />
    <glyph glyph-name="uni0624" unicode="&#x624;" horiz-adv-x="1079" 
d="M733 1364v-94h-387v94h78q-53 50 -53 133t45 130.5t125 47.5q76 0 125 -46t59 -140h-86q-18 92 -98 92q-41 0 -60.5 -21.5t-19.5 -70.5q0 -86 76 -125h196zM543 1032q179 0 297 -119.5t118 -298.5v-706q0 -218 -175 -308t-515 -32v149q195 -28 313 -9t168 74.5t50 158.5
v61h-293q-108 1 -200.5 57.5t-146 152t-53.5 206.5v196q0 179 118.5 298.5t297.5 119.5h21zM799 614q0 114 -71.5 186t-184.5 72h-21q-114 0 -185 -72t-71 -186v-196q0 -105 72 -180.5t172 -75.5h289v452z" />
    <glyph glyph-name="uni0625" unicode="&#x625;" horiz-adv-x="475" 
d="M311 1425v-1425h-159v1425h159zM233 -457h195v-94h-385v94h76q-53 53 -53 135t45.5 129.5t124.5 47.5q77 0 125.5 -46t58.5 -139h-86q-18 90 -96 90q-42 0 -62 -21.5t-20 -70.5q0 -87 77 -125z" />
    <glyph glyph-name="uni0626" unicode="&#x626;" horiz-adv-x="1957" 
d="M387 729v-94h-387v94h78q-53 50 -53 133t45 129.5t125 46.5q77 0 125.5 -45.5t58.5 -138.5h-86q-18 92 -96 92q-42 0 -62 -21.5t-20 -70.5q0 -87 75 -125h197zM1501 1026h318v-1024h-158v864h-160q-107 0 -176.5 -69t-69.5 -176v-596q0 -162 -75 -293t-207 -205t-295 -74
h-6q-121 0 -227.5 43.5t-182 119t-119 182t-43.5 227.5v419h158v-419q0 -183 115.5 -297.5t298.5 -114.5h6q184 0 301 115t117 297v596q0 173 116 289t289 116z" />
    <glyph glyph-name="uni0627" unicode="&#x627;" horiz-adv-x="475" 
d="M311 0h-159v1425h159v-1425z" />
    <glyph glyph-name="uni0628" unicode="&#x628;" horiz-adv-x="1716" 
d="M82 756h160v-344q0 -110 71 -181t181 -71h772q81 0 123.5 48t42.5 124v700h157v-762q0 -116 -77.5 -193t-192.5 -77h-825q-177 0 -294.5 117.5t-117.5 294.5v344zM856 -430q-41 0 -71.5 30.5t-30.5 73.5q0 41 30.5 72t71.5 31q42 0 72 -30.5t30 -72.5q0 -43 -29.5 -73.5
t-72.5 -30.5z" />
    <glyph glyph-name="uni0629" unicode="&#x629;" horiz-adv-x="1083" 
d="M399 1206q-41 0 -71.5 31t-30.5 72t30.5 72.5t71.5 31.5q42 0 72.5 -31t30.5 -73t-30.5 -72.5t-72.5 -30.5zM733 1206q-43 0 -73.5 31t-30.5 72q0 42 31 73t73 31q41 0 72 -31.5t31 -72.5t-31 -72t-72 -31zM113 627q0 169 119 288t286 119h33q169 0 288 -119t119 -288
v-246q0 -157 -110.5 -268t-265.5 -111h-64q-170 0 -287.5 118t-117.5 288v219zM272 627v-219q0 -101 72.5 -173.5t173.5 -72.5h68q88 0 150.5 62t62.5 151v252q0 105 -71.5 176t-176.5 71h-33q-104 0 -175 -71t-71 -176z" />
    <glyph glyph-name="uni062A" unicode="&#x62a;" horiz-adv-x="1716" 
d="M651 1028q-41 0 -71.5 31t-30.5 74q0 41 30.5 71.5t71.5 30.5q43 0 73 -30.5t30 -71.5q0 -43 -30 -74t-73 -31zM985 1028q-43 0 -73.5 31t-30.5 74q0 41 30.5 71.5t73.5 30.5q41 0 70.5 -30.5t29.5 -71.5q0 -43 -29.5 -74t-70.5 -31zM82 756h160v-344q0 -110 71 -181
t181 -71h772q81 0 123.5 48t42.5 124v700h157v-762q0 -116 -77.5 -193t-192.5 -77h-825q-177 0 -294.5 117.5t-117.5 294.5v344z" />
    <glyph glyph-name="uni062B" unicode="&#x62b;" horiz-adv-x="1716" 
d="M819 1286q-41 0 -71.5 31t-30.5 72t30.5 72.5t71.5 31.5q42 0 72.5 -31t30.5 -73t-30.5 -72.5t-72.5 -30.5zM659 1038q-41 0 -71.5 31t-30.5 74q0 41 30.5 71.5t71.5 30.5q43 0 73 -30.5t30 -71.5q0 -43 -30 -74t-73 -31zM981 1038q-41 0 -72.5 31t-31.5 74
q0 41 31.5 71.5t72.5 30.5t71.5 -30.5t30.5 -71.5q0 -43 -30.5 -74t-71.5 -31zM82 756h160v-344q0 -110 71 -181t181 -71h772q81 0 123.5 48t42.5 124v700h157v-762q0 -116 -77.5 -193t-192.5 -77h-825q-177 0 -294.5 117.5t-117.5 294.5v344z" />
    <glyph glyph-name="uni062C" unicode="&#x62c;" horiz-adv-x="1603" 
d="M1464 162v-162h-899q-137 0 -222 -76t-85 -207q0 -83 42 -151t116 -109t167 -59t202 -3t214 62v-149q-107 -50 -218 -69t-209 -7.5t-185.5 51t-150.5 101t-99.5 147.5t-36.5 186q0 197 130.5 320t332.5 123h678q-19 7 -38 27.5t-38 57.5t-33.5 68.5t-37.5 87t-37 86.5
q-82 181 -191.5 278.5t-235 108.5t-270.5 -47v146q102 40 201.5 47t195.5 -22t181.5 -91.5t161.5 -166.5t135 -242q36 -90 55.5 -138t41.5 -91t32 -58.5t29 -28.5t31 -15t40 -5zM586 -276q0 41 30.5 71.5t71.5 30.5q42 0 72.5 -30t30.5 -72q0 -43 -30 -73t-73 -30
q-42 0 -72 30.5t-30 72.5z" />
    <glyph glyph-name="uni062D" unicode="&#x62d;" horiz-adv-x="1603" 
d="M565 0q-137 0 -222 -76t-85 -207q0 -83 42 -151t116 -109t167 -59t202 -3t214 62v-149q-107 -50 -218 -69t-209 -7.5t-185.5 51t-150.5 101t-99.5 147.5t-36.5 186q0 197 130.5 320t332.5 123h678q-19 7 -38 27.5t-38 57.5t-33.5 68.5t-37.5 87t-37 86.5
q-82 181 -191.5 278.5t-235 108.5t-270.5 -47v146q102 40 201.5 47t195.5 -22t181.5 -91.5t161.5 -166.5t135 -242q36 -90 55.5 -138t41.5 -91t32 -58.5t29 -28.5t31 -15t40 -5v-162h-899z" />
    <glyph glyph-name="uni062E" unicode="&#x62e;" horiz-adv-x="1603" 
d="M649 1237q-43 0 -73.5 30.5t-30.5 73.5q0 41 30.5 72t73.5 31q41 0 71 -31t30 -72q0 -43 -30 -73.5t-71 -30.5zM565 0q-137 0 -222 -76t-85 -207q0 -83 42 -151t116 -109t167 -59t202 -3t214 62v-149q-107 -50 -218 -69t-209 -7.5t-185.5 51t-150.5 101t-99.5 147.5
t-36.5 186q0 197 130.5 320t332.5 123h678q-19 7 -38 27.5t-38 57.5t-33.5 68.5t-37.5 87t-37 86.5q-82 181 -191.5 278.5t-235 108.5t-270.5 -47v146q102 40 201.5 47t195.5 -22t181.5 -91.5t161.5 -166.5t135 -242q36 -90 55.5 -138t41.5 -91t32 -58.5t29 -28.5t31 -15
t40 -5v-162h-899z" />
    <glyph glyph-name="uni062F" unicode="&#x62f;" horiz-adv-x="1046" 
d="M100 0v160h404q104 0 178 74t74 178v186q0 113 -79.5 192.5t-193.5 79.5h-202v160h202q179 0 305.5 -127t126.5 -305v-217q0 -158 -111 -269.5t-269 -111.5h-435z" />
    <glyph glyph-name="uni0630" unicode="&#x630;" horiz-adv-x="1046" 
d="M494 1245q-42 0 -72.5 30.5t-30.5 72.5q0 41 31 71.5t72 30.5q42 0 72 -30t30 -72q0 -43 -29.5 -73t-72.5 -30zM100 0v160h404q104 0 178 74t74 178v186q0 113 -79.5 192.5t-193.5 79.5h-202v160h202q179 0 305.5 -127t126.5 -305v-217q0 -158 -111 -269.5t-269 -111.5
h-435z" />
    <glyph glyph-name="uni0631" unicode="&#x631;" horiz-adv-x="616" 
d="M-49 -457v158h104q111 0 181.5 71t70.5 183v1026h160v-1026q0 -177 -117.5 -294.5t-294.5 -117.5h-104z" />
    <glyph glyph-name="uni0632" unicode="&#x632;" horiz-adv-x="616" 
d="M383 1167q-43 0 -73.5 30t-30.5 73q0 41 30.5 71.5t73.5 30.5q41 0 71.5 -30.5t30.5 -71.5q0 -42 -30.5 -72.5t-71.5 -30.5zM-49 -457v158h104q111 0 181.5 71t70.5 183v1026h160v-1026q0 -177 -117.5 -294.5t-294.5 -117.5h-104z" />
    <glyph glyph-name="uni0633" unicode="&#x633;" horiz-adv-x="2471" 
d="M2175 995h160v-651q0 -142 -100.5 -243t-243.5 -101q-185 0 -281 104q-94 -104 -231 -104h-224q-11 -232 -175 -389.5t-398 -157.5h-10q-158 0 -289.5 76t-207 207.5t-75.5 290.5v417h158v-417q0 -183 115.5 -298.5t298.5 -115.5h6q183 0 300.5 115.5t117.5 298.5v792
h159v-659h215q67 0 112.5 45.5t45.5 111.5v502h160v-508q0 -71 53 -111t150 -40q77 0 130.5 54t53.5 130v651z" />
    <glyph glyph-name="uni0634" unicode="&#x634;" horiz-adv-x="2471" 
d="M1700 1329q-41 0 -72 31t-31 72t31 71.5t72 30.5q42 0 72 -30t30 -72t-30 -72.5t-72 -30.5zM1540 1081q-41 0 -71.5 31t-30.5 74q0 41 30.5 71.5t71.5 30.5q42 0 72 -30t30 -72q0 -43 -30 -74t-72 -31zM1759 1186q0 41 31 71.5t72 30.5t71.5 -30.5t30.5 -71.5
q0 -43 -30.5 -74t-71.5 -31t-72 31t-31 74zM2175 995h160v-651q0 -142 -100.5 -243t-243.5 -101q-185 0 -281 104q-94 -104 -231 -104h-224q-11 -232 -175 -389.5t-398 -157.5h-10q-158 0 -289.5 76t-207 207.5t-75.5 290.5v417h158v-417q0 -183 115.5 -298.5t298.5 -115.5
h6q183 0 300.5 115.5t117.5 298.5v792h159v-659h215q67 0 112.5 45.5t45.5 111.5v502h160v-508q0 -71 53 -111t150 -40q77 0 130.5 54t53.5 130v651z" />
    <glyph glyph-name="uni0635" unicode="&#x635;" horiz-adv-x="2449" 
d="M1833 1006q237 0 359 -135t122 -400q0 -128 -62.5 -236.5t-170.5 -171.5t-236 -63h-596q-15 -242 -174.5 -394.5t-392.5 -152.5h-12q-157 0 -288 76t-206.5 207.5t-75.5 288.5v419h158v-419q0 -181 115 -296.5t297 -115.5h8q180 0 299 117t119 297v874h157v-227
q309 332 580 332zM1841 160q132 0 226 92.5t94 224.5q0 192 -90 282.5t-252 90.5q-134 0 -280 -90t-286 -248v-354z" />
    <glyph glyph-name="uni0636" unicode="&#x636;" horiz-adv-x="2449" 
d="M1815 1182q-41 0 -72 31t-31 73q0 41 31 72t72 31q42 0 72 -30.5t30 -72.5q0 -43 -29.5 -73.5t-72.5 -30.5zM1833 1006q237 0 359 -135t122 -400q0 -128 -62.5 -236.5t-170.5 -171.5t-236 -63h-596q-15 -242 -174.5 -394.5t-392.5 -152.5h-12q-157 0 -288 76
t-206.5 207.5t-75.5 288.5v419h158v-419q0 -181 115 -296.5t297 -115.5h8q180 0 299 117t119 297v874h157v-227q309 332 580 332zM1841 160q132 0 226 92.5t94 224.5q0 192 -90 282.5t-252 90.5q-134 0 -280 -90t-286 -248v-354z" />
    <glyph glyph-name="uni0637" unicode="&#x637;" horiz-adv-x="1777" 
d="M1106 1006q481 0 481 -531q0 -97 -37.5 -184.5t-100.5 -151.5t-151 -101.5t-184 -37.5h-1014v172h236v1253h172v-774q320 355 598 355zM1106 160q136 0 231 93.5t95 231.5q0 187 -89 275t-251 88q-140 0 -289.5 -95.5t-294.5 -265.5v-327h598z" />
    <glyph glyph-name="uni0638" unicode="&#x638;" horiz-adv-x="1777" 
d="M1106 1006q481 0 481 -531q0 -97 -37.5 -184.5t-100.5 -151.5t-151 -101.5t-184 -37.5h-1014v172h236v1253h172v-774q320 355 598 355zM1112 1182q-42 0 -73 30t-31 72q0 41 31.5 71.5t72.5 30.5t71.5 -30.5t30.5 -71.5q0 -42 -30 -72t-72 -30zM1106 160q136 0 231 93.5
t95 231.5q0 187 -89 275t-251 88q-140 0 -289.5 -95.5t-294.5 -265.5v-327h598z" />
    <glyph glyph-name="uni0639" unicode="&#x639;" horiz-adv-x="1198" 
d="M563 0q-136 0 -220.5 -76t-84.5 -207q0 -83 42 -151t116 -109t167 -59t202 -3t214 62v-147q-128 -61 -261 -77t-245.5 13.5t-201.5 91t-140 160.5t-51 219q0 148 76.5 256.5t206.5 155.5q-182 117 -182 385q0 125 38.5 224t103.5 160.5t150 98t179.5 43t191.5 -10.5
t185 -58v-148q-92 41 -186.5 56.5t-182 1.5t-155.5 -56t-109 -123t-41 -192q0 -82 18.5 -143.5t50 -100t78 -62.5t97.5 -33t114 -9h326v-162h-496z" />
    <glyph glyph-name="uni063A" unicode="&#x63a;" horiz-adv-x="1198" 
d="M643 1264q-41 0 -71.5 30.5t-30.5 71.5t30.5 72.5t71.5 31.5q42 0 72 -31t30 -73t-30 -72t-72 -30zM563 0q-136 0 -220.5 -76t-84.5 -207q0 -83 42 -151t116 -109t167 -59t202 -3t214 62v-147q-128 -61 -261 -77t-245.5 13.5t-201.5 91t-140 160.5t-51 219
q0 148 76.5 256.5t206.5 155.5q-182 117 -182 385q0 125 33.5 224t91 161t133.5 100.5t162 48t175.5 -2.5t174.5 -46v-145q-89 35 -174.5 45.5t-162 -7t-134 -62t-91.5 -127t-34 -193.5q0 -82 18.5 -143.5t50 -100t78 -62.5t97.5 -33t114 -9h326v-162h-496z" />
    <glyph glyph-name="uni0640" unicode="&#x640;" horiz-adv-x="327" 
d="M-20 160h368v-160h-368v160z" />
    <glyph glyph-name="uni0641" unicode="&#x641;" horiz-adv-x="1822" 
d="M1276 1225q-39 0 -68 28t-32 68q-3 43 28 76t74 33q41 0 71.5 -31t30.5 -72q0 -43 -30.5 -73t-73.5 -29zM1282 1030q172 0 294 -122t122 -294v-174q0 -183 -127.5 -311.5t-310.5 -128.5h-762q-173 0 -293.5 120t-120.5 292v266h160v-264q0 -105 74.5 -179.5t179.5 -74.5
h471q-57 44 -90 112t-33 146v196q0 172 122 294t294 122h20zM1538 614q0 109 -73.5 182.5t-182.5 73.5h-20q-109 0 -182.5 -73.5t-73.5 -182.5v-196q0 -106 71.5 -182t171.5 -76h33q107 6 181.5 84.5t74.5 187.5v182z" />
    <glyph glyph-name="uni0642" unicode="&#x642;" horiz-adv-x="1619" 
d="M909 1182q-43 0 -73.5 30.5t-30.5 73.5q0 42 30.5 72.5t73.5 30.5q41 0 72 -31t31 -72q0 -42 -31 -73t-72 -31zM1241 1182q-41 0 -71.5 30.5t-30.5 73.5q0 41 30.5 72t71.5 31t71.5 -31t30.5 -72q0 -43 -30.5 -73.5t-71.5 -30.5zM1075 1059q175 0 291.5 -116.5
t116.5 -289.5v-534q0 -147 -52.5 -275t-143.5 -218.5t-219 -142.5t-275 -52h-5q-146 0 -274 52.5t-218.5 143t-143 218.5t-52.5 274v231h160v-231q0 -230 149 -379.5t379 -149.5h5q208 0 351 122.5t171 320.5h-271q-174 0 -290.5 116.5t-116.5 290.5v213q0 173 116.5 289.5
t290.5 116.5h31zM1321 330h2v323q0 108 -70 178t-178 70h-31q-109 0 -178 -69.5t-69 -178.5v-213q0 -108 69.5 -177.5t177.5 -69.5h277v137z" />
    <glyph glyph-name="uni0643" unicode="&#x643;" horiz-adv-x="1734" 
d="M1432 1425h157v-1155q0 -116 -77.5 -193t-192.5 -77h-825q-177 0 -294.5 117.5t-117.5 294.5v344h160v-344q0 -110 71 -181t181 -71h772q81 0 123.5 48t42.5 124v1093zM1014 827v-88h-371v88h74q-51 51 -51 129t43 124t118 46q74 0 120.5 -43.5t56.5 -132.5h-80
q-17 88 -95 88q-41 0 -60 -21t-19 -69q0 -83 73 -121h191z" />
    <glyph glyph-name="uni0644" unicode="&#x644;" horiz-adv-x="1398" 
d="M100 459h158v-418q0 -183 115 -298.5t297 -115.5h8q183 0 299.5 115.5t116.5 298.5v1384h159v-1384q0 -163 -74.5 -294t-206 -205t-294.5 -74h-8q-246 0 -408 163t-162 410v418z" />
    <glyph glyph-name="uni0645" unicode="&#x645;" horiz-adv-x="1382" 
d="M817 -47q-254 0 -387 147q-92 -3 -145.5 -58.5t-53.5 -143.5v-596h-163v596q0 142 87.5 242.5t223.5 117.5v346q0 184 123 306t309 122q185 0 306.5 -122t121.5 -306v-217q0 -139 -58 -239t-152 -147.5t-212 -47.5zM811 115q117 0 191.5 74.5t74.5 191.5v223
q0 117 -74.5 191.5t-191.5 74.5q-118 0 -192 -74.5t-74 -191.5v-383q46 -57 107 -81.5t159 -24.5z" />
    <glyph glyph-name="uni0646" unicode="&#x646;" horiz-adv-x="1398" 
d="M625 942q-43 0 -74 30.5t-31 71.5t31 72t74 31q41 0 71.5 -31t30.5 -72t-30.5 -71.5t-71.5 -30.5zM100 426h158v-420q0 -183 115 -297.5t297 -114.5h8q183 0 299.5 114.5t116.5 297.5v971h159v-971q0 -162 -74.5 -292.5t-206 -204.5t-294.5 -74h-8q-246 0 -408 162.5
t-162 408.5v420z" />
    <glyph glyph-name="uni0647" unicode="&#x647;" horiz-adv-x="1083" 
d="M113 627q0 169 119 288t286 119h33q169 0 288 -119t119 -288v-246q0 -157 -110.5 -268t-265.5 -111h-64q-170 0 -287.5 118t-117.5 288v219zM272 627v-219q0 -101 72.5 -173.5t173.5 -72.5h68q88 0 150.5 62t62.5 151v252q0 105 -71.5 176t-176.5 71h-33q-104 0 -175 -71
t-71 -176z" />
    <glyph glyph-name="uni0648" unicode="&#x648;" horiz-adv-x="1079" 
d="M543 1032q179 0 297 -119.5t118 -298.5v-706q0 -218 -175 -308t-515 -32v149q195 -28 313 -9t168 74.5t50 158.5v61h-293q-108 1 -200.5 57.5t-146 152t-53.5 206.5v196q0 179 118.5 298.5t297.5 119.5h21zM799 614q0 114 -71.5 186t-184.5 72h-21q-114 0 -185 -72
t-71 -186v-196q0 -105 72 -180.5t172 -75.5h289v452z" />
    <glyph glyph-name="uni0649" unicode="&#x649;" horiz-adv-x="1957" 
d="M1501 1026h318v-1024h-158v864h-160q-107 0 -176.5 -69t-69.5 -176v-596q0 -162 -75 -293t-207 -205t-295 -74h-6q-121 0 -227.5 43.5t-182 119t-119 182t-43.5 227.5v419h158v-419q0 -183 115.5 -297.5t298.5 -114.5h6q184 0 301 115t117 297v596q0 173 116 289t289 116
z" />
    <glyph glyph-name="uni064A" unicode="&#x64a;" horiz-adv-x="1957" 
d="M1501 1026h318v-1024h-158v864h-160q-107 0 -176.5 -69t-69.5 -176v-596q0 -162 -75 -293t-207 -205t-295 -74h-6q-121 0 -227.5 43.5t-182 119t-119 182t-43.5 227.5v419h158v-419q0 -183 115.5 -297.5t298.5 -114.5h6q184 0 301 115t117 297v596q0 173 116 289t289 116
zM510 -662q41 0 71.5 -30.5t30.5 -71.5q0 -43 -30.5 -73.5t-71.5 -30.5q-42 0 -73 31t-31 73q0 41 31.5 71.5t72.5 30.5zM842 -662q41 0 71.5 -30.5t30.5 -71.5q0 -43 -30.5 -73.5t-71.5 -30.5q-43 0 -74 30.5t-31 73.5q0 41 31 71.5t74 30.5z" />
    <glyph glyph-name="uni064B" unicode="&#x64b;" 
d="M0 1780l360 129v-68l-360 -131v70zM0 1632l360 129v-67l-360 -129v67z" />
    <glyph glyph-name="uni064C" unicode="&#x64c;" 
d="M446 1618q0 -49 -29.5 -84.5t-74.5 -44.5l-260 -82v10h-2q0 3 1 8.5t1 8.5v45q-12 94 -94 55v57q66 32 102 5.5t41 -99.5l92 29q-39 36 -39 92q0 55 38.5 93t92.5 38t92.5 -38t38.5 -93zM317 1548q28 0 47 20.5t19 51.5q0 28 -19 48t-47 20q-29 0 -48 -20t-19 -48
q0 -27 14 -46.5t37 -23.5l14 4z" />
    <glyph glyph-name="uni064D" unicode="&#x64d;" 
d="M0 -256l360 129v-68l-360 -131v70zM0 -412l360 129v-67l-360 -129v67z" />
    <glyph glyph-name="uni064E" unicode="&#x64e;" 
d="M39 1704l360 129v-70l-360 -129v70z" />
    <glyph glyph-name="uni064F" unicode="&#x64f;" 
d="M340 1749q0 -49 -31 -86t-76 -45l-256 -82v76l140 43q-37 40 -37 94t38 92.5t93 38.5q54 0 91.5 -38.5t37.5 -92.5zM211 1677q29 0 48.5 21t19.5 53q0 27 -19.5 46.5t-48.5 19.5q-27 0 -46.5 -19.5t-19.5 -46.5t14 -46.5t36 -25.5l14 4z" />
    <glyph glyph-name="uni0650" unicode="&#x650;" 
d="M39 -664l338 113v-76l-338 -114v77z" />
    <glyph glyph-name="uni0651" unicode="&#x651;" 
d="M131 1403q-58 0 -94.5 36t-36.5 103v51l74 19v-70q0 -65 57 -65q53 0 53 79v95l74 20v-104q0 -26 16.5 -41t38.5 -15q70 0 70 84v111l74 18v-129q0 -74 -37 -116.5t-98 -42.5q-25 0 -49.5 12.5t-39.5 32.5q-12 -37 -40 -57.5t-62 -20.5z" />
    <glyph glyph-name="uni0652" unicode="&#x652;" 
d="M166 1591q-57 0 -97 41.5t-40 98.5t40 97t97 40q56 0 96.5 -40t40.5 -97t-40.5 -98.5t-96.5 -41.5zM166 1661q29 0 48 21t19 55q0 29 -19 48t-48 19q-31 0 -50.5 -19t-19.5 -48q0 -34 19.5 -55t50.5 -21z" />
    <glyph glyph-name="uni0653" unicode="&#x653;" 
d="M41 1917l-41 59l162 135q22 -47 78.5 -73.5t119.5 -26.5q49 0 114.5 22t94.5 46l15 -78q-34 -31 -102.5 -53.5t-121.5 -22.5q-118 0 -210 82z" />
    <glyph glyph-name="uni0654" unicode="&#x654;" 
d="M168 1493h197v-94h-388v94h78q-53 50 -53 133t45 129.5t125 46.5q77 0 125.5 -45.5t58.5 -138.5h-88q-18 92 -96 92q-41 0 -60.5 -21.5t-19.5 -70.5q0 -86 76 -125z" />
    <glyph glyph-name="uni0655" unicode="&#x655;" 
d="M260 -295h197v-94h-385v94h75q-53 50 -53 133t45 130.5t125 47.5q78 0 126.5 -46t58.5 -140h-87q-18 92 -96 92q-42 0 -62 -21.5t-20 -70.5q0 -86 76 -125z" />
    <glyph glyph-name="uni0656" unicode="&#x656;" 
 />
    <glyph glyph-name="uni0660" unicode="&#x660;" horiz-adv-x="733" 
d="M508 530l-131 -129l-127 129q21 24 66 69.5t59 57.5q105 -105 133 -127z" />
    <glyph glyph-name="uni0661" unicode="&#x661;" horiz-adv-x="505" 
d="M342 0h-160v1303h160v-1303z" />
    <glyph glyph-name="uni0662" unicode="&#x662;" horiz-adv-x="806" 
d="M776 1305v-160h-215q-110 0 -181 -71t-71 -181v-893h-159v893q0 177 117 294.5t294 117.5h215z" />
    <glyph glyph-name="uni0663" unicode="&#x663;" horiz-adv-x="1339" 
d="M1059 1303h131v-439q0 -92 -70 -167.5t-166 -75.5q-98 0 -150.5 26.5t-92.5 83.5q-34 -50 -91.5 -80t-125.5 -30h-140v-621h-159v1303h159v-543h146q66 0 108.5 43t42.5 106v394h125v-394q0 -75 34 -112t126 -37q52 0 87.5 41.5t35.5 87.5v414z" />
    <glyph glyph-name="uni0664" unicode="&#x664;" horiz-adv-x="1112" 
d="M246 373q0 -96 67.5 -155t174.5 -75t232 -3t247 53v-142q-127 -40 -248 -54.5t-228.5 0.5t-188.5 58t-128 124.5t-47 193.5q0 102 60.5 187.5t166.5 129.5q-143 86 -143 248q0 85 39 154t101.5 114t148 76.5t173 46.5t181.5 19v-150q-93 -3 -180 -21.5t-159.5 -50.5
t-116.5 -83t-44 -113q0 -103 82.5 -153t216.5 -50h275v-129h-375q-140 0 -223.5 -63t-83.5 -162z" />
    <glyph glyph-name="uni0665" unicode="&#x665;" horiz-adv-x="1169" 
d="M92 618q0 166 71.5 327.5t186.5 262.5t234 101q118 0 232.5 -101.5t185.5 -263t71 -326.5q0 -119 -27.5 -220t-75 -172.5t-110.5 -122.5t-134 -75t-146 -24q-94 0 -180 39t-155.5 112.5t-111 193.5t-41.5 269zM936 621q0 126 -54 254t-136.5 209t-161.5 81
q-80 0 -163.5 -81t-137.5 -209t-54 -254q0 -115 30 -208.5t80 -151t112 -88t129 -30.5t130 31.5t114 89.5t81.5 151t30.5 206z" />
    <glyph glyph-name="uni0666" unicode="&#x666;" horiz-adv-x="1038" 
d="M655 14v1172h-637v135h793v-1307h-156z" />
    <glyph glyph-name="uni0667" unicode="&#x667;" horiz-adv-x="1230" 
d="M528 -4l-409 1315h153l349 -1139h2l348 1139h147l-407 -1315h-183z" />
    <glyph glyph-name="uni0668" unicode="&#x668;" horiz-adv-x="1241" 
d="M526 1319h185l407 -1319h-147l-348 1143h-2l-349 -1143h-153z" />
    <glyph glyph-name="uni0669" unicode="&#x669;" horiz-adv-x="1060" 
d="M492 1335q178 0 290.5 -117t112.5 -298v-920h-160v426h-270q-171 2 -287.5 118.5t-116.5 299.5v92q0 166 117 282.5t293 116.5h21zM467 586h268v334q0 116 -67.5 190t-178.5 74h-18q-105 0 -177.5 -72t-72.5 -184v-90q0 -101 73 -176.5t173 -75.5z" />
    <glyph glyph-name="uni066A" unicode="&#x66a;" horiz-adv-x="1288" 
d="M197 0l712 1393h170l-712 -1393h-170zM272 1096l-141 137l139 139l142 -139zM954 98l-141 140l139 139l142 -139z" />
    <glyph glyph-name="uni066B" unicode="&#x66b;" horiz-adv-x="542" 
d="M354 109q-12 -105 -44 -238.5t-60 -218.5h-105q3 17 23 108.5t35 177t24 166.5l11 78h129z" />
    <glyph glyph-name="uni066C" unicode="&#x66c;" horiz-adv-x="542" 
d="M354 109q-12 -105 -44 -238.5t-60 -218.5h-105q3 17 23 108.5t35 177t24 166.5l11 78h129z" />
    <glyph glyph-name="uni066D" unicode="&#x66d;" horiz-adv-x="798" 
d="M678 965l-43 -76l-184 123l-11 -234h-82l-10 234l-184 -123l-43 76l176 110l-176 111l43 76l194 -123v233h82v-233l195 123l43 -76l-176 -111z" />
    <glyph glyph-name="uni066E" unicode="&#x66e;" horiz-adv-x="1716" 
d="M82 756h160v-344q0 -110 71 -181t181 -71h772q81 0 123.5 48t42.5 124v700h157v-762q0 -116 -77.5 -193t-192.5 -77h-825q-177 0 -294.5 117.5t-117.5 294.5v344z" />
    <glyph glyph-name="uni066F" unicode="&#x66f;" horiz-adv-x="1619" 
d="M1075 1059q175 0 291.5 -116.5t116.5 -289.5v-534q0 -147 -52.5 -275t-143.5 -218.5t-219 -142.5t-275 -52h-5q-146 0 -274 52.5t-218.5 143t-143 218.5t-52.5 274v231h160v-231q0 -230 149 -379.5t379 -149.5h5q208 0 351 122.5t171 320.5h-271q-174 0 -290.5 116.5
t-116.5 290.5v213q0 173 116.5 289.5t290.5 116.5h31zM1321 330h2v323q0 108 -70 178t-178 70h-31q-109 0 -178 -69.5t-69 -178.5v-213q0 -108 69.5 -177.5t177.5 -69.5h277v137z" />
    <glyph glyph-name="uni0670" unicode="&#x670;" 
 />
    <glyph glyph-name="uni0679" unicode="&#x679;" horiz-adv-x="1716" 
d="M612 1090v77h66v320h76v-189q67 70 129 70q135 0 135 -158v-120h-406zM877 1292q-54 0 -123 -75v-50h188v43q0 82 -65 82zM1432 1032h157v-762q0 -116 -77.5 -193t-192.5 -77h-825q-177 0 -294.5 117.5t-117.5 294.5v344h160v-344q0 -110 71 -181t181 -71h772
q81 0 123.5 48t42.5 124v700z" />
    <glyph glyph-name="uni067E" unicode="&#x67e;" horiz-adv-x="1716" 
d="M82 756h160v-344q0 -110 71 -181t181 -71h772q81 0 123.5 48t42.5 124v700h157v-762q0 -116 -77.5 -193t-192.5 -77h-825q-177 0 -294.5 117.5t-117.5 294.5v344zM766 -449q-43 0 -73.5 31t-30.5 74q0 41 30.5 71.5t73.5 30.5q41 0 70.5 -30.5t29.5 -71.5
q0 -43 -29.5 -74t-70.5 -31zM1075 -449q-41 0 -71.5 31t-30.5 74q0 41 30.5 71.5t71.5 30.5q43 0 73 -30t30 -72q0 -43 -30 -74t-73 -31zM915 -692q-43 0 -73.5 30.5t-30.5 71.5q0 42 31 73.5t73 31.5q41 0 71 -31.5t30 -73.5q0 -41 -30 -71.5t-71 -30.5z" />
    <glyph glyph-name="uni0686" unicode="&#x686;" horiz-adv-x="1488" 
d="M1120 498q39 -96 69.5 -159t49.5 -97t40.5 -51.5t33 -21t37.5 -7.5v-162h-785q-137 0 -222 -76t-85 -207q0 -83 42 -151t116 -109t167 -59t202 -3t214 62v-149q-107 -50 -218 -69t-209 -7.5t-185.5 51t-150.5 101t-99.5 147.5t-36.5 186q0 197 129.5 319t331.5 124h543
q-14 11 -33.5 45t-35 69t-43.5 100.5t-46 104.5q-84 181 -194 280t-236 112.5t-270 -44.5v146q103 40 202.5 47t195 -22t181 -91.5t161 -166.5t134.5 -242zM866 -231q0 -28 -20 -48t-49 -20t-49.5 20t-20.5 48t20.5 46.5t49.5 18.5t49 -18.5t20 -46.5zM1028 -231
q0 -28 -19.5 -48t-47.5 -20q-29 0 -49.5 20t-20.5 48t20.5 46.5t49.5 18.5q28 0 47.5 -18.5t19.5 -46.5zM877 -432q-29 0 -49.5 21.5t-20.5 48.5q0 28 20.5 47.5t49.5 19.5t48 -19.5t19 -47.5q0 -27 -19.5 -48.5t-47.5 -21.5z" />
    <glyph glyph-name="uni0688" unicode="&#x688;" horiz-adv-x="1046" 
d="M297 1307v77h65v318h76v-186q66 69 129 69q135 0 135 -160v-118h-405zM561 1507q-57 0 -123 -75v-48h189v41q0 82 -66 82zM483 1030q179 0 305.5 -127t126.5 -305v-217q0 -158 -111 -269.5t-269 -111.5h-435v160h404q104 0 178 74t74 178v186q0 113 -79.5 192.5
t-193.5 79.5h-202v160h202z" />
    <glyph glyph-name="uni0691" unicode="&#x691;" horiz-adv-x="616" 
d="M457 1507q133 0 133 -159v-119h-406v78h66v317h76v-186q66 69 131 69zM514 1307v41q0 43 -15.5 62.5t-49.5 19.5q-56 0 -123 -76v-47h188zM307 -45v1026h160v-1026q0 -177 -117.5 -294.5t-294.5 -117.5h-104v158h104q111 0 181.5 71t70.5 183z" />
    <glyph glyph-name="uni0698" unicode="&#x698;" horiz-adv-x="739" 
d="M408 1425q-42 0 -72.5 30.5t-30.5 72.5q0 41 31 71.5t72 30.5q42 0 72 -30t30 -72q0 -43 -29.5 -73t-72.5 -30zM248 1178q-41 0 -72 30.5t-31 71.5t31 72.5t72 31.5q42 0 72 -31t30 -73t-30 -72t-72 -30zM569 1178q-41 0 -72.5 30.5t-31.5 71.5t31.5 72.5t72.5 31.5
t72 -31.5t31 -72.5t-31 -71.5t-72 -30.5zM-20 -457v158h104q111 0 181.5 71t70.5 183v1026h160v-1026q0 -177 -117.5 -294.5t-294.5 -117.5h-104z" />
    <glyph glyph-name="uni06A1" unicode="&#x6a1;" horiz-adv-x="1822" 
d="M1282 1030q172 0 294 -122t122 -294v-174q0 -183 -127.5 -311.5t-310.5 -128.5h-762q-173 0 -293.5 120t-120.5 292v266h160v-264q0 -105 74.5 -179.5t179.5 -74.5h471q-57 44 -90 112t-33 146v196q0 172 122 294t294 122h20zM1538 614q0 109 -73.5 182.5t-182.5 73.5
h-20q-109 0 -182.5 -73.5t-73.5 -182.5v-196q0 -106 71.5 -182t171.5 -76h33q107 6 181.5 84.5t74.5 187.5v182z" />
    <glyph glyph-name="uni06A4" unicode="&#x6a4;" horiz-adv-x="1822" 
d="M1272 1481q-42 0 -72.5 30.5t-30.5 73.5q0 41 31 72t72 31q42 0 72 -30.5t30 -72.5q0 -43 -29.5 -73.5t-72.5 -30.5zM1112 1233q-41 0 -71.5 30.5t-30.5 73.5q0 41 30.5 72t71.5 31q42 0 72 -30.5t30 -72.5q0 -43 -29.5 -73.5t-72.5 -30.5zM1434 1233q-42 0 -73.5 31
t-31.5 73q0 41 32 72t73 31t71.5 -31t30.5 -72q0 -43 -30.5 -73.5t-71.5 -30.5zM1282 1030q172 0 294 -122t122 -294v-174q0 -183 -127.5 -311.5t-310.5 -128.5h-762q-173 0 -293.5 120t-120.5 292v266h160v-264q0 -105 74.5 -179.5t179.5 -74.5h471q-57 44 -90 112t-33 146
v196q0 172 122 294t294 122h20zM1538 614q0 109 -73.5 182.5t-182.5 73.5h-20q-109 0 -182.5 -73.5t-73.5 -182.5v-196q0 -106 71.5 -182t171.5 -76h33q107 6 181.5 84.5t74.5 187.5v182z" />
    <glyph glyph-name="uni06A9" unicode="&#x6a9;" horiz-adv-x="1771" 
d="M1198 809q201 0 316.5 -116.5t115.5 -301.5q0 -158 -111 -274.5t-268 -116.5h-759q-115 1 -208.5 55t-146.5 148t-53 209v344h160v-344q0 -110 71 -181t181 -71h735q98 0 168.5 70.5t70.5 168.5q0 108 -78 179t-194 71h-594l-43 49l371 727l129 -57l-281 -559h418z" />
    <glyph glyph-name="uni06AF" unicode="&#x6af;" horiz-adv-x="1800" 
d="M778 1427h86l-372 -727h-84zM1225 809q202 0 317 -116.5t115 -301.5q0 -158 -111 -274.5t-266 -116.5h-788q-115 1 -208.5 55t-146.5 148t-53 209v344h160v-344q0 -110 71 -181t181 -71h761q99 0 169.5 70t70.5 169q0 108 -78 179t-194 71h-592l-43 49l368 727l129 -57
l-278 -559h416z" />
    <glyph glyph-name="uni06BA" unicode="&#x6ba;" horiz-adv-x="1398" 
d="M100 426h158v-420q0 -183 115 -297.5t297 -114.5h8q183 0 299.5 114.5t116.5 297.5v971h159v-971q0 -162 -74.5 -292.5t-206 -204.5t-294.5 -74h-8q-246 0 -408 162.5t-162 408.5v420z" />
    <glyph glyph-name="uni06BE" unicode="&#x6be;" horiz-adv-x="1585" 
d="M422 969q165 49 324 59t286 -16t224.5 -79t151 -133t54.5 -175v-224q0 -166 -117.5 -283.5t-283.5 -117.5h-1086l-69 27v106l69 27h316q-50 37 -79.5 98t-29.5 129v166q3 120 67.5 209t172.5 121v86zM1049 160q105 0 179.5 74.5t74.5 179.5v209q-1 74 -58.5 131.5
t-151.5 87.5t-216 37t-252 -21q140 -3 226.5 -86t86.5 -231v-381h111zM801 160v385q0 103 -62 165t-174 62q-121 0 -183.5 -60t-62.5 -167v-152q0 -93 67 -158.5t163 -74.5h252z" />
    <glyph glyph-name="uni06C1" unicode="&#x6c1;" horiz-adv-x="1083" 
d="M113 627q0 169 119 288t286 119h33q169 0 288 -119t119 -288v-246q0 -157 -110.5 -268t-265.5 -111h-64q-170 0 -287.5 118t-117.5 288v219zM272 627v-219q0 -101 72.5 -173.5t173.5 -72.5h68q88 0 150.5 62t62.5 151v252q0 105 -71.5 176t-176.5 71h-33q-104 0 -175 -71
t-71 -176z" />
    <glyph glyph-name="uni06C2" unicode="&#x6c2;" horiz-adv-x="1083" 
d="M739 1323v-94h-387v94h78q-53 50 -53 133t45 130.5t125 47.5q76 0 125 -46t59 -140h-86q-18 92 -96 92q-42 0 -62 -21.5t-20 -70.5q0 -86 76 -125h196zM551 1034q169 0 288 -119t119 -288v-246q0 -157 -110.5 -268t-265.5 -111h-64q-170 0 -287.5 118t-117.5 288v219
q0 169 119 288t286 119h33zM799 375v252q0 105 -71.5 176t-176.5 71h-33q-104 0 -175 -71t-71 -176v-219q0 -101 72.5 -173.5t173.5 -72.5h68q88 0 150.5 62t62.5 151z" />
    <glyph glyph-name="uni06C3" unicode="&#x6c3;" horiz-adv-x="1083" 
d="M397 1206q-41 0 -71.5 31t-30.5 72t30.5 72.5t71.5 31.5q42 0 72.5 -31t30.5 -73t-30.5 -72.5t-72.5 -30.5zM731 1206q-43 0 -73.5 31t-30.5 72q0 42 31 73t73 31q41 0 72 -31.5t31 -72.5t-31 -72t-72 -31zM113 627q0 169 119 288t286 119h33q169 0 288 -119t119 -288
v-246q0 -157 -110.5 -268t-265.5 -111h-64q-170 0 -287.5 118t-117.5 288v219zM272 627v-219q0 -101 72.5 -173.5t173.5 -72.5h68q88 0 150.5 62t62.5 151v252q0 105 -71.5 176t-176.5 71h-33q-104 0 -175 -71t-71 -176z" />
    <glyph glyph-name="uni06CC" unicode="&#x6cc;" horiz-adv-x="1957" 
d="M1501 1026h318v-1024h-158v864h-160q-107 0 -176.5 -69t-69.5 -176v-596q0 -162 -75 -293t-207 -205t-295 -74h-6q-121 0 -227.5 43.5t-182 119t-119 182t-43.5 227.5v419h158v-419q0 -183 115.5 -297.5t298.5 -114.5h6q184 0 301 115t117 297v596q0 173 116 289t289 116
z" />
    <glyph glyph-name="uni06D2" unicode="&#x6d2;" horiz-adv-x="1421" 
d="M330 -330h1069v-162h-1229v732q0 173 116 289t289 116h318v-643h-158v485h-160q-107 0 -176 -69t-69 -178v-570z" />
    <glyph glyph-name="uni06D3" unicode="&#x6d3;" horiz-adv-x="1421" 
d="M815 944v-94h-387v94h78q-55 52 -55 133q0 82 46 129t124 47t126 -45t58 -139h-86q-18 92 -96 92q-41 0 -60.5 -21.5t-19.5 -70.5q0 -84 73 -125h199zM330 -330h1069v-162h-1229v732q0 173 116 289t289 116h318v-643h-158v485h-160q-107 0 -176 -69t-69 -178v-570z" />
    <glyph glyph-name="uni06D4" unicode="&#x6d4;" horiz-adv-x="536" 
d="M268 -6q-36 0 -61 25.5t-27 62.5q0 35 25.5 60.5t62.5 25.5q35 0 61.5 -25.5t26.5 -60.5q-2 -37 -27.5 -62.5t-60.5 -25.5z" />
    <glyph glyph-name="uni06F0" unicode="&#x6f0;" horiz-adv-x="733" 
d="M508 530l-131 -129l-127 129q21 24 66 69.5t59 57.5q105 -105 133 -127z" />
    <glyph glyph-name="uni06F1" unicode="&#x6f1;" horiz-adv-x="505" 
d="M342 0h-160v1303h160v-1303z" />
    <glyph glyph-name="uni06F2" unicode="&#x6f2;" horiz-adv-x="806" 
d="M776 1305v-160h-215q-110 0 -181 -71t-71 -181v-893h-159v893q0 177 117 294.5t294 117.5h215z" />
    <glyph glyph-name="uni06F3" unicode="&#x6f3;" horiz-adv-x="1339" 
d="M1059 1303h131v-439q0 -92 -70 -167.5t-166 -75.5q-98 0 -150.5 26.5t-92.5 83.5q-34 -50 -91.5 -80t-125.5 -30h-140v-621h-159v1303h159v-543h146q66 0 108.5 43t42.5 106v394h125v-394q0 -75 34 -112t126 -37q52 0 87.5 41.5t35.5 87.5v414z" />
    <glyph glyph-name="uni06F4" unicode="&#x6f4;" horiz-adv-x="1359" 
d="M1210 729v-143h-856v-586h-159v1303h159v-574h152q-92 80 -92 211q0 71 26.5 130.5t74.5 102.5t109 76t134.5 53.5t147.5 31.5t151 14v-150q-92 -2 -179 -20t-160 -50t-117 -83t-44 -113q0 -103 82.5 -153t216.5 -50h354z" />
    <glyph glyph-name="uni06F5" unicode="&#x6f5;" horiz-adv-x="1239" 
d="M422 53q-186 0 -272 175q-79 162 -50 407q29 242 146 428q125 199 299 238q37 8 76 8q195 0 339 -191q125 -167 166 -412q40 -243 -24 -424q-65 -180 -213 -219q-38 -10 -80 -10q-136 0 -197 125q-56 -125 -190 -125zM422 178q70 0 104 74t31 190h105q0 -110 37.5 -187
t109.5 -77q132 0 182 150q50 147 7 363.5t-150 357.5q-103 135 -227 135q-135 0 -248 -167q-104 -154 -142 -368q-38 -218 20 -351q52 -120 171 -120z" />
    <glyph glyph-name="uni06F6" unicode="&#x6f6;" horiz-adv-x="1208" 
d="M582 256q-126 -29 -203.5 -100t-77.5 -187q0 -133 113 -219l-76 -129q-87 60 -135.5 149t-48.5 199q0 142 78 239.5t212 141.5q-194 95 -194 365q0 117 32.5 209.5t88 150t128.5 93.5t156 44.5t168.5 -3t167.5 -42.5v-127q-87 34 -170 44.5t-157 -6.5t-130 -59.5
t-89 -121.5t-33 -186q0 -168 74.5 -238.5t207.5 -73.5l383 62v-125z" />
    <glyph glyph-name="uni06F7" unicode="&#x6f7;" horiz-adv-x="1230" 
d="M526 -4l-407 1315h153l349 -1139h2l348 1139h147l-407 -1315h-185z" />
    <glyph glyph-name="uni06F8" unicode="&#x6f8;" horiz-adv-x="1241" 
d="M526 1319h185l407 -1319h-147l-348 1143h-2l-349 -1143h-153z" />
    <glyph glyph-name="uni06F9" unicode="&#x6f9;" horiz-adv-x="1060" 
d="M492 1335q178 0 290.5 -117t112.5 -298v-920h-160v426h-270q-171 2 -287.5 118.5t-116.5 299.5v92q0 166 117 282.5t293 116.5h21zM467 586h268v334q0 116 -67.5 190t-178.5 74h-18q-105 0 -177.5 -72t-72.5 -184v-90q0 -101 73 -176.5t173 -75.5z" />
    <glyph glyph-name="Wgrave" unicode="&#x1e80;" horiz-adv-x="1902" 
d="M889 1589q-8 31 -27 97.5t-31.5 120t-17.5 102.5l-18 100h123l16 -86q4 -46 14.5 -100t26.5 -123.5t24 -110.5h-110zM1673 1399h176l-385 -1415h-207l-305 1122l-307 -1122h-209l-383 1415h185l208 -768l101 -398l102 398l209 768h193l211 -768l102 -398l100 398z" />
    <glyph glyph-name="wgrave" unicode="&#x1e81;" horiz-adv-x="1628" 
d="M762 1411q-8 35 -27 99.5t-32.5 119.5t-18.5 103l-16 98h123l14 -86q4 -47 14 -99.5t27.5 -125.5t25.5 -109h-110zM1411 1030h180l-338 -1046h-198l-244 804l-242 -804h-192l-338 1046h178l264 -887l248 887h172l248 -887z" />
    <glyph glyph-name="Wacute" unicode="&#x1e82;" horiz-adv-x="1902" 
d="M1096 1894q-5 -49 -18 -102.5t-31.5 -119.5t-26.5 -99h-111q5 24 33 149t33 185l16 88h121zM1673 1399h176l-385 -1415h-207l-305 1122l-307 -1122h-209l-383 1415h185l208 -768l101 -398l102 398l209 768h193l211 -768l102 -398l100 398z" />
    <glyph glyph-name="wacute" unicode="&#x1e83;" horiz-adv-x="1628" 
d="M915 1716q-5 -49 -18 -102.5t-32 -119t-27 -97.5h-111q8 38 25.5 109.5t28 125t14.5 99.5l14 86h123zM1411 1030h180l-338 -1046h-198l-244 804l-242 -804h-192l-338 1046h178l264 -887l248 887h172l248 -887z" />
    <glyph glyph-name="Wdieresis" unicode="&#x1e84;" horiz-adv-x="1902" 
d="M805 1546q-32 0 -55 24t-23 56q0 34 23 57t55 23q34 0 57 -23t23 -57q0 -33 -23.5 -56.5t-56.5 -23.5zM1067 1546q-33 0 -56.5 23.5t-23.5 56.5q0 34 23 57t57 23q32 0 55 -23t23 -57q0 -32 -23 -56t-55 -24zM1673 1399h176l-385 -1415h-207l-305 1122l-307 -1122h-209
l-383 1415h185l208 -768l101 -398l102 398l209 768h193l211 -768l102 -398l100 398z" />
    <glyph glyph-name="wdieresis" unicode="&#x1e85;" horiz-adv-x="1628" 
d="M678 1370q-32 0 -56 23t-24 55q0 34 24 58t56 24t56 -24t24 -58q0 -32 -24 -55t-56 -23zM938 1370q-32 0 -56 23t-24 55q0 34 24 58t56 24t56 -24t24 -58q0 -32 -24 -55t-56 -23zM1411 1030h180l-338 -1046h-198l-244 804l-242 -804h-192l-338 1046h178l264 -887l248 887
h172l248 -887z" />
    <glyph glyph-name="uni1E9E" unicode="&#x1e9e;" horiz-adv-x="1257" 
d="M326 0h-183v1399h562q195 0 305 -96t110 -265q0 -120 -57.5 -203t-161.5 -120q128 -37 197 -126t69 -216q0 -175 -115 -275.5t-311 -103.5h-129l-2 151h125q122 0 188 62t66 182q0 112 -69.5 175t-194.5 71h-41v151h39q225 12 225 232q0 112 -67 171.5t-189 59.5h-370z
" />
    <glyph glyph-name="Ygrave" unicode="&#x1ef2;" horiz-adv-x="1236" 
d="M561 1589q-8 31 -27 97.5t-31.5 120t-17.5 102.5l-18 100h123l16 -86q4 -46 14.5 -100.5t27 -123t24.5 -110.5h-111zM1004 1399h182l-479 -920v-485h-179v485l-479 920h191l200 -385l183 -357l182 357z" />
    <glyph glyph-name="ygrave" unicode="&#x1ef3;" horiz-adv-x="1054" 
d="M496 1411q-8 33 -26.5 99t-31.5 120t-18 103l-19 98h123l17 -86q4 -46 14.5 -100t26.5 -123.5t24 -110.5h-110zM840 1030h176l-527 -1405h-157l121 328l-414 1077h184l305 -874l2 -6z" />
    <glyph glyph-name="quoteleft" unicode="&#x2018;" horiz-adv-x="405" 
d="M31 1186q12 105 44 238t60 218h105q-3 -17 -23 -108.5t-35 -177t-24 -166.5l-11 -78h-129z" />
    <glyph glyph-name="quoteright" unicode="&#x2019;" horiz-adv-x="481" 
d="M354 1446q-12 -105 -44 -238.5t-60 -218.5h-105q3 15 23 108.5t35 179.5t24 167l11 76h129z" />
    <glyph glyph-name="quotesinglbase" unicode="&#x201a;" horiz-adv-x="542" 
d="M354 109q-12 -105 -44 -238.5t-60 -218.5h-105q3 17 23 108.5t35 177t24 166.5l11 78h129z" />
    <glyph glyph-name="quotedblleft" unicode="&#x201c;" horiz-adv-x="851" 
d="M131 1186q12 104 44.5 235t62.5 221h104q-4 -22 -23.5 -109.5t-35.5 -174.5t-25 -168l-8 -78h-129zM477 1186q12 104 44 237t61 219h104q-3 -17 -23 -108.5t-35 -177t-24 -166.5l-10 -78h-129z" />
    <glyph glyph-name="quotedblright" unicode="&#x201d;" horiz-adv-x="827" 
d="M354 1446q-12 -105 -44 -238.5t-60 -218.5h-105q3 15 23 108.5t35 179.5t24 167l11 76h129zM700 1446q-12 -107 -45 -241.5t-61 -215.5h-105q4 20 23.5 109.5t35.5 177t25 168.5l11 76h127z" />
    <glyph glyph-name="quotedblbase" unicode="&#x201e;" horiz-adv-x="811" 
d="M553 182l-10 -73q-14 -105 -46.5 -238.5t-60.5 -218.5h-139q4 22 23.5 109.5t35.5 174.5t25 168l8 78h164z" />
    <glyph glyph-name="dagger" unicode="&#x2020;" horiz-adv-x="595" 
d="M330 1362v-690h-164v690h-146l29 127h117v256l164 45v-301h233l-28 -127h-205z" />
    <glyph glyph-name="daggerdbl" unicode="&#x2021;" horiz-adv-x="595" 
d="M330 1362v-184h229v-131h-229v-406h-164v406h-146v131h146v184h-146l29 127h117v256l164 45v-301h233l-28 -127h-205z" />
    <glyph glyph-name="bullet" unicode="&#x2022;" horiz-adv-x="657" 
d="M328 -86q-69 0 -116.5 48.5t-49.5 119.5q-1 69 48 117.5t118 48.5q70 0 119.5 -49t48.5 -117q-2 -71 -50.5 -119.5t-117.5 -48.5z" />
    <glyph glyph-name="perthousand" unicode="&#x2030;" horiz-adv-x="2859" 
d="M516 559q-163 0 -250.5 125.5t-87.5 343.5q0 213 87.5 337t250.5 124q164 0 252 -123.5t88 -337.5q0 -218 -88 -343.5t-252 -125.5zM516 674q57 0 99.5 28.5t66.5 78.5t35.5 111.5t11.5 135.5q0 100 -19.5 174.5t-68.5 123t-125 48.5q-75 0 -123.5 -48.5t-68 -123
t-19.5 -174.5q0 -74 11.5 -135.5t35.5 -111.5t66 -78.5t98 -28.5zM1108 1370h152l-404 -1597h-149zM1528 -213q-163 0 -250.5 125t-87.5 344q0 213 87.5 336t250.5 123q164 0 252 -123t88 -336q0 -219 -87.5 -344t-252.5 -125zM2355 -213q-163 0 -250.5 125t-87.5 344
q0 213 87.5 336t250.5 123q164 0 252 -123t88 -336q0 -219 -87.5 -344t-252.5 -125zM1528 -98q76 0 125 50.5t68.5 126.5t19.5 177q0 99 -19.5 173t-68.5 122.5t-125 48.5q-75 0 -123 -48.5t-67 -122.5t-19 -173q0 -75 11 -136t34.5 -111.5t65 -78.5t98.5 -28zM2355 -98
q76 0 125 50.5t68.5 126.5t19.5 177q0 99 -19.5 173t-68.5 122.5t-125 48.5q-75 0 -123.5 -48.5t-68 -122.5t-19.5 -173q0 -74 11.5 -136t35.5 -112t65.5 -78t98.5 -28z" />
    <glyph glyph-name="guilsinglleft" unicode="&#x2039;" horiz-adv-x="487" 
d="M301 872h96l-250 -385l250 -381h-96l-262 381z" />
    <glyph glyph-name="guilsinglright" unicode="&#x203a;" horiz-adv-x="559" 
d="M258 174h-96l250 385l-250 381h96l262 -381z" />
    <glyph glyph-name="fraction" unicode="&#x2044;" horiz-adv-x="1153" 
d="M223 -227h-149l854 1597h149z" />
    <glyph glyph-name="Euro" unicode="&#x20ac;" horiz-adv-x="1292" 
d="M741 1270q-366 0 -419 -426h348v-111h-369v-37q0 -23 4 -69h365v-113h-336q29 -192 131.5 -290.5t275.5 -98.5q175 0 449 86v-139q-239 -99 -467 -99q-255 0 -401 139t-183 402h-286v113h272q-2 23 -2 69v37h-270v111h280q31 280 178.5 427.5t411.5 147.5q231 0 467 -98
v-141q-274 90 -449 90z" />
    <glyph glyph-name="trademark" unicode="&#x2122;" horiz-adv-x="2779" 
d="M68 1249v150h985v-150h-404v-1255h-178v1255h-403zM2417 1399h219v-1405h-178l2 1128l-455 -897h-125l-457 897l4 -1128h-163v1405h215l274 -543l199 -395l196 395z" />
    <glyph glyph-name="partialdiff" unicode="&#x2202;" horiz-adv-x="1208" 
d="M485 1419q136 0 244.5 -47t188.5 -141.5t123.5 -248.5t43.5 -359q0 -104 -14.5 -194.5t-50 -176t-90.5 -146t-142 -97t-198 -36.5q-206 0 -336.5 133.5t-130.5 350.5q0 229 119 355t321 126q102 0 194 -48.5t158 -137.5q-4 45 -11.5 87.5t-23 96.5t-37 100.5t-55.5 92
t-75.5 77.5t-101 52t-128.5 20q-78 0 -145 -10.5t-166 -40.5l-8 131q66 22 97.5 31t94.5 19.5t129 10.5zM592 117q78 0 135.5 27t91.5 71t54 110.5t27 133.5t7 153q-58 86 -139 135.5t-166 49.5q-73 0 -128.5 -22t-88.5 -56t-54 -81t-28.5 -92t-7.5 -95q0 -149 82.5 -241.5
t214.5 -92.5z" />
    <glyph glyph-name="emptyset" unicode="&#x2205;" horiz-adv-x="1421" 
d="M932 1384q183 -63 274.5 -239t91.5 -443q0 -346 -147.5 -537.5t-439.5 -191.5q-66 0 -133 13l-37 -148h-105l43 174q-177 66 -266.5 244t-89.5 446q0 339 148 528t440 189q58 0 123 -10l47 188h104zM301 702q0 -414 219 -534l277 1094q-36 8 -86 8q-202 0 -306 -144
t-104 -424zM711 125q91 0 162 31t116.5 83.5t75 128t41.5 157t12 177.5q0 418 -225 529l-277 -1096q48 -10 95 -10z" />
    <glyph glyph-name="minus" unicode="&#x2212;" horiz-adv-x="1132" 
d="M973 489h-811v127h811v-127z" />
    <glyph glyph-name="approxequal" unicode="&#x2248;" horiz-adv-x="1677" 
d="M252 571l-88 131l373 308q47 -104 180 -166t276 -62q113 0 264.5 50.5t219.5 107.5l36 -170q-81 -71 -240.5 -123.5t-279.5 -52.5q-275 0 -487 186zM252 78l-88 131l373 307q47 -104 180 -165.5t276 -61.5q112 0 264 50.5t220 106.5l36 -167q-81 -73 -240.5 -126
t-279.5 -53q-274 0 -487 187z" />
    <glyph glyph-name="notequal" unicode="&#x2260;" horiz-adv-x="1144" 
d="M975 489h-305l-64 -221h369v-127h-406l-94 -325h-149l94 325h-256v127h293l63 221h-356v127h393l88 308h152l-90 -308h268v-127z" />
    <glyph glyph-name="lessequal" unicode="&#x2264;" horiz-adv-x="1288" 
d="M1071 238l-872 469v155l872 469v-166l-694 -377v-8l694 -377v-165zM229 -12v127h852v-127h-852z" />
    <glyph glyph-name="greaterequal" unicode="&#x2265;" horiz-adv-x="1288" 
d="M209 238v165l694 377v8l-694 377v166l872 -469v-155zM1051 -12h-852v127h852v-127z" />
    <glyph glyph-name="uniFD3E" unicode="&#xfd3e;" horiz-adv-x="704" 
d="M213 543q0 474 229 862h158q-104 -183 -162.5 -410t-58.5 -452q0 -224 58.5 -449.5t162.5 -410.5h-158q-229 388 -229 860z" />
    <glyph glyph-name="uniFD3F" unicode="&#xfd3f;" horiz-adv-x="1091" 
d="M492 543q0 -469 -228 -860h-160q105 185 164.5 410.5t59.5 449.5q0 225 -59.5 451t-164.5 411h160q228 -394 228 -862z" />
    <glyph glyph-name="N.001" horiz-adv-x="1359" 
d="M1051 1405h166v-1405h-173l-739 1094l2 -1094h-164v1405h162l750 -1108z" />
    <glyph glyph-name="i.loclTRK" horiz-adv-x="409" 
d="M203 1149q-38 0 -66 28t-28 66q0 37 28 64.5t66 27.5t66 -27.5t28 -64.5q0 -38 -28 -66t-66 -28zM287 1016v-1016h-164v1016h164z" />
    <glyph glyph-name="uni06F4.urdu" horiz-adv-x="1335" 
d="M1210 729v-143h-856v-586h-159v1303h159v-574h152q-92 80 -92 211q0 71 26.5 130.5t74.5 102.5t109 76t134.5 53.5t147.5 31.5t151 14v-150q-92 -2 -179 -20t-160 -50t-117 -83t-44 -113q0 -103 82.5 -153t216.5 -50h354z" />
    <glyph glyph-name="uni06F7.urdu" horiz-adv-x="1230" 
d="M526 -4l-407 1315h153l349 -1139h2l348 1139h147l-407 -1315h-185z" />
    <glyph glyph-name="guillemotleft.case" horiz-adv-x="1103" 
d="M365 246l-263 385l263 381h96l-250 -381l250 -385h-96zM721 246l-262 385l262 381h96l-252 -381l252 -385h-96z" />
    <glyph glyph-name="guillemotright.case" horiz-adv-x="876" 
d="M133 1006l262 -385l-262 -381h-96l250 381l-250 385h96zM489 1006l263 -385l-263 -381h-96l250 381l-250 385h96z" />
    <glyph glyph-name="guilsinglleft.case" horiz-adv-x="559" 
d="M301 975h96l-250 -385l250 -381h-96l-262 381z" />
    <glyph glyph-name="guilsinglright.case" horiz-adv-x="559" 
d="M258 276h-96l250 386l-250 380h96l262 -380z" />
    <glyph glyph-name="dotabovear" 
d="M72 1714q-33 0 -56.5 23.5t-23.5 56.5q0 34 23 57t57 23q31 0 54.5 -23.5t23.5 -56.5q0 -32 -23.5 -56t-54.5 -24z" />
    <glyph glyph-name="dotbelowar" 
d="M98 -406q-34 0 -58 24t-24 58t24 59t58 25t58 -25t24 -59t-24 -58t-58 -24z" />
    <glyph glyph-name="dotcenterar" 
d="M98 600q-34 0 -58 24.5t-24 59.5q0 34 24 58t58 24t58 -24t24 -58q0 -35 -24 -59.5t-58 -24.5z" />
    <glyph glyph-name="twodotsverticalabovear" 
d="M88 1667q-34 0 -58 23.5t-24 58.5q0 34 24 58t58 24t58 -24t24 -58q0 -35 -24 -58.5t-58 -23.5zM88 1456q-34 0 -58 25t-24 59t24 59t58 25t58 -25t24 -59t-24 -59t-58 -25z" />
    <glyph glyph-name="twodotsverticalbelowar" 
d="M98 -365q-34 0 -58 24.5t-24 59.5q0 34 24 58t58 24t58 -24t24 -58q0 -35 -24 -59.5t-58 -24.5zM98 -584q-34 0 -58 24t-24 58t24 59t58 25t58 -25t24 -59t-24 -58t-58 -24z" />
    <glyph glyph-name="twodotshorizontalabovear" 
d="M109 1501q-32 0 -56 24t-24 56t24 56t56 24q33 0 56 -23.5t23 -56.5t-23 -56.5t-56 -23.5zM369 1501q-32 0 -56 24t-24 56t24 56t56 24q33 0 56.5 -23.5t23.5 -56.5t-23.5 -56.5t-56.5 -23.5z" />
    <glyph glyph-name="twodotshorizontalbelowar" 
d="M94 -573q-34 0 -58 25t-24 59t24 57.5t58 23.5t58 -23.5t24 -57.5t-24 -59t-58 -25zM360 -573q-33 0 -57 25t-24 59t23.5 57.5t57.5 23.5t58 -23.5t24 -57.5t-24 -59t-58 -25z" />
    <glyph glyph-name="threedotsdownabovear" 
d="M106 1690q-34 0 -58.5 24t-24.5 58t24.5 58.5t58.5 24.5t58 -24.5t24 -58.5t-24 -58t-58 -24zM313 1690q-34 0 -58 24t-24 58t24 58.5t58 24.5q35 0 58.5 -24.5t23.5 -58.5t-23.5 -58t-58.5 -24zM209 1513q-34 0 -58 24t-24 58t24 59t58 25t58 -25t24 -59t-24 -58
t-58 -24z" />
    <glyph glyph-name="threedotsdownbelowar" 
d="M88 -397q-32 0 -55 23t-23 55t23 54.5t55 22.5t55 -22.5t23 -54.5t-23 -55t-55 -23zM328 -397q-32 0 -55 23t-23 55t23 54.5t55 22.5t55 -22.5t23 -54.5t-23 -55t-55 -23zM207 -602q-32 0 -55 23t-23 55t23 56t55 24t55 -24t23 -56t-23 -55t-55 -23z" />
    <glyph glyph-name="threedotsupabovear" 
d="M219 1708q-32 0 -55 22.5t-23 53.5q0 34 23 57t55 23t55 -23t23 -57q0 -31 -23 -53.5t-55 -22.5zM100 1509q-32 0 -54.5 23t-22.5 55t22.5 55t54.5 23t55 -23t23 -55t-23 -55t-55 -23zM352 1509q-32 0 -55 23t-23 55t23 55t55 23t55 -23t23 -55t-23 -55t-55 -23z" />
    <glyph glyph-name="threedotsupbelowar" 
d="M213 -399q-34 0 -58 24t-24 58t24 59t58 25t58 -25t24 -59t-24 -58t-58 -24zM117 -573q-35 0 -59.5 23.5t-24.5 57.5t24.5 59t59.5 25q33 0 56.5 -25t23.5 -59t-23 -57.5t-57 -23.5zM317 -573q-34 0 -57.5 23.5t-23.5 57.5t24 59t57 25q35 0 58.5 -25t23.5 -59
t-23.5 -57.5t-58.5 -23.5z" />
    <glyph glyph-name="waslaar" 
 />
    <glyph glyph-name="miniKehehar" 
 />
    <glyph glyph-name="gafsarkashabovear" 
d="M309 1427h84l-370 -727h-86z" />
    <glyph glyph-name="gafsarkashcenterar" 
 />
    <glyph glyph-name="doublestrokear" 
 />
    <glyph glyph-name="hamzacenterar" 
d="M166 924h176v-78h-342v78h70q-50 47 -50 123q0 73 40.5 115t111.5 42q142 0 162 -162h-72q-17 84 -90 84q-39 0 -57.5 -20.5t-18.5 -65.5q0 -79 70 -116z" />
    <glyph glyph-name="uni0654064F" 
d="M342 2052q0 -49 -29.5 -85.5t-74.5 -45.5l-261 -80v74l142 43q-39 39 -39 94q0 54 38.5 92.5t92.5 38.5t92.5 -38.5t38.5 -92.5zM145 2054q0 -29 15.5 -48t40.5 -24l10 5l2 -5q28 0 47 20t19 52q0 28 -19 47t-47 19q-29 0 -48.5 -19t-19.5 -47zM168 1493h197v-94h-388v94
h78q-53 50 -53 133t45 129.5t125 46.5q77 0 125.5 -45.5t58.5 -138.5h-88q-18 92 -96 92q-41 0 -60.5 -21.5t-19.5 -70.5q0 -86 76 -125z" />
    <glyph glyph-name="uni0654064C" 
d="M236 1956l-261 -82v10h-2q0 3 1 11t1 12v28q-2 45 -24 67t-70 -1v57q68 32 103.5 5.5t40.5 -101.5l92 31q-39 36 -39 92q0 55 38.5 93t92.5 38t92.5 -38t38.5 -93q0 -47 -29.5 -83.5t-74.5 -45.5zM143 2087q0 -26 14.5 -46t37.5 -24l14 4l2 -6q28 0 46.5 20.5t18.5 51.5
q0 28 -18.5 47.5t-46.5 19.5q-29 0 -48.5 -19.5t-19.5 -47.5zM168 1493h197v-94h-388v94h78q-53 50 -53 133t45 129.5t125 46.5q77 0 125.5 -45.5t58.5 -138.5h-88q-18 92 -96 92q-41 0 -60.5 -21.5t-19.5 -70.5q0 -86 76 -125z" />
    <glyph glyph-name="uni0654064E" 
d="M356 2124v-68l-362 -129v68zM168 1493h197v-94h-388v94h78q-53 50 -53 133t45 129.5t125 46.5q77 0 125.5 -45.5t58.5 -138.5h-88q-18 92 -96 92q-41 0 -60.5 -21.5t-19.5 -70.5q0 -86 76 -125z" />
    <glyph glyph-name="uni0654064B" 
d="M356 2255v-68l-362 -131v70zM356 2107v-67l-362 -131v69zM168 1493h197v-94h-388v94h78q-53 50 -53 133t45 129.5t125 46.5q77 0 125.5 -45.5t58.5 -138.5h-88q-18 92 -96 92q-41 0 -60.5 -21.5t-19.5 -70.5q0 -86 76 -125z" />
    <glyph glyph-name="uni06540652" 
d="M172 1858q-57 0 -97 41t-40 98t40 97t97 40t97 -40t40 -97t-40 -98t-97 -41zM172 2071q-30 0 -50 -20t-20 -50q0 -32 20 -53t50 -21q29 0 48.5 21t19.5 53q0 31 -19.5 50.5t-48.5 19.5zM168 1493h197v-94h-388v94h78q-53 50 -53 133t45 129.5t125 46.5q77 0 125.5 -45.5
t58.5 -138.5h-88q-18 92 -96 92q-41 0 -60.5 -21.5t-19.5 -70.5q0 -86 76 -125z" />
    <glyph glyph-name="uni06550650" 
d="M260 -295h197v-94h-385v94h75q-53 50 -53 133t45 130.5t125 47.5q78 0 126.5 -46t58.5 -140h-87q-18 92 -96 92q-42 0 -62 -21.5t-20 -70.5q0 -86 76 -125zM92 -709v78l338 113v-76z" />
    <glyph glyph-name="uni0655064D" 
d="M260 -295h197v-94h-385v94h75q-53 50 -53 133t45 130.5t125 47.5q78 0 126.5 -46t58.5 -140h-87q-18 92 -96 92q-42 0 -62 -21.5t-20 -70.5q0 -86 76 -125zM84 -725v68l360 131v-70zM84 -881v70l360 129v-68z" />
    <glyph glyph-name="uni06510670" 
 />
    <glyph glyph-name="uni0651064F" 
 />
    <glyph glyph-name="uni0651064C" 
 />
    <glyph glyph-name="uni0651064E" 
d="M18 1909l363 129v-70l-363 -129v70zM131 1403q-58 0 -94.5 36t-36.5 103v51l74 19v-70q0 -65 57 -65q53 0 53 79v95l74 20v-104q0 -26 16.5 -41t38.5 -15q70 0 70 84v111l74 18v-129q0 -74 -37 -116.5t-98 -42.5q-25 0 -49.5 12.5t-39.5 32.5q-12 -37 -40 -57.5
t-62 -20.5z" />
    <glyph glyph-name="uni0651064B.1" 
d="M18 2038l363 129v-68l-363 -131v70zM18 1890l363 129v-67l-363 -129v67zM131 1403q-58 0 -94.5 36t-36.5 103v51l74 19v-70q0 -65 57 -65q53 0 53 79v95l74 20v-104q0 -26 16.5 -41t38.5 -15q70 0 70 84v111l74 18v-129q0 -74 -37 -116.5t-98 -42.5q-25 0 -49.5 12.5
t-39.5 32.5q-12 -37 -40 -57.5t-62 -20.5z" />
    <glyph glyph-name="uni06510650" 
d="M135 1952q-58 0 -94.5 37t-36.5 104v51l72 19v-70q0 -65 59 -65q53 0 53 79v95l74 20v-106q0 -26 16.5 -40t38.5 -14q70 0 70 84v111l74 18v-129q0 -75 -37 -118t-98 -43q-56 0 -88 47q-12 -37 -41 -58.5t-62 -21.5zM39 1704l360 129v-70l-360 -129v70z" />
    <glyph glyph-name="out" 
d="M0 0l-76 29v116l76 27v-172z" />
    <glyph glyph-name="behnoondotless" horiz-adv-x="2121" 
 />
    </font>
</defs>
</svg>
