<svg xmlns="http://www.w3.org/2000/svg" xmlns:xlink="http://www.w3.org/1999/xlink" width="196.119" height="44" viewBox="0 0 196.119 44">
  <defs>
    <radialGradient id="radial-gradient" cx="0.368" cy="0.354" r="0.859" gradientTransform="matrix(0.602, -0.073, 0.044, 0.997, 0.131, 0.028)" gradientUnits="objectBoundingBox">
      <stop offset="0" stop-color="#fefefe"/>
      <stop offset="1" stop-color="#ed3237"/>
    </radialGradient>
  </defs>
  <g id="Group_20" data-name="Group 20" transform="translate(-5143.51 -3064.131)">
    <g id="Group_18" data-name="Group 18" transform="translate(5269.268 3064.131)">
      <path id="Path_38" data-name="Path 38" d="M5447.685,3144.851H5468q5.073,0,7.323,2.292a5.931,5.931,0,0,1,1.579,5.668,8.571,8.571,0,0,1-2.92,4.871,11.308,11.308,0,0,1-4.215,2.137q3.609.827,4.991,2.845a6.462,6.462,0,0,1,.757,5.074,9.931,9.931,0,0,1-2.168,4.475,12.071,12.071,0,0,1-4.11,3.144,14.211,14.211,0,0,1-4.327,1.042q-3.753.437-4.95.441h-18.725l6.456-31.989Zm8.41,12.549h4.714a6.719,6.719,0,0,0,3.7-.8,3.537,3.537,0,0,0,1.455-2.3,2.2,2.2,0,0,0-.549-2.183q-.843-.793-3.3-.79h-4.791l-1.225,6.07Zm-2.537,12.565h5.533a7.433,7.433,0,0,0,4.13-.9,3.745,3.745,0,0,0,1.642-2.437,2.244,2.244,0,0,0-.675-2.278c-.644-.573-1.909-.864-3.815-.864h-5.506Z" transform="translate(-5406.694 -3132.842)" fill="#201e1e" fill-rule="evenodd"/>
      <path id="Path_39" data-name="Path 39" d="M5239.187,3171.559h-12.356l-4.44,5.28H5211.31l29.8-31.989h11.825l-3.407,31.989h-11.352Zm1.319-6.919,2.089-11.5-9.826,11.5Z" transform="translate(-5211.31 -3132.841)" fill="#201e1e" fill-rule="evenodd"/>
      <path id="Path_40" data-name="Path 40" d="M5425.874,3144.51l-12.8,18.614,4.247-.993-6.542,14.42,12.456-17.03-4.077-.639Z" transform="translate(-5380.818 -3132.552)" fill="#ed3237" fill-rule="evenodd"/>
      <path id="Path_41" data-name="Path 41" d="M5291.2,3071.545c-14.3,7.524-23.438,17.638-20.348,22.516,2.243,3.54,10.329,3.374,20.061.141l.283-1.559c-9.15,3.4-16.991,3.816-19.051.562-2.638-4.163,5.163-12.794,17.366-19.214s24.3-8.262,26.937-4.1c1.01,1.592.489,3.839-1.219,6.365h4.545c3.2-3.786,4.448-7.225,3-9.514-3.089-4.878-17.271-2.721-31.566,4.8Z" transform="translate(-5261.396 -3064.131)" fill="#bdbfc1" fill-rule="evenodd"/>
      <path id="Path_42" data-name="Path 42" d="M5411.524,3080.852l-3.63-2.008a13.049,13.049,0,0,1,5.715-1.639c2.9-.072,4.333,1.321,3.4,3.2-.987,1.984-4.367,4.033-7.813,4.518-3.851.54-5.923-1.082-4.308-3.528a8.57,8.57,0,0,1,3-2.55l3.628,2.009Z" transform="translate(-5375.342 -3075.239)" fill-rule="evenodd" fill="url(#radial-gradient)"/>
    </g>
    <g id="Group_19" data-name="Group 19" transform="translate(5143.51 3072.391)">
      <path id="Path_43" data-name="Path 43" d="M5720.681,3264.662l2.395-7.087h1.945l2.4,7.087h-1.831l-.441-1.433H5722.9l-.439,1.433h-1.78Zm120.7,0H5839.7v-1.87h1.685Zm-2.69-3.541a3.806,3.806,0,0,1-.918,2.7,3.689,3.689,0,0,1-5.032-.013,4.439,4.439,0,0,1,0-5.388,3.69,3.69,0,0,1,5.032,0,3.82,3.82,0,0,1,.918,2.7Zm-1.834,0a3.792,3.792,0,0,0-.132-1.077,2.195,2.195,0,0,0-.347-.732,1.354,1.354,0,0,0-.518-.416,1.494,1.494,0,0,0-.6-.128,1.478,1.478,0,0,0-.6.117,1.44,1.44,0,0,0-.516.417,2.154,2.154,0,0,0-.354.732,4.505,4.505,0,0,0-.008,2.176,2.189,2.189,0,0,0,.353.72,1.318,1.318,0,0,0,.521.421,1.489,1.489,0,0,0,.6.126,1.413,1.413,0,0,0,.609-.137,1.338,1.338,0,0,0,.511-.42,2.316,2.316,0,0,0,.352-.722,3.758,3.758,0,0,0,.125-1.078Zm-8.068,3.683a3.359,3.359,0,0,1-2.529-.966,3.717,3.717,0,0,1-.938-2.713,3.777,3.777,0,0,1,.94-2.688,3.3,3.3,0,0,1,2.533-1,5.67,5.67,0,0,1,.759.047,5.021,5.021,0,0,1,.646.133,4.9,4.9,0,0,1,.531.2c.189.081.342.153.461.211v1.691h-.182c-.085-.076-.194-.166-.323-.271a4.293,4.293,0,0,0-.442-.311,3.049,3.049,0,0,0-.544-.259,1.873,1.873,0,0,0-.621-.105,2.022,2.022,0,0,0-.708.122,1.709,1.709,0,0,0-.611.419,2.047,2.047,0,0,0-.437.733,3.19,3.19,0,0,0-.169,1.087,3.067,3.067,0,0,0,.176,1.109,2,2,0,0,0,.464.725,1.667,1.667,0,0,0,.615.384,2.01,2.01,0,0,0,.678.119,1.948,1.948,0,0,0,.671-.116,2.575,2.575,0,0,0,.538-.257,3.231,3.231,0,0,0,.419-.3c.12-.1.226-.188.314-.267h.162v1.666l-.453.206a3.925,3.925,0,0,1-.53.2,5.931,5.931,0,0,1-.621.153,4.757,4.757,0,0,1-.8.053Zm-6.439-.137h-2.174l-1.972-2.6h-.631v2.6H5815.8v-7.087h2.851a6.453,6.453,0,0,1,1.029.074,2.263,2.263,0,0,1,.81.307,1.844,1.844,0,0,1,.6.616,1.8,1.8,0,0,1,.225.948,2.185,2.185,0,0,1-.366,1.318,2.567,2.567,0,0,1-.983.805l2.385,3.018Zm-2.865-4.921a.983.983,0,0,0-.1-.46.658.658,0,0,0-.338-.3,1.226,1.226,0,0,0-.373-.089c-.136-.013-.3-.02-.5-.02h-.593v1.911h.506a3.619,3.619,0,0,0,.629-.045.925.925,0,0,0,.438-.194.815.815,0,0,0,.254-.319,1.207,1.207,0,0,0,.084-.486Zm-9.683,4.921v-7.087h4.795v1.355h-3.022v1.238h2.789v1.354h-2.789v1.784h3.022v1.354H5809.8Zm-6,0v-7.087h4.8v1.355h-3.024v1.238h2.789v1.354h-2.789v1.784h3.024v1.354h-4.8Zm-1.462,0h-1.787v-3.137h-2.415v3.137h-1.784v-7.087h1.784v2.594h2.415v-2.594h1.787Zm-9.968.127a5.812,5.812,0,0,1-1.428-.158,7.058,7.058,0,0,1-1.143-.39v-1.684h.16a4.016,4.016,0,0,0,1.174.694,3.529,3.529,0,0,0,1.244.242,3.244,3.244,0,0,0,.4-.034,1.4,1.4,0,0,0,.4-.105.856.856,0,0,0,.314-.224.551.551,0,0,0,.128-.381.531.531,0,0,0-.21-.434,1.308,1.308,0,0,0-.5-.242c-.24-.062-.5-.123-.77-.18a6.223,6.223,0,0,1-.768-.209,2.385,2.385,0,0,1-1.179-.779,2.042,2.042,0,0,1-.356-1.231,1.905,1.905,0,0,1,.841-1.608,3.452,3.452,0,0,1,2.1-.617,6.264,6.264,0,0,1,1.26.128,5.473,5.473,0,0,1,1.118.347v1.62h-.155a3.488,3.488,0,0,0-.963-.566,3.068,3.068,0,0,0-1.167-.233,2.284,2.284,0,0,0-.417.033,1.549,1.549,0,0,0-.391.128.741.741,0,0,0-.285.221.511.511,0,0,0-.122.334.532.532,0,0,0,.193.431,1.965,1.965,0,0,0,.744.287c.238.054.466.1.686.156a6.589,6.589,0,0,1,.707.209,2.4,2.4,0,0,1,1.094.717,1.851,1.851,0,0,1,.359,1.183,2.04,2.04,0,0,1-.83,1.7,3.573,3.573,0,0,1-2.244.642Zm-9.624-.127,2.4-7.087h1.944l2.4,7.087h-1.831l-.442-1.433h-2.244l-.438,1.433h-1.781Zm4.072-2.729-.729-2.35-.729,2.35Zm-4.327.559a2.075,2.075,0,0,1-.2.93,1.93,1.93,0,0,1-.539.661,2.566,2.566,0,0,1-.878.448,4.642,4.642,0,0,1-1.217.134h-2.839v-7.087h2.507a8.7,8.7,0,0,1,1.183.06,2.236,2.236,0,0,1,.757.25,1.358,1.358,0,0,1,.568.546,1.626,1.626,0,0,1,.189.792,1.669,1.669,0,0,1-.26.924,1.528,1.528,0,0,1-.717.6v.039a1.924,1.924,0,0,1,1.049.563,1.627,1.627,0,0,1,.394,1.149Zm-2.282-2.915a.817.817,0,0,0-.087-.353.533.533,0,0,0-.274-.261,1.087,1.087,0,0,0-.417-.084c-.16,0-.4-.005-.716-.005h-.123v1.5h.224c.3,0,.517,0,.64-.009a1.007,1.007,0,0,0,.379-.1.572.572,0,0,0,.293-.276.976.976,0,0,0,.08-.408Zm.448,2.885a.851.851,0,0,0-.134-.513.8.8,0,0,0-.4-.281,1.39,1.39,0,0,0-.445-.069c-.19,0-.441,0-.76,0h-.328v1.774h.1c.462,0,.781,0,.96-.011a1.481,1.481,0,0,0,.541-.127.712.712,0,0,0,.355-.307.929.929,0,0,0,.112-.458Zm-7.548,2.2h-4.728v-7.087h1.784v5.732h2.944Zm-12.161,0,2.4-7.087h1.942l2.4,7.087h-1.833l-.441-1.433h-2.245l-.438,1.433Zm4.073-2.729-.729-2.35-.73,2.35Zm-13.569,2.636,2.365-6.994h1.943l2.4,7.087h-1.833l-.439-1.433h-2.245l-.44,1.433h-3.546l-.44-1.433h-2.244l-.439,1.433h-1.781l2.4-7.087h1.943l2.365,6.994Zm4.04-2.636-.73-2.35-.728,2.35Zm-6.671,0-.731-2.35-.728,2.35Zm-4.187-4.358-1.794,7.087h-1.951l-1.134-4.383-1.1,4.383h-1.956l-1.795-7.087h1.851l.975,4.741,1.186-4.741h1.766l1.127,4.754,1.026-4.754h1.8Zm-10.2,3.552a3.618,3.618,0,0,1-.433,1.774,3.266,3.266,0,0,1-1.095,1.2,3.08,3.08,0,0,1-1.2.461,9.072,9.072,0,0,1-1.381.1h-2.218v-7.087h2.2a9.863,9.863,0,0,1,1.4.1,3.076,3.076,0,0,1,1.225.461,3.161,3.161,0,0,1,1.1,1.205,3.734,3.734,0,0,1,.405,1.788Zm-1.833-.017a2.737,2.737,0,0,0-.239-1.193,1.736,1.736,0,0,0-.738-.777,1.7,1.7,0,0,0-.755-.218c-.263-.013-.578-.02-.946-.02h-.033v4.425h.033c.4,0,.735-.006,1.006-.021a1.616,1.616,0,0,0,.781-.256,1.749,1.749,0,0,0,.663-.758,2.8,2.8,0,0,0,.226-1.183Zm-7.854.823-.729-2.35-.729,2.35Z" transform="translate(-5720.681 -3236.771)" fill="#201e1e" fill-rule="evenodd"/>
      <path id="Path_44" data-name="Path 44" d="M5725.618,3327.451h-1.752V3329h1.615v.474h-1.615v1.989h-.525v-4.492h2.277v.475Zm114.9,3.836v-.624a1.193,1.193,0,0,0,.256.17,1.972,1.972,0,0,0,.312.128,2.609,2.609,0,0,0,.331.081,1.9,1.9,0,0,0,.306.029,1.189,1.189,0,0,0,.724-.181.669.669,0,0,0,.159-.833.852.852,0,0,0-.222-.246,1.99,1.99,0,0,0-.333-.214c-.127-.068-.266-.14-.414-.215s-.3-.161-.437-.241a1.814,1.814,0,0,1-.355-.27,1.15,1.15,0,0,1-.237-.334,1.084,1.084,0,0,1-.083-.437,1.028,1.028,0,0,1,.133-.535,1.155,1.155,0,0,1,.353-.374,1.579,1.579,0,0,1,.5-.221,2.275,2.275,0,0,1,.571-.07,2.214,2.214,0,0,1,.967.158v.591a1.937,1.937,0,0,0-1.365-.239.985.985,0,0,0-.308.117.677.677,0,0,0-.218.211.549.549,0,0,0-.083.314.618.618,0,0,0,.064.3.734.734,0,0,0,.188.229,1.868,1.868,0,0,0,.306.2c.12.064.258.136.414.213s.315.161.456.25a2.079,2.079,0,0,1,.38.292,1.3,1.3,0,0,1,.258.353,1,1,0,0,1,.1.446,1.127,1.127,0,0,1-.129.563,1.062,1.062,0,0,1-.35.373,1.546,1.546,0,0,1-.51.21,2.806,2.806,0,0,1-.607.065c-.07,0-.159-.006-.264-.017s-.211-.029-.318-.049a2.892,2.892,0,0,1-.308-.081.893.893,0,0,1-.233-.109Zm-1.341.18H5836.8v-4.491h2.277v.475h-1.75v1.494h1.622v.475h-1.622v1.572h1.852v.475Zm-3.811-4.491v.449h-.436v3.592h.436v.449h-1.4v-.449h.436v-3.592h-.436v-.449Zm-2.339,4.491H5830.7v-4.491h.525v4.017h1.8Zm-6.081-1.7v1.7h-.526v-4.491h1.232a1.637,1.637,0,0,1,1.117.35,1.25,1.25,0,0,1,.395.988,1.36,1.36,0,0,1-.44,1.045,1.685,1.685,0,0,1-1.188.406h-.592Zm0-2.315v1.841h.551a1.233,1.233,0,0,0,.83-.249.878.878,0,0,0,.288-.7q0-.891-1.051-.891Zm-4.281,2.315v1.7h-.527v-4.491h1.234a1.626,1.626,0,0,1,1.116.35,1.246,1.246,0,0,1,.4.988,1.361,1.361,0,0,1-.439,1.045,1.686,1.686,0,0,1-1.189.406h-.591Zm0-2.315v1.841h.552a1.241,1.241,0,0,0,.831-.249.878.878,0,0,0,.287-.7q0-.891-1.052-.891Zm-2.334,2.2q0,1.893-1.709,1.894-1.634,0-1.636-1.819v-2.749h.527v2.711c0,.921.387,1.383,1.166,1.383q1.124,0,1.123-1.334v-2.76h.526v2.675Zm-7.593,1.636v-.623a1.214,1.214,0,0,0,.257.169,2.07,2.07,0,0,0,.312.128,2.836,2.836,0,0,0,.331.081,1.889,1.889,0,0,0,.307.029,1.191,1.191,0,0,0,.723-.181.67.67,0,0,0,.158-.833.874.874,0,0,0-.219-.246,2.152,2.152,0,0,0-.334-.214c-.128-.068-.266-.14-.415-.215s-.3-.161-.438-.241a1.89,1.89,0,0,1-.355-.27,1.157,1.157,0,0,1-.237-.334,1.06,1.06,0,0,1-.084-.437,1.037,1.037,0,0,1,.133-.535,1.169,1.169,0,0,1,.355-.374,1.559,1.559,0,0,1,.5-.221,2.281,2.281,0,0,1,.57-.07,2.216,2.216,0,0,1,.968.158v.591a1.763,1.763,0,0,0-1.021-.274,1.815,1.815,0,0,0-.346.036.943.943,0,0,0-.306.117.685.685,0,0,0-.219.211.55.55,0,0,0-.083.314.642.642,0,0,0,.064.3.706.706,0,0,0,.189.229,1.894,1.894,0,0,0,.3.2c.121.064.259.136.415.213s.313.161.457.25a2.093,2.093,0,0,1,.378.292,1.28,1.28,0,0,1,.258.353,1,1,0,0,1,.1.446,1.122,1.122,0,0,1-.13.563,1.073,1.073,0,0,1-.349.373,1.573,1.573,0,0,1-.51.21,2.8,2.8,0,0,1-.607.065,2.608,2.608,0,0,1-.264-.017c-.1-.012-.21-.029-.32-.049a2.879,2.879,0,0,1-.308-.081.889.889,0,0,1-.234-.109Zm-2.922.181h-2.329v-4.491h.526v4.017h1.8Zm-3.676,0h-.584l-.474-1.258h-1.905l-.45,1.258h-.581l1.72-4.491h.545Zm-1.229-1.732-.7-1.917a2.025,2.025,0,0,1-.072-.3h-.012a1.952,1.952,0,0,1-.074.3l-.7,1.911h1.562Zm-3.853,1.545a2.62,2.62,0,0,1-1.238.264,1.992,1.992,0,0,1-1.531-.617,2.28,2.28,0,0,1-.576-1.622,2.391,2.391,0,0,1,.647-1.742,2.2,2.2,0,0,1,1.644-.664,2.6,2.6,0,0,1,1.058.187v.558a2.132,2.132,0,0,0-1.066-.27,1.627,1.627,0,0,0-1.25.517,1.941,1.941,0,0,0-.481,1.381,1.848,1.848,0,0,0,.451,1.309,1.519,1.519,0,0,0,1.176.486,2.216,2.216,0,0,0,1.172-.3v.512Zm-4.484-4.3v.449h-.437v3.592h.437v.449h-1.4v-.449h.437v-3.592h-.437v-.449Zm-2.266,4.491h-.63l-.751-1.26a2.408,2.408,0,0,0-.2-.3,1.152,1.152,0,0,0-.2-.2.639.639,0,0,0-.218-.115.944.944,0,0,0-.265-.036h-.432v1.912h-.526v-4.491h1.341a1.953,1.953,0,0,1,.545.073,1.228,1.228,0,0,1,.43.224,1.046,1.046,0,0,1,.287.375,1.352,1.352,0,0,1,.033.956,1.085,1.085,0,0,1-.2.348,1.239,1.239,0,0,1-.314.261,1.685,1.685,0,0,1-.413.167v.012a1.007,1.007,0,0,1,.194.114,1.177,1.177,0,0,1,.16.152,2.2,2.2,0,0,1,.148.2l.166.26.843,1.35Zm-2.695-4.016v1.629h.715a1.089,1.089,0,0,0,.365-.06.843.843,0,0,0,.289-.17.823.823,0,0,0,.194-.271.971.971,0,0,0,.067-.363.7.7,0,0,0-.233-.561,1,1,0,0,0-.675-.2h-.721Zm-1.918,0h-1.3v4.016h-.527v-4.016h-1.3v-.475h3.119Zm-4.261,3.829a2.623,2.623,0,0,1-1.24.264,2,2,0,0,1-1.532-.617,2.285,2.285,0,0,1-.576-1.622,2.4,2.4,0,0,1,.648-1.742,2.2,2.2,0,0,1,1.643-.664,2.6,2.6,0,0,1,1.058.187v.558a2.123,2.123,0,0,0-1.064-.27,1.633,1.633,0,0,0-1.251.517,1.943,1.943,0,0,0-.479,1.381,1.85,1.85,0,0,0,.45,1.309,1.524,1.524,0,0,0,1.177.486,2.205,2.205,0,0,0,1.169-.3v.512Zm-4.606.187h-2.381v-4.491h2.277v.475h-1.751v1.494h1.621v.475h-1.621v1.572h1.854v.475Zm-3.76,0h-2.327v-4.491h.525v4.017h1.8Zm-3.878,0h-2.38v-4.491h2.277v.475h-1.751v1.494h1.624v.475h-1.624v1.572h1.854v.475Zm-6.024.071a.975.975,0,0,1-.312-.048.872.872,0,0,1-.251-.139,1.487,1.487,0,0,1-.224-.217c-.072-.086-.147-.182-.228-.291a2.3,2.3,0,0,1-.289.26,2.03,2.03,0,0,1-.366.222,2.274,2.274,0,0,1-1.576.128,1.37,1.37,0,0,1-.481-.25,1.132,1.132,0,0,1-.313-.406,1.322,1.322,0,0,1-.11-.552,1.27,1.27,0,0,1,.272-.821,1.987,1.987,0,0,1,.773-.556,1.836,1.836,0,0,1-.188-.162,1.077,1.077,0,0,1-.168-.21,1.131,1.131,0,0,1-.12-.26,1.007,1.007,0,0,1-.046-.311,1.042,1.042,0,0,1,.089-.436.935.935,0,0,1,.247-.324,1.11,1.11,0,0,1,.369-.2,1.511,1.511,0,0,1,.46-.066,1.459,1.459,0,0,1,.447.066,1.061,1.061,0,0,1,.347.193.882.882,0,0,1,.228.3.906.906,0,0,1,.08.39.922.922,0,0,1-.213.623,1.668,1.668,0,0,1-.646.424,1.856,1.856,0,0,1,.391.207,2.246,2.246,0,0,1,.327.274,3.34,3.34,0,0,1,.278.323c.086.113.171.235.256.358a2.608,2.608,0,0,0,.378-.779,3.059,3.059,0,0,0,.128-.893,1.911,1.911,0,0,0-.012-.223c-.011-.072-.023-.14-.04-.21h.5a1.012,1.012,0,0,1,.029.2c0,.06.006.135.011.219a2.808,2.808,0,0,1-.061.572,3.635,3.635,0,0,1-.159.559,4.485,4.485,0,0,1-.231.515,4.4,4.4,0,0,1-.282.448c.072.1.141.188.2.261a1.231,1.231,0,0,0,.183.187.646.646,0,0,0,.188.111.619.619,0,0,0,.225.036.763.763,0,0,0,.189-.025c.066-.017.132-.039.2-.063v.474a1.317,1.317,0,0,1-.236.067,1.546,1.546,0,0,1-.242.021Zm-2.626-.443a1.729,1.729,0,0,0,.809-.191,1.633,1.633,0,0,0,.308-.2,2.667,2.667,0,0,0,.248-.24c-.128-.2-.244-.369-.353-.51a2.9,2.9,0,0,0-.325-.366,2.078,2.078,0,0,0-.35-.265,3.176,3.176,0,0,0-.431-.2,2.5,2.5,0,0,0-.362.174,1.234,1.234,0,0,0-.288.227.989.989,0,0,0-.191.3,1.12,1.12,0,0,0-.068.406.879.879,0,0,0,.079.379.765.765,0,0,0,.214.27.943.943,0,0,0,.318.164,1.376,1.376,0,0,0,.391.054Zm.783-3.2a.538.538,0,0,0-.207-.448.522.522,0,0,0-.2-.1.742.742,0,0,0-.217-.033.7.7,0,0,0-.488.167.589.589,0,0,0-.187.45.754.754,0,0,0,.04.241.779.779,0,0,0,.109.21.923.923,0,0,0,.164.173.983.983,0,0,0,.2.127,1.656,1.656,0,0,0,.589-.32.609.609,0,0,0,.194-.461Zm-5.4,3.572h-2.379v-4.491h2.275v.475h-1.75v1.494h1.621v.475h-1.621v1.572h1.854v.475Zm-7.566,0v-4.491h1.238q2.374,0,2.373,2.188a2.214,2.214,0,0,1-.656,1.672,2.449,2.449,0,0,1-1.767.631Zm.525-4.016v3.54h.67a1.9,1.9,0,0,0,1.374-.474,1.775,1.775,0,0,0,.49-1.341q0-1.728-1.832-1.728h-.7Zm-1.873,4.016h-.584l-.475-1.258h-1.9l-.449,1.258h-.585l1.723-4.491h.545Zm-1.229-1.732-.7-1.917a1.659,1.659,0,0,1-.072-.3h-.012a1.89,1.89,0,0,1-.074.3l-.7,1.911h1.562Zm-3.551,1.732h-.632l-.75-1.26a2.207,2.207,0,0,0-.2-.3,1.133,1.133,0,0,0-.2-.2.679.679,0,0,0-.219-.115.953.953,0,0,0-.266-.036h-.431v1.912h-.526v-4.491h1.341a1.947,1.947,0,0,1,.544.073,1.216,1.216,0,0,1,.431.224,1.05,1.05,0,0,1,.286.375,1.345,1.345,0,0,1,.033.956,1.085,1.085,0,0,1-.2.348,1.209,1.209,0,0,1-.314.261,1.655,1.655,0,0,1-.412.167v.012a.955.955,0,0,1,.193.114,1.236,1.236,0,0,1,.16.152,2.034,2.034,0,0,1,.149.2c.049.077.1.161.164.26l.846,1.35Zm-2.7-4.016v1.629h.714a1.072,1.072,0,0,0,.365-.06.871.871,0,0,0,.291-.17.839.839,0,0,0,.192-.271.952.952,0,0,0,.067-.363.7.7,0,0,0-.233-.561,1,1,0,0,0-.675-.2h-.721Zm-1.918,0h-1.3v4.016h-.525v-4.016h-1.3v-.475h3.118Zm-5.718,4.016h-.629l-.751-1.26a2.256,2.256,0,0,0-.2-.3,1.159,1.159,0,0,0-.2-.2.635.635,0,0,0-.217-.115.946.946,0,0,0-.265-.036h-.432v1.912h-.524v-4.491h1.341a1.948,1.948,0,0,1,.544.073,1.231,1.231,0,0,1,.433.224,1.046,1.046,0,0,1,.287.375,1.236,1.236,0,0,1,.1.524,1.3,1.3,0,0,1-.072.432,1.107,1.107,0,0,1-.2.348,1.165,1.165,0,0,1-.315.261,1.636,1.636,0,0,1-.411.167v.012a1.02,1.02,0,0,1,.2.114,1.138,1.138,0,0,1,.158.152,1.829,1.829,0,0,1,.151.2c.049.077.1.161.163.26l.843,1.35Zm-2.694-4.016v1.629h.715a1.083,1.083,0,0,0,.365-.06.874.874,0,0,0,.29-.17.81.81,0,0,0,.192-.271.916.916,0,0,0,.068-.363.7.7,0,0,0-.232-.561,1.009,1.009,0,0,0-.677-.2h-.721Zm-4.237,4.093a1.973,1.973,0,0,1-1.53-.629,2.335,2.335,0,0,1-.577-1.639,2.473,2.473,0,0,1,.587-1.73,2.039,2.039,0,0,1,1.594-.646,1.925,1.925,0,0,1,1.5.627,2.346,2.346,0,0,1,.568,1.638,2.482,2.482,0,0,1-.583,1.74,2,2,0,0,1-1.56.64Zm.038-4.17a1.448,1.448,0,0,0-1.15.51,2.278,2.278,0,0,0-.009,2.68,1.407,1.407,0,0,0,1.122.507,1.474,1.474,0,0,0,1.164-.483,1.968,1.968,0,0,0,.427-1.352,2.057,2.057,0,0,0-.415-1.375,1.412,1.412,0,0,0-1.139-.486Z" transform="translate(-5722.941 -3295.804)" fill="#201e1e" fill-rule="evenodd"/>
      <path id="Path_45" data-name="Path 45" d="M5743.68,3121.071h1.609v1.607h-1.609Zm94.38,0h1.607v1.607h-1.607Zm-1.2,1.937h1.688v1.687h-1.687Zm2.394,0h1.69v1.687h-1.69Zm-1.377,4.089h1.951v3.684h1.967V3125.9h1.952v6.41h-16.625v.006h-.885a2.634,2.634,0,0,1-3.017,2.407v-1.641c.881-.006,1.316-.617,1.311-1.837v-5.346h1.8v4.892h.486v-.005h7.136V3128.3h1.952v2.482h1.967V3127.1Zm-18.621-4.4h2.579l-4.837,4h2.7q2.8.152,2.929,2.645v2.966h-11.2l0-4.349a5.345,5.345,0,0,0-2.592,3.315l-.215,1.034h-1.765a7.122,7.122,0,0,1,1.938-4.71,5.348,5.348,0,0,1,1.815-1.257,6.607,6.607,0,0,1,2.686-.47v4.915h.664v0h6.719q.41-2.232-1.016-2.3h-4.926v-2.161l4.515-3.628Zm-10.466.311h1.689v1.688h-1.689Zm2.41,0h1.687v1.688H5811.2Zm-11.978-2.538a.987.987,0,0,1,.355-.578h1.072v.638h-.738c-.147-.006-.219.063-.208.208v.468h.946v.607H5799v-.607h.23v-.733Zm1.606,11.836h-1.884v-9.611h1.884Zm-7.932-9.3h1.687v1.688H5792.9Zm-1.593,4.493v3.28h4.757v-2.346a.974.974,0,0,0-.967-.934Zm-1.867-1.608h6.027a3.279,3.279,0,0,1,1.172.2,2.444,2.444,0,0,1,.859.683,2.769,2.769,0,0,1,.567,1.442v4.089h-17.205v-.007h-.412a2.709,2.709,0,0,1-.431,1.666,2.468,2.468,0,0,1-2.1.736h-2.349v-1.624h2.573c.481-.045.663-.3.55-.776a3.051,3.051,0,0,1-2.888-1.234,3.551,3.551,0,0,1-.3-3.239q.611-1.9,4.311-1.934h.632v4.885h.762v0h5.508v-2.8h1.786v2.8h.934v-4.888Zm-10.744,1.575q-2.068.084-1.739,2.122a1.506,1.506,0,0,0,1.739,1.186Zm-4.319,4.838h-1.869v-9.611h1.869Zm-7.646-4.549a1.454,1.454,0,0,1,1.23-1.454h3.629v1.69h-2.512c-.511-.016-.75.278-.722.883v1.824h3.234v1.607h-5.644V3130.7h.785v-2.942Zm-6.925,4.549h-1.869v-9.611h1.869Zm-4.722-9.611h1.871v9.609h-28.992v.006h-.886a2.632,2.632,0,0,1-3.017,2.407v-1.641c.881-.007,1.316-.617,1.312-1.837v-5.347h1.8v4.893h.486v-.005h2.395v-4.888h1.87v4.888h7.658V3128.3h1.952v2.481h1.967v-3.686h1.95v3.686h1.969v-4.886h1.952v4.886h1.9v-4.888h1.888v4.888h1.159v0h.76v-8.088Zm-3.885,10.447h1.685v1.688H5751.2Zm-8.71-10.135h1.688v1.688h-1.688Zm2.4,0h1.687v1.688h-1.687Zm-17.106,10.135h1.69v1.688h-1.69Zm2.412,0h1.675v1.688h-1.675Z" transform="translate(-5723.551 -3119.89)" fill="#201e1e" fill-rule="evenodd"/>
    </g>
  </g>
</svg>
