<svg xmlns="http://www.w3.org/2000/svg" width="32" height="32" viewBox="0 0 32 32"><g transform="translate(23427 -10660)"><path d="M160,604a16,16,0,1,1,16,16A16,16,0,0,1,160,604Z" transform="translate(-23587 10072)" fill="#55acee" fill-rule="evenodd"/><path d="M175.521,601.005l.033.553-.559-.068a9.094,9.094,0,0,1-5.327-2.621l-.739-.734-.19.542a3.258,3.258,0,0,0,.694,3.344c.447.475.346.543-.426.26a1.318,1.318,0,0,0-.526-.124,4.07,4.07,0,0,0,.4,1.514,3.609,3.609,0,0,0,1.533,1.446l.549.26-.649.012c-.627,0-.649.011-.582.248a3.385,3.385,0,0,0,2.093,1.853l.693.237-.6.362a6.3,6.3,0,0,1-3,.836,3.3,3.3,0,0,0-.918.09,8.518,8.518,0,0,0,2.16.995,9.457,9.457,0,0,0,7.342-.836,9.835,9.835,0,0,0,3.727-4.384,11.68,11.68,0,0,0,.761-3.39c0-.52.033-.587.66-1.209a7.325,7.325,0,0,0,.783-.87c.112-.215.1-.215-.47-.022-.951.338-1.085.293-.615-.215a3.29,3.29,0,0,0,.761-1.209c0-.034-.168.022-.358.124a6.2,6.2,0,0,1-.985.384l-.605.192-.548-.372a4.535,4.535,0,0,0-.951-.5,3.825,3.825,0,0,0-1.959.046A3.234,3.234,0,0,0,175.521,601.005Z" transform="translate(-23587 10072)" fill="#fff" fill-rule="evenodd"/></g></svg>